<?xml version="1.0" encoding="utf-8"?>
<svg xmlns="http://www.w3.org/2000/svg" xmlns:xlink="http://www.w3.org/1999/xlink" style="margin: auto; background: none; display: block; shape-rendering: auto;" width="167px" height="167px" viewBox="0 0 100 100" preserveAspectRatio="xMidYMid">
<g transform="rotate(0 50 50)">
  <rect x="46" y="28" rx="2.4" ry="2.4" width="8" height="6" fill="#29a1dc">
    <animate attributeName="opacity" values="1;0" keyTimes="0;1" dur="0.7575757575757576s" begin="-0.6944444444444444s" repeatCount="indefinite"></animate>
  </rect>
</g><g transform="rotate(30 50 50)">
  <rect x="46" y="28" rx="2.4" ry="2.4" width="8" height="6" fill="#ffed00">
    <animate attributeName="opacity" values="1;0" keyTimes="0;1" dur="0.7575757575757576s" begin="-0.6313131313131313s" repeatCount="indefinite"></animate>
  </rect>
</g><g transform="rotate(60 50 50)">
  <rect x="46" y="28" rx="2.4" ry="2.4" width="8" height="6" fill="#2f4798">
    <animate attributeName="opacity" values="1;0" keyTimes="0;1" dur="0.7575757575757576s" begin="-0.5681818181818182s" repeatCount="indefinite"></animate>
  </rect>
</g><g transform="rotate(90 50 50)">
  <rect x="46" y="28" rx="2.4" ry="2.4" width="8" height="6" fill="#29a1dc">
    <animate attributeName="opacity" values="1;0" keyTimes="0;1" dur="0.7575757575757576s" begin="-0.5050505050505051s" repeatCount="indefinite"></animate>
  </rect>
</g><g transform="rotate(120 50 50)">
  <rect x="46" y="28" rx="2.4" ry="2.4" width="8" height="6" fill="#ffed00">
    <animate attributeName="opacity" values="1;0" keyTimes="0;1" dur="0.7575757575757576s" begin="-0.44191919191919193s" repeatCount="indefinite"></animate>
  </rect>
</g><g transform="rotate(150 50 50)">
  <rect x="46" y="28" rx="2.4" ry="2.4" width="8" height="6" fill="#2f4798">
    <animate attributeName="opacity" values="1;0" keyTimes="0;1" dur="0.7575757575757576s" begin="-0.3787878787878788s" repeatCount="indefinite"></animate>
  </rect>
</g><g transform="rotate(180 50 50)">
  <rect x="46" y="28" rx="2.4" ry="2.4" width="8" height="6" fill="#29a1dc">
    <animate attributeName="opacity" values="1;0" keyTimes="0;1" dur="0.7575757575757576s" begin="-0.31565656565656564s" repeatCount="indefinite"></animate>
  </rect>
</g><g transform="rotate(210 50 50)">
  <rect x="46" y="28" rx="2.4" ry="2.4" width="8" height="6" fill="#ffed00">
    <animate attributeName="opacity" values="1;0" keyTimes="0;1" dur="0.7575757575757576s" begin="-0.25252525252525254s" repeatCount="indefinite"></animate>
  </rect>
</g><g transform="rotate(240 50 50)">
  <rect x="46" y="28" rx="2.4" ry="2.4" width="8" height="6" fill="#2f4798">
    <animate attributeName="opacity" values="1;0" keyTimes="0;1" dur="0.7575757575757576s" begin="-0.1893939393939394s" repeatCount="indefinite"></animate>
  </rect>
</g><g transform="rotate(270 50 50)">
  <rect x="46" y="28" rx="2.4" ry="2.4" width="8" height="6" fill="#29a1dc">
    <animate attributeName="opacity" values="1;0" keyTimes="0;1" dur="0.7575757575757576s" begin="-0.12626262626262627s" repeatCount="indefinite"></animate>
  </rect>
</g><g transform="rotate(300 50 50)">
  <rect x="46" y="28" rx="2.4" ry="2.4" width="8" height="6" fill="#ffed00">
    <animate attributeName="opacity" values="1;0" keyTimes="0;1" dur="0.7575757575757576s" begin="-0.06313131313131314s" repeatCount="indefinite"></animate>
  </rect>
</g><g transform="rotate(330 50 50)">
  <rect x="46" y="28" rx="2.4" ry="2.4" width="8" height="6" fill="#2f4798">
    <animate attributeName="opacity" values="1;0" keyTimes="0;1" dur="0.7575757575757576s" begin="0s" repeatCount="indefinite"></animate>
  </rect>
</g>
<!-- [ldio] generated by https://loading.io/ --></svg>