<svg width="159" height="98" viewBox="0 0 159 98" fill="none" xmlns="http://www.w3.org/2000/svg">
<path d="M156.184 39.3988C159.926 41.5588 159.937 45.0554 156.227 47.2154L81.6314 90.5653C77.9209 92.7253 71.8793 92.7253 68.1474 90.5653L2.83383 52.7866C-0.898071 50.6265 -0.919458 47.1299 2.79105 44.9699L77.3862 1.62001C81.0967 -0.540002 87.1383 -0.540002 90.8702 1.62001L156.184 39.3988Z" fill="#4B62BE"/>
<path d="M158.975 43.6119C158.964 43.7081 158.953 43.815 158.942 43.9113C158.932 43.9968 158.9 44.0717 158.878 44.1572C158.857 44.2534 158.825 44.3497 158.793 44.4459C158.761 44.5208 158.729 44.5956 158.696 44.6812C158.654 44.7774 158.611 44.8843 158.557 44.9806C158.515 45.0554 158.472 45.1196 158.429 45.1944C158.365 45.3014 158.29 45.419 158.205 45.5259C158.151 45.5901 158.108 45.6543 158.055 45.7184C157.937 45.8681 157.798 46.0071 157.649 46.1568C157.595 46.2103 157.552 46.2638 157.488 46.3065C157.392 46.3921 157.296 46.4669 157.199 46.5525C157.114 46.6273 157.028 46.6915 156.932 46.7663C156.825 46.8412 156.708 46.916 156.59 46.9909C156.472 47.0657 156.355 47.1513 156.226 47.2261L81.6312 90.576C81.3425 90.7471 81.0431 90.8861 80.733 91.0251C80.6474 91.0679 80.5512 91.1 80.455 91.1428C80.209 91.239 79.9631 91.3352 79.7065 91.4315C79.6102 91.4635 79.5247 91.4956 79.4284 91.5277C79.2681 91.5812 79.1076 91.6239 78.9366 91.6667C78.8082 91.6988 78.6906 91.7416 78.5623 91.763C78.3912 91.8057 78.2094 91.8378 78.0383 91.8806C77.9207 91.902 77.8031 91.934 77.6748 91.9554C77.3219 92.0196 76.9583 92.0731 76.5948 92.1051C76.4771 92.1158 76.3702 92.1265 76.2526 92.1372C76.0387 92.1586 75.8249 92.1693 75.611 92.18C75.472 92.1907 75.333 92.1907 75.194 92.1907C75.0229 92.1907 74.8411 92.1907 74.67 92.1907C74.5203 92.1907 74.3813 92.18 74.2316 92.18C74.0712 92.1693 73.9108 92.1693 73.7504 92.1586C73.6007 92.1479 73.451 92.1372 73.312 92.1265C73.1516 92.1158 72.9912 92.0944 72.8415 92.0731C72.7025 92.0517 72.5528 92.0303 72.4137 92.0089C72.2427 91.9875 72.0716 91.9554 71.9112 91.9233C71.7829 91.902 71.6439 91.8699 71.5155 91.8485C71.3124 91.8057 71.1199 91.7523 70.9274 91.6988C70.8205 91.6667 70.7135 91.6453 70.5959 91.6133C70.243 91.5063 69.9009 91.3994 69.5694 91.2711C69.5266 91.2497 69.4838 91.2283 69.4304 91.2176C68.9813 91.0358 68.5428 90.8327 68.1365 90.5974L2.82298 52.8186C0.940993 51.7386 2.28453e-06 50.3057 0.0106954 48.8836L0 54.3584C0 55.7806 0.930298 57.2028 2.81229 58.2935L68.1258 96.0723C68.5322 96.3075 68.9706 96.5107 69.4197 96.6925C69.4518 96.7032 69.4731 96.7245 69.5052 96.7352C69.5266 96.7459 69.5373 96.746 69.5587 96.7566C69.8902 96.885 70.2324 97.0026 70.5852 97.0988C70.6173 97.1095 70.6387 97.1202 70.6708 97.1309C70.7456 97.1523 70.8312 97.1736 70.9167 97.195C71.1092 97.2485 71.3124 97.2913 71.5048 97.3448C71.5583 97.3554 71.6118 97.3768 71.6652 97.3875C71.7401 97.4089 71.8256 97.4089 71.9005 97.4303C72.0716 97.4624 72.232 97.4945 72.4031 97.5159C72.4672 97.5265 72.5421 97.5372 72.6062 97.5479C72.6811 97.5586 72.7559 97.5586 72.8308 97.5693C72.9912 97.5907 73.1516 97.6121 73.3013 97.6228C73.3761 97.6335 73.451 97.6442 73.5258 97.6442C73.6007 97.6442 73.6648 97.6549 73.7397 97.6549C73.9001 97.6656 74.0605 97.6762 74.2209 97.6762C74.3064 97.6762 74.3813 97.6869 74.4668 97.6869C74.531 97.6869 74.5952 97.6869 74.6593 97.6869C74.8304 97.6869 75.0122 97.6869 75.1833 97.6869C75.2688 97.6869 75.3544 97.6869 75.4399 97.6869C75.4934 97.6869 75.5468 97.6762 75.5896 97.6762C75.8035 97.6655 76.0173 97.6548 76.2312 97.6335C76.3167 97.6228 76.4023 97.6228 76.4878 97.6121C76.5199 97.6121 76.5413 97.6014 76.5627 97.6014C76.9263 97.5586 77.2898 97.5159 77.6427 97.4517C77.6641 97.4517 77.6748 97.4517 77.6962 97.441C77.8031 97.4196 77.8993 97.3982 78.0063 97.3768C78.1774 97.3448 78.3591 97.302 78.5302 97.2699C78.6585 97.2378 78.7762 97.2057 78.9045 97.1737C79.0649 97.1309 79.236 97.0881 79.3964 97.0346C79.4284 97.024 79.4712 97.0133 79.5033 97.0026C79.5568 96.9812 79.6102 96.9598 79.6744 96.9384C79.931 96.8529 80.177 96.7566 80.4229 96.6497C80.5191 96.6069 80.6047 96.5748 80.7009 96.5321C81.011 96.3931 81.3104 96.2434 81.5992 96.0723L156.194 52.7224C156.237 52.701 156.269 52.6796 156.312 52.6582C156.397 52.6048 156.472 52.5513 156.558 52.4978C156.675 52.423 156.793 52.3481 156.9 52.2733C156.996 52.2091 157.082 52.1343 157.167 52.0594C157.264 51.9846 157.371 51.899 157.456 51.8135C157.477 51.7921 157.499 51.7814 157.52 51.76C157.552 51.7279 157.584 51.6852 157.616 51.6531C157.766 51.5141 157.895 51.3644 158.023 51.2147C158.044 51.1826 158.087 51.1505 158.108 51.1184C158.13 51.0864 158.151 51.0543 158.173 51.0222C158.258 50.9153 158.333 50.7976 158.397 50.6907C158.429 50.6479 158.461 50.5945 158.493 50.5517C158.504 50.5303 158.515 50.4982 158.525 50.4768C158.579 50.3806 158.622 50.2737 158.664 50.1774C158.686 50.124 158.729 50.0598 158.75 50.0063C158.761 49.985 158.761 49.9636 158.771 49.9422C158.803 49.8459 158.825 49.7497 158.857 49.6535C158.878 49.5893 158.9 49.5252 158.91 49.461C158.91 49.4396 158.91 49.4289 158.921 49.4075C158.942 49.3113 158.942 49.2044 158.953 49.1081C158.964 49.044 158.975 48.9798 158.975 48.9157C158.975 48.8836 158.975 48.8622 158.975 48.8301L158.985 43.3552C158.996 43.4301 158.985 43.5263 158.975 43.6119Z" fill="#021D7A"/>
<path d="M118.188 45.1713L116.403 44.093V42.4198L118.3 43.4609C119.49 44.1674 119.899 43.9443 119.899 42.7544V35.2433C119.899 34.0535 118.932 32.5289 117.742 31.8225L116.403 31.0416V29.4055L118.188 30.4838C119.787 31.4506 121.126 33.5329 121.126 35.1318V43.9815C121.126 45.5804 119.824 46.1009 118.188 45.1713Z" fill="#5BC5F2"/>
<path d="M42 51.3068L75.0934 70.7538L118.189 45.1716V43.4983L42 49.6336V51.3068Z" fill="#5BC5F2"/>
<path d="M75.0928 69.1178V70.7538L118.188 45.1716V43.4983L75.0928 69.1178Z" fill="#29A1DC"/>
<path d="M42 49.6338L75.0934 69.118L118.189 43.4985L85.0957 24.0515L42 49.6338Z" fill="#29A1DC"/>
<path d="M43.6738 37.5861L84.0552 21.1138L116.145 32.7522L116.107 43.6098L78.4405 67.0354C78.4405 67.0354 77.325 68.8203 76.2838 68.3741L43.6738 49.2617V37.5861Z" fill="#F3F3F3"/>
<path d="M42 38.2553L75.0934 57.7023L118.189 32.12V30.4468L94.1685 32.3803L42 36.6193V38.2553Z" fill="#5BC5F2"/>
<path d="M75.0928 56.0663V57.7023L118.188 32.12V30.4468L75.0928 56.0663Z" fill="#03A169"/>
<path d="M77.2501 71.0883L77.436 61.086C77.436 57.442 73.3086 54.9879 73.3086 54.9879L116.404 29.3684L118.189 30.4467C119.788 31.4135 121.127 33.4958 121.127 35.0947V43.9444C121.127 44.5393 120.941 44.9855 120.643 45.283C120.086 45.7663 77.2501 71.0883 77.2501 71.0883Z" fill="#5BC5F2"/>
<path d="M77.3244 60.1567L120.978 34.2397C121.052 34.5372 121.089 34.8347 121.089 35.1322V43.9818C121.089 44.5768 120.903 45.023 120.606 45.3204C120.085 45.8038 77.25 71.1258 77.25 71.1258L77.4359 61.1234C77.4359 60.7516 77.3987 60.4542 77.3244 60.1567Z" fill="#29A1DC"/>
<path d="M121.089 44.1301C121.052 44.6507 120.903 45.0597 120.606 45.32C120.085 45.8034 77.25 71.1254 77.25 71.1254L77.2872 70.1958C92.049 61.4205 113.69 48.6293 121.089 44.1301Z" fill="#036FAA"/>
<path d="M75.0934 70.7543L73.3086 69.676V68.0027L75.205 69.0438C76.3948 69.7503 76.8039 69.49 76.8039 68.3374V60.8635C76.8039 59.6736 75.8371 58.1491 74.6472 57.4426L73.3086 56.6617V55.0256L75.0934 56.104C76.6923 57.0707 78.0309 59.153 78.0309 60.7519V69.6016C78.0309 71.2005 76.7295 71.721 75.0934 70.7543Z" fill="#29A1DC"/>
<path d="M42 36.6195L75.0934 56.0665L118.189 30.447L85.0957 11L42 36.6195Z" fill="#5BC5F2"/>
<path d="M42 36.6195L75.0934 56.0665L118.189 30.447L74.8331 55.1741L42 36.6195Z" fill="#5BC5F2"/>
<g opacity="0.2">
<path opacity="0.2" d="M108.441 24.9575C108.441 24.9575 108.441 24.9203 108.441 24.9575C108.33 24.7344 108.218 24.4741 108.106 24.2882C108.106 24.2882 108.106 24.251 108.069 24.251C107.958 24.0279 107.809 23.8048 107.66 23.6189C107.512 23.3958 107.363 23.2099 107.214 23.024C107.214 23.024 107.214 22.9868 107.177 22.9868C107.028 22.8009 106.879 22.6149 106.693 22.4662C106.656 22.429 106.619 22.3918 106.619 22.3918C106.47 22.2431 106.284 22.0944 106.099 21.9456C106.061 21.9085 106.024 21.9084 106.024 21.8713C105.838 21.7225 105.652 21.611 105.466 21.4994C105.429 21.4623 105.392 21.4622 105.355 21.4622C104.797 21.1648 104.314 21.016 103.868 21.0532H103.83C103.756 21.0532 103.644 21.0904 103.57 21.0904C103.533 21.0904 103.533 21.0904 103.496 21.0904C103.384 21.1276 103.31 21.1648 103.235 21.202L100.818 22.6149C100.781 22.4662 100.781 22.3175 100.744 22.1687C99.108 22.9868 97.4719 23.8792 95.8359 24.6229C92.824 25.9986 89.8121 27.3372 86.9118 28.899C84.0115 30.4607 81.2227 32.2827 78.2481 33.7328C75.2734 35.183 72.2243 36.5216 69.2125 37.8974C64.4158 40.0912 59.5447 42.1363 55.4174 45.3713C55.3058 45.8175 55.2314 46.2637 55.2314 46.7842C55.2314 49.8333 57.574 53.7004 60.4371 55.3736C61.7014 56.1173 62.8169 56.1917 63.5977 55.7455L82.5985 44.5161C82.8216 44.5161 83.0076 44.4417 83.0819 44.4045L85.0898 43.2146L85.3873 45.5572L87.3208 43.0287L90.4814 43.7352V43.4377V43.4005L88.771 40.8349L88.9569 40.7233L89.6634 41.6901L90.1096 40.054L91.9316 38.9757L93.5305 38.6411V38.3808L93.2702 38.1948L107.66 29.6798C107.809 29.6055 107.958 29.5311 108.069 29.4195H108.106C108.627 28.9733 108.924 28.2297 108.924 27.2257C108.999 26.5192 108.813 25.7384 108.441 24.9575Z" fill="#000202"/>
</g>
<path d="M54.4127 40.6493C54.4127 40.6493 100.409 13.5053 100.483 13.4681C101.71 12.7244 103.458 12.8359 105.429 14.0258V15.2901C102.863 15.9594 100.037 17.6326 100.037 17.8185C100.037 18.2276 100.111 18.6738 100.186 19.0828L102.677 17.6326C103.235 17.298 104.053 17.3352 104.982 17.8929C106.99 19.0828 108.663 21.7972 108.663 23.9538C108.663 24.995 108.329 25.7758 107.808 26.222H107.771C107.622 26.3336 107.511 26.4079 107.325 26.4823L61.7379 53.4776L60.0274 52.8826H59.9902V52.8454L57.5733 52.0274L54.6358 48.6065L53.6318 44.3304L54.4127 40.6493Z" fill="#93866F"/>
<path d="M59.2836 41.8763L54.4126 40.6493C54.4126 40.6493 100.409 13.5053 100.483 13.4681C101.71 12.7244 103.458 12.8359 105.428 14.0258V14.5092C104.35 14.8439 59.3208 41.8763 59.2836 41.8763Z" fill="#E2D9C3"/>
<path d="M59.6187 41.0582C55.9747 38.9015 53 40.2773 53 44.1444C53 47.305 55.4169 51.3208 58.3916 53.0684C60.8457 54.5186 62.8536 53.589 62.8536 50.9862C62.8536 48.8295 61.2176 46.1151 59.1725 44.9252C57.4992 43.9213 56.1234 44.5906 56.1234 46.3754C56.1234 47.8627 57.2761 49.7963 58.6891 50.6143C59.879 51.3208 60.8457 50.8746 60.8457 49.5732L59.6187 48.8667C59.6187 49.4244 59.1725 49.6475 58.6519 49.3129C57.9082 48.8667 57.2761 47.8627 57.2761 47.0819C57.2761 46.0035 58.0941 45.5945 59.1353 46.2267C60.5111 47.0447 61.5894 48.8667 61.5894 50.3169C61.5894 52.2132 60.1392 52.8825 58.3544 51.8414C56.0491 50.4656 54.1527 47.3793 54.1527 44.9252C54.1527 41.7646 56.5696 40.6491 59.5443 42.3968V41.0582H59.6187Z" fill="#D9CEB0"/>
<path d="M59.6177 42.3598V41.0583L105.465 14.0259V15.2901L59.6177 42.3598Z" fill="#A5987C"/>
<path d="M60.8828 49.6102L59.6558 48.9037L60.9944 48.1228C61.2175 48.4946 61.3662 48.8665 61.4778 49.2383L60.8828 49.6102Z" fill="#A5987C"/>
<path d="M62.8537 51.0231C62.8537 48.8665 61.2177 46.1521 59.1726 44.9622C58.243 44.4044 57.4249 44.3672 56.8672 44.7019L100.223 19.1196L100.818 18.785L102.715 17.6695C103.272 17.3348 104.09 17.372 105.02 17.9298C107.028 19.1196 108.701 21.834 108.701 23.9907C108.701 25.0318 108.366 25.8127 107.846 26.2589H107.809C107.66 26.3704 107.548 26.4448 107.362 26.5191L61.7382 53.4772C62.4075 53.0682 62.8537 52.213 62.8537 51.0231Z" fill="#BCAF8F"/>
<path d="M100.223 19.12L100.818 18.7853L102.715 17.6698C103.086 17.4467 103.607 17.3723 104.165 17.5583L58.3174 44.6279C57.7596 44.4792 57.239 44.5163 56.8672 44.7766L100.223 19.12Z" fill="#A5987C"/>
<path d="M104.946 17.8186C104.983 17.8186 105.02 17.8558 105.057 17.8558C106.805 18.8969 108.255 21.0164 108.627 22.9871L62.7798 50.0567C62.408 48.1232 60.9578 45.9665 59.2102 44.9254C59.173 44.8882 59.1358 44.8882 59.0986 44.8882L104.946 17.8186Z" fill="#D6CAB0"/>
<path d="M61.7377 47.5653C61.2915 46.8216 60.6966 46.1151 60.0645 45.5945L105.912 18.5249C106.544 19.0827 107.139 19.752 107.585 20.4956L61.7377 47.5653Z" fill="#E2D9C3"/>
<path d="M108.701 23.9163C108.701 23.9534 108.701 23.9534 108.701 23.9163C108.701 24.9574 108.366 25.7383 107.846 26.1845H107.809C107.66 26.296 107.548 26.3704 107.362 26.4447L61.7383 53.4772C62.4448 53.0682 62.891 52.213 62.891 51.0231L108.701 23.9163Z" fill="#A5987C"/>
<path d="M59.6177 40.5006C60.8448 39.7569 105.465 14.0259 105.465 14.0259L59.6177 41.0583C58.6509 40.5006 57.7214 40.1659 56.9033 40.0916C56.9033 40.0916 57.8701 39.8685 59.6177 40.5006Z" fill="#EFE7D3"/>
<path d="M74.1211 29.0484C74.1955 28.7137 74.2326 28.4906 75.2366 28.3047C75.2738 28.3047 75.311 28.3047 75.3482 28.3047C74.9391 28.565 74.5301 28.7881 74.1211 29.0484Z" fill="#A82A43"/>
<path d="M82.376 41.2817C82.2644 41.5048 82.1157 41.6536 81.9297 41.728C81.8182 41.7651 81.6323 41.8395 81.4092 41.8395L82.376 41.2817Z" fill="#A82A43"/>
<path d="M82.8577 38.4185C82.8577 35.1835 80.3664 31.1305 77.3545 29.3085C76.2762 28.6764 75.2722 28.5277 74.417 28.7136C76.1274 27.7096 77.8007 26.7057 79.4368 25.7389C80.292 25.4042 81.4075 25.553 82.5974 26.2223C85.6092 28.0071 88.0262 32.0229 88.0262 35.2207C88.0262 36.9311 87.4684 38.121 86.5388 38.7903L81.7793 41.5791C82.4486 40.947 82.8577 39.8686 82.8577 38.4185Z" fill="#A82A43"/>
<path d="M83.0445 38.4177C83.0445 35.1456 80.516 30.9438 77.4298 29.1218C76.3514 28.4897 75.3103 28.3038 74.4551 28.5269C76.2027 27.4858 77.9131 26.4818 79.5864 25.515C80.4788 25.1804 81.5943 25.3291 82.7842 26.0356C85.8704 27.8576 88.3617 31.9478 88.3617 35.2199C88.3617 36.9304 87.7668 38.1946 86.8372 38.8639L82.0033 41.7271C82.6355 41.0206 83.0445 39.8679 83.0445 38.4177Z" fill="#C6324E"/>
<path d="M81.0369 25.3669C81.5947 25.4413 82.1896 25.6644 82.7845 25.9991C84.495 27.003 85.9823 28.7135 87.0235 30.5726L81.7062 33.696C80.6651 31.7997 79.1405 30.0893 77.4301 29.0853C76.8352 28.7506 76.2774 28.5275 75.7568 28.4532L81.0369 25.3669Z" fill="#D0384F"/>
<path d="M92.7501 35.5188V35.8163L89.4036 36.4856L88.7343 38.9397L85.3506 34.2917L92.7501 35.5188Z" fill="#A82A43"/>
<path d="M86.2058 31.2051L92.7501 35.5184L89.4036 36.1877L88.7343 38.679L85.3506 33.9938L86.2058 31.2051Z" fill="#D0384F"/>
<path d="M85.2756 34.515L89.5889 40.7246L89.6261 41.0593L86.3168 40.3156L84.3089 42.9556L83.1934 33.6226L85.2756 34.515Z" fill="#A82A43"/>
<path d="M85.2756 34.2172L89.6261 40.7615L86.3168 40.0178L84.3089 42.6207L83.1934 33.2876L85.2756 34.2172Z" fill="#D0384F"/>
<path d="M82.0779 28.3786C81.3342 28.7504 81.1483 29.6056 81.1855 30.6839C81.2227 31.3532 81.0739 32.2085 81.297 32.9521C81.4458 33.4727 81.8548 33.9189 82.1151 34.4767C82.4497 35.1088 82.5985 36.0384 83.0447 36.5218C83.6396 37.1911 84.6807 37.5257 85.3129 37.8232C86.0937 38.195 86.763 38.3809 87.3951 37.7116C88.3247 37.5629 88.7709 36.5589 88.6222 35.555C88.5106 34.8485 88.8081 34.0676 88.5478 33.2124C88.3991 32.6919 87.9901 32.1341 87.7298 31.6135C87.3208 30.7955 86.8746 29.9031 86.3168 29.3453C85.6475 28.676 84.8667 28.0811 84.1602 28.2298C83.6768 28.3042 82.9331 27.9324 82.0779 28.3786Z" fill="#5A1B36"/>
<path d="M81.818 28.5271C81.6692 28.9733 80.9999 29.5682 81.4461 30.4235C81.7808 31.0184 81.1115 31.8364 81.3718 32.6173C81.5577 33.175 82.4501 33.5841 82.7476 34.179C83.0822 34.8855 82.9335 36.001 83.3797 36.5216C83.9746 37.2652 84.9042 36.8934 86.0941 37.823C86.2428 37.9345 86.4659 38.0089 86.6518 38.0833C86.2428 38.1576 85.8338 37.9717 85.3504 37.7858C84.7183 37.4883 83.64 37.1537 83.0822 36.4844C82.6732 36.001 82.4873 35.0714 82.1526 34.4393C81.8923 33.8815 81.4833 33.4725 81.3346 32.9148C81.1115 32.1711 81.2602 31.2787 81.223 30.6466C81.1487 29.717 81.2974 28.9733 81.818 28.5271Z" fill="#4F1632"/>
<path d="M86.1304 37.0424C86.6137 37.1912 87.0599 37.1912 87.3946 37.0052C88.1383 36.6334 88.287 35.6666 88.3242 35.1461C88.3985 34.1049 88.1011 32.8779 87.5061 31.7252C86.7253 30.2007 85.5354 29.048 84.4199 28.6761C83.9365 28.5274 83.4903 28.5274 83.1557 28.7133C82.412 29.0852 82.2633 30.0519 82.2261 30.5725C82.1517 31.6136 82.4492 32.8407 83.0441 33.9934C83.825 35.4807 85.0148 36.6706 86.1304 37.0424Z" fill="#683751"/>
<path d="M87.0594 37.0792C87.8031 36.7074 87.9518 35.7406 87.989 35.2201C88.0634 34.1789 87.7659 32.9519 87.171 31.7992C86.3901 30.2747 85.2002 29.122 84.0847 28.7501C83.7501 28.6386 83.4898 28.6386 83.2295 28.6758C83.5641 28.527 83.9732 28.527 84.4194 28.6758C85.5349 29.0476 86.7247 30.2003 87.5056 31.7248C88.1005 32.8775 88.398 34.1045 88.3236 35.1457C88.2865 35.7034 88.1377 36.633 87.3941 37.0049C87.2825 37.0792 87.1338 37.1164 86.985 37.1164C87.0222 37.1164 87.0594 37.1164 87.0594 37.0792Z" fill="#3F0E26"/>
<path d="M83.4542 28.2674C82.6362 28.6021 81.8182 28.9367 81.9669 30.5356C81.5951 29.8663 81.5207 28.0815 83.4542 28.2674Z" fill="#6B2949"/>
<path d="M81.8538 32.5802C81.9654 32.8033 82.3 33.2866 82.2629 33.2866C81.8167 33.1379 81.4448 32.543 81.4448 32.2083C81.4448 31.9852 81.482 31.3903 81.8167 31.3159C81.8167 31.3531 81.482 31.8737 81.8538 32.5802Z" fill="#6B2949"/>
<path d="M83.8621 36.4101C84.048 36.5216 84.5314 36.7447 84.4942 36.7447C84.0852 37.0422 83.5275 36.7447 83.4159 36.3729C83.3044 36.1126 83.1184 35.4805 83.3415 35.1086C83.3043 35.1458 83.2672 36.001 83.8621 36.4101Z" fill="#6B2949"/>
<path d="M86.8007 37.5628C86.9866 37.4885 87.3212 37.2654 87.3212 37.3025C87.2097 37.7859 86.7635 38.0462 86.5032 37.8975C86.3173 37.8231 85.9083 37.5628 85.8711 37.1538C85.9083 37.191 86.2801 37.7487 86.8007 37.5628Z" fill="#6B2949"/>
</svg>
