<svg width="220" height="202" viewBox="0 0 220 202" fill="none" xmlns="http://www.w3.org/2000/svg">
<g clip-path="url(#clip0)">
<path d="M33.3924 188.472L6.4508 154.746C5.51115 153.555 5.00001 152.082 5.00001 150.564C5.00001 149.046 5.51115 147.573 6.4508 146.382L33.3924 112.656C34.5507 111.427 36.1273 110.679 37.8105 110.558C39.4936 110.438 41.1605 110.954 42.4814 112.006C43.8024 113.057 44.6811 114.567 44.9437 116.236C45.2063 117.906 44.8337 119.613 43.8996 121.02L25.714 143.819L85.7938 143.819C87.5801 143.819 89.2933 143.108 90.5564 141.843C91.8196 140.578 92.5292 138.862 92.5292 137.074L92.5292 -0.210919C92.5292 -1.99984 93.2388 -3.71549 94.5019 -4.98045C95.7651 -6.24541 97.4783 -6.95606 99.2646 -6.95606C101.051 -6.95606 102.764 -6.24541 104.027 -4.98045C105.29 -3.71549 106 -1.99984 106 -0.21092L106 137.074C106 142.44 103.871 147.587 100.082 151.382C96.2924 155.177 91.1528 157.309 85.7938 157.309L25.714 157.309L43.8996 180.108C44.8504 181.294 45.3726 182.768 45.3814 184.29C45.3767 185.303 45.1442 186.302 44.7011 187.213C44.258 188.123 43.6158 188.923 42.822 189.551C41.4262 190.654 39.6516 191.159 37.8851 190.957C36.1187 190.755 34.5037 189.861 33.3924 188.472Z" fill="#F2CB00"/>
<path d="M28.3924 184.428L1.4508 150.702C0.511148 149.511 6.95176e-06 148.038 6.88541e-06 146.52C6.81907e-06 145.002 0.511148 143.529 1.4508 142.338L28.3924 108.612C29.5507 107.383 31.1273 106.635 32.8105 106.514C34.4936 106.394 36.1605 106.911 37.4814 107.962C38.8024 109.014 39.6811 110.523 39.9437 112.193C40.2063 113.862 39.8337 115.569 38.8996 116.976L20.714 139.775L80.7938 139.775C82.5801 139.775 84.2933 139.064 85.5564 137.799C86.8196 136.534 87.5292 134.819 87.5292 133.03L87.5292 -4.25486C87.5292 -6.04379 88.2388 -7.75944 89.5019 -9.0244C90.7651 -10.2894 92.4783 -11 94.2646 -11C96.0509 -11 97.7641 -10.2894 99.0272 -9.0244C100.29 -7.75944 101 -6.04379 101 -4.25487L101 133.03C101 138.396 98.8711 143.543 95.0817 147.338C91.2924 151.133 86.1528 153.265 80.7938 153.265L20.714 153.265L38.8996 176.064C39.8504 177.25 40.3726 178.724 40.3814 180.246C40.3767 181.259 40.1442 182.258 39.7011 183.169C39.258 184.08 38.6158 184.879 37.822 185.507C36.4262 186.61 34.6516 187.115 32.8851 186.913C31.1187 186.711 29.5037 185.817 28.3924 184.428Z" fill="#FFED00"/>
<path d="M186.608 188.472L213.549 154.746C214.489 153.555 215 152.082 215 150.564C215 149.046 214.489 147.573 213.549 146.382L186.608 112.656C185.449 111.427 183.873 110.679 182.19 110.558C180.506 110.438 178.839 110.954 177.519 112.006C176.198 113.057 175.319 114.567 175.056 116.236C174.794 117.906 175.166 119.613 176.1 121.02L194.286 143.819L134.206 143.819C132.42 143.819 130.707 143.108 129.444 141.843C128.18 140.578 127.471 138.862 127.471 137.074L127.471 -0.210919C127.471 -1.99984 126.761 -3.71549 125.498 -4.98045C124.235 -6.24541 122.522 -6.95606 120.735 -6.95606C118.949 -6.95606 117.236 -6.24541 115.973 -4.98045C114.71 -3.71549 114 -1.99984 114 -0.21092L114 137.074C114 142.44 116.129 147.587 119.918 151.382C123.708 155.177 128.847 157.309 134.206 157.309L194.286 157.309L176.1 180.108C175.15 181.294 174.627 182.768 174.619 184.29C174.623 185.303 174.856 186.302 175.299 187.213C175.742 188.123 176.384 188.923 177.178 189.551C178.574 190.654 180.348 191.159 182.115 190.957C183.881 190.755 185.496 189.861 186.608 188.472Z" fill="#F2CB00"/>
<path d="M191.608 184.428L218.549 150.702C219.489 149.511 220 148.038 220 146.52C220 145.002 219.489 143.529 218.549 142.338L191.608 108.612C190.449 107.383 188.873 106.635 187.19 106.514C185.506 106.394 183.839 106.911 182.519 107.962C181.198 109.014 180.319 110.523 180.056 112.193C179.794 113.862 180.166 115.569 181.1 116.976L199.286 139.775L139.206 139.775C137.42 139.775 135.707 139.064 134.444 137.799C133.18 136.534 132.471 134.819 132.471 133.03L132.471 -4.25486C132.471 -6.04379 131.761 -7.75944 130.498 -9.0244C129.235 -10.2894 127.522 -11 125.735 -11C123.949 -11 122.236 -10.2894 120.973 -9.0244C119.71 -7.75944 119 -6.04379 119 -4.25487L119 133.03C119 138.396 121.129 143.543 124.918 147.338C128.708 151.133 133.847 153.265 139.206 153.265L199.286 153.265L181.1 176.064C180.15 177.25 179.627 178.724 179.619 180.246C179.623 181.259 179.856 182.258 180.299 183.169C180.742 184.08 181.384 184.879 182.178 185.507C183.574 186.61 185.348 187.115 187.115 186.913C188.881 186.711 190.496 185.817 191.608 184.428Z" fill="#FFED00"/>
</g>
<defs>
<clipPath id="clip0">
<rect width="220" height="202.001" fill="white"/>
</clipPath>
</defs>
</svg>
