<svg width="210" height="211" viewBox="0 0 210 211" fill="none" xmlns="http://www.w3.org/2000/svg">
<path d="M210 105.055C210 163.076 162.99 210.11 105 210.11C47.0101 210.11 0 163.076 0 105.055C0 47.0348 47.0101 0 105 0C162.99 0 210 47.0348 210 105.055Z" fill="#3D79CF"/>
<path d="M102.303 92.6678C101.82 92.9453 101.354 93.2216 100.897 93.4973C101.771 93.1658 102.683 92.9123 103.624 92.7403C103.171 92.7121 102.727 92.687 102.303 92.6678Z" fill="#F2F2F2"/>
<path d="M94.0779 98.1235C93.9718 98.3926 93.8699 98.6581 93.7692 98.9224C94.1594 98.3902 94.5831 97.8843 95.0362 97.4061C94.703 97.6524 94.38 97.8927 94.0779 98.1235Z" fill="#F2F2F2"/>
<path d="M121.333 102.461C121.196 102.297 121.061 102.144 120.923 101.984C121.179 102.577 121.398 103.189 121.581 103.817C121.497 103.33 121.414 102.872 121.333 102.461Z" fill="#F2F2F2"/>
<path d="M122.416 110.545C122.355 109.769 122.285 109.028 122.208 108.318C122.201 109.435 122.076 110.524 121.848 111.575C122.05 111.216 122.241 110.87 122.416 110.545Z" fill="#F2F2F2"/>
<path d="M90.4657 110.211C90.8091 111.23 91.1591 112.2 91.5085 113.118C91.071 111.781 90.8073 110.365 90.745 108.897C90.6365 109.382 90.5424 109.824 90.4657 110.211Z" fill="#F2F2F2"/>
<path d="M93.1423 117.069C93.3053 117.156 93.4666 117.236 93.629 117.32C93.0842 116.553 92.6059 115.734 92.2038 114.874C92.5226 115.655 92.8379 116.39 93.1423 117.069Z" fill="#F2F2F2"/>
<path d="M96.1006 93.4612C96.329 93.1855 96.5585 92.9134 96.7881 92.6425C96.685 92.6467 96.5849 92.6509 96.4908 92.6551C96.3584 92.9254 96.2283 93.1939 96.1006 93.4612Z" fill="#F2F2F2"/>
<path d="M132.269 43.0078C128.458 43.6264 125.651 45.8739 126.001 48.0273C126.35 50.1807 129.724 51.4249 133.535 50.8064C137.347 50.1873 140.153 47.9398 139.804 45.787C139.454 43.6335 136.082 42.3893 132.269 43.0078Z" fill="#F2F2F2"/>
<path d="M159.664 72.9693C158.573 74.9159 160.479 78.0595 163.922 79.9929C167.367 81.9264 171.044 81.9156 172.136 79.9702C173.227 78.0241 171.322 74.88 167.878 72.9465C164.432 71.0137 160.756 71.0238 159.664 72.9693Z" fill="#F2F2F2"/>
<path d="M191.812 124.138C191.812 124.138 162.871 80.1044 108.505 89.4745C125.746 81.5944 152.999 77.2887 181.069 105.482C181.069 105.482 183.747 106.788 181.541 102.553C181.541 102.553 178.954 96.9824 162.899 85.2348C162.899 85.2348 140.432 71.6867 161.058 67.3104C161.058 67.3104 177.795 66.5126 185.235 67.4866C185.235 67.4866 193.045 68.4713 187.685 65.5153C187.685 65.5153 135.149 47.941 97.2388 92.1068C97.0524 92.1613 96.8654 92.2194 96.6784 92.2752C104.961 75.6591 123.168 55.3482 162.173 59.863C162.173 59.863 165.017 59.2313 160.751 57.335C160.751 57.335 155.379 54.6488 135.945 55.4387C135.945 55.4387 110.506 58.7566 123.62 42.8484C123.62 42.8484 135.939 32.0459 142.222 28.2605C142.222 28.2605 148.797 24.2575 142.898 25.2602C142.898 25.2602 87.3575 45.5053 89.9221 108.538C84.2901 90.4502 81.8322 58.9562 119.1 34.8952C119.1 34.8952 120.934 32.5476 116.334 33.823C116.334 33.823 110.346 35.1931 95.5115 48.448C95.5115 48.448 77.5793 67.5981 77.5961 46.5133C77.5961 46.5133 80.3045 29.9764 82.8067 22.9036C82.8067 22.9036 85.3977 15.4694 81.3893 20.0963C81.3893 20.0963 52.9885 68.2783 89.0722 114.768C72.9099 104.937 54.337 84.9435 61.5602 46.2113C61.5602 46.2113 61.1161 43.2643 58.8806 47.4837C58.8806 47.4837 55.7604 52.7752 55.1952 72.6606C55.1952 72.6606 56.7829 98.8481 41.4782 84.3459C41.4782 84.3459 31.3266 71.0137 27.908 64.3353C27.908 64.3353 24.2874 57.3446 24.8945 63.4362C24.8945 63.4362 39.812 115.218 95.7536 122.553C95.9011 122.708 96.0395 122.865 96.1888 123.02C96.1888 123.02 96.0911 122.861 95.9232 122.573C97.7123 122.805 99.5444 122.988 101.417 123.127C98.2469 122.052 95.5313 119.996 93.6308 117.319C93.4684 117.235 93.3077 117.155 93.1441 117.069C92.8397 116.389 92.5244 115.655 92.2049 114.874C91.9394 114.306 91.7075 113.719 91.5103 113.117C91.1609 112.2 90.8109 111.23 90.4675 110.21C90.5442 109.823 90.6383 109.38 90.7468 108.895C90.7372 108.671 90.73 108.446 90.73 108.219C90.73 104.741 91.8609 101.527 93.7716 98.9218C93.8723 98.6575 93.9742 98.392 94.0803 98.1229C94.3823 97.8928 94.7048 97.6518 95.0386 97.4061C96.658 95.695 98.655 94.3471 100.899 93.4972C101.356 93.2215 101.823 92.9452 102.305 92.6677C102.729 92.6869 103.173 92.7121 103.627 92.7409C104.55 92.5724 105.499 92.4795 106.471 92.4795C112.948 92.4795 118.51 96.3932 120.926 101.984C121.063 102.144 121.198 102.297 121.336 102.461C121.416 102.872 121.499 103.33 121.583 103.817C121.99 105.214 122.213 106.691 122.213 108.22C122.213 108.253 122.21 108.285 122.21 108.318C122.287 109.028 122.358 109.769 122.418 110.545C122.244 110.87 122.053 111.216 121.851 111.575C120.313 118.656 114.012 123.962 106.472 123.962C105.214 123.962 103.994 123.809 102.822 123.531C84.4789 126.846 55.6028 124.855 36.2646 88.4214C36.2646 88.4214 34.1315 86.437 34.9898 91.0268C34.9898 91.0268 35.8252 96.974 47.5003 112.53C47.5003 112.53 64.6648 131.597 44.1237 129.822C44.1237 129.822 28.2394 125.806 21.5586 122.779C21.5586 122.779 14.532 119.636 18.704 123.925C18.704 123.925 65.0981 156.904 114.509 122.354C102.478 137.139 78.5742 155.061 39.1024 139.322C39.1024 139.322 36.1255 139.186 39.8318 142.198C39.8318 142.198 44.418 146.284 63.8161 150.693C63.8161 150.693 89.8154 154.211 72.6204 166.415C72.6204 166.415 57.5752 173.791 50.3604 175.849C50.3604 175.849 42.8009 178.046 48.8932 178.631C48.8932 178.631 106.962 173.657 122.607 113.927C123.218 132.353 117.481 163.376 75.2934 176.099C75.2934 176.099 72.9351 177.808 77.6027 177.854C77.6027 177.854 83.5991 178.188 101.123 169.749C101.123 169.749 123.156 156.606 117.433 176.413C117.433 176.413 110.415 191.216 106.15 197.186C106.15 197.186 101.704 203.47 106.721 200.208C106.721 200.208 147.556 161.572 124.198 106.946C124.198 106.94 124.199 106.935 124.201 106.93C124.201 106.93 124.196 106.94 124.195 106.942C123.908 106.268 123.618 105.594 123.31 104.915C134.939 120.013 146.269 146.711 123.1 181.127C123.1 181.127 122.338 184.008 126.064 181.023C126.064 181.023 131.028 177.405 139.44 159.378C139.44 159.378 148.377 134.711 156.668 154.097C156.668 154.097 160.694 170.362 161.18 177.849C161.18 177.849 161.729 185.703 163.59 179.871C163.59 179.871 170.879 123.134 117.471 94.926C135.346 99.5338 158.125 112.919 162.568 150.851C162.568 150.851 163.837 153.474 164.702 148.886C164.702 148.886 166.082 143.041 160.847 124.309C160.847 124.309 151.771 100.313 170.268 109.42C170.268 109.42 183.612 118.927 188.74 124.173C188.737 124.171 194.143 129.649 191.812 124.138ZM96.1006 93.4612C96.2277 93.1939 96.3584 92.9248 96.4908 92.6551C96.5849 92.6509 96.685 92.6461 96.7881 92.6425C96.5585 92.914 96.3296 93.1855 96.1006 93.4612Z" fill="#F2F2F2"/>
<path d="M165.771 112.925C163.757 113.76 163.321 117.329 164.799 120.897C166.277 124.465 169.109 126.68 171.125 125.845C173.14 125.009 173.576 121.44 172.098 117.874C170.62 114.306 167.787 112.09 165.771 112.925Z" fill="#F2F2F2"/>
<path d="M150.842 153.825C148.722 153.131 146.007 155.611 144.778 159.364C143.549 163.119 144.272 166.724 146.392 167.418C148.513 168.111 151.227 165.633 152.457 161.879C153.685 158.124 152.963 154.519 150.842 153.825Z" fill="#F2F2F2"/>
<path d="M113.189 172.605C112.014 170.767 108.424 170.964 105.17 173.044C101.916 175.126 100.233 178.302 101.408 180.14C102.584 181.978 106.174 181.781 109.428 179.701C112.68 177.62 114.364 174.444 113.189 172.605Z" fill="#F2F2F2"/>
<path d="M71.6507 160.666C71.879 158.447 68.8823 156.319 64.9543 155.911C61.0244 155.503 57.6537 156.974 57.4236 159.192C57.1946 161.411 60.1907 163.541 64.12 163.949C68.0499 164.355 71.4199 162.886 71.6507 160.666Z" fill="#F2F2F2"/>
<path d="M47.0353 124.925C48.6103 123.414 47.7215 119.931 45.0503 117.142C42.3778 114.355 38.9334 113.319 37.3596 114.828C35.7845 116.337 36.6739 119.821 39.3452 122.608C42.017 125.398 45.4602 126.434 47.0353 124.925Z" fill="#F2F2F2"/>
<path d="M46.928 82.2836C49.1503 82.0786 50.6577 78.7253 50.2963 74.7919C49.9343 70.8584 47.8396 67.8366 45.6184 68.0415C43.3961 68.2459 41.8881 71.5992 42.2501 75.5327C42.6133 79.4661 44.7062 82.488 46.928 82.2836Z" fill="#F2F2F2"/>
<path d="M82.8409 49.0564C84.5172 50.5295 87.9886 49.3201 90.5975 46.3546C93.2064 43.389 93.9616 39.79 92.2865 38.3169C90.6107 36.8437 87.1387 38.0525 84.5298 41.0181C81.9221 43.9854 81.1651 47.5826 82.8409 49.0564Z" fill="#F2F2F2"/>
</svg>
