<svg width="130" height="131" viewBox="0 0 130 131" fill="none" xmlns="http://www.w3.org/2000/svg">
<path d="M130 65.0341C130 100.952 100.899 130.068 65 130.068C29.1015 130.068 0 100.952 0 65.0341C0 29.1168 29.1015 0 65 0C100.899 0 130 29.1168 130 65.0341Z" fill="#3D79CF"/>
<path d="M117 35H48.1765L60.4118 57.1276H104.765L117 35Z" fill="#4BBBF2"/>
<path d="M26.7647 57.1276L13 35H42.8235L55.0588 57.1276H26.7647Z" fill="#A7D2F2"/>
<path d="M101.706 62.4686H63.4705L82.5881 94.5155L101.706 62.4686Z" fill="#174195"/>
<path d="M57.3527 62.4686H29.8233L64.9998 123.51L78.7645 98.3307L57.3527 62.4686Z" fill="#4BBBF2"/>
</svg>
