<svg width="205" height="164" viewBox="0 0 205 164" fill="none" xmlns="http://www.w3.org/2000/svg">
<g filter="url(#filter0_d_10099_5936)">
<path d="M76.1249 75.5916V59.7961H84.9387C85.8411 55.8413 87.4068 52.1432 89.5096 48.8103L83.2624 42.5632L94.4318 31.3939L100.679 37.641C104.012 35.5382 107.71 33.9705 111.665 33.0701V24.2563H127.46V33.0701C131.415 33.9725 135.113 35.5382 138.446 37.641L144.693 31.3939L155.862 42.5632L149.615 48.8103C151.718 52.1452 153.284 55.8413 154.186 59.7961H163V75.5916H154.186C153.284 79.5464 151.718 83.2445 149.615 86.5773L155.862 92.8245L144.693 103.994L138.446 97.7467C135.111 99.8495 131.415 101.415 127.46 102.318V111.131H123.511V107.394C123.511 103.443 120.674 100.002 116.911 99.3894C116.472 99.3203 116.038 99.2848 115.614 99.2848V91.0317C116.901 91.2488 118.214 91.3871 119.562 91.3871C132.647 91.3871 143.256 80.7784 143.256 67.6938C143.256 54.6093 132.647 44.0006 119.562 44.0006C106.478 44.0006 95.8692 54.6093 95.8692 67.6938C95.8692 72.7543 97.4685 77.4337 100.172 81.2819C99.9642 81.9868 99.8181 82.7173 99.8181 83.4893V91.3871C98.3807 91.3871 97.0322 91.7721 95.8692 92.4473C94.7063 91.7721 93.3577 91.3871 91.9203 91.3871C90.483 91.3871 89.1344 91.7721 87.9715 92.4473C86.9843 91.8728 85.8549 91.5253 84.6584 91.4285L89.5096 86.5773C87.4068 83.2425 85.8411 79.5464 84.9387 75.5916H76.1249Z" fill="#A4D4F0"/>
<path d="M109.013 75.6982C108.575 75.6271 108.142 75.5916 107.716 75.5916V65.7194C107.716 64.6295 108.6 63.745 109.69 63.745H129.435C130.525 63.745 131.409 64.6295 131.409 65.7194V81.5149C131.409 82.6048 130.525 83.4893 129.435 83.4893H115.594C115.493 79.6293 112.707 76.2984 109.013 75.6982Z" fill="#FAB400"/>
<path d="M127.46 81.5149V65.7194C127.46 64.6295 126.576 63.745 125.486 63.745H129.435C130.525 63.745 131.409 64.6295 131.409 65.7194V81.5149C131.409 82.6048 130.525 83.4893 129.435 83.4893H125.486C126.576 83.4893 127.46 82.6048 127.46 81.5149Z" fill="#DC9600"/>
<path d="M125.486 63.745V57.8217C125.486 55.6399 123.719 53.8728 121.537 53.8728H117.588C115.406 53.8728 113.639 55.6399 113.639 57.8217V63.745H111.665V57.8217C111.665 54.55 114.316 51.8984 117.588 51.8984H121.537C124.809 51.8984 127.46 54.55 127.46 57.8217V63.745H125.486Z" fill="#505050"/>
<path d="M115.614 71.6427C115.614 69.461 117.381 67.6938 119.562 67.6938C121.744 67.6938 123.511 69.461 123.511 71.6427C123.511 73.0998 122.712 74.3595 121.537 75.0447V77.566C121.537 78.6559 120.652 79.5404 119.562 79.5404C118.473 79.5404 117.588 78.6559 117.588 77.566V75.0447C116.413 74.3595 115.614 73.0998 115.614 71.6427Z" fill="#BE7800"/>
<path d="M137.986 37.3847C134.653 35.2819 130.955 33.7142 127 32.8139V24H130.949V32.8139C133.938 33.4951 136.777 34.5593 139.427 35.9453L137.986 37.3847Z" fill="#4B62BE"/>
<path d="M154.186 59.7961H150.237C149.335 55.8413 147.769 52.1432 145.666 48.8103L151.914 42.5632L142.719 33.3683L144.693 31.3938L155.862 42.5632L149.615 48.8103C151.718 52.1432 153.286 55.8413 154.186 59.7961Z" fill="#4B62BE"/>
<path d="M137.986 98L139.427 99.4413C136.777 100.827 133.938 101.89 130.949 102.573V111.385H127V102.571C130.955 101.67 134.653 100.103 137.986 98Z" fill="#4B62BE"/>
<path d="M163 59.7961H159.051V75.5916H163V59.7961Z" fill="#4B62BE"/>
<path d="M151.914 92.8245L145.666 86.5773C147.769 83.2425 149.335 79.5464 150.237 75.5916H154.186C153.284 79.5464 151.718 83.2445 149.615 86.5773L155.862 92.8245L144.693 103.994L142.719 102.019L151.914 92.8245Z" fill="#4B62BE"/>
<path d="M99.8181 85.3176C94.9807 80.9798 91.9204 74.7011 91.9204 67.6938C91.9204 54.6093 102.529 44.0006 115.614 44.0006C116.281 44.0006 116.934 44.046 117.588 44.0993C105.429 45.1063 95.8692 55.2746 95.8692 67.6938C95.8692 72.7523 97.4744 77.4219 100.175 81.2661C99.9662 81.9769 99.8181 82.7114 99.8181 83.4893V85.3176Z" fill="#4B62BE"/>
<path d="M89.375 137.847H73.625C72.4824 137.847 71.6179 136.821 71.8039 135.697L73.7727 123.885C73.9215 122.995 74.6918 122.343 75.5937 122.343H87.4062C88.3082 122.343 89.0785 122.995 89.2273 123.885L91.1961 135.697C91.3819 136.819 90.5192 137.847 89.375 137.847Z" fill="#8BB9FF"/>
<path d="M89.375 137.847H81.5V122.343H87.4063C88.3082 122.343 89.0785 122.995 89.2273 123.885L91.1961 135.697C91.3819 136.819 90.5192 137.847 89.375 137.847Z" fill="#2F4798"/>
<path d="M95.1582 136.001C95.1582 137.02 94.3313 137.847 93.3125 137.847H69.6875C68.6687 137.847 67.8418 137.02 67.8418 136.001C67.8418 134.982 68.6687 134.155 69.6875 134.155H93.3125C94.3313 134.155 95.1582 134.982 95.1582 136.001Z" fill="#2F4798"/>
<path d="M95.1582 136.001C95.1582 137.02 94.3313 137.847 93.3125 137.847H81.5V134.155H93.3125C94.3313 134.155 95.1582 134.982 95.1582 136.001Z" fill="#0D0D7A"/>
<path d="M111.154 84.6904V120.497C111.154 122.536 109.502 124.188 107.463 124.188H55.5371C53.4982 124.188 51.8457 122.536 51.8457 120.497V84.6904C51.8457 82.6515 53.4982 80.999 55.5371 80.999H107.463C109.502 80.999 111.154 82.6515 111.154 84.6904Z" fill="#F6F9F9"/>
<path d="M111.154 84.6904V120.497C111.154 122.536 109.502 124.188 107.463 124.188H81.5V80.999H107.463C109.502 80.999 111.154 82.6515 111.154 84.6904Z" fill="#E2DFF4"/>
<path d="M107.463 79.1533H55.5371C52.4843 79.1533 50 81.6376 50 84.6904V120.497C50 123.55 52.4843 126.034 55.5371 126.034H107.463C110.516 126.034 113 123.55 113 120.497V84.6904C113 81.6376 110.516 79.1533 107.463 79.1533ZM109.309 120.497C109.309 121.515 108.48 122.343 107.463 122.343H55.5371C54.5195 122.343 53.6914 121.515 53.6914 120.497V84.6904C53.6914 83.6728 54.5195 82.8447 55.5371 82.8447H107.463C108.48 82.8447 109.309 83.6728 109.309 84.6904V120.497Z" fill="#2F4798"/>
<path d="M113 84.6904V120.497C113 123.55 110.516 126.034 107.463 126.034H81.5V122.343H107.463C108.48 122.343 109.309 121.515 109.309 120.497V84.6904C109.309 83.6728 108.48 82.8447 107.463 82.8447H81.5V79.1533H107.463C110.516 79.1533 113 81.6376 113 84.6904Z" fill="#0D0D7A"/>
<path d="M67.7188 112.499C66.6994 112.499 65.873 111.673 65.873 110.653V98.7178C65.873 97.6985 66.6994 96.8721 67.7188 96.8721C68.7381 96.8721 69.5645 97.6985 69.5645 98.7178V110.653C69.5645 111.673 68.7381 112.499 67.7188 112.499Z" fill="#D6BCA5"/>
<path d="M75.5938 112.499C74.5744 112.499 73.748 111.673 73.748 110.653V104.624C73.748 103.605 74.5744 102.778 75.5938 102.778C76.6131 102.778 77.4395 103.605 77.4395 104.624V110.653C77.4395 111.673 76.6131 112.499 75.5938 112.499Z" fill="#C7A8B2"/>
<path d="M94.2969 113.36C100.209 113.36 105.002 108.568 105.002 102.655C105.002 96.743 100.209 91.9502 94.2969 91.9502C88.3846 91.9502 83.5918 96.743 83.5918 102.655C83.5918 108.568 88.3846 113.36 94.2969 113.36Z" fill="#036FAA"/>
<path d="M105.002 102.655C105.002 108.558 100.199 113.36 94.2969 113.36C91.4373 113.36 88.7499 112.247 86.7271 110.225L94.2969 102.655V100.81H103.156C104.175 100.81 105.002 101.636 105.002 102.655Z" fill="#FFED00"/>
<path d="M105.002 102.655H94.2969V91.9502C100.199 91.9502 105.002 96.7527 105.002 102.655Z" fill="#5BC5F2"/>
<path d="M59.8438 112.499C58.8244 112.499 57.998 111.673 57.998 110.653V92.8115C57.998 91.7922 58.8244 90.9658 59.8438 90.9658C60.8631 90.9658 61.6895 91.7922 61.6895 92.8115V110.653C61.6895 111.673 60.8631 112.499 59.8438 112.499Z" fill="#98B0C0"/>
<path d="M57.998 110.653V112.499C57.998 113.518 58.8244 114.345 59.8438 114.345H75.5938C76.6131 114.345 77.4395 113.518 77.4395 112.499V110.653C74.9844 110.653 60.4432 110.653 57.998 110.653Z" fill="#E2DFF4"/>
</g>
<defs>
<filter id="filter0_d_10099_5936" x="-24" y="-14.0393" width="253" height="191.961" filterUnits="userSpaceOnUse" color-interpolation-filters="sRGB">
<feFlood flood-opacity="0" result="BackgroundImageFix"/>
<feColorMatrix in="SourceAlpha" type="matrix" values="0 0 0 0 0 0 0 0 0 0 0 0 0 0 0 0 0 0 127 0" result="hardAlpha"/>
<feOffset/>
<feGaussianBlur stdDeviation="12"/>
<feColorMatrix type="matrix" values="0 0 0 0 0 0 0 0 0 0 0 0 0 0 0 0 0 0 0.55 0"/>
<feBlend mode="normal" in2="BackgroundImageFix" result="effect1_dropShadow_10099_5936"/>
<feBlend mode="normal" in="SourceGraphic" in2="effect1_dropShadow_10099_5936" result="shape"/>
</filter>
</defs>
</svg>
