<svg width="112" height="72" viewBox="0 0 112 72" fill="none" xmlns="http://www.w3.org/2000/svg">
<path d="M111.23 71.04H71.02C70.74 71.04 70.52 70.82 70.52 70.54V63.01C70.52 62.73 70.74 62.51 71.02 62.51H111.23C111.51 62.51 111.73 62.73 111.73 63.01V70.54C111.73 70.82 111.51 71.04 111.23 71.04ZM71.52 70.04H110.73V63.51H71.52V70.04Z" fill="white"/>
<path d="M53.94 71.04H25.25C24.97 71.04 24.75 70.82 24.75 70.54V63.01C24.75 62.73 24.97 62.51 25.25 62.51H53.94C54.22 62.51 54.44 62.73 54.44 63.01V70.54C54.44 70.82 54.22 71.04 53.94 71.04ZM25.75 70.04H53.44V63.51H25.75V70.04Z" fill="white"/>
<path d="M71.0199 71.04H53.9399C53.6599 71.04 53.4399 70.82 53.4399 70.54V63.01C53.4399 62.73 53.6599 62.51 53.9399 62.51H71.0199C71.2999 62.51 71.5199 62.73 71.5199 63.01V70.54C71.5199 70.82 71.2999 71.04 71.0199 71.04ZM54.4399 70.04H70.5199V63.51H54.4399V70.04Z" fill="white"/>
<path d="M25.25 71.04H0.5C0.22 71.04 0 70.82 0 70.54V63.01C0 62.73 0.22 62.51 0.5 62.51H25.25C25.53 62.51 25.75 62.73 25.75 63.01V70.54C25.75 70.82 25.53 71.04 25.25 71.04ZM1 70.04H24.75V63.51H1V70.04Z" fill="white"/>
<path d="M110.78 58.65H0.5C0.22 58.65 0 58.43 0 58.15V31C0 30.93 0.0100085 30.87 0.0400085 30.8L12.22 2.30003C12.29 2.14003 12.43 2.03003 12.6 2.00003C12.77 1.97003 12.94 2.03003 13.05 2.16003L38.41 30.26L55.97 11.88C56.15 11.7 56.43 11.67 56.64 11.83L111.09 53.69C111.21 53.78 111.29 53.93 111.29 54.09V58.15C111.28 58.42 111.06 58.65 110.78 58.65ZM1 57.65H110.28V54.34L56.38 12.9L38.75 31.34C38.65 31.44 38.53 31.48 38.38 31.49C38.24 31.49 38.11 31.43 38.02 31.32L12.83 3.40004L1 31.09V57.65Z" fill="white"/>
<path d="M110.78 58.65H0.5C0.22 58.65 0 58.43 0 58.15V42.55C0 42.37 0.1 42.21 0.25 42.12L16.29 32.9L29.51 13.77C29.59 13.66 29.71 13.58 29.85 13.56C29.99 13.54 30.13 13.58 30.24 13.67L55.6 34.19L73.22 15.75C73.32 15.64 73.47 15.58 73.62 15.6C73.77 15.61 73.91 15.69 73.99 15.81L92.75 42.44L111.04 53.69C111.19 53.78 111.28 53.94 111.28 54.12V58.18C111.28 58.42 111.06 58.65 110.78 58.65ZM1 57.65H110.28V54.37L92.14 43.21C92.08 43.17 92.03 43.13 91.99 43.07L73.52 16.86L56 35.19C55.82 35.38 55.53 35.4 55.32 35.23L30.02 14.76L17.04 33.54C17 33.6 16.94 33.65 16.88 33.69L0.98999 42.83V57.65H1Z" fill="white"/>
<path d="M110.78 58.6501H0.5C0.22 58.6501 0 58.4301 0 58.1501V50.2401C0 50.1301 0.0400061 50.0301 0.100006 49.9401L13.89 31.6301C14.02 31.4501 14.26 31.3801 14.47 31.4601L27.95 36.6301L41.51 23.4201C41.61 23.3201 41.76 23.2701 41.9 23.2801C42.04 23.2901 42.18 23.3601 42.26 23.4801L55.79 41.9001L69.19 34.7301C69.34 34.6501 69.51 34.6501 69.66 34.7301L83.08 41.9101L96.61 25.5701C96.72 25.4401 96.88 25.3801 97.04 25.3901C97.2 25.4001 97.35 25.5001 97.43 25.6401L111.22 50C111.26 50.08 111.28 50.16 111.28 50.25V58.1601C111.28 58.4201 111.06 58.6501 110.78 58.6501ZM1 57.6501H110.28V50.3801L96.92 26.7701L83.6 42.8701C83.45 43.0501 83.19 43.1001 82.98 42.9901L69.43 35.7401L55.88 42.9801C55.66 43.1001 55.39 43.0401 55.24 42.8401L41.79 24.5401L28.42 37.5701C28.28 37.7101 28.07 37.7501 27.89 37.6801L14.46 32.5401L1 50.4201V57.6501Z" fill="white"/>
<path d="M110.78 58.65H0.5C0.22 58.65 0 58.43 0 58.15V50.24C0 50.1 0.0599829 49.96 0.169983 49.86L12.77 38.89C12.96 38.73 13.24 38.73 13.43 38.89L25.61 49.5L34.85 36.29C35.04 36.02 35.48 36.02 35.67 36.29L44.78 49.32L55.46 31.22C55.64 30.92 56.14 30.92 56.32 31.22L67.05 49.4L73.19 42.54C73.29 42.43 73.42 42.37 73.56 42.37C73.7 42.37 73.84 42.43 73.93 42.54L79.93 49.24L93.61 2.65004C93.67 2.44004 93.86 2.30004 94.08 2.29004C94.29 2.29004 94.49 2.42004 94.57 2.62004L111.25 50.07C111.27 50.12 111.28 50.18 111.28 50.24V58.15C111.28 58.42 111.06 58.65 110.78 58.65ZM1 57.65H110.28V50.33L94.15 4.43004L80.66 50.39C80.61 50.56 80.47 50.7 80.29 50.74C80.11 50.78 79.93 50.72 79.81 50.59L73.59 43.64L67.37 50.59C67.26 50.71 67.11 50.76 66.95 50.76C66.79 50.74 66.65 50.65 66.57 50.52L55.92 32.48L45.27 50.52C45.18 50.67 45.03 50.76 44.86 50.77C44.69 50.76 44.53 50.7 44.43 50.56L35.28 37.48L26.13 50.56C26.05 50.68 25.92 50.75 25.78 50.77C25.64 50.79 25.5 50.74 25.39 50.65L13.11 39.96L1.00998 50.5V57.65H1Z" fill="white"/>
<path d="M12.8801 0C11.6101 0 10.5801 1.03 10.5801 2.3C10.5801 3.56 11.6101 4.59001 12.8801 4.59001C14.1501 4.59001 15.1801 3.56 15.1801 2.3C15.1801 1.03 14.1501 0 12.8801 0Z" fill="white"/>
<path d="M97.5803 23.6602C96.3103 23.6602 95.2803 24.6902 95.2803 25.9602C95.2803 27.2202 96.3103 28.2502 97.5803 28.2502C98.8503 28.2502 99.8803 27.2202 99.8803 25.9602C99.8803 24.7002 98.8503 23.6602 97.5803 23.6602Z" fill="#FFED00"/>
<path d="M55.6506 38.6602C54.3806 38.6602 53.3506 39.6902 53.3506 40.9602C53.3506 42.2202 54.3806 43.2502 55.6506 43.2502C56.9206 43.2502 57.9506 42.2202 57.9506 40.9602C57.9406 39.7002 56.9106 38.6602 55.6506 38.6602Z" fill="#FFED00"/>
<path d="M39.2404 28.1702C37.9704 28.1702 36.9404 29.2002 36.9404 30.4702C36.9404 31.7302 37.9704 32.7602 39.2404 32.7602C40.5104 32.7602 41.5404 31.7302 41.5404 30.4702C41.5404 29.2102 40.5104 28.1702 39.2404 28.1702Z" fill="#FFED00"/>
<path d="M56.4104 10.8401C55.1404 10.8401 54.1104 11.8701 54.1104 13.1401C54.1104 14.4001 55.1404 15.4301 56.4104 15.4301C57.6804 15.4301 58.7104 14.4001 58.7104 13.1401C58.7104 11.8701 57.6804 10.8401 56.4104 10.8401Z" fill="#5BC5F2"/>
<path d="M73.2199 13.9302C71.9499 13.9302 70.9199 14.9602 70.9199 16.2202C70.9199 17.4902 71.9499 18.5202 73.2199 18.5202C74.4899 18.5202 75.5199 17.4902 75.5199 16.2202C75.5199 14.9602 74.4799 13.9302 73.2199 13.9302Z" fill="white"/>
<path d="M45.4807 46.46C44.2107 46.46 43.1807 47.49 43.1807 48.75C43.1807 50.02 44.2107 51.05 45.4807 51.05C46.7507 51.05 47.7807 50.02 47.7807 48.75C47.7807 47.49 46.7507 46.46 45.4807 46.46Z" fill="white"/>
<path d="M35.0608 34.0801C33.7908 34.0801 32.7607 35.1101 32.7607 36.3701C32.7607 37.6401 33.7908 38.6701 35.0608 38.6701C36.3308 38.6701 37.3607 37.6401 37.3607 36.3701C37.3607 35.1101 36.3308 34.0801 35.0608 34.0801Z" fill="white"/>
<path d="M73.2199 41.96C71.9499 41.96 70.9199 42.99 70.9199 44.25C70.9199 45.52 71.9499 46.55 73.2199 46.55C74.4899 46.55 75.5199 45.52 75.5199 44.25C75.5199 42.99 74.4799 41.96 73.2199 41.96Z" fill="white"/>
<path d="M93.4601 1.21997C92.1901 1.21997 91.1602 2.24997 91.1602 3.51997C91.1602 4.77997 92.1901 5.80998 93.4601 5.80998C94.7301 5.80998 95.7601 4.77997 95.7601 3.51997C95.7601 2.25997 94.7301 1.21997 93.4601 1.21997Z" fill="#FFED00"/>
<path d="M69.7004 33.5701C68.4304 33.5701 67.4004 34.6001 67.4004 35.8701C67.4004 37.1301 68.4304 38.1601 69.7004 38.1601C70.9704 38.1601 72.0004 37.1301 72.0004 35.8701C72.0004 34.6001 70.9704 33.5701 69.7004 33.5701Z" fill="#FFED00"/>
<path d="M29.6906 11.6301C28.4206 11.6301 27.3906 12.6601 27.3906 13.9201C27.3906 15.1901 28.4206 16.2201 29.6906 16.2201C30.9606 16.2201 31.9906 15.1901 31.9906 13.9201C31.9906 12.6601 30.9606 11.6301 29.6906 11.6301Z" fill="#5BC5F2"/>
<path d="M26.9406 47.71C25.6706 47.71 24.6406 48.74 24.6406 50C24.6406 51.27 25.6706 52.3 26.9406 52.3C28.2106 52.3 29.2406 51.27 29.2406 50C29.2406 48.74 28.2106 47.71 26.9406 47.71Z" fill="#5BC5F2"/>
<path d="M41.5403 21.3701C40.2703 21.3701 39.2402 22.4001 39.2402 23.6601C39.2402 24.9301 40.2703 25.9601 41.5403 25.9601C42.8103 25.9601 43.8402 24.9301 43.8402 23.6601C43.8402 22.4001 42.8103 21.3701 41.5403 21.3701Z" fill="white"/>
<path d="M80.1203 46.47C78.8503 46.47 77.8203 47.5 77.8203 48.76C77.8203 50.03 78.8503 51.06 80.1203 51.06C81.3903 51.06 82.4203 50.03 82.4203 48.76C82.4303 47.49 81.3903 46.47 80.1203 46.47Z" fill="#FFED00"/>
<path d="M67.4006 46.47C66.1306 46.47 65.1006 47.5 65.1006 48.77C65.1006 50.03 66.1306 51.06 67.4006 51.06C68.6706 51.06 69.7006 50.03 69.7006 48.77C69.7006 47.5 68.6706 46.47 67.4006 46.47Z" fill="#5BC5F2"/>
<path d="M82.4308 39.6702C81.1608 39.6702 80.1309 40.7002 80.1309 41.9702C80.1309 43.2302 81.1608 44.2602 82.4308 44.2602C83.7008 44.2602 84.7308 43.2302 84.7308 41.9702C84.7208 40.7102 83.6908 39.6702 82.4308 39.6702Z" fill="#5BC5F2"/>
<path d="M14.2502 29.6001C12.9802 29.6001 11.9502 30.6301 11.9502 31.8901C11.9502 33.1601 12.9802 34.1901 14.2502 34.1901C15.5202 34.1901 16.5502 33.1601 16.5502 31.8901C16.5502 30.6201 15.5202 29.6001 14.2502 29.6001Z" fill="white"/>
<path d="M13.2502 36.3701C11.9802 36.3701 10.9502 37.4001 10.9502 38.6601C10.9502 39.9301 11.9802 40.9601 13.2502 40.9601C14.5202 40.9601 15.5502 39.9301 15.5502 38.6601C15.5502 37.4001 14.5202 36.3701 13.2502 36.3701Z" fill="#FFED00"/>
<path d="M55.6506 29.6001C54.3806 29.6001 53.3506 30.6301 53.3506 31.9001C53.3506 33.1601 54.3806 34.1901 55.6506 34.1901C56.9206 34.1901 57.9506 33.1601 57.9506 31.9001C57.9406 30.6301 56.9106 29.6001 55.6506 29.6001Z" fill="#5BC5F2"/>
<path d="M27.4006 33.8C26.1306 33.8 25.1006 34.8301 25.1006 36.1001C25.1006 37.3601 26.1306 38.3901 27.4006 38.3901C28.6706 38.3901 29.7006 37.3601 29.7006 36.1001C29.6906 34.8301 28.6606 33.8 27.4006 33.8Z" fill="#5BC5F2"/>
</svg>
