<svg width="159" height="108" viewBox="0 0 159 108" fill="none" xmlns="http://www.w3.org/2000/svg">
<path d="M156.184 49.3988C159.926 51.5588 159.937 55.0554 156.227 57.2154L81.6314 100.565C77.9209 102.725 71.8793 102.725 68.1474 100.565L2.83383 62.7866C-0.898071 60.6265 -0.919458 57.1299 2.79105 54.9699L77.3862 11.62C81.0967 9.46 87.1383 9.46 90.8702 11.62L156.184 49.3988Z" fill="#4B62BE"/>
<path d="M158.975 53.6119C158.964 53.7081 158.953 53.815 158.942 53.9113C158.932 53.9968 158.9 54.0717 158.878 54.1572C158.857 54.2534 158.825 54.3497 158.793 54.4459C158.761 54.5208 158.729 54.5956 158.696 54.6812C158.654 54.7774 158.611 54.8843 158.557 54.9806C158.515 55.0554 158.472 55.1196 158.429 55.1944C158.365 55.3014 158.29 55.419 158.205 55.5259C158.151 55.5901 158.108 55.6543 158.055 55.7184C157.937 55.8681 157.798 56.0071 157.649 56.1568C157.595 56.2103 157.552 56.2638 157.488 56.3065C157.392 56.3921 157.296 56.4669 157.199 56.5525C157.114 56.6273 157.028 56.6915 156.932 56.7663C156.825 56.8412 156.708 56.916 156.59 56.9909C156.472 57.0657 156.355 57.1513 156.226 57.2261L81.6312 100.576C81.3425 100.747 81.0431 100.886 80.733 101.025C80.6474 101.068 80.5512 101.1 80.455 101.143C80.209 101.239 79.9631 101.335 79.7065 101.431C79.6102 101.464 79.5247 101.496 79.4284 101.528C79.2681 101.581 79.1076 101.624 78.9366 101.667C78.8082 101.699 78.6906 101.742 78.5623 101.763C78.3912 101.806 78.2094 101.838 78.0383 101.881C77.9207 101.902 77.8031 101.934 77.6748 101.955C77.3219 102.02 76.9583 102.073 76.5948 102.105C76.4771 102.116 76.3702 102.127 76.2526 102.137C76.0387 102.159 75.8249 102.169 75.611 102.18C75.472 102.191 75.333 102.191 75.194 102.191C75.0229 102.191 74.8411 102.191 74.67 102.191C74.5203 102.191 74.3813 102.18 74.2316 102.18C74.0712 102.169 73.9108 102.169 73.7504 102.159C73.6007 102.148 73.451 102.137 73.312 102.127C73.1516 102.116 72.9912 102.094 72.8415 102.073C72.7025 102.052 72.5528 102.03 72.4137 102.009C72.2427 101.988 72.0716 101.955 71.9112 101.923C71.7829 101.902 71.6439 101.87 71.5155 101.848C71.3124 101.806 71.1199 101.752 70.9274 101.699C70.8205 101.667 70.7135 101.645 70.5959 101.613C70.243 101.506 69.9009 101.399 69.5694 101.271C69.5266 101.25 69.4838 101.228 69.4304 101.218C68.9813 101.036 68.5428 100.833 68.1365 100.597L2.82298 62.8186C0.940993 61.7386 2.28453e-06 60.3057 0.0106954 58.8836L0 64.3584C0 65.7806 0.930298 67.2028 2.81229 68.2935L68.1258 106.072C68.5322 106.308 68.9706 106.511 69.4197 106.692C69.4518 106.703 69.4731 106.725 69.5052 106.735C69.5266 106.746 69.5373 106.746 69.5587 106.757C69.8902 106.885 70.2324 107.003 70.5852 107.099C70.6173 107.109 70.6387 107.12 70.6708 107.131C70.7456 107.152 70.8312 107.174 70.9167 107.195C71.1092 107.249 71.3124 107.291 71.5048 107.345C71.5583 107.355 71.6118 107.377 71.6652 107.388C71.7401 107.409 71.8256 107.409 71.9005 107.43C72.0716 107.462 72.232 107.494 72.4031 107.516C72.4672 107.527 72.5421 107.537 72.6062 107.548C72.6811 107.559 72.7559 107.559 72.8308 107.569C72.9912 107.591 73.1516 107.612 73.3013 107.623C73.3761 107.633 73.451 107.644 73.5258 107.644C73.6007 107.644 73.6648 107.655 73.7397 107.655C73.9001 107.666 74.0605 107.676 74.2209 107.676C74.3064 107.676 74.3813 107.687 74.4668 107.687C74.531 107.687 74.5952 107.687 74.6593 107.687C74.8304 107.687 75.0122 107.687 75.1833 107.687C75.2688 107.687 75.3544 107.687 75.4399 107.687C75.4934 107.687 75.5468 107.676 75.5896 107.676C75.8035 107.666 76.0173 107.655 76.2312 107.633C76.3167 107.623 76.4023 107.623 76.4878 107.612C76.5199 107.612 76.5413 107.601 76.5627 107.601C76.9263 107.559 77.2898 107.516 77.6427 107.452C77.6641 107.452 77.6748 107.452 77.6962 107.441C77.8031 107.42 77.8993 107.398 78.0063 107.377C78.1774 107.345 78.3591 107.302 78.5302 107.27C78.6585 107.238 78.7762 107.206 78.9045 107.174C79.0649 107.131 79.236 107.088 79.3964 107.035C79.4284 107.024 79.4712 107.013 79.5033 107.003C79.5568 106.981 79.6102 106.96 79.6744 106.938C79.931 106.853 80.177 106.757 80.4229 106.65C80.5191 106.607 80.6047 106.575 80.7009 106.532C81.011 106.393 81.3104 106.243 81.5992 106.072L156.194 62.7224C156.237 62.701 156.269 62.6796 156.312 62.6582C156.397 62.6048 156.472 62.5513 156.558 62.4978C156.675 62.423 156.793 62.3481 156.9 62.2733C156.996 62.2091 157.082 62.1343 157.167 62.0594C157.264 61.9846 157.371 61.899 157.456 61.8135C157.477 61.7921 157.499 61.7814 157.52 61.76C157.552 61.7279 157.584 61.6852 157.616 61.6531C157.766 61.5141 157.895 61.3644 158.023 61.2147C158.044 61.1826 158.087 61.1505 158.108 61.1184C158.13 61.0864 158.151 61.0543 158.173 61.0222C158.258 60.9153 158.333 60.7976 158.397 60.6907C158.429 60.6479 158.461 60.5945 158.493 60.5517C158.504 60.5303 158.515 60.4982 158.525 60.4768C158.579 60.3806 158.622 60.2737 158.664 60.1774C158.686 60.124 158.729 60.0598 158.75 60.0063C158.761 59.985 158.761 59.9636 158.771 59.9422C158.803 59.8459 158.825 59.7497 158.857 59.6535C158.878 59.5893 158.9 59.5252 158.91 59.461C158.91 59.4396 158.91 59.4289 158.921 59.4075C158.942 59.3113 158.942 59.2044 158.953 59.1081C158.964 59.044 158.975 58.9798 158.975 58.9157C158.975 58.8836 158.975 58.8622 158.975 58.8301L158.985 53.3552C158.996 53.4301 158.985 53.5263 158.975 53.6119Z" fill="#021D7A"/>
<path d="M100.28 4.15847L96.1953 1.78944C91.3755 -1.00847 84.7177 -0.620448 77.3656 3.62746L81.4501 5.9965C88.8022 1.76901 95.4805 1.36057 100.28 4.15847Z" fill="#173D57"/>
<path d="M81.4507 5.99648L77.3662 3.62744C62.7435 12.062 50.9392 32.5051 51.0005 49.2925C51.0209 57.6249 53.9618 63.5066 58.7203 66.2637L62.8048 68.6327C58.0463 65.8757 55.1054 60.0144 55.085 51.6615C55.0442 34.8945 66.8485 14.4515 81.4507 5.99648Z" fill="#173D57"/>
<path d="M81.4503 5.99636C66.8277 14.4309 55.0234 34.874 55.0847 51.6818C55.1459 68.4897 67.0115 75.2496 81.6341 66.815C96.2363 58.3805 108.061 37.9374 108 21.1296C107.959 4.34213 96.0729 -2.4382 81.4503 5.99636Z" fill="#1A4B6C"/>
<path d="M81.4709 11.6335C69.5645 18.516 59.9455 35.1604 59.9863 48.8436C60.0272 62.5268 69.7075 68.0409 81.6139 61.1585C93.5203 54.276 103.139 37.6316 103.099 23.9484C103.058 10.2856 93.3773 4.77151 81.4709 11.6335Z" fill="#EDF1F4"/>
<path d="M85.311 38.0193L84.2899 37.427V40.4088L85.311 41.001V38.0193Z" fill="#822012"/>
<path d="M85.311 38.0193L84.2899 37.427L82.3089 38.5707L83.33 39.1629L85.311 38.0193Z" fill="#882113"/>
<path d="M83.3311 39.1626L82.3099 38.5703L70.1176 45.6162L71.1387 46.2084L83.3311 39.1626Z" fill="#882113"/>
<path d="M71.1382 46.2082L70.1171 45.616C68.9734 46.2695 68.0544 47.8829 68.0544 49.1899C68.0544 49.8435 68.279 50.3132 68.6671 50.5174L69.6882 51.1097C69.3206 50.885 69.0755 50.4357 69.0755 49.7822C69.0755 48.4752 69.9945 46.8618 71.1382 46.2082Z" fill="#8B2213"/>
<path d="M71.1383 46.2082C69.9946 46.8618 69.0756 48.4752 69.0756 49.7822C69.0756 51.1097 70.015 51.6406 71.1587 50.9667L85.332 42.7772V40.98V37.9983L83.351 39.142L71.1383 46.2082Z" fill="#DE361F"/>
<path d="M83.2698 18.5771L82.2487 17.9849L82.3099 38.5709L83.3311 39.1631L83.2698 18.5771Z" fill="#822012"/>
<path d="M86.8228 14.8598L85.8016 14.2675C85.434 14.0429 84.9031 14.0837 84.3312 14.4105L85.3524 15.0028C85.9038 14.676 86.4347 14.6351 86.8228 14.8598Z" fill="#8B2213"/>
<path d="M85.3317 15.0031C84.1881 15.6566 83.269 17.27 83.269 18.577L83.3303 39.163L85.3113 38.0194V41.0011L87.4761 39.7553L87.4148 16.1876C87.4148 14.8805 86.4754 14.3495 85.3317 15.0031Z" fill="#DE361F"/>
<path d="M85.332 15.0029L84.3109 14.4106C83.1672 15.0642 82.2482 16.6776 82.2482 17.9846L83.2693 18.5769C83.2693 17.2698 84.1884 15.6564 85.332 15.0029Z" fill="#8B2213"/>
<path d="M87.6782 36.5487L86.0444 35.6093C85.4726 35.2825 84.6761 35.3233 83.7979 35.8339L85.4317 36.7734C86.3099 36.2628 87.1064 36.2015 87.6782 36.5487Z" fill="#E88102"/>
<path d="M85.4121 36.7737L83.7783 35.8342C82.0219 36.8554 80.6127 39.2856 80.6332 41.3075C80.6332 42.3082 80.9804 43.0026 81.5522 43.3294L83.1656 44.2688C82.5938 43.942 82.2466 43.2272 82.2466 42.2265C82.267 40.2251 83.6762 37.7744 85.4121 36.7737Z" fill="#E88102"/>
<path d="M85.4122 36.7731C83.6559 37.7738 82.2467 40.2245 82.2467 42.2464C82.2467 44.2682 83.6762 45.0647 85.4326 44.064C87.1889 43.0633 88.5981 40.6126 88.5981 38.5907C88.5981 36.5689 87.1686 35.752 85.4122 36.7731Z" fill="#FFB923"/>
</svg>
