<svg width="210" height="211" viewBox="0 0 210 211" fill="none" xmlns="http://www.w3.org/2000/svg">
<path d="M210 105.055C210 163.076 162.99 210.11 105 210.11C47.0101 210.11 0 163.076 0 105.055C0 47.0348 47.0101 0 105 0C162.99 0 210 47.0348 210 105.055Z" fill="#3D79CF"/>
<mask id="mask0" mask-type="alpha" maskUnits="userSpaceOnUse" x="0" y="0" width="210" height="210">
<circle cx="104.884" cy="104.884" r="104.884" fill="#C4C4C4"/>
</mask>
<g mask="url(#mask0)">
<mask id="mask1" mask-type="alpha" maskUnits="userSpaceOnUse" x="8" y="49" width="167" height="161">
<ellipse cx="91.658" cy="129.431" rx="82.7317" ry="80.3368" fill="#C4C4C4"/>
</mask>
<g mask="url(#mask1)">
<path d="M60.2628 118.422C59.893 118.523 52.4195 126.198 40.8398 129.283L47.4859 113.33L60.2628 118.422Z" fill="#E9D137"/>
<path d="M30.6128 127.746L40.8479 112.714C40.8479 112.714 41.7019 111.596 42.9817 110.558C44.3153 109.478 45.9854 108.927 47.6847 108.996L70.1171 109.904L61.1587 118.405L49.997 117.4C49.997 117.4 48.4895 117.283 47.4162 120.465L43.9574 128.642C42.7429 131.512 43.4321 134.879 45.7193 136.953C46.1327 137.328 46.5861 137.65 47.0788 137.884L33.7796 146.212L30.1121 136.445C30.1121 136.445 28.0177 131.633 30.6128 127.746Z" fill="#F8F400"/>
<path d="M52.228 177.426L44.9309 195.882H14.907L26.4074 166.74L38.3934 171.7L52.1808 177.406L52.228 177.426Z" fill="#2F4798"/>
<path d="M52.1808 177.407L44.8889 195.883H28.8512L38.3935 171.702L52.1808 177.407Z" fill="#213782"/>
</g>
<path d="M158.017 48.3727H44.7223V172.678H158.017V48.3727Z" fill="#F2F2F2"/>
<path fill-rule="evenodd" clip-rule="evenodd" d="M158.718 48.3726H101.371H44.0368C41.7595 48.3726 39.9198 46.5244 39.9198 44.268V38.1983C39.9198 35.9422 41.7741 34.0937 44.0368 34.0937H85.4126C85.3544 33.5258 85.3251 32.9583 85.3251 32.3761C85.3251 23.5263 92.5084 16.3649 101.371 16.3649C110.233 16.3649 117.43 23.5265 117.43 32.3761C117.43 32.9583 117.401 33.526 117.328 34.0937H158.718C160.981 34.0937 162.835 35.9422 162.835 38.1983V44.268C162.835 46.5244 160.981 48.3726 158.718 48.3726ZM101.371 26.2046C97.9543 26.2046 95.1946 28.9702 95.1946 32.3761C95.1946 35.7819 97.9541 38.533 101.371 38.533C104.787 38.533 107.56 35.7822 107.56 32.3761C107.56 28.97 104.786 26.2046 101.371 26.2046Z" fill="#F16858"/>
<path fill-rule="evenodd" clip-rule="evenodd" d="M158.717 48.3725H101.37H44.0357C41.7584 48.3725 39.9187 46.5243 39.9187 44.268V44.2242H162.834V44.268C162.834 46.5243 160.98 48.3725 158.717 48.3725Z" fill="#C02729"/>
<path d="M64.626 59.4749H80.9774C81.941 59.4749 82.8318 59.8676 83.4595 60.5081C84.1019 61.1486 84.4963 62.022 84.4963 62.9974V79.2849C84.4963 80.2458 84.1019 81.1336 83.4595 81.7593C82.8316 82.4 81.941 82.793 80.9774 82.793H64.626C63.6621 82.793 62.786 82.4 62.1439 81.7593C61.5014 81.1336 61.1071 80.2461 61.1071 79.2849V62.9974C61.1071 62.0222 61.5014 61.1488 62.1439 60.5081C62.786 59.8676 63.6621 59.4749 64.626 59.4749ZM80.9774 61.4835H64.626C64.217 61.4835 63.8372 61.6582 63.5744 61.9347C63.2971 62.1967 63.1218 62.575 63.1218 62.9974V79.2849C63.1218 79.6928 63.2973 80.0711 63.5744 80.3476C63.8372 80.6094 64.2168 80.7843 64.626 80.7843H80.9774C81.3863 80.7843 81.7662 80.6096 82.0435 80.3476C82.3063 80.0711 82.4813 79.6928 82.4813 79.2849V62.9974C82.4813 62.575 82.3063 62.1967 82.0435 61.9347C81.7662 61.6582 81.3863 61.4835 80.9774 61.4835Z" fill="#6FCF97"/>
<path d="M64.626 93.0692H80.9774C81.941 93.0692 82.8318 93.4621 83.4595 94.1024C84.1019 94.7429 84.4963 95.6163 84.4963 96.577V112.88C84.4963 113.84 84.1019 114.728 83.4595 115.354C82.8316 115.994 81.941 116.387 80.9774 116.387H64.626C63.6621 116.387 62.786 115.994 62.1439 115.354C61.5014 114.728 61.1071 113.84 61.1071 112.88V96.577C61.1071 95.6163 61.5014 94.7429 62.1439 94.1024C62.786 93.4624 63.6621 93.0692 64.626 93.0692ZM80.9774 95.078H64.626C64.217 95.078 63.8372 95.2525 63.5744 95.5293C63.2971 95.791 63.1218 96.1697 63.1218 96.5772V112.88C63.1218 113.287 63.2973 113.666 63.5744 113.942C63.8372 114.204 64.2168 114.379 64.626 114.379H80.9774C81.3863 114.379 81.7662 114.204 82.0435 113.942C82.3063 113.666 82.4813 113.287 82.4813 112.88V96.5772C82.4813 96.1697 82.3063 95.7912 82.0435 95.5293C81.7662 95.2525 81.3863 95.078 80.9774 95.078Z" fill="#F16858"/>
<path fill-rule="evenodd" clip-rule="evenodd" d="M63.1221 66.6077L70.4368 79.4601L94.1322 50.5672L70.5098 71.2802L63.1221 66.6077Z" fill="#03386E"/>
<path d="M95.9373 66.1178L96.8639 63.3856H98.2182L96.5693 67.5336V70.3085H95.2958V67.5857L93.6516 63.3856H95.0154L95.9373 66.1178Z" fill="#03386E"/>
<path d="M101.968 70.3085H98.836V63.3856H101.968V64.4983H100.129V66.1462H101.834V67.2637H100.129V69.1815H101.968V70.3085Z" fill="#03386E"/>
<path d="M106.145 68.4002C106.145 69.0473 105.98 69.5429 105.65 69.887C105.324 70.2311 104.852 70.4032 104.234 70.4032C103.629 70.4032 103.114 70.2848 102.69 70.048V68.7742C103.209 69.112 103.686 69.2809 104.12 69.2809C104.367 69.2809 104.553 69.213 104.676 69.0773C104.803 68.9416 104.866 68.7569 104.866 68.5233C104.866 68.2928 104.792 68.0829 104.643 67.8935C104.494 67.7009 104.248 67.4878 103.906 67.2542C103.609 67.049 103.382 66.8533 103.227 66.6671C103.075 66.4777 102.956 66.2662 102.87 66.0326C102.788 65.799 102.747 65.5275 102.747 65.2181C102.747 64.6246 102.912 64.1543 103.241 63.807C103.574 63.4598 104.019 63.2861 104.576 63.2861C105.109 63.2861 105.62 63.4345 106.111 63.7312L105.684 64.7635C105.532 64.6751 105.372 64.5962 105.204 64.5268C105.039 64.4573 104.861 64.4226 104.671 64.4226C104.462 64.4226 104.301 64.492 104.187 64.6309C104.076 64.7667 104.02 64.9529 104.02 65.1897C104.02 65.4233 104.087 65.6269 104.22 65.8005C104.356 65.9742 104.592 66.1715 104.928 66.3924C105.381 66.6955 105.696 67.0049 105.874 67.3205C106.054 67.6362 106.145 67.9961 106.145 68.4002Z" fill="#03386E"/>
<path d="M99.1306 103.038H97.553L95.4051 98.0237H95.3433C95.4225 98.4056 95.4621 98.816 95.4621 99.2548V103.038H94.2646V96.1154H95.8518L97.9807 101.078H98.0329C97.9727 100.746 97.9426 100.352 97.9426 99.8941V96.1154H99.1306V103.038Z" fill="#03386E"/>
<path d="M105.137 99.5673C105.137 100.713 104.922 101.594 104.491 102.21C104.06 102.825 103.444 103.133 102.642 103.133C101.838 103.133 101.22 102.827 100.789 102.214C100.358 101.599 100.143 100.713 100.143 99.5579C100.143 98.4119 100.358 97.5344 100.789 96.9251C101.22 96.3127 101.841 96.0065 102.652 96.0065C103.453 96.0065 104.068 96.3142 104.496 96.9298C104.923 97.5422 105.137 98.4214 105.137 99.5673ZM101.464 99.5673C101.464 100.357 101.564 100.958 101.763 101.371C101.963 101.785 102.256 101.992 102.642 101.992C103.422 101.992 103.811 101.184 103.811 99.5673C103.811 97.9511 103.425 97.1429 102.652 97.1429C102.259 97.1429 101.963 97.3497 101.763 97.7632C101.564 98.1736 101.464 98.775 101.464 99.5673Z" fill="#03386E"/>
<path d="M118.208 123.768H63.5167V126.606H118.208V123.768Z" fill="#666666"/>
<path d="M103.038 132.689H91.241V135.527H103.038V132.689Z" fill="#666666"/>
<path d="M150.21 123.768H130.398V126.606H150.21V123.768Z" fill="#666666"/>
<path d="M150.21 132.689H111.652V135.527H150.21V132.689Z" fill="#666666"/>
<path d="M128.792 142.049H63.5167V144.873H128.792V142.049Z" fill="#666666"/>
<path d="M150.21 142.049H136.851V144.873H150.21V142.049Z" fill="#666666"/>
<path d="M81.8831 132.689H63.5167V135.527H81.8831V132.689Z" fill="#666666"/>
<path d="M54.516 134.178C55.3438 133.311 58.3703 129.638 59.7352 125.62L62.6925 117.446C62.6925 117.446 63.8036 114.745 66.7239 114.577C66.8588 114.569 66.9942 114.576 67.1279 114.596C67.9001 114.713 70.5525 115.295 71.7478 117.864C71.8818 118.152 71.9495 118.468 71.9458 118.786C71.937 119.505 71.7463 120.973 70.738 123.54L62.8862 145.847C62.8862 145.847 60.6597 151.375 58.096 154.68C58.0566 154.73 58.0194 154.782 57.9849 154.837C57.6469 155.366 55.7032 158.375 54.4364 159.624C54.2299 159.827 54.067 160.072 53.9586 160.343L52.6379 163.653C52.6156 163.709 52.5534 163.736 52.4985 163.713L35.2658 156.561L36.0355 154.616C36.2204 154.148 36.2351 153.629 36.0767 153.151L33.6476 145.847L44.612 135.898C42.2846 134.294 50.0942 141.353 54.516 134.178Z" fill="#F8F400"/>
<path d="M27.7257 167.584L51.1557 177.28C52.6684 177.906 54.4065 177.151 55.0179 175.601L57.9791 168.098C58.5905 166.548 57.8528 164.769 56.3398 164.143L32.9098 154.447C31.3972 153.821 29.6591 154.576 29.0477 156.126L26.0865 163.629C25.4754 165.179 26.2128 166.958 27.7257 167.584Z" fill="#4BBBF2"/>
<path d="M128.845 121.638C129.487 121.761 143.913 134.159 163.968 137.862L148.756 110.767L128.845 121.638Z" fill="#E9D137"/>
<path d="M165.766 121.721L154.842 109.195C154.842 109.195 153.945 108.273 152.669 107.473C151.34 106.64 149.761 106.326 148.223 106.58L127.91 109.93L136.972 116.657L147.02 114.487C147.02 114.487 148.38 114.212 149.697 116.986L153.721 124.036C155.134 126.511 154.867 129.652 153.009 131.796C152.673 132.184 152.295 132.528 151.872 132.796L164.865 138.878L167.155 129.579C167.155 129.579 168.544 124.966 165.766 121.721Z" fill="#F8F400"/>
<path d="M194.891 195.899H165.755L151.428 169.353L151.469 169.33L163.403 162.593L173.778 156.736L194.891 195.899Z" fill="#2F4798"/>
<path d="M181.358 195.899H165.792L151.469 169.33L163.402 162.593L181.358 195.899Z" fill="#213782"/>
<path d="M126.837 109.369C126.837 109.369 118.248 108.323 118.056 108.68C117.865 109.037 124.099 115.914 124.099 115.914L126.162 113.22L126.837 109.369Z" fill="#DDBF9A"/>
<path d="M121.34 108.849C121.34 108.849 118.069 108.442 117.998 108.639C117.909 108.884 120.085 111.311 120.085 111.311L121.34 108.849Z" fill="#282928"/>
<path d="M126.79 109.348L164.177 125.891L161.476 132.256L124.074 115.903C124.074 115.903 123.727 114.853 124.66 114.661C124.66 114.661 124.094 113.742 125.244 113.393C125.244 113.393 124.712 112.515 125.817 111.92C125.817 111.92 125.288 111.051 126.256 110.694C126.256 110.694 125.786 110.072 126.79 109.348Z" fill="#DC5921"/>
<path d="M144.658 130.625C143.812 129.93 140.665 126.928 138.992 123.426L135.425 116.322C135.425 116.322 134.124 113.989 131.45 114.164C131.326 114.173 131.204 114.194 131.084 114.228C130.394 114.421 128.043 115.249 127.232 117.721C127.14 117.998 127.112 118.292 127.15 118.582C127.235 119.234 127.566 120.549 128.759 122.771L138.295 142.184C138.295 142.184 140.913 146.963 143.601 149.682C143.642 149.724 143.681 149.767 143.719 149.812C144.083 150.256 146.174 152.775 147.461 153.768C147.671 153.93 147.845 154.135 147.973 154.37L149.529 157.232C149.556 157.28 149.615 157.298 149.663 157.271L164.574 148.826L163.665 147.142C163.447 146.738 163.378 146.267 163.471 145.814L164.896 138.884L152.81 133.229C152.533 133.1 152.188 132.924 151.908 132.798C151.658 132.686 150.407 135.352 144.658 130.625Z" fill="#F8F400"/>
<path d="M168.267 127.664L163.024 125.372L160.357 131.768L165.6 134.06C167.489 134.886 169.634 134.122 170.367 132.364H170.368C171.101 130.605 170.155 128.49 168.267 127.664Z" fill="#252A26"/>
<path d="M173.047 157.883L152.77 169.339C151.46 170.079 149.798 169.587 149.076 168.246L145.577 161.752C144.855 160.412 145.335 158.71 146.644 157.97L166.922 146.514C168.231 145.774 169.893 146.266 170.616 147.606L174.115 154.1C174.837 155.441 174.357 157.143 173.047 157.883Z" fill="#4BBBF2"/>
</g>
</svg>
