<?xml version="1.0" encoding="utf-8"?>
<!-- Generator: Adobe Illustrator 16.0.0, SVG Export Plug-In . SVG Version: 6.00 Build 0)  -->
<!DOCTYPE svg PUBLIC "-//W3C//DTD SVG 1.1//EN" "http://www.w3.org/Graphics/SVG/1.1/DTD/svg11.dtd">
<svg version="1.1" id="Layer_1" xmlns="http://www.w3.org/2000/svg" xmlns:xlink="http://www.w3.org/1999/xlink" x="0px" y="0px"
	 width="512px" height="336.536px" viewBox="0 0 512 336.536" enable-background="new 0 0 512 336.536" xml:space="preserve">
<g>
	<polygon fill="#F5F5F5" points="1.156,188.141 1.156,209.645 124.082,209.645 124.082,336.536 147.038,336.536 147.038,188.141 	
		"/>
	<polygon fill="#F5F5F5" points="147.038,1.289 126.075,1.289 126.075,127.232 1.156,127.232 1.156,145.139 147.038,145.139 	"/>
	<polygon fill="#F5F5F5" points="209.922,1.289 190.711,1.289 190.711,145.139 512.846,145.139 512.846,127.232 209.922,127.232 	
		"/>
	<polygon fill="#F5F5F5" points="190.711,336.536 212.077,336.536 212.077,211.083 512.846,211.083 512.846,188.141 
		190.711,188.141 	"/>
	<path fill="#41479B" d="M126.075,1.289H8.031c-3.798,0-6.876,3.079-6.876,6.876v119.067h124.92V1.289z"/>
	<path fill="#41479B" d="M505.969,1.289H209.922v125.945h302.924V8.166C512.846,4.369,509.765,1.289,505.969,1.289z"/>
	<path fill="#41479B" d="M1.156,209.645v120.014c0,3.798,3.078,6.877,6.876,6.877h116.05V209.645H1.156L1.156,209.645z"/>
	<path fill="#41479B" d="M212.077,336.536h293.891c3.798,0,6.877-3.079,6.877-6.877V211.083H212.077V336.536z"/>
	<polygon fill="#FF4B55" points="190.711,1.289 147.038,1.289 147.038,145.139 1.156,145.139 1.156,188.141 147.038,188.141 
		147.038,336.536 190.711,336.536 190.711,188.141 512.846,188.141 512.846,145.139 190.711,145.139 	"/>
</g>
</svg>
