<svg width="267" height="227" viewBox="0 0 267 227" fill="none" xmlns="http://www.w3.org/2000/svg">
<g clip-path="url(#clip0)">
<path d="M171.131 98.9075V187.33C171.131 189.839 170.136 192.245 168.363 194.019C166.591 195.793 164.187 196.79 161.68 196.79H86.0695C83.5628 196.79 81.1589 195.793 79.3864 194.019C77.6139 192.245 76.6182 189.839 76.6182 187.33V80.9014C76.6182 78.3923 77.6139 75.9861 79.3864 74.2119C81.1589 72.4378 83.5628 71.4411 86.0695 71.4411H143.345C143.345 71.4411 171.58 98.4502 171.131 98.9075Z" fill="#EAF2FB" stroke="#B1CFED" stroke-width="3" stroke-linecap="round" stroke-linejoin="round"/>
<path d="M170.817 99.0336H153.017C150.51 99.0336 148.106 98.0369 146.334 96.2628C144.561 94.4886 143.565 92.0824 143.565 89.5733V72.0323" stroke="#B1CFED" stroke-width="3" stroke-linecap="round" stroke-linejoin="round"/>
<path d="M183.733 111.521V199.944C183.733 202.453 182.737 204.859 180.965 206.633C179.192 208.407 176.788 209.404 174.282 209.404H98.6711C96.1644 209.404 93.7604 208.407 91.988 206.633C90.2155 204.859 89.2197 202.453 89.2197 199.944V93.5151C89.2197 91.0061 90.2155 88.5998 91.988 86.8257C93.7604 85.0515 96.1644 84.0548 98.6711 84.0548H155.946C155.946 84.0548 184.182 111.064 183.733 111.521Z" fill="#EAF2FB" stroke="#B1CFED" stroke-width="3" stroke-linecap="round" stroke-linejoin="round"/>
<path d="M183.418 111.647H165.618C163.112 111.647 160.708 110.651 158.935 108.877C157.163 107.102 156.167 104.696 156.167 102.187V84.6461" stroke="#B1CFED" stroke-width="3" stroke-linecap="round" stroke-linejoin="round"/>
<path d="M182.198 198.777C202.864 198.777 219.617 182.008 219.617 161.322C219.617 140.636 202.864 123.867 182.198 123.867C161.532 123.867 144.778 140.636 144.778 161.322C144.778 182.008 161.532 198.777 182.198 198.777Z" fill="white" stroke="#506ABF" stroke-width="3" stroke-miterlimit="10"/>
<path d="M199.321 180.779C194.165 185.324 187.417 187.633 180.561 187.199C173.704 186.764 167.301 183.621 162.76 178.461" fill="white"/>
<path d="M199.321 180.779C194.165 185.324 187.417 187.633 180.561 187.199C173.704 186.764 167.301 183.621 162.76 178.461" stroke="#8B9A9F" stroke-width="3" stroke-miterlimit="10"/>
<path d="M165.075 141.905C170.226 137.359 176.969 135.045 183.823 135.473C190.676 135.9 197.081 139.033 201.628 144.183" fill="white"/>
<path d="M165.075 141.905C170.226 137.359 176.969 135.045 183.823 135.473C190.676 135.9 197.081 139.033 201.628 144.183" stroke="#8B9A9F" stroke-width="3" stroke-miterlimit="10"/>
<path d="M146.907 192.425L146.901 192.419C143.751 188.838 138.296 188.491 134.718 191.645L113.115 210.689C109.537 213.843 109.191 219.303 112.342 222.884L112.347 222.89C115.498 226.471 120.952 226.817 124.53 223.664L146.134 204.62C149.712 201.466 150.058 196.006 146.907 192.425Z" fill="#506ABF" stroke="#506ABF" stroke-width="3" stroke-miterlimit="10"/>
<path d="M146.282 191.705L153.481 185.359" stroke="#506ABF" stroke-width="3" stroke-miterlimit="10"/>
<path d="M181.922 189.577C197.591 189.577 210.292 176.863 210.292 161.18C210.292 145.497 197.591 132.783 181.922 132.783C166.254 132.783 153.553 145.497 153.553 161.18C153.553 176.863 166.254 189.577 181.922 189.577Z" fill="#FFED00"/>
<path d="M104.185 120.319H149.078" stroke="#B1CFED" stroke-width="3" stroke-linecap="round" stroke-linejoin="round"/>
<path d="M104.185 132.933H146.716" stroke="#B1CFED" stroke-width="3" stroke-linecap="round" stroke-linejoin="round"/>
<path d="M104.185 145.547H136.477" stroke="#B1CFED" stroke-width="3" stroke-linecap="round" stroke-linejoin="round"/>
<path d="M104.185 158.161H136.477" stroke="#B1CFED" stroke-width="3" stroke-linecap="round" stroke-linejoin="round"/>
<path opacity="0.5" d="M45.823 26.4573H44.0587V29.9892H40.5381V31.7551H44.0587V35.2791H45.823V31.7551H49.3436V29.9892H45.823V26.4573Z" fill="#8B9A9F"/>
<path opacity="0.5" d="M263.471 150.829H261.715V154.353H258.187V156.119H261.715V159.643H263.471V156.119H267V154.353H263.471V150.829Z" fill="#8B9A9F"/>
<path opacity="0.5" d="M18.5086 170.23H16.7443V173.762H13.2158V175.52H16.7443V179.052H18.5086V175.52H22.0292V173.762H18.5086V170.23Z" fill="#8B9A9F"/>
<path opacity="0.26" d="M219.412 32.6381H217.655V36.162H214.127V37.9279H217.655V41.4519H219.412V37.9279H222.94V36.162H219.412V32.6381Z" fill="#8B9A9F"/>
<path opacity="0.5" d="M137.902 8.81385C140.09 8.81385 141.864 7.03846 141.864 4.84841C141.864 2.65836 140.09 0.882965 137.902 0.882965C135.714 0.882965 133.94 2.65836 133.94 4.84841C133.94 7.03846 135.714 8.81385 137.902 8.81385Z" stroke="#8B9A9F" stroke-width="2.24" stroke-miterlimit="10"/>
<path opacity="0.26" d="M4.84352 102.313C7.03149 102.313 8.8052 100.538 8.8052 98.3477C8.8052 96.1577 7.03149 94.3823 4.84352 94.3823C2.65554 94.3823 0.881836 96.1577 0.881836 98.3477C0.881836 100.538 2.65554 102.313 4.84352 102.313Z" stroke="#8B9A9F" stroke-width="2.24" stroke-miterlimit="10"/>
<path opacity="0.26" d="M262.156 88.2016C264.344 88.2016 266.118 86.4262 266.118 84.2361C266.118 82.0461 264.344 80.2707 262.156 80.2707C259.968 80.2707 258.194 82.0461 258.194 84.2361C258.194 86.4262 259.968 88.2016 262.156 88.2016Z" stroke="#8B9A9F" stroke-width="2.24" stroke-miterlimit="10"/>
<path d="M179.041 167.968V166.386C179.041 165.018 179.332 163.828 179.916 162.817C180.5 161.805 181.568 160.729 183.12 159.589C184.614 158.52 185.597 157.651 186.067 156.981C186.551 156.311 186.793 155.563 186.793 154.736C186.793 153.81 186.451 153.105 185.768 152.62C185.084 152.136 184.13 151.893 182.906 151.893C180.77 151.893 178.336 152.592 175.602 153.988L173.274 149.307C176.449 147.525 179.816 146.635 183.376 146.635C186.309 146.635 188.637 147.34 190.359 148.751C192.096 150.162 192.965 152.043 192.965 154.394C192.965 155.962 192.609 157.316 191.897 158.456C191.185 159.596 189.832 160.878 187.839 162.304C186.472 163.315 185.604 164.085 185.234 164.612C184.878 165.139 184.7 165.831 184.7 166.686V167.968H179.041ZM178.357 175.279C178.357 174.082 178.677 173.177 179.318 172.564C179.959 171.951 180.891 171.645 182.116 171.645C183.298 171.645 184.209 171.959 184.849 172.586C185.504 173.213 185.832 174.11 185.832 175.279C185.832 176.405 185.504 177.295 184.849 177.951C184.194 178.592 183.283 178.913 182.116 178.913C180.92 178.913 179.994 178.599 179.34 177.972C178.685 177.331 178.357 176.433 178.357 175.279Z" fill="#506ABF"/>
</g>
<defs>
<clipPath id="clip0">
<rect width="267" height="227" fill="white"/>
</clipPath>
</defs>
</svg>
