<svg width="72" height="72" viewBox="0 0 72 72" fill="none" xmlns="http://www.w3.org/2000/svg">
<circle cx="36" cy="36" r="36" fill="#FFED00"/>
<path fill-rule="evenodd" clip-rule="evenodd" d="M19.9604 35.2786C19.9604 27.3708 26.371 20.9603 34.2788 20.9603C42.1865 20.9603 48.5971 27.3708 48.5971 35.2786C48.5971 43.1864 42.1865 49.5969 34.2788 49.5969C26.371 49.5969 19.9604 43.1864 19.9604 35.2786ZM34.2788 23.4149C27.7266 23.4149 22.415 28.7265 22.415 35.2786C22.415 41.8308 27.7266 47.1423 34.2788 47.1423C40.8309 47.1423 46.1425 41.8308 46.1425 35.2786C46.1425 28.7265 40.8309 23.4149 34.2788 23.4149Z" fill="#080852"/>
<path fill-rule="evenodd" clip-rule="evenodd" d="M42.6564 43.6563C43.1357 43.177 43.9128 43.177 44.3921 43.6563L51.5103 50.7746C51.9896 51.2538 51.9896 52.0309 51.5103 52.5102C51.031 52.9895 50.254 52.9895 49.7747 52.5102L42.6564 45.392C42.1771 44.9127 42.1771 44.1356 42.6564 43.6563Z" fill="#080852"/>
</svg>
