<svg width="83" height="84" viewBox="0 0 83 84" fill="none" xmlns="http://www.w3.org/2000/svg">
<path d="M29.0736 26.3399C23.8084 30.7356 20.4434 37.4146 20.4434 44.8791C20.4434 46.0785 19.4905 47.0494 18.3164 47.0494H9.80815C8.63405 47.0494 7.68115 46.0785 7.68115 44.8791C7.68115 33.8233 12.4613 23.886 20.0251 17.1072L27.8526 18.7224L29.0736 26.3399Z" fill="#FF3E78"/>
<path d="M43.4113 8.20215L46.7161 14.0014L43.4113 21.0581C37.8994 21.0666 32.8333 23.0678 28.8664 26.3961L19.9756 17.2813C26.2372 11.639 34.4425 8.2107 43.4113 8.20215Z" fill="#E91F5C"/>
<path d="M66.6945 17.2813L64.7962 24.7291L57.8579 26.3961C53.9076 23.0607 48.8608 21.0581 43.3695 21.0581H43.335V8.20215H43.3695C52.2974 8.20215 60.4624 11.6318 66.6945 17.2813Z" fill="#7ED96C"/>
<path d="M78.989 44.6491C78.989 45.8303 78.058 46.7864 76.9109 46.7864H68.5983C67.4512 46.7864 66.5202 45.8303 66.5202 44.6491C66.5202 37.298 63.2326 30.7207 58.0884 26.3919L66.9303 17.2996C74.3187 23.9767 78.989 33.7629 78.989 44.6491Z" fill="#0C9A0C"/>
<path d="M77.9915 13.0017L67.7285 4.16775C66.5475 3.15114 64.7878 3.30731 63.796 4.52038L57.82 11.8261C57.3848 12.3577 57.1529 13.033 57.1671 13.728L57.3489 24.9218C57.376 26.2175 58.5093 27.1962 59.7615 26.9983L70.6471 25.3309H70.647C71.316 25.2249 71.9241 24.8735 72.3593 24.3416L78.3353 17.0357C79.3269 15.8239 79.1737 14.0192 77.9915 13.0017Z" fill="#4B62BE"/>
<path d="M50.5373 38.8155C50.5373 34.5037 47.127 30.9954 42.9357 30.9954C38.7443 30.9954 35.334 34.5037 35.334 38.8155C35.334 43.1273 38.7443 46.7399 42.9357 46.7399C47.127 46.7399 50.5373 43.1273 50.5373 38.8155Z" fill="#294099"/>
<path d="M56.4622 63.1633H54.953C54.1195 63.1633 53.4438 63.8527 53.4438 64.7036V67.784C53.4438 68.6346 54.1195 69.3242 54.953 69.3242H56.4622C58.1292 69.3242 59.4805 67.9449 59.4805 66.2438C59.4805 64.5424 58.1292 63.1633 56.4622 63.1633Z" fill="#294099"/>
<path d="M37.6875 75.4852L38.6874 72.4429H36.7482C35.1123 72.4429 33.567 72.0778 32.2036 71.3779V73.964C32.2036 74.8158 32.8701 75.4852 33.7185 75.4852H37.6875Z" fill="#294099"/>
<path d="M36.7658 69.3073H39.7414C39.6174 69.69 41.6398 63.4455 41.7454 63.1194H36.7658C35.9155 63.1194 35.2476 62.4385 35.2476 61.5721V55.3832C35.2476 54.5166 35.9155 53.8359 36.7658 53.8359C37.6161 53.8359 38.284 54.5166 38.284 55.3832V60.0239H42.7473C42.6397 60.3493 44.3402 55.2134 44.4479 54.8879C44.6301 54.2692 45.207 53.8359 45.8749 53.8359H56.3503C55.6518 50.3082 52.5852 47.647 48.9112 47.647H36.7658C32.563 47.647 29.0737 51.1185 29.0737 55.3832V61.5721C29.0737 65.9974 32.801 69.3073 36.7658 69.3073Z" fill="#294099"/>
<path d="M57.0639 57.0024H47.0074L40.9233 75.4851H51.9949C52.6492 75.4851 53.2301 75.0611 53.4371 74.4324L54.135 72.3124C52.0497 71.8871 50.474 70.0193 50.474 67.784V64.7036C50.474 62.1556 52.5207 60.0829 55.0367 60.0829H56.5576C57.0889 60.0829 57.5956 60.1743 58.0872 60.3044L58.5068 59.0296C58.8351 58.0324 58.1021 57.0024 57.0639 57.0024Z" fill="#4B62BE"/>
</svg>
