<?xml version="1.0" encoding="utf-8"?>
<!-- Generator: Adobe Illustrator 16.0.0, SVG Export Plug-In . SVG Version: 6.00 Build 0)  -->
<!DOCTYPE svg PUBLIC "-//W3C//DTD SVG 1.1//EN" "http://www.w3.org/Graphics/SVG/1.1/DTD/svg11.dtd">
<svg version="1.1" id="Layer_1" xmlns="http://www.w3.org/2000/svg" xmlns:xlink="http://www.w3.org/1999/xlink" x="0px" y="0px"
	 width="800px" height="524.138px" viewBox="0 0 800 524.138" enable-background="new 0 0 800 524.138" xml:space="preserve">
<path fill="#41479B" d="M5.087,520.802L400,262.068L5.087,3.334C2.048,5.864,0,9.529,0,13.792v496.552
	C0,514.607,2.048,518.273,5.087,520.802z"/>
<path fill="#FF4B55" d="M5.087,520.802c2.391,1.991,5.352,3.335,8.705,3.335h772.414c7.617,0,13.794-6.177,13.794-13.794V262.068
	H400L5.087,520.802z"/>
<path fill="#F5F5F5" d="M5.087,3.334C7.478,1.344,10.439,0,13.792,0h772.414C793.823,0,800,6.177,800,13.794v248.274H400
	L5.087,3.334z"/>
</svg>
