<?xml version="1.0" encoding="utf-8"?>
<!-- Generator: Adobe Illustrator 16.0.0, SVG Export Plug-In . SVG Version: 6.00 Build 0)  -->
<!DOCTYPE svg PUBLIC "-//W3C//DTD SVG 1.1//EN" "http://www.w3.org/Graphics/SVG/1.1/DTD/svg11.dtd">
<svg version="1.1" id="Layer_1" xmlns:v="https://vecta.io/nano"
	 xmlns="http://www.w3.org/2000/svg" xmlns:xlink="http://www.w3.org/1999/xlink" x="0px" y="0px" width="512px" height="335.44px"
	 viewBox="0 0 512 335.44" enable-background="new 0 0 512 335.44" xml:space="preserve">
<path fill="#FF4B55" d="M512,326.84c0,4.75-3.851,8.601-8.601,8.601H8.601c-4.75,0-8.6-3.851-8.6-8.601V8.599
	c0-4.75,3.85-8.6,8.6-8.6h494.79c4.75,0,8.602,3.85,8.602,8.6v318.24H512z"/>
<path fill="#434A54" d="M268.803,256.628c-2.954-2.55-6.573-7.78-6.52-12.797c0.271-3.767,2.833-5.964,4.485-1.355
	c2.358,5.043,7.4,13.395,14.367,8.515c3.01-2.25,2.982-5.531-1.192-5.151c-5.149-0.354-8.295-3.173-10.571-10.463
	c-0.435-3.985,1.247-3.904,3.552-1.303c2.98,3.415,8.919,8.593,15.479,5.802c3.635-1.52,4.662-4.663-0.813-5.422
	c-5.232,0.055-9.488-3.309-13.718-8.459c-2.331-2.873,1.11-5.745,3.145-3.307c1.844,1.572,4.42,4.473,6.614,4.881
	c2.549,0.487,5.693,0.242,9.218-1.627c3.74-3.146,2.548-5.424-2.061-5.938c-3.524,0.189-5.477,1.521-10.029-1.546
	c-8.241-5.53-14.748-12.958-15.778-21.902c-0.678-5.854,2.494-7.646,5.098-6.968c7.155,1.816,11.818,15.182,16.753,22.527
	c1.627,2.115,3.117,2.115,4.175,1.464c1.979-1.681,3.579-3.092,5.531-4.988c0,0,14.557,2.604,22.472,5.204l-8.811,3.146
	c-3.361-1.845-7.374,0.135-7.374,3.308c-3.145,2.221-2.898,4.77-1.546,7.237c0.408-1.709,0.788-3.959,3.281-4.258
	c3.55,1.465,7.699-0.621,7.699-3.414l10.41-4.067l10.489,5.938c0,4.013,3.824,5.285,7.78,4.201c1.87,1.166,3.063,3.173,3.688,5.314
	c1.191-3.091,0.921-5.286-0.896-6.806c1.059-4.012-4.581-7.889-8.92-5.285l-7.562-4.339l12.93-0.38c1.519,2.658,6.938,2.819,8.514,0
	c1.354-0.378,2.492-0.597,5.148,1.355c-0.839-3.171-2.439-4.526-4.879-4.526c-1.845-3.28-8.513-3.252-9.488,0.406l-13.473,0.38
	l7.997-5.691c2.982,1.788,7.155-0.189,8.022-3.39c1.192-1.411,2.656-2.087,5.531-1.11c-1.49-2.658-3.579-3.418-7.374-1.628
	c-3.469-2.63-8.024,0.541-7.319,3.199l-10.627,7.211c-7.752-2.277-21.713-5.884-21.713-5.884c1.653-1.762,3.334-3.387,5.014-5.151
	c0.598-1.055-0.323-2.25-1.571-2.519c-12.496-2.551-19.627-7.592-23.964-20.387c-1.816-5.341,2.114-6.94,3.442-3.66
	c1.87,4.554,3.931,9.516,9.516,13.365c1.951,1.354,7.698,0.271,4.283-2.956c-3.524-2.899-5.043-4.147-6.776-11.209
	c0-3.578,3.632-5.179,5.692-1.764c2.167,7.035,2.385,10.072,6.315,14.6c2.98,3.415,6.885,5.72,8.81,5.667
	c3.473-0.057,6.995-3.796,2.332-6.508c-6.831-2.737-9.326-6.451-10.329-10.029c-1.109-6.195,0.082-9.204,3.822-6.155
	c5.314,6.033,15.453,17.269,20.766,22.501c5.938,4.553,12.77,4.69,18.191,0.08c3.117-3.577,2.005-7.427-2.849-6.613
	c-11.004,0.922-19.3-4.526-28.437-19.261c-1.789-3.335-2.275-8.104,1.653-4.555c4.556,6.154,11.196,11.387,17.351,13.637
	c6.181,2.209,11.306,0.989,13.282-0.948c2.385-2.399,1.763-8.404-2.387-6.954c-3.387,1.192-8.186,1.491-13.175-0.434
	c-4.987-1.952-10.165-6.153-15.667-13.283c-1.899-4.025-1.274-7.429,2.548-5.354c9.025,7.658,20.657,13.865,26.621,10.139
	c4.364-2.725,4.443-9.732-1.113-9.285c-11.193,1.52-15.424-0.948-26.159-10.437c-2.438-1.816-2.275-6.452,1.627-3.497
	c9.026,5.828,21.362,8.104,26.188,5.055c4.364-2.725,3.742-11.06-3.632-8.104c-5.855,3.577-12.334,3.47-25.321-5.815
	c-3.278-2.725-0.839-6.276,1.844-4.744c10.466,5.95,25.674,8.499,29.631-3.604c1.546-4.623-1.247-7.334-5.341-4.121
	c-8.944,8.295-19.139,4.216-24.831,0.041c-1.627-0.962-4.637-5.829,0.623-4.92c13.609,3.09,27.056,0.393,29.522-9.243
	c1.407-3.118-1.384-8.649-6.345-4.013c-6.532,6.452-13.445,6.669-22.174,6.614c-4.447-0.921-4.474-5.801-0.76-6.52
	c6.884,0.148,13.662-2.859,19.083-5.909c5.313-3.05,9.706-7.333,11.115-13.257c0.867-5.3-4.284-10.938-7.348-5.3
	c-4.555,8.228-14.61,15.98-25.835,17.377c-0.596-0.977-2.06-3.471-3.849-2.767c-3.307,1.274-7.211,2.982-11.277,4.894
	c-8.676,4.134-12.308,6.127-11.277,13.271c1.086,7.44-4.636,12.146-9.379,10.843c-4.12-1.11-6.425-4.838-5.693-11.331
	c0.598-5.15,5.802-11.398,11.63-14.68c3.77-2.115,9.487-3.281,16.374-4.799c4.175-0.827,6.317-2.453,6.56-4.161
	c0,0-2.846,2.087-7.453,1.775c-2.169-0.149-3.605-1.098-4.148-2.073c1.601-0.326,4.474,0.054,7.076,0.054
	c3.441-0.026,11.438-0.8,13.555-5.651c0.678-3.212-1.411-3.782-3.389-1.735c-2.087,2.223-2.954,4.216-7.186,4.961
	c-2.575,0.447-5.148,0.976-8.457,0.176c1.87-2.21,4.824-4.473,7.347-4.053c0.842,0.135,1.926,0.895,2.819,2.277
	c0.541-3.512-0.405-7.456-9.786-5.815c0.161-2.643-5.422-3.795-8.782-3.741c-1.898,0.041-5.802,1.166-8.621,2.521
	c-4.446,1.382-8.838,2.373-14.043,2.751c3.036,2.576,3.578,2.725,6.588,4.907c-4.527,1.693-8.052,5.205-9.651,7.496
	c0,0,5.286-0.137,6.643,0.46c-5.529,1.627-8.023,2.604-10.979,5.599c1.029,0.176,2.575,0.475,3.227,0.731
	c0.705,0.244,0.516,0.691-0.055,1.125c-1.192,0.908-6.127,6.656-7.576,8.024c-1.438-1.369-6.385-7.116-7.578-8.024
	c-0.556-0.434-0.745-0.881-0.054-1.125c0.664-0.257,2.21-0.556,3.226-0.731c-2.928-2.995-5.422-3.971-10.979-5.599
	c1.343-0.597,6.656-0.46,6.656-0.46c-1.6-2.291-5.109-5.803-9.664-7.496c3.008-2.184,3.564-2.332,6.573-4.907
	c-5.178-0.378-9.583-1.369-14.042-2.751c-2.805-1.356-6.696-2.481-8.606-2.521c-3.349-0.054-8.932,1.099-8.782,3.741
	c-9.366-1.641-10.329,2.304-9.787,5.815c0.881-1.383,1.993-2.143,2.818-2.277c2.521-0.42,5.477,1.843,7.333,4.053
	c-3.293,0.799-5.868,0.271-8.431-0.176c-4.228-0.746-5.096-2.738-7.197-4.961c-1.952-2.047-4.066-1.477-3.401,1.735
	c2.128,4.852,10.139,5.625,13.583,5.651c2.588,0,5.476-0.38,7.074-0.054c-0.557,0.976-2.006,1.924-4.161,2.073
	c-4.582,0.313-7.441-1.775-7.441-1.775c0.244,1.708,2.372,3.334,6.56,4.161c6.872,1.518,12.579,2.684,16.361,4.799
	c5.842,3.28,11.033,9.529,11.616,14.68c0.746,6.493-1.531,10.221-5.666,11.331c-4.745,1.303-10.491-3.401-9.407-10.843
	c1.059-7.144-2.576-9.137-11.277-13.271c-4.038-1.911-7.956-3.619-11.25-4.894c-1.803-0.704-3.279,1.79-3.862,2.767
	c-11.196-1.396-21.281-9.15-25.835-17.377c-3.077-5.639-8.188,0-7.333,5.3c1.396,5.924,5.8,10.207,11.1,13.257
	c5.437,3.05,12.213,6.059,19.086,5.909c3.713,0.719,3.673,5.599-0.76,6.52c-8.702,0.055-15.629-0.162-22.161-6.615
	c-4.961-4.636-7.753,0.896-6.345,4.014c2.454,9.636,15.914,12.333,29.509,9.243c5.258-0.908,2.263,3.958,0.637,4.92
	c-5.692,4.175-15.873,8.254-24.858-0.041c-4.08-3.213-6.872-0.501-5.327,4.121c3.958,12.104,19.179,9.556,29.629,3.604
	c2.684-1.532,5.124,2.02,1.857,4.744c-12.998,9.285-19.479,9.393-25.347,5.815c-7.347-2.955-7.983,5.38-3.62,8.104
	c4.841,3.05,17.175,0.773,26.202-5.055c3.89-2.955,4.053,1.681,1.613,3.497c-10.75,9.488-14.979,11.956-26.161,10.437
	c-5.543-0.447-5.476,6.562-1.098,9.285c5.951,3.727,17.594-2.479,26.621-10.139c3.809-2.074,4.433,1.328,2.548,5.354
	c-5.518,7.129-10.694,11.331-15.684,13.283c-4.987,1.925-9.785,1.626-13.188,0.434c-4.134-1.45-4.758,4.555-2.373,6.954
	c1.979,1.938,7.09,3.157,13.284,0.948c6.167-2.25,12.795-7.481,17.335-13.637c3.944-3.55,3.457,1.22,1.667,4.555
	c-9.122,14.734-17.444,20.184-28.424,19.261c-4.865-0.813-5.965,3.036-2.859,6.613c5.435,4.61,12.253,4.473,18.204-0.08
	c5.3-5.232,15.438-16.469,20.738-22.501c3.741-3.049,4.947-0.041,3.85,6.155c-1.017,3.578-3.511,7.292-10.329,10.029
	c-4.648,2.712-1.151,6.451,2.318,6.508c1.938,0.053,5.829-2.252,8.811-5.667c3.931-4.526,4.161-7.563,6.329-14.6
	c2.034-3.415,5.68-1.814,5.68,1.764c-1.734,7.062-3.253,8.31-6.776,11.209c-3.402,3.227,2.357,4.311,4.283,2.956
	c5.599-3.851,7.657-8.813,9.515-13.365c1.341-3.28,5.259-1.681,3.457,3.66c-4.337,12.795-11.481,17.836-23.951,20.387
	c-1.275,0.269-2.196,1.464-1.6,2.519c1.667,1.766,3.361,3.391,5.028,5.151c0,0-13.988,3.605-21.714,5.884l-10.64-7.211
	c0.69-2.658-3.864-5.829-7.321-3.199c-3.781-1.791-5.882-1.03-7.359,1.628c2.888-0.977,4.352-0.301,5.544,1.11
	c0.826,3.199,5.016,5.178,8.011,3.39l7.983,5.691l-13.473-0.38c-0.962-3.658-7.632-3.688-9.474-0.406
	c-2.428,0-4.055,1.355-4.88,4.526c2.643-1.952,3.78-1.733,5.137-1.355c1.585,2.819,7.008,2.658,8.511,0l12.933,0.38l-7.551,4.339
	c-4.352-2.604-9.977,1.273-8.932,5.285c-1.83,1.52-2.074,3.715-0.909,6.806c0.637-2.143,1.844-4.148,3.701-5.314
	c3.971,1.084,7.78-0.188,7.78-4.201l10.505-5.938l10.396,4.067c0,2.793,4.148,4.879,7.712,3.414
	c2.494,0.299,2.847,2.549,3.268,4.258c1.369-2.469,1.613-5.018-1.545-7.237c0-3.173-4.025-5.151-7.36-3.308l-8.81-3.146
	c7.916-2.601,22.445-5.204,22.445-5.204c1.993,1.896,3.565,3.309,5.559,4.988c1.044,0.65,2.535,0.65,4.146-1.464
	c4.948-7.347,9.624-20.711,16.768-22.527c2.616-0.678,5.773,1.112,5.109,6.968c-1.017,8.944-7.563,16.372-15.777,21.902
	c-4.582,3.064-6.506,1.735-10.058,1.546c-4.567,0.515-5.801,2.793-2.034,5.938c3.498,1.869,6.656,2.114,9.204,1.627
	c2.195-0.408,4.771-3.309,6.602-4.881c2.061-2.438,5.477,0.434,3.158,3.307c-4.229,5.15-8.485,8.514-13.704,8.459
	c-5.503,0.759-4.474,3.903-0.827,5.422c6.561,2.791,12.497-2.387,15.479-5.802c2.33-2.603,3.999-2.684,3.578,1.303
	c-2.304,7.29-5.462,10.109-10.599,10.463c-4.162-0.38-4.203,2.901-1.166,5.151c6.939,4.88,11.98-3.472,14.327-8.515
	c1.668-4.607,4.244-2.41,4.5,1.355c0.054,5.017-3.552,10.247-6.521,12.797c-2.968,2.602,12.811,18.976,12.811,18.976
	S271.785,259.23,268.803,256.628L268.803,256.628z M289.976,71.094c-2.468,0-3.984,0.854-3.984,1.897
	c0,1.058,1.518,1.924,3.984,1.924c2.44,0,3.957-0.935,3.957-2.006C293.933,71.866,292.416,71.094,289.976,71.094z M222.041,71.094
	c2.453,0,3.971,0.854,3.971,1.897c0,1.058-1.518,1.924-3.971,1.924c-2.441,0-3.999-0.935-3.999-2.006
	C218.042,71.866,219.6,71.094,222.041,71.094z"/>
</svg>
