<svg width="210" height="211" viewBox="0 0 210 211" fill="none" xmlns="http://www.w3.org/2000/svg">
<ellipse cx="105" cy="105.055" rx="105" ry="105.055" fill="#3D79CF"/>
<path d="M145.956 94.0439H129.552V124.134H145.956V94.0439Z" fill="#FDDC23"/>
<path d="M166.761 74.8352H150.357V124.132H166.761V74.8352Z" fill="#4EB849"/>
<path d="M125.152 86.0202H108.748V124.134H125.152V86.0202Z" fill="#F16858"/>
<path d="M84.6262 101.864L81.1154 98.3475L113.705 65.721L137.405 75.2687L156.651 55.869L160.175 59.3729L138.607 81.1117L114.897 71.5604L84.6262 101.864Z" fill="#4BBBF2"/>
<path d="M163.398 66.6678L168.459 47.4945L149.343 52.6925L163.398 66.6678Z" fill="#4BBBF2"/>
<path fill-rule="evenodd" clip-rule="evenodd" d="M39.3854 112.601C39.3854 113.373 39.4312 114.149 39.3616 114.915C39.3357 115.2 39.0955 115.533 38.8567 115.72C36.839 117.304 35.0646 119.095 34.0087 121.478C32.1507 125.672 33.0283 129.462 35.8449 132.889C38.2256 135.786 41.3535 137.657 44.7722 139.05C50.6304 141.437 56.7602 142.186 63.0267 141.783C68.5048 141.43 73.763 140.159 78.5988 137.446C81.0417 136.076 83.1931 134.352 84.8538 132.06C87.7341 128.085 87.7831 123.342 84.8234 119.423C83.8381 118.119 82.5812 117.006 81.3634 115.899C80.8837 115.462 80.596 115.086 80.6446 114.431C80.69 113.822 80.6544 113.208 80.6544 112.373C85.364 115.224 89.4281 118.547 90.5854 123.972C91.9941 130.574 91.8801 138.465 81.3253 144.93C82.5228 145.973 83.7179 146.973 84.8671 148.023C87.4244 150.361 89.9683 152.714 92.4983 155.081C94.1702 156.645 94.308 158.556 93.6147 160.606C92.6021 163.6 89.3508 165.743 86.2111 165.499C85.0119 165.406 84.0304 164.88 83.2266 163.986C78.9107 159.185 74.5948 154.385 70.2555 149.606C70.0716 149.404 69.6317 149.281 69.3551 149.338C64.9336 150.239 60.4691 150.481 55.9892 150.076C48.4787 149.398 41.4405 147.343 35.4642 142.488C32.6342 140.189 30.4675 137.397 29.4442 133.817C28.7928 131.539 28.9099 129.208 28.9966 126.893C29.1896 121.75 31.9241 117.985 35.7442 114.876C36.8295 113.993 38.0288 113.251 39.1759 112.444C39.2466 112.496 39.3161 112.548 39.3854 112.601Z" fill="#353789"/>
<path d="M103.901 102.751H87.9731V111.273C92.8066 113.912 95.3881 117.321 96.2119 123.644H103.901V102.751Z" fill="#633BA5"/>
<path d="M61.0597 90.9299C68.4916 90.9299 74.5164 85.022 74.5164 77.7343C74.5164 70.4466 68.4916 64.5387 61.0597 64.5387C53.6277 64.5387 47.603 70.4466 47.603 77.7343C47.603 85.022 53.6277 90.9299 61.0597 90.9299Z" fill="#FDDC23"/>
<path fill-rule="evenodd" clip-rule="evenodd" d="M65.3453 94.3438C65.3453 94.3438 80.9113 94.3878 81.4375 100.726L81.6567 130.787C81.6567 130.787 75.5919 138.214 59.1373 138.214C59.1373 138.214 44.3075 137.664 39.9135 131.337L40.9658 101.738C40.9658 101.738 40.9658 97.6889 45.8768 96.1043C50.7878 94.5198 57.5403 94.3327 57.5403 94.3327C57.5403 94.3327 62.5294 94.0917 65.3453 94.3438Z" fill="#FDDC23"/>
</svg>
