<?xml version="1.0" encoding="utf-8"?>
<!-- Generator: Adobe Illustrator 16.0.0, SVG Export Plug-In . SVG Version: 6.00 Build 0)  -->
<!DOCTYPE svg PUBLIC "-//W3C//DTD SVG 1.1//EN" "http://www.w3.org/Graphics/SVG/1.1/DTD/svg11.dtd">
<svg version="1.1" id="Layer_1" xmlns="http://www.w3.org/2000/svg" xmlns:xlink="http://www.w3.org/1999/xlink" x="0px" y="0px"
	 width="800px" height="524.138px" viewBox="0 0 800 524.138" enable-background="new 0 0 800 524.138" xml:space="preserve">
<path fill="#C8414B" d="M13.794,524.137h772.412c7.617,0,13.794-6.177,13.794-13.794V13.793C800,6.176,793.823,0,786.206,0H13.794
	C6.177,0.001,0,6.176,0,13.793v496.551C0,517.963,6.177,524.137,13.794,524.137z"/>
<rect x="0" y="110.35" fill="#FFD250" width="799.998" height="303.453"/>
<path fill="#C8414B" d="M337.93,262.069l11.695-52.626c1.078-4.848-2.61-9.444-7.576-9.444h-8.237c-4.964,0-8.651,4.597-7.577,9.444
	L337.93,262.069z"/>
<rect x="324.14" y="234.475" fill="#F5F5F5" width="27.586" height="117.234"/>
<rect x="317.234" y="220.694" fill="#FAB446" width="41.38" height="13.794"/>
<g>
	<rect x="289.656" y="262.069" fill="#C8414B" width="68.969" height="13.794"/>
	<polygon fill="#C8414B" points="358.619,317.241 317.24,303.449 317.24,289.655 358.619,303.449 	"/>
	<path fill="#C8414B" d="M131.034,262.069l11.695-52.626c1.078-4.848-2.611-9.444-7.577-9.444h-8.237
		c-4.964,0-8.651,4.597-7.576,9.444L131.034,262.069z"/>
</g>
<path fill="#F5F5F5" d="M179.311,220.689c-7.617,0-13.794,6.177-13.794,13.794v89.655c0,16.758,15.641,48.276,68.966,48.276
	c53.324,0,68.965-31.518,68.965-48.276v-89.655c0-7.617-6.176-13.794-13.793-13.794H179.311z"/>
<g>
	<path fill="#C8414B" d="M234.483,289.655h-68.966v-55.172c0-7.617,6.177-13.794,13.794-13.794h55.172V289.655z"/>
	<path fill="#C8414B" d="M234.483,289.655h68.965v34.483c0,19.045-15.438,34.482-34.482,34.482l0,0
		c-19.045,0-34.482-15.438-34.482-34.482V289.655z"/>
</g>
<path fill="#FAB446" d="M165.517,289.655h68.966v34.483c0,19.045-15.438,34.482-34.483,34.482l0,0
	c-19.045,0-34.482-15.438-34.482-34.482V289.655z"/>
<g>
	<path fill="#C8414B" d="M220.689,351.569v-61.914h-13.794v68.271C212.027,356.885,216.662,354.613,220.689,351.569z"/>
	<path fill="#C8414B" d="M193.103,357.926v-68.271h-13.794v61.914C183.337,354.613,187.973,356.885,193.103,357.926z"/>
</g>
<rect x="179.312" y="262.069" fill="#FFB441" width="41.38" height="13.794"/>
<g>
	<rect x="179.312" y="234.475" fill="#FAB446" width="41.38" height="13.794"/>
	<rect x="186.202" y="242.678" fill="#FAB446" width="27.586" height="24.987"/>
</g>
<rect x="117.235" y="234.475" fill="#F5F5F5" width="27.585" height="117.234"/>
<g>
	<rect x="110.344" y="344.835" fill="#FAB446" width="41.379" height="13.794"/>
	<rect x="110.344" y="220.694" fill="#FAB446" width="41.379" height="13.794"/>
</g>
<rect x="103.453" y="358.616" fill="#5064AA" width="55.171" height="13.794"/>
<rect x="324.14" y="344.835" fill="#FAB446" width="41.38" height="13.794"/>
<rect x="310.343" y="358.616" fill="#5064AA" width="55.172" height="13.794"/>
<rect x="193.109" y="206.897" fill="#FAB446" width="82.76" height="13.794"/>
<rect x="227.593" y="165.522" fill="#FFB441" width="13.794" height="41.38"/>
<g>
	<path fill="#F5F5F5" d="M220.689,186.207c-11.409,0-20.689-9.281-20.689-20.688c0-11.41,9.281-20.689,20.689-20.689
		c11.409,0,20.688,9.281,20.688,20.689C241.379,176.926,232.098,186.207,220.689,186.207z M220.689,158.621
		c-3.805,0-6.896,3.091-6.896,6.897c0,3.804,3.09,6.896,6.896,6.896c3.806,0,6.896-3.091,6.896-6.896
		S224.494,158.621,220.689,158.621z"/>
	<path fill="#F5F5F5" d="M248.276,186.207c-11.409,0-20.688-9.281-20.688-20.688c0-11.41,9.281-20.689,20.688-20.689
		c11.41,0,20.689,9.281,20.689,20.689C268.965,176.926,259.684,186.207,248.276,186.207z M248.276,158.621
		c-3.805,0-6.896,3.091-6.896,6.897c0,3.804,3.091,6.896,6.896,6.896c3.805,0,6.897-3.091,6.897-6.896
		C255.171,161.713,252.08,158.621,248.276,158.621z"/>
	<path fill="#F5F5F5" d="M275.862,200.001c-11.409,0-20.688-9.281-20.688-20.689c0-11.409,9.281-20.688,20.688-20.688
		c11.41,0,20.689,9.281,20.689,20.688C296.551,190.719,287.27,200.001,275.862,200.001z M275.862,172.415
		c-3.805,0-6.896,3.091-6.896,6.896c0,3.805,3.091,6.897,6.896,6.897c3.805,0,6.897-3.091,6.897-6.897
		C282.759,175.506,279.666,172.415,275.862,172.415z"/>
	<path fill="#F5F5F5" d="M193.103,200.001c-11.409,0-20.689-9.281-20.689-20.689c0-11.409,9.281-20.688,20.689-20.688
		c11.409,0,20.689,9.281,20.689,20.688C213.793,190.719,204.512,200.001,193.103,200.001z M193.103,172.415
		c-3.805,0-6.896,3.091-6.896,6.896c0,3.805,3.09,6.897,6.896,6.897s6.896-3.093,6.896-6.898
		C199.999,175.506,196.909,172.415,193.103,172.415z"/>
</g>
<path fill="#FAB446" d="M275.862,317.241v6.897c0,3.803-3.094,6.896-6.896,6.896s-6.896-3.094-6.896-6.896v-6.897H275.862
	 M289.655,303.449h-41.38v20.689c0,11.409,9.281,20.688,20.688,20.688c11.41,0,20.689-9.281,20.689-20.688v-20.689H289.655z"/>
<path fill="#FFA0D2" d="M268.965,275.863L268.965,275.863c-7.617,0-13.794-6.177-13.794-13.794v-13.794
	c0-7.617,6.177-13.793,13.794-13.793l0,0c7.617,0,13.794,6.176,13.794,13.793v13.794
	C282.759,269.686,276.582,275.863,268.965,275.863z"/>
<circle fill="#5064AA" cx="234.484" cy="289.647" r="20.689"/>
<rect x="227.593" y="137.928" fill="#FAB446" width="13.794" height="41.38"/>
<path fill="#C8414B" d="M193.103,206.897l-13.794-13.794l8.08-8.079c12.489-12.489,29.43-19.507,47.094-19.507l0,0
	c17.664,0,34.603,7.018,47.094,19.507l8.079,8.079l-13.794,13.794H193.103z"/>
<g>
	<circle fill="#FFD250" cx="234.484" cy="193.101" r="6.897"/>
	<circle fill="#FFD250" cx="206.89" cy="193.101" r="6.897"/>
	<circle fill="#FFD250" cx="262.062" cy="193.101" r="6.897"/>
</g>
<g>
	<rect x="110.344" y="262.069" fill="#C8414B" width="68.968" height="13.794"/>
	<polygon fill="#C8414B" points="110.345,317.241 151.723,303.449 151.723,289.655 110.345,303.449 	"/>
</g>
</svg>
