<svg width="142" height="142" viewBox="0 0 142 142" fill="none" xmlns="http://www.w3.org/2000/svg">
<ellipse cx="71" cy="71.0341" rx="65" ry="65.0341" fill="#3D79CF"/>
<path fill-rule="evenodd" clip-rule="evenodd" d="M38.2292 71.5884L54.4904 99.754H87.013L103.275 71.5884L87.013 43.4236H54.4904L38.2292 71.5884ZM47.1252 71.5885L58.9383 92.0503H82.5655L94.3783 71.5885L82.5655 51.1267H58.9383L47.1252 71.5885Z" fill="#B1CFED"/>
<path fill-rule="evenodd" clip-rule="evenodd" d="M17.0812 71.4618L43.9798 118.052H97.7773L124.677 71.4618L97.7773 24.8726H43.9798L17.0812 71.4618ZM29.8692 72.0558L50.925 108.215H93.0383L114.093 72.0558L93.0383 35.8967H50.925L29.8692 72.0558Z" fill="#B1CFED"/>
<g opacity="0.1">
<g opacity="0.1">
<path opacity="0.1" d="M90.7857 42.646C92.4245 36.2683 99.4517 32.5663 106.481 34.3788C111.112 35.5723 114.589 38.8617 115.954 42.7921C116.66 44.8268 116.801 47.0333 116.241 49.2088C114.602 55.5875 107.575 59.2894 100.546 57.477C95.9151 56.2825 92.4378 52.994 91.0739 49.0636C90.3658 47.028 90.2262 44.8224 90.7857 42.646Z" fill="black"/>
</g>
</g>
<path d="M99.4323 41.9935L101.353 42.8816C101.814 43.0941 102.142 43.4881 102.305 43.96C102.489 44.4869 102.468 45.1111 102.2 45.6928C102.2 45.6928 100.848 47.94 99.5481 50.004C98.1771 52.1786 96.9325 52.9604 95.8586 52.4965C95.4528 52.3211 95.1797 51.9997 95.0259 51.5552C94.7377 50.7247 94.858 49.4639 95.2761 47.9179C95.9196 45.5441 96.7478 43.172 96.7478 43.172C97.2552 42.0687 98.4573 41.5419 99.4323 41.9935Z" fill="black"/>
<path d="M107.074 44.0467L109.394 44.2902C110.241 44.3805 110.921 44.9632 111.187 45.7326C111.291 46.0328 111.333 46.3613 111.297 46.7004C111.297 46.7004 110.71 49.2619 110.11 51.6296C109.477 54.1274 108.47 55.2616 107.183 55.1553C106.317 55.0845 105.725 54.439 105.353 53.3694C105.127 52.7195 104.983 51.912 104.909 50.9814C104.713 48.5217 104.709 46.0053 104.709 46.0053C104.837 44.7994 105.895 43.9219 107.074 44.0467Z" fill="black"/>
<path d="M75.9525 66.0346C75.6201 66.4942 75.5883 67.1078 75.6625 67.6709C75.7386 68.234 76.1027 69.0584 76.1248 69.6259C76.1496 70.3095 76.0143 70.6592 75.827 71.3162C75.629 72.0104 75.2957 72.694 75.0995 73.3881C75.0526 73.5537 75.0014 73.7211 74.8387 73.7742C74.5992 73.853 74.2686 73.6573 74.1864 73.42V73.4182C73.8823 72.5328 74.3764 71.5349 74.7592 70.785C74.7521 70.7991 72.042 75.6876 71.8608 76.0187C71.6787 76.3552 71.1032 76.1755 70.9945 75.8611C70.9706 75.7921 70.9689 75.7177 70.9998 75.6389C71.4144 74.5746 71.9925 73.0614 72.4512 72.0148C70.5711 76.2436 70.8761 75.8558 70.6621 76.2127C70.4783 76.5208 69.9364 76.3092 69.8313 76.0055C69.8127 75.9515 69.8074 75.8957 69.8206 75.839C69.909 75.4414 69.757 75.6433 71.2526 71.4694C69.8277 75.3316 69.9329 75.1307 69.7765 75.4538C69.6218 75.777 69.0781 75.5583 68.9853 75.29C68.9712 75.2502 68.9677 75.2095 68.9765 75.1696C69.0375 74.8836 68.9093 74.8225 70.3501 70.7363C70.0558 71.6093 69.1771 73.853 68.9898 73.9991C68.7299 74.1992 68.4992 73.9672 68.4541 73.837C68.4514 73.8282 68.4488 73.8193 68.4479 73.8123C68.3189 72.9915 69.1506 71.125 69.2187 70.476C69.376 68.9946 69.3513 68.9318 70.1839 67.6975C70.5738 67.1193 71.1439 66.9395 71.5726 66.4791C72.2011 65.8035 71.9456 65.2873 72.6209 64.2239L75.9525 66.0346Z" fill="#533724"/>
<path d="M71.2049 75.3246L71.0599 75.6991C71.0475 75.731 71.044 75.7646 71.0458 75.7983C71.0475 75.8213 71.0529 75.8443 71.0617 75.8664C71.0962 75.9674 71.1881 76.0639 71.3127 76.1161C71.5081 76.1994 71.714 76.1471 71.7715 76.0001L71.9164 75.6256C71.9288 75.5937 71.9332 75.5601 71.9306 75.5264C71.9279 75.5043 71.9235 75.4804 71.9147 75.4574C71.8802 75.3564 71.7883 75.2608 71.6645 75.2086C71.4683 75.1253 71.2615 75.1776 71.2049 75.3246Z" fill="#F4DECC"/>
<path d="M70.0222 75.4211L69.894 75.816C69.8843 75.847 69.8816 75.8797 69.8852 75.9125C69.8869 75.932 69.8914 75.9532 69.8993 75.9727C69.9364 76.0798 70.0381 76.179 70.176 76.2277C70.3802 76.3003 70.5888 76.2321 70.6383 76.0772L70.7656 75.6814C70.777 75.6504 70.7788 75.6176 70.7753 75.5858C70.7735 75.5663 70.7682 75.545 70.7611 75.5247C70.7249 75.4184 70.6224 75.3192 70.4845 75.2705C70.2803 75.1979 70.0717 75.2661 70.0222 75.4211Z" fill="#F4DECC"/>
<path d="M69.1542 74.7995L69.0517 75.1696C69.041 75.2077 69.0419 75.2484 69.0525 75.2874C69.0543 75.2927 69.0552 75.2989 69.057 75.3033C69.0923 75.4051 69.1931 75.4981 69.3266 75.5388C69.5175 75.5964 69.7067 75.5255 69.7473 75.3812L69.8499 75.012C69.8596 74.973 69.8587 74.9332 69.8481 74.8933C69.8472 74.8889 69.8454 74.8836 69.8437 74.8774C69.8083 74.7765 69.7084 74.6835 69.5749 74.6428C69.3831 74.5843 69.1949 74.6552 69.1542 74.7995Z" fill="#F4DECC"/>
<path d="M68.5973 73.3358L68.4788 73.6652C68.47 73.6918 68.4665 73.7192 68.4674 73.7458C68.4682 73.767 68.4727 73.7883 68.4797 73.8087C68.5071 73.8892 68.5796 73.9601 68.6795 73.9928C68.836 74.0451 69.0012 73.9813 69.0481 73.8521L69.1657 73.5236C69.1754 73.497 69.1789 73.4695 69.178 73.443C69.1771 73.4217 69.1727 73.4005 69.1657 73.3801C69.1374 73.2995 69.0649 73.2287 68.965 73.196C68.8094 73.1437 68.6433 73.2066 68.5973 73.3358Z" fill="#F4DECC"/>
<path d="M74.768 73.2447C74.7592 73.273 74.7557 73.3023 74.7565 73.335C74.7574 73.3713 74.7645 73.4094 74.7778 73.4457C74.8105 73.5413 74.8829 73.6308 74.9828 73.6671C75.0385 73.5909 75.0694 73.4891 75.0986 73.3881C75.1852 73.0818 75.2993 72.779 75.4151 72.4744C75.3567 72.4354 75.2851 72.4009 75.2489 72.4027C75.1181 72.408 74.9607 72.5797 74.9015 72.7852L74.768 73.2447Z" fill="#F4DECC"/>
<path d="M124.707 47.6097C124.935 47.662 125.097 47.8515 125.175 48.0764C125.213 48.1835 125.231 48.3004 125.227 48.4128C125.214 48.7599 125.045 49.0787 124.88 49.3833C124.696 49.725 124.5 50.0792 124.182 50.3006C123.865 50.5219 123.388 50.5635 123.117 50.2873C123.047 50.2147 122.999 50.1332 122.968 50.0447C122.849 49.7029 122.993 49.2637 123.169 48.9157C123.333 48.5899 123.513 48.2703 123.706 47.9604L124.707 47.6097Z" fill="#533724"/>
<path d="M117.771 49.5922L123.065 50.3475C123.882 49.5444 124.503 49.1291 124.734 47.5212L120.26 42.1085L117.771 49.5922Z" fill="#394E73"/>
<path d="M71.6393 65.5463L75.9406 67.2936L76.5568 65.7715L72.2555 64.0243L71.6393 65.5463Z" fill="white"/>
<path d="M88.7412 35.1499L90.8732 43.4048C85.5926 52.4671 76.7852 66.2869 76.7852 66.2869L71.7379 64.2363C76.7869 52.9028 82.7526 37.4901 88.7412 35.1499Z" fill="#394E73"/>
<path d="M86.2034 37.4166C86.9856 34.3725 96.2413 32.3201 106.339 34.9241C115.032 37.1643 121.515 42.1253 122.654 45.4041C122.838 45.9353 122.882 46.4214 122.773 46.8455C121.991 49.8897 112.953 51.0947 102.855 48.4907C94.0703 46.2266 87.3781 41.8278 86.2988 38.7164C86.1371 38.2516 86.1017 37.8142 86.2034 37.4166Z" fill="#46618D"/>
<path d="M96.3775 38.4623C96.9078 36.046 98.4759 34.2601 100.338 32.7097C100.651 32.4812 100.976 32.2732 101.312 32.0899C101.649 31.9057 101.997 31.7454 102.354 31.6126C102.768 31.4524 103.197 31.3337 103.635 31.2514C104.51 31.0885 105.417 31.0796 106.308 31.2142C106.752 31.2815 107.193 31.3842 107.624 31.5232C110.31 32.1802 112.194 34.2158 113.033 36.633C113.776 38.7722 113.702 41.2098 112.641 43.256C112.498 43.6341 112.331 44.0051 112.143 44.3664C111.388 45.8114 110.286 47.1032 108.902 48.0931C108.534 48.357 108.155 48.5925 107.764 48.7944C106.198 49.6046 104.431 49.8879 102.684 49.4824C101.046 49.1025 99.6586 48.1719 98.6253 46.8889C98.4193 46.6322 98.2266 46.3612 98.049 46.0779C97.6043 45.2713 97.2154 44.431 96.9131 43.5633C96.4305 42.1714 96.175 40.7113 96.2802 39.214C96.3005 38.9643 96.3324 38.7138 96.3775 38.4623Z" fill="#533724"/>
<path d="M96.3774 38.4615C96.9078 36.0451 97.8112 34.091 99.9989 32.6707C100.541 32.3183 102.094 31.4223 103.308 31.2062C104.542 30.9858 106.323 30.876 107.686 31.3125C109.909 31.8384 111.713 33.4712 112.712 35.3306C112.908 35.6927 113.068 36.0593 113.198 36.4321C113.92 38.5146 113.661 40.7662 112.921 43.3809C111.935 46.8598 108.957 49.0087 106.165 46.6384C105.917 46.502 105.677 46.3666 105.426 46.2373C104.924 45.9788 104.373 45.7424 103.591 45.5608C102.77 45.3696 101.962 45.2474 101.196 45.1562C100.813 45.1093 100.441 45.0721 100.082 45.0375C98.1789 45.3793 97.1438 44.3797 96.6435 42.9373C96.2917 41.9235 96.2033 40.6927 96.2616 39.5559C96.2767 39.1919 96.3138 38.8271 96.3774 38.4615Z" fill="black"/>
<path d="M103.545 49.2301C103.545 49.2301 102.908 51.0921 102.344 50.9602C102.219 50.9318 102.134 50.815 102.077 50.6503C101.875 50.0659 102.023 48.8768 102.023 48.8768L103.545 49.2301Z" fill="#533724"/>
<g opacity="0.1">
<g opacity="0.1">
<path opacity="0.1" d="M40.0305 88.1491C35.4155 92.8401 27.4831 92.5063 22.313 87.4018C18.9072 84.039 17.5503 79.4462 18.3406 75.36C18.7498 73.2447 19.7345 71.2666 21.3088 69.6667C25.9247 64.9757 33.8562 65.3104 39.0263 70.414C42.4321 73.7768 43.7889 78.3704 42.9987 82.4558C42.5903 84.5702 41.6056 86.5492 40.0305 88.1491Z" fill="black"/>
</g>
</g>
<path d="M32.2263 84.3639L31.0108 82.6294C30.7192 82.2123 30.6325 81.7085 30.728 81.2171C30.8341 80.6699 31.1655 80.1404 31.6879 79.7721C31.6879 79.7721 33.9844 78.5077 36.1429 77.3788C38.4191 76.187 39.8864 76.1374 40.5838 77.0795C40.8472 77.4337 40.9206 77.849 40.8304 78.312C40.6642 79.1762 39.9279 80.206 38.7903 81.3322C37.0428 83.0606 35.1379 84.696 35.1379 84.696C34.147 85.3928 32.8432 85.2441 32.2263 84.3639Z" fill="black"/>
<path d="M26.6486 78.7441L24.765 77.3655C24.0773 76.8617 23.782 76.0161 23.9367 75.2157C23.9968 74.9031 24.1259 74.5994 24.3265 74.3241C24.3265 74.3241 26.1183 72.4036 27.8243 70.6566C29.6248 68.8158 31.0647 68.3439 32.1237 69.0814C32.837 69.579 33.0253 70.4335 32.8105 71.5456C32.6797 72.222 32.3995 72.9924 31.9973 73.8344C30.933 76.0604 29.6743 78.2368 29.6743 78.2368C28.9601 79.2169 27.605 79.4445 26.6486 78.7441Z" fill="black"/>
<path d="M64.5834 75.3882C65.1014 75.158 65.4372 74.6436 65.6547 74.1185C65.8721 73.5944 65.9694 72.6974 66.2363 72.1954C66.5572 71.5915 66.8498 71.3578 67.3412 70.8841C67.8592 70.3829 68.4903 69.9597 69.0083 69.4594C69.1321 69.3408 69.2611 69.2203 69.4282 69.2566C69.6739 69.3098 69.8613 69.6445 69.8145 69.8924L69.8136 69.8933C69.6324 70.8115 68.7051 71.4259 67.998 71.8811C68.0113 71.8731 72.8066 69.0087 73.1292 68.8122C73.4563 68.6138 73.8629 69.0592 73.8001 69.385C73.786 69.4568 73.7497 69.5223 73.6843 69.5745C72.7915 70.2873 71.5328 71.3046 70.6109 71.9785C74.3579 69.2673 73.9 69.4506 74.2642 69.2487C74.5771 69.076 74.9404 69.5294 74.8785 69.8463C74.867 69.9021 74.844 69.9535 74.8043 69.996C74.5276 70.2952 74.7609 70.1979 71.3737 73.0534C74.5435 70.4307 74.3508 70.5529 74.6487 70.3501C74.9457 70.1492 75.3046 70.6122 75.2515 70.8894C75.2427 70.931 75.2268 70.9682 75.1985 70.9983C75.0023 71.2152 75.0827 71.3321 71.7883 74.1416C72.4804 73.5333 74.3649 72.036 74.601 72.005C74.9262 71.9625 75.0084 72.2795 74.9828 72.4132C74.981 72.4229 74.9784 72.4318 74.9757 72.4389C74.6752 73.2127 73.0214 74.4089 72.6369 74.9349C71.7591 76.1364 71.7476 76.2037 70.4094 76.8518C69.7826 77.1555 69.1984 77.0236 68.5973 77.206C67.716 77.4743 67.6771 78.0498 66.5607 78.6289L64.5834 75.3882Z" fill="#CCA585"/>
<path d="M73.3475 69.7437L73.6604 69.4922C73.686 69.471 73.7073 69.4444 73.7214 69.4134C73.7311 69.3931 73.74 69.37 73.7426 69.3461C73.7629 69.2417 73.732 69.1133 73.6507 69.0044C73.5225 68.8344 73.3192 68.7759 73.1955 68.8742L72.8825 69.1257C72.8569 69.146 72.8357 69.1744 72.8216 69.2045C72.811 69.2248 72.8039 69.2479 72.7995 69.2718C72.78 69.3754 72.811 69.5046 72.8914 69.6135C73.0204 69.7827 73.2246 69.842 73.3475 69.7437Z" fill="#F4DECC"/>
<path d="M74.4188 70.2546L74.7282 69.9775C74.752 69.9562 74.7715 69.9279 74.7839 69.8987C74.7927 69.8801 74.7989 69.8597 74.8024 69.8394C74.8245 69.7287 74.7856 69.5914 74.6911 69.4799C74.5505 69.3143 74.3366 69.2691 74.2155 69.378L73.907 69.6552C73.8823 69.6764 73.8628 69.7039 73.8504 69.734C73.8425 69.7526 73.8354 69.7729 73.8319 69.7933C73.8115 69.9049 73.8487 70.0421 73.9432 70.1528C74.0838 70.3175 74.2986 70.3635 74.4188 70.2546Z" fill="#F4DECC"/>
<path d="M74.8582 71.2285L75.1313 70.9602C75.1596 70.9328 75.179 70.8974 75.1887 70.8575C75.1905 70.8531 75.1923 70.8469 75.1932 70.8416C75.2126 70.7362 75.1737 70.6052 75.0783 70.5025C74.9421 70.3564 74.7432 70.3218 74.6363 70.4272L74.3614 70.6955C74.334 70.7229 74.3145 70.7584 74.3048 70.7982C74.3031 70.8026 74.3022 70.8088 74.3004 70.815C74.281 70.9195 74.3198 71.0514 74.4153 71.1533C74.5523 71.3003 74.7503 71.3339 74.8582 71.2285Z" fill="#F4DECC"/>
<path d="M74.6053 72.7745L74.8723 72.5496C74.8935 72.531 74.9112 72.5098 74.9236 72.4859C74.9324 72.4673 74.9404 72.4469 74.9439 72.4257C74.9598 72.3424 74.9333 72.2442 74.8635 72.1654C74.7538 72.0423 74.5797 72.0139 74.4754 72.1025L74.2076 72.3283C74.1864 72.3469 74.1687 72.3681 74.1572 72.3911C74.1475 72.4097 74.1404 72.4301 74.136 72.4513C74.1201 72.5355 74.1475 72.6329 74.2173 72.7117C74.326 72.8338 74.5002 72.8631 74.6053 72.7745Z" fill="#F4DECC"/>
<path d="M69.2231 69.7481C69.2443 69.7295 69.2629 69.7047 69.2788 69.6772C69.2965 69.6453 69.3088 69.6099 69.3159 69.5719C69.3354 69.4709 69.3177 69.3576 69.2496 69.2761C69.1621 69.3133 69.0843 69.3859 69.0083 69.4594C68.7803 69.6799 68.5292 69.8853 68.2764 70.0898C68.3074 70.1536 68.3524 70.2191 68.3843 70.2359C68.5009 70.297 68.7219 70.2271 68.8775 70.0792L69.2231 69.7481Z" fill="#F4DECC"/>
<path d="M13.1881 66.7908C13.0175 66.6314 12.9715 66.3853 13.0157 66.1506C13.0378 66.0382 13.0802 65.9293 13.1403 65.8345C13.3251 65.5414 13.6318 65.3502 13.927 65.1696C14.2576 64.9668 14.6041 64.7596 14.9904 64.7277C15.3767 64.6959 15.8098 64.8995 15.9053 65.2758C15.93 65.3723 15.9309 65.468 15.9132 65.5592C15.8443 65.9142 15.4987 66.2223 15.1734 66.434C14.8675 66.635 14.552 66.82 14.2293 66.9909L13.1881 66.7908Z" fill="#CCA585"/>
<path d="M20.1791 68.5651L15.9796 65.2492C14.8711 65.5334 14.126 65.5795 13.1201 66.8545L14.2745 73.7856L20.1791 68.5651Z" fill="#628BAF"/>
<path d="M68.0595 77.984L65.217 74.3082L63.9207 75.3141L66.7632 78.9899L68.0595 77.984Z" fill="white"/>
<path d="M38.0389 95.6602L40.3354 87.4497C49.4452 82.269 63.992 74.7517 63.992 74.7517L67.328 79.0646C57.2786 86.3243 44.3917 96.6493 38.0389 95.6602Z" fill="#628BAF"/>
<path d="M41.3713 94.9758C39.1686 97.2151 30.1357 94.333 22.7081 87.0007C16.3155 80.6894 13.197 73.1393 13.8564 69.7304C13.9633 69.1788 14.1693 68.7361 14.476 68.4235C16.6788 66.1852 25.0991 69.6906 32.525 77.0228C38.9847 83.3988 42.5655 90.5699 41.9397 93.8035C41.846 94.2887 41.6586 94.6845 41.3713 94.9758Z" fill="#7BAFDF"/>
<path d="M33.0969 88.954C31.4271 90.7771 29.1749 91.5315 26.7874 91.9335C26.4029 91.9751 26.0175 91.9911 25.6339 91.9804C25.2502 91.9707 24.8701 91.9335 24.4945 91.8698C24.0552 91.7998 23.6247 91.6874 23.2057 91.5368C22.3677 91.2376 21.5784 90.7886 20.8757 90.2246C20.5247 89.9431 20.195 89.6314 19.8919 89.2958C17.8986 87.3753 17.2904 84.6677 17.7766 82.1548C18.2062 79.9315 19.4941 77.8614 21.437 76.6253C21.7508 76.3703 22.0814 76.133 22.4252 75.9152C23.8006 75.0466 25.4014 74.4843 27.0968 74.325C27.5458 74.2807 27.9913 74.2683 28.4315 74.2895C30.1914 74.3781 31.8612 75.0209 33.1685 76.2508C34.3945 77.4036 35.1273 78.9071 35.3783 80.5354C35.4287 80.8612 35.4587 81.1924 35.4702 81.5262C35.4508 82.4479 35.3659 83.3714 35.1918 84.2736C34.9116 85.7196 34.4007 87.1097 33.5583 88.3511C33.416 88.5574 33.2622 88.7592 33.0969 88.954Z" fill="#CCA585"/>
<path d="M33.0969 88.954C31.4262 90.7771 29.6655 92.0114 27.0614 92.1398C26.417 92.1716 24.6244 92.1645 23.4647 91.7413C22.2873 91.3101 20.6927 90.5097 19.7327 89.4463C18.0754 87.8738 17.3337 85.5539 17.4018 83.444C17.4151 83.0322 17.4601 82.6347 17.5344 82.2477C17.9534 80.0829 19.3067 78.266 21.2575 76.3773C23.8545 73.8654 27.5078 73.5059 28.7329 76.96C28.8805 77.2026 29.0193 77.4399 29.1713 77.6789C29.4754 78.1553 29.8343 78.637 30.4177 79.1868C31.0329 79.7641 31.6702 80.2777 32.2863 80.7425C32.5948 80.9745 32.898 81.1941 33.1897 81.4039C35.0079 82.0671 35.4004 83.4519 35.1105 84.9501C34.9072 86.0037 34.3653 87.1132 33.7439 88.0677C33.5512 88.3731 33.3355 88.6698 33.0969 88.954Z" fill="#764C24"/>
<path d="M32.2996 76.0365C32.2996 76.0365 33.7837 74.7473 34.2062 75.1448C34.299 75.2325 34.3149 75.3759 34.2804 75.5459C34.1629 76.1542 33.4381 77.107 33.4381 77.107L32.2996 76.0365Z" fill="#CCA585"/>
<g opacity="0.1">
<g opacity="0.1">
<path opacity="0.1" d="M103.184 81.8501C107.174 81.2029 111.047 82.9675 113.564 86.1507C114.906 87.848 115.862 89.9491 116.241 92.3035C117.335 99.0699 113.261 105.359 107.143 106.351C103.153 106.997 99.2794 105.233 96.7628 102.05C95.4201 100.353 94.4637 98.2509 94.0845 95.8975C92.992 89.1319 97.0642 82.8418 103.184 81.8501Z" fill="black"/>
</g>
</g>
<path d="M80.023 75.5256C79.4811 75.3618 78.8906 75.5344 78.385 75.7903C77.8794 76.0462 77.2209 76.6625 76.6923 76.8696C76.0568 77.1184 75.682 77.1052 75.0013 77.145C74.2827 77.1866 73.5278 77.0954 72.8101 77.1379C72.6412 77.1477 72.4671 77.1539 72.3628 77.0219C72.3619 77.0211 72.361 77.0193 72.3593 77.0175C72.2064 76.8156 72.2833 76.4384 72.4813 76.2817C73.2158 75.7044 74.3189 75.8434 75.1516 75.9603C75.1357 75.9568 69.6359 75.0005 69.2637 74.9394C69.1736 74.9243 69.1046 74.8792 69.0543 74.8154C68.8465 74.5534 68.9667 73.9849 69.3389 73.9991C70.4792 74.0416 72.0959 74.0903 73.2335 74.1797C68.6273 73.7919 69.094 73.9521 68.6874 73.8671C68.6123 73.8503 68.554 73.8114 68.5115 73.7591C68.3215 73.5192 68.447 72.9844 68.7634 72.9472C69.1674 72.9003 68.927 72.8223 73.3537 72.8666C69.2434 72.7878 69.4679 72.8206 69.1108 72.779C69.0295 72.7692 68.9676 72.7311 68.9243 72.6771C68.7502 72.4567 68.8633 71.9599 69.1152 71.9281C69.4052 71.8926 69.4202 71.7519 73.7479 71.7704C72.8269 71.7793 70.4226 71.6854 70.2246 71.5553C70.1848 71.5296 70.153 71.5004 70.13 71.4712C69.9789 71.279 70.13 71.0311 70.2219 70.9806C70.9529 70.5893 72.9869 70.7619 73.6206 70.6141C75.0694 70.2741 75.1198 70.2316 76.5579 70.6132C77.2306 70.792 77.5877 71.2719 78.1623 71.5252C79.0055 71.8979 79.4086 71.4862 80.6329 71.7758L80.023 75.5256Z" fill="#EFBEB4"/>
<path d="M69.703 74.0893L69.3017 74.076C69.2673 74.0751 69.2346 74.0822 69.2036 74.0955C69.0905 74.146 69.0012 74.2858 68.9906 74.4514C68.9835 74.5701 69.0154 74.6772 69.0737 74.7507C69.1197 74.8082 69.1815 74.8437 69.2514 74.8463L69.6527 74.8614C69.6863 74.8623 69.7198 74.8552 69.7508 74.8419C69.8639 74.7914 69.9523 74.6515 69.9629 74.486C69.9709 74.3673 69.9382 74.2602 69.8807 74.1867C69.8348 74.1282 69.772 74.0919 69.703 74.0893Z" fill="#F4DECC"/>
<path d="M69.2223 73.003L68.8077 73.0127C68.7741 73.0136 68.7423 73.0216 68.7131 73.0349C68.5964 73.0906 68.5116 73.2394 68.5107 73.4138C68.5107 73.5254 68.5452 73.6254 68.6017 73.6963C68.6548 73.7636 68.7264 73.8034 68.805 73.8016L69.2196 73.7919C69.2532 73.791 69.2841 73.783 69.3133 73.7698C69.43 73.714 69.5148 73.5643 69.5157 73.3908C69.5157 73.2783 69.4804 73.1792 69.4256 73.1084C69.3734 73.0411 69.3018 73.0012 69.2223 73.003Z" fill="#F4DECC"/>
<path d="M69.5228 71.9768L69.1409 72.0016C69.1011 72.0042 69.064 72.0193 69.0304 72.0423C68.9394 72.1052 68.8784 72.2371 68.8837 72.3841C68.8881 72.4806 68.9208 72.5673 68.9694 72.6293C69.0225 72.6957 69.0941 72.7347 69.171 72.7285L69.5528 72.7046C69.5926 72.7019 69.6306 72.6878 69.6633 72.6647C69.7552 72.601 69.8162 72.4691 69.8109 72.3221C69.8065 72.2256 69.7738 72.1388 69.7252 72.0768C69.6713 72.0122 69.5997 71.9723 69.5228 71.9768Z" fill="#F4DECC"/>
<path d="M70.7196 70.97L70.3705 70.9665C70.3431 70.9665 70.3157 70.9718 70.2909 70.9815C70.1937 71.0214 70.1247 71.133 70.1274 71.2631C70.1292 71.3428 70.1557 71.4145 70.199 71.4685C70.245 71.527 70.3104 71.5642 70.3811 71.565L70.7311 71.5686C70.7585 71.5686 70.7859 71.5633 70.8107 71.5527C70.9079 71.5128 70.9768 71.4012 70.9742 71.2711C70.9724 71.1923 70.9468 71.1197 70.9035 71.0657C70.8558 71.0072 70.7912 70.97 70.7196 70.97Z" fill="#F4DECC"/>
<path d="M72.834 76.7767C72.8066 76.7784 72.7757 76.7846 72.7456 76.7953C72.6228 76.8422 72.5087 76.9724 72.507 77.1193C72.5971 77.1477 72.7041 77.1432 72.8093 77.1379C73.1257 77.1193 73.4501 77.1255 73.7745 77.137C73.7931 77.068 73.8002 76.9892 73.7887 76.9555C73.7816 76.9396 73.771 76.9237 73.7604 76.9086C73.6826 76.8103 73.4978 76.743 73.3122 76.7528L72.834 76.7767Z" fill="#F4DECC"/>
<path d="M113.514 115.517C113.553 115.861 113.26 116.171 112.928 116.274C112.598 116.375 112.241 116.321 111.899 116.264C111.516 116.202 111.119 116.134 110.806 115.906C110.732 115.852 110.666 115.788 110.608 115.715C110.42 115.478 110.336 115.159 110.467 114.894C110.685 114.456 111.293 114.428 111.777 114.492C112.14 114.539 112.499 114.604 112.855 114.685L113.514 115.517Z" fill="#EFBEB4"/>
<path d="M109.364 109.609L110.393 114.866C111.419 115.373 112.015 115.825 113.607 115.513L117.238 109.503L109.364 109.609Z" fill="#CABD12"/>
<path d="M79.153 71.2209L78.92 75.8651L80.5584 75.9476L80.7915 71.3034L79.153 71.2209Z" fill="white"/>
<path d="M113.222 77.3734L106.14 82.1043C95.8585 80.0908 79.9337 76.3011 79.9337 76.3011L80.2086 70.8513C92.5535 71.9014 109.045 72.4779 113.222 77.3734Z" fill="#CABD12"/>
<path d="M104.788 96.4943C107.777 95.9931 110.428 96.458 111.28 97.5382C111.424 97.7179 111.516 97.9163 111.552 98.1279C111.8 99.6163 109.177 101.297 105.691 101.881C102.205 102.466 98.9285 100.248 98.9285 100.248C98.9285 100.248 101.302 97.0795 104.788 96.4943Z" fill="#1D1D1B"/>
<path d="M103.798 86.6227C106.61 86.6377 108.994 87.4231 109.848 88.5033C110.068 88.7804 110.186 89.078 110.184 89.387C110.176 90.8957 107.305 92.1035 103.77 92.0858C100.235 92.0672 97.3834 89.3214 97.3834 89.3214C97.3834 89.3214 100.264 86.6032 103.798 86.6227Z" fill="#1D1D1B"/>
<path d="M110.176 75.6495C111.236 75.5529 112.519 76.4251 113.787 78.0295C116.246 81.1382 118.649 86.9945 119.278 93.8804C120.232 104.322 116.745 113.178 113.631 113.463C112.69 113.55 111.653 112.866 110.638 111.583C108.293 108.615 106.062 102.442 105.396 95.1528C104.443 84.7109 107.061 75.9354 110.176 75.6495Z" fill="#FCEA0D"/>
<path d="M113.507 106.361C108.775 105.137 105.627 103.971 104.05 101.976C103.434 101.197 103.057 100.29 102.921 99.2038C102.709 97.5108 104.028 96.428 103.963 94.5756C103.9 92.7242 102.26 91.3004 102.309 89.047C102.428 83.5839 108.3 82.5639 108.3 82.5639L116.077 87.0805L113.507 106.361Z" fill="#FCEA0D"/>
<path d="M112.22 85.8346C115.511 85.6018 118.495 86.9308 120.214 89.1054C121.08 90.2016 121.626 91.512 121.727 92.9455C122.028 97.223 118.261 100.974 113.312 101.324C110.021 101.557 107.037 100.227 105.318 98.0536C104.452 96.9574 103.906 95.647 103.805 94.2134C103.504 89.9359 107.271 86.1835 112.22 85.8346Z" fill="#EFBEB4"/>
<path d="M112.22 85.8346C115.511 85.6018 118.495 86.9308 120.214 89.1054C121.08 90.2016 121.626 91.512 121.727 92.9455C122.028 97.223 118.261 100.974 113.312 101.324C111.015 101.487 108.868 100.889 107.197 99.7731C106.924 96.7865 107.796 96.2358 107.634 93.9425C107.465 91.5288 106.774 89.3914 106.662 87.9915C108.131 86.7856 110.064 85.9869 112.22 85.8346Z" fill="#5F3914"/>
<path d="M104.277 94.928C104.277 94.928 102.753 94.8784 102.425 94.464C102.389 94.4189 102.368 94.3702 102.364 94.3153C102.325 93.7619 104.173 93.4387 104.173 93.4387L104.277 94.928Z" fill="#EFBEB4"/>
<path d="M128.355 92.4763C128.354 92.4559 128.353 92.4338 128.35 92.4134C128.341 92.3213 128.305 92.2346 128.248 92.162C128.234 92.1442 128.219 92.1274 128.202 92.1115C127.981 91.9025 127.803 91.7299 127.665 91.5554C127.45 91.2827 127.332 91.0056 127.307 90.5779C127.301 90.477 127.266 90.3796 127.205 90.3026C127.182 90.2724 127.154 90.2459 127.123 90.2229C127.123 90.2229 127.123 90.222 127.121 90.2211C127.119 90.2184 127.115 90.2167 127.113 90.214C127.017 90.1441 126.895 90.1131 126.777 90.1281C125.969 90.2344 125.489 89.8846 124.691 89.7191C124.62 89.7049 124.546 89.7058 124.476 89.7261C124.432 89.7376 124.388 89.75 124.347 89.7642C123.448 90.0555 122.741 90.7453 122.415 91.6148C122.266 92.0159 120.259 92.4373 120.291 92.8915C120.295 92.9473 120.32 93.0022 120.365 93.0571C120.736 93.5264 122.406 93.9718 122.703 94.3481C122.708 94.3552 122.714 94.3631 122.719 94.3693C122.771 94.449 122.825 94.5261 122.885 94.6004C123.395 95.2459 124.157 95.678 125.011 95.755C125.019 95.7568 125.028 95.7577 125.036 95.7586C125.166 95.7692 125.293 95.7205 125.391 95.6337C125.892 95.1928 126.485 95.2672 127.002 95.1361C127.167 95.0936 127.296 94.9652 127.343 94.8023C127.344 94.7979 127.345 94.7952 127.346 94.7917C127.542 94.1241 127.783 93.5919 128.229 93.1032C128.309 93.0146 128.36 92.9039 128.363 92.7853C128.363 92.7667 128.363 92.7463 128.364 92.7277C128.364 92.6454 128.362 92.5613 128.355 92.4763Z" fill="#5F3914"/>
<path d="M122.414 91.6155C122.265 92.0166 120.2 91.627 120.29 92.8923C120.312 93.1987 120.403 93.4263 120.538 93.598C121.107 94.317 122.453 94.0354 122.706 94.3551C122.711 94.3604 122.713 94.3657 122.717 94.3701L122.414 91.6155Z" fill="#5F3914"/>
<path d="M121.699 91.4828C121.782 91.4766 121.857 91.5094 121.9 91.5634C121.919 91.5891 121.933 91.62 121.935 91.6546L122.127 94.3764C122.135 94.48 122.041 94.5712 121.918 94.5791C121.835 94.5853 121.76 94.5517 121.718 94.4986C121.697 94.472 121.683 94.441 121.681 94.4074L121.489 91.6856C121.482 91.582 121.576 91.4917 121.699 91.4828Z" fill="#F8B121"/>
<path d="M122.14 91.4677C122.219 91.4615 122.292 91.4934 122.333 91.5465C122.354 91.5731 122.368 91.604 122.37 91.6386L122.562 94.3604C122.57 94.464 122.478 94.5552 122.36 94.5632C122.279 94.5685 122.207 94.5366 122.165 94.4844C122.145 94.4569 122.131 94.4259 122.129 94.3914L121.937 91.6696C121.928 91.5669 122.019 91.4757 122.14 91.4677Z" fill="#F8B121"/>
<g opacity="0.1">
<g opacity="0.1">
<path opacity="0.1" d="M50.5351 46.1088C47.0064 44.1352 45.0635 40.342 45.0635 36.2815C45.0635 34.1157 45.616 31.8738 46.7775 29.7921C50.1134 23.8075 57.2052 21.4107 62.6166 24.438C66.1453 26.4116 68.0882 30.2048 68.0882 34.2645C68.0882 36.4302 67.5348 38.673 66.3742 40.7547C63.0383 46.7393 55.9474 49.1361 50.5351 46.1088Z" fill="black"/>
</g>
</g>
<path d="M64.7725 65.4689C65.0969 65.9346 65.6653 66.1666 66.2204 66.2808C66.7755 66.3941 67.6736 66.3207 68.2163 66.4862C68.8687 66.6863 69.1542 66.9298 69.7119 67.3221C70.3015 67.7373 70.8363 68.2766 71.4259 68.6918C71.5646 68.7883 71.7043 68.8919 71.7043 69.0593V69.0655C71.699 69.3187 71.4055 69.5666 71.1536 69.5649C70.2184 69.5613 69.4406 68.7671 68.8589 68.1579C68.8695 68.1694 72.5891 72.3407 72.8428 72.6196C72.9038 72.686 72.9303 72.7657 72.9303 72.8472C72.9303 73.181 72.4848 73.5528 72.2019 73.3102C71.3348 72.5674 70.0964 71.5234 69.2611 70.746C72.6315 73.915 72.3646 73.4988 72.6315 73.8194C72.681 73.8778 72.7023 73.9451 72.7023 74.0133C72.7023 74.3205 72.2727 74.6605 72.0013 74.4932C71.6557 74.278 71.7962 74.4887 68.3533 71.7014C71.5266 74.3196 71.3719 74.154 71.6256 74.409C71.684 74.4666 71.7087 74.5348 71.7087 74.6047C71.7087 74.8854 71.3136 75.205 71.0953 75.0722C70.846 74.9208 70.7461 75.0218 67.366 72.3168C68.0934 72.8826 69.9205 74.4498 69.9948 74.6756C70.0107 74.7207 70.0169 74.7632 70.0169 74.8004C70.0169 75.0448 69.7437 75.1466 69.6412 75.1271C68.8253 74.9793 67.3386 73.5794 66.7499 73.3023C65.4045 72.6665 65.3365 72.6683 64.4472 71.4756C64.03 70.9169 64.0477 70.3184 63.7542 69.7623C63.3246 68.9459 62.7527 69.0168 61.9722 68.0295L64.7725 65.4689Z" fill="#F4DECC"/>
<path d="M71.973 73.0127L72.2788 73.273C72.3044 73.2942 72.3354 73.3093 72.369 73.319C72.4901 73.35 72.6456 73.2951 72.757 73.1721C72.8348 73.0835 72.8763 72.979 72.8763 72.8861C72.8763 72.8117 72.8507 72.7453 72.7977 72.7001L72.4918 72.4398C72.4662 72.4177 72.4361 72.4026 72.4017 72.3938C72.2815 72.3628 72.1259 72.4168 72.0145 72.5407C71.9358 72.6293 71.8943 72.7338 71.8943 72.8259C71.8943 72.9002 71.9199 72.9675 71.973 73.0127Z" fill="#F4EDE5"/>
<path d="M71.6761 74.1638L72.0066 74.4144C72.0332 74.4338 72.0623 74.4471 72.0959 74.4551C72.2223 74.4834 72.3805 74.4197 72.4884 74.2842C72.5582 74.1965 72.5927 74.0965 72.5927 74.0071C72.5927 73.9212 72.5617 73.845 72.4981 73.7972L72.1684 73.5475C72.1419 73.528 72.1118 73.5139 72.0791 73.5068C71.9536 73.4776 71.7945 73.5422 71.6867 73.6768C71.6177 73.7645 71.5832 73.8654 71.5824 73.9548C71.5815 74.0398 71.6124 74.1169 71.6761 74.1638Z" fill="#F4EDE5"/>
<path d="M70.8054 74.781L71.1192 74.9988C71.1527 75.0209 71.1899 75.0333 71.2314 75.0368C71.3428 75.0439 71.471 74.9793 71.5576 74.8606C71.6142 74.7809 71.6424 74.6942 71.6424 74.6145C71.6424 74.5295 71.6115 74.4551 71.5479 74.4108L71.2341 74.1939C71.2014 74.1709 71.1625 74.1594 71.1218 74.1567C71.0113 74.1488 70.8823 74.2143 70.7956 74.3329C70.7391 74.4108 70.7099 74.4994 70.7099 74.5782C70.7099 74.6623 70.7417 74.7376 70.8054 74.781Z" fill="#F4EDE5"/>
<path d="M69.2417 74.827L69.5131 75.0457C69.5352 75.0634 69.5599 75.0758 69.5855 75.0838C69.6863 75.113 69.8083 75.0687 69.8887 74.9642C69.9365 74.9014 69.9594 74.8279 69.9594 74.7588C69.9594 74.6845 69.932 74.6154 69.8764 74.5702L69.6041 74.3498C69.5829 74.332 69.5581 74.3205 69.5325 74.3126C69.4317 74.2833 69.3089 74.3285 69.2293 74.4321C69.1816 74.495 69.1577 74.5685 69.1577 74.6375C69.1586 74.7119 69.1869 74.7818 69.2417 74.827Z" fill="#F4EDE5"/>
<path d="M71.1837 68.9583C71.2066 68.976 71.2349 68.9884 71.2641 68.999C71.3896 69.0388 71.5593 69.0078 71.6513 68.8936C71.5982 68.8148 71.5116 68.7528 71.4259 68.6917C71.166 68.5093 70.9167 68.3022 70.6692 68.0914C70.6135 68.1339 70.557 68.1906 70.5463 68.2242C70.541 68.242 70.5384 68.2597 70.5384 68.2791C70.5384 68.4049 70.6409 68.5722 70.793 68.6793L71.1837 68.9583Z" fill="#F4EDE5"/>
<path d="M63.3035 13.2913C63.4856 12.9965 63.9081 12.9363 64.2316 13.062C64.5542 13.1877 64.7991 13.4525 65.0324 13.7092C65.2941 13.9952 65.5637 14.2963 65.668 14.6699C65.6927 14.7576 65.7051 14.8497 65.7051 14.9418C65.7051 15.2446 65.5734 15.5474 65.3056 15.6731C64.8636 15.8812 64.3704 15.5261 64.0301 15.1737C63.7755 14.9117 63.5333 14.6372 63.3052 14.3512L63.3035 13.2913Z" fill="#F4DECC"/>
<path d="M62.8942 20.5031L65.3453 15.7422C64.8556 14.7053 64.6682 13.982 63.2283 13.2355L56.6554 15.6891L62.8942 20.5031Z" fill="#0E2B64"/>
<path d="M62.7821 69.3857L65.8437 65.8912L64.612 64.8084L61.5504 68.3029L62.7821 69.3857Z" fill="white"/>
<path d="M39.8925 43.3756L48.3765 44.0716C55.1881 52.044 65.3241 64.9172 65.3241 64.9172L61.7318 69.0185C52.7033 60.5184 40.1321 49.8109 39.8925 43.3756Z" fill="#0E2B64"/>
<path d="M58.3534 33.6305C55.7007 32.166 53.9117 30.1516 53.9108 28.7748C53.9108 28.5455 53.9611 28.333 54.0646 28.1444C54.7912 26.8233 57.8902 27.1376 60.9866 28.8465C64.0813 30.5563 65.2746 34.3335 65.2746 34.3335C65.2746 34.3335 61.4489 35.3394 58.3534 33.6305Z" fill="#1D1D1B"/>
<path d="M53.0118 41.9855C50.817 40.2261 49.4354 38.1268 49.4354 36.7491C49.4354 36.3949 49.5265 36.0876 49.7192 35.8468C50.6597 34.6683 53.6597 35.5068 56.4194 37.7195C59.1799 39.9322 59.7129 43.8591 59.7129 43.8591C59.7129 43.8591 55.7714 44.1973 53.0118 41.9855Z" fill="#1D1D1B"/>
<path d="M41.2114 46.6207C40.3195 46.0372 39.8536 44.5568 39.8536 42.5088C39.8536 38.5438 41.5994 32.4583 45.3747 26.6676C51.0981 17.8885 59.3195 13.1143 61.9386 14.8276C62.7297 15.3447 63.1178 16.525 63.1178 18.163C63.1178 21.9473 61.0406 28.1754 57.0452 34.3035C51.3217 43.0825 43.8296 48.3331 41.2114 46.6207Z" fill="#134294"/>
<path d="M57.6339 20.4739C60.5836 24.3751 62.3302 27.2484 62.3302 29.7931C62.3302 30.7883 62.0633 31.7322 61.4985 32.6681C60.6154 34.1273 58.9103 34.1565 57.8125 35.6484C56.7146 37.1404 57.1177 39.2752 55.6831 41.0115C52.2039 45.2208 46.9684 42.3688 46.9684 42.3688L43.6705 33.9918L57.6339 20.4739Z" fill="#134294"/>
<path d="M44.8187 24.4902C39.5337 21.0751 37.8639 18.2568 32.7283 26.9446C36.6158 24.5097 40.2514 25.86 42.6539 27.5104L44.8187 24.4902Z" fill="black"/>
<path d="M45.7981 37.143C43.1817 35.2615 41.7426 32.4184 41.7426 29.7045C41.7426 28.2471 42.1581 26.8269 43.0278 25.613C45.5196 22.1377 50.7994 21.6648 54.8204 24.5566C57.4368 26.4382 58.8758 29.2804 58.8758 31.9951C58.8758 33.4526 58.4613 34.8728 57.5906 36.0876C55.0997 39.562 49.82 40.0348 45.7981 37.143Z" fill="#F4DECC"/>
<path d="M45.7981 37.143C43.1817 35.2615 41.7426 32.4184 41.7426 29.7045C41.7426 28.2471 42.1581 26.8269 43.0278 25.613C45.5196 22.1377 50.7994 21.6648 54.8204 24.5566C56.6863 25.899 57.9539 27.7291 58.5267 29.6532C56.834 32.1191 55.8139 31.9863 54.4792 33.8492C53.0737 35.8105 52.2419 37.8903 51.4376 39.037C49.5433 39.0246 47.5509 38.4039 45.7981 37.143Z" fill="black"/>
<path d="M57.6843 35.235C57.6843 35.235 58.8104 36.2355 58.8104 36.7659C58.8104 36.8261 58.7954 36.8819 58.7618 36.9279C58.44 37.3777 56.8154 36.4463 56.8154 36.4463L57.6843 35.235Z" fill="#F4DECC"/>
<path d="M41.6975 27.3405C41.6427 27.3015 41.6153 27.2369 41.6153 27.1669C41.6153 27.1076 41.6347 27.043 41.6754 26.9872L43.9966 23.7483C44.085 23.6252 44.237 23.5836 44.3378 23.6553C44.3926 23.6943 44.4191 23.758 44.4191 23.8288C44.4191 23.8882 44.3997 23.9519 44.359 24.0095L42.0378 27.2475C41.9503 27.3706 41.7983 27.4122 41.6975 27.3405Z" fill="#F8B121"/>
<path d="M41.3537 27.0642C41.3024 27.027 41.2759 26.965 41.2759 26.8969C41.2759 26.8375 41.2962 26.772 41.3378 26.7145L43.659 23.4756C43.7465 23.3525 43.8976 23.3091 43.9948 23.3799C44.047 23.4171 44.0735 23.4791 44.0735 23.5473C44.0735 23.6066 44.0532 23.6721 44.0116 23.7297L41.6904 26.9686C41.602 27.0908 41.4518 27.1342 41.3537 27.0642Z" fill="#F8B121"/>
<path d="M71.478 82.1627C71.4948 81.5952 71.1757 81.071 70.7965 80.6478C70.4182 80.2245 69.6527 79.7482 69.3159 79.2922C68.9111 78.7414 68.8271 78.3766 68.6114 77.7267C68.3843 77.0423 68.2755 76.2897 68.0484 75.6052C67.9945 75.4423 67.9423 75.275 68.0475 75.1395C68.2013 74.9394 68.584 74.9146 68.7865 75.0651C68.7865 75.0651 68.7865 75.066 68.7873 75.066C69.536 75.6265 69.689 76.7297 69.7941 77.5647C69.7924 77.5488 69.2832 71.9803 69.2461 71.6049C69.2081 71.2232 69.7853 71.0479 70.0514 71.2463C70.1097 71.2896 70.153 71.3507 70.1716 71.4322C70.4279 72.547 70.8001 74.123 71.0104 75.2466C70.1857 70.6902 70.153 71.1834 70.1283 70.7681C70.1079 70.4104 70.6728 70.2785 70.9318 70.4697C70.9768 70.5034 71.0131 70.5477 71.0343 70.6017C71.1854 70.9797 71.1978 70.7283 72.3063 75.02C71.3127 71.024 71.3401 71.2507 71.2871 70.8947C71.2332 70.5397 71.8051 70.4148 72.0331 70.584C72.0667 70.6079 72.0924 70.6397 72.1083 70.6769C72.2188 70.9479 72.3575 70.9248 73.4651 75.1156C73.2176 74.2284 72.6819 71.8793 72.7562 71.6527C72.8578 71.3401 73.1787 71.403 73.2883 71.4844C73.2972 71.4897 73.3033 71.4959 73.3087 71.5021C73.877 72.1078 74.2385 74.1195 74.5462 74.6932C75.2489 76.0046 75.3046 76.0426 75.3108 77.5337C75.3125 78.2305 74.943 78.7016 74.8485 79.3232C74.7088 80.2352 75.21 80.5185 75.2506 81.7767L71.478 82.1627Z" fill="#EBC09B"/>
<path d="M70.1777 71.8085L70.0867 71.4172C70.0787 71.3835 70.0637 71.3534 70.0425 71.3269C70.0283 71.3083 70.0107 71.2923 69.9912 71.2782C69.9064 71.2144 69.7773 71.1861 69.6438 71.2135C69.4361 71.2551 69.2947 71.4145 69.3309 71.5677L69.422 71.9591C69.4299 71.9918 69.445 72.0219 69.4671 72.0494C69.4812 72.0671 69.4989 72.083 69.5183 72.0981C69.6032 72.1609 69.7331 72.1893 69.8657 72.1627C70.0725 72.1211 70.214 71.9617 70.1777 71.8085Z" fill="#F4DECC"/>
<path d="M71.1006 71.0604L70.9839 70.662C70.9742 70.631 70.9591 70.6017 70.9361 70.5761C70.9238 70.5601 70.9087 70.5468 70.8911 70.5336C70.7991 70.4672 70.6595 70.4415 70.5198 70.4787C70.3103 70.5345 70.1751 70.7089 70.2219 70.8647L70.3386 71.2631C70.3483 71.295 70.3634 71.3234 70.3855 71.349C70.3987 71.365 70.4137 71.3783 70.4305 71.3915C70.5225 71.4588 70.663 71.4836 70.8036 71.4464C71.0131 71.3898 71.1465 71.2162 71.1006 71.0604Z" fill="#F4DECC"/>
<path d="M72.1675 71.0851L72.0438 70.7221C72.0305 70.684 72.0067 70.6522 71.9757 70.6256C71.9722 70.622 71.9678 70.6185 71.9633 70.6158C71.8767 70.5512 71.7415 70.5308 71.6098 70.5725C71.418 70.6327 71.3013 70.7982 71.3499 70.939L71.4736 71.3021C71.4878 71.3401 71.5099 71.3729 71.5408 71.3986C71.5452 71.4021 71.5497 71.4065 71.5541 71.4092C71.6407 71.4729 71.776 71.4933 71.9085 71.4517C72.0986 71.3915 72.2162 71.2259 72.1675 71.0851Z" fill="#F4DECC"/>
<path d="M73.4509 71.9795L73.3634 71.6412C73.3555 71.6138 73.344 71.589 73.3281 71.5677C73.3148 71.5509 73.2998 71.5359 73.2812 71.5226C73.214 71.4721 73.1142 71.4544 73.0134 71.4827C72.8543 71.5288 72.7526 71.674 72.7871 71.8068L72.8755 72.145C72.8826 72.1725 72.8941 72.1981 72.9109 72.2185C72.9241 72.2362 72.9391 72.2495 72.9568 72.2637C73.0258 72.3141 73.1248 72.3327 73.2264 72.3035C73.3829 72.2584 73.4854 72.1131 73.4509 71.9795Z" fill="#F4DECC"/>
<path d="M68.4028 75.5371C68.3948 75.5087 68.3807 75.4813 68.3621 75.4556C68.3409 75.4264 68.3135 75.3998 68.2825 75.3759C68.2012 75.3157 68.0907 75.2829 67.9882 75.3086C67.9838 75.4034 68.0165 75.5061 68.0492 75.6053C68.1491 75.9072 68.2269 76.2224 68.3011 76.5394C68.3718 76.5385 68.4505 76.5261 68.4788 76.5048C68.5848 76.4269 68.6176 76.1967 68.5513 75.9931L68.4028 75.5371Z" fill="#F4DECC"/>
<path d="M75.3146 80.1315L70.778 81.1139L71.1244 82.7192L75.661 81.7368L75.3146 80.1315Z" fill="white"/>
<path d="M78.2746 114.899L71.8714 109.28C71.1395 98.8115 70.6489 82.4239 70.6489 82.4239L75.9728 81.2711C78.1712 93.4856 81.9067 109.586 78.2746 114.899Z" fill="#383838"/>
<g opacity="0.1">
<g opacity="0.1">
<path opacity="0.1" d="M72.3699 109.857C74.6018 116.053 70.8769 123.076 64.0495 125.544C59.5511 127.17 54.8283 126.413 51.4915 123.936C49.7634 122.653 48.4074 120.908 47.6464 118.795C45.4144 112.6 49.1393 105.577 55.9677 103.109C60.466 101.483 65.1889 102.241 68.5257 104.717C70.252 105.999 71.6088 107.744 72.3699 109.857Z" fill="black"/>
</g>
</g>
<path d="M65.591 115.275L63.5049 115.625C63.0046 115.708 62.5123 115.569 62.1119 115.271C61.6637 114.939 61.3305 114.41 61.2253 113.78C61.2253 113.78 61.0777 111.159 60.9919 108.721C60.9018 106.15 61.4905 104.802 62.6396 104.579C63.0736 104.495 63.4793 104.607 63.8567 104.888C64.5612 105.412 65.1711 106.522 65.6944 108.036C66.497 110.36 67.1476 112.788 67.1476 112.788C67.3483 113.984 66.6517 115.098 65.591 115.275Z" fill="black"/>
<path d="M58.1245 117.888L56.0694 118.996C55.3189 119.399 54.4306 119.301 53.7773 118.816C53.5228 118.626 53.3036 118.379 53.1427 118.078C53.1427 118.078 52.1872 115.632 51.351 113.336C50.4697 110.914 50.6659 109.409 51.7885 108.771C52.5434 108.341 53.3955 108.54 54.3033 109.214C54.8557 109.624 55.4285 110.21 56.0137 110.937C57.5588 112.861 58.9757 114.937 58.9757 114.937C59.5485 116.005 59.1676 117.326 58.1245 117.888Z" fill="black"/>
<path d="M41.5491 124.891C41.3316 124.978 41.0903 124.911 40.8994 124.77C40.8074 124.702 40.7279 124.616 40.6678 124.521C40.483 124.228 40.4433 123.869 40.4079 123.523C40.369 123.137 40.3319 122.734 40.4689 122.372C40.6068 122.011 40.978 121.706 41.3564 121.781C41.4554 121.802 41.5411 121.842 41.6162 121.898C41.907 122.113 42.0335 122.559 42.0847 122.944C42.1325 123.307 42.1643 123.672 42.1784 124.037L41.5491 124.891Z" fill="#F7BA8E"/>
<path d="M46.1649 119.341L41.3652 121.704C41.1424 122.829 40.8631 123.522 41.5756 124.98L48.3155 126.929L46.1649 119.341Z" fill="#383838"/>
<path d="M79.0957 111.593C80.1609 114.55 73.6658 121.468 63.8577 125.014C55.4153 128.065 47.269 127.623 44.4846 125.556C44.0338 125.221 43.7235 124.844 43.575 124.432C42.5099 121.475 49.3011 115.38 59.1101 111.834C67.64 108.751 75.644 108.61 78.2852 110.572C78.6821 110.867 78.9579 111.207 79.0957 111.593Z" fill="#424242"/>
<path d="M58.3968 111.774C58.3968 111.774 57.9221 109.864 58.4684 109.667C58.5824 109.625 58.7088 109.67 58.8396 109.766C59.3328 110.132 59.8667 111.243 59.8667 111.243L58.3968 111.774Z" fill="#F7BA8E"/>
<path d="M69.8162 117.201C70.3288 118.624 70.6983 120.093 70.6055 121.484C70.5852 121.797 70.5366 122.988 70.4826 123.52C70.3916 123.125 70.3129 122.705 70.2175 122.635C70.213 122.631 70.2086 122.629 70.2042 122.627C69.6517 125.424 68.081 128.224 65.4283 128.989C63.017 129.683 60.5985 129.02 59.0296 128.446C59.6925 128.464 59.7084 128.396 60.3369 128.203C59.331 128.211 58.4152 127.87 57.6073 127.27C55.1853 125.472 53.7392 121.345 53.7905 117.304C53.7905 117.296 53.7905 117.293 53.7914 117.293C53.8038 117.304 53.8948 117.879 54.3341 118.221C53.8851 116.855 54.1732 113.776 55.8209 112.057C55.6609 112.764 55.5345 112.884 55.5716 113.504C55.9614 112.678 56.5272 111.409 57.785 110.548C57.7487 111.16 57.7054 111.039 57.6948 111.723C58.0696 111.533 58.5045 110.488 61.2898 109.909C60.5128 110.49 60.2962 110.532 60.2105 110.87C62.3204 110.514 65.6758 111.322 67.4366 112.57C66.7215 112.486 66.2194 112.475 66.3264 112.556C67.8141 113.692 69.0984 115.21 69.8162 117.201Z" fill="#FDF4CB"/>
</svg>
