<svg width="210" height="211" viewBox="0 0 210 211" fill="none" xmlns="http://www.w3.org/2000/svg">
<ellipse cx="105" cy="105.055" rx="105" ry="105.055" fill="#3D79CF"/>
<g clip-path="url(#clip0)">
<path d="M112.152 147.735C108.626 149.2 104.664 149.211 101.13 147.765L26.7187 117.314C17.1896 113.414 14.6759 101.086 21.9175 93.7672L96.4795 18.4079C102.095 12.7325 111.248 12.6838 116.923 18.2992L192.194 92.7738C199.537 100.038 197.112 112.437 187.573 116.4L112.152 147.735Z" fill="#95911D"/>
<path d="M122.315 55.4241H121.033V53.7278C121.033 53.3553 120.731 53.0535 120.359 53.0535H118.77V39.5535H120.562C120.563 39.5536 120.563 39.5536 120.564 39.5535C120.936 39.5535 121.238 39.2517 121.238 38.8792C121.238 38.6464 121.12 38.4412 120.941 38.32L107.135 27.7855C106.893 27.6013 106.559 27.6013 106.317 27.7855L92.4805 38.3431C92.2505 38.5186 92.1582 38.821 92.2507 39.0951C92.3433 39.369 92.6004 39.5535 92.8895 39.5535H94.6813V53.0535H93.093C92.7205 53.0535 92.4187 53.3553 92.4187 53.7278V55.4241H91.1369C90.7646 55.4241 90.4626 55.7259 90.4626 56.0984V58.4691C90.4626 58.8415 90.7646 59.1434 91.1369 59.1434H122.315C122.687 59.1434 122.989 58.8415 122.989 58.4691V56.0984C122.989 55.726 122.687 55.4241 122.315 55.4241ZM106.726 29.1698L118.567 38.2049H94.885L106.726 29.1698ZM117.422 39.5535V53.0535H116.524V39.5535H117.422ZM115.176 39.5535V53.0535H114.278V39.5535H115.176ZM112.93 39.5535V53.0535H109.646V39.5535H112.93ZM108.298 39.5535V53.0535H107.4V39.5535H108.298ZM106.052 39.5535V53.0535H105.154V39.5535H106.052ZM103.806 39.5535V53.0535H100.522V39.5535H103.806ZM99.1734 39.5535V53.0535H98.276V39.5535H99.1734ZM96.9273 39.5535V53.0535H96.03V39.5535H96.9273ZM93.7673 54.4021H119.685V55.4241H93.7673V54.4021ZM121.64 57.7949H91.8112V56.7727H121.64V57.7949Z" fill="#CBC753"/>
<path d="M113.977 37.3817C113.976 37.3816 113.976 37.3816 113.975 37.3817H100.284C99.9947 37.3817 99.7377 37.1972 99.6451 36.9233C99.5526 36.6493 99.645 36.3468 99.8749 36.1713L106.721 30.9477C106.962 30.7635 107.297 30.7635 107.539 30.9477L114.354 36.1482C114.534 36.2694 114.652 36.4747 114.652 36.7074C114.651 37.0799 114.35 37.3817 113.977 37.3817ZM102.279 36.0331H111.98L107.13 32.332L102.279 36.0331Z" fill="#CBC753"/>
<path d="M112.723 170.9C109.197 172.365 105.235 172.376 101.701 170.93L46.2344 148.231C36.7053 144.332 34.1916 132.004 41.4332 124.684L97.0507 68.4722C102.666 62.7968 111.819 62.7481 117.494 68.3635L173.618 123.894C180.961 131.158 178.536 143.557 168.997 147.52L112.723 170.9Z" fill="#994BBE"/>
<path d="M101.633 147.78C105.167 149.226 109.129 149.215 112.655 147.75L172.706 122.8L117.495 68.1729C111.819 62.5575 102.666 62.6062 97.0509 68.2816L42.3837 123.533L101.633 147.78Z" fill="#530578"/>
<path d="M127.234 106.316L124.585 99.2195V88.1755C124.581 87.93 124.462 87.7006 124.263 87.5573L106.795 74.9907C106.794 74.9901 106.77 74.9737 106.765 74.9705C106.504 74.7918 106.148 74.7848 105.876 74.9805L88.3947 87.5572C88.1953 87.7006 88.0759 87.9299 88.0727 88.1754C88.0694 88.4209 88.1827 88.6534 88.3782 88.802L97.2485 95.5489V98.1855C97.2485 100.913 101.923 102.385 106.321 102.385C110.726 102.385 115.409 100.913 115.409 98.1855V95.5489L123.036 89.7474V99.2194L120.387 106.316C120.238 106.717 120.441 107.163 120.842 107.312C120.931 107.346 121.022 107.361 121.112 107.361C121.426 107.361 121.721 107.169 121.838 106.858L123.036 103.647V106.587C123.036 107.015 123.383 107.361 123.81 107.361C124.238 107.361 124.585 107.015 124.585 106.587V103.648L125.783 106.858C125.899 107.169 126.194 107.361 126.508 107.361C126.598 107.361 126.69 107.346 126.779 107.312C127.179 107.163 127.383 106.717 127.234 106.316ZM113.86 98.1855C113.86 99.2662 110.923 100.836 106.321 100.836C101.659 100.836 98.7971 99.2923 98.7971 98.1855V96.893C99.6139 94.9653 102.816 93.5259 106.336 93.5259C109.851 93.5259 113.047 94.9652 113.86 96.8925V98.1855ZM113.86 94.4087C112.151 92.9276 109.363 91.9773 106.336 91.9773C103.304 91.9773 100.509 92.9289 98.7971 94.4117V92.6066C98.7971 90.243 102.25 88.246 106.336 88.246C110.415 88.246 113.86 90.243 113.86 92.6066V94.4087ZM115.409 93.6034V92.6067C115.409 90.9571 114.415 89.4337 112.611 88.3174C110.923 87.2728 108.695 86.6976 106.336 86.6976C103.977 86.6976 101.746 87.2727 100.054 88.3171C98.2449 89.4338 97.2484 90.9573 97.2484 92.6068V93.6035L90.1486 88.2032L106.329 76.5626L122.509 88.2031L115.409 93.6034Z" fill="#B264D7"/>
<path d="M112.248 194.993C108.722 196.458 104.76 196.469 101.227 195.023L60.1409 178.209C50.6118 174.31 48.0981 161.982 55.3397 154.663L96.5758 112.986C102.191 107.31 111.344 107.261 117.02 112.877L158.608 154.026C165.951 161.29 163.526 173.689 153.987 177.652L112.248 194.993Z" fill="#2F9BD6"/>
<path fill-rule="evenodd" clip-rule="evenodd" d="M101.944 170.929C105.478 172.376 109.44 172.365 112.966 170.9L157.292 152.483L117.262 112.877C111.587 107.261 102.434 107.31 96.8185 112.986L57.4877 152.737L101.944 170.929Z" fill="#004E89"/>
<path d="M121.104 132.795H119.842V131.231C119.842 130.924 119.658 130.649 119.379 130.542C113.272 128.186 108.933 127.703 106.482 129.107C106.085 129.334 105.784 129.587 105.556 129.834C105.327 129.587 105.026 129.334 104.629 129.107C102.178 127.703 97.8384 128.186 91.7321 130.542C91.4531 130.65 91.2683 130.924 91.2683 131.231V132.795H90.0064C89.6119 132.795 89.2922 133.124 89.2922 133.53V154.361C89.2922 154.768 89.6119 155.097 90.0064 155.097H102.84V155.777C102.84 156.183 103.159 156.512 103.554 156.512H107.557C107.951 156.512 108.271 156.183 108.271 155.777V155.097H121.104C121.499 155.097 121.819 154.768 121.819 154.361V133.53C121.818 133.124 121.499 132.795 121.104 132.795ZM106.27 131.34C106.328 131.182 106.552 130.724 107.254 130.349C108.411 129.73 111.388 129.108 118.414 131.743V150.471C112.814 148.432 108.802 148.068 106.482 149.396C106.408 149.439 106.337 149.482 106.27 149.526L106.27 131.34ZM92.6968 131.743C99.7228 129.108 102.7 129.73 103.857 130.349C104.559 130.725 104.782 131.183 104.841 131.34V149.527C104.774 149.483 104.703 149.439 104.629 149.397C102.309 148.068 98.2956 148.433 92.6967 150.472L92.6968 131.743ZM102.84 153.496V153.626H90.7206V134.266H91.2684V151.521C91.2684 151.927 91.5881 152.256 91.9826 152.256C92.0736 152.256 92.1602 152.238 92.2403 152.206C92.24 152.207 92.2398 152.207 92.2395 152.207C99.5942 149.371 102.675 150.007 103.857 150.639C104.271 150.861 104.519 151.111 104.664 151.311C103.603 151.626 102.84 152.486 102.84 153.496ZM106.843 155.041H104.268V153.496C104.268 153.098 104.797 152.654 105.555 152.654C106.314 152.654 106.843 153.098 106.843 153.496L106.843 155.041ZM120.39 153.626H108.271V153.496C108.271 152.486 107.507 151.627 106.446 151.312C106.592 151.111 106.839 150.861 107.254 150.639C108.435 150.007 111.515 149.371 118.867 152.206C118.87 152.207 119.012 152.257 119.128 152.257C119.522 152.256 119.842 151.927 119.842 151.521V134.266H120.39L120.39 153.626Z" fill="#2F9BD6"/>
</g>
<defs>
<clipPath id="clip0">
<rect width="206" height="206" fill="white" transform="translate(4 4)"/>
</clipPath>
</defs>
</svg>
