<?xml version="1.0" standalone="no"?>
<!DOCTYPE svg PUBLIC "-//W3C//DTD SVG 1.1//EN" "http://www.w3.org/Graphics/SVG/1.1/DTD/svg11.dtd" >
<svg xmlns="http://www.w3.org/2000/svg">
<metadata>Generated by IcoMoon</metadata>
<defs>
<font id="font-icons" horiz-adv-x="1024">
<font-face units-per-em="1024" ascent="960" descent="-64" />
<missing-glyph horiz-adv-x="1024" />
<glyph unicode="&#x20;" horiz-adv-x="512" d="" />
<glyph unicode="&#xe900;" glyph-name="icon-aac" d="M350.502 311.467l-17.668 57.999h-88.833l-17.667-57.999h-55.667l86 244.668h63.167l86.333-244.668h-55.665zM320.5 412.802c-16.333 52.555-25.556 82.275-27.667 89.167-2 6.888-3.444 12.332-4.333 16.333-3.667-14.223-14.167-49.391-31.5-105.499h63.5zM586.168 311.467l-17.667 57.999h-88.835l-17.664-57.999h-55.668l85.999 244.668h63.167l86.333-244.668h-55.665zM556.165 412.802c-16.333 52.555-25.556 82.275-27.665 89.167-2 6.888-3.444 12.332-4.335 16.333-3.666-14.223-14.165-49.391-31.498-105.499h63.498zM776.168 515.632c-19.446 0-34.502-7.332-45.169-21.999-10.667-14.554-15.998-34.888-15.998-61 0-54.333 20.388-81.5 61.167-81.5 17.111 0 37.833 4.277 62.164 12.834v-43.332c-19.999-8.335-42.332-12.503-66.997-12.503-35.447 0-62.556 10.725-81.336 32.167-18.777 21.555-28.167 52.446-28.167 92.669 0 25.334 4.611 47.5 13.834 66.499 9.223 19.111 22.446 33.724 39.666 43.834 17.333 10.223 37.612 15.333 60.836 15.333 23.665 0 47.442-5.721 71.332-17.166l-16.667-42.001c-9.11 4.335-18.278 8.11-27.498 11.332-9.223 3.222-18.278 4.833-27.167 4.833zM0 960v34.133h-34.133v-34.133h34.133zM1024 960h34.133v34.133h-34.133v-34.133zM1024-64v-34.133h34.133v34.133h-34.133zM0-64h-34.133v-34.133h34.133v34.133zM0 925.867h1024v68.267h-1024v-68.267zM989.867 960v-1024h68.267v1024h-68.267zM1024-29.867h-1024v-68.267h1024v68.267zM34.133-64v1024h-68.267v-1024h68.267z" />
<glyph unicode="&#xe901;" glyph-name="icon-doc" d="M643.628 592.323h45.558l-52.545-232.994-68.304 327.605h-109.773l-79.445-327.605-59.535 327.605h-114.784l116.498-527.305h112.147l78.589 311.846 70.281-311.846h103.376l133.509 527.305h-175.572v-94.611zM0 960v34.133h-34.133v-34.133h34.133zM1024 960h34.133v34.133h-34.133v-34.133zM1024-64v-34.133h34.133v34.133h-34.133zM0-64h-34.133v-34.133h34.133v34.133zM0 925.867h1024v68.267h-1024v-68.267zM989.867 960v-1024h68.267v1024h-68.267zM1024-29.867h-1024v-68.267h1024v68.267zM34.133-64v1024h-68.267v-1024h68.267z" />
<glyph unicode="&#xe902;" glyph-name="icon-epub" d="M512 254.928l-193.070 193.085 193.070 193.054 64.362-64.351-128.724-128.703 64.355-64.362 193.072 193.055-168.189 168.184c-13.732 13.746-36.007 13.746-49.753 0l-272.024-272.025c-13.733-13.732-13.733-36.007 0-49.753l272.024-272.015c13.745-13.739 36.021-13.739 49.753 0l272.022 272.015c13.735 13.745 13.735 36.021 0 49.753l-39.485 39.479-257.413-257.417zM0 960v34.133h-34.133v-34.133h34.133zM1024 960h34.133v34.133h-34.133v-34.133zM1024-64v-34.133h34.133v34.133h-34.133zM0-64h-34.133v-34.133h34.133v34.133zM0 925.867h1024v68.267h-1024v-68.267zM989.867 960v-1024h68.267v1024h-68.267zM1024-29.867h-1024v-68.267h1024v68.267zM34.133-64v1024h-68.267v-1024h68.267z" />
<glyph unicode="&#xe903;" glyph-name="icon-arrow-down" d="M776.182 576.536c11.848-10.663 11.848-27.955 0-38.618l-242.729-218.453c-11.848-10.663-31.058-10.663-42.906 0l-242.727 218.453c-11.849 10.663-11.849 27.955 0 38.618s31.059 10.663 42.908 0l221.272-199.144 221.273 199.144c11.848 10.663 31.058 10.663 42.909 0z" />
<glyph unicode="&#xe904;" glyph-name="icon-arrow-left" d="M623.968 712.18c9.998-11.849 9.998-31.060 0-42.908l-186.696-221.272 186.696-221.273c9.998-11.848 9.998-31.058 0-42.909-9.998-11.848-26.204-11.848-36.202 0l-204.8 242.729c-9.998 11.848-9.998 31.058 0 42.906l204.8 242.727c9.998 11.849 26.204 11.849 36.202 0z" />
<glyph unicode="&#xe905;" glyph-name="icon-arrow-long-down" d="M503.467 174.933c-14.138 0-25.6 11.462-25.6 25.6v477.867c0 14.138 11.462 25.6 25.6 25.6s25.6-11.462 25.6-25.6v-477.867c0-14.138-11.462-25.6-25.6-25.6zM246.431 457.568c9.997 9.998 26.207 9.998 36.204 0l220.831-220.829 220.832 220.829c9.998 9.998 26.204 9.998 36.202 0s9.998-26.204 0-36.202l-238.933-238.933c-9.998-9.998-26.204-9.998-36.202 0l-238.934 238.933c-9.997 9.998-9.997 26.204 0 36.202z" />
<glyph unicode="&#xe906;" glyph-name="icon-arrow-long-left" d="M238.933 456.533c0 14.138 11.462 25.6 25.6 25.6h477.867c14.138 0 25.6-11.462 25.6-25.6s-11.462-25.6-25.6-25.6h-477.867c-14.138 0-25.6 11.462-25.6 25.6zM521.568 713.569c9.998-9.997 9.998-26.207 0-36.204l-220.83-220.831 220.83-220.832c9.998-9.998 9.998-26.204 0-36.202s-26.204-9.998-36.202 0l-238.934 238.933c-9.997 9.998-9.997 26.204 0 36.202l238.934 238.934c9.998 9.997 26.204 9.997 36.202 0z" />
<glyph unicode="&#xe907;" glyph-name="icon-arrow-long-right" d="M750.933 473.6c0-14.138-11.462-25.6-25.6-25.6h-477.867c-14.138 0-25.6 11.462-25.6 25.6s11.462 25.6 25.6 25.6h477.867c14.138 0 25.6-11.462 25.6-25.6zM468.299 216.566c-9.998 9.998-9.998 26.204 0 36.202l220.829 220.832-220.829 220.831c-9.998 9.997-9.998 26.207 0 36.204s26.204 9.997 36.202 0l238.933-238.934c9.998-9.998 9.998-26.204 0-36.202l-238.933-238.933c-9.998-9.998-26.204-9.998-36.202 0z" />
<glyph unicode="&#xe908;" glyph-name="icon-arrow-right" d="M383.464 712.18c10.663 11.849 27.955 11.849 38.618 0l218.453-242.727c10.663-11.848 10.663-31.058 0-42.906l-218.453-242.729c-10.663-11.848-27.955-11.848-38.618 0-10.663 11.851-10.663 31.061 0 42.909l199.144 221.273-199.144 221.272c-10.663 11.849-10.663 31.060 0 42.908z" />
<glyph unicode="&#xe909;" glyph-name="icon-arrow-start" d="M623.029 688.97c-9.373-9.372-9.373-24.568 0-33.941l183.030-183.030h-489.083c-10.657 41.407-48.243 72.001-92.975 72.001-53.019 0-96-42.981-96-96s42.981-96 96-96c44.732 0 82.319 30.594 92.975 72.001h489.083l-183.030-183.030c-9.373-9.373-9.373-24.569 0-33.942s24.569-9.373 33.942 0l218.726 218.73c8.779 3.567 14.971 12.182 14.971 22.241s-6.192 18.674-14.971 22.241l-218.726 218.729c-9.373 9.373-24.569 9.373-33.942 0z" />
<glyph unicode="&#xe90a;" glyph-name="icon-arrow-up" d="M247.82 319.464c-11.849 10.663-11.849 27.955 0 38.618l242.727 218.453c11.848 10.663 31.058 10.663 42.906 0l242.729-218.453c11.848-10.663 11.848-27.955 0-38.618-11.851-10.663-31.061-10.663-42.909 0l-221.273 199.144-221.272-199.144c-11.849-10.663-31.060-10.663-42.908 0z" />
<glyph unicode="&#xe90b;" glyph-name="icon-building" d="M512 686.933v-109.227h273.067v-382.293h-546.133v491.52h273.067zM293.547 250.027h54.613v54.613h-54.613v-54.613zM348.16 359.253v54.613h-54.613v-54.613h54.613zM293.547 468.48h54.613v54.613h-54.613v-54.613zM348.16 577.703v54.614h-54.613v-54.614h54.613zM402.773 250.027h54.613v54.613h-54.613v-54.613zM457.387 359.253v54.613h-54.613v-54.613h54.613zM402.773 468.48h54.613v54.613h-54.613v-54.613zM457.387 577.703v54.614h-54.613v-54.614h54.613zM730.453 250.027v273.067h-218.453v-54.613h54.613v-54.613h-54.613v-54.613h54.613v-54.613h-54.613v-54.613h218.453zM675.84 468.48h-54.613v-54.613h54.613v54.613zM621.227 359.253h54.613v-54.613h-54.613v54.613z" />
<glyph unicode="&#xe90c;" glyph-name="icon-clear" d="M785.067 423.619c0-69.833-27.744-136.81-77.124-186.191s-116.354-77.124-186.191-77.124c-69.926 0-136.922 27.501-187.245 76.070l43.885 43.885c18.425-19.497 40.656-35.011 65.314-45.578s51.22-15.964 78.046-15.862c182.566 0 273.848 220.6 144.824 349.624s-349.624 37.448-349.624-144.824h87.77l-117.027-117.030h-2.926l-114.103 117.030h87.771c0 69.837 27.742 136.81 77.123 186.191s116.357 77.124 186.191 77.124c69.837 0 136.81-27.742 186.191-77.124 49.381-49.381 77.124-116.354 77.124-186.191z" />
<glyph unicode="&#xe90d;" glyph-name="icon-close" d="M733.273 712.18c11.848 11.849 31.058 11.849 42.909 0 11.848-11.849 11.848-31.060 0-42.908l-221.273-221.272 221.273-221.273c11.848-11.848 11.848-31.058 0-42.909-11.851-11.848-31.061-11.848-42.909 0l-221.273 221.273-221.272-221.273c-11.849-11.848-31.060-11.848-42.908 0-11.849 11.851-11.849 31.061 0 42.909l221.271 221.273-221.271 221.272c-11.849 11.849-11.849 31.060 0 42.908s31.060 11.849 42.908 0l221.272-221.271 221.273 221.271z" />
<glyph unicode="&#xe90e;" glyph-name="icon-contrast" d="M707.57 508.856c-3.929 12.725-9.124 25.027-15.507 36.717-9.441 17.35-21.313 33.26-35.256 47.251-28.641 28.638-65.133 48.141-104.861 56.042s-80.903 3.844-118.323-11.658c-37.424-15.502-69.407-41.753-91.911-75.429-22.501-33.679-34.512-73.274-34.512-113.78s12.011-80.101 34.512-113.78c22.504-33.676 54.487-59.928 91.911-75.428 37.42-15.503 78.595-19.558 118.323-11.66 39.728 7.902 76.22 27.406 104.861 56.044 13.943 13.991 25.815 29.904 35.256 47.251 6.383 11.691 11.578 23.992 15.507 36.717 12.332 39.636 12.332 82.077 0 121.713zM336.442 448c0 46.558 18.493 91.208 51.415 124.126 32.922 32.922 77.571 51.417 124.129 51.417v-351.087c-46.558 0-91.208 18.497-124.129 51.418-32.922 32.918-51.415 77.568-51.415 124.126z" />
<glyph unicode="&#xe90f;" glyph-name="icon-date" d="M342.921 632.162c-17.536 0-31.752-14.216-31.752-31.754v-355.618c0-17.538 14.216-31.754 31.752-31.754h355.622c17.538 0 31.751 14.217 31.751 31.754v355.618c0 17.538-14.213 31.754-31.751 31.754h-355.622zM273.067 600.409c0 38.581 31.275 69.856 69.854 69.856h355.622c38.581 0 69.854-31.275 69.854-69.856v-355.618c0-38.581-31.273-69.854-69.854-69.854h-355.622c-38.579 0-69.854 31.273-69.854 69.854v355.618zM622.336 721.067c10.52 0 19.050-8.53 19.050-19.051v-101.607c0-10.52-8.53-19.050-19.050-19.050-10.523 0-19.053 8.53-19.053 19.050v101.607c0 10.522 8.53 19.051 19.053 19.051zM419.127 721.067c10.52 0 19.050-8.53 19.050-19.051v-101.607c0-10.52-8.53-19.050-19.050-19.050-10.523 0-19.053 8.53-19.053 19.050v101.607c0 10.522 8.53 19.051 19.053 19.051zM273.067 498.804c0 10.523 8.53 19.053 19.051 19.053h457.228c10.52 0 19.050-8.53 19.050-19.053 0-10.52-8.53-19.050-19.050-19.050h-457.228c-10.522 0-19.051 8.53-19.051 19.050z" />
<glyph unicode="&#xe910;" glyph-name="icon-decrease-font" d="M347.6 381.286l62.775 166.956 62.512-166.956h-125.286zM384 618.667l-145.067-369.261h59.346l29.541 79.128h164.847l29.805-79.128h59.348l-145.067 369.261h-52.753zM687.322 302.159l131.878 133.724-37.188 37.717-68.314-68.577v160.891h-52.753v-160.891l-68.311 68.577-37.192-37.717 131.881-133.724z" />
<glyph unicode="&#xe911;" glyph-name="icon-document" d="M600.518 755.2h-319.937c-11.267-0.298-21.96-5.031-29.757-13.169s-12.068-19.025-11.884-30.294v-550.219c-0.184-11.267 4.087-22.156 11.884-30.293s18.491-12.868 29.757-13.169h462.84c11.264 0.3 21.958 5.031 29.757 13.169 7.796 8.137 12.066 19.026 11.882 30.293v413.46l-184.542 180.221zM593.691 698.54l136.53-134.254h-136.53v134.254zM284.449 163.567v546.123h273.061v-182.040h182.040v-364.083h-455.101z" />
<glyph unicode="&#xe912;" glyph-name="icon-download" d="M259.938 384.983c11.601 0 21.005-9.404 21.005-21.002v-112.029c0-9.284 3.688-18.19 10.254-24.753 6.566-6.567 15.47-10.254 24.755-10.254h392.096c9.284 0 18.19 3.686 24.753 10.254 6.567 6.564 10.254 15.469 10.254 24.753v112.029c0 11.599 9.404 21.002 21.006 21.002s21.006-9.404 21.006-21.002v-112.029c0-20.425-8.113-40.018-22.559-54.46-14.442-14.445-34.034-22.559-54.46-22.559h-392.096c-20.427 0-40.017 8.113-54.46 22.559-14.444 14.442-22.558 34.034-22.558 54.46v112.029c0 11.599 9.404 21.002 21.005 21.002zM357.113 518.868c8.202 8.202 21.501 8.202 29.706 0l125.181-125.184 125.181 125.184c8.202 8.202 21.504 8.202 29.706 0 8.202-8.206 8.202-21.504 0-29.706l-140.035-140.035c-8.202-8.202-21.501-8.202-29.706 0l-140.032 140.035c-8.202 8.202-8.202 21.501 0 29.706zM512 721.067c11.602 0 21.006-9.404 21.006-21.005v-336.081c0-11.602-9.404-21.006-21.006-21.006s-21.006 9.404-21.006 21.006v336.081c0 11.601 9.404 21.005 21.006 21.005z" />
<glyph unicode="&#xe913;" glyph-name="icon-edit" d="M359.96 452.632h242.053v-60.512h-242.053v60.512zM420.475 210.579h-121.028v484.108h211.796v-151.284h151.286v-93.795l60.512 60.512v63.539l-181.538 181.542h-242.055c-16.049 0-31.441-6.375-42.789-17.724s-17.724-26.74-17.724-42.789v-484.108c0-16.049 6.375-31.44 17.724-42.79 11.348-11.346 26.74-17.722 42.789-17.722h121.028v60.512zM359.96 271.094h124.054l27.228 27.232v33.28h-151.282v-60.512zM729.091 422.376c3.028 0 9.076-3.024 12.104-6.052l39.332-39.332c6.052-6.052 6.052-18.156 0-24.207l-30.256-30.256-63.539 63.539 30.256 30.256c3.028 3.028 6.052 6.052 12.104 6.052zM729.091 304.374l-184.566-184.566h-63.539v63.539l184.566 184.566 63.539-63.539z" />
<glyph unicode="&#xe914;" glyph-name="icon-email" d="M70.927 748.105c7.052 23.561 29.037 40.935 54.765 40.935h731.3c25.73 0 47.715-17.376 54.767-40.939l-420.413-294.289-420.419 294.292zM982.685 732.72c-0.44 68.838-56.753 124.88-125.693 124.88h-731.3c-69.209 0-125.692-56.483-125.692-125.693v-548.475c0-69.209 56.483-125.693 125.692-125.693h434.193v68.56h-434.193c-31.345 0-57.133 25.788-57.133 57.132v482.642l403.129-282.191c11.803-8.26 27.511-8.26 39.315 0l403.121 282.186v-276.961h68.56v342.179c0.010 0.477 0.010 0.954 0 1.432zM620.459 165.803c-4.82 4.721-7.526 11.121-7.526 17.794s2.707 13.073 7.526 17.794c4.816 4.717 11.349 7.369 18.162 7.369h297.632l-110.309 107.998c-4.823 4.727-7.533 11.134-7.533 17.818 0 6.68 2.71 13.090 7.533 17.814s11.366 7.38 18.19 7.38c6.82 0 13.363-2.656 18.186-7.38l154.132-150.979c2.393-2.335 4.291-5.113 5.588-8.172 1.294-3.055 1.959-6.332 1.959-9.643s-0.666-6.588-1.959-9.643c-1.297-3.058-3.195-5.837-5.588-8.172l-154.132-150.979c-4.823-4.724-11.366-7.38-18.186-7.38-6.823 0-13.367 2.656-18.19 7.38s-7.533 11.134-7.533 17.814c0 6.683 2.71 13.090 7.533 17.818l110.309 107.998h-297.632c-6.813 0-13.346 2.652-18.162 7.369z" />
<glyph unicode="&#xe915;" glyph-name="icon-external" d="M785.046 694.834c0.273 6.788-2.178 13.667-7.363 18.85-5.181 5.183-12.059 7.637-18.848 7.362-0.358 0.014-0.717 0.021-1.075 0.021h-163.84c-15.080 0-27.307-12.226-27.307-27.307s12.227-27.307 27.307-27.307h100.888l-230.038-230.038c-9.844-9.844-9.844-25.801 0-35.645s25.801-9.844 35.645 0l230.038 230.037v-100.887c0-15.080 12.227-27.307 27.307-27.307s27.307 12.227 27.307 27.307v163.84c0 0.36-0.007 0.718-0.020 1.074zM322.46 592.565c-7.384 0-14.466-2.932-19.687-8.154s-8.155-12.305-8.155-19.688v-306.261c0-7.386 2.933-14.466 8.155-19.688s12.303-8.154 19.687-8.154h306.263c7.383 0 14.466 2.932 19.688 8.154s8.154 12.302 8.154 19.688v167.052c0 15.377 12.465 27.843 27.843 27.843s27.843-12.465 27.843-27.843v-167.052c0-22.153-8.8-43.401-24.467-59.064-15.664-15.664-36.908-24.463-59.061-24.463h-306.263c-22.153 0-43.398 8.8-59.062 24.463s-24.464 36.912-24.464 59.064v306.261c0 22.153 8.8 43.397 24.464 59.062 15.664 15.664 36.909 24.464 59.062 24.464h167.053c15.377 0 27.843-12.465 27.843-27.842s-12.465-27.842-27.843-27.842h-167.053z" />
<glyph unicode="&#xe916;" glyph-name="icon-filter" d="M430.080 247.023l54.613-27.307v179.951c-0.031 7.165-2.874 14.029-7.919 19.115l-176.947 179.405h424.892l-176.674-179.405c-5.045-5.086-7.888-11.95-7.919-19.115l-0.819-211.081 54.613-27.307v227.191l179.678 182.409c7.188 7.291 11.295 17.070 11.469 27.307v27.307c0 7.242-2.877 14.188-7.997 19.309s-12.066 7.998-19.309 7.998h-491.52c-7.242 0-14.188-2.877-19.309-7.998s-7.998-12.067-7.998-19.309v-27.307c0.175-10.237 4.281-20.016 11.469-27.307l179.678-182.409v-141.449z" />
<glyph unicode="&#xe917;" glyph-name="icon-home" d="M495.961 952.726l-414.363-322.282c-8.411-6.542-13.331-16.6-13.331-27.257v-506.443c0-33.58 13.339-65.782 37.083-89.528 23.744-23.743 55.948-37.082 89.527-37.082h644.564c33.58 0 65.785 13.339 89.528 37.082 23.743 23.747 37.082 55.948 37.082 89.528v506.443c0 10.656-4.919 20.715-13.329 27.257l-414.365 322.282c-12.469 9.698-29.928 9.698-42.397 0zM413.57 39.195v391.342h207.179v-391.342h-207.179zM689.811 39.195v425.871c0 19.070-15.459 34.529-34.529 34.529h-276.241c-19.074 0-34.533-15.459-34.533-34.529v-425.871h-149.63c-15.263 0-29.901 6.062-40.694 16.855s-16.856 25.429-16.856 40.694v489.554l379.834 295.427 379.832-295.427v-489.554c0-15.264-6.065-29.901-16.858-40.694s-25.429-16.855-40.694-16.855h-149.63z" />
<glyph unicode="&#xe918;" glyph-name="icon-increase-font" d="M313.468 377.296l62.773 169.762 62.512-169.762h-125.285zM349.867 618.667l-145.067-375.467h59.346l29.541 80.456h164.847l29.805-80.456h59.348l-145.067 375.467h-52.753zM653.189 565.030l-131.881-135.974 37.192-38.352 68.311 69.731v-163.598h52.753v163.598l68.314-69.731 37.188 38.352-131.878 135.974z" />
<glyph unicode="&#xe919;" glyph-name="icon-info" d="M763.716 553.677c-14.141 33.072-34.014 62.686-58.641 87.372-24.743 24.656-54.33 44.497-87.371 58.64-32.536 14.085-68.352 21.318-105.704 21.378-37.352-0.059-73.492-7.263-106.68-21.349l-0.061-0.029c-32.389-14.114-61.621-33.985-86.336-58.611-24.656-24.715-44.497-54.329-58.64-87.401-14.055-32.509-21.289-68.325-21.349-105.677 0.059-37.321 7.293-73.465 21.349-106.68l0.029-0.061c14.114-32.42 33.985-61.652 58.611-86.337 24.684-24.624 53.943-44.496 86.309-58.58l0.058-0.058c33.188-14.114 69.332-21.292 106.68-21.35 37.325 0.058 73.172 7.233 105.68 21.35 33.099 14.141 62.686 34.014 87.429 58.638 24.624 24.685 44.496 53.917 58.58 86.337l0.058 0.061c14.087 33.215 21.292 69.359 21.35 106.68-0.089 37.352-7.352 73.168-21.35 105.677v0zM727.9 356.823c-12.609-28.761-29.232-53.238-50.934-74.851-20.937-20.995-45.032-37.263-73.789-49.845-28.583-12.605-58.375-18.661-91.211-18.63-32.864-0.058-62.655 6.025-91.18 18.63-28.73 12.609-53.207 28.908-74.851 49.845-20.934 21.613-37.262 46.152-49.84 74.851-12.607 28.583-18.691 58.375-18.631 91.208-0.090 32.894 6.024 62.655 18.631 91.211 12.578 28.699 28.907 52.852 49.84 73.728 21.675 21.732 46.152 38.356 74.851 50.934 28.522 12.578 58.286 18.661 91.18 18.631 32.864 0.030 62.655-6.054 91.211-18.631 28.699-12.52 52.736-29.113 73.639-50.818l0.266-0.205c21.613-20.907 38.236-44.971 50.814-73.67 12.609-28.553 18.633-58.317 18.633-91.18 0.027-32.922-6.025-62.628-18.633-91.211l0.003 0.003zM536.3 332.462h30.973v-48.63h-110.578v48.63h30.976v120.559h-29.942v48.66h78.602v-169.219h-0.031zM464.37 564.989c-1.567 4.751-2.509 10.332-2.509 15.145 0 4.932 1.034 10.366 2.686 14.647l0.119 0.328 0.174 0.324c2.393 4.693 5.612 9.301 8.888 12.636 3.308 3.249 7.738 6.202 11.899 8.001 4.96 2.362 10.926 3.81 16.036 3.869 4.96-0.059 10.571-1.534 14.998-3.869 4.755-1.772 9.568-4.755 12.964-8.001 3.219-3.366 6.229-8.178 8.001-12.933 2.304-4.4 3.751-10.039 3.867-14.998-0.116-5.11-1.563-11.073-3.925-16.036-1.802-4.161-4.724-8.591-8.004-11.899-3.335-3.277-7.943-6.496-12.636-8.885l-0.652-0.297c-4.311-1.652-9.742-2.659-14.643-2.686-4.844 0.058-10.366 0.945-15.179 2.54l-0.915 0.294-0.826 0.502c-3.867 2.362-7.823 5.434-10.984 8.564-3.13 3.161-6.202 7.117-8.564 11.015l-0.502 0.795-0.294 0.945z" />
<glyph unicode="&#xe91a;" glyph-name="icon-link" d="M536.528 678.825c27.658 27.411 64.707 42.579 103.158 42.236s75.237-16.169 102.427-44.069c27.191-27.901 42.612-65.643 42.947-105.098 0.335-39.458-14.445-77.469-41.161-105.851l-0.28-0.294-74.124-76.056c0 0 0 0-0.003-0.003-14.865-15.258-32.758-27.057-52.46-34.601-19.702-7.54-40.755-10.646-61.73-9.103-20.978 1.539-41.387 7.694-59.839 18.039-18.456 10.346-34.526 24.641-47.121 41.923-7.649 10.489-5.56 25.351 4.663 33.198 10.223 7.844 24.709 5.704 32.355-4.785 8.625-11.834 19.63-21.623 32.266-28.71 12.64-7.083 26.614-11.298 40.977-12.353s28.781 1.072 42.274 6.236c13.493 5.164 25.743 13.247 35.925 23.695l0.003 0.003 73.974 75.906c18.21 19.418 28.283 45.387 28.054 72.342-0.229 27.017-10.79 52.864-29.409 71.969s-43.807 29.943-70.141 30.178c-26.279 0.234-51.596-10.11-70.526-28.81l-42.373-43.225c-9.052-9.236-23.689-9.192-32.686 0.096-9.001 9.291-8.96 24.307 0.096 33.542l42.735 43.593zM406.968 540.911c19.702 7.54 40.755 10.646 61.73 9.103 20.978-1.539 41.387-7.694 59.839-18.039 18.456-10.346 34.526-24.641 47.121-41.923 7.649-10.489 5.56-25.351-4.663-33.198-10.223-7.844-24.709-5.704-32.355 4.785-8.625 11.834-19.63 21.623-32.266 28.71-12.64 7.083-26.614 11.298-40.977 12.353s-28.781-1.072-42.274-6.236c-13.493-5.164-25.743-13.247-35.925-23.695l-73.977-75.909c-18.21-19.418-28.283-45.387-28.055-72.342 0.229-27.017 10.791-52.862 29.41-71.97 18.62-19.104 43.807-29.942 70.141-30.177 26.266-0.232 51.575 10.103 70.502 28.788l42.1 43.199c9.028 9.264 23.661 9.264 32.689 0s9.028-24.279 0-33.543l-42.537-43.639c-27.658-27.412-64.707-42.581-103.158-42.237-38.451 0.341-75.235 16.169-102.426 44.070s-42.615 65.642-42.949 105.097c-0.334 39.458 14.448 77.469 41.162 105.851l0.282 0.294 74.123 76.056c0 0-0.003-0.003 0 0 14.865 15.258 32.761 27.061 52.463 34.604z" />
<glyph unicode="&#xe91b;" glyph-name="icon-login" d="M468.115 457.752v87.77l146.285-117.026-146.285-117.030v87.77h-263.315v58.515h263.315zM247.457 340.722h62.142c20.423-50.295 57.686-91.931 105.418-117.787 47.729-25.856 102.96-34.321 156.245-23.955 53.282 10.37 101.311 38.929 135.864 80.794 34.553 41.868 53.484 94.437 53.559 148.722 0.031 54.34-18.848 106.998-53.398 148.941-34.546 41.943-82.613 70.558-135.953 80.937s-108.629 1.875-156.385-24.054c-47.756-25.927-85.002-67.666-105.349-118.053h-62.142c37.274 118.696 148.159 204.8 279.173 204.8 161.587 0 292.57-130.983 292.57-292.57s-130.983-292.574-292.57-292.574c-131.014 0-241.899 86.105-279.173 204.8z" />
<glyph unicode="&#xe91c;" glyph-name="icon-menu" d="M224 616.533c0 11.782 9.368 21.333 20.923 21.333h502.153c11.558 0 20.924-9.551 20.924-21.333s-9.366-21.333-20.924-21.333h-502.153c-11.555 0-20.923 9.551-20.923 21.333zM224 445.867c0 11.783 9.368 21.333 20.923 21.333h502.153c11.558 0 20.924-9.551 20.924-21.333s-9.366-21.333-20.924-21.333h-502.153c-11.555 0-20.923 9.551-20.923 21.333zM224 275.2c0 11.783 9.368 21.333 20.923 21.333h502.153c11.558 0 20.924-9.551 20.924-21.333s-9.366-21.333-20.924-21.333h-502.153c-11.555 0-20.923 9.551-20.923 21.333z" />
<glyph unicode="&#xe91d;" glyph-name="icon-minus" d="M269.274 482.133h485.451c8.049 0 15.766-3.372 21.456-9.373s8.885-14.141 8.885-22.627c0-8.486-3.195-16.626-8.885-22.627s-13.408-9.373-21.456-9.373h-485.451c-8.047 0-15.764 3.372-21.454 9.373s-8.887 14.141-8.887 22.627c0 8.486 3.197 16.626 8.887 22.627s13.407 9.373 21.454 9.373z" />
<glyph unicode="&#xe91e;" glyph-name="icon-phone" d="M270.002 539.023l-0.728 2.092c-16.384 46.937-30.341 111.077-30.341 149.61 0 16.687 13.653 30.341 30.341 30.341h91.024c16.094 0 31.526-6.393 42.906-17.773s17.773-26.814 17.773-42.908v-60.683c0-16.094-6.393-31.526-17.773-42.906s-26.812-17.773-42.906-17.773h-25.397c24.495-60.348 60.847-115.169 106.9-161.222s100.874-82.405 161.222-106.899v25.395c0 16.094 6.393 31.526 17.773 42.906s26.812 17.773 42.906 17.773h60.682c16.094 0 31.529-6.393 42.909-17.773s17.773-26.812 17.773-42.906v-91.023c0-13.653-16.688-30.341-30.341-30.341-52.337 0-104.373 13.834-151.702 30.341-155.163 55.583-278.165 178.586-333.021 333.749z" />
<glyph unicode="&#xe91f;" glyph-name="icon-pin" d="M499.159 691.649c-52.159 0-102.185-20.721-139.069-57.605s-57.605-86.91-57.605-139.069c0-76.295 49.399-149.043 101.661-204.206 25.829-27.266 51.709-49.555 71.148-65.034 9.708-7.731 17.78-13.739 23.395-17.794 0.16-0.116 0.317-0.229 0.471-0.341 0.157 0.113 0.314 0.225 0.471 0.341 5.618 4.055 13.687 10.063 23.395 17.794 19.439 15.479 45.319 37.769 71.151 65.034 52.262 55.163 101.659 127.911 101.659 204.206 0 52.159-20.719 102.185-57.603 139.069s-86.91 57.605-139.073 57.605zM499.159 189.638c-8.158-12.237-8.161-12.233-8.168-12.23l-0.055 0.038-0.14 0.092-0.505 0.345c-0.437 0.294-1.068 0.727-1.881 1.287-1.621 1.126-3.973 2.775-6.946 4.922-5.943 4.294-14.387 10.578-24.494 18.63-20.197 16.080-47.162 39.298-74.179 67.816-53.433 56.399-109.725 136.318-109.725 224.437 0 59.962 23.821 117.47 66.221 159.871s99.909 66.221 159.871 66.221c59.965 0 117.473-23.821 159.874-66.221s66.222-99.909 66.222-159.871c0-88.119-56.293-168.038-109.725-224.437-27.017-28.518-53.982-51.736-74.179-67.816-10.11-8.052-18.551-14.336-24.497-18.63-2.97-2.147-5.321-3.796-6.946-4.922-0.809-0.56-1.44-0.993-1.877-1.287l-0.505-0.345-0.14-0.092-0.044-0.031c-0.003-0.003-0.020-0.014-8.182 12.223zM499.159 189.638l-8.168-12.23c4.943-3.294 11.387-3.301 16.329-0.007l-8.161 12.237zM499.139 550.724c-30.792 0-55.753-24.962-55.753-55.753s24.962-55.75 55.753-55.75c30.792 0 55.75 24.958 55.75 55.75s-24.958 55.753-55.75 55.753zM413.966 494.971c0 47.039 38.134 85.173 85.173 85.173 47.036 0 85.169-38.134 85.169-85.173 0-47.036-38.134-85.169-85.169-85.169-47.039 0-85.173 38.134-85.173 85.169z" />
<glyph unicode="&#xe920;" glyph-name="icon-plus" d="M542.341 417.659v-212.384c0-8.049-3.198-15.766-8.888-21.456s-13.408-8.885-21.453-8.885c-8.045 0-15.763 3.195-21.453 8.885s-8.888 13.408-8.888 21.456v212.384h-212.385c-8.047 0-15.764 3.198-21.454 8.888s-8.887 13.408-8.887 21.453c0 8.045 3.197 15.763 8.887 21.453s13.407 8.888 21.454 8.888h212.385v212.385c0 8.047 3.198 15.764 8.888 21.454s13.408 8.887 21.453 8.887c8.045 0 15.763-3.197 21.453-8.887s8.888-13.407 8.888-21.454v-212.385h212.384c8.049 0 15.766-3.198 21.456-8.888s8.885-13.408 8.885-21.453c0-8.045-3.195-15.763-8.885-21.453s-13.408-8.888-21.456-8.888h-212.384z" />
<glyph unicode="&#xe921;" glyph-name="icon-print" d="M340.539 193.983c0-10.52 8.529-19.050 19.052-19.050h304.817c10.523 0 19.053 8.53 19.053 19.050v177.811c0 10.523-8.53 19.053-19.053 19.053-10.52 0-19.050-8.53-19.050-19.053v-158.758h-266.718v158.758c0 10.523-8.53 19.053-19.050 19.053-10.523 0-19.052-8.53-19.052-19.053v-177.811zM308.788 390.847c-8.421 0-16.497 3.345-22.452 9.298-5.955 5.956-9.3 14.032-9.3 22.453v127.007c0 8.424 3.345 16.5 9.3 22.453 5.955 5.956 14.031 9.301 22.452 9.301h50.804c10.52 0 19.050 8.53 19.050 19.050 0 10.523-8.53 19.052-19.050 19.052h-50.804c-18.527 0-36.294-7.361-49.394-20.462-13.1-13.097-20.46-30.867-20.46-49.394v-127.007c0-18.528 7.359-36.294 20.46-49.394s30.868-20.46 49.394-20.46h406.425c18.528 0 36.294 7.359 49.394 20.46s20.46 30.867 20.46 49.394v127.007c0 18.528-7.359 36.297-20.46 49.394-13.1 13.1-30.867 20.462-49.394 20.462h-50.804c-10.52 0-19.050-8.529-19.050-19.052 0-10.52 8.53-19.050 19.050-19.050h50.804c8.421 0 16.497-3.345 22.453-9.301 5.953-5.953 9.298-14.029 9.298-22.453v-127.007c0-8.421-3.345-16.497-9.298-22.453-5.956-5.953-14.032-9.298-22.453-9.298h-406.425zM340.539 498.804c0-10.523 8.529-19.053 19.052-19.053h304.817c10.523 0 19.053 8.53 19.053 19.053v203.211c0 10.522-8.53 19.051-19.053 19.051h-304.817c-10.523 0-19.052-8.53-19.052-19.051v-203.211zM378.641 517.854v165.11h266.718v-165.11h-266.718z" />
<glyph unicode="&#xe922;" glyph-name="icon-procurement" d="M582.892 363.981h-168.042c-11.141 0-21.825 4.424-29.703 12.302-7.881 7.881-12.305 18.565-12.305 29.706v42.011c0 11.141 4.424 21.828 12.305 29.706 7.878 7.878 18.562 12.305 29.703 12.305h168.042c11.141 0 21.828-4.427 29.706-12.305s12.305-18.565 12.305-29.706v-42.011c0-11.141-4.427-21.825-12.305-29.706-7.878-7.878-18.565-12.302-29.706-12.302zM414.85 448v-42.011h168.042v42.011h-168.042zM750.933 721.067h-504.123c-11.142 0-21.827-4.426-29.706-12.304s-12.304-18.564-12.304-29.706v-84.020c0-11.141 4.426-21.828 12.304-29.706s18.564-12.305 29.706-12.305v-336.080c0-11.145 4.426-21.828 12.304-29.706s18.564-12.305 29.706-12.305h420.101c11.145 0 21.828 4.427 29.706 12.305s12.305 18.562 12.305 29.706v336.080c11.141 0 21.828 4.427 29.706 12.305s12.305 18.565 12.305 29.706v84.020c0 11.142-4.427 21.827-12.305 29.706s-18.565 12.304-29.706 12.304zM708.922 216.945h-420.101v336.080h420.101v-336.080zM750.933 595.036h-504.123v84.020h504.123v-84.020z" />
<glyph unicode="&#xe923;" glyph-name="icon-question" d="M512 209.067c-63.369 0-124.143 25.173-168.95 69.984-44.81 44.807-69.984 105.581-69.984 168.95s25.173 124.143 69.984 168.95c44.807 44.81 105.581 69.984 168.95 69.984s124.143-25.173 168.95-69.984c44.81-44.807 69.984-105.581 69.984-168.95s-25.173-124.143-69.984-168.95c-44.807-44.81-105.581-69.984-168.95-69.984zM512 174.933c72.421 0 141.879 28.771 193.089 79.978 51.207 51.21 79.978 120.668 79.978 193.089s-28.771 141.879-79.978 193.087c-51.21 51.21-120.668 79.98-193.089 79.98s-141.879-28.769-193.087-79.98c-51.21-51.209-79.98-120.666-79.98-193.087s28.769-141.879 79.98-193.089c51.209-51.207 120.666-79.978 193.087-79.978zM418.133 515.14h45.056c0 26.658 15.633 47.241 46.421 47.241 23.381 0 44.817-11.708 44.817-39.868 0-21.675-12.766-31.642-32.939-46.797-22.972-16.691-41.165-36.181-39.868-67.823l0.239-15.804h44.612v12.117c0 24.508 9.318 31.642 34.475 50.722 20.787 15.804 42.462 33.348 42.462 70.178 0 51.575-43.554 76.493-91.238 76.493-45.261 0-95.095-22.084-94.003-86.46h-0.034zM471.45 326.861c0-18.193 14.507-31.642 34.475-31.642 20.787 0 35.089 13.449 35.089 31.642 0 18.842-14.336 32.085-35.123 32.085-19.934 0-34.441-13.244-34.441-32.085z" />
<glyph unicode="&#xe924;" glyph-name="icon-reading-list-off" d="M267.378 755.2h455.112c7.543 0 14.776-2.997 20.111-8.331s8.332-12.569 8.332-20.113v-548.296c0.003-2.372-0.591-4.707-1.72-6.796-1.133-2.086-2.768-3.854-4.758-5.147-1.99-1.29-4.273-2.065-6.639-2.249s-4.741 0.225-6.909 1.195l-235.974 105.329-235.975-105.301c-2.165-0.966-4.537-1.376-6.9-1.195-2.364 0.184-4.645 0.956-6.634 2.243-1.99 1.29-3.626 3.055-4.76 5.137s-1.729 4.417-1.731 6.786v548.296c0 7.544 2.997 14.779 8.331 20.113s12.569 8.331 20.113 8.331zM694.043 244.197v454.114h-398.221v-454.114l199.111 88.859 199.11-88.859zM494.933 428.090l-83.599-43.947 15.957 93.068-67.611 65.935 93.467 13.595 41.786 84.68 41.813-84.68 93.44-13.595-67.611-65.935 15.927-93.068-83.569 43.947z" />
<glyph unicode="&#xe925;" glyph-name="icon-reading-list-on" d="M284.444 736h455.112c7.543 0 14.776-2.997 20.111-8.331s8.332-12.569 8.332-20.113v-548.296c0.003-2.372-0.591-4.707-1.72-6.796-1.133-2.086-2.768-3.854-4.758-5.147-1.99-1.29-4.273-2.065-6.639-2.249s-4.741 0.225-6.909 1.195l-235.974 105.329-235.975-105.301c-2.165-0.966-4.537-1.376-6.9-1.195-2.364 0.184-4.645 0.956-6.634 2.243-1.99 1.29-3.626 3.055-4.76 5.137s-1.729 4.417-1.731 6.786v548.296c0 7.544 2.997 14.779 8.331 20.113s12.569 8.331 20.113 8.331zM512 408.89l83.599-43.947-15.957 93.068 67.611 65.935-93.467 13.595-41.786 84.68-41.813-84.68-93.44-13.595 67.611-65.935-15.927-93.068 83.569 43.947z" />
<glyph unicode="&#xe926;" glyph-name="icon-register" d="M679.431 358.915c16.927 0 30.621 13.769 30.621 30.713 0 9.783-4.55 18.48-11.643 24.105l0.16 0.191c-23.566 18.299-49.76 33.294-78.049 44.151 36.004 30.986 58.911 76.875 58.911 128.198 0 93.281-75.418 168.926-168.417 168.926-93.003 0-168.417-75.645-168.417-168.926 0-51.323 22.907-97.212 58.911-128.198-114.89-44.209-196.647-155.638-196.707-286.505v-0.058c0.060-16.916 13.756-30.655 30.622-30.655 16.925 0 30.561 13.739 30.621 30.655 0 135.482 109.929 245.712 244.97 245.712 55.375 0 106.349-18.732 147.388-49.91 5.485-5.202 12.882-8.4 21.030-8.4zM511.014 478.775c-59.088 0-107.175 48.23-107.175 107.5 0 59.267 48.087 107.498 107.175 107.498s107.175-48.231 107.175-107.498c0-59.269-48.087-107.5-107.175-107.5zM796.235 255.976h-45.933v46.073c0 12.715-10.288 23.033-22.965 23.033-12.711 0-22.965-10.319-22.965-23.033v-46.073h-45.933c-12.708 0-22.965-10.319-22.965-23.037 0-12.715 10.257-23.033 22.965-23.033h45.933v-46.073c0-12.718 10.254-23.033 22.965-23.033 12.677 0 22.965 10.315 22.965 23.033v46.073h45.933c12.677 0 22.965 10.319 22.965 23.033 0 12.718-10.284 23.037-22.965 23.037z" />
<glyph unicode="&#xe927;" glyph-name="icon-related" d="M290.133 755.2h128c13.575-0.015 26.59-5.415 36.188-15.013s14.998-22.613 15.012-36.187v-281.6c0-13.578 5.393-26.604 14.995-36.205s22.627-14.995 36.205-14.995c13.578 0 26.604 5.393 36.205 14.995s14.995 22.627 14.995 36.205v281.6c0.014 13.574 5.414 26.589 15.012 36.187s22.613 14.998 36.188 15.013h128c13.575-0.015 26.59-5.415 36.188-15.013s14.998-22.613 15.012-36.187v-281.6c0-74.684-29.665-146.306-82.473-199.117-52.808-52.808-124.43-82.48-199.11-82.483l-2.147 0.007c-154.102 1.143-279.47 128.905-279.47 284.805v278.388c0.015 13.574 5.415 26.589 15.013 36.187s22.613 14.998 36.187 15.013zM290.133 704v-102.4h128v102.4h-128zM622.933 704v-102.4h128v102.4h-128zM518.782 192.007c0.591-0.007 1.167-0.007 1.758-0.007 61.105 0 119.706 24.276 162.912 67.485 43.209 43.209 67.482 101.809 67.482 162.915v128h-128v-128c0-27.156-10.79-53.204-29.993-72.407s-45.251-29.993-72.407-29.993c-27.156 0-53.204 10.79-72.407 29.993s-29.993 45.251-29.993 72.407v128h-128v-124.788c0-127.874 102.574-232.67 228.649-233.605z" />
<glyph unicode="&#xe928;" glyph-name="icon-rss" d="M246.617 482.615c0 12.742 10.331 23.074 23.076 23.074 79.563 0 155.868-31.604 212.126-87.866 56.259-56.259 87.866-132.56 87.866-212.125 0-12.742-10.332-23.074-23.078-23.074s-23.078 10.332-23.078 23.074c0 67.325-26.743 131.888-74.346 179.494-47.606 47.602-112.169 74.346-179.491 74.346-12.745 0-23.076 10.332-23.076 23.078zM246.617 697.99c0 12.745 10.331 23.076 23.076 23.076 136.685 0 267.771-54.298 364.419-150.948 96.652-96.652 150.951-227.738 150.951-364.421 0-12.745-10.332-23.078-23.078-23.078s-23.078 10.332-23.078 23.078c0 124.443-49.435 243.791-137.428 331.786-87.996 87.995-207.343 137.43-331.788 137.43-12.745 0-23.076 10.331-23.076 23.076zM238.933 236.469c0 33.983 27.551 61.536 61.537 61.536s61.538-27.552 61.538-61.536c0-33.987-27.552-61.539-61.538-61.539s-61.537 27.552-61.537 61.539z" />
<glyph unicode="&#xe929;" glyph-name="icon-search" d="M238.933 476.006c0 135.342 109.718 245.060 245.060 245.060s245.060-109.718 245.060-245.060c0-135.342-109.718-245.060-245.060-245.060s-245.060 109.718-245.060 245.060zM483.994 679.056c-112.142 0-203.050-90.908-203.050-203.050s90.908-203.049 203.050-203.049c112.142 0 203.049 90.907 203.049 203.049s-90.907 203.050-203.049 203.050zM627.377 332.623c8.206 8.202 21.504 8.202 29.706 0l121.832-121.832c8.202-8.202 8.202-21.501 0-29.706-8.206-8.202-21.504-8.202-29.706 0l-121.832 121.832c-8.202 8.202-8.202 21.501 0 29.706z" />
<glyph unicode="&#xe92a;" glyph-name="icon-share" d="M760.074 575.392c-16.005-16.002-37.711-24.992-60.341-24.992s-44.336 8.991-60.341 24.992c-2.434 2.437-4.704 5.001-6.81 7.683l-225.898-112.964c1.918-7.151 2.915-14.578 2.915-22.112 0-7.526-0.993-14.954-2.912-22.098l225.905-112.968c2.099 2.679 4.369 5.239 6.799 7.673 16.005 16.002 37.711 24.992 60.341 24.992s44.336-8.991 60.341-24.992c16.002-16.005 24.992-37.711 24.992-60.341s-8.991-44.336-24.992-60.341c-16.005-16.002-37.711-24.992-60.341-24.992s-44.336 8.991-60.341 24.992c-16.002 16.005-24.992 37.711-24.992 60.341 0 7.537 0.997 14.971 2.918 22.125l-225.911 112.94c-2.099-2.679-4.369-5.239-6.799-7.673-16.005-16.002-37.711-24.992-60.341-24.992-22.632 0-44.337 8.991-60.34 24.992-16.003 16.005-24.993 37.711-24.993 60.341s8.99 44.336 24.993 60.341c16.003 16.002 37.708 24.992 60.34 24.992 22.63 0 44.336-8.991 60.341-24.992 2.43-2.434 4.7-4.997 6.803-7.673l225.908 112.937c-1.922 7.157-2.918 14.591-2.918 22.129 0 22.632 8.991 44.337 24.992 60.34 16.005 16.003 37.711 24.993 60.341 24.993s44.336-8.99 60.341-24.993c16.002-16.003 24.992-37.708 24.992-60.34 0-22.63-8.991-44.336-24.992-60.341z" />
<glyph unicode="&#xe92b;" glyph-name="icon-subscribe" d="M227.603 607.468c6.311 9.015 18.734 11.208 27.75 4.898l254.24-177.971 254.242 177.971c9.015 6.31 21.439 4.116 27.75-4.898s4.116-21.439-4.898-27.75l-265.667-185.965c-6.861-4.803-15.991-4.803-22.852 0l-265.669 185.965c-9.015 6.311-11.208 18.736-4.897 27.75zM263.85 596.040c0 18.22 14.989 33.208 33.208 33.208h425.070c18.217 0 33.208-14.991 33.208-33.208v-199.25h39.851v199.25c0 40.227-32.833 73.058-73.059 73.058h-425.070c-40.228 0-73.059-32.831-73.059-73.058v-318.802c0-40.23 32.831-73.059 73.059-73.059h252.386v39.851h-252.386c-18.219 0-33.208 14.988-33.208 33.208v318.802zM723.562 249.672v-84.49c0-3.202-1.143-6.27-3.181-8.533-2.038-2.266-4.799-3.536-7.68-3.536-2.884 0-5.646 1.27-7.683 3.536-2.038 2.263-3.181 5.332-3.181 8.533v84.49h-76.039c-2.881 0-5.646 1.27-7.683 3.533-2.034 2.263-3.181 5.335-3.181 8.537s1.147 6.27 3.181 8.533c2.038 2.263 4.803 3.536 7.683 3.536h76.039v84.487c0 3.202 1.143 6.274 3.181 8.537s4.799 3.533 7.683 3.533c2.881 0 5.642-1.27 7.68-3.533s3.181-5.335 3.181-8.537v-84.487h76.039c2.881 0 5.646-1.273 7.683-3.536s3.181-5.332 3.181-8.533c0-3.202-1.143-6.274-3.181-8.537s-4.803-3.533-7.683-3.533h-76.039z" />
<glyph unicode="&#xe92c;" glyph-name="icon-tag" d="M257.802 297.516c-11.332 11.22-17.665 24.965-17.741 40.001l-1.127 222.983c-0.152 30.065 26.022 56.508 56.088 56.658l298.147 1.505c25.057 0.128 60.208-14.729 79.094-33.423l95.689-94.727c22.661-22.436 22.839-57.511 0.406-80.172l-94.727-95.689c-18.698-18.886-52.449-32.836-78.752-34.222l-296.902-0.249c-15.033-0.075-28.844 6.12-40.176 17.336zM648.581 561.319c-12.588 12.462-37.693 22.357-53.975 21.023l-298.148-1.505c-12.527-0.065-21.252-8.878-21.189-21.405l1.127-222.986c1.31-11.267 10.123-19.992 21.404-21.187l298.147 1.505c17.541 0.089 42.544 10.237 53.76 21.569l94.727 95.689c8.724 8.813 8.663 21.34-0.15 30.065l-96.949 95.973 1.246 1.26zM559.186 400.521c-27.699 27.423-27.928 72.52-0.509 100.219 27.423 27.699 72.52 27.928 100.219 0.509 27.699-27.423 27.928-72.52 0.505-100.219-27.419-27.699-72.516-27.928-100.215-0.509zM633.969 476.064c-13.851 13.711-36.4 13.599-50.108-0.253-13.711-13.848-13.599-36.4 0.253-50.108 13.848-13.711 36.396-13.599 50.108 0.253 13.711 13.848 13.595 36.4-0.253 50.108z" />
<glyph unicode="&#xe92d;" glyph-name="icon-user" d="M311.116 359.444c24.363 26.651 57.405 41.622 91.859 41.622h220.184c34.454 0 67.495-14.971 91.86-41.622 24.361-26.651 38.048-62.795 38.048-100.485v-60.215c0-11.974-8.871-21.678-19.818-21.678-10.943 0-19.814 9.704-19.814 21.678v60.215c0 26.191-9.513 51.309-26.443 69.83-16.93 18.517-39.892 28.921-63.833 28.921h-220.184c-23.941 0-46.903-10.404-63.834-28.921-16.93-18.521-26.441-43.639-26.441-69.83v-60.215c0-11.974-8.872-21.678-19.816-21.678s-19.816 9.704-19.816 21.678v60.215c0 37.69 13.687 73.834 38.049 100.485zM513.065 682.016c-55.265 0-100.065-39.824-100.065-88.949s44.8-88.948 100.065-88.948c55.269 0 100.069 39.823 100.069 88.948s-44.8 88.949-100.069 88.949zM369.067 593.067c0 70.693 64.471 128 143.998 128 79.531 0 144.002-57.307 144.002-128s-64.471-128-144.002-128c-79.527 0-143.998 57.306-143.998 128z" />
<glyph unicode="&#xe92e;" glyph-name="icon-vacancy" d="M730.453 606.092c15.838 0 28.672-5.748 38.775-16.961 10.377-11.783 15.838-24.719 15.838-40.527v-316.184c0-15.807-5.461-28.744-15.838-40.53-10.103-11.209-22.938-16.957-38.775-16.957h-436.907c-15.838 0-28.672 5.748-38.775 16.957-10.377 11.786-15.838 24.723-15.838 40.53v316.184c0 15.807 5.461 28.744 15.838 40.527 10.103 11.213 22.938 16.961 38.775 16.961h109.227v57.487c0 16.671 5.461 30.181 15.838 40.816 10.103 10.923 22.938 16.671 38.775 16.671h109.227c15.838 0 28.672-5.749 38.775-16.671 10.377-10.635 15.838-24.145 15.838-40.816v-57.487h109.227zM293.547 548.605v-316.184h436.907v316.184h-436.907zM566.613 606.092v57.487h-109.227v-57.487h109.227zM512 519.861c16.295 0 31.921-6.816 43.445-18.944s17.995-28.58 17.995-45.732c0-35.929-27.58-64.672-61.44-64.672-16.295 0-31.921 6.813-43.445 18.941-11.523 12.131-17.995 28.58-17.995 45.732 0 35.932 27.58 64.676 61.44 64.676zM634.88 261.164h-245.76v32.195c0 35.929 54.613 64.672 122.88 64.672s122.88-28.744 122.88-64.672v-32.195z" />
<glyph unicode="&#xe92f;" glyph-name="icon-facebook" d="M551.144 618.667h79.855v102.4h-79.855c-15.305 0-29.778-3.2-43.421-9.6-13.64-6.044-25.617-14.578-35.932-25.6-9.984-10.667-17.968-23.289-23.958-37.867-5.656-14.578-8.482-30.043-8.482-46.4v-51.2h-63.884v-102.4h63.884v-273.067h95.823v273.067h79.855l15.971 102.4h-95.826v51.2c0 4.622 1.498 8.533 4.492 11.732 3.328 3.557 7.154 5.335 11.479 5.335z" />
<glyph unicode="&#xe930;" glyph-name="icon-instagram" d="M737.068 721.067h-416.002c-13.333 0-24.667-4.978-34-14.933s-14-22.044-14-36.267v-443.733c0-14.223 4.667-26.31 14-36.267s20.667-14.933 34-14.933h416.002c13.332 0 24.665 4.977 33.997 14.933 9.335 9.957 14.001 22.043 14.001 36.267v443.733c0 14.222-4.666 26.311-14.001 36.267-9.332 9.956-20.664 14.933-33.997 14.933zM625.067 635.733c0 4.622 1.498 8.533 4.499 11.733 3.335 3.556 7.168 5.333 11.5 5.333h64c4.335 0 8.001-1.778 11.001-5.333 3.335-3.2 5.001-7.111 5.001-11.733v-68.267c0-4.622-1.666-8.711-5.001-12.268-3-3.198-6.666-4.799-11.001-4.799h-64c-4.332 0-8.165 1.601-11.5 4.799-3 3.557-4.499 7.646-4.499 12.268v68.267zM529.067 550.4c26.334 0 48.835-9.957 67.499-29.867 19.002-19.91 28.501-44.090 28.501-72.533 0-28.088-9.332-52.268-28-72.533-18.668-19.91-41.335-29.867-68-29.867-26.334 0-48.998 9.957-68 29.867-18.668 19.91-28 44.090-28 72.533 0 28.088 9.332 52.087 28 72.001 18.668 20.265 41.332 30.399 68 30.399zM721.067 260.267c0-4.622-1.666-8.711-5.001-12.268-3-3.198-6.666-4.799-11.001-4.799h-351.997c-4.335 0-8.168 1.601-11.503 4.799-2.999 3.557-4.499 7.646-4.499 12.268v221.867h35c-1-5.335-1.833-10.844-2.502-16.534-0.331-5.687-0.498-11.554-0.498-17.599 0-23.467 4.168-45.687 12.5-66.666 8.335-20.623 19.668-38.755 34-54.402 14.667-15.288 31.665-27.378 50.999-36.267 19.668-8.888 40.503-13.332 62.502-13.332s42.667 4.444 62 13.332c19.668 8.888 36.666 20.978 50.999 36.267 14.667 15.647 26.167 33.778 34.502 54.402 8.332 20.978 12.5 43.199 12.5 66.666 0 5.69-0.335 11.377-1 17.067-0.335 6.045-1 11.732-2 17.067h35v-221.867z" />
<glyph unicode="&#xe931;" glyph-name="icon-linkedin" d="M245.732 540.655h117.84v-376.559h-117.84v376.559zM304.651 721.067c-9.82 0-18.884-1.615-27.193-4.843-7.554-3.229-14.352-7.668-20.395-13.319s-10.575-12.512-13.597-20.584c-3.021-8.072-4.532-16.548-4.532-25.427 0-9.687 1.511-18.566 4.532-26.638 3.021-7.265 7.176-14.125 12.464-20.583 6.043-5.649 12.841-10.090 20.395-13.319 8.309-3.229 17.374-4.844 27.193-4.844h1.133c9.82 0 18.884 1.615 27.193 4.844s15.108 7.67 20.395 13.319c6.042 6.458 10.575 13.319 13.595 20.583 3.024 8.072 4.533 16.951 4.533 26.638 0 8.879-1.509 17.355-4.533 25.427-3.021 8.072-7.554 14.933-13.595 20.584-5.287 5.65-12.086 10.090-20.395 13.319-7.554 3.229-16.618 4.843-27.193 4.843zM650.233 549.13c-15.862 0-29.46-2.017-40.789-6.052-11.332-4.038-21.152-9.284-29.46-15.742s-15.486-13.319-21.528-20.582c-5.287-7.264-9.82-14.128-13.595-20.582v54.484h-116.705c0 0 0-3.632 0-10.895 0-7.267 0-23.815 0-49.644 0-25.832 0-63.768 0-113.818 0-50.046 0-117.446 0-202.202h116.705v209.469c0 3.229 0 6.052 0 8.475 0 3.229 0 6.055 0 8.475 0.754 2.42 1.133 4.844 1.133 7.264 0.754 2.423 1.509 4.844 2.263 7.267 2.266 5.649 4.912 10.895 7.933 15.739 3.779 5.652 7.933 10.496 12.465 14.531 5.287 4.844 11.329 8.475 18.128 10.899 6.796 2.42 13.974 3.632 21.528 3.632 10.575 0 19.64-2.021 27.194-6.055s13.595-9.687 18.128-16.951c5.287-7.267 9.062-16.145 11.329-26.638s3.4-22.2 3.4-35.113v-200.994h116.705v215.521c0 29.061-3.4 54.084-10.199 75.073-6.796 20.985-16.241 38.342-28.324 52.064-12.087 14.531-26.44 25.023-43.056 31.481-15.865 7.264-33.615 10.895-53.255 10.895z" />
<glyph unicode="&#xe932;" glyph-name="icon-rss1" d="M311.467 327.182c-19.911 0-36.978-7.598-51.2-22.798-14.222-15.196-21.333-33.437-21.333-54.712 0-21.279 7.111-39.516 21.333-54.716 14.222-15.196 31.289-22.794 51.2-22.794 20.267 0 37.513 7.598 51.732 22.794 14.223 15.2 21.333 33.437 21.333 54.716 0 21.275-7.11 39.516-21.333 54.712-14.22 15.2-31.466 22.798-51.732 22.798zM238.933 556.865v-111.708c17.067 0 33.778-1.898 50.133-5.7 16.356-3.417 32.178-8.547 47.467-15.387 15.289-6.458 29.867-14.817 43.732-25.078 14.223-9.878 27.378-21.275 39.468-34.195 12.087-12.919 22.753-26.788 32-41.605 9.243-14.817 16.889-30.396 22.934-46.735 6.4-16.336 11.199-33.434 14.397-51.292 3.557-17.476 5.335-35.335 5.335-53.572h105.066c0 53.193-9.421 103.158-28.266 149.89-18.845 46.735-44.623 87.579-77.332 122.535-32.713 34.956-70.936 62.505-114.668 82.64-43.734 20.139-90.49 30.208-140.268 30.208zM238.933 755.2v-111.706c60.8 0 117.866-12.539 171.199-37.617 53.688-24.695 100.444-58.32 140.268-100.878 40.178-42.554 71.823-92.518 94.935-149.89 23.108-57.375 34.666-118.548 34.666-183.518h105.066c0 80.548-14.401 156.16-43.199 226.833-28.447 71.049-67.379 132.983-116.801 185.795-49.422 52.815-107.377 94.42-173.865 124.816-66.133 30.776-136.891 46.164-212.268 46.164z" />
<glyph unicode="&#xe933;" glyph-name="icon-twitter" d="M684.3 718.8h91.878l-200.727-229.415 236.138-312.186h-184.895l-144.815 189.338-165.702-189.338h-91.934l214.698 245.388-226.531 296.216h189.59l130.902-173.063zM652.052 232.191h50.91l-328.628 434.504h-54.632z" />
<glyph unicode="&#xe934;" glyph-name="icon-ytube" d="M779.735 564.46c0 0-1.601 7.41-4.803 22.228-3.198 14.821-8.888 26.597-17.067 35.337-10.312 11.779-20.797 18.618-31.464 20.518-10.312 2.28-18.135 3.8-23.467 4.56-18.845 1.52-39.468 2.66-61.867 3.419-22.402 0.76-43.203 1.33-62.403 1.71-18.845 0.38-34.666 0.57-47.466 0.57s-19.2 0-19.2 0c0 0-6.4 0-19.2 0s-28.798-0.19-47.998-0.57c-18.845-0.38-39.468-0.95-61.867-1.71-22.402-0.76-43.024-1.9-61.868-3.419-5.333-0.76-13.333-2.28-24-4.56-10.311-1.9-20.622-8.739-30.933-20.518-8.178-8.74-13.867-20.516-17.067-35.337-3.2-14.817-4.8-22.228-4.8-22.228s-0.889-9.878-2.666-29.635c-1.778-19.76-2.667-41.417-2.667-64.973v-44.455c0-23.555 0.889-45.213 2.667-64.973 1.778-19.377 2.666-29.065 2.666-29.065s1.6-7.601 4.8-22.798c3.2-14.817 8.889-26.597 17.067-35.335 10.311-11.779 21.333-18.62 33.067-20.518 12.089-1.901 21.155-3.42 27.2-4.56 11.022-1.14 26.846-2.089 47.466-2.85 20.623-0.761 41.069-1.331 61.334-1.71 20.623-0.379 38.577-0.761 53.866-1.14 15.288 0 22.934 0 22.934 0s6.4 0 19.2 0c12.8 0 28.621 0.191 47.466 0.57 19.2 0.761 40.001 1.519 62.403 2.28 22.398 0.761 43.199 1.901 62.399 3.42 5.332 0.379 13.155 1.519 23.467 3.42 10.312 2.28 20.62 9.308 30.932 21.088 8.178 8.738 13.868 20.518 17.067 35.335 3.202 15.196 4.803 22.798 4.803 22.798s0.887 9.687 2.666 29.065c1.778 19.76 2.666 41.417 2.666 64.973v44.455c0 23.555-0.887 45.213-2.666 64.973-1.778 19.756-2.666 29.635-2.666 29.635zM455.468 371.825v164.14l147.732-82.070-147.732-82.070z" />
<glyph unicode="&#xe935;" glyph-name="icon-quotes" d="M800.58 402.848v-227.915h-234.329v187.061c0 100.338 11.885 174.162 35.659 221.464 33.959 68.804 100.185 114.674 198.67 137.609v-101.056c-74.711-30.101-112.070-85.288-112.070-165.559v-51.603h112.070zM439.129 402.848v-227.915h-234.329v187.061c0 100.338 11.886 174.162 35.659 221.464 33.961 68.804 100.185 114.674 198.67 137.609v-101.056c-74.711-30.101-112.070-85.288-112.070-165.559v-51.603h112.070z" />
<glyph unicode="&#xe936;" glyph-name="icon-mp3" d="M550.4 256c0-42.431-43.008-76.8-96-76.8s-96 34.369-96 76.8c0 42.431 43.008 76.8 96 76.8s96-34.369 96-76.8zM550.4 640v-384h-38.4v384h38.4zM512 646.912c0.007 8.874 3.086 17.472 8.711 24.333 5.629 6.86 13.462 11.56 22.163 13.299l115.2 23.040c5.571 1.113 11.315 0.977 16.824-0.398 5.513-1.375 10.646-3.955 15.039-7.555s7.933-8.128 10.366-13.26c2.43-5.132 3.693-10.74 3.697-16.418v-68.352l-192-38.4v83.712zM0 960v34.133h-34.133v-34.133h34.133zM1024 960h34.133v34.133h-34.133v-34.133zM1024-64v-34.133h34.133v34.133h-34.133zM0-64h-34.133v-34.133h34.133v34.133zM0 925.867h1024v68.267h-1024v-68.267zM989.867 960v-1024h68.267v1024h-68.267zM1024-29.867h-1024v-68.267h1024v68.267zM34.133-64v1024h-68.267v-1024h68.267z" />
<glyph unicode="&#xe937;" glyph-name="icon-pdf" d="M810.953 360.871c-18.265 19.459-55.583 30.71-108.465 30.71-28.303 0-61.017-2.813-96.638-9.441-21.77 21.473-41.585 44.844-59.204 69.84-13.64 18.954-25.583 39.031-36.526 58.798 20.866 65.212 31 118.405 31 156.725 0 42.943-15.548 87.697-60.109 87.697-13.756 0-27.399-8.323-34.717-20.576-20.077-36.123-11.042-115.401 23.579-193.659-13.203-39.919-27.764-79.38-43.657-118.31-15.043-35.714-31.549-70.793-49.473-105.151-100.239-40.748-165.164-88.197-171.175-125.536-2.716-14.046 1.907-26.894 11.733-37.222 3.41-2.813 16.26-13.947 38.030-13.947 66.524 0 136.574 109.872 172.291 176.203 27.3 9.23 54.695 17.667 81.978 26.085 28.826 7.96 58.030 14.493 87.504 19.575 70.24-64.328 132.14-74.462 163.256-74.462 38.339 0 51.978 15.855 56.603 28.802 7.223 16.763 1.809 35.219-6.417 44.756l0.502-1.004-0.096 0.116zM775.427 333.783c-2.717-13.947-16.456-23.272-35.625-23.272-5.414 0-10.035 1-15.544 1.812-34.929 8.438-67.625 26.18-100.239 54.193 25.3 4.246 50.906 6.393 76.561 6.414 18.958 0 35.43-0.905 46.449-3.717 12.64-2.717 32.713-11.233 28.204-35.526h0.502l-0.307 0.096zM582.171 377.631c-25.385-5.181-50.616-11.104-75.657-17.763-21.78-5.915-43.363-12.537-64.71-19.862 11.083 21.955 21.422 44.278 30.996 66.929 11.039 26.184 20.074 53.173 29.208 78.278 8.94-15.759 18.958-31.614 28.993-45.756 16.452-22.368 33.618-43.657 50.883-62.208v0.498l0.287-0.116zM462.65 724.009c1.604 3.287 4.082 6.072 7.158 8.052 3.079 1.98 6.639 3.080 10.295 3.18 19.169 0 22.774-22.271 22.774-40.13 0-29.997-9.134-75.56-24.682-127.538-27.296 72.438-29.088 133.048-15.449 156.436h-0.096zM362.411 289.935c-46.451-78.162-91.108-126.635-118.504-126.635-5.317 0-9.941 1.908-13.544 4.625-5.51 5.625-8.226 12.138-6.415 19.575 5.51 27.993 57.489 67.12 138.579 102.455l-0.116-0.020zM0 960v34.133h-34.133v-34.133h34.133zM1024 960h34.133v34.133h-34.133v-34.133zM1024-64v-34.133h34.133v34.133h-34.133zM0-64h-34.133v-34.133h34.133v34.133zM0 925.867h1024v68.267h-1024v-68.267zM989.867 960v-1024h68.267v1024h-68.267zM1024-29.867h-1024v-68.267h1024v68.267zM34.133-64v1024h-68.267v-1024h68.267z" />
<glyph unicode="&#xe938;" glyph-name="icon-ppt" d="M437.477 466.070h42.865c40.062 0 70.042 7.844 89.935 23.535 19.889 15.968 29.836 39.083 29.836 69.338 0 30.539-8.404 53.091-25.214 67.661-16.531 14.568-42.585 21.853-78.165 21.853h-59.255v-182.387zM731.648 563.569c0-66.12-20.733-116.688-62.194-151.709-41.185-35.021-99.881-52.531-176.084-52.531h-55.893v-218.528h-130.277v614.4h196.256c74.523 0 131.116-16.11 169.779-48.328 38.943-31.939 58.412-79.707 58.412-143.303zM0 960v34.133h-34.133v-34.133h34.133zM1024 960h34.133v34.133h-34.133v-34.133zM1024-64v-34.133h34.133v34.133h-34.133zM0-64h-34.133v-34.133h34.133v34.133zM0 925.867h1024v68.267h-1024v-68.267zM989.867 960v-1024h68.267v1024h-68.267zM1024-29.867h-1024v-68.267h1024v68.267zM34.133-64v1024h-68.267v-1024h68.267z" />
<glyph unicode="&#xe939;" glyph-name="icon-txt" d="M329.467 311.467h-51.667v200.666h-66.166v43.001h183.999v-43.001h-66.166v-200.666zM630.132 311.467h-58.999l-56.665 92.167-56.668-92.167h-55.334l80.835 125.665-75.667 118.002h56.999l52.5-87.668 51.5 87.668h55.665l-76.5-120.835 82.333-122.832zM754.801 311.467h-51.668v200.666h-66.167v43.001h184.003v-43.001h-66.167v-200.666zM0 960v34.133h-34.133v-34.133h34.133zM1024 960h34.133v34.133h-34.133v-34.133zM1024-64v-34.133h34.133v34.133h-34.133zM0-64h-34.133v-34.133h34.133v34.133zM0 925.867h1024v68.267h-1024v-68.267zM989.867 960v-1024h68.267v1024h-68.267zM1024-29.867h-1024v-68.267h1024v68.267zM34.133-64v1024h-68.267v-1024h68.267z" />
<glyph unicode="&#xe93a;" glyph-name="icon-xls" d="M628.767 721.067l165.072-0.023-197.844-258.544 223.205-287.567h-171.329l-135.898 177.702-61.187-80.012h61.187v-97.686l-307.173 0.020 223.205 287.567-197.845 258.543h165.016l116.797-150.426 116.794 150.426zM0 960v34.133h-34.133v-34.133h34.133zM1024 960h34.133v34.133h-34.133v-34.133zM1024-64v-34.133h34.133v34.133h-34.133zM0-64h-34.133v-34.133h34.133v34.133zM0 925.867h1024v68.267h-1024v-68.267zM989.867 960v-1024h68.267v1024h-68.267zM1024-29.867h-1024v-68.267h1024v68.267zM34.133-64v1024h-68.267v-1024h68.267z" />
<glyph unicode="&#xe93b;" glyph-name="icon-zip" d="M424.506 471.433c0 19.937 7.919 39.055 22.016 53.149 14.094 14.097 33.212 22.016 53.149 22.016h75.162c19.937 0 39.055-7.919 53.149-22.016 14.097-14.094 22.016-33.212 22.016-53.149v-70.502l30.065-120.187c3.748-15.039 2.755-30.867-2.843-45.319-5.598-14.449-15.524-26.819-28.423-35.41l-69.905-46.602c-12.343-8.223-26.842-12.612-41.677-12.612s-29.334 4.39-41.68 12.612l-69.902 46.602c-12.885 8.602-22.798 20.975-28.382 35.424-5.581 14.452-6.564 30.273-2.813 45.305l30.068 120.187v70.502zM574.833 471.433h-75.162v-70.502c-0.003-6.158-0.761-12.291-2.256-18.265l-30.065-120.112 69.902-46.602 69.902 46.602-30.065 120.112c-1.498 5.973-2.253 12.107-2.256 18.265v70.502zM499.64 960h112.749v-75.164h-112.749v75.164zM424.479 884.836h112.746v-75.164h-112.746v75.164zM499.64 809.671h112.749v-75.164h-112.749v75.164zM424.479 734.507h112.746v-75.164h-112.746v75.164zM499.64 659.343h112.749v-75.165h-112.749v75.165zM0 960v34.133h-34.133v-34.133h34.133zM1024 960h34.133v34.133h-34.133v-34.133zM1024-64v-34.133h34.133v34.133h-34.133zM0-64h-34.133v-34.133h34.133v34.133zM0 925.867h1024v68.267h-1024v-68.267zM989.867 960v-1024h68.267v1024h-68.267zM1024-29.867h-1024v-68.267h1024v68.267zM34.133-64v1024h-68.267v-1024h68.267z" />
<glyph unicode="&#xe93c;" glyph-name="icon-rtf" d="M290.6 476.368h16.667c16.333 0 28.389 2.72 36.166 8.165 7.779 5.444 11.667 14.001 11.667 25.668 0 11.554-4 19.777-11.998 24.665-7.89 4.891-20.168 7.335-36.835 7.335h-15.667v-65.833zM290.6 434.367v-93.501h-51.667v243.668h71c33.11 0 57.611-6.055 73.5-18.166 15.889-12.001 23.832-30.28 23.832-54.835 0-14.333-3.942-27.109-11.831-38.332-7.892-11.11-19.057-19.835-33.502-26.167 36.666-54.777 60.556-90.167 71.666-106.168h-57.334l-58.165 93.501h-27.5zM558.268 340.866h-51.668v200.666h-66.167v43.001h183.999v-43.001h-66.164v-200.666zM712.765 340.866h-50.831v243.668h139.667v-42.332h-88.835v-62.836h82.668v-42.165h-82.668v-96.335zM0 960v34.133h-34.133v-34.133h34.133zM1024 960h34.133v34.133h-34.133v-34.133zM1024-64v-34.133h34.133v34.133h-34.133zM0-64h-34.133v-34.133h34.133v34.133zM0 925.867h1024v68.267h-1024v-68.267zM989.867 960v-1024h68.267v1024h-68.267zM1024-29.867h-1024v-68.267h1024v68.267zM34.133-64v1024h-68.267v-1024h68.267z" />
<glyph unicode="&#xe93d;" glyph-name="icon-country-report" horiz-adv-x="991" d="M286.278 684.732c0-16.516-7.34-29.133-22.021-37.848v-435.606c0-2.983-1.090-5.563-3.27-7.743-2.179-2.177-4.76-3.267-7.742-3.27h-22.021c-2.982 0-5.563 1.090-7.742 3.27s-3.269 4.76-3.27 7.743v435.606c-14.68 8.717-22.020 21.333-22.020 37.848 0 12.157 4.301 22.537 12.903 31.138s18.981 12.903 31.138 12.904c12.157 0.001 22.537-4.3 31.138-12.904s12.903-18.983 12.904-31.138h0.002zM792.764 662.712v-262.533c0-5.734-1.434-10.151-4.301-13.246-2.867-3.098-7.396-6.253-13.589-9.464-49.317-26.607-91.638-39.913-126.963-39.913-13.996 0-28.16 2.524-42.496 7.568s-26.779 10.551-37.33 16.516c-10.554 5.966-23.8 11.469-39.744 16.516-15.941 5.044-32.286 7.568-49.033 7.568-44.042 0-97.26-16.744-159.652-50.235-3.899-2.065-7.684-3.098-11.354-3.098-5.964 0-11.125 2.18-15.484 6.537-4.358 4.36-6.537 9.52-6.537 15.486v255.306c0 7.343 3.555 13.649 10.666 18.924 4.817 3.213 13.879 8.145 27.184 14.796 54.135 27.526 102.421 41.289 144.858 41.289 24.543 0 47.484-3.326 68.816-9.978 21.336-6.652 46.453-16.745 75.356-30.28 8.714-4.358 18.809-6.538 30.277-6.538 12.387 0 25.864 2.409 40.431 7.226s27.186 10.207 37.848 16.171c10.666 5.963 20.757 11.353 30.281 16.171s15.773 7.226 18.752 7.226c5.966 0 11.125-2.179 15.486-6.537 4.357-4.359 6.537-9.52 6.537-15.484l-0.010 0.007z" />
<glyph unicode="&#xe93e;" glyph-name="icon-data-source" horiz-adv-x="878" d="M691.899 405.118c-31.747-51.308-132.971-88.813-253.042-88.813-119.995 0-221.297 37.502-253.007 88.813-6.733 10.872-10.306 5.038-10.306-0.339 0-5.418 0-75.308 0-75.308 0-72.938 117.89-148.547 263.313-148.547 145.426 0 263.314 75.609 263.314 148.547 0 0 0 69.892 0 75.308 0 5.377-3.61 11.208-10.269 0.339h-0.003zM692.277 597.524c-31.185-45.366-132.86-78.617-253.42-78.617s-222.238 33.254-253.421 78.617c-6.47 9.368-9.893 4.286-9.893 0.035s0-88.623 0-88.623c0-66.317 117.889-120.033 263.314-120.033 145.423 0 263.314 53.716 263.314 120.033 0 0 0 84.372 0 88.623s-3.461 9.33-9.895-0.035zM438.857 842.97c-145.426 0-263.314-44.312-263.314-99.006v-47.358c0-58.005 117.889-105.024 263.314-105.024 145.423 0 263.314 47.019 263.314 105.024v47.321c0 54.732-117.892 99.044-263.314 99.044v-0.001z" />
<glyph unicode="&#xe93f;" glyph-name="icon-document1" horiz-adv-x="931" d="M279.273 804.848c-16.459 0-32.245-6.538-43.883-18.177s-18.177-27.424-18.177-43.883v-496.485c0-16.458 6.538-32.244 18.177-43.883s27.424-18.178 43.883-18.178h372.364c16.458 0 32.244 6.538 43.883 18.178s18.178 27.425 18.178 43.883v372.364l-186.182 186.182h-248.242zM279.273 742.788h217.212v-155.152h155.152v-341.333h-372.364v496.485zM341.333 494.545v-62.061h248.242v62.061h-248.242zM341.333 370.424v-62.061h155.152v62.061h-155.152z" />
<glyph unicode="&#xe940;" glyph-name="icon-faq" d="M506.184 378.887h-14.848c-0.481 26.798 0.724 46.831 3.622 60.109 3.137 13.278 10.984 31.502 23.535 54.675 12.797 23.415 21.125 42.124 24.986 56.125 4.103 14.244 6.154 31.744 6.154 52.504 0 32.106-6.274 55.763-18.828 70.971-12.551 15.208-27.399 22.812-44.537 22.812-13.036 0-24.020-3.5-32.949-10.5-6.762-5.311-10.141-10.863-10.141-16.656 0-3.863 2.294-9.897 6.881-18.105 10.38-18.588 15.568-34.4 15.568-47.435 0-11.827-4.103-21.726-12.308-29.689-7.967-7.967-17.985-11.95-30.054-11.95-13.52 0-24.863 4.707-34.038 14.121-9.172 9.656-13.759 22.33-13.759 38.021 0 28.484 12.312 53.468 36.932 74.952 24.624 21.484 59.023 32.226 103.199 32.226 46.831 0 82.435-11.225 106.817-33.675 24.624-22.209 36.932-49.124 36.932-80.747 0-22.931-6.274-44.175-18.828-63.727-12.551-19.313-36.813-40.796-72.779-64.454-24.143-15.933-40.073-30.174-47.797-42.728-7.485-12.308-12.070-31.259-13.759-56.849zM502.2 326.025c16.172 0 29.932-5.673 41.277-17.019s17.019-25.105 17.019-41.281c0-16.172-5.673-30.054-17.019-41.639-11.346-11.346-25.105-17.019-41.277-17.019-16.176 0-29.935 5.673-41.281 17.019-11.346 11.585-17.015 25.467-17.015 41.639 0 16.176 5.67 29.935 17.015 41.281s25.105 17.019 41.281 17.019z" />
<glyph unicode="&#xe941;" glyph-name="icon-news" d="M512 537.238h-115.2v-115.562h115.2v115.562zM550.4 344.637v-38.519h-192v38.519h192zM550.4 575.758v-192.601h-192v192.601h192zM742.4 344.637v-38.519h-153.6v38.519h153.6zM742.4 421.676v-38.519h-153.6v38.519h153.6zM742.4 498.719v-38.519h-153.6v38.519h153.6zM742.4 575.758v-38.519h-153.6v38.519h153.6zM281.6 286.857v288.901h-38.4v-288.901c0-5.216 1.9-9.731 5.7-13.544 3.8-3.809 8.3-5.717 13.5-5.717s9.7 1.908 13.5 5.717c3.8 3.813 5.7 8.329 5.7 13.544zM780.8 286.857v327.424h-460.8v-327.424c0-6.622-1.1-13.042-3.3-19.261h444.9c5.199 0 9.701 1.908 13.5 5.717 3.799 3.813 5.7 8.329 5.7 13.544zM819.2 652.8v-365.943c0-16.049-5.601-29.693-16.8-40.929-11.199-11.233-24.801-16.852-40.8-16.852h-499.2c-16 0-29.6 5.618-40.8 16.852-11.2 11.237-16.8 24.88-16.8 40.929v327.424h76.8v38.519h537.6z" />
<glyph unicode="&#xe942;" glyph-name="icon-newsletter" horiz-adv-x="931" d="M545.246 565.608h-199.478v-39.871h199.478v39.871zM425.559 645.356h-79.791v-39.874h79.791v39.874zM664.936 662.469v62.633h-87.779l-111.703 79.746-111.703-79.746h-87.778v-62.633l-79.792-56.987v-398.733h558.545v398.733l-79.791 56.987zM305.87 685.229h319.17v-152.522l-159.586-131.575-159.585 131.575v152.522zM226.078 525.737l157.112-119.389-157.112-119.851v239.241zM265.974 246.623l158.337 128.5 41.143-31.306 41.066 31.229 158.416-128.422h-398.962zM704.832 286.497l-157.327 119.659 157.327 119.581v-239.241z" />
<glyph unicode="&#xe943;" glyph-name="icon-photogallery" horiz-adv-x="991" d="M396.387 557.010c0-16.516-5.781-30.555-17.345-42.116-11.561-11.558-25.6-17.339-42.113-17.342-16.516 0-30.555 5.781-42.116 17.342-11.562 11.565-17.343 25.603-17.343 42.116s5.781 30.552 17.343 42.113c11.562 11.565 25.6 17.345 42.116 17.342 16.513 0 30.552-5.781 42.113-17.342 11.565-11.561 17.345-25.597 17.345-42.113zM713.497 438.097v-138.732h-436.026v59.455l99.097 99.097 49.548-49.548 158.555 158.552 128.826-128.823zM743.226 656.104h-495.486c-2.684 0-5.007-0.981-6.967-2.943s-2.942-4.284-2.943-6.967v-376.558c0-2.686 0.981-5.008 2.943-6.97 1.962-1.959 4.284-2.94 6.967-2.943h495.486c2.682 0 5.008 0.981 6.967 2.943 1.962 1.962 2.943 4.284 2.943 6.97v376.558c0 2.684-0.981 5.007-2.943 6.967s-4.284 2.942-6.967 2.943zM792.774 646.195v-376.559c0-13.626-4.852-25.289-14.554-34.994-9.705-9.702-21.369-14.554-34.994-14.554h-495.485c-13.625 0-25.29 4.852-34.993 14.554-9.704 9.705-14.555 21.369-14.554 34.994v376.559c0 13.625 4.851 25.289 14.554 34.993s21.367 14.555 34.993 14.554h495.485c13.626 0 25.289-4.851 34.994-14.554 9.702-9.703 14.554-21.367 14.554-34.993z" />
<glyph unicode="&#xe944;" glyph-name="icon-presentation" horiz-adv-x="931" d="M158.3 709.12h245.76c0 16.295 6.472 31.923 17.995 43.445s27.15 17.995 43.445 17.995c16.295 0 31.921-6.473 43.445-17.995s17.995-27.15 17.995-43.445h245.76v-61.44h-30.72v-337.92h-176.64l53.76-184.32h-61.44l-53.76 184.32h-76.8l-53.76-184.32h-61.44l53.76 184.32h-176.64v337.92h-30.72v61.44zM250.46 647.68v-276.48h430.080v276.48h-430.080zM581.014 554.834l-94.693-113.63-85.077 51.046-58.948-73.687-26.655 21.323 77.585 96.98 85.589-51.354 75.974 91.174 26.225-21.852z" />
<glyph unicode="&#xe945;" glyph-name="icon-pressrelease" horiz-adv-x="931" d="M668.56 184.242h-394.93c-31.143 0-56.418 25.277-56.418 56.419v507.769c0 31.143 25.275 56.418 56.418 56.418h394.93c31.145 0 56.419-25.275 56.419-56.418v-507.769c0-31.142-25.274-56.419-56.419-56.419zM668.56 748.43h-394.93v-507.769h394.93v507.769zM414.677 635.591h-84.629v56.42h84.629v-56.42zM414.677 522.755h-84.629v56.419h84.629v-56.419zM612.141 409.917h-282.093v56.419h282.093v-56.419zM612.141 297.081h-282.093v56.419h282.093v-56.419zM471.096 692.011h141.045v-169.256h-141.045v169.256z" />
<glyph unicode="&#xe946;" glyph-name="icon-publication" horiz-adv-x="931" d="M725.333 754.424h-190.061c-20.105-0.068-39.461-7.618-54.303-21.178-14.842 13.561-34.198 21.11-54.303 21.178h-190.061c-7.201 0-14.107-2.861-19.199-7.952s-7.952-11.998-7.952-19.199v-407.273c0-7.202 2.861-14.106 7.952-19.198s11.998-7.953 19.199-7.953h156.34c14.28 0 28.29-5.812 38.391-15.912l30.438-30.435c0.245-0.245 0.571-0.326 0.813-0.571 2.337-2.144 4.943-4.046 7.984-5.322h0.053c6.625-2.743 14.066-2.743 20.691 0h0.053c3.041 1.275 5.648 3.178 7.984 5.322 0.245 0.245 0.571 0.326 0.813 0.571l30.438 30.435c10.206 10.147 23.999 15.866 38.394 15.912h156.337c7.202 0 14.106 2.861 19.198 7.953s7.953 11.996 7.953 19.198v407.273c0 7.201-2.861 14.107-7.953 19.199s-11.996 7.952-19.198 7.952v0zM392.946 347.152h-129.188v352.97h162.909c14.988 0 27.152-12.191 27.152-27.152v-344.526c-17.988 12.13-39.176 18.643-60.872 18.708v0zM698.182 347.152h-129.185c-21.696 0-43.008-6.678-60.875-18.708v344.526c0 14.96 12.164 27.152 27.152 27.152h162.909v-352.97z" />
<glyph unicode="&#xe947;" glyph-name="icon-statistics-and-graphs" horiz-adv-x="931" d="M302.545 746.667h-38.788c-20.574 0-40.306-8.173-54.854-22.721s-22.721-34.28-22.721-54.854v-407.273c0-20.573 8.173-40.305 22.721-54.855 14.548-14.547 34.28-22.72 54.854-22.72h387.879c20.573 0 40.305 8.173 54.855 22.72 14.547 14.55 22.72 34.282 22.72 54.855v407.273c0 20.574-8.173 40.306-22.72 54.854-14.55 14.548-34.282 22.721-54.855 22.721h-38.788v-38.788h38.788c10.287 0 20.154-4.087 27.428-11.361s11.36-17.14 11.36-27.427v-407.273c0-10.287-4.087-20.154-11.36-27.428s-17.141-11.36-27.428-11.36h-387.879c-10.287 0-20.153 4.087-27.427 11.36s-11.361 17.141-11.361 27.428v407.273c0 10.287 4.087 20.153 11.361 27.427s17.14 11.361 27.427 11.361h38.788v38.788zM515.879 766.061v0c5.145 0 10.076-2.043 13.712-5.68 3.64-3.637 5.682-8.57 5.682-13.714v-38.788c0-5.144-2.042-10.076-5.682-13.714-3.637-3.637-8.567-5.68-13.712-5.68h-116.364c-5.145 0-10.076 2.043-13.712 5.68-3.64 3.637-5.682 8.57-5.682 13.714v38.788c0 5.144 2.042 10.076 5.682 13.714 3.637 3.637 8.567 5.68 13.712 5.68h116.364zM399.515 804.848c-15.431 0-30.23-6.13-41.14-17.041-10.913-10.911-17.042-25.71-17.042-41.141v-38.788c0-15.431 6.128-30.229 17.042-41.141 10.91-10.911 25.709-17.041 41.14-17.041h116.364c15.431 0 30.23 6.13 41.14 17.041 10.913 10.911 17.042 25.71 17.042 41.141v38.788c0 15.431-6.128 30.229-17.042 41.141-10.91 10.911-25.709 17.041-41.14 17.041h-116.364zM302.545 378.182c0 10.287 4.087 20.154 11.36 27.428s17.141 11.36 27.428 11.36c10.287 0 20.154-4.087 27.428-11.36s11.36-17.141 11.36-27.428v-38.788c0-10.287-4.087-20.154-11.36-27.428s-17.141-11.36-27.428-11.36c-10.287 0-20.154 4.087-27.428 11.36s-11.36 17.141-11.36 27.428v38.788zM535.273 533.333c0 10.287 4.087 20.154 11.36 27.428s17.141 11.36 27.428 11.36c10.287 0 20.154-4.087 27.428-11.36s11.36-17.141 11.36-27.428v-193.939c0-10.287-4.087-20.154-11.36-27.428s-17.141-11.36-27.428-11.36c-10.287 0-20.154 4.087-27.428 11.36s-11.36 17.141-11.36 27.428v193.939zM418.909 455.758c0 10.287 4.087 20.154 11.36 27.428s17.141 11.36 27.428 11.36c10.287 0 20.154-4.087 27.428-11.36s11.36-17.141 11.36-27.428v-116.364c0-10.287-4.087-20.154-11.36-27.428s-17.141-11.36-27.428-11.36c-10.287 0-20.154 4.087-27.428 11.36s-11.36 17.141-11.36 27.428v116.364z" />
<glyph unicode="&#xe948;" glyph-name="icon-video" horiz-adv-x="960" d="M713.008 570.384h-396.616c-15.398 0-15.641 5.184-0.539 8.246l397.682 79.176c15.101 3.063 10.97 32.936 7.968 48.349l-1.264 6.855c-3.002 15.414-17.664 25.544-32.755 22.425l-436.161-90.082c-15.092-3.119-27.302-18.343-27.279-34.058l0.054-48.608-0.099-6.486 1.066-324.717c0.044-15.706 12.574-31.299 27.973-31.299h459.968c15.386 0 22.992 18.454 22.992 34.16v312.982c0 15.718-7.606 23.056-22.992 23.056zM540.051 361.414l-92.701-53.869c-10.55-6.125-19.101-1.056-19.101 11.341v107.264c0 12.397 8.55 17.469 19.101 11.331l92.701-53.869c10.55-6.125 10.55-16.061 0-22.198z" />
<glyph unicode="&#xe949;" glyph-name="icon-pdf1" d="M810.953 360.871c-18.265 19.459-55.583 30.71-108.465 30.71-28.303 0-61.017-2.813-96.638-9.441-21.77 21.473-41.585 44.844-59.204 69.84-13.64 18.954-25.583 39.031-36.526 58.798 20.866 65.212 31 118.405 31 156.725 0 42.943-15.548 87.697-60.109 87.697-13.756 0-27.399-8.323-34.717-20.576-20.077-36.123-11.042-115.401 23.579-193.659-13.203-39.919-27.764-79.38-43.657-118.31-15.043-35.714-31.549-70.793-49.473-105.151-100.239-40.748-165.164-88.197-171.175-125.536-2.716-14.046 1.907-26.894 11.733-37.222 3.41-2.813 16.26-13.947 38.030-13.947 66.524 0 136.574 109.872 172.291 176.203 27.3 9.23 54.695 17.667 81.978 26.085 28.826 7.96 58.030 14.493 87.504 19.575 70.24-64.328 132.14-74.462 163.256-74.462 38.339 0 51.978 15.855 56.603 28.802 7.223 16.763 1.809 35.219-6.417 44.756l0.502-1.004-0.096 0.116zM775.427 333.783c-2.717-13.947-16.456-23.272-35.625-23.272-5.414 0-10.035 1-15.544 1.812-34.929 8.438-67.625 26.18-100.239 54.193 25.3 4.246 50.906 6.393 76.561 6.414 18.958 0 35.43-0.905 46.449-3.717 12.64-2.717 32.713-11.233 28.204-35.526h0.502l-0.307 0.096zM582.171 377.631c-25.385-5.181-50.616-11.104-75.657-17.763-21.78-5.915-43.363-12.537-64.71-19.862 11.083 21.955 21.422 44.278 30.996 66.929 11.039 26.184 20.074 53.173 29.208 78.278 8.94-15.759 18.958-31.614 28.993-45.756 16.452-22.368 33.618-43.657 50.883-62.208v0.498l0.287-0.116zM462.65 724.009c1.604 3.287 4.082 6.072 7.158 8.052 3.079 1.98 6.639 3.080 10.295 3.18 19.169 0 22.774-22.271 22.774-40.13 0-29.997-9.134-75.56-24.682-127.538-27.296 72.438-29.088 133.048-15.449 156.436h-0.096zM362.411 289.935c-46.451-78.162-91.108-126.635-118.504-126.635-5.317 0-9.941 1.908-13.544 4.625-5.51 5.625-8.226 12.138-6.415 19.575 5.51 27.993 57.489 67.12 138.579 102.455l-0.116-0.020z" />
<glyph unicode="&#xe94a;" glyph-name="icon-external-doc" d="M785.046 694.834c0.273 6.788-2.178 13.667-7.363 18.85-5.181 5.183-12.059 7.637-18.848 7.362-0.358 0.014-0.717 0.021-1.075 0.021h-163.84c-15.080 0-27.307-12.226-27.307-27.307s12.227-27.307 27.307-27.307h100.888l-230.038-230.038c-9.844-9.844-9.844-25.801 0-35.645s25.801-9.844 35.645 0l230.038 230.037v-100.887c0-15.080 12.227-27.307 27.307-27.307s27.307 12.227 27.307 27.307v163.84c0 0.36-0.007 0.718-0.020 1.074zM322.46 592.565c-7.384 0-14.466-2.932-19.687-8.154s-8.155-12.305-8.155-19.688v-306.261c0-7.386 2.933-14.466 8.155-19.688s12.303-8.154 19.687-8.154h306.263c7.383 0 14.466 2.932 19.688 8.154s8.154 12.302 8.154 19.688v167.052c0 15.377 12.465 27.843 27.843 27.843s27.843-12.465 27.843-27.843v-167.052c0-22.153-8.8-43.401-24.467-59.064-15.664-15.664-36.908-24.463-59.061-24.463h-306.263c-22.153 0-43.398 8.8-59.062 24.463s-24.464 36.912-24.464 59.064v306.261c0 22.153 8.8 43.397 24.464 59.062 15.664 15.664 36.909 24.464 59.062 24.464h167.053c15.377 0 27.843-12.465 27.843-27.842s-12.465-27.842-27.843-27.842h-167.053zM0 960v34.133h-34.133v-34.133h34.133zM1024 960h34.133v34.133h-34.133v-34.133zM1024-64v-34.133h34.133v34.133h-34.133zM0-64h-34.133v-34.133h34.133v34.133zM0 925.867h1024v68.267h-1024v-68.267zM989.867 960v-1024h68.267v1024h-68.267zM1024-29.867h-1024v-68.267h1024v68.267zM34.133-64v1024h-68.267v-1024h68.267z" />
<glyph unicode="&#xe94b;" glyph-name="icon-related-pub" d="M315.733 755.2c-42.112 0-76.8-34.688-76.8-76.8v-460.8c0-42.11 34.688-76.8 76.8-76.8h435.2v614.4h-435.2zM315.733 704h384v-409.6h-384c-8.748-0.109-17.41-1.737-25.6-4.813v388.813c0 14.49 11.11 25.6 25.6 25.6zM366.933 627.2v-51.2h281.6v51.2h-281.6zM315.733 243.2h384v-51.2h-384c-14.49 0-25.6 11.11-25.6 25.6s11.11 25.6 25.6 25.6z" />
<glyph unicode="&#xe94c;" glyph-name="policy-instruments" horiz-adv-x="956" d="M190.118 959.999c158.649 0 317.297 0 475.946 0 2.836-3.065 5.615-6.185 8.52-9.185 85.647-88.499 171.38-176.92 256.771-265.667 3.912-4.068 6.789-11.020 6.796-16.632 0.335-220.233 0.287-440.464 0.287-660.696 0-4.431 0-8.858 0-14.343-4.611 0-7.96 0-11.308 0-242.149 0-484.297-0.034-726.444 0.208-4.456 0.003-8.911 3.164-15.808 5.769-18.855-20.012-40.069-42.527-59.786-63.454-36.31 35.84-71.621 70.697-107.533 106.148 2.516 2.27 5.639 5.011 8.682 7.834 52.102 48.391 104.305 96.676 156.075 145.415 4.063 3.826 7.213 10.831 7.229 16.364 0.375 141.008 0.226 282.016 0.268 423.023 0.032 108.408 0.199 216.812 0.307 325.217zM722.083 454.877c-48.422-48.022-97.423-96.614-147.818-146.599-15.978 16.278-32.925 33.543-50.060 51.002-1.734-1.516-2.925-2.396-3.929-3.458-82.357-87.426-164.792-174.776-246.759-262.56-4.241-4.543-4.44-12.81-6.806-20.221 199.61 0 395.795 0 592.553 0 0.232 4.106 0.584 7.438 0.584 10.776 0.027 182.32-0.044 364.636 0.218 546.949 0.014 9.446-2.669 12.175-12.158 12.127-71.305-0.359-142.612-0.195-213.917-0.193-4.461 0-8.922 0-14.698 0 0 80.112 0 158.778 0 238.11-117.419 0-233.513 0-349.906 0 0-201.434 0-402.149 0-604.785 59.258 55.153 116.966 108.868 176.457 164.239-18.541 17.657-35.813 34.103-52.34 49.835 49.534 49.135 98.492 97.696 146.705 145.52 60.235-59.862 121.368-120.616 181.873-180.742zM806.423 701.664c-43.216 44.605-84.579 87.296-127.437 131.535 0-45.81 0-88.387 0-131.535 42.045 0 83.306 0 127.437 0z" />
<glyph unicode="&#xe94d;" glyph-name="self-reflection" horiz-adv-x="841" d="M290.037 396.473c82.094 0 148.884 67.343 148.884 150.111 0 82.771-66.79 150.114-148.884 150.114s-148.885-67.343-148.885-150.114c0-82.768 66.792-150.111 148.885-150.111zM489.8 323.744c-0.069 0.026-0.187 0.073-0.26 0.073-19.379 4.776-78.746 13.144-78.746 13.144-6.693 2.070-13.861-1.496-16.267-8.177l-89.354-247.168c-5.163-14.263-25.156-14.263-30.319 0l-89.355 247.168c-1.957 5.398-6.979 8.773-12.378 8.773-1.273 0-62.313-8.631-82.636-13.718-55.522-13.93-90.557-68.959-90.557-126.34v-205.667c0-30.83 24.779-55.815 55.357-55.815h469.384c30.577 0 55.358 24.986 55.358 55.815v206.354c0 57.121-36.381 107.824-90.229 125.557zM323.728 341.59c-3.56 3.92-8.77 5.895-14.051 5.895h-39.326c-5.281 0-10.492-1.975-14.051-5.895-5.517-6.064-6.318-14.833-2.405-21.68l21.030-31.974-9.855-83.719 19.38-51.986c1.886-5.23 9.219-5.23 11.105 0l19.38 51.986-9.855 83.719 21.030 31.974c3.914 6.846 3.136 15.616-2.381 21.68zM522.019 740.527c0-24.238-19.482-43.886-43.509-43.886s-43.509 19.648-43.509 43.886c0 24.238 19.482 43.886 43.509 43.886s43.509-19.648 43.509-43.886zM841.072 886.84c0-40.396-71.42-73.143-159.528-73.143-88.104 0-159.525 32.747-159.525 73.143s71.42 73.144 159.525 73.144c88.108 0 159.528-32.747 159.528-73.144z" />
<glyph unicode="&#xe94e;" glyph-name="table" d="M0 768v-704h1024v704h-1024zM384 320v128h256v-128h-256zM640 256v-128h-256v128h256zM640 640v-128h-256v128h256zM320 640v-128h-256v128h256zM64 448h256v-128h-256v128zM704 448h256v-128h-256v128zM704 512v128h256v-128h-256zM64 256h256v-128h-256v128zM704 128v128h256v-128h-256z" />
<glyph unicode="&#xe94f;" glyph-name="people-ambassadors" d="M549.321 689.282c9.646 19.513 9.683 19.802 31.59 16.946 8.64-1.126 14.644 1.104 20.841 7.561 25.538 26.617 51.961 52.378 77.512 78.983 7.946 8.274 15.085 17.662 21.021 27.5 24.736 40.994 48.748 82.43 73.371 123.494 3.624 6.049 9.104 10.973 13.725 16.418 3.977 0 7.954 0 11.93 0 2.609-1.387 5.286-2.655 7.811-4.182 9.683-5.857 12.826-14.417 7.966-24.724-24.691-52.325-49.22-104.738-74.854-156.595-5.476-11.079-15.125-20.124-23.145-29.863-29.157-35.424-58.531-70.669-87.525-106.228-2.89-3.545-4.945-8.649-5.381-13.22-12.967-136.104-18.301-272.623-22.339-409.231-2.611-88.293-6.375-176.55-9.336-264.834-0.283-8.496-3.296-13.974-11.62-14.229-14.849-0.454-29.753-0.344-44.582 0.482-7.278 0.405-7.757 6.963-7.91 12.901-1.178 45.319-2.406 90.639-3.589 135.956-2.106 80.647-4.122 161.292-6.401 241.933-0.201 7.087 2.124 17.482-9.281 17.604-11.383 0.121-9.423-10.158-9.611-17.353-3.045-116.301-5.902-232.609-8.842-348.914-0.269-10.663-0.878-21.316-1.213-31.977-0.199-6.332-3.233-10.307-9.51-10.583-12.896-0.564-25.846-1.31-38.719-0.739-12.812 0.57-15.185 4.029-15.637 16.682-4.354 121.923-8.772 243.841-13.17 365.762-1.491 41.305-2.078 82.669-4.672 123.905-3.85 61.182-8.99 122.285-14.026 183.384-0.398 4.824-3.471 10.022-6.658 13.926-33.643 41.204-67.634 82.121-101.321 123.287-4.363 5.332-8.207 11.314-11.202 17.525-22.664 47.027-45.026 94.201-67.542 141.298-10.245 21.436-8.504 27.261 11.718 38.024 3.314 0 6.626 0 9.941 0 5.045-5.028 11.362-9.282 14.93-15.211 25.552-42.442 50.401-85.313 75.846-127.822 4.722-7.887 10.481-15.389 16.867-21.984 26.126-26.975 52.99-53.233 78.883-80.427 7.305-7.672 14.56-9.817 24.482-8.21 19.055 3.085 19.081 2.756 27.466-14.222 0 0 46.938 12.211 82.19-3.024zM141.511 559.723c9.274-2.143 18.312-5.375 25.089-7.468-9.566-67.207-20.18-133.020-12.751-201.571-4.875 0-8.411 0-11.95 0-43.694 0.005-87.388 0.029-131.080-0.021-3.607-0.005-7.212-0.502-10.819-0.773 0 6.003 0 12.006 0 18.008 1.292 19.847 2.823 39.681 3.824 59.541 1.573 31.265 2.746 62.551 4.172 93.826 0.704 15.456 4.351 20.081 18.635 24.251 16.497 4.816 32.919 9.927 49.552 14.209 0 0 31.867 7.735 65.329-0.001zM316.927 550.327c18.189-4.891 36.317-10.095 54.246-15.891 2.703-0.874 5.974-5.105 6.161-7.968 4.394-67.126 8.433-134.279 12.425-201.43 0.394-6.605 0.051-13.256 0.051-20.844-70.326 0-140.917 0-211.587 0-7.539 59.819-6.436 118.539 1.84 177.185 1.487 10.541 2.124 21.204 3.158 31.809 1.41 14.465 4.72 18.584 18.23 22.592 15.851 4.701 31.857 8.933 47.497 14.255 0 0 36.949 8.64 67.981 0.292zM65.625 642.362c-0.376 30.052 20.053 49.109 46.822 47.489 24.791-1.5 43.128-23.889 39.739-48.788-2.499-18.372-7.963-35.742-19.416-50.59-14.71-19.069-33.228-19.105-47.761 0.058-12.38 16.326-18.074 35.249-19.385 51.831zM240.702 635.24c0.092 26.289 19.006 44.936 42.727 45.148 24.64 0.223 44.479-17.806 44.299-41.387-0.161-21.15-6.643-40.686-19.361-57.615-14.725-19.606-33.661-19.518-48.366 0.182-12.459 16.694-18.003 36.035-19.299 53.673zM882.489 559.723c-9.274-2.143-18.312-5.375-25.089-7.468 9.566-67.207 20.18-133.020 12.751-201.571 4.875 0 8.41 0 11.95 0 43.694 0.005 87.388 0.029 131.080-0.021 3.607-0.005 7.212-0.502 10.819-0.773 0 6.003 0 12.006 0 18.008-1.292 19.847-2.823 39.681-3.823 59.541-1.573 31.265-2.746 62.551-4.172 93.826-0.704 15.456-4.35 20.081-18.634 24.251-16.497 4.816-32.919 9.927-49.552 14.209 0 0-31.867 7.735-65.329-0.001zM707.073 550.327c-18.189-4.891-36.317-10.095-54.247-15.891-2.702-0.874-5.973-5.105-6.159-7.968-4.394-67.126-8.433-134.279-12.425-201.43-0.394-6.605-0.052-13.256-0.052-20.844 70.326 0 140.917 0 211.587 0 7.541 59.819 6.437 118.539-1.838 177.185-1.487 10.541-2.124 21.204-3.158 31.809-1.41 14.465-4.72 18.584-18.23 22.592-15.851 4.701-31.857 8.933-47.498 14.255 0 0-36.947 8.64-67.979 0.292zM958.375 642.362c0.375 30.052-20.053 49.109-46.822 47.489-24.792-1.5-43.128-23.889-39.74-48.788 2.499-18.372 7.963-35.742 19.417-50.59 14.71-19.069 33.226-19.105 47.76 0.058 12.38 16.326 18.074 35.249 19.385 51.831zM783.299 635.24c-0.092 26.289-19.007 44.936-42.728 45.148-24.639 0.223-44.477-17.806-44.298-41.387 0.161-21.15 6.643-40.686 19.36-57.615 14.727-19.606 33.661-19.518 48.367 0.182 12.459 16.694 18.002 36.035 19.299 53.673zM508.478 892.894c41.274 0.344 67.218-30.195 60.843-71.438-3.77-24.376-11.288-47.315-26.193-67.153-20.68-27.521-47.543-27.615-68.216 0.035-16.963 22.688-25.704 48.911-27.087 77.055-1.774 36.146 23.591 61.192 60.653 61.502z" />
<glyph unicode="&#xe950;" glyph-name="bubble" horiz-adv-x="1207" d="M436.245 536.817c0 46.365-37.225 83.591-83.592 83.591s-83.592-37.226-83.592-83.591c0-46.369 37.225-83.591 83.592-83.591s83.592 37.222 83.592 83.591zM687.020 536.817c0 46.365-37.222 83.591-83.591 83.591s-83.591-37.226-83.591-83.591c0-46.369 37.222-83.591 83.591-83.591s83.591 37.222 83.591 83.591zM937.797 536.817c0 46.365-37.226 83.591-83.595 83.591-46.365 0-83.591-37.226-83.591-83.591 0-46.369 37.226-83.591 83.591-83.591 46.369 0 83.595 37.222 83.595 83.591zM603.429 871.184c271.675 0 501.552-152.815 501.552-334.366s-229.877-334.369-501.552-334.369c-28.083 0-56.817 1.96-84.897 5.226l-37.226 3.917-28.080-24.817c-53.553-47.020-113.634-84.242-179.594-111.671 16.98 30.040 33.306 65.957 45.714 112.325l17.633 62.694-56.817 32.651c-112.979 64-178.286 156.738-178.286 254.043 0 181.552 229.878 334.366 501.551 334.366zM1188.571 536.817c0 230.529-261.877 417.958-585.143 417.958s-585.143-187.429-585.143-417.958c0-132.571 86.204-250.778 220.735-327.186-30.694-109.060-77.714-148.242-118.857-194.611-9.796-11.754-20.898-21.552-17.633-37.877 0 0 0 0 0-0.655 3.265-14.365 15.021-24.814 28.082-24.814 0.653 0 1.959 0 3.265 0 25.469 3.266 50.939 7.837 74.449 14.365 112.979 28.734 214.857 82.286 300.408 158.043 30.694-3.266 62.694-5.226 94.694-5.226 323.266 0 585.143 186.774 585.143 417.96z" />
<glyph unicode="&#xe951;" glyph-name="eye" d="M512 768c-223.318 0-416.882-130.042-512-320 95.118-189.958 288.682-320 512-320 223.312 0 416.876 130.042 512 320-95.116 189.958-288.688 320-512 320zM764.45 598.296c60.162-38.374 111.142-89.774 149.434-150.296-38.292-60.522-89.274-111.922-149.436-150.296-75.594-48.218-162.89-73.704-252.448-73.704-89.56 0-176.858 25.486-252.452 73.704-60.158 38.372-111.138 89.772-149.432 150.296 38.292 60.524 89.274 111.924 149.434 150.296 3.918 2.5 7.876 4.922 11.86 7.3-9.96-27.328-15.41-56.822-15.41-87.596 0-141.382 114.616-256 256-256 141.382 0 256 114.618 256 256 0 30.774-5.452 60.268-15.408 87.598 3.978-2.378 7.938-4.802 11.858-7.302v0zM512 544c0-53.020-42.98-96-96-96s-96 42.98-96 96 42.98 96 96 96 96-42.982 96-96z" />
<glyph unicode="&#xe952;" glyph-name="book-with-bookmark" horiz-adv-x="905" d="M848.493 960h-684.285c-79.998-0.021-145.075-65.111-145.075-145.101v-733.801c0-79.991 65.081-145.081 145.085-145.098h684.28c18.007 0 32.599 14.597 32.599 32.6v958.801c-0.005 18.003-14.596 32.599-32.604 32.599zM329.952 894.802v-165.552l-10.47 10.476c-6.111 6.116-14.404 9.549-23.054 9.549s-16.942-3.438-23.058-9.554l-10.458-10.462v165.543h67.041zM164.217 894.802h33.499v-244.251c0-18.003 14.617-32.599 32.625-32.599 8.65 0 16.942 3.433 23.058 9.554l43.035 43.056 43.049-43.061c6.111-6.116 14.404-9.549 23.053-9.549h0.018c18.007 0 32.599 14.596 32.599 32.599v244.251h420.744v-668.603h-651.69c-29.495-0.009-56.952-8.884-79.877-24.072v612.772c0 44.043 35.842 79.889 79.886 79.902zM164.226 1.198c-44.057 0.009-79.895 35.851-79.895 79.899s35.842 79.894 79.886 79.907h651.68v-159.807h-651.672z" />
<glyph unicode="&#xe953;" glyph-name="bullseye" horiz-adv-x="1043" d="M423.022 633.176c-156.395 0-283.635-127.238-283.635-283.634s127.238-283.632 283.635-283.632c156.396 0 283.634 127.237 283.634 283.632 0 69.642-25.245 133.489-67.045 182.907l-33.799-33.798c33.245-40.676 53.215-92.603 53.215-149.112 0-130.133-105.869-236.002-236.005-236.002s-236.006 105.872-236.006 236.002c0 130.132 105.872 236.007 236.005 236.007 56.509 0 108.433-19.971 149.111-53.215l33.799 33.799c-49.417 41.801-113.263 67.045-182.907 67.045zM1031.669 829.134c-3.686 8.896-12.37 14.7-22.002 14.7h-92.352v92.352c0 9.633-5.801 18.315-14.701 22.002-8.902 3.683-19.141 1.645-25.952-5.162l-93.275-93.274c-4.465-4.468-6.975-10.525-6.975-16.84v-106.303l-78.236-78.235c-75.794 67.684-172.593 104.71-275.154 104.71-110.546 0-214.42-42.994-292.483-121.058-78.065-78.065-121.058-181.937-121.058-292.484s42.994-214.419 121.059-292.484c78.063-78.065 181.935-121.059 292.482-121.059s214.418 42.997 292.483 121.060c78.065 78.065 121.060 181.937 121.060 292.484 0 102.559-37.030 199.36-104.712 275.152l78.238 78.238h106.301c6.316 0 12.374 2.51 16.839 6.976l93.277 93.274c6.808 6.809 8.847 17.051 5.161 25.951zM423.022-16.371c-201.763 0-365.913 164.148-365.913 365.913 0 201.763 164.15 365.912 365.913 365.912 92.332 0 176.769-34.39 241.221-91.013l-150.735-150.735c-25.405 18.565-56.678 29.56-90.484 29.56-84.763 0-153.724-68.96-153.724-153.724 0-84.761 68.96-153.724 153.724-153.724 84.763 0 153.723 68.961 153.723 153.724 0 33.807-10.996 65.080-29.56 90.486l150.734 150.734c56.624-64.45 91.015-148.89 91.015-241.221-0.001-201.764-164.148-365.912-365.914-365.912zM406.183 366.385c-9.3-9.302-9.3-24.38 0-33.681 4.651-4.648 10.744-6.974 16.839-6.974s12.189 2.326 16.839 6.974l73.068 73.068c10.24-16.315 16.186-35.585 16.186-56.23 0-58.502-47.595-106.094-106.095-106.094-58.502 0-106.096 47.59-106.096 106.094s47.594 106.096 106.096 106.096c20.643 0 39.915-5.946 56.23-16.187l-73.067-73.066zM857.717 750.56l45.648 45.647h48.81l-45.647-45.647h-48.811zM824.038 833.046l45.647 45.65v-48.81l-45.647-45.648v48.808z" />
<glyph unicode="&#xe954;" glyph-name="file-pdf" horiz-adv-x="904" d="M784.51 367.71c-13.782 13.44-44.273 20.576-90.741 21.184-31.43 0.352-69.281-2.4-109.069-7.936-17.812 10.208-36.206 21.28-50.598 34.656-38.787 35.904-71.153 85.76-91.353 140.608 1.323 5.12 2.42 9.632 3.485 14.208 0 0 21.846 123.072 16.070 164.672-0.807 5.696-1.291 7.36-2.839 11.808l-1.904 4.832c-5.937 13.6-17.587 28-35.851 27.2l-11.004 0.352c-20.361 0-36.98-10.336-41.336-25.76-13.263-48.448 0.42-120.896 25.202-214.752l-6.357-15.296c-17.748-42.88-39.949-86.048-59.568-124.16l-2.549-4.96c-20.62-40.032-39.368-74.016-56.309-102.816l-17.522-9.184c-1.29-0.672-31.301-16.416-38.335-20.64-59.762-35.392-99.356-75.552-105.907-107.421-2.097-10.18-0.549-23.203 10.1-29.22l16.941-8.445c7.357-3.65 15.102-5.506 23.040-5.506 42.563 0 91.967 52.573 160.022 170.368 78.575 25.376 168.056 46.464 246.47 58.079 59.762-33.376 133.239-56.543 179.641-56.543 8.228 0 15.33 0.767 21.106 2.303 8.903 2.337 16.39 7.36 20.974 14.208 8.999 13.44 10.806 31.936 8.391 50.88-0.747 5.632-5.265 12.576-10.168 17.312l-0.030-0.032zM148.844 143.137c7.777 21.052 38.464 62.653 83.899 99.549 2.839 2.304 9.874 8.832 16.328 14.912-47.5-75.136-79.317-105.058-100.227-114.461zM417.87 757.502c13.682 0 21.459-34.208 22.104-66.24s-6.905-54.56-16.295-71.2c-7.777 24.64-11.52 63.488-11.52 88.896 0 0-0.581 48.544 5.712 48.544zM337.617 319.678c9.519 16.928 19.458 34.752 29.591 53.664 24.686 46.304 40.304 82.56 51.92 112.352 23.104-41.696 51.888-77.12 85.706-105.504 4.227-3.552 8.681-7.104 13.392-10.656-68.797-13.504-128.237-29.92-180.577-49.856h-0.032zM771.277 323.518c-4.192-2.593-16.197-4.096-23.907-4.096-24.913 0-55.73 11.296-98.938 29.663 16.618 1.216 31.817 1.825 45.467 1.825 24.974 0 32.395 0.096 56.827-6.080 24.425-6.176 24.751-18.72 20.552-21.344v0.032zM860.967 730.912c-22.395 30.304-53.634 65.696-87.901 99.712s-69.993 64.96-100.551 87.168c-52.019 37.824-77.218 42.208-91.675 42.208h-500.168c-44.467 0-80.673-35.872-80.673-80v-864.002c0-44.092 36.173-79.998 80.673-79.998h742.184c44.466 0 80.673 35.906 80.673 79.998v624.002c0 14.336-4.421 39.36-42.562 90.912zM727.438 785.376c30.949-30.688 55.248-58.4 73.186-81.376h-155.244v153.952c23.166-17.792 51.116-41.888 82.059-72.576zM838.993 15.998c0-8.668-7.391-15.998-16.137-15.998h-742.184c-8.745 0-16.135 7.331-16.135 15.998v864.002c0 8.671 7.39 16 16.135 16 0 0 500.135 0 500.168 0v-224c0-17.664 14.456-32 32.27-32h225.882v-624.002z" />
<glyph unicode="&#xe955;" glyph-name="group" d="M930.817 542.38c15.418 23.038 24.918 51.141 24.918 81.976 0 79.645-56.888 142.222-130.845 142.222s-130.845-62.577-130.845-142.222c0-30.777 9.5-58.879 24.918-81.976-21.675-7.565-40.96-20.253-56.319-36.978 1.877 10.808 2.959 22.015 2.959 33.565 0 96.711-68.268 170.668-153.599 170.668s-153.599-73.954-153.599-170.668c0-11.55 1.082-22.754 2.959-33.565-15.418 16.67-34.7 29.41-56.319 36.978 15.418 23.038 24.918 51.141 24.918 81.976 0 79.645-56.888 142.222-130.845 142.222s-130.845-62.577-130.845-142.222c0-30.777 9.5-58.879 24.918-81.976-53.423-18.661-93.19-69.746-93.19-128.514v-96.711c0-17.065 11.377-28.446 28.446-28.446s28.446 11.377 28.446 28.446v96.711c0 45.511 34.134 79.645 79.645 79.645h11.377c0 0 0 0.739 0 0.798 16.042-7.735 33.395-12.175 51.2-12.175s35.157 4.436 51.2 12.175v-0.798h11.377c45.511 0 79.645-34.134 79.645-79.645 0-1.138 0.454-1.991 0.513-3.014-41.474-29.982-68.778-78.449-68.778-133.516v-119.468c0-17.065 11.377-28.446 28.446-28.446 17.065 0 28.446 11.377 28.446 28.446v119.468c0 56.888 51.2 108.088 108.088 108.088h7.169c20.197-10.638 42.667-17.065 66.787-17.065s46.534 6.427 66.787 17.065h7.169c56.888 0 108.088-51.2 108.088-108.088v-119.468c0-17.065 11.377-28.446 28.446-28.446 17.065 0 28.446 11.377 28.446 28.446v119.468c0 55.012-27.308 103.537-68.778 133.516 0.114 1.082 0.513 1.935 0.513 3.014 0 45.511 34.134 79.645 79.645 79.645h11.377c0 0 0 0.739 0 0.798 16.042-7.735 33.395-12.175 51.2-12.175s35.157 4.436 51.2 12.175v-0.798h11.377c45.511 0 79.645-34.134 79.645-79.645v-96.711c0-17.065 11.377-28.446 28.446-28.446s28.446 11.377 28.446 28.446v96.711c-0.013 58.824-39.836 109.853-93.196 128.514zM125.157 624.356c0 45.511 34.134 85.334 73.954 85.334s73.954-39.823 73.954-85.334-34.134-85.334-73.954-85.334-73.954 39.823-73.954 85.334zM415.289 539.022c0 62.577 45.511 113.776 96.711 113.776s96.711-51.2 96.711-113.776-39.823-113.776-96.711-113.776-96.711 51.2-96.711 113.776zM750.933 624.356c0 45.511 34.134 85.334 73.954 85.334s73.954-39.823 73.954-85.334-34.134-85.334-73.954-85.334-73.954 39.823-73.954 85.334z" />
<glyph unicode="&#xe956;" glyph-name="icon_lightbulb-2" horiz-adv-x="768" d="M743.875 444.042c4.541 12.133 8.315 24.652 11.581 37.235 0.573 2.172 1.28 4.216 1.792 6.387 2.877 11.816 4.925 23.888 6.656 36.024 0.384 2.81 1.085 5.621 1.408 8.431 1.725 14.755 2.688 29.637 2.688 44.647 0 211.29-172.288 383.234-384 383.234s-384-171.944-384-383.234c0-15.010 0.96-29.892 2.752-44.583 0.32-2.874 0.96-5.621 1.344-8.431 1.728-12.136 3.776-24.207 6.656-36.024 0.512-2.172 1.216-4.28 1.792-6.387 3.264-12.583 7.040-25.102 11.584-37.238 0.448-1.152 0.96-2.299 1.344-3.451 5.056-13.092 10.688-25.933 17.152-38.385 0.256-0.512 0.512-0.957 0.768-1.408 6.72-12.902 14.144-25.421 22.336-37.555 0.256-0.384 0.512-0.701 0.704-1.085 8-11.817 16.704-23.122 25.984-34.043 0.768-0.896 1.472-1.725 2.24-2.621 8.448-9.769 17.6-19.031 27.072-27.976 2.112-1.976 4.096-3.958 6.272-5.873 2.816-2.493 5.312-5.304 8.256-7.731 1.728-1.469 3.84-2.427 5.76-3.64 6.336-5.238 12.352-10.732 19.072-15.585 2.688-1.915 4.352-3.768 6.656-5.683 44.16-36.598 22.592-65.536 71.744-65.536 6.848 0 224.512 0 289.024 0 49.085 0 27.581 28.938 71.808 65.536 2.304 1.915 3.968 3.702 6.656 5.683 6.717 4.854 12.733 10.348 19.072 15.585 1.853 1.275 3.968 2.171 5.76 3.64 2.877 2.427 5.437 5.238 8.253 7.731 2.115 1.915 4.163 3.958 6.272 5.873 9.477 8.945 18.56 18.207 27.075 27.976 0.768 0.896 1.475 1.725 2.237 2.621 9.283 10.921 17.987 22.226 25.989 34.043 0.256 0.384 0.507 0.701 0.701 1.085 8.131 12.073 15.549 24.591 22.272 37.494 0.256 0.445 0.512 0.957 0.768 1.403 6.461 12.457 12.099 25.298 17.152 38.39 0.384 1.213 0.896 2.299 1.347 3.451zM610.237 573.765c-17.664 0-32 14.307-32 31.936 0 97.341-87.997 162.682-159.997 162.682-17.664 0-32 14.308-32 31.937s14.336 31.936 32 31.936c110.016 0 223.997-80.862 223.997-226.555 0-17.629-14.331-31.936-32-31.936zM380.096 1.915h-140.608l115.392-58.89c9.152-4.659 19.136-7.025 29.12-7.025 9.856 0 19.776 2.299 28.864 6.835l117.056 59.080h-149.824zM578.237 97.725c0 17.628-14.331 31.933-32 31.933h-319.997c-17.664 0-32-14.305-32-31.933s14.336-31.939 32-31.939h319.997c17.669 0 32 14.31 32 31.939z" />
<glyph unicode="&#xe957;" glyph-name="icon_question" horiz-adv-x="666" d="M247.104 46.981c0-22.641 9.029-44.36 25.1-60.375 16.071-16.010 37.868-25.006 60.596-25.006s44.525 8.996 60.596 25.006c16.071 16.015 25.1 37.734 25.1 60.375 0 11.213-2.216 22.318-6.523 32.676s-10.619 19.773-18.576 27.699c-7.958 7.931-17.404 14.218-27.802 18.509s-21.541 6.502-32.795 6.502c-11.254 0-22.397-2.212-32.795-6.502s-19.844-10.578-27.802-18.509c-7.958-7.926-14.27-17.341-18.576-27.699s-6.523-21.463-6.523-32.676zM483.808 369.285c120.557 66.15 181.792 162.059 181.792 284.994 0 211.137-167.149 305.721-332.8 305.721-161.325 0-332.8-116.801-332.8-333.325 0-45.759 37.19-82.896 83.2-82.896s83.2 37.137 83.2 82.896c0 115.143 86.278 167.533 166.4 167.533 62.15 0 166.4-18.154 166.4-139.929 0-43.189-11.399-93.59-95.597-139.846-57.242-31.251-154.003-112.406-154.003-217.602 0-45.757 37.19-82.898 83.2-82.898s83.2 37.14 83.2 82.898c0 15.416 32.864 53.299 67.808 72.453z" />
<glyph unicode="&#xe958;" glyph-name="sad" d="M512-64c282.784 0 512 229.216 512 512s-229.216 512-512 512c-282.784 0-512-229.216-512-512s229.216-512 512-512zM512 864c229.761 0 416-186.239 416-416s-186.239-416-416-416c-229.761 0-416 186.239-416 416s186.239 416 416 416zM256 640c0 35.361 28.639 64 64 64s64-28.639 64-64c0-35.361-28.639-64-64-64s-64 28.639-64 64zM640 640c0 35.361 28.639 64 64 64s64-28.639 64-64c0-35.361-28.639-64-64-64s-64 28.639-64 64zM319.904 179.263l-82.336 49.408c55.968 93.057 157.919 155.361 274.432 155.361s218.464-62.274 274.432-155.361l-82.336-49.408c-39.168 65.153-110.529 108.737-192.096 108.737s-152.928-43.583-192.096-108.737z" />
<glyph unicode="&#xe959;" glyph-name="smile" d="M512-64c282.784 0 512 229.216 512 512s-229.216 512-512 512c-282.784 0-512-229.216-512-512s229.216-512 512-512zM512 864c229.761 0 416-186.239 416-416s-186.239-416-416-416c-229.761 0-416 186.239-416 416s186.239 416 416 416zM256 640c0 35.361 28.639 64 64 64s64-28.639 64-64c0-35.361-28.639-64-64-64s-64 28.639-64 64zM640 640c0 35.361 28.639 64 64 64s64-28.639 64-64c0-35.361-28.639-64-64-64s-64 28.639-64 64zM704.096 332.737l82.336-49.408c-55.968-93.057-157.919-155.361-274.432-155.361s-218.464 62.274-274.432 155.361l82.336 49.408c39.168-65.153 110.529-108.737 192.096-108.737s152.928 43.583 192.096 108.737z" />
<glyph unicode="&#xe95a;" glyph-name="users" horiz-adv-x="1138" d="M758.266 191.369v52.46c69.627 39.48 126.419 137.973 126.419 236.434 0 158.141 0 286.316-189.629 286.316s-189.63-128.174-189.63-286.316c0-98.493 56.794-196.954 126.42-236.434v-52.46c-214.408-17.653-379.259-123.688-379.259-251.893h884.941c0 128.205-164.853 234.268-379.262 251.893zM323.161 169.324c54.613 35.948 122.532 63.278 197.309 79.946-14.854 17.687-28.349 37.41-39.98 58.664-30.025 54.909-45.922 115.383-45.922 174.873 0 85.545 0 166.318 30.214 232.393 29.33 64.134 82.109 103.869 157.264 118.789-16.714 76.033-61.185 126.011-179.577 126.011-189.63 0-189.63-128.174-189.63-286.316 0-98.493 56.794-196.954 126.42-236.434v-52.46c-214.408-17.653-379.259-123.688-379.259-251.893h275.564c14.349 12.817 30.214 25.037 47.597 36.454v-0.028z" />
<glyph unicode="&#xe95b;" glyph-name="neutral" d="M512-64c282.784 0 512 229.216 512 512s-229.216 512-512 512c-282.784 0-512-229.216-512-512s229.216-512 512-512zM512 864c229.761 0 416-186.239 416-416s-186.239-416-416-416c-229.761 0-416 186.239-416 416s186.239 416 416 416zM256 640c0-35.361 28.639-64 64-64s64 28.639 64 64c0 35.361-28.639 64-64 64s-64-28.639-64-64zM640 640c0-35.361 28.639-64 64-64s64 28.639 64 64c0 35.361-28.639 64-64 64s-64-28.639-64-64zM384 256h256v-64h-256v64z" />
<glyph unicode="&#xe95c;" glyph-name="intervention_approach" horiz-adv-x="1138" d="M367.222 780.157c44.612 0 80.775 36.164 80.775 80.774s-36.162 80.774-80.775 80.774c-44.61 0-80.774-36.164-80.774-80.774s36.164-80.774 80.774-80.774zM1130.875 345.245l-91.637 125.888c-2.101 2.89-4.612 5.45-7.456 7.612l-134.774 102.343c-10.278 7.805-23.343 9.318-34.634 5.223-9.91-0.97-6.049-0.231-105.081-38.044-11.723-4.471-20.996-12.557-27.068-22.498l57.511 12.349-124.298-62.623c-114.897 65.418-116.194 68.752-131.626 67.246-7.331 5.34-9.895 5.226-46.766 14.704l-88.261 22.686-45.75 131.452 34.82-51.995 6.045 15.828c10.748 28.155-3.356 59.69-31.513 70.442-98.894 37.761-95.177 37.081-105.134 38.046-9.556 3.455-20.486 2.971-30.092-2.312l-149.368-82.181c-6.952-3.824-12.473-9.807-15.729-17.041l-56.719-126.003c-8.296-18.428-0.082-40.095 18.348-48.393 18.42-8.294 40.092-0.087 48.393 18.349l51.702 114.854 45.645 25.117-66.714-179.373c0 0-4.673-44.98-28.324-367.411-1.726-23.48 15.908-43.914 39.388-45.64 0.196-0.015 0.389-0.008 0.586-0.023h-70.876c-9.36 0-16.947-7.585-16.947-16.945v-85.663c0-9.36 7.587-16.945 16.947-16.945h351.739c9.36 0 16.949 7.585 16.949 16.945v85.663c0 9.36-7.589 16.945-16.949 16.945h-63.459c22.688 0.967 40.801 19.608 40.801 42.538v200.757c0 8.112-2.314 16.054-6.669 22.896l-62.552 98.243 21.441 56.153c-14.132 11.753-22.475 28.448-23.629 39.451l-15.58 148.815 50.521-145.155c4.021-11.548 13.552-20.355 25.454-23.415 155.498-39.966 145.471-38.222 154.243-37.372 2.822-2.048-8.674 4.65 130.469-74.578 10.752-6.121 23.848-6.281 34.573-0.88l137.262 69.154-66.306-55.543 52.899-138.536-55.197-43.888c-7.27-5.78-12.455-13.778-14.765-22.775l-51.852-202.069c-5.852-22.801 7.892-46.034 30.693-51.883 22.805-5.852 46.034 7.892 51.886 30.693l48.295 188.204 87.886 69.879 15.481 5.913-16.084-91.553c-1.862-10.608 0.357-21.527 6.212-30.565l100.124-154.469c12.808-19.763 39.212-25.388 58.956-12.584 19.756 12.804 25.391 39.2 12.588 58.956l-91.011 140.409 22.001 125.231-46.949 154.742 22.266-16.911 88.466-121.537c11.897-16.35 34.789-19.945 51.124-8.052 16.35 11.897 19.953 34.786 8.055 51.128zM326.116 73.851h-209.19c21.245 0.986 38.899 17.666 40.499 39.409l25.184 342.399 8.725-3.334 93.979-147.596v-188.34c0.003-22.93 18.115-41.574 40.804-42.538zM750.452 582.563c44.612 0 80.775 36.164 80.775 80.774s-36.162 80.774-80.775 80.774c-44.608 0-80.775-36.164-80.775-80.774s36.166-80.774 80.775-80.774z" />
<glyph unicode="&#xe95d;" glyph-name="protect" d="M512 960c69.334 0 135.619-13.524 198.856-40.571 63.241-27.047 117.713-63.429 163.43-109.143 45.712-45.714 82.092-100.19 109.14-163.429s40.574-129.524 40.574-198.857c0-69.334-13.526-135.619-40.574-198.856-27.048-63.241-63.427-117.713-109.14-163.43-45.717-45.712-100.189-82.092-163.43-109.14-63.237-27.048-129.522-40.574-198.856-40.574s-135.619 13.526-198.857 40.574c-63.238 27.048-117.714 63.427-163.429 109.14-45.714 45.717-82.095 100.189-109.143 163.43-27.048 63.237-40.571 129.522-40.571 198.856s13.524 135.619 40.571 198.857c27.047 63.238 63.429 117.714 109.143 163.429s100.19 82.095 163.429 109.143c63.238 27.048 129.524 40.571 198.857 40.571zM512 886.857c-72.381 0-141.143-17.143-206.286-51.429l110.857-110.857c31.238 10.667 63.047 16 95.428 16s64.191-5.333 95.427-16l110.857 110.857c-65.14 34.286-133.902 51.429-206.285 51.429zM124.571 241.715l110.857 110.857c-10.667 31.237-16 63.046-16 95.427s5.333 64.19 16 95.428l-110.857 110.857c-34.286-65.143-51.429-133.905-51.429-206.286 0-72.383 17.143-141.144 51.429-206.285zM512 9.142c72.383 0 141.144 17.143 206.285 51.428l-110.857 110.857c-31.237-10.664-63.046-15.998-95.427-15.998s-64.19 5.334-95.428 15.998l-110.857-110.857c65.143-34.285 133.905-51.428 206.286-51.428zM512 228.571c60.57 0 112.286 21.43 155.141 64.289 42.859 42.854 64.289 94.571 64.289 155.141 0 60.571-21.43 112.286-64.289 155.143-42.854 42.857-94.571 64.286-155.141 64.286-60.571 0-112.286-21.429-155.143-64.286s-64.286-94.572-64.286-155.143c0-60.57 21.429-112.286 64.286-155.141 42.857-42.859 94.572-64.289 155.143-64.289zM788.573 352.573l110.857-110.857c34.285 65.14 51.428 133.902 51.428 206.285 0 72.381-17.143 141.143-51.428 206.286l-110.857-110.857c10.664-31.238 15.998-63.047 15.998-95.428s-5.334-64.191-15.998-95.427z" />
<glyph unicode="&#xe95e;" glyph-name="decide" d="M279.886 380.999c5.557-26.986 15.554-52.194 28.943-75.124h-193.218v-24.166c0-16.515-10.834-22.265-24.11-12.821l-81.556 58.459c-13.276 9.431-13.276 24.974 0 34.403l81.555 58.456c13.332 9.445 24.11 3.683 24.11-12.805v-26.401h164.277zM347.273 607.139l-156.277 65.876 9.834 24.401c6.11 15.264-1.668 24.807-17.5 21.237l-97.22-22.253c-15.779-3.554-21.556-17.916-12.778-31.832l53.611-85.818c8.722-13.889 20.888-12.805 27.001 2.472l9.054 22.335 139.054-58.586c11.832 23.126 27.056 44.112 45.221 62.168zM559.663 672.428l-3.78 170.21 25.78 0.595c16.165 0.402 21.498 11.557 11.998 24.917l-59.056 82.085c-9.5 13.32-24.72 12.973-33.665-0.792l-55.223-84.791c-8.943-13.736-3.11-24.651 13.11-24.278l23.612 0.554 3.723-165.915c9.388 1.139 18.834 1.874 28.5 1.874 15.389 0 30.445-1.612 45.003-4.459zM863.1 632.193l14.502-21.762c9.165-13.639 21.223-12.182 27 3.304l35.058 95.307c5.72 15.457-2.78 28.305-19.004 28.445l-99.605 1.154c-16.114 0.137-21.947-10.835-12.779-24.461l13.334-19.959-133.556-93.373c16.944-18.126 31.113-38.889 42.054-61.667l132.996 93.012zM1013.989 361.749l-81.556 58.456c-13.277 9.445-24.111 3.683-24.111-12.805v-26.401h-158.83c-5.556-26.986-15.556-52.194-29-75.124h187.83v-24.166c0-16.515 10.834-22.265 24.111-12.821l81.556 58.459c13.333 9.431 13.333 24.974 0 34.403zM412.577 451.527c0 60.056 48.722 108.722 108.806 108.722 60.083 0 108.832-48.666 108.832-108.722 0-60.109-48.749-108.749-108.832-108.749s-108.806 48.64-108.806 108.749zM339.967-10.167c0.668-0.053 1.335-0.053 1.973-0.053 20.305 0 37.307 15.917 38.307 36.444 4.222 83.609 20.83 145.946 48.079 183.082-1.97-38.915-5.414-109.469-8.525-181.581-0.194-1.307-0.557-2.556-0.668-3.889l-6.22-87.836h220.028l-3.92 60.61c-0.135 2.279-0.666 4.419-1.082 6.587-2.22 62.748-9.417 155.583-13.528 206.053 27.806-37.193 43.473-98.889 45.166-181.914 0.447-20.89 17.554-37.556 39.195-37.556 21.193 0.446 38.025 17.946 37.581 39.166-2.611 127.334-34.664 215.696-95.277 262.585-15.751 12.195-32.471 22.833-51.361 29.346-17.665 6.112-36.247 9.528-54.858 10.795l28.055-294.664-40.524-47.502-46.337 47.502 35.194 295.083c-45.499-1.544-84.111-17.307-117.888-47.18-54.221-48.015-83.582-131.377-89.778-254.85-1.081-21.171 15.226-39.17 36.39-40.228z" />
<glyph unicode="&#xe95f;" glyph-name="good" horiz-adv-x="800" d="M748.942 242.314c1.642 19.747 42.635 46.814 42.603 66.563-0.094 20.728-35.896 55.48-33.2 76.080 2.147 16.325 32.162 40.587 33.136 57.062 1.73 29.966-38.568 88.55-66.243 99.811-43.966 17.893-267.456 9.523-267.456 9.523-21.85 38.326 38.901 133.064 55.621 173.987 24.52 59.922 20.389 139.386-10.624 180.213-37.901 49.905-107.453 53.217-108.87 30.889-10.379-161.931-41.24-206.873-82.576-238.861-24.821-19.232-46.52-36.074-57.984-65.378-70.406-180.173-127.239-238.066-154.463-244.317l-92.097-0.064v-387.955l283.027-38.040c0 0 259.174-24.597 340.805 0 25.67 7.749 69.978 46.458 80.475 71.326 5.978 14.27-2.339 48.042 4.763 61.787 10.41 20.418 54.472 45.939 54.41 73.706-0.056 19.741-22.998 53.973-21.326 73.666z" />
<glyph unicode="&#xe960;" glyph-name="stopwatch" horiz-adv-x="1255" d="M627.631 953.177c-346.038 0-627.631-281.556-627.631-627.706 0-128.707 39.108-252.748 112.958-358.653 10.486-14.964 27.614-23.995 45.9-23.995h937.547c18.211 0 35.414 8.957 45.862 23.995 73.926 105.905 112.959 229.946 112.959 358.653 0.038 346.15-281.481 627.706-627.595 627.706zM1066.217 54.812h-877.17c-50.527 81.575-77.059 174.569-77.059 270.696 0 284.391 231.326 515.719 515.681 515.719 284.353 0 515.681-231.364 515.681-515.719-0.038-96.165-26.569-189.158-77.134-270.696zM559.23 702.968c0 37.802 30.637 68.44 68.402 68.44s68.402-30.637 68.402-68.44c0-37.764-30.636-68.402-68.402-68.402-37.764 0-68.402 30.599-68.402 68.402zM347.755 311.104c0-37.802-30.599-68.402-68.402-68.402s-68.44 30.599-68.44 68.402c0 37.802 30.637 68.44 68.44 68.44s68.402-30.675 68.402-68.44zM1044.348 311.104c0-37.802-30.636-68.402-68.438-68.402-37.84 0-68.44 30.599-68.44 68.402s30.599 68.44 68.44 68.44c37.802 0 68.438-30.675 68.438-68.44zM851.159 499.33l-127.25-238.007c51.311-32.167 85.643-88.814 85.643-153.82h-363.839c0 94.784 72.767 171.807 165.35 180.241l141.395 264.39c14.628 27.204 48.511 37.54 75.715 22.949 27.28-14.554 37.541-48.475 22.987-75.753z" />
<glyph unicode="&#xe961;" glyph-name="bubbles" horiz-adv-x="1152" d="M1088 58.834c0-45.5 26.028-84.908 64-104.184v-15.938c-10.626-1.454-21.472-2.224-32.5-2.224-68.008 0-129.348 28.528-172.722 74.264-26.222-6.982-54.002-10.752-82.778-10.752-159.058 0-288 114.616-288 256s128.942 256 288 256c159.058 0 288-114.616 288-256 0-55.348-19.764-106.592-53.356-148.466-6.824-14.824-10.644-31.312-10.644-48.7zM512 960c278.458 0 504.992-180.614 511.836-405.52-49.182 21.92-103.586 33.52-159.836 33.52-95.56 0-185.816-33.446-254.138-94.178-70.846-62.972-109.862-147.434-109.862-237.822 0-44.672 9.544-87.888 27.736-127.788-5.228-0.126-10.468-0.212-15.736-0.212-27.156 0-53.81 1.734-79.824 5.044-109.978-109.978-241.25-129.7-368.176-132.596v26.916c68.536 33.578 128 94.74 128 164.636 0 9.754-0.758 19.33-2.164 28.696-115.796 76.264-189.836 192.754-189.836 323.304 0 229.75 229.23 416 512 416z" />
</font>
</defs>
</svg>
