<svg width="92" height="12" viewBox="0 0 92 12" fill="none" xmlns="http://www.w3.org/2000/svg">
<path d="M36.7259 3.21548C35.25 3.21548 34.0122 4.37217 34.0122 5.85274C34.0122 7.28704 35.2024 8.49 36.7259 8.49H41.2488V7.51838H36.7259C35.7737 7.51838 35.012 6.77809 35.012 5.85274C35.012 4.92738 35.7737 4.1871 36.7259 4.1871H41.2488V3.21548H36.7259Z" fill="black"/>
<path d="M30.0326 2.25356H20V8.75356H30.0326V2.25356Z" fill="#2F4899"/>
<path d="M24.7998 3.66826L24.9965 3.55356L25.1933 3.66826L25.1146 3.43885L25.3506 3.28591H25.0752L24.9965 3.0565L24.9179 3.28591H24.6425L24.8785 3.43885L24.7998 3.66826Z" fill="#F3EA26"/>
<path d="M23.6983 3.97415L23.895 3.8212L24.131 3.97415L24.0524 3.74473L24.2491 3.5918H23.9737L23.895 3.32415L23.8163 3.5918H23.5409L23.777 3.74473L23.6983 3.97415Z" fill="#F3EA26"/>
<path d="M23.1081 4.12709L23.0294 4.3565H22.754L22.9507 4.50944L22.8721 4.73886L23.1081 4.58591L23.3048 4.73886L23.2262 4.50944L23.4622 4.3565H23.1868L23.1081 4.12709Z" fill="#F3EA26"/>
<path d="M22.7934 5.6565L23.0294 5.80944L22.9508 5.58003L23.1475 5.42709H22.8721L22.7934 5.19768L22.7147 5.42709H22.4786L22.6754 5.58003L22.5967 5.80944L22.7934 5.6565Z" fill="#F3EA26"/>
<path d="M23.1868 6.49768L23.1081 6.23003L23.0294 6.49768H22.754L22.9507 6.65062L22.8721 6.88003L23.1081 6.72709L23.3048 6.88003L23.2262 6.65062L23.4622 6.49768H23.1868Z" fill="#F3EA26"/>
<path d="M23.9737 7.26237L23.895 7.03297L23.8163 7.26237H23.5409L23.777 7.41532L23.6983 7.68297L23.895 7.53003L24.131 7.68297L24.0524 7.41532L24.2491 7.26237H23.9737Z" fill="#F3EA26"/>
<path d="M25.0752 7.56827L24.9965 7.30062L24.9179 7.56827H24.6425L24.8785 7.72121L24.7998 7.95062L24.9965 7.79768L25.1933 7.95062L25.1146 7.72121L25.3506 7.56827H25.0752Z" fill="#F3EA26"/>
<path d="M26.1769 7.26237L26.0982 7.03297L26.0196 7.26237H25.7441L25.9802 7.41532L25.9015 7.68297L26.0982 7.53003L26.2949 7.68297L26.2163 7.41532L26.4523 7.26237H26.1769Z" fill="#F3EA26"/>
<path d="M26.9638 6.49768L26.8851 6.23003L26.8064 6.49768H26.531L26.7671 6.65062L26.6884 6.88003L26.8851 6.72709L27.1212 6.88003L27.0425 6.65062L27.2392 6.49768H26.9638Z" fill="#F3EA26"/>
<path d="M27.5147 5.42709H27.2786L27.1999 5.15944L27.1212 5.42709H26.8458L27.0425 5.58003L26.9639 5.80944L27.1999 5.6565L27.3966 5.80944L27.318 5.58003L27.5147 5.42709Z" fill="#F3EA26"/>
<path d="M26.6884 4.73886L26.8851 4.58591L27.1212 4.73886L27.0425 4.50944L27.2392 4.3565H26.9638L26.8851 4.12709L26.8064 4.3565H26.531L26.7671 4.50944L26.6884 4.73886Z" fill="#F3EA26"/>
<path d="M26.0982 3.32415L26.0196 3.5918H25.7441L25.9802 3.74473L25.9015 3.97415L26.0982 3.8212L26.2949 3.97415L26.2163 3.74473L26.4523 3.5918H26.1769L26.0982 3.32415Z" fill="#F3EA26"/>
<path d="M55.0077 4.18709C56.0551 4.18709 56.8169 4.78857 56.8169 5.85273C56.8169 6.91688 56.0551 7.51837 55.0077 7.51837C54.1031 7.51837 51.8655 7.51837 51.0562 7.51837C51.0562 6.87062 51.0562 4.83484 51.0562 4.18709C51.8655 4.18709 54.1031 4.18709 55.0077 4.18709ZM50.0564 3.21547V8.44372C50.0564 8.44372 53.6271 8.44372 55.1029 8.44372C56.674 8.44372 57.8166 7.28703 57.8166 5.80646C57.8166 4.37216 56.7216 3.1692 55.1029 3.1692C53.6747 3.21546 50.0564 3.21547 50.0564 3.21547Z" fill="black"/>
<path d="M83.7634 3.21547H83.2397V11.081H84.2395C84.2395 11.081 84.2395 5.01991 84.2395 4.14082C85.0013 4.14082 87.3341 4.14082 88.2387 4.14082C89.3813 4.14082 90.0002 4.83484 90.0002 5.80646C90.0002 6.73182 89.3813 7.4721 88.2863 7.4721C87.1913 7.4721 85.0489 7.4721 85.0489 7.4721V8.44372C85.0489 8.44372 86.62 8.44372 88.2863 8.44372C89.905 8.44372 91 7.28703 91 5.80646C91 4.37216 89.8574 3.1692 88.2863 3.1692C86.7628 3.21546 83.7634 3.21547 83.7634 3.21547Z" fill="black"/>
<path d="M44.4862 7.51838C43.4388 7.51838 42.677 6.91689 42.677 5.85274C42.677 4.78858 43.4388 4.1871 44.4862 4.1871C45.3907 4.1871 48.9138 4.1871 48.9138 4.1871V3.21548C48.9138 3.21548 45.3431 3.21548 44.3433 3.21548C42.7723 3.21548 41.6296 4.37217 41.6296 5.85274C41.6296 7.3333 42.7246 8.49 44.3433 8.49C45.2955 8.49 48.9138 8.49 48.9138 8.49V7.51838C48.9614 7.51838 45.4383 7.51838 44.4862 7.51838ZM43.534 5.3438H47.676V6.31541H43.534V5.3438Z" fill="black"/>
<path d="M61.4825 7.51838C60.4351 7.51838 59.6734 6.91689 59.6734 5.85274C59.6734 4.78858 60.4351 4.1871 61.4825 4.1871C62.3871 4.1871 65.9101 4.1871 65.9101 4.1871V3.21548C65.9101 3.21548 62.3395 3.21548 61.3397 3.21548C59.7686 3.21548 58.626 4.37217 58.626 5.85274C58.626 7.3333 59.721 8.49 61.3397 8.49C62.2919 8.49 65.9101 8.49 65.9101 8.49V7.51838C65.9101 7.51838 62.4347 7.51838 61.4825 7.51838ZM60.5303 5.3438H64.6723V6.31541H60.5303V5.3438Z" fill="black"/>
<path d="M79.5739 7.51838C78.4313 7.51838 78.2408 7.51838 77.0982 7.51838C76.0032 7.51838 75.2891 6.91689 75.2891 5.85274C75.2891 4.78858 76.0032 4.1871 77.0982 4.1871C78.1932 4.1871 78.4313 4.1871 79.5739 4.1871C80.6689 4.1871 81.383 4.78858 81.383 5.85274C81.383 6.91689 80.7165 7.51838 79.5739 7.51838ZM79.6691 3.21548C78.098 3.21548 78.5741 3.21548 77.003 3.21548C75.2891 3.21548 74.2893 4.37217 74.2893 5.85274C74.2893 7.3333 75.3843 8.49 77.003 8.49C78.6217 8.49 78.0028 8.49 79.6691 8.49C81.3354 8.49 82.3828 7.3333 82.3828 5.85274C82.3828 4.37217 81.2402 3.21548 79.6691 3.21548Z" fill="black"/>
<path d="M67.8621 11.081V5.80646C67.8621 4.74231 68.6238 4.14082 69.6712 4.14082C70.5758 4.14082 74.0988 4.14082 74.0988 4.14082V3.1692C74.0988 3.1692 70.5282 3.1692 69.5284 3.1692C67.9573 3.1692 66.8147 4.3259 66.8147 5.80646V11.0347H67.8621V11.081ZM68.6714 5.34379H72.8134V6.3154H68.6714V5.34379Z" fill="black"/>
<path d="M9.18862 10.077L9.35226 10.6521H9.3568L9.51817 10.077H9.9909L9.56817 11.0777V11.7275H9.13635V11.0777L8.71362 10.077H9.18635H9.18862Z" fill="#034EA1"/>
<path d="M11.2091 10.077V10.4279H10.6591V10.7109H11.175V11.0483H10.6591V11.3766H11.2296V11.7275H10.2273V10.077H11.2091Z" fill="#034EA1"/>
<path d="M12.3726 10.077L12.7772 11.7275H12.3181L12.2749 11.4377H11.9317L11.8885 11.7275H11.4294L11.834 10.077H12.3772H12.3726ZM11.9794 11.114H12.2204L12.1022 10.4143H12.0976L11.9794 11.114Z" fill="#034EA1"/>
<path d="M13.7023 10.077C13.9841 10.077 14.1478 10.2264 14.1478 10.5162C14.1478 10.7517 14.0501 10.8808 13.8637 10.9102V10.9147C14.0546 10.9306 14.1364 11.0483 14.1364 11.2747V11.4604C14.1364 11.6392 14.1501 11.6687 14.2069 11.7049V11.7275H13.7478C13.7205 11.6755 13.7069 11.5577 13.7069 11.4491V11.3155C13.7069 11.1343 13.6841 11.0664 13.5682 11.0664H13.4523V11.7275H13.0205V10.077H13.7046H13.7023ZM13.4501 10.7743H13.5387C13.6523 10.7743 13.7182 10.7019 13.7182 10.5774C13.7182 10.4438 13.6682 10.3849 13.5364 10.3849H13.4501V10.7743Z" fill="#034EA1"/>
<path d="M15.5682 10.5479V10.5525H15.1636V10.514C15.1636 10.4098 15.1227 10.3351 15.0409 10.3351C14.95 10.3351 14.9068 10.4053 14.9068 10.48C14.9068 10.5864 14.9727 10.6498 15.1841 10.7291C15.3545 10.7947 15.4568 10.8558 15.5227 10.9442C15.5886 11.0325 15.6136 11.1321 15.6136 11.2498C15.6136 11.5894 15.4182 11.7592 15.0273 11.7592C14.6364 11.7592 14.4705 11.6189 14.4705 11.2906V11.2385H14.8886V11.2747C14.8886 11.4038 14.9341 11.4694 15.0295 11.4694C15.125 11.4694 15.1682 11.397 15.1682 11.3109C15.1682 11.2589 15.1523 11.2204 15.1227 11.1864C15.0818 11.1411 15.0136 11.1072 14.8546 11.0438C14.6159 10.9464 14.4932 10.8196 14.4932 10.5638C14.4932 10.2264 14.675 10.0475 15.0364 10.0475C15.3977 10.0475 15.5727 10.1992 15.5727 10.5525L15.5682 10.5479Z" fill="#034EA1"/>
<path d="M11.7159 1.00453C9.44773 1.00453 7.6 2.84302 7.6 5.10491C7.6 5.57812 7.68182 6.03321 7.83182 6.45887C7.22045 5.31774 6.01591 4.53887 4.62955 4.53887H1V6.30491H4.62955C5.65227 6.30491 6.48409 7.13359 6.48409 8.15246C6.48409 9.17132 5.65227 10 4.62955 10C3.60682 10 2.775 9.17132 2.775 8.15246H1.00227C1.00227 10.1449 2.62955 11.766 4.62955 11.766C6.62955 11.766 8.25682 10.1449 8.25682 8.15246C8.25682 7.74491 8.18864 7.35321 8.06364 6.98868C8.75 8.30415 10.1295 9.20529 11.7182 9.20529C13.9864 9.20529 15.8341 7.3668 15.8341 5.10491C15.8341 2.84302 13.9864 1.00453 11.7159 1.00453ZM11.7159 7.44378C10.4205 7.44378 9.36818 6.39547 9.36818 5.10491C9.36818 3.81434 10.4205 2.76604 11.7159 2.76604C13.0114 2.76604 14.0636 3.81434 14.0636 5.10491C14.0636 6.39547 13.0114 7.44378 11.7159 7.44378Z" fill="#034EA1"/>
<path d="M7.60223 1.00453H7.09314V2.77057H7.60223V1.00453Z" fill="#034EA1"/>
<path d="M4.04998 1.00453H3.41589V2.77057H4.04998V1.00453Z" fill="#FFF100"/>
<path d="M2.5727 1.00453H1.00452V2.77057H2.5727V1.00453Z" fill="#034EA1"/>
<path d="M4.47949 1.00453V2.77057L4.62949 2.76604V1L4.47949 1.00453Z" fill="#034EA1"/>
<path d="M6.66362 1.00453H5.49316V2.77057H6.66362V1.00453Z" fill="#0098D9"/>
</svg>
