<?xml version="1.0" encoding="utf-8"?>
<!-- Generator: Adobe Illustrator 16.0.0, SVG Export Plug-In . SVG Version: 6.00 Build 0)  -->
<!DOCTYPE svg PUBLIC "-//W3C//DTD SVG 1.1//EN" "http://www.w3.org/Graphics/SVG/1.1/DTD/svg11.dtd">
<svg version="1.1" id="Layer_1" xmlns="http://www.w3.org/2000/svg" xmlns:xlink="http://www.w3.org/1999/xlink" x="0px" y="0px"
	 width="800px" height="524.138px" viewBox="0 0 800 524.138" enable-background="new 0 0 800 524.138" xml:space="preserve">
<path fill="#F5F5F5" d="M786.204,524.137H13.794C6.177,524.137,0,517.961,0,510.344V13.793C0,6.176,6.177,0,13.794,0h772.412
	C793.823,0,800,6.176,800,13.793v496.551C799.998,517.963,793.822,524.137,786.204,524.137z"/>
<g>
	<path fill="#73AF00" d="M381.914,425.423c7.632-5.7,14.263-7.564,24.522-9.429c10.264-1.864,21.103-5.044,26.787-6.578
		c5.734-1.587-19.263,7.564-25.63,9.374C401.333,420.707,381.914,425.423,381.914,425.423L381.914,425.423z"/>
	<path fill="#73AF00" d="M423.226,409.372c-2.054-12.894,3.05-26.47,14.732-31.891C440.696,386.85,432.327,402.741,423.226,409.372
		L423.226,409.372z"/>
	<path fill="#73AF00" d="M443.169,402.689c-6.263-10.787,4.263-24.63,12.104-31.365C458.904,377.798,452.534,397.11,443.169,402.689
		L443.169,402.689z"/>
	<path fill="#73AF00" d="M461.534,394.374c-6.631-9.211,1.265-25.313,9.685-31.681C474.482,371.799,471.218,388.11,461.534,394.374
		L461.534,394.374z"/>
	<path fill="#73AF00" d="M479.953,382.798c-6.103-8.685-1.839-22.156,6.947-30.945C493.164,359.116,487.794,374.799,479.953,382.798
		L479.953,382.798z"/>
	<path fill="#73AF00" d="M494.744,371.219c-5.104-8.211,1.154-27.838,9.365-33.261C507.635,345.22,505.003,365.748,494.744,371.219
		L494.744,371.219z"/>
	<path fill="#73AF00" d="M506.477,368.116c-1.474-11.735,19.05-24.734,27.419-24.365C533,353.326,524.213,363.85,506.477,368.116
		L506.477,368.116z"/>
	<path fill="#73AF00" d="M495.003,381.374c9.685-9.891,28.367-9.891,34.995-7.841C528.264,379.324,506.162,391.902,495.003,381.374
		L495.003,381.374z"/>
	<path fill="#73AF00" d="M481.742,391.322c13.578-3.633,22.365-6.579,30.471,1.839C506.477,400.426,484.48,398.269,481.742,391.322
		L481.742,391.322z"/>
	<path fill="#73AF00" d="M462.378,400.113c12.999-6.948,28.733,3.313,31.102,9.261C479.008,415.424,462.115,401.636,462.378,400.113
		L462.378,400.113z"/>
	<path fill="#73AF00" d="M444.589,410.056c11.841-4.526,25.419,1.474,30.786,8.104C469.06,421.215,452.534,424.528,444.589,410.056
		L444.589,410.056z"/>
	<path fill="#73AF00" d="M428.383,415.16c13.578-1.526,26.573,8.789,29.417,14.631C440.536,431.473,433.855,426.266,428.383,415.16
		L428.383,415.16z"/>
	<path fill="#73AF00" d="M424.015,425.423c-7.526-5.7-14.156-7.564-24.419-9.429c-10.264-1.864-21.104-5.044-26.889-6.578
		c-5.632-1.587,19.365,7.564,25.73,9.374C404.752,420.707,424.015,425.423,424.015,425.423L424.015,425.423z"/>
	<path fill="#73AF00" d="M382.703,409.372c2.155-12.894-2.948-26.47-14.735-31.891C365.336,386.85,373.705,402.741,382.703,409.372
		L382.703,409.372z"/>
	<path fill="#73AF00" d="M362.864,402.689c6.368-10.787-4.263-24.63-12.104-31.365C347.129,377.798,353.497,397.11,362.864,402.689
		L362.864,402.689z"/>
	<path fill="#73AF00" d="M344.393,394.374c6.736-9.211-1.159-25.313-9.58-31.681C331.5,371.799,334.815,388.11,344.393,394.374
		L344.393,394.374z"/>
	<path fill="#73AF00" d="M326.026,382.798c6.052-8.685,1.844-22.156-6.894-30.945C312.871,359.116,318.239,374.799,326.026,382.798
		L326.026,382.798z"/>
	<path fill="#73AF00" d="M311.293,371.219c5.209-8.211-1.16-27.838-9.369-33.261C298.293,345.22,301.029,365.748,311.293,371.219
		L311.293,371.219z"/>
	<path fill="#73AF00" d="M299.45,368.116c1.58-11.735-18.944-24.734-27.313-24.365C273.032,353.326,281.665,363.85,299.45,368.116
		L299.45,368.116z"/>
	<path fill="#73AF00" d="M311.029,381.374c-9.684-9.891-28.363-9.891-34.995-7.841C277.873,379.324,299.869,391.902,311.029,381.374
		L311.029,381.374z"/>
	<path fill="#73AF00" d="M324.289,391.322c-13.578-3.633-22.365-6.579-30.47,1.839C299.45,400.426,321.552,398.269,324.289,391.322
		L324.289,391.322z"/>
	<path fill="#73AF00" d="M343.549,400.113c-12.943-6.948-28.628,3.313-30.997,9.261
		C327.026,415.424,343.813,401.636,343.549,400.113L343.549,400.113z"/>
	<path fill="#73AF00" d="M361.283,410.056c-11.787-4.526-25.313,1.474-30.68,8.104C336.973,421.215,353.497,424.528,361.283,410.056
		L361.283,410.056z"/>
	<path fill="#73AF00" d="M377.703,415.16c-13.683-1.526-26.68,8.789-29.469,14.631C365.601,431.473,372.232,426.266,377.703,415.16
		L377.703,415.16z"/>
</g>
<path fill="#FFC850" d="M231.197,220.185c0,0-3.769,4.915,2.633,17.365s1.803,26.818,8.7,31.415
	c6.896,4.598,0.289,13.716,8.19,19.788c7.899,6.073,28.664,20.049,42.995,21.683c14.331,1.633,28.253-12.847,36.521-2.159
	s6.463,18.221,14.263,19.052s7.8-2.617,7.227-7.789s5.17-19.539,18.389-19.539s27.222-1.573,49.531-9.983
	c22.31-8.409,33.229-12.431,36.102-25.649s11.044-28.847,26.786-21.606c15.743,7.239,14.685,3.844,19.523,0.369
	c4.839-3.474,21.066,6.576,24.734,1.264c3.668-5.314-28.715-31.6-26.89-45.469c1.822-13.867,6.189-25.386,19.523-26.523
	c13.333-1.138,9.885-16.079,23.679-23.552c13.793-7.47,20.146-8.326,31.05-19.394s39.576-33.47,39.576-33.47
	s-55.782,26.714-66.938,29.156c-11.156,2.443-15.757,18.535-46.793,27.156c-31.035,8.62-32.759,12.068-56.321,17.24
	c-21.22,4.659-69.156,3.096-97.513-6.005c-3.91-1.255-7.797,1.835-7.449,5.927c1.167,13.782,0.839,38.563-15.9,42.409
	c0,0-22.817-17.041-37.184-9.57c-14.367,7.471-24.586,34.115-35.281,29.987C239.655,228.158,238.254,211.058,231.197,220.185z"/>
</svg>
