<?xml version="1.0" encoding="utf-8"?>
<!-- Generator: Adobe Illustrator 16.0.0, SVG Export Plug-In . SVG Version: 6.00 Build 0)  -->
<!DOCTYPE svg PUBLIC "-//W3C//DTD SVG 1.1//EN" "http://www.w3.org/Graphics/SVG/1.1/DTD/svg11.dtd">
<svg version="1.1" id="Layer_1" xmlns="http://www.w3.org/2000/svg" xmlns:xlink="http://www.w3.org/1999/xlink" x="0px" y="0px"
	 width="800px" height="524.138px" viewBox="0 0 800 524.138" enable-background="new 0 0 800 524.138" xml:space="preserve">
<path fill="#F5F5F5" d="M799.998,174.713H0V13.793C0,6.176,6.177,0,13.794,0h772.412C793.823,0,800,6.176,800,13.793
	L799.998,174.713L799.998,174.713z"/>
<path fill="#FF4B55" d="M786.204,524.137H13.794C6.177,524.137,0,517.961,0,510.344V349.426h799.998v160.918
	C799.998,517.963,793.822,524.137,786.204,524.137z"/>
<g>
	<rect x="0" y="174.71" fill="#41479B" width="799.998" height="174.703"/>
	<path fill="#41479B" d="M268.772,107.96c0,0-2.778,88.481-15.194,113.328c-15.368,30.539-30.82,39.448-53.809,47.68
		c-22.986-8.229-38.438-17.133-53.81-47.68c-12.414-24.849-15.195-113.318-15.194-113.328
		C174.636,88.152,224.901,88.152,268.772,107.96z"/>
</g>
<g>
	<path fill="#F5F5F5" d="M219.749,230.658c-1.681-1.078-2.894-1.85-5.652-1.85c-2.752,0-3.965,0.771-5.638,1.85
		c-1.917,1.221-4.302,2.749-8.734,2.749c-4.437,0-6.82-1.528-8.737-2.755c-1.674-1.07-2.883-1.841-5.635-1.841
		s-3.961,0.771-5.635,1.841c-1.811,1.161-4.1,2.544-8.079,2.698c8.378,10.216,17.161,15.063,28.122,19.271
		c10.956-4.209,19.737-9.052,28.115-19.268C223.868,233.209,221.567,231.816,219.749,230.658z"/>
	<path fill="#F5F5F5" d="M165.363,214.314c1.673,1.07,2.879,1.841,5.621,1.841c2.752,0,3.961-0.771,5.635-1.841
		c1.917-1.228,4.302-2.754,8.734-2.754s6.817,1.527,8.734,2.748c1.674,1.078,2.886,1.85,5.638,1.85c2.751,0,3.961-0.77,5.634-1.84
		c1.918-1.229,4.302-2.755,8.738-2.755c4.438,0,6.828,1.528,8.745,2.748c1.681,1.078,2.889,1.851,5.649,1.851
		s3.972-0.771,5.653-1.851c1.602-1.021,3.612-2.201,6.797-2.579c0.834-2.172,1.646-4.648,2.4-7.656l-20.578-34.297l-7.667,15.334
		l-15.335-30.667l-15.334,30.667l-7.667-15.334l-20.566,34.276c0.752,3.006,1.562,5.493,2.397,7.68
		C161.764,212.108,163.765,213.29,165.363,214.314z"/>
	<path fill="#F5F5F5" d="M237.236,219.158c-1.917,1.221-4.305,2.749-8.745,2.749c-4.437,0-6.824-1.528-8.741-2.749
		c-1.681-1.078-2.894-1.85-5.652-1.85c-2.752,0-3.965,0.771-5.638,1.85c-1.917,1.221-4.302,2.749-8.734,2.749
		c-4.437,0-6.82-1.528-8.737-2.755c-1.674-1.07-2.883-1.841-5.635-1.841s-3.961,0.771-5.635,1.841
		c-1.917,1.229-4.301,2.755-8.734,2.755c-4.43,0-6.811-1.528-8.722-2.755c-0.009-0.005-0.017-0.011-0.026-0.018
		c1.503,2.729,3.005,5.233,4.502,7.505c1.118,0.614,2.289,1.018,4.246,1.018c2.752,0,3.961-0.771,5.635-1.841
		c1.917-1.229,4.302-2.755,8.734-2.755s6.817,1.528,8.734,2.749c1.674,1.078,2.886,1.85,5.638,1.85c2.751,0,3.961-0.771,5.634-1.841
		c1.918-1.228,4.302-2.755,8.737-2.755c4.439,0,6.828,1.528,8.746,2.749c1.681,1.078,2.889,1.85,5.649,1.85
		c1.987,0,3.167-0.409,4.304-1.036c1.495-2.269,2.996-4.773,4.498-7.498C237.273,219.136,237.256,219.147,237.236,219.158z"/>
</g>
<g>
	<path fill="#FFE15A" d="M200.072,128.042l1.346,4.396l4.479-1.033c0.303-0.07,0.516,0.297,0.303,0.523l-3.134,3.364l3.134,3.364
		c0.213,0.229,0.002,0.596-0.303,0.523l-4.479-1.033l-1.346,4.397c-0.091,0.298-0.514,0.298-0.604,0l-1.346-4.397l-4.479,1.033
		c-0.303,0.07-0.516-0.297-0.303-0.523l3.134-3.364l-3.134-3.364c-0.213-0.228-0.002-0.595,0.303-0.523l4.479,1.033l1.346-4.396
		C199.559,127.743,199.981,127.743,200.072,128.042z"/>
	<path fill="#FFE15A" d="M178.03,106.917l1.345,4.396l4.48-1.033c0.303-0.07,0.516,0.297,0.303,0.523l-3.135,3.364l3.135,3.364
		c0.213,0.229,0.002,0.596-0.303,0.523l-4.48-1.033l-1.345,4.397c-0.091,0.298-0.515,0.298-0.604,0l-1.346-4.397l-4.479,1.033
		c-0.304,0.07-0.516-0.297-0.304-0.523l3.135-3.364l-3.135-3.364c-0.212-0.228-0.001-0.595,0.304-0.523l4.479,1.033l1.346-4.396
		C177.515,106.618,177.937,106.618,178.03,106.917z"/>
	<path fill="#FFE15A" d="M222.273,106.917l1.346,4.396l4.479-1.033c0.303-0.07,0.516,0.297,0.303,0.523l-3.134,3.364l3.134,3.364
		c0.213,0.229,0.002,0.596-0.303,0.523l-4.479-1.033l-1.346,4.397c-0.09,0.298-0.514,0.298-0.604,0l-1.345-4.397l-4.48,1.033
		c-0.303,0.07-0.516-0.297-0.303-0.523l3.135-3.364l-3.135-3.364c-0.213-0.228-0.002-0.595,0.303-0.523l4.48,1.033l1.345-4.396
		C221.761,106.618,222.183,106.618,222.273,106.917z"/>
</g>
<path fill="#FF1722" d="M260.834,104.629c0.047,2.445,0.086,4.913,0.086,7.577c-1.106,27.662-5.223,87.902-14.191,106.046
	c-13.223,26.557-25.433,35.335-46.96,43.424c-21.528-8.088-33.736-16.864-46.95-43.403c-9.002-18.212-13.147-79.478-14.205-106.065
	c0-2.667,0.044-5.106,0.081-7.571c-2.652,1.039-5.29,2.137-7.902,3.316c0.184,5.372,1.521,40.613,5.539,71.599
	c2.266,17.299,5.384,33.24,9.629,41.739c15.371,30.547,30.822,39.45,53.81,47.68c22.989-8.233,38.439-17.14,53.811-47.68
	c4.247-8.499,7.364-24.44,9.632-41.739c4.016-30.985,5.352-66.227,5.537-71.599C266.132,106.769,263.493,105.668,260.834,104.629z"
	/>
</svg>
