<svg width="210" height="212" viewBox="0 0 210 212" fill="none" xmlns="http://www.w3.org/2000/svg">
<path d="M210 106C210 164.02 162.99 211.055 105 211.055C47.0101 211.055 0 164.02 0 106C0 47.9796 47.0101 0.944824 105 0.944824C162.99 0.944824 210 47.9796 210 106Z" fill="#3D79CF"/>
<path d="M114.425 109.161L91.531 131.085L102.978 149.516L123.737 127.204L114.425 109.161Z" fill="#73C8FF"/>
<path d="M127.036 133.413L106.276 155.336L116.703 172.126L135.766 151.65L127.036 133.413Z" fill="#73C8FF"/>
<path d="M138.874 157.463L119.709 177.702L128.976 191.423L145.893 172.126L138.874 157.463Z" fill="#73C8FF"/>
<path d="M142.168 79.477L121.021 100.818L130.528 118.862L150.123 99.1693L142.168 79.477Z" fill="#73C8FF"/>
<path d="M134.408 127.01L153.227 106.122L160.6 123.712L142.557 143.307L134.408 127.01Z" fill="#73C8FF"/>
<path d="M163.898 131.279L170.494 145.829L153.033 165.037L145.893 150.68L163.898 131.279Z" fill="#73C8FF"/>
<path d="M186.986 104.699L193 120.414L176.509 139.039L170.494 123.324L186.986 104.699Z" fill="#73C8FF"/>
<path d="M179.419 79.477L185.434 97.5202L167.972 116.728L160.6 99.1693L179.419 79.477Z" fill="#73C8FF"/>
<path d="M150.123 71.5224L158.194 90.3417L176.509 71.5224L170.494 51.151L150.123 71.5224Z" fill="#4EB849"/>
<path d="M141.392 38.1521L163.316 45.5246L144.497 66.09L122.767 56.7774L141.392 38.1521Z" fill="#FEC70E"/>
<path d="M115.395 64.1499L135.766 73.0745L115.395 94.804L95.6052 84.1333L115.395 64.1499Z" fill="#D0494D"/>
<path d="M81.1514 145.247L101.62 159.022L111.514 174.443L90.367 160.768L81.1514 145.247Z" fill="#F27A4A"/>
<path d="M92.8892 165.037L114.619 180.364L123.737 193.945L102.008 179.491L92.8892 165.037Z" fill="#F27A4A"/>
<path d="M66.5033 75.2087L84.9345 84.5213L74.2638 111.683L55.2505 101.983L66.5033 75.2087Z" fill="#4EB849"/>
<path d="M81.1512 18.9448L99.2915 25.7353L82.8003 46.3007L64.175 40.0923L81.1512 18.9448Z" fill="#FEC70E"/>
<path d="M59.519 46.3007L76.7862 53.0912L57.9669 75.2087L41.8638 66.0901L59.519 46.3007Z" fill="#D0494D"/>
<path d="M35.8492 73.6566L51.5643 81.9991L32.939 104.699L18 94.804L35.8492 73.6566Z" fill="#FEC70E"/>
<path d="M81.1513 38.9282L101.426 46.4947L89.0088 75.2087L70.0925 67.0601L81.1513 38.9282Z" fill="#73C8FF"/>
<path d="M87.8446 92.6699L108.604 103.341L87.8446 124.715L66.5032 113.235L87.8446 92.6699Z" fill="#FEC70E"/>
<path d="M51.5644 110.713L68.142 121.457L56.9967 148.158L40.5056 135.815L51.5644 110.713Z" fill="#4EB849"/>
<path d="M64.175 118.862L84.9345 132.443L98.1274 152.769L76.7859 139.039L64.175 118.862Z" fill="#F27A4A"/>
</svg>
