<svg width="190" height="53" viewBox="0 0 190 53" fill="none" xmlns="http://www.w3.org/2000/svg">
<path d="M189.788 11H168.5V16.7495C168.5 22.8458 164.995 29.3566 155.146 29.3566C145.297 29.3566 141.79 22.8458 141.79 16.7495V11H47.8541V16.7495C47.8541 22.8458 44.3494 29.3566 34.5 29.3566C24.6487 29.3566 21.1345 22.8458 21.1345 16.7495V11L3.11732e-05 11C3.11732e-05 11 3.11732e-05 12.0647 3.11732e-05 13.382V50.6143C3.11732e-05 51.9334 0 53 0 53H189.788C189.788 53 189.788 51.9334 189.788 50.6143V13.382C189.788 12.0647 189.788 11 189.788 11Z" fill="#FFED00"/>
<path d="M63.4531 27.4297C62.5417 27.4297 61.8359 27.7734 61.3359 28.4609C60.8359 29.1432 60.5859 30.0964 60.5859 31.3203C60.5859 33.8672 61.5417 35.1406 63.4531 35.1406C64.2552 35.1406 65.2266 34.9401 66.3672 34.5391V36.5703C65.4297 36.9609 64.3828 37.1562 63.2266 37.1562C61.5651 37.1562 60.2943 36.6536 59.4141 35.6484C58.5339 34.638 58.0938 33.1901 58.0938 31.3047C58.0938 30.1172 58.3099 29.0781 58.7422 28.1875C59.1745 27.2917 59.7943 26.6068 60.6016 26.1328C61.4141 25.6536 62.3646 25.4141 63.4531 25.4141C64.5625 25.4141 65.6771 25.6823 66.7969 26.2188L66.0156 28.1875C65.5885 27.9844 65.1589 27.8073 64.7266 27.6562C64.2943 27.5052 63.8698 27.4297 63.4531 27.4297ZM78.1016 25.5781V32.9688C78.1016 33.8125 77.9115 34.5521 77.5312 35.1875C77.1562 35.8229 76.612 36.3099 75.8984 36.6484C75.1849 36.987 74.3411 37.1562 73.3672 37.1562C71.8984 37.1562 70.7578 36.7812 69.9453 36.0312C69.1328 35.276 68.7266 34.2448 68.7266 32.9375V25.5781H71.1406V32.5703C71.1406 33.4505 71.3177 34.0964 71.6719 34.5078C72.026 34.9193 72.612 35.125 73.4297 35.125C74.2214 35.125 74.7943 34.9193 75.1484 34.5078C75.5078 34.0911 75.6875 33.4401 75.6875 32.5547V25.5781H78.1016ZM83.3203 30.6484H84.1016C84.8672 30.6484 85.4323 30.5208 85.7969 30.2656C86.1615 30.0104 86.3438 29.6094 86.3438 29.0625C86.3438 28.5208 86.1562 28.1354 85.7812 27.9062C85.4115 27.6771 84.8359 27.5625 84.0547 27.5625H83.3203V30.6484ZM83.3203 32.6172V37H80.8984V25.5781H84.2266C85.7786 25.5781 86.9271 25.862 87.6719 26.4297C88.4167 26.9922 88.7891 27.849 88.7891 29C88.7891 29.6719 88.6042 30.2708 88.2344 30.7969C87.8646 31.3177 87.3411 31.7266 86.6641 32.0234C88.3828 34.5911 89.5026 36.25 90.0234 37H87.3359L84.6094 32.6172H83.3203ZM93.8828 30.6484H94.6641C95.4297 30.6484 95.9948 30.5208 96.3594 30.2656C96.724 30.0104 96.9062 29.6094 96.9062 29.0625C96.9062 28.5208 96.7188 28.1354 96.3438 27.9062C95.974 27.6771 95.3984 27.5625 94.6172 27.5625H93.8828V30.6484ZM93.8828 32.6172V37H91.4609V25.5781H94.7891C96.3411 25.5781 97.4896 25.862 98.2344 26.4297C98.9792 26.9922 99.3516 27.849 99.3516 29C99.3516 29.6719 99.1667 30.2708 98.7969 30.7969C98.4271 31.3177 97.9036 31.7266 97.2266 32.0234C98.9453 34.5911 100.065 36.25 100.586 37H97.8984L95.1719 32.6172H93.8828ZM108.602 37H102.023V25.5781H108.602V27.5625H104.445V30.0703H108.312V32.0547H104.445V35H108.602V37ZM121.125 37H118.047L113.078 28.3594H113.008C113.107 29.8854 113.156 30.974 113.156 31.625V37H110.992V25.5781H114.047L119.008 34.1328H119.062C118.984 32.6484 118.945 31.599 118.945 30.9844V25.5781H121.125V37ZM128.414 37H125.992V27.5938H122.891V25.5781H131.516V27.5938H128.414V37Z" fill="#080852"/>
<path d="M33.5056 22C37.4129 22 39 20.5318 39 16.9322V5.06974C39 1.46628 37.4129 0 33.5056 0C29.5871 0 28 1.46822 28 5.06974V16.9341C28 20.5337 29.5871 22 33.5056 22Z" fill="#FFED00"/>
<path d="M154.5 22C158.411 22 160 20.5318 160 16.9322V5.06974C160 1.46628 158.411 0 154.5 0C150.578 0 149 1.46822 149 5.06974V16.9341C148.998 20.5337 150.578 22 154.5 22Z" fill="#FFED00"/>
</svg>
