<svg width="362" height="315" viewBox="0 0 362 315" fill="none" xmlns="http://www.w3.org/2000/svg">
<path d="M67.1875 270.243C66.908 270.243 66.6739 270.024 66.6582 269.742C66.6417 269.449 66.8656 269.199 67.1581 269.182C68.908 269.084 70.6791 268.909 72.4223 268.663C72.7115 268.622 72.9808 268.824 73.0217 269.114C73.0626 269.405 72.8606 269.673 72.5704 269.714C70.7978 269.964 68.9968 270.142 67.2174 270.242C67.2077 270.243 67.1975 270.243 67.1875 270.243ZM59.7242 270.22C59.7129 270.22 59.7017 270.22 59.6905 270.219C57.9079 270.107 56.1082 269.918 54.3421 269.655C54.0521 269.612 53.8521 269.342 53.8953 269.052C53.9384 268.762 54.2089 268.562 54.4982 268.605C56.2348 268.863 58.0042 269.05 59.7568 269.16C60.0493 269.178 60.2715 269.43 60.2533 269.722C60.2356 270.004 60.0019 270.22 59.7242 270.22ZM79.8146 268.247C79.5792 268.247 79.3643 268.09 79.3017 267.851C79.2274 267.568 79.3969 267.278 79.6804 267.203C81.3812 266.757 83.0817 266.233 84.7341 265.647C85.0099 265.549 85.3136 265.694 85.4116 265.97C85.5096 266.246 85.365 266.55 85.0889 266.648C83.4086 267.244 81.6794 267.776 79.9499 268.23C79.9046 268.242 79.8592 268.247 79.8146 268.247ZM47.1121 268.125C47.0657 268.125 47.0188 268.119 46.972 268.106C45.2497 267.635 43.526 267.085 41.8482 266.47C41.5729 266.37 41.4318 266.065 41.5325 265.79C41.6335 265.514 41.9382 265.373 42.2132 265.474C43.8629 266.079 45.5579 266.62 47.2515 267.082C47.5342 267.159 47.7008 267.451 47.6235 267.734C47.5592 267.97 47.3452 268.125 47.1121 268.125ZM91.7858 263.77C91.5903 263.77 91.4023 263.662 91.3098 263.475C91.1799 263.212 91.2874 262.894 91.5499 262.764C93.1235 261.984 94.6827 261.128 96.184 260.218C96.4348 260.067 96.761 260.146 96.9128 260.397C97.0647 260.648 96.9846 260.974 96.734 261.126C95.2071 262.051 93.6215 262.922 92.021 263.715C91.9449 263.752 91.8646 263.77 91.7858 263.77ZM35.1842 263.525C35.1037 263.525 35.0216 263.507 34.9448 263.468C33.353 262.661 31.7749 261.775 30.2544 260.836C30.0051 260.682 29.9278 260.355 30.0816 260.106C30.2357 259.856 30.5629 259.779 30.812 259.933C32.3073 260.856 33.8592 261.727 35.4248 262.521C35.6861 262.654 35.7906 262.973 35.6582 263.234C35.5642 263.419 35.3777 263.525 35.1842 263.525ZM102.597 256.965C102.44 256.965 102.283 256.895 102.179 256.762C101.998 256.531 102.039 256.197 102.27 256.017C103.653 254.935 105.007 253.781 106.294 252.586C106.509 252.387 106.845 252.399 107.044 252.614C107.243 252.828 107.231 253.164 107.016 253.363C105.707 254.579 104.33 255.753 102.924 256.853C102.827 256.929 102.712 256.965 102.597 256.965ZM24.4235 256.627C24.3081 256.627 24.1916 256.589 24.0939 256.512C22.6943 255.402 21.3254 254.218 20.0251 252.995C19.8117 252.794 19.8014 252.459 20.0021 252.245C20.2031 252.032 20.5387 252.021 20.7524 252.222C22.0311 253.425 23.3773 254.588 24.7536 255.681C24.9833 255.863 25.0217 256.197 24.8397 256.426C24.7347 256.558 24.5799 256.627 24.4235 256.627ZM111.816 248.115C111.694 248.115 111.572 248.074 111.472 247.989C111.249 247.799 111.222 247.464 111.412 247.241C112.549 245.903 113.645 244.5 114.666 243.071C114.836 242.833 115.168 242.778 115.406 242.948C115.645 243.119 115.7 243.45 115.529 243.688C114.491 245.141 113.377 246.567 112.22 247.928C112.115 248.051 111.966 248.115 111.816 248.115ZM15.2651 247.715C15.1138 247.715 14.9634 247.65 14.8584 247.525C13.7099 246.156 12.6068 244.721 11.5803 243.262C11.4117 243.022 11.4693 242.691 11.709 242.522C11.9483 242.354 12.2795 242.412 12.4483 242.651C13.4579 244.086 14.5423 245.497 15.6718 246.843C15.8601 247.068 15.8309 247.403 15.6062 247.591C15.5065 247.674 15.3856 247.715 15.2651 247.715ZM119.075 237.594C118.988 237.594 118.9 237.573 118.819 237.528C118.563 237.387 118.469 237.064 118.611 236.807C119.458 235.269 120.249 233.675 120.964 232.071C121.083 231.803 121.397 231.683 121.665 231.802C121.933 231.921 122.053 232.235 121.933 232.503C121.207 234.134 120.402 235.754 119.54 237.319C119.443 237.495 119.262 237.594 119.075 237.594ZM8.09 237.138C7.90099 237.138 7.71822 237.037 7.62248 236.859C6.7757 235.287 5.98628 233.659 5.2759 232.02C5.15945 231.751 5.28287 231.439 5.55166 231.322C5.8207 231.205 6.13312 231.329 6.24956 231.598C6.94797 233.209 7.7242 234.81 8.55651 236.356C8.69564 236.614 8.5989 236.935 8.34107 237.075C8.26103 237.118 8.17477 237.138 8.09 237.138ZM124.08 225.83C124.027 225.83 123.975 225.822 123.922 225.806C123.642 225.719 123.486 225.422 123.573 225.142C124.093 223.464 124.548 221.744 124.924 220.029C124.987 219.743 125.27 219.562 125.556 219.625C125.842 219.688 126.024 219.971 125.961 220.257C125.578 222 125.116 223.75 124.586 225.456C124.515 225.684 124.306 225.83 124.08 225.83ZM3.2056 225.328C2.9772 225.328 2.76623 225.179 2.69741 224.949C2.18725 223.243 1.74217 221.49 1.37438 219.738C1.31404 219.451 1.49782 219.17 1.78456 219.11C2.07181 219.05 2.35282 219.233 2.41291 219.52C2.77471 221.243 3.21256 222.967 3.71424 224.645C3.79802 224.926 3.6387 225.222 3.35769 225.306C3.30708 225.321 3.25596 225.328 3.2056 225.328ZM126.607 213.296C126.59 213.296 126.573 213.296 126.555 213.294C126.264 213.265 126.05 213.006 126.079 212.714C126.248 210.968 126.345 209.191 126.366 207.435C126.369 207.142 126.61 206.902 126.903 206.91C127.196 206.914 127.431 207.154 127.427 207.447C127.406 209.234 127.308 211.041 127.135 212.817C127.108 213.091 126.877 213.296 126.607 213.296ZM0.786211 212.776C0.514675 212.776 0.283267 212.569 0.258333 212.293C0.0972565 210.512 0.0102327 208.704 9.61452e-06 206.92C-0.00173579 206.627 0.234385 206.388 0.527613 206.387C0.528611 206.387 0.529629 206.387 0.530627 206.387C0.822359 206.387 1.05947 206.622 1.06121 206.914C1.07144 208.668 1.15672 210.446 1.31531 212.198C1.34174 212.489 1.12655 212.747 0.834819 212.774C0.818363 212.775 0.802169 212.776 0.786211 212.776ZM126.542 200.514C126.274 200.514 126.044 200.313 126.015 200.04C125.829 198.299 125.566 196.538 125.234 194.808L125.221 194.741C125.165 194.453 125.353 194.175 125.64 194.119C125.929 194.063 126.207 194.251 126.263 194.539L126.276 194.608C126.614 196.367 126.881 198.156 127.07 199.927C127.102 200.219 126.89 200.48 126.599 200.511C126.58 200.513 126.561 200.514 126.542 200.514ZM0.932798 199.99C0.912601 199.99 0.89243 199.989 0.871983 199.986C0.580999 199.953 0.371793 199.69 0.404707 199.399C0.606925 197.625 0.88793 195.837 1.24 194.085C1.2976 193.798 1.57736 193.612 1.86485 193.67C2.1521 193.728 2.33811 194.007 2.28051 194.295C1.93417 196.017 1.65791 197.774 1.45943 199.519C1.42876 199.79 1.1991 199.99 0.932798 199.99ZM123.901 187.938C123.676 187.938 123.467 187.793 123.395 187.568C122.863 185.892 122.252 184.221 121.581 182.601C121.469 182.33 121.598 182.019 121.869 181.907C122.139 181.795 122.45 181.924 122.562 182.195C123.244 183.843 123.865 185.542 124.406 187.246C124.495 187.525 124.341 187.824 124.061 187.913C124.008 187.929 123.954 187.938 123.901 187.938ZM3.66511 187.5C3.61026 187.5 3.55442 187.492 3.49956 187.474C3.22104 187.382 3.06944 187.082 3.16094 186.804C3.71773 185.108 4.35455 183.414 5.05321 181.769C5.16766 181.5 5.4791 181.374 5.74914 181.489C6.01893 181.603 6.14459 181.914 6.03014 182.184C5.34319 183.802 4.71711 185.467 4.16955 187.135C4.096 187.358 3.88827 187.5 3.66511 187.5ZM118.812 176.214C118.627 176.214 118.446 176.117 118.349 175.943C117.49 174.413 116.554 172.9 115.567 171.447C115.402 171.205 115.466 170.874 115.708 170.71C115.95 170.545 116.28 170.608 116.445 170.851C117.449 172.328 118.401 173.867 119.274 175.424C119.418 175.679 119.327 176.003 119.072 176.146C118.989 176.192 118.9 176.214 118.812 176.214ZM8.85946 175.82C8.77019 175.82 8.67945 175.798 8.59641 175.75C8.34183 175.605 8.25356 175.28 8.39918 175.026C9.2856 173.476 10.2488 171.944 11.2626 170.474C11.429 170.232 11.7593 170.172 12.0007 170.338C12.2421 170.504 12.3026 170.835 12.1363 171.076C11.1394 172.522 10.1919 174.029 9.32049 175.553C9.2225 175.724 9.04372 175.82 8.85946 175.82ZM111.456 165.768C111.308 165.768 111.16 165.706 111.056 165.585C109.904 164.26 108.682 162.967 107.422 161.742C107.212 161.538 107.207 161.202 107.411 160.992C107.616 160.782 107.952 160.777 108.162 160.981C109.443 162.227 110.686 163.542 111.857 164.889C112.049 165.11 112.025 165.445 111.804 165.638C111.703 165.725 111.579 165.768 111.456 165.768ZM16.2884 165.419C16.164 165.419 16.0391 165.376 15.9383 165.287C15.7182 165.094 15.6965 164.758 15.89 164.538C17.0694 163.196 18.3198 161.889 19.6069 160.651C19.8181 160.448 20.154 160.455 20.3572 160.666C20.5602 160.878 20.5537 161.214 20.3422 161.417C19.0766 162.633 17.8468 163.919 16.6871 165.239C16.5824 165.358 16.4358 165.419 16.2884 165.419ZM102.143 157.015C102.031 157.015 101.917 156.979 101.821 156.905C100.426 155.837 98.9694 154.816 97.4908 153.869C97.2442 153.711 97.1722 153.382 97.3302 153.136C97.4881 152.889 97.8162 152.817 98.0631 152.975C99.5666 153.938 101.048 154.977 102.466 156.063C102.699 156.241 102.743 156.574 102.565 156.806C102.46 156.943 102.303 157.015 102.143 157.015ZM25.65 156.721C25.4892 156.721 25.3306 156.649 25.2262 156.511C25.0496 156.277 25.0957 155.944 25.3296 155.768C26.7546 154.691 28.2432 153.661 29.7535 152.709C30.0013 152.553 30.329 152.627 30.4853 152.876C30.6416 153.123 30.5674 153.451 30.3193 153.607C28.8342 154.543 27.3708 155.555 25.9694 156.614C25.8739 156.687 25.7615 156.721 25.65 156.721ZM91.2644 150.303C91.1866 150.303 91.1076 150.286 91.033 150.249C89.4527 149.482 87.8208 148.773 86.1823 148.142C85.9088 148.037 85.7726 147.729 85.8778 147.456C85.9833 147.182 86.2903 147.046 86.5638 147.151C88.2299 147.793 89.8896 148.514 91.4966 149.295C91.7601 149.423 91.8701 149.74 91.7419 150.004C91.6504 150.193 91.4611 150.303 91.2644 150.303ZM36.577 150.092C36.3786 150.092 36.1881 149.98 36.0973 149.789C35.9716 149.524 36.0844 149.208 36.3492 149.082C37.9614 148.317 39.6273 147.611 41.3009 146.984C41.5754 146.882 41.8811 147.021 41.9838 147.295C42.0866 147.57 41.9474 147.875 41.6729 147.978C40.0275 148.594 38.3895 149.288 36.804 150.041C36.7309 150.076 36.6533 150.092 36.577 150.092ZM79.259 145.91C79.2156 145.91 79.1718 145.905 79.1279 145.893C77.4254 145.46 75.6839 145.095 73.952 144.808C73.663 144.76 73.4675 144.487 73.5154 144.198C73.563 143.909 73.8361 143.713 74.1255 143.761C75.8869 144.053 77.658 144.425 79.3894 144.865C79.6737 144.938 79.8452 145.226 79.7727 145.51C79.7118 145.75 79.4959 145.91 79.259 145.91ZM48.6184 145.812C48.3795 145.812 48.1628 145.65 48.1035 145.407C48.0337 145.123 48.2077 144.835 48.4924 144.766C49.5469 144.507 50.6251 144.272 51.6968 144.065C52.3807 143.934 53.0764 143.812 53.7646 143.703C54.0541 143.657 54.3258 143.854 54.3717 144.144C54.4176 144.433 54.2204 144.705 53.9309 144.751C53.2542 144.859 52.57 144.979 51.897 145.108C50.8428 145.311 49.7826 145.542 48.745 145.796C48.7027 145.807 48.6603 145.812 48.6184 145.812ZM66.6108 144.035C66.6028 144.035 66.5948 144.035 66.5866 144.035C65.6568 143.993 64.7143 143.972 63.785 143.972C62.9604 143.972 62.1236 143.988 61.298 144.021C61.0075 144.035 60.7584 143.805 60.7467 143.512C60.735 143.219 60.9629 142.973 61.2559 142.961C62.0954 142.927 62.9464 142.911 63.785 142.911C64.7302 142.911 65.6887 142.932 66.6342 142.975C66.927 142.988 67.1536 143.236 67.1404 143.529C67.1277 143.813 66.8928 144.035 66.6108 144.035Z" fill="#080852"/>
<path d="M257.932 222.038C257.626 222.058 257.321 222.076 257.015 222.094C256.723 222.11 256.472 221.886 256.456 221.594C256.439 221.303 256.661 221.053 256.951 221.034C256.953 221.034 256.954 221.034 256.956 221.034C258.69 220.936 260.446 220.795 262.178 220.615C262.471 220.583 262.731 220.797 262.761 221.088C262.791 221.38 262.579 221.64 262.288 221.671C260.844 221.821 259.378 221.944 257.932 222.038ZM249.656 222.265C249.643 222.265 249.629 222.266 249.616 222.266C247.86 222.248 246.082 222.188 244.331 222.087C244.038 222.07 243.815 221.819 243.832 221.526C243.849 221.234 244.101 221.011 244.392 221.027C246.126 221.127 247.887 221.187 249.626 221.204C249.919 221.207 250.154 221.447 250.151 221.74C250.149 222.02 249.93 222.247 249.656 222.265ZM269.568 220.672C269.3 220.689 269.057 220.502 269.011 220.232C268.962 219.943 269.156 219.669 269.445 219.619C271.162 219.326 272.891 218.989 274.586 218.617C274.872 218.555 275.155 218.736 275.218 219.022C275.28 219.308 275.099 219.591 274.813 219.654C273.103 220.029 271.356 220.37 269.623 220.666C269.605 220.669 269.586 220.671 269.568 220.672ZM237.06 221.415C237.027 221.418 236.993 221.417 236.959 221.412C235.216 221.194 233.457 220.93 231.729 220.629C231.44 220.578 231.247 220.303 231.298 220.014C231.348 219.726 231.623 219.532 231.912 219.583C233.622 219.882 235.366 220.143 237.091 220.359C237.382 220.396 237.588 220.661 237.552 220.952C237.519 221.209 237.309 221.399 237.06 221.415ZM281.872 217.848C281.629 217.864 281.399 217.71 281.328 217.466C281.247 217.185 281.408 216.89 281.69 216.809C283.359 216.324 285.039 215.792 286.683 215.229C286.96 215.133 287.262 215.281 287.357 215.558C287.452 215.836 287.304 216.138 287.027 216.233C285.368 216.802 283.671 217.339 281.985 217.828C281.948 217.839 281.91 217.845 281.872 217.848ZM224.634 219.124C224.581 219.127 224.527 219.123 224.473 219.11C222.767 218.692 221.046 218.227 219.359 217.728C219.078 217.644 218.917 217.349 219 217.068C219.084 216.787 219.379 216.626 219.66 216.71C221.331 217.205 223.036 217.665 224.725 218.079C225.01 218.148 225.184 218.436 225.115 218.72C225.059 218.951 224.859 219.109 224.634 219.124ZM293.774 213.639C293.554 213.653 293.341 213.529 293.25 213.314C293.137 213.044 293.264 212.733 293.534 212.62C295.138 211.946 296.746 211.226 298.313 210.477C298.578 210.351 298.895 210.463 299.021 210.727C299.147 210.992 299.035 211.309 298.771 211.435C297.188 212.191 295.564 212.918 293.945 213.598C293.889 213.622 293.831 213.635 293.774 213.639ZM212.547 215.419C212.475 215.423 212.4 215.413 212.328 215.386C210.682 214.776 209.027 214.118 207.409 213.428C207.139 213.313 207.014 213.002 207.129 212.732C207.244 212.462 207.555 212.337 207.825 212.452C209.427 213.134 211.066 213.787 212.697 214.391C212.972 214.493 213.112 214.798 213.01 215.073C212.935 215.276 212.749 215.405 212.547 215.419ZM305.106 208.096C304.909 208.108 304.712 208.01 304.609 207.826C304.465 207.571 304.556 207.247 304.811 207.103C306.323 206.253 307.834 205.355 309.304 204.432C309.552 204.277 309.88 204.352 310.036 204.6C310.192 204.848 310.116 205.176 309.868 205.332C308.384 206.262 306.858 207.17 305.332 208.028C305.26 208.069 305.183 208.091 305.106 208.096ZM200.968 210.357C200.877 210.363 200.783 210.345 200.695 210.301C199.128 209.506 197.56 208.663 196.033 207.796C195.778 207.651 195.689 207.327 195.834 207.073C195.979 206.818 196.303 206.729 196.557 206.873C198.069 207.733 199.623 208.567 201.175 209.354C201.436 209.486 201.54 209.806 201.408 210.067C201.32 210.241 201.15 210.345 200.968 210.357ZM315.722 201.294C315.546 201.305 315.369 201.229 315.258 201.076C315.086 200.839 315.139 200.507 315.376 200.335C316.782 199.316 318.182 198.25 319.538 197.166C319.767 196.983 320.101 197.02 320.283 197.249C320.466 197.478 320.43 197.812 320.201 197.995C318.832 199.09 317.418 200.166 315.998 201.194C315.915 201.255 315.819 201.288 315.722 201.294ZM190.046 204.013C189.935 204.02 189.82 203.992 189.72 203.926C188.254 202.959 186.792 201.944 185.375 200.91C185.138 200.737 185.086 200.406 185.259 200.169C185.431 199.932 185.763 199.88 186 200.053C187.404 201.077 188.852 202.082 190.304 203.04C190.549 203.201 190.617 203.531 190.455 203.775C190.36 203.92 190.206 204.002 190.046 204.013ZM325.498 193.321C325.343 193.331 325.185 193.274 325.072 193.15C324.874 192.934 324.889 192.598 325.106 192.4C326.387 191.228 327.657 190.009 328.882 188.776C329.089 188.568 329.425 188.567 329.632 188.774C329.84 188.98 329.842 189.317 329.635 189.524C328.398 190.769 327.115 192 325.822 193.183C325.729 193.268 325.615 193.314 325.498 193.321ZM179.917 196.473C179.786 196.482 179.651 196.442 179.542 196.351C178.197 195.225 176.86 194.052 175.569 192.864C175.353 192.665 175.339 192.329 175.537 192.114C175.736 191.898 176.072 191.884 176.287 192.083C177.566 193.259 178.89 194.422 180.223 195.537C180.448 195.725 180.478 196.059 180.29 196.284C180.193 196.4 180.057 196.464 179.917 196.473ZM334.309 184.285C334.174 184.294 334.036 184.252 333.927 184.156C333.705 183.964 333.682 183.629 333.874 183.408C335.015 182.096 336.14 180.74 337.217 179.376C337.399 179.146 337.733 179.107 337.963 179.289C338.193 179.47 338.232 179.804 338.05 180.034C336.963 181.411 335.827 182.78 334.675 184.104C334.578 184.215 334.445 184.277 334.309 184.285ZM170.711 187.838C170.56 187.848 170.405 187.793 170.292 187.674C169.083 186.403 167.888 185.087 166.742 183.76C166.55 183.539 166.574 183.204 166.796 183.012C167.017 182.82 167.352 182.845 167.544 183.066C168.68 184.38 169.863 185.684 171.061 186.942C171.263 187.155 171.255 187.491 171.042 187.693C170.949 187.782 170.831 187.83 170.711 187.838ZM342.042 174.305C341.927 174.312 341.809 174.283 341.707 174.212C341.466 174.046 341.405 173.716 341.571 173.475C342.557 172.041 343.521 170.566 344.437 169.088C344.591 168.839 344.918 168.763 345.168 168.917C345.416 169.072 345.493 169.399 345.339 169.648C344.414 171.139 343.441 172.629 342.445 174.076C342.349 174.216 342.199 174.295 342.042 174.305ZM162.549 178.217C162.376 178.228 162.202 178.155 162.09 178.007C161.035 176.609 159.999 175.165 159.01 173.718C158.845 173.476 158.907 173.146 159.15 172.98C159.392 172.815 159.722 172.877 159.887 173.119C160.866 174.553 161.892 175.983 162.937 177.368C163.114 177.602 163.067 177.934 162.833 178.111C162.748 178.176 162.649 178.21 162.549 178.217ZM348.596 163.509C348.501 163.515 348.404 163.495 348.313 163.448C348.054 163.31 347.956 162.989 348.094 162.73C348.911 161.192 349.702 159.616 350.444 158.045C350.569 157.779 350.885 157.666 351.151 157.791C351.416 157.916 351.529 158.233 351.404 158.498C350.655 160.084 349.856 161.676 349.031 163.228C348.941 163.397 348.774 163.497 348.596 163.509ZM155.54 167.734C155.347 167.746 155.153 167.652 155.048 167.473C154.16 165.964 153.296 164.414 152.481 162.864C152.345 162.604 152.444 162.283 152.704 162.147C152.963 162.01 153.284 162.11 153.42 162.369C154.228 163.905 155.083 165.441 155.963 166.935C156.111 167.188 156.027 167.513 155.775 167.661C155.701 167.705 155.62 167.729 155.54 167.734ZM353.882 152.033C353.807 152.038 353.729 152.027 353.654 151.997C353.381 151.89 353.247 151.582 353.354 151.309C353.992 149.688 354.597 148.03 355.156 146.383C355.25 146.106 355.551 145.957 355.828 146.051C356.106 146.145 356.255 146.446 356.161 146.724C355.597 148.387 354.985 150.06 354.342 151.697C354.264 151.895 354.081 152.02 353.882 152.033ZM149.777 156.514C149.561 156.528 149.35 156.408 149.258 156.199C148.547 154.595 147.865 152.951 147.232 151.314C147.126 151.041 147.262 150.734 147.536 150.628C147.809 150.522 148.116 150.658 148.222 150.932C148.849 152.553 149.524 154.181 150.228 155.77C150.347 156.038 150.226 156.351 149.958 156.47C149.898 156.496 149.838 156.51 149.777 156.514ZM357.824 140.023C357.768 140.027 357.711 140.021 357.653 140.006C357.37 139.931 357.201 139.641 357.276 139.357C357.724 137.673 358.136 135.956 358.501 134.254C358.563 133.968 358.846 133.786 359.132 133.847C359.418 133.908 359.601 134.19 359.539 134.477C359.17 136.195 358.754 137.929 358.302 139.63C358.242 139.856 358.045 140.009 357.824 140.023ZM145.335 144.697C145.096 144.712 144.869 144.563 144.795 144.325C144.273 142.65 143.784 140.94 143.342 139.24C143.269 138.957 143.439 138.667 143.722 138.593C144.006 138.519 144.296 138.69 144.369 138.973C144.807 140.656 145.291 142.351 145.808 144.009C145.895 144.289 145.739 144.586 145.459 144.674C145.418 144.686 145.376 144.694 145.335 144.697ZM360.36 127.644C360.324 127.646 360.286 127.645 360.249 127.64C359.959 127.597 359.758 127.328 359.8 127.038C360.05 125.319 360.262 123.569 360.429 121.839C360.458 121.547 360.718 121.333 361.009 121.361C361.3 121.39 361.514 121.649 361.486 121.941C361.316 123.688 361.103 125.454 360.85 127.191C360.813 127.444 360.605 127.628 360.36 127.644ZM142.273 132.45C142.01 132.467 141.769 132.285 141.718 132.019C141.39 130.298 141.099 128.543 140.851 126.803C140.81 126.512 141.012 126.244 141.302 126.203C141.593 126.162 141.861 126.363 141.902 126.653C142.147 128.377 142.436 130.116 142.76 131.821C142.815 132.109 142.626 132.387 142.339 132.442C142.317 132.446 142.295 132.449 142.273 132.45ZM361.456 115.067C361.439 115.068 361.422 115.069 361.406 115.068C361.113 115.059 360.882 114.815 360.891 114.522C360.942 112.785 360.952 111.023 360.921 109.285C360.916 108.992 361.15 108.75 361.442 108.745C361.735 108.739 361.977 108.973 361.982 109.266C362.014 111.021 362.003 112.8 361.952 114.553C361.943 114.829 361.726 115.05 361.456 115.067ZM140.613 119.932C140.323 119.95 140.071 119.732 140.049 119.442C140.018 119.029 139.989 118.615 139.962 118.203C139.876 116.862 139.812 115.502 139.774 114.161C139.766 113.868 139.993 113.626 140.289 113.616C140.582 113.607 140.826 113.838 140.835 114.131C140.872 115.459 140.935 116.806 141.021 118.134C141.048 118.543 141.077 118.952 141.108 119.362C141.13 119.654 140.911 119.909 140.619 119.931C140.616 119.931 140.615 119.931 140.613 119.932ZM361.108 102.447C360.821 102.466 360.57 102.251 360.546 101.962C360.4 100.233 360.21 98.4804 359.983 96.7527L359.96 96.5852C359.922 96.2947 360.126 96.0279 360.416 95.9892C360.708 95.9503 360.973 96.1548 361.012 96.4453L361.035 96.6156C361.264 98.3583 361.456 100.128 361.603 101.873C361.628 102.165 361.411 102.422 361.119 102.446C361.115 102.447 361.112 102.447 361.108 102.447ZM140.375 107.309C140.357 107.31 140.338 107.31 140.32 107.31C140.027 107.298 139.799 107.052 139.81 106.759C139.877 105.005 139.987 103.229 140.138 101.481C140.163 101.189 140.42 100.973 140.712 100.998C141.004 101.023 141.22 101.28 141.195 101.572C141.046 103.304 140.936 105.062 140.87 106.799C140.86 107.074 140.643 107.292 140.375 107.309ZM359.307 89.7773C359.046 89.7943 358.806 89.6158 358.753 89.3522C358.411 87.6472 358.023 85.9285 357.601 84.2434C357.53 83.9591 357.702 83.6709 357.987 83.5996C358.271 83.5285 358.559 83.7011 358.63 83.9853C359.057 85.6864 359.448 87.4218 359.794 89.1433C359.851 89.4305 359.665 89.7103 359.378 89.7679C359.354 89.7728 359.331 89.7758 359.307 89.7773ZM141.58 94.7423C141.542 94.7448 141.504 94.743 141.465 94.737C141.175 94.6924 140.976 94.4214 141.021 94.1316C141.29 92.393 141.604 90.6373 141.956 88.9134C142.014 88.6264 142.294 88.4411 142.581 88.4995C142.869 88.5581 143.054 88.8383 142.995 89.1253C142.647 90.8328 142.336 92.5715 142.07 94.2934C142.031 94.544 141.823 94.7266 141.58 94.7423ZM356.122 77.5622C355.885 77.5777 355.659 77.4316 355.583 77.1957C355.049 75.5413 354.468 73.8779 353.855 72.2514C353.752 71.9772 353.891 71.6712 354.165 71.568C354.439 71.4648 354.745 71.6032 354.848 71.8777C355.466 73.5196 356.053 75.1992 356.593 76.8698C356.682 77.1486 356.529 77.4478 356.251 77.5378C356.208 77.5515 356.165 77.5595 356.122 77.5622ZM144.226 82.3751C144.168 82.3788 144.109 82.3731 144.051 82.3571C143.768 82.2793 143.602 81.9873 143.68 81.7048C144.146 80.0103 144.66 78.3038 145.207 76.6324C145.298 76.3539 145.598 76.202 145.877 76.2931C146.155 76.3843 146.307 76.684 146.216 76.9625C145.674 78.6179 145.165 80.3082 144.704 81.9863C144.642 82.21 144.446 82.3608 144.226 82.3751ZM351.56 65.7909C351.347 65.8049 351.137 65.6875 351.043 65.4813C350.322 63.8989 349.554 62.3131 348.759 60.7679C348.625 60.5073 348.728 60.1874 348.988 60.0533C349.249 59.9191 349.568 60.0216 349.703 60.2822C350.505 61.8423 351.281 63.4436 352.009 65.0412C352.13 65.308 352.012 65.6226 351.746 65.7441C351.685 65.7717 351.623 65.787 351.56 65.7909ZM148.272 70.3998C148.195 70.4048 148.116 70.3931 148.04 70.3624C147.768 70.2529 147.637 69.9435 147.746 69.6717C148.403 68.043 149.108 66.4073 149.842 64.8103C149.964 64.544 150.279 64.4273 150.546 64.55C150.812 64.6724 150.929 64.9873 150.806 65.2536C150.079 66.8354 149.381 68.4552 148.73 70.0684C148.651 70.2642 148.469 70.3871 148.272 70.3998ZM345.681 54.6285C345.49 54.641 345.298 54.5488 345.192 54.373C344.297 52.8874 343.354 51.4028 342.388 49.9606C342.225 49.717 342.29 49.3873 342.534 49.2243C342.778 49.0612 343.107 49.1265 343.27 49.3699C344.245 50.8261 345.197 52.3251 346.101 53.8252C346.252 54.0763 346.171 54.4022 345.92 54.5535C345.845 54.5989 345.763 54.6233 345.681 54.6285ZM153.658 58.9704C153.562 58.9766 153.462 58.9567 153.371 58.907C153.113 58.7672 153.018 58.445 153.158 58.1874C153.995 56.645 154.882 55.1011 155.792 53.5988C155.944 53.3482 156.27 53.2679 156.521 53.42C156.772 53.5718 156.852 53.898 156.7 54.1488C155.798 55.6369 154.92 57.1661 154.09 58.6941C154 58.8602 153.834 58.9589 153.658 58.9704ZM338.567 44.2177C338.396 44.2287 338.224 44.1576 338.112 44.0122C337.051 42.6364 335.944 41.2682 334.82 39.9454C334.63 39.722 334.657 39.3871 334.881 39.1974C335.104 39.0074 335.439 39.0348 335.629 39.2582C336.763 40.5935 337.881 41.9751 338.952 43.3639C339.131 43.5961 339.088 43.9294 338.856 44.1082C338.769 44.1753 338.668 44.2112 338.567 44.2177ZM160.306 48.2309C160.19 48.2384 160.071 48.2079 159.968 48.1359C159.728 47.9678 159.67 47.6369 159.838 47.3968C160.845 45.9594 161.9 44.5266 162.974 43.1383C163.154 42.9066 163.487 42.864 163.719 43.0433C163.95 43.2225 163.993 43.5559 163.814 43.7876C162.75 45.1627 161.705 46.582 160.707 48.0057C160.611 48.1431 160.461 48.2209 160.306 48.2309ZM330.306 34.6805C330.157 34.6902 330.004 34.6366 329.891 34.5204C328.681 33.2742 327.424 32.04 326.156 30.8521C325.942 30.6516 325.931 30.316 326.132 30.1021C326.332 29.8884 326.667 29.8772 326.882 30.0776C328.162 31.277 329.431 32.523 330.652 33.7814C330.856 33.9916 330.852 34.3274 330.641 34.5317C330.547 34.6232 330.428 34.6725 330.306 34.6805ZM168.126 38.318C167.99 38.3269 167.851 38.2833 167.74 38.1858C167.521 37.9916 167.501 37.6562 167.695 37.4368C168.858 36.123 170.068 34.8197 171.292 33.563C171.496 33.3533 171.832 33.3485 172.042 33.553C172.252 33.7575 172.256 34.0933 172.052 34.3033C170.84 35.548 169.642 36.8388 168.49 38.1402C168.393 38.2494 168.261 38.3092 168.126 38.318ZM321.013 26.139C320.883 26.1475 320.751 26.1086 320.643 26.0198C319.299 24.9185 317.909 23.8338 316.514 22.7965C316.279 22.6217 316.23 22.2894 316.405 22.054C316.579 21.8189 316.912 21.7697 317.147 21.9448C318.556 22.992 319.958 24.0869 321.315 25.199C321.542 25.3847 321.575 25.7191 321.39 25.9458C321.292 26.0642 321.154 26.1298 321.013 26.139ZM177.017 29.3588C176.86 29.369 176.7 29.3099 176.587 29.184C176.391 28.9661 176.409 28.6307 176.627 28.4347C177.931 27.262 179.281 26.1051 180.638 24.9962C180.865 24.8107 181.199 24.8446 181.385 25.0715C181.57 25.2984 181.536 25.6328 181.31 25.8183C179.965 26.9167 178.628 28.0624 177.336 29.2239C177.244 29.3067 177.131 29.3513 177.017 29.3588ZM310.808 18.7028C310.698 18.7098 310.585 18.6831 310.486 18.619C309.025 17.6763 307.521 16.7557 306.017 15.8832C305.763 15.7361 305.677 15.4115 305.824 15.1579C305.971 14.9043 306.296 14.818 306.549 14.9651C308.068 15.8461 309.586 16.7754 311.061 17.7271C311.308 17.886 311.378 18.2146 311.22 18.4607C311.125 18.6078 310.97 18.6921 310.808 18.7028ZM186.863 21.4715C186.685 21.483 186.506 21.4049 186.395 21.2496C186.226 21.0107 186.281 20.6794 186.52 20.5096C187.949 19.4937 189.42 18.4991 190.894 17.5528C191.141 17.3945 191.469 17.4663 191.627 17.7129C191.786 17.9595 191.714 18.2879 191.467 18.446C190.007 19.383 188.55 20.3684 187.135 21.3745C187.052 21.4339 186.958 21.4655 186.863 21.4715ZM299.822 12.4697C299.732 12.4754 299.639 12.4585 299.553 12.4158C297.993 11.6449 296.394 10.9011 294.799 10.2049C294.53 10.0877 294.408 9.77479 294.525 9.50624C294.642 9.23745 294.955 9.11502 295.223 9.23221C296.834 9.93487 298.449 10.6861 300.023 11.4643C300.286 11.5943 300.393 11.9124 300.264 12.1752C300.176 12.3513 300.004 12.4577 299.822 12.4697ZM197.538 14.7639C197.34 14.7769 197.142 14.6764 197.039 14.4904C196.898 14.2338 196.991 13.9112 197.248 13.7695C198.785 12.9225 200.363 12.1014 201.939 11.3289C202.203 11.2 202.52 11.3087 202.649 11.5721C202.779 11.8354 202.67 12.153 202.406 12.2822C200.846 13.0469 199.282 13.86 197.76 14.6991C197.689 14.738 197.614 14.7589 197.538 14.7639ZM288.193 7.52621C288.123 7.5307 288.05 7.52122 287.98 7.49579C286.341 6.90733 284.666 6.3508 283.002 5.84189C282.721 5.75611 282.564 5.45963 282.649 5.17937C282.735 4.89911 283.032 4.74178 283.312 4.82705C284.992 5.3412 286.683 5.90297 288.338 6.49716C288.614 6.59615 288.757 6.9001 288.658 7.17587C288.585 7.38108 288.397 7.51299 288.193 7.52621ZM208.928 9.31724C208.706 9.33145 208.491 9.20504 208.402 8.98861C208.291 8.71732 208.421 8.40738 208.692 8.29667C210.316 7.63217 211.978 6.99785 213.633 6.41139C213.909 6.3134 214.212 6.45801 214.31 6.73428C214.408 7.01056 214.264 7.31375 213.988 7.41175C212.348 7.99272 210.702 8.62083 209.094 9.27884C209.04 9.30104 208.984 9.31375 208.928 9.31724ZM276.07 3.94463C276.019 3.94787 275.967 3.94388 275.915 3.93166C274.218 3.53495 272.489 3.17415 270.776 2.85948C270.488 2.80662 270.297 2.53009 270.35 2.2416C270.403 1.95336 270.68 1.76261 270.968 1.81572C272.698 2.13338 274.443 2.49768 276.157 2.89812C276.442 2.96495 276.619 3.2502 276.552 3.5357C276.498 3.76883 276.297 3.92991 276.07 3.94463ZM220.866 5.21404C220.621 5.22975 220.39 5.0734 220.321 4.8278C220.242 4.54554 220.406 4.25256 220.688 4.17327C222.377 3.69952 224.1 3.25943 225.812 2.86546C226.098 2.79989 226.382 2.97816 226.448 3.26366C226.514 3.54916 226.336 3.83417 226.05 3.89975C224.354 4.28972 222.647 4.72582 220.975 5.19509C220.939 5.20556 220.902 5.21154 220.866 5.21404ZM263.62 1.78032C263.589 1.78232 263.557 1.78156 263.524 1.77782C261.798 1.57935 260.043 1.42002 258.308 1.30432C258.016 1.28463 257.795 1.03204 257.814 0.739555C257.834 0.447075 258.087 0.225908 258.379 0.245357C260.131 0.362299 261.903 0.523118 263.646 0.723591C263.937 0.757003 264.146 1.02006 264.112 1.31129C264.083 1.57011 263.871 1.76411 263.62 1.78032ZM233.194 2.49817C232.924 2.51563 232.68 2.32539 232.637 2.0531C232.59 1.76386 232.786 1.49133 233.076 1.4447C234.156 1.27016 235.255 1.10884 236.343 0.965463C236.998 0.87919 237.662 0.797658 238.315 0.723104C238.605 0.690191 238.869 0.899132 238.903 1.19037C238.936 1.4816 238.726 1.74442 238.435 1.77758C237.787 1.85139 237.13 1.93217 236.482 2.01744C235.403 2.15957 234.315 2.3194 233.245 2.49219C233.228 2.49519 233.211 2.49718 233.194 2.49817ZM251.016 1.06021C251.004 1.06096 250.993 1.06146 250.981 1.06146C249.245 1.06171 247.484 1.10384 245.745 1.18662C245.453 1.20058 245.204 0.974682 245.19 0.681952C245.176 0.392215 245.397 0.145869 245.685 0.127168C245.689 0.126919 245.691 0.126915 245.695 0.126666C247.45 0.0428861 249.228 0.000249344 250.981 0C251.274 0 251.511 0.237373 251.511 0.530602C251.512 0.811862 251.293 1.04226 251.016 1.06021Z" fill="#080852"/>
<path d="M268.448 65.978V248.534H267.969L254.147 235.084L240.326 248.534H238.886L225.065 235.084L211.242 248.534H209.821L196.023 235.11L182.227 248.534H180.814L167.001 235.095L153.189 248.534H151.731L137.919 235.095L124.106 248.534H122.665L108.879 235.12L95.0926 248.534H94.1821V15.2422H217.712L268.448 65.978Z" fill="#EAF2FB"/>
<rect x="94.058" y="14.7588" width="118.277" height="7.3794" fill="#2F4798"/>
<rect x="143.754" y="14.7588" width="45.3186" height="7.3794" fill="#FFED00"/>
<rect x="171.058" y="14.7588" width="48" height="7.3794" fill="#29A1DC"/>
<path d="M268.448 65.9787H217.712V15.2422L268.448 65.9787Z" fill="#D8E0E9"/>
<path d="M162.69 138.141H157.534V147.018H148.686V138.141H130.405V131.842L149.184 104.186H157.534V131.11H162.69V138.141ZM148.686 131.11V123.844C148.686 122.633 148.735 120.876 148.832 118.571C148.93 116.266 149.008 114.928 149.067 114.557H148.832C148.11 116.159 147.241 117.721 146.225 119.245L138.373 131.11H148.686Z" fill="#080852"/>
<path d="M195.766 125.602C195.766 133.083 194.535 138.62 192.075 142.214C189.633 145.807 185.864 147.604 180.766 147.604C175.825 147.604 172.094 145.749 169.575 142.038C167.075 138.327 165.825 132.848 165.825 125.602C165.825 118.044 167.045 112.477 169.487 108.903C171.928 105.309 175.688 103.512 180.766 103.512C185.707 103.512 189.438 105.387 191.957 109.137C194.496 112.887 195.766 118.376 195.766 125.602ZM174.819 125.602C174.819 130.856 175.268 134.626 176.166 136.911C177.084 139.176 178.617 140.309 180.766 140.309C182.875 140.309 184.399 139.157 185.336 136.852C186.274 134.547 186.742 130.797 186.742 125.602C186.742 120.348 186.264 116.579 185.307 114.294C184.369 111.989 182.856 110.837 180.766 110.837C178.637 110.837 177.114 111.989 176.196 114.294C175.278 116.579 174.819 120.348 174.819 125.602Z" fill="#080852"/>
<path d="M231.244 138.141H226.088V147.018H217.241V138.141H198.959V131.842L217.739 104.186H226.088V131.11H231.244V138.141ZM217.241 131.11V123.844C217.241 122.633 217.289 120.876 217.387 118.571C217.485 116.266 217.563 114.928 217.621 114.557H217.387C216.664 116.159 215.795 117.721 214.78 119.245L206.928 131.11H217.241Z" fill="#080852"/>
<path d="M158.713 181.262C156.735 181.262 155.173 180.66 154.025 179.456C152.886 178.251 152.316 176.579 152.316 174.439C152.316 172.282 152.845 170.569 153.903 169.299C154.969 168.03 156.397 167.395 158.188 167.395C159.864 167.395 161.191 167.949 162.167 169.055C163.144 170.154 163.632 171.607 163.632 173.413V174.695H154.416C154.457 176.266 154.851 177.458 155.6 178.272C156.357 179.085 157.419 179.492 158.786 179.492C160.226 179.492 161.651 179.191 163.058 178.589V180.396C162.342 180.705 161.663 180.925 161.02 181.055C160.385 181.193 159.616 181.262 158.713 181.262ZM158.163 169.092C157.089 169.092 156.231 169.442 155.588 170.142C154.953 170.842 154.579 171.81 154.465 173.047H161.459C161.459 171.769 161.174 170.793 160.605 170.117C160.035 169.434 159.221 169.092 158.163 169.092Z" fill="#080852"/>
<path d="M173.202 167.395C173.797 167.395 174.33 167.444 174.802 167.542L174.521 169.422C173.967 169.299 173.479 169.238 173.056 169.238C171.974 169.238 171.046 169.678 170.273 170.557C169.508 171.436 169.125 172.53 169.125 173.84V181.018H167.099V167.639H168.771L169.003 170.117H169.101C169.597 169.247 170.195 168.575 170.895 168.103C171.595 167.631 172.364 167.395 173.202 167.395Z" fill="#080852"/>
<path d="M183.408 167.395C184.002 167.395 184.535 167.444 185.007 167.542L184.726 169.422C184.173 169.299 183.684 169.238 183.261 169.238C182.179 169.238 181.251 169.678 180.478 170.557C179.713 171.436 179.33 172.53 179.33 173.84V181.018H177.304V167.639H178.976L179.208 170.117H179.306C179.802 169.247 180.401 168.575 181.1 168.103C181.8 167.631 182.569 167.395 183.408 167.395Z" fill="#080852"/>
<path d="M199.057 174.317C199.057 176.498 198.508 178.202 197.409 179.431C196.31 180.652 194.793 181.262 192.856 181.262C191.659 181.262 190.597 180.982 189.67 180.42C188.742 179.859 188.026 179.053 187.521 178.003C187.017 176.953 186.764 175.724 186.764 174.317C186.764 172.136 187.31 170.439 188.4 169.226C189.491 168.005 191.004 167.395 192.941 167.395C194.813 167.395 196.298 168.018 197.397 169.263C198.504 170.508 199.057 172.193 199.057 174.317ZM188.864 174.317C188.864 176.026 189.206 177.328 189.889 178.223C190.573 179.118 191.578 179.566 192.905 179.566C194.231 179.566 195.236 179.122 195.92 178.235C196.611 177.34 196.957 176.034 196.957 174.317C196.957 172.616 196.611 171.326 195.92 170.447C195.236 169.56 194.223 169.116 192.88 169.116C191.554 169.116 190.553 169.552 189.877 170.422C189.202 171.293 188.864 172.591 188.864 174.317Z" fill="#080852"/>
<path d="M208.725 167.395C209.319 167.395 209.852 167.444 210.324 167.542L210.043 169.422C209.49 169.299 209.002 169.238 208.578 169.238C207.496 169.238 206.568 169.678 205.795 170.557C205.03 171.436 204.648 172.53 204.648 173.84V181.018H202.621V167.639H204.294L204.526 170.117H204.623C205.12 169.247 205.718 168.575 206.418 168.103C207.118 167.631 207.887 167.395 208.725 167.395Z" fill="#080852"/>
<path d="M188.665 312.299V312.301C185.668 315.298 180.809 315.298 177.812 312.301L131.219 265.707L125.299 259.786C129.609 256.941 133.306 253.243 136.15 248.933L188.665 301.447C191.662 304.444 191.662 309.303 188.665 312.299Z" fill="#FFED00"/>
<path d="M138.511 251.293L150.652 263.435C147.808 267.746 144.112 271.442 139.802 274.288H139.801L133.58 268.066L127.66 262.146C131.97 259.3 135.667 255.603 138.511 251.293Z" fill="#F2CB00"/>
<path d="M150.61 226.007C150.527 224.042 150.322 222.109 149.999 220.215C148.175 209.443 142.63 199.938 134.732 193.07C126.604 185.998 115.986 181.718 104.368 181.718C78.8062 181.718 58.0834 202.44 58.0834 228.004C58.0834 229.774 58.1833 231.52 58.376 233.238C58.9821 238.623 60.5119 243.727 62.8055 248.391V248.392C66.0976 255.094 70.9654 260.883 76.9243 265.277C77.8922 265.991 78.8909 266.67 79.9148 267.308C87.0109 271.731 95.3915 274.288 104.368 274.288C114.378 274.288 123.647 271.11 131.219 265.708C131.219 265.708 131.22 265.708 131.22 265.706C135.411 262.717 139.081 259.047 142.072 254.856V254.855H142.073C145.077 250.643 147.394 245.908 148.857 240.812C150.025 236.745 150.652 232.448 150.652 228.004C150.653 227.334 150.638 226.669 150.61 226.007ZM104.368 266.053C96.0421 266.053 88.3414 263.378 82.0761 258.842C75.9951 254.441 71.2671 248.281 68.6338 241.112C67.1349 237.025 66.317 232.609 66.317 228.003C66.317 226.271 66.4332 224.564 66.6586 222.893C68.5516 208.783 78.1795 197.122 91.1362 192.316C95.2566 190.788 99.7154 189.952 104.368 189.952C106.051 189.952 107.707 190.061 109.333 190.274C117.047 191.278 124.036 194.593 129.581 199.504C137.456 206.475 142.419 216.659 142.419 228.003C142.419 228.583 142.406 229.16 142.38 229.732C142.256 232.526 141.829 235.239 141.134 237.845C140.069 241.839 138.37 245.572 136.151 248.933C133.306 253.244 129.61 256.942 125.3 259.787C124.242 260.484 123.147 261.13 122.019 261.721C119.61 262.985 117.047 263.998 114.367 264.725C111.18 265.591 107.828 266.053 104.368 266.053Z" fill="#FFED00"/>
<path d="M75.5543 232.188C73.5916 232.188 72.0008 230.597 72.0008 228.634C72.0008 219.82 75.4332 211.533 81.6658 205.301C87.8984 199.068 96.1849 195.636 104.999 195.636C106.962 195.636 108.553 197.227 108.553 199.189C108.553 201.152 106.962 202.743 104.999 202.743C98.0832 202.743 91.5814 205.436 86.6911 210.326C81.8012 215.216 79.1081 221.718 79.1081 228.634C79.1078 230.597 77.5168 232.188 75.5543 232.188Z" fill="white"/>
</svg>
