<?xml version="1.0" encoding="utf-8"?>
<!-- Generator: Adobe Illustrator 16.0.0, SVG Export Plug-In . SVG Version: 6.00 Build 0)  -->
<!DOCTYPE svg PUBLIC "-//W3C//DTD SVG 1.1//EN" "http://www.w3.org/Graphics/SVG/1.1/DTD/svg11.dtd">
<svg version="1.1" id="Layer_1" xmlns="http://www.w3.org/2000/svg" xmlns:xlink="http://www.w3.org/1999/xlink" x="0px" y="0px"
	 width="512px" height="344.5px" viewBox="0 0 512 344.5" enable-background="new 0 0 512 344.5" xml:space="preserve">
<g>
	<g>
		<g>
			<defs>
				<path id="SVGID_1_" d="M512,334.771c0,5.521-4.479,10-10,10H10c-5.523,0-10-4.479-10-10V11C0,5.477,4.477,1,10,1h492
					c5.521,0,10,4.478,10,10V334.771z"/>
			</defs>
			<clipPath id="SVGID_2_">
				<use xlink:href="#SVGID_1_"  overflow="visible"/>
			</clipPath>
			<path clip-path="url(#SVGID_2_)" fill="#4758A9" d="M512,0.999H0V344.77h512V0.999z"/>
		</g>
	</g>
	<g>
		<g>
			<defs>
				<path id="SVGID_3_" d="M512,334.771c0,5.521-4.479,10-10,10H10c-5.523,0-10-4.479-10-10V11C0,5.477,4.477,1,10,1h492
					c5.521,0,10,4.478,10,10V334.771z"/>
			</defs>
			<clipPath id="SVGID_4_">
				<use xlink:href="#SVGID_3_"  overflow="visible"/>
			</clipPath>
			<path clip-path="url(#SVGID_4_)" fill="#F6D660" d="M124.669,0.999h343.758V344.77L124.669,0.999z"/>
		</g>
	</g>
	<g>
		<g>
			<defs>
				<path id="SVGID_5_" d="M512,334.771c0,5.521-4.479,10-10,10H10c-5.523,0-10-4.479-10-10V11C0,5.477,4.477,1,10,1h492
					c5.521,0,10,4.478,10,10V334.771z"/>
			</defs>
			<clipPath id="SVGID_6_">
				<use xlink:href="#SVGID_5_"  overflow="visible"/>
			</clipPath>
			<path clip-path="url(#SVGID_6_)" fill="#FFFFFF" d="M50.915,0.999l-7.329,22.555L62.78,9.611l19.195,13.942l-7.33-22.555
				L50.915,0.999L50.915,0.999z"/>
		</g>
	</g>
	<g>
		<g>
			<defs>
				<path id="SVGID_7_" d="M512,334.771c0,5.521-4.479,10-10,10H10c-5.523,0-10-4.479-10-10V11C0,5.477,4.477,1,10,1h492
					c5.521,0,10,4.478,10,10V334.771z"/>
			</defs>
			<clipPath id="SVGID_8_">
				<use xlink:href="#SVGID_7_"  overflow="visible"/>
			</clipPath>
			<polygon clip-path="url(#SVGID_8_)" fill="#FFFFFF" points="117.566,43.952 136.764,30.007 113.036,30.007 105.704,7.437 
				98.367,30.007 74.645,30.007 93.834,43.95 86.497,66.519 105.7,52.571 124.897,66.519 			"/>
		</g>
	</g>
	<g>
		<g>
			<defs>
				<path id="SVGID_9_" d="M512,334.771c0,5.521-4.479,10-10,10H10c-5.523,0-10-4.479-10-10V11C0,5.477,4.477,1,10,1h492
					c5.521,0,10,4.478,10,10V334.771z"/>
			</defs>
			<clipPath id="SVGID_10_">
				<use xlink:href="#SVGID_9_"  overflow="visible"/>
			</clipPath>
			<polygon clip-path="url(#SVGID_10_)" fill="#FFFFFF" points="160.585,86.905 179.782,72.957 156.052,72.957 148.723,50.402 
				141.393,72.957 117.664,72.957 136.861,86.905 129.529,109.469 148.723,95.523 167.917,109.469 			"/>
		</g>
	</g>
	<g>
		<defs>
			<path id="SVGID_11_" d="M512,334.771c0,5.521-4.479,10-10,10H10c-5.523,0-10-4.479-10-10V11C0,5.477,4.477,1,10,1h492
				c5.521,0,10,4.478,10,10V334.771z"/>
		</defs>
		<clipPath id="SVGID_12_">
			<use xlink:href="#SVGID_11_"  overflow="visible"/>
		</clipPath>
		<polygon clip-path="url(#SVGID_12_)" fill="#FFFFFF" points="203.564,129.894 222.759,115.95 199.034,115.95 191.702,93.381 
			184.365,115.95 160.627,115.95 179.83,129.898 172.494,152.462 191.694,138.516 210.895,152.462 		"/>
	</g>
	<g>
		<g>
			<defs>
				<path id="SVGID_13_" d="M512,334.771c0,5.521-4.479,10-10,10H10c-5.523,0-10-4.479-10-10V11C0,5.477,4.477,1,10,1h492
					c5.521,0,10,4.478,10,10V334.771z"/>
			</defs>
			<clipPath id="SVGID_14_">
				<use xlink:href="#SVGID_13_"  overflow="visible"/>
			</clipPath>
			<polygon clip-path="url(#SVGID_14_)" fill="#FFFFFF" points="246.541,172.886 265.738,158.941 242.009,158.941 234.68,136.386 
				227.346,158.941 203.606,158.941 222.81,172.89 215.473,195.453 234.673,181.506 253.874,195.453 			"/>
		</g>
	</g>
	<g>
		<g>
			<defs>
				<path id="SVGID_15_" d="M512,334.771c0,5.521-4.479,10-10,10H10c-5.523,0-10-4.479-10-10V11C0,5.477,4.477,1,10,1h492
					c5.521,0,10,4.478,10,10V334.771z"/>
			</defs>
			<clipPath id="SVGID_16_">
				<use xlink:href="#SVGID_15_"  overflow="visible"/>
			</clipPath>
			<polygon clip-path="url(#SVGID_16_)" fill="#FFFFFF" points="289.5,215.844 308.69,201.906 284.966,201.906 277.619,179.324 
				270.287,201.906 246.572,201.906 265.763,215.841 258.437,238.404 277.635,224.461 296.84,238.404 			"/>
		</g>
	</g>
	<g>
		<g>
			<defs>
				<path id="SVGID_17_" d="M512,334.771c0,5.521-4.479,10-10,10H10c-5.523,0-10-4.479-10-10V11C0,5.477,4.477,1,10,1h492
					c5.521,0,10,4.478,10,10V334.771z"/>
			</defs>
			<clipPath id="SVGID_18_">
				<use xlink:href="#SVGID_17_"  overflow="visible"/>
			</clipPath>
			<polygon clip-path="url(#SVGID_18_)" fill="#FFFFFF" points="332.487,258.831 351.695,244.885 327.955,244.885 320.621,222.316 
				313.287,244.885 289.549,244.885 308.756,258.831 301.428,281.383 320.621,267.446 339.815,281.383 			"/>
		</g>
	</g>
	<g>
		<g>
			<defs>
				<path id="SVGID_19_" d="M512,334.771c0,5.521-4.479,10-10,10H10c-5.523,0-10-4.479-10-10V11C0,5.477,4.477,1,10,1h492
					c5.521,0,10,4.478,10,10V334.771z"/>
			</defs>
			<clipPath id="SVGID_20_">
				<use xlink:href="#SVGID_19_"  overflow="visible"/>
			</clipPath>
			<polygon clip-path="url(#SVGID_20_)" fill="#FFFFFF" points="375.433,301.784 394.618,287.836 370.903,287.836 363.572,265.266 
				356.241,287.836 332.526,287.836 351.711,301.784 344.379,324.361 363.573,310.407 382.766,324.361 			"/>
		</g>
	</g>
	<g>
		<g>
			<defs>
				<path id="SVGID_21_" d="M512,334.771c0,5.521-4.479,10-10,10H10c-5.523,0-10-4.479-10-10V11C0,5.477,4.477,1,10,1h492
					c5.521,0,10,4.478,10,10V334.771z"/>
			</defs>
			<clipPath id="SVGID_22_">
				<use xlink:href="#SVGID_21_"  overflow="visible"/>
			</clipPath>
			<polygon clip-path="url(#SVGID_22_)" fill="#FFFFFF" points="413.896,330.813 406.553,308.245 399.209,330.813 375.506,330.813 
				394.7,344.77 418.43,344.77 437.625,330.813 			"/>
		</g>
	</g>
</g>
</svg>
