<svg xmlns="http://www.w3.org/2000/svg" width="210" height="211" fill="none" xmlns:v="https://vecta.io/nano"><path d="M210 105.055c0 58.021-47.01 105.055-105 105.055S0 163.076 0 105.055 47.01 0 105 0s105 47.035 105 105.055z" fill="#3d79cf"/><g fill-rule="evenodd"><path d="M32.459 61.042c23.687 6.765 49.018 10.428 75.345 10.428s51.66-3.663 75.345-10.428c4.427 7.635 7.728 16.003 9.684 24.879-24.568 11.956-53.738 18.886-85.029 18.886s-60.461-6.929-85.029-18.886c1.957-8.876 5.257-17.245 9.684-24.879z" fill="#4ea9b4"/><path d="M64.039 30.086c6.861 23.687 10.577 49.018 10.577 75.346s-3.716 51.66-10.577 75.347c7.743 4.426 16.231 7.728 25.234 9.683 12.126-24.569 19.156-53.739 19.156-85.03s-7.028-60.46-19.156-85.029a88.85 88.85 0 0 0-25.234 9.683z" fill="#f04b22"/><path d="M32.459 148.572c23.687-6.765 49.018-10.428 75.345-10.428s51.66 3.663 75.345 10.428c4.427-7.634 7.728-16.002 9.684-24.877-24.568-11.956-53.738-18.888-85.029-18.888s-60.461 6.931-85.029 18.888c1.957 8.875 5.257 17.243 9.684 24.877z" fill="#4ea9b4"/><path d="M151.569 29.461c-3.61 12.826-6.325 26.133-8.054 39.82-10.602 1.374-21.433 2.135-32.447 2.24 3.007-18.681 8.494-36.14 15.979-51.743a84.86 84.86 0 0 1 24.522 9.683zm0 150.692c-7.525 4.427-15.774 7.729-24.522 9.683-11.786-24.568-18.618-53.738-18.618-85.03 11.278 0 22.275-.923 32.873-2.672l-.012 2.672c0 26.329 3.61 51.661 10.279 75.347z" fill="#f04b22"/></g><g fill="#fff"><path d="M44.116 77.793l.218-.243.303-.299c.379-.351.799-.651 1.255-.902v-.098c0-.228-.2-.412-.445-.412h-.495a.27.27 0 0 0-.219.106l-.73.955-.178-.347.283-.551c.038-.076-.021-.163-.11-.163h-.566c-.09 0-.15.088-.111.163l.283.551-.175.341-.712-.946a.28.28 0 0 0-.221-.108h-.52c-.246 0-.445.185-.445.412v2.739h1.804a5.83 5.83 0 0 1 .781-1.197zm-1.841-3.544c0 .731.644 1.327 1.434 1.327s1.434-.596 1.434-1.327-.643-1.328-1.434-1.328-1.434.596-1.434 1.328zm15.905 1.649c-.09 0-.173.039-.224.107l-.745.975-.181-.354.289-.562c.039-.077-.021-.166-.113-.166h-.578c-.091 0-.154.089-.113.166l.289.562-.178.348-.725-.965c-.051-.068-.136-.111-.225-.111h-.531c-.251 0-.454.189-.454.42v.107a6.4 6.4 0 0 1 1.264.911l.318.316.211.238c.317.376.585.784.797 1.221h1.857v-2.792c0-.233-.204-.42-.454-.42h-.504zm-2.729-1.623c0 .746.657 1.354 1.463 1.354s1.463-.607 1.463-1.354-.657-1.354-1.463-1.354-1.463.608-1.463 1.354zm3.831 13.287l-2.395-1.698a7.22 7.22 0 0 1-1.116 1.305l-.109.098 2.434 1.725a1.02 1.02 0 0 0 .592.186 1 1 0 0 0 .774-.353c.327-.393.247-.959-.18-1.262zm-6.317-5.485c0-.278-.244-.501-.542-.501h-.602c-.107 0-.206.047-.267.128l-.889 1.163-.216-.422.345-.67c.047-.092-.025-.199-.135-.199h-.69c-.109 0-.183.106-.134.199l.345.67-.212.415-.863-1.152c-.06-.081-.162-.132-.269-.132h-.633c-.3 0-.542.226-.542.502v3.333h5.306v-3.333h-.002z"/><path d="M50.313 81.256c.962 0 1.746-.724 1.746-1.616s-.783-1.615-1.746-1.615-1.746.725-1.746 1.615.783 1.616 1.746 1.616zm-2.83 7.03c.895.35 1.843.526 2.82.526a7.72 7.72 0 0 0 2.82-.526 7.31 7.31 0 0 0 2.147-1.296l.156-.139a6.83 6.83 0 0 0 1.072-1.262 6.76 6.76 0 0 0 .48-.869 6.24 6.24 0 0 0 .569-2.609c0-.903-.191-1.783-.569-2.609l-.164-.332c-.351-.665-.816-1.269-1.389-1.799a7.21 7.21 0 0 0-1.163-.874 7.5 7.5 0 0 0-1.14-.563 7.72 7.72 0 0 0-2.819-.526 7.7 7.7 0 0 0-2.82.526 7.49 7.49 0 0 0-1.12.55 7.15 7.15 0 0 0-1.183.885 6.74 6.74 0 0 0-1.389 1.799l-.163.332c-.378.827-.569 1.705-.569 2.609a6.23 6.23 0 0 0 .569 2.609c.364.799.886 1.514 1.553 2.131a7.33 7.33 0 0 0 2.305 1.437zm-1.239-9.118l.119-.133.296-.298c.974-.901 2.268-1.397 3.646-1.397s2.671.496 3.644 1.397l.316.319.099.114a4.51 4.51 0 0 1 1.095 2.941c0 1.275-.536 2.472-1.51 3.374s-2.268 1.397-3.644 1.397-2.672-.496-3.644-1.397-1.51-2.099-1.51-3.374a4.51 4.51 0 0 1 1.093-2.942zM89.09 113.56H77.085c-.299 0-.542.247-.542.552v9.053c0 .305.243.552.542.552h11.784l-1.426-.902a1.47 1.47 0 0 1-.254-.201h-9.563v-7.951h10.921v5.353a1.49 1.49 0 0 1 .483.198l.601.379v-6.481c0-.305-.243-.552-.542-.552zm-3.543 5.176a.41.41 0 0 0-.585.071.43.43 0 0 0 .069.595l1.838 1.475c.026-.058.056-.115.09-.17a1.52 1.52 0 0 1 .454-.474l-1.866-1.497zm8.422-.65c.861 0 1.559-.71 1.559-1.586s-.698-1.587-1.559-1.587-1.559.71-1.559 1.587.698 1.586 1.559 1.586zm3.804 2.309c-.005-.994-.804-1.802-1.781-1.802h-.755l-.934 2.466.195-1.003c.014-.073.003-.15-.033-.216l-.306-.567.272-.503c.019-.035.018-.077-.002-.112s-.056-.055-.095-.055h-.746a.11.11 0 0 0-.095.055c-.02.034-.021.077-.002.112l.271.502-.306.566c-.036.067-.048.145-.032.22l.226 1.001-.966-2.466h-.74c-.977 0-1.776.808-1.781 1.802l-.007 1.432-1.524-.963c-.353-.223-.817-.112-1.036.247s-.111.831.242 1.054l2.666 1.685c.499.315 1.146-.05 1.149-.647l.014-2.8c.001-.088.071-.16.158-.159s.157.072.157.16l-.016 12.87a.91.91 0 0 0 .903.918.91.91 0 0 0 .903-.918v-7.344h.39v7.344a.91.91 0 0 0 .903.918.91.91 0 0 0 .903-.918v-12.87a.15.15 0 0 1 .149-.152.15.15 0 0 1 .15.151l.028 5.625a.76.76 0 0 0 .752.762.76.76 0 0 0 .752-.77l-.028-5.625zm-53.499 11.93c.822 1.546 1.528 2.133 3.477 2.452s2.99.934 3.682.764 1.298-1.084 2.876-2.274 1.051-1.302 1.061-3.05l-4.369 3.573-6.727-1.465zm13.464-7.874l-8.466-2.242a2.55 2.55 0 0 0-2.124.523l-6.453 5.923c-.505.463-.376.987.287 1.163l8.466 2.242c.663.176 1.619-.06 2.123-.523l4.172-3.829-5.524.093a2.85 2.85 0 0 1-.637.237c-.941.232-1.814-.023-1.949-.57s.519-1.181 1.46-1.413c.731-.18 1.419-.065 1.754.251l5.975.41 1.201-1.101c.505-.463.376-.987-.287-1.163l.002-.001zm-.371 8.299c.026.35 1.369.607 1.24-.406-.576-4.569-1.783-5.627-1.783-5.627l-1.082.992c0-.001 1.303.724 1.624 5.042v-.001zm98.418-12.945c.686-.717 1.11-1.708 1.11-2.802 0-.52-.401-.942-.896-.942h-5.733c-.495 0-.897.422-.897.942 0 1.094.425 2.085 1.111 2.802-1.589.967-2.662 2.768-2.662 4.832 0 3.928 3.861 3.928 5.314 3.928s5.314 0 5.314-3.928c0-2.064-1.073-3.865-2.661-4.832zm-2.926 3.309c.175 0 .316.149.316.332s-.141.331-.316.331h-.909l-.006.123.006.123h.909c.175 0 .316.148.316.331s-.141.332-.316.332h-.707c.216.37.579.613.99.613.419 0 .813-.263 1.029-.685.11-.216.366-.298.572-.181s.283.385.172.601c-.363.711-1.043 1.153-1.773 1.153-.879 0-1.629-.626-1.916-1.501h-.261c-.174 0-.315-.149-.315-.332s.141-.331.315-.331h.14l-.006-.123.006-.123h-.14c-.174 0-.315-.148-.315-.331s.141-.332.315-.332h.261c.287-.874 1.037-1.501 1.916-1.501.73 0 1.41.442 1.773 1.153.111.217.033.486-.172.602s-.462.034-.572-.181c-.216-.423-.61-.686-1.029-.686-.411 0-.774.243-.99.613h.707z"/></g><g fill="#f5f4f4"><path d="M130.312 52.914c0 .345-.14.625-.313.625s-.313-.28-.313-.625.14-.625.313-.625.313.28.313.625z"/><path d="M131.551 52.637c-.034 0-.067-.007-.099-.02-.01-.004-.018-.009-.027-.014a.28.28 0 0 1-.056-.038.29.29 0 0 1-.025-.025c-.014-.016-.026-.034-.035-.053l-.017-.033c-.04-.124-.083-.231-.137-.332-.013-.033-.02-.053-.023-.073a.35.35 0 0 1-.009-.045.28.28 0 0 1 .005-.058c.002-.035.014-.068.035-.096.008-.015.017-.03.028-.044l.459-.464-.393-.393-.444.445c-.049.052-.116.082-.187.083-.017.002-.021.002-.025.001-.027-.001-.053-.006-.078-.015-.01-.003-.019-.006-.028-.01a1.9 1.9 0 0 0-.336-.138c-.03-.014-.047-.024-.063-.035s-.029-.017-.042-.028-.023-.026-.033-.041a.27.27 0 0 1-.029-.044c-.007-.015-.012-.032-.015-.048s-.01-.037-.012-.055l-.002-.651h-.554v.636a.42.42 0 0 1-.015.071c-.003.016-.008.032-.014.048a.34.34 0 0 1-.03.044c-.01.015-.021.028-.033.041s-.027.02-.041.028a.32.32 0 0 1-.052.028c-.122.039-.228.083-.329.138-.006.003-.013.005-.019.008s-.016.006-.024.01c-.099.036-.21.012-.285-.062l-.003-.002-.449-.449-.393.393.45.45a.4.4 0 0 1 .038.058c.02.028.032.061.034.096a.28.28 0 0 1 .006.058c-.002.015-.005.03-.009.045-.004.02-.01.04-.018.059-.059.116-.103.222-.135.332l-.024.047c-.01.019-.022.037-.036.053-.007.009-.016.017-.024.025a.28.28 0 0 1-.056.037c-.009.005-.018.01-.028.014-.031.013-.064.02-.098.02h-.636v.556h.636c.033.005.053.008.072.015a.26.26 0 0 1 .046.014c.016.009.031.019.045.03s.028.021.04.033.02.027.028.042.02.033.028.051a1.93 1.93 0 0 0 .137.33c.004.006.005.013.008.019s.006.016.009.024c.036.099.012.21-.062.285l-.001.002-.45.449.393.393.45-.45a.44.44 0 0 1 .059-.039c.015-.01.032-.018.049-.025a.26.26 0 0 1 .047-.009c.018-.004.037-.005.056-.005s.03.005.045.009c.02.004.04.01.059.018.115.059.222.102.332.135a.42.42 0 0 1 .063.035c.015.008.029.017.042.028a.32.32 0 0 1 .033.041c.023.025.039.057.044.091.006.018.01.037.012.056l.002.652h.556v-.636l.014-.07c.006-.034.021-.066.045-.092.009-.015.02-.028.033-.041s.027-.02.041-.028.033-.02.051-.028c.123-.04.229-.083.33-.138.033-.013.053-.019.073-.023s.03-.007.046-.009a.24.24 0 0 1 .153.04c.015.008.03.018.044.029l.464.46.393-.393-.445-.445c-.028-.027-.05-.059-.065-.096-.011-.029-.017-.061-.019-.092-.002-.015 0-.019 0-.024.001-.027.006-.053.015-.079.003-.009.006-.018.011-.026.061-.12.104-.226.137-.336l.035-.063c.008-.015.017-.029.028-.043s.024-.022.038-.032.03-.022.047-.031.029-.01.044-.013.04-.011.06-.012l.65-.003v-.557h-.636zm-1.865 1.389a1.11 1.11 0 0 1 0-2.223 1.11 1.11 0 1 1 0 2.223z"/><path d="M128.722 48.577c-3.82-.325-5.02 1.496-5.296 2.063-.582 1.192-.549 3.491-.549 3.514a.18.18 0 0 1-.001.033c-.008.084-.03.166-.064.243l-.013.026-1.226 2.133c-.025.067-.017.142.023.201s.104.095.174.095c.418.001.756.347.757.775v.076c0 .063-.008.127-.022.188l-.243.994a.22.22 0 0 0 .029.173l.381.585c.118.182.156.406.105.618l-.127.52c-.015.059-.004.123.03.174a.21.21 0 0 0 .145.094l3.379.495c.372.056.648.382.649.767v1.824h5.449c-.411-.843-1.16-2.787-.409-4.581.26-.601.581-1.172.956-1.706.61-.934 1.185-1.814 1.185-2.934.286-3.8-1.601-6.055-5.312-6.371zm-2.558 5.822h-.545c-.15 0-.272-.125-.272-.279v-.409l-.282.289c-.107.109-.279.109-.385 0l-.578-.592c-.107-.109-.107-.286 0-.395l.282-.289h-.399c-.151 0-.273-.125-.273-.279v-.837c0-.154.122-.279.273-.279h.399l-.282-.289c-.107-.109-.107-.286 0-.395l.578-.592c.106-.109.278-.109.385 0l.282.289v-.409c0-.154.122-.279.272-.279h.818c.15 0 .272.125.272.279v.502c.04.018.085.031.121.051a.28.28 0 0 1 .147.314c-.029.127-.139.217-.266.216-.047 0-.092-.012-.133-.034a1.15 1.15 0 0 0-.221-.093c-.03-.014-.047-.024-.062-.035s-.028-.017-.041-.028a.32.32 0 0 1-.033-.042c-.011-.014-.02-.028-.028-.044s-.011-.032-.015-.049a.35.35 0 0 1-.011-.056l-.003-.425h-.272v.409l-.014.07a.29.29 0 0 1-.013.051.25.25 0 0 1-.029.043.33.33 0 0 1-.033.042c-.013.01-.026.02-.04.028s-.033.021-.051.028a1.45 1.45 0 0 0-.232.1l-.019.008-.022.009c-.028.011-.057.016-.087.017a.27.27 0 0 1-.196-.082l-.284-.291-.192.197.282.291c.031.043.049.074.064.107.004.016.008.032.009.048s.005.037.005.056-.004.032-.009.047-.009.039-.017.057a1.55 1.55 0 0 0-.096.241c-.011.026-.017.037-.023.048-.009.019-.021.037-.035.053-.007.009-.015.017-.024.025-.016.015-.035.028-.054.038-.01.005-.018.01-.028.014-.03.013-.063.02-.096.02h-.401v.279h.4a.42.42 0 0 1 .071.015.27.27 0 0 1 .045.014c.016.009.03.019.043.03a.3.3 0 0 1 .041.033c.01.013.019.027.027.042a.25.25 0 0 1 .027.052 1.52 1.52 0 0 0 .098.238c.003.006.005.013.007.02s.006.014.009.022c.01.028.016.058.017.088.001.075-.028.148-.08.202l-.282.288.192.197.284-.29.057-.039c.016-.01.032-.019.048-.025.034-.008.068-.013.103-.014.015.002.03.005.045.009s.038.01.056.018c.085.043.159.074.235.098a.41.41 0 0 1 .063.035c.014.008.027.017.04.028s.023.027.033.042.021.028.029.044a.27.27 0 0 1 .026.104l.002.424h.273c.15 0 .272.125.272.279s-.122.279-.272.279h-.002zm.491-2.619c-.107.109-.279.109-.386 0a.34.34 0 0 0-.481 0c-.097.1-.126.25-.074.38a.34.34 0 0 0 .314.216c.15 0 .272.125.272.279s-.122.279-.272.279c-.359.001-.682-.22-.82-.559s-.061-.73.193-.99a.89.89 0 0 1 1.252 0c.051.052.081.123.081.197s-.028.145-.079.198zm4.958 5.131c0 .154-.122.279-.273.279h-.399l.283.289c.106.109.106.286 0 .395l-.578.592c-.107.109-.279.109-.385 0l-.283-.289v.409c0 .154-.122.279-.272.279h-.817c-.151 0-.273-.125-.273-.279v-.409l-.282.289c-.107.109-.279.109-.385 0l-.578-.592c-.106-.109-.106-.286 0-.395l.282-.289h-.399c-.15 0-.272-.125-.272-.279v-.837c0-.154.122-.279.272-.279s.272.125.272.279v.558h.4c.033.005.052.008.071.014s.031.008.045.014a.56.56 0 0 1 .084.063c.021.029.039.06.054.093.03.091.06.166.098.238l.007.02.009.022c.01.028.016.058.016.089.001.075-.027.148-.079.202l-.282.289.192.197.284-.29.058-.039a.26.26 0 0 1 .048-.025c.033-.008.067-.013.102-.015.034.006.069.015.101.028.085.043.159.074.235.098.03.014.047.024.063.035s.028.017.04.028a.25.25 0 0 1 .062.085c.006.016.011.032.015.049a.35.35 0 0 1 .011.056l.002.423h.273v-.409c.004-.034.008-.052.014-.07s.006-.034.012-.051.017-.03.028-.044a.32.32 0 0 1 .033-.042c.013-.011.026-.02.041-.028s.032-.021.05-.028c.088-.03.162-.061.233-.1.032-.013.051-.019.07-.023a.18.18 0 0 1 .102-.004.25.25 0 0 1 .046.009.46.46 0 0 1 .091.056l.297.299.192-.197-.279-.286c-.05-.048-.08-.115-.081-.186l-.003-.022c.001-.029.006-.057.016-.084.003-.008.005-.016.009-.024s.004-.013.007-.019c.038-.072.068-.148.091-.226.014-.031.023-.048.034-.064s.017-.029.027-.042.026-.023.04-.033.028-.021.043-.03.031-.011.046-.015.038-.01.057-.012l.417-.003v-.279c0-.154.122-.279.272-.279s.273.125.273.279v.558zm-3.201-.419c0-.154.122-.279.272-.279s.273.125.273.279c0 .193.152.349.34.349.151 0 .273.125.273.279s-.122.279-.273.279c-.489-.001-.885-.406-.885-.907zm4.291-4.047v1.117c0 .154-.122.279-.273.279h-.704l-.014.034.498.51c.106.109.106.286 0 .395l-.77.789c-.107.109-.279.109-.386 0l-.497-.51-.034.013v.722c0 .154-.122.279-.272.279h-1.09c-.15 0-.272-.125-.272-.279v-.722l-.034-.013-.498.51c-.106.109-.279.109-.385 0l-.77-.789c-.107-.109-.107-.286 0-.395l.498-.51-.014-.034h-.704c-.151 0-.273-.125-.273-.279v-1.117c0-.154.122-.279.273-.279h.704c.005-.011.009-.023.013-.034l-.497-.51c-.107-.109-.107-.286 0-.395l.77-.789c.106-.109.279-.109.385 0l.498.51.034-.014v-.721c0-.154.122-.279.272-.279h1.09c.15 0 .272.125.272.279v.722l.033.014.498-.51c.108-.105.277-.105.386 0l.77.789c.106.109.106.286 0 .395l-.498.51c.005.011.009.023.013.034h.705c.151 0 .273.125.273.279z"/></g><g fill-rule="evenodd" fill="#fff"><path d="M129.948 126.483c-1.327.01-2.418-1.081-2.427-2.425a2.44 2.44 0 0 1 2.421-2.468c1.321-.012 2.427 1.086 2.44 2.421a2.44 2.44 0 0 1-2.434 2.472zm4.103 3.013c-.003-.226-.07-.464-.163-.672-.55-1.236-1.523-1.867-2.85-1.966-.065-.005-.155.041-.199.093l-.703.867c-.051.067-.078.178-.066.262.031.223.09.443.138.665l.686 3.212c.011.052.013.132-.017.16l-.938.882-.918-.881c-.028-.028-.031-.101-.021-.147l.83-3.877c.024-.112.01-.196-.063-.283l-.71-.86c-.047-.055-.148-.103-.213-.093-.337.057-.684.096-1.002.212a3.25 3.25 0 0 0-.406.181c.433.333.782.785 1.041 1.367.097.217.168.467.171.702l.012 4.1h3.275v-3.853c.217-.025.423.119.482.34.025.093.033.192.033.288l.001 3.225h1.612l-.012-3.924z"/><path d="M119.683 133.567l.012-.32-.006-3.288c-.045-1.529.982-2.612 2.116-3.027.332-.121.695-.161 1.046-.221.069-.011.175.04.224.097l.742.899c.075.09.331.077.384.007l.735-.906c.046-.054.14-.103.208-.098 1.386.104 2.403.764 2.978 2.055.096.217.167.466.17.702l.012 4.1h-1.684l-.001-3.369c0-.101-.008-.205-.034-.301-.062-.232-.277-.381-.504-.356v4.026h-4.142v-4.038c-.32.011-.539.227-.54.535l.001 3.503h-1.717zm12.226-17.506c.156.103.195.25.194.434l-.003 3.676c0 .34-.081.422-.416.422l-3.08.001h-.197v1.296l-.132-.115-1.076-1.074c-.06-.058-.162-.102-.245-.103l-2.76-.005c-.319 0-.401-.08-.401-.398l-.003-3.745c-.001-.178.049-.305.205-.389h7.914zm-1.152 2.254a.55.55 0 0 0-.571-.558c-.337.003-.567.238-.568.579a.55.55 0 0 0 .562.567c.341 0 .58-.243.577-.588zm-5.055.588c.318.001.57-.244.573-.559a.56.56 0 0 0-.576-.589c-.318.001-.581.262-.58.576a.58.58 0 0 0 .583.572zm2.237.001c.321.001.586-.258.587-.573a.58.58 0 0 0-.586-.574c-.32-.003-.568.242-.569.563a.56.56 0 0 0 .568.584zm-4.101 7.268c-1.387.01-2.527-1.129-2.536-2.533-.01-1.421 1.115-2.567 2.53-2.58 1.38-.012 2.536 1.135 2.549 2.531a2.55 2.55 0 0 1-2.543 2.582z"/></g><path d="M136.564 34.293c-.656-.608-1.544-.942-2.501-.942s-1.845.335-2.501.942a3.34 3.34 0 0 0-1.061 2.485 3.86 3.86 0 0 0 1.201 2.86c.08.08.241.286.436.549a.74.74 0 0 0-.231.532c0 .241.121.457.309.597-.018.059-.028.12-.028.184a.67.67 0 0 0 .311.558c-.029.069-.046.156-.046.235 0 .334.29.618.646.618h1.928c.356 0 .646-.284.646-.618 0-.079-.017-.16-.046-.229.188-.124.311-.331.311-.562a.63.63 0 0 0-.028-.185.75.75 0 0 0 .309-.598c0-.202-.085-.386-.223-.523l.454-.567c.791-.785 1.175-1.718 1.175-2.852 0-.969-.377-1.852-1.061-2.485zm-2.501 1.749l1.183 1.641h-.615v2.283h-1.175v-2.283h-.577l1.184-1.641zm-.02-3.671a.71.71 0 0 0 .705-.714v-1.162c0-.394-.319-.714-.705-.714a.71.71 0 0 0-.705.714v1.162c0 .394.32.714.705.714zm6.199 3.389h-1.135c-.386 0-.698.327-.698.721s.312.721.698.721h1.135c.386 0 .698-.327.698-.721s-.312-.721-.698-.721zm-11.223 0h-1.136c-.385 0-.697.327-.697.721s.312.721.697.721h1.136c.385 0 .698-.327.698-.721s-.313-.721-.698-.721zm1.827-3.378l-.92-.848c-.287-.264-.728-.24-.986.053s-.234.744.052 1.008l.921.848c.133.123.3.183.466.183a.69.69 0 0 0 .519-.236c.258-.293.235-.744-.052-1.008zm8.34-.794c-.258-.293-.699-.317-.986-.053l-.921.848c-.286.264-.309.715-.051 1.008.137.157.328.236.518.236.167 0 .334-.06.467-.183l.921-.848c.286-.264.309-.715.052-1.008zm-4.927 125.936v-.552c0-1.129-.705-2.085-1.675-2.404v-.206c0-.416-.231-.764-.541-.859v-.571c.087-.058.145-.161.145-.278 0-.182-.14-.33-.313-.33s-.313.148-.313.33c0 .117.057.22.144.278v.571c-.31.095-.541.443-.541.859v.206c-.97.319-1.675 1.275-1.675 2.404v.552c.488-.302 1.245-.577 2.385-.577s1.896.275 2.384.577zm-2.681-3.162c0-.244.136-.449.297-.449s.296.205.296.449v.113a2.23 2.23 0 0 0-.296-.021c-.101 0-.2.008-.297.021v-.113zm3.803 5.67l-.789-.42v-1.122c-.134-.208-.79-1.035-2.717-1.035s-2.585.829-2.718 1.035v1.16l-.789.391v-.765h-5.559v1.038h.475v4.514h17.181v-4.514h.475v-1.039h-5.559v.757zm-10.154 3.583h-.626v-3.175h.626v3.175zm1.734 0h-.626v-3.175h.626v3.175zm5.042-4.867l2.618 1.395h-5.431l2.813-1.395zm-2.152 5.419h-.81v-3.191h.81v3.191zm1.686 0h-1.011v-3.191h1.011v3.191zm1.686 0h-1.011v-3.191h1.011v3.191zm1.485 0h-.81v-3.191h.81v3.191zm2.706-.552h-.626v-3.175h.626v3.175zm1.734 0h-.626v-3.175h.626v3.175zm-8.608-80.78c1.038 0 1.879-.82 1.879-1.831s-.841-1.831-1.879-1.831-1.878.82-1.878 1.831.841 1.831 1.878 1.831zm-8.343 8.205c-.147.269-.495.372-.771.225l-3.319-1.742c-.276-.144-.382-.483-.231-.751l1.119-2.025c.149-.269.496-.372.772-.225l3.321 1.742c.277.144.382.483.231.752l-1.122 2.024zm2.352-1.734v3.284l-2.098 2.045c-.333.325-.333.851 0 1.176a.86.86 0 0 0 .603.244.85.85 0 0 0 .603-.244l2.349-2.288.029-.03c.016-.02.022-.025.028-.03s.009-.011.014-.02a.16.16 0 0 0 .025-.033l.023-.033.023-.033c.011-.022.017-.027.019-.036.013-.022.015-.03.018-.036s.006-.011.009-.02l.014-.039.015-.039.012-.039.008-.042c.006-.022.006-.033.009-.042l.006-.039c.003-.028.003-.033.006-.042v-.036-3.096l-1.685-.724c-.025.063-.03.124-.03.19zm12.595-3.806a.86.86 0 0 0-1.079-.527l-2.94.954-2.292-2.233-.026-.025c-.068-.072-.151-.133-.25-.177l-.069-.031-1.634 1.49.191-2.108-1.244-.533c-.114-.05-.216-.061-.347-.061h-3.811-.017-.037l-.04.002-.041.006c-.008 0-.016.002-.025.002l-.045.008-.044.011h-.002c-.011.002-.026.008-.037.011s-.026.008-.037.014l-.04.014c-.014.008-.026.011-.034.017l-.035.016-.034.019-.02.011-.037.025c-.014.014-.026.019-.034.027l-.003.003c-.011.008-.02.017-.029.025s-.019.017-.028.028-.017.02-.026.028a.13.13 0 0 0-.026.031l-.025.03c-.015.016-.018.025-.023.03l-.02.03a.17.17 0 0 0-.015.025l-.022.042v.003l-.003.003-1.623 3.159a.82.82 0 0 0 .382 1.115.85.85 0 0 0 .381.089.86.86 0 0 0 .765-.46l1.387-2.701h2.044l-1.887 3.631a.7.7 0 0 0 .372.932l.014.005 5.098 2.665v2.724c0 .46.382.832.854.832s.854-.372.854-.832v-3.198-.033c0-.019 0-.027-.003-.039-.003-.022-.006-.027-.006-.036s-.003-.017-.003-.025c-.006-.022-.006-.033-.009-.042-.017-.078-.045-.153-.085-.222-.003-.005-.009-.014-.011-.02-.057-.092-.117-.161-.191-.219l-.026-.022-.031-.022c-.006-.005-.014-.008-.02-.014l-.04-.025-.003-.002-2.618-1.592 1.597-3.068 2.24 2.183.017.017.029.025.059.044c.043.03.081.05.117.069s.077.033.117.047l.066.019.057.011.068.008c.009 0 .014 0 .023.003.014 0 .026 0 .04.002h.028c.014 0 .028 0 .04-.002.005 0 .013 0 .02-.003.017-.003.037-.003.054-.005l.138-.033.006-.003 3.436-1.115c.442-.15.684-.621.533-1.057zM90.908 57.45l-2.471-6.797c-.256.078-.522.132-.797.132-.16 0-.317-.013-.473-.041-.184.558-.554 1.033-1.045 1.355l-1.128 3.102 1.381 3.793c.036.102.135.171.247.172s.212-.067.251-.168l.933-2.48c.027-.072.085-.129.16-.154s.157-.017.224.022l2.333 1.367c.097.055.217.048.304-.021a.25.25 0 0 0 .082-.283zm-9.715-5.148a2.95 2.95 0 0 1-1.304-.301c-.038-.019-.071-.043-.108-.063l-1.55 3.933c-.037.095-.002.2.084.263.049.035.107.053.168.053a.3.3 0 0 0 .137-.034l2.345-1.269a.29.29 0 0 1 .138-.035.34.34 0 0 1 .087.013c.075.024.133.076.161.143l.937 2.303c.038.094.139.156.25.156s.214-.064.251-.158l1.78-4.523c-.756-.032-1.46-.34-1.94-.852a2.92 2.92 0 0 1-1.437.372zm7.993-8.238c-.273-.082-.493-.286-.596-.55a.92.92 0 0 1 .07-.806l.001-.002a1.24 1.24 0 0 0-.128-1.461c-.242-.278-.591-.428-.945-.428-.164 0-.332.033-.492.1a.92.92 0 0 1-.363.075.93.93 0 0 1-.448-.115.92.92 0 0 1-.466-.663l-.001-.001a1.25 1.25 0 0 0-1.042-1.038 1.31 1.31 0 0 0-.195-.016 1.25 1.25 0 0 0-1.116.684c-.129.254-.369.434-.649.488a.93.93 0 0 1-.786-.21c-.233-.203-.528-.308-.822-.308-.224 0-.447.059-.646.179-.466.279-.696.825-.573 1.352a.92.92 0 0 1-.182.788c-.176.217-.44.343-.719.343h-.042c-.533 0-1.009.337-1.184.841a1.24 1.24 0 0 0 .433 1.402l.001.001c.229.17.366.436.371.72a.92.92 0 0 1-.344.734c-.423.341-.577.913-.382 1.417a1.25 1.25 0 0 0 1.168.798l.07-.002.052-.001a.93.93 0 0 1 .698.316c.186.214.26.518.206.797-.103.531.15 1.054.626 1.316.189.105.398.155.605.155a1.25 1.25 0 0 0 .857-.338.93.93 0 0 1 .632-.248.91.91 0 0 1 .146.011.92.92 0 0 1 .664.464h.001c.223.402.647.644 1.095.644a1.3 1.3 0 0 0 .24-.023 1.25 1.25 0 0 0 1.004-1.076.92.92 0 0 1 .44-.68.93.93 0 0 1 .478-.132.92.92 0 0 1 .332.062h.002a1.24 1.24 0 0 0 .451.084c.369 0 .73-.165.972-.463a1.24 1.24 0 0 0 .075-1.466.91.91 0 0 1-.101-.803.92.92 0 0 1 .575-.572 1.25 1.25 0 0 0 .847-1.203 1.25 1.25 0 0 0-.89-1.17zm-5.25 5.061c-2.1 0-3.811-1.702-3.811-3.793s1.71-3.792 3.811-3.792 3.809 1.702 3.809 3.792-1.709 3.793-3.809 3.793zm-.212-6.134c-1.402 0-2.542 1.051-2.542 2.341s1.14 2.341 2.542 2.341 2.541-1.05 2.541-2.341-1.139-2.341-2.541-2.341zm7.602 117.147c1.142 0 2.06-.909 2.06-2.03s-.919-2.033-2.06-2.033c-1.135 0-2.054.91-2.054 2.033s.919 2.03 2.054 2.03zm1.651.331h-3.299c-.49 0-.902.373-1.029.875l-1.959 3.959c-.028-.002-.052-.016-.08-.016h-.755c-.028 0-.052.015-.079.016l-1.959-3.958c-.126-.502-.538-.876-1.028-.876h-3.301c-.59 0-1.07.534-1.07 1.19v6.295h5.442v-3.574l1.188 2.169c.115.377.429.65.807.65h.755c.378 0 .693-.273.809-.65l1.188-2.169v3.574h5.442v-6.295c-.001-.656-.481-1.19-1.072-1.19zm-11.836-.331c1.135 0 2.054-.909 2.054-2.03s-.919-2.033-2.054-2.033-2.06.91-2.06 2.033.919 2.03 2.06 2.03zm6.694-79.673c1.495 0 2.71-1.126 2.71-2.514s-1.215-2.515-2.71-2.515-2.709 1.125-2.709 2.515 1.214 2.514 2.709 2.514zm1.809 6.837l-1.682 3.529h-2.644l-1.835-7.348-1.312.33 2.092 8.373h1.058l-1.357 2.993.82.374 1.527-3.367h2.241l1.467 3.361.826-.361-1.309-3h.951V90.83h-1.652l1.598-3.355h4.547v-.788h-5.043l-.291.614zm-3.603-5.831l-.422 9.052h2.03l1.787-3.992.111-.246.013-3.061-.017-1.723-3.501-.031zm4.433 7.04l-.915 1.883h2.457v5.66h2.469v-7.543h-4.011zm6.315-9.052h-1.881v-1.77h1.881v1.77zm1.531-4.029a1.3 1.3 0 0 1-.286.425c-.117.115-.248.206-.393.28l-.444.228a1.46 1.46 0 0 0-.253.161.67.67 0 0 0-.156.171c-.035.06-.061.128-.077.205s-.022.168-.022.269h-1.675l-.01-.338a1.94 1.94 0 0 1 .056-.439c.037-.15.098-.294.187-.438a1.05 1.05 0 0 1 .397-.357l.254-.118c.095-.041.188-.087.276-.137s.162-.112.223-.185.091-.157.091-.259c0-.304-.179-.455-.526-.455-.218 0-.369.076-.462.232-.088.155-.126.332-.108.527H93.5a3.02 3.02 0 0 1 .174-.827 2.06 2.06 0 0 1 .443-.729 2.23 2.23 0 0 1 .764-.523c.311-.134.691-.203 1.135-.203s.809.059 1.117.176c.298.115.545.266.732.446a1.81 1.81 0 0 1 .412.597c.086.219.137.428.15.622.002.276-.033.497-.106.667zm81.43 57.012c.049-.124-.018-.268-.15-.321l-9.817-3.962c-.136-.055-.289.004-.34.131l-.651 1.613 10.304 4.158.654-1.619zm-4.09-4.727c-1.431-.577-3.063.052-3.733 1.12l5.643 2.277c.26-1.234-.479-2.819-1.91-3.397zm-2.827 1.356c.476-.758 1.574-1.055 2.59-.645s1.6 1.386 1.417 2.261l-4.007-1.616zm-4.202 1.231l-1.522 3.771c-.216.535.066 1.159.626 1.385l8.274 3.339c.556.224 1.187-.027 1.402-.559l1.524-3.778-10.304-4.158zm1.495 3.215c-.068.169-.259.253-.424.186l-.193-.078c-.165-.066-.244-.259-.176-.428l.555-1.376a.33.33 0 0 1 .424-.186l.193.078c.165.067.244.259.176.428l-.555 1.376zm6.294 2.54c-.068.169-.258.253-.423.186l-.194-.078c-.165-.066-.244-.259-.175-.428l.555-1.376c.068-.169.259-.252.423-.186l.194.078c.164.067.243.259.175.428l-.555 1.376z" fill="#fff"/><g fill="#fafafa"><path d="M159.434 75.774l.762.203c.06.018.121.081.155.139l3.188 5.507c.188.324.123.662.075.991a3.88 3.88 0 0 1-3.958 3.323c-2.038-.065-3.718-1.796-3.71-3.846 0-.196.086-.41.186-.585l3.006-5.214.297-.517-.001.001zm.362.969l-2.901 5.017h5.802l-2.901-5.017h0zm11.523-.048l-.159.605-.137.53c-.091.323-.306.445-.631.358l-3.455-.941c-.17-.047-.266-.018-.393.112-.696.716-1.543.975-2.503.72-.975-.259-1.594-.916-1.847-1.902-.047-.183-.127-.248-.293-.292l-3.436-.929c-.338-.092-.463-.305-.377-.64l.262-.981c.097-.358.295-.477.645-.382l3.416.928c.182.05.291.03.432-.112.718-.725 1.583-.978 2.564-.69.971.286 1.563.962 1.795 1.952.035.148.115.176.227.207l3.476.939c.278.076.409.221.414.517v.001zm-6.629-1.993c-.476 0-.86.384-.863.861s.378.869.851.875c.48.005.88-.393.876-.873s-.389-.862-.864-.862h0zm3.366 8.182zm0 0zm-7.731-2.22l-.001.027c0 .009-.001.018-.002.027a.51.51 0 0 1-.005.039l-.01.041a.4.4 0 0 1-.026.076l-.023.046c-.03.052-.06.089-.093.122l-.028.025-.039.03-.041.026-.036.018c-.026.012-.052.021-.077.028a.52.52 0 0 1-.097.017l-.026.001h-.027l-.027-.001a.52.52 0 0 1-.08-.013.56.56 0 0 1-.091-.032l-.034-.017a.49.49 0 0 1-.042-.025l-.031-.023-.029-.025-.018-.018a.54.54 0 0 1-.08-.103l-.024-.046a.6.6 0 0 1-.031-.087l-.009-.041-.005-.039-.002-.027c-.001-.009-.001-.018-.001-.027v-.027l.002-.027.006-.039c.002-.014.006-.028.009-.041a.49.49 0 0 1 .027-.076l.022-.046a.56.56 0 0 1 .094-.122l.027-.025.039-.029c.027-.019.052-.032.077-.044a.55.55 0 0 1 .078-.028.54.54 0 0 1 .096-.017l.027-.001h.026l.027.001a.52.52 0 0 1 .08.012.57.57 0 0 1 .092.031.54.54 0 0 1 .075.042l.031.023.029.025a.52.52 0 0 1 .098.121l.025.046c.015.035.024.06.03.087l.01.041.005.039.002.026.001.027z"/><path d="M159.283 80.615zm0 0zm1.39 1.072v.541c0 .011-.01.012-.02.012h-1.691c-.01 0-.023-.001-.023-.012v-.541c0-.009.001-.017.002-.026.006-.129.058-.246.138-.334a.52.52 0 0 1 .145-.111l.053-.023.051-.015.052.046c.047.037.098.068.151.092l.031.013c.039.016.08.027.121.035s.082.012.124.012a.67.67 0 0 0 .141-.015c.026-.004.034-.004.043-.004.022 0 .044-.017.066-.026.009-.004.017-.011.026-.015.042-.019.082-.044.119-.073l.083-.065c.212.05.374.246.385.483 0 .009.003.018.003.027zm8.897 6.864c-2.047-.007-3.733-1.632-3.843-3.699a1.14 1.14 0 0 1 .151-.66l3.28-5.686c.054-.093.108-.118.208-.088l.599.17a.36.36 0 0 1 .175.147l3.168 5.47c.205.351.147.71.09 1.068-.306 1.907-1.922 3.287-3.829 3.281l.001-.001zm2.923-4.163l-2.906-5.026-2.905 5.026h5.811zm-4.022-.87v.021l-.002.02-.004.03-.007.032a.39.39 0 0 1-.02.058l-.017.035a.46.46 0 0 1-.071.094l-.021.019-.03.023-.031.02-.028.014a.45.45 0 0 1-.058.022.44.44 0 0 1-.074.013l-.02.001-.04-.001a.41.41 0 0 1-.061-.01.55.55 0 0 1-.07-.024l-.026-.013-.031-.019-.024-.017-.022-.019a.45.45 0 0 1-.074-.093c-.01-.017-.014-.026-.018-.035a.39.39 0 0 1-.024-.066c-.003-.01-.005-.021-.007-.032l-.004-.03-.002-.02v-.021-.021l.002-.02c.001-.015.003-.023.004-.03l.007-.032a.39.39 0 0 1 .02-.059l.017-.035a.42.42 0 0 1 .071-.094l.021-.019.03-.023c.02-.014.039-.025.058-.034a.42.42 0 0 1 .059-.022.41.41 0 0 1 .074-.013l.02-.001.04.001a.41.41 0 0 1 .061.01.55.55 0 0 1 .07.024c.019.008.04.02.057.033l.024.017.022.019c.033.032.056.061.074.093l.019.035a.47.47 0 0 1 .023.067c.003.011.005.021.007.032a.3.3 0 0 1 .004.03l.002.02v.021z"/><path d="M167.679 83.481zm0 0z"/><path d="M167.686 83.485h0v.001h0zm1.05.82v.416l-1.3.009c-.008 0-.018-.001-.018-.009v-.416a.43.43 0 0 1 .106-.276c.036-.038.071-.065.111-.085l.04-.017.038-.012.04.035a.55.55 0 0 0 .115.07l.023.01a.48.48 0 0 0 .093.027.49.49 0 0 0 .094.009.48.48 0 0 0 .107-.012c.019-.003.026-.003.032-.003.017 0 .034-.013.051-.02.006-.003.013-.009.019-.012a.48.48 0 0 0 .091-.056c.028-.019.046-.033.063-.05.161.038.284.19.293.371 0 .007.002.014.002.021zm1.383-.787v.021l-.002.02-.004.03-.007.032a.39.39 0 0 1-.02.058l-.017.035a.43.43 0 0 1-.072.094l-.02.019-.03.023-.031.02-.028.014a.45.45 0 0 1-.058.022.44.44 0 0 1-.074.013l-.02.001-.04-.001a.39.39 0 0 1-.061-.01.5.5 0 0 1-.07-.024l-.026-.013-.031-.019-.024-.017-.022-.019a.42.42 0 0 1-.074-.093l-.019-.035a.47.47 0 0 1-.023-.066.3.3 0 0 1-.007-.032l-.004-.03-.002-.02v-.021-.021l.001-.02.005-.03.007-.032a.39.39 0 0 1 .02-.059.27.27 0 0 1 .017-.035.42.42 0 0 1 .071-.094l.021-.019.029-.023a.42.42 0 0 1 .059-.034.38.38 0 0 1 .059-.022.42.42 0 0 1 .073-.013l.021-.001.04.001a.41.41 0 0 1 .061.01.48.48 0 0 1 .069.024c.018.008.04.02.058.033l.024.017.022.019c.033.032.056.061.074.093l.019.035a.47.47 0 0 1 .023.067c.003.011.005.021.007.032a.3.3 0 0 1 .004.03l.002.02v.021z"/><path d="M169.327 83.481zm0 0zm1.057.824v.416l-1.301.009c-.008 0-.018-.001-.018-.009v-.416c0-.007.002-.013.002-.02.005-.099.044-.189.105-.257.036-.038.071-.065.11-.085l.041-.017.038-.012.04.035a.52.52 0 0 0 .115.07l.023.01a.48.48 0 0 0 .093.027.49.49 0 0 0 .093.009.51.51 0 0 0 .108-.012c.019-.003.025-.003.032-.003.017 0 .034-.013.05-.02.007-.003.013-.009.02-.012a.48.48 0 0 0 .091-.056.4.4 0 0 0 .062-.05c.162.038.285.19.294.371 0 .007.002.014.002.021zm-1.253-2.402l-.001.021-.001.02c-.001.01-.003.02-.005.03l-.007.032a.3.3 0 0 1-.02.058.27.27 0 0 1-.017.035c-.023.04-.045.069-.071.094l-.021.019-.029.023-.032.02-.027.014a.39.39 0 0 1-.059.022.44.44 0 0 1-.073.013l-.021.001h-.02l-.02-.001a.41.41 0 0 1-.061-.01.55.55 0 0 1-.07-.024l-.026-.013-.031-.019-.023-.017-.023-.019a.45.45 0 0 1-.074-.093l-.018-.035c-.012-.027-.019-.046-.024-.067-.003-.01-.005-.021-.007-.032l-.004-.03-.001-.02-.001-.021v-.021l.002-.02.004-.03.007-.032a.36.36 0 0 1 .02-.058l.017-.035a.42.42 0 0 1 .072-.094l.02-.019.03-.023c.021-.014.039-.025.059-.034a.41.41 0 0 1 .058-.022c.033-.008.053-.011.074-.013l.02-.001h.02l.02.001a.41.41 0 0 1 .061.01.42.42 0 0 1 .07.024.36.36 0 0 1 .057.032l.024.018.022.019a.41.41 0 0 1 .075.093l.018.036a.48.48 0 0 1 .023.066c.003.011.006.021.007.032l.005.03.001.02.001.021z"/><path d="M168.338 81.866zm0 0zm1.057.824v.416l-1.3.009c-.008 0-.018-.001-.018-.009v-.416a.43.43 0 0 1 .106-.277.4.4 0 0 1 .111-.085l.04-.017.039-.011a.54.54 0 0 0 .039.035c.036.028.074.052.115.07l.024.01a.5.5 0 0 0 .092.027.49.49 0 0 0 .094.009.51.51 0 0 0 .107-.012c.019-.003.026-.003.032-.003.017 0 .034-.013.051-.02.006-.003.013-.009.019-.012a.43.43 0 0 0 .091-.056l.063-.05c.161.038.285.189.293.371 0 .007.002.014.002.021zm1.383-.787v.021a.14.14 0 0 1-.002.02l-.004.03-.007.032a.36.36 0 0 1-.02.058.27.27 0 0 1-.017.035c-.023.04-.046.069-.071.094l-.021.019-.03.023-.031.02-.027.014c-.02.009-.04.016-.059.022a.43.43 0 0 1-.074.013l-.02.001h-.02l-.02-.001a.41.41 0 0 1-.061-.01.55.55 0 0 1-.07-.024l-.026-.013-.031-.019-.024-.017-.022-.019a.45.45 0 0 1-.074-.093.28.28 0 0 1-.018-.035c-.012-.027-.019-.046-.024-.067-.003-.01-.005-.021-.007-.032l-.004-.03-.002-.02v-.021-.021l.002-.02.004-.03.007-.032a.36.36 0 0 1 .02-.058l.017-.035a.42.42 0 0 1 .072-.094l.02-.019.03-.023c.02-.014.039-.025.058-.034a.47.47 0 0 1 .059-.022c.033-.008.053-.011.074-.013.006-.001.013-.001.02-.001h.02l.02.001a.41.41 0 0 1 .061.01.55.55 0 0 1 .07.024.36.36 0 0 1 .057.032l.024.018.022.019c.033.032.056.061.074.093l.019.036a.48.48 0 0 1 .023.066.35.35 0 0 1 .007.032c.002.01.003.02.004.03l.002.02v.021z"/><path d="M169.986 81.866zm0 0zm1.057.824v.416l-1.3.009c-.008 0-.018-.001-.018-.009v-.416a.43.43 0 0 1 .106-.277c.036-.038.071-.065.111-.085l.04-.017.038-.011.04.035c.036.028.074.052.115.07l.023.01a.49.49 0 0 0 .187.036.51.51 0 0 0 .107-.012c.019-.003.026-.003.032-.003.017 0 .034-.013.051-.02.006-.003.013-.009.019-.012.032-.014.062-.034.091-.056l.063-.05c.161.038.285.189.293.371 0 .007.002.014.002.021zm-1-2.267l-.001.037-.004.027c-.001.01-.003.019-.005.028l-.017.052-.014.031a.35.35 0 0 1-.057.083l-.017.017-.024.02-.025.018c-.007.005-.015.009-.022.013a.3.3 0 0 1-.107.031l-.024.001-.025-.001c-.017-.001-.033-.004-.049-.009a.27.27 0 0 1-.056-.022l-.021-.011-.026-.017-.019-.016-.018-.017a.39.39 0 0 1-.06-.083l-.014-.032a.45.45 0 0 1-.02-.059l-.005-.028a.12.12 0 0 1-.003-.027l-.002-.037.001-.029.004-.034c.001-.01.003-.019.005-.028l.017-.052.014-.032c.018-.035.036-.061.057-.083l.017-.017.024-.02c.016-.013.031-.022.047-.03a.29.29 0 0 1 .048-.019.28.28 0 0 1 .059-.011l.024-.001.025.001c.017.001.033.004.049.009a.4.4 0 0 1 .056.021.37.37 0 0 1 .047.029l.019.016.018.017a.36.36 0 0 1 .06.083l.015.032a.64.64 0 0 1 .019.059l.005.028c.002.009.003.018.004.027l.001.036z"/><path d="M169.409 80.393h0zm-.006-.003z"/><path d="M169.403 80.39zm.854.732v.37l-1.05.008-.015-.378c.005-.106.037-.186.086-.246a.34.34 0 0 1 .089-.076l.033-.015.031-.01a.41.41 0 0 0 .032.031c.029.025.06.046.093.063l.019.009a.37.37 0 0 0 .074.024c.025.005.051.008.076.008s.059-.004.087-.01c.016-.003.021-.003.026-.003.014 0 .027-.012.041-.018.041-.023.066-.041.089-.06l.051-.044c.13.034.23.169.236.33zm1.51 2.396l-.001.021-.001.02-.004.03-.007.032a.39.39 0 0 1-.02.058l-.017.035a.43.43 0 0 1-.072.094l-.02.019-.03.023a.32.32 0 0 1-.032.02.2.2 0 0 1-.027.014.47.47 0 0 1-.059.022c-.032.008-.052.011-.073.013l-.02.001-.041-.001c-.02-.002-.041-.005-.06-.01-.033-.009-.052-.016-.07-.024l-.026-.013-.032-.019-.023-.017-.022-.019a.44.44 0 0 1-.075-.093l-.018-.035a.47.47 0 0 1-.023-.066c-.003-.01-.005-.021-.007-.032l-.004-.03a.14.14 0 0 1-.002-.02v-.021-.021l.001-.02.005-.03c.001-.011.004-.021.007-.032.005-.02.011-.04.02-.059a.27.27 0 0 1 .017-.035.42.42 0 0 1 .071-.094l.021-.019.029-.023a.42.42 0 0 1 .059-.034.38.38 0 0 1 .059-.022.42.42 0 0 1 .073-.013l.02-.001h.021l.02.001a.41.41 0 0 1 .061.01.48.48 0 0 1 .069.024c.018.008.04.02.058.033l.023.017.023.019c.033.032.056.061.074.093.01.017.014.026.018.035.012.027.019.046.024.067.003.011.005.021.007.032a.3.3 0 0 1 .004.03l.001.02c.001.007.001.014.001.021z"/><path d="M170.974 83.481zm0 0z"/><path d="M170.982 83.485h0v.001h0zm1.05.82v.416l-1.301.009c-.008 0-.018-.001-.018-.009v-.416c0-.007.001-.013.002-.02a.41.41 0 0 1 .105-.257c.036-.038.071-.065.11-.085l.041-.017.038-.012.04.035a.52.52 0 0 0 .115.07.16.16 0 0 0 .023.01.49.49 0 0 0 .092.027.5.5 0 0 0 .094.009.5.5 0 0 0 .107-.012c.02-.003.026-.003.033-.003.017 0 .034-.013.05-.02.007-.003.013-.009.02-.012.032-.014.062-.034.09-.056l.063-.05c.162.038.285.19.293.371.001.007.003.014.003.021z"/></g></svg>