<?xml version="1.0" encoding="utf-8"?>
<!-- Generator: Adobe Illustrator 16.0.0, SVG Export Plug-In . SVG Version: 6.00 Build 0)  -->
<!DOCTYPE svg PUBLIC "-//W3C//DTD SVG 1.1//EN" "http://www.w3.org/Graphics/SVG/1.1/DTD/svg11.dtd">
<svg version="1.1" id="Layer_1" xmlns="http://www.w3.org/2000/svg" xmlns:xlink="http://www.w3.org/1999/xlink" x="0px" y="0px"
	 width="800px" height="524.138px" viewBox="0 0 800 524.138" enable-background="new 0 0 800 524.138" xml:space="preserve">
<path fill="#41479B" d="M786.203,524.137H13.793C6.177,524.137,0,517.961,0,510.344V13.794C0,6.177,6.177,0,13.793,0h772.411
	c7.617,0,13.794,6.177,13.794,13.794v496.55C799.996,517.961,793.821,524.137,786.203,524.137z"/>
<path fill="#F5F5F5" d="M799.996,13.794C799.996,6.177,793.821,0,786.203,0h-61.711l-255.53,167.417V0H331.031v167.417L75.503,0
	h-61.71C6.177,0,0,6.177,0,13.794v35.674l219.231,143.635H0v137.931h219.231L0,474.671v35.673c0,7.617,6.177,13.794,13.793,13.794
	h61.711l255.53-167.417v167.417h137.931V356.72l255.53,167.417h61.711c7.617,0,13.793-6.177,13.793-13.794v-35.673L580.768,331.035
	h219.229V193.104H580.765L799.996,49.468V13.794z"/>
<g>
	<polygon fill="#FF4B55" points="799.996,220.69 441.377,220.69 441.377,0 358.618,0 358.618,220.69 0,220.69 0,303.448 
		358.618,303.448 358.618,524.137 441.377,524.137 441.377,303.448 799.996,303.448 	"/>
	<path fill="#FF4B55" d="M279.605,331.033L0.391,512.278c0.977,6.661,6.469,11.859,13.401,11.859H32.79l297.483-193.103h-50.669
		V331.033z"/>
	<path fill="#FF4B55" d="M541.229,331.033h-50.668l297.05,192.818c6.924-0.737,12.388-6.391,12.388-13.51v-11.34L541.229,331.033z"
		/>
	<path fill="#FF4B55" d="M0,29.02l252.778,164.084h50.668L8.036,1.345C3.318,3.538,0,8.249,0,13.794V29.02z"/>
	<path fill="#FF4B55" d="M519.632,193.104L799.517,11.422c-1.162-6.44-6.537-11.42-13.313-11.42h-19.762L468.963,193.104H519.632z"
		/>
</g>
</svg>
