<svg width="205" height="144" viewBox="0 0 205 144" fill="none" xmlns="http://www.w3.org/2000/svg">
<path d="M76.1249 65.6308V49.8354H84.9387C85.8411 45.8806 87.4068 42.1825 89.5096 38.8496L83.2624 32.6025L94.4318 21.4331L100.679 27.6802C104.012 25.5775 107.71 24.0098 111.665 23.1094V14.2955H127.46V23.1094C131.415 24.0117 135.113 25.5775 138.446 27.6802L144.693 21.4331L155.862 32.6025L149.615 38.8496C151.718 42.1844 153.284 45.8806 154.186 49.8354H163V65.6308H154.186C153.284 69.5856 151.718 73.2837 149.615 76.6166L155.862 82.8637L144.693 94.0331L138.446 87.786C135.111 89.8888 131.415 91.4545 127.46 92.3568V101.171H123.511V97.4331C123.511 93.4822 120.674 90.0408 116.911 89.4287C116.472 89.3596 116.038 89.3241 115.614 89.3241V81.0709C116.901 81.2881 118.214 81.4263 119.562 81.4263C132.647 81.4263 143.256 70.8177 143.256 57.7331C143.256 44.6485 132.647 34.0399 119.562 34.0399C106.478 34.0399 95.8692 44.6485 95.8692 57.7331C95.8692 62.7936 97.4685 67.473 100.172 71.3212C99.9642 72.026 99.8181 72.7566 99.8181 73.5286V81.4263C98.3807 81.4263 97.0322 81.8113 95.8692 82.4866C94.7063 81.8113 93.3577 81.4263 91.9203 81.4263C90.483 81.4263 89.1344 81.8113 87.9715 82.4866C86.9843 81.912 85.8549 81.5645 84.6584 81.4678L89.5096 76.6166C87.4068 73.2818 85.8411 69.5856 84.9387 65.6308H76.1249Z" fill="#A4D4F0"/>
<path d="M109.013 65.7375C108.575 65.6665 108.142 65.6309 107.716 65.6309V55.7587C107.716 54.6688 108.601 53.7843 109.69 53.7843H129.435C130.525 53.7843 131.409 54.6688 131.409 55.7587V71.5542C131.409 72.6441 130.525 73.5287 129.435 73.5287H115.594C115.493 69.6686 112.707 66.3378 109.013 65.7375Z" fill="#FAB400"/>
<path d="M127.46 71.5542V55.7587C127.46 54.6688 126.576 53.7843 125.486 53.7843H129.435C130.525 53.7843 131.409 54.6688 131.409 55.7587V71.5542C131.409 72.6441 130.525 73.5287 129.435 73.5287H125.486C126.576 73.5287 127.46 72.6441 127.46 71.5542Z" fill="#DC9600"/>
<path d="M125.486 53.7842V47.8609C125.486 45.6792 123.719 43.9121 121.537 43.9121H117.588C115.406 43.9121 113.639 45.6792 113.639 47.8609V53.7842H111.665V47.8609C111.665 44.5893 114.316 41.9376 117.588 41.9376H121.537C124.809 41.9376 127.46 44.5893 127.46 47.8609V53.7842H125.486Z" fill="#505050"/>
<path d="M115.613 61.682C115.613 59.5003 117.381 57.7332 119.562 57.7332C121.744 57.7332 123.511 59.5003 123.511 61.682C123.511 63.1392 122.712 64.3988 121.537 65.084V67.6053C121.537 68.6952 120.652 69.5798 119.562 69.5798C118.472 69.5798 117.588 68.6952 117.588 67.6053V65.084C116.413 64.3988 115.613 63.1392 115.613 61.682Z" fill="#BE7800"/>
<path d="M137.986 27.424C134.653 25.3212 130.955 23.7535 127 22.8532V14.0393H130.949V22.8532C133.938 23.5344 136.777 24.5986 139.427 25.9846L137.986 27.424Z" fill="#4B62BE"/>
<path d="M154.186 49.8354H150.237C149.335 45.8806 147.769 42.1824 145.667 38.8496L151.914 32.6025L142.719 23.4075L144.693 21.4331L155.863 32.6025L149.615 38.8496C151.718 42.1824 153.286 45.8806 154.186 49.8354Z" fill="#4B62BE"/>
<path d="M137.986 88.0393L139.427 89.4806C136.777 90.8667 133.938 91.9289 130.949 92.6121V101.424H127V92.6101C130.955 91.7098 134.653 90.1421 137.986 88.0393Z" fill="#4B62BE"/>
<path d="M163 49.8354H159.051V65.6309H163V49.8354Z" fill="#4B62BE"/>
<path d="M151.914 82.8637L145.667 76.6166C147.769 73.2818 149.335 69.5857 150.237 65.6309H154.186C153.284 69.5857 151.718 73.2838 149.615 76.6166L155.863 82.8637L144.693 94.0331L142.719 92.0587L151.914 82.8637Z" fill="#4B62BE"/>
<path d="M99.818 75.3569C94.9806 71.0191 91.9202 64.7404 91.9202 57.7331C91.9202 44.6486 102.529 34.0399 115.613 34.0399C116.281 34.0399 116.934 34.0853 117.588 34.1386C105.429 35.1456 95.8691 45.3139 95.8691 57.7331C95.8691 62.7916 97.4743 67.4612 100.175 71.3054C99.9661 72.0162 99.818 72.7507 99.818 73.5286V75.3569Z" fill="#4B62BE"/>
<path d="M89.3749 127.886H73.6249C72.4823 127.886 71.6178 126.861 71.8038 125.736L73.7726 113.924C73.9215 113.034 74.6917 112.382 75.5937 112.382H87.4062C88.3081 112.382 89.0784 113.034 89.2273 113.924L91.196 125.736C91.3818 126.859 90.5191 127.886 89.3749 127.886Z" fill="#8BB9FF"/>
<path d="M89.375 127.886H81.5V112.382H87.4063C88.3082 112.382 89.0785 113.034 89.2273 113.924L91.1961 125.736C91.3819 126.859 90.5192 127.886 89.375 127.886Z" fill="#2F4798"/>
<path d="M95.1582 126.04C95.1582 127.059 94.3313 127.886 93.3125 127.886H69.6875C68.6687 127.886 67.8418 127.059 67.8418 126.04C67.8418 125.021 68.6687 124.195 69.6875 124.195H93.3125C94.3313 124.195 95.1582 125.021 95.1582 126.04Z" fill="#2F4798"/>
<path d="M95.1582 126.04C95.1582 127.059 94.3313 127.886 93.3125 127.886H81.5V124.195H93.3125C94.3313 124.195 95.1582 125.021 95.1582 126.04Z" fill="#0D0D7A"/>
<path d="M111.154 74.7297V110.536C111.154 112.575 109.502 114.228 107.463 114.228H55.5371C53.4982 114.228 51.8457 112.575 51.8457 110.536V74.7297C51.8457 72.6908 53.4982 71.0383 55.5371 71.0383H107.463C109.502 71.0383 111.154 72.6908 111.154 74.7297Z" fill="#F6F9F9"/>
<path d="M111.154 74.7297V110.536C111.154 112.575 109.502 114.228 107.463 114.228H81.5V71.0383H107.463C109.502 71.0383 111.154 72.6908 111.154 74.7297Z" fill="#E2DFF4"/>
<path d="M107.463 69.1926H55.5371C52.4843 69.1926 50 71.6769 50 74.7297V110.536C50 113.589 52.4843 116.073 55.5371 116.073H107.463C110.516 116.073 113 113.589 113 110.536V74.7297C113 71.6769 110.516 69.1926 107.463 69.1926ZM109.309 110.536C109.309 111.554 108.48 112.382 107.463 112.382H55.5371C54.5195 112.382 53.6914 111.554 53.6914 110.536V74.7297C53.6914 73.7121 54.5195 72.884 55.5371 72.884H107.463C108.48 72.884 109.309 73.7121 109.309 74.7297V110.536Z" fill="#2F4798"/>
<path d="M113 74.7297V110.536C113 113.589 110.516 116.073 107.463 116.073H81.5V112.382H107.463C108.48 112.382 109.309 111.554 109.309 110.536V74.7297C109.309 73.7121 108.48 72.884 107.463 72.884H81.5V69.1926H107.463C110.516 69.1926 113 71.6769 113 74.7297Z" fill="#0D0D7A"/>
<path d="M67.7188 102.538C66.6994 102.538 65.873 101.712 65.873 100.693V88.7571C65.873 87.7378 66.6994 86.9114 67.7188 86.9114C68.7381 86.9114 69.5645 87.7378 69.5645 88.7571V100.693C69.5645 101.712 68.7381 102.538 67.7188 102.538Z" fill="#D6BCA5"/>
<path d="M75.5938 102.538C74.5744 102.538 73.748 101.712 73.748 100.693V94.6633C73.748 93.644 74.5744 92.8176 75.5938 92.8176C76.6131 92.8176 77.4395 93.644 77.4395 94.6633V100.693C77.4395 101.712 76.6131 102.538 75.5938 102.538Z" fill="#C7A8B2"/>
<path d="M94.2969 103.4C100.209 103.4 105.002 98.6068 105.002 92.6946C105.002 86.7823 100.209 81.9895 94.2969 81.9895C88.3846 81.9895 83.5918 86.7823 83.5918 92.6946C83.5918 98.6068 88.3846 103.4 94.2969 103.4Z" fill="#036FAA"/>
<path d="M105.002 92.6946C105.002 98.5971 100.199 103.4 94.2969 103.4C91.4373 103.4 88.7499 102.286 86.7271 100.264L94.2969 92.6946V90.8489H103.156C104.175 90.8489 105.002 91.6758 105.002 92.6946Z" fill="#FFED00"/>
<path d="M105.002 92.6946H94.2969V81.9895C100.199 81.9895 105.002 86.792 105.002 92.6946Z" fill="#5BC5F2"/>
<path d="M59.8438 102.538C58.8244 102.538 57.998 101.712 57.998 100.693V82.8508C57.998 81.8315 58.8244 81.0051 59.8438 81.0051C60.8631 81.0051 61.6895 81.8315 61.6895 82.8508V100.693C61.6895 101.712 60.8631 102.538 59.8438 102.538Z" fill="#98B0C0"/>
<path d="M57.998 100.693V102.538C57.998 103.558 58.8244 104.384 59.8438 104.384H75.5938C76.6131 104.384 77.4395 103.558 77.4395 102.538V100.693C74.9844 100.693 60.4432 100.693 57.998 100.693Z" fill="#E2DFF4"/>
</svg>
