<?xml version="1.0" encoding="utf-8"?>
<!-- Generator: Adobe Illustrator 16.0.0, SVG Export Plug-In . SVG Version: 6.00 Build 0)  -->
<!DOCTYPE svg PUBLIC "-//W3C//DTD SVG 1.1//EN" "http://www.w3.org/Graphics/SVG/1.1/DTD/svg11.dtd">
<svg version="1.1" id="Layer_1" xmlns="http://www.w3.org/2000/svg" xmlns:xlink="http://www.w3.org/1999/xlink" x="0px" y="0px"
	 width="800px" height="524.871px" viewBox="0 0 800 524.871" enable-background="new 0 0 800 524.871" xml:space="preserve">
<path fill="#41479B" d="M0,350.158h799.998v160.919c0,7.617-6.177,13.793-13.794,13.793H13.794C6.177,524.871,0,518.695,0,511.078
	V350.158z"/>
<path fill="#FF4B55" d="M13.794,0.735h772.412C793.823,0.735,800,6.91,800,14.528v160.919H0V14.528C0,6.91,6.177,0.735,13.794,0.735
	z"/>
<rect x="0" y="175.444" fill="#F5F5F5" width="799.998" height="174.703"/>
<g>
	<rect x="303.452" y="180.037" fill="#FF4B55" width="38.62" height="44.141"/>
	<rect x="380.687" y="180.037" fill="#FF4B55" width="38.62" height="44.141"/>
	<rect x="342.062" y="224.178" fill="#FF4B55" width="38.62" height="44.14"/>
	<rect x="457.921" y="180.037" fill="#FF4B55" width="38.62" height="44.141"/>
	<rect x="419.312" y="224.178" fill="#FF4B55" width="38.62" height="44.14"/>
</g>
<g>
	<rect x="342.062" y="180.037" fill="#F5F5F5" width="38.62" height="44.141"/>
	<rect x="419.312" y="180.037" fill="#F5F5F5" width="38.62" height="44.141"/>
	<rect x="303.452" y="224.178" fill="#F5F5F5" width="38.62" height="44.14"/>
	<rect x="380.687" y="224.178" fill="#F5F5F5" width="38.62" height="44.14"/>
	<rect x="457.921" y="224.178" fill="#F5F5F5" width="38.62" height="44.14"/>
</g>
<g>
	<rect x="380.687" y="268.318" fill="#FF4B55" width="38.62" height="44.142"/>
	<rect x="342.062" y="312.459" fill="#FF4B55" width="38.62" height="44.141"/>
	<rect x="419.312" y="312.459" fill="#FF4B55" width="38.62" height="44.141"/>
</g>
<g>
	<rect x="342.062" y="268.318" fill="#F5F5F5" width="38.62" height="44.142"/>
	<rect x="419.312" y="268.318" fill="#F5F5F5" width="38.62" height="44.142"/>
	<rect x="380.687" y="312.459" fill="#F5F5F5" width="38.62" height="44.141"/>
</g>
<g>
	<path fill="#FF4B55" d="M496.549,180.045v124.137c0,53.324-43.229,96.552-96.552,96.552s-96.552-43.228-96.552-96.552V180.045
		H496.549 M503.446,173.148h-6.896H303.446h-6.896v6.897v124.137c0,57.041,46.406,103.449,103.448,103.449
		s103.448-46.406,103.448-103.449V180.045V173.148L503.446,173.148z"/>
	<path fill="#FF4B55" d="M342.068,312.457V268.32h-38.62v35.862c0,2.796,0.185,5.541,0.417,8.277h38.203V312.457z"/>
</g>
<g>
	<path fill="#F5F5F5" d="M496.131,312.457h-38.202v44.138h23.084C489.391,343.674,494.755,328.648,496.131,312.457z"/>
	<path fill="#F5F5F5" d="M318.984,356.595h23.084v-44.136h-38.203C305.241,328.648,310.607,343.674,318.984,356.595z"/>
</g>
<g>
	<path fill="#FF4B55" d="M457.929,312.457h38.203c0.232-2.732,0.417-5.481,0.417-8.276v-35.863h-38.62V312.457z"/>
	<path fill="#FF4B55" d="M342.068,381.291v-24.696h-23.084C325.169,366.137,333.004,374.471,342.068,381.291z"/>
	<path fill="#FF4B55" d="M481.013,356.595h-23.084v24.696C466.994,374.471,474.828,366.137,481.013,356.595z"/>
</g>
<g>
	<path fill="#F5F5F5" d="M342.068,381.291c11.241,8.461,24.323,14.602,38.62,17.503v-42.199h-38.62V381.291z"/>
	<path fill="#F5F5F5" d="M419.309,398.794c14.296-2.901,27.379-9.043,38.62-17.503v-24.696h-38.62V398.794L419.309,398.794z"/>
</g>
<path fill="#FF4B55" d="M419.309,356.595h-38.621v42.199c6.239,1.268,12.697,1.94,19.312,1.94s13.07-0.672,19.311-1.94
	L419.309,356.595L419.309,356.595z"/>
<g>
	<path fill="#4173CD" d="M330.109,107.009c-8.403-1.3-17-2.237-25.765-2.779c-6.777,5.579-13.238,11.396-19.371,17.422
		c6.159,14.867,12.317,29.734,18.474,44.601c12.363-5.12,25.032-9.218,37.886-12.29
		C337.591,138.311,333.851,122.659,330.109,107.009z"/>
	<path fill="#4173CD" d="M423.441,99.686c-7.551-3.82-15.37-7.354-23.44-10.57c-8.07,3.219-15.891,6.751-23.44,10.57
		c1.255,16.04,2.511,32.084,3.766,48.13c13.097-1.027,26.256-1.027,39.354,0C420.93,131.772,422.187,115.73,423.441,99.686z"/>
	<path fill="#4173CD" d="M515.024,121.652c-6.133-6.023-12.596-11.841-19.372-17.422c-8.764,0.54-17.36,1.479-25.764,2.779
		c-3.741,15.651-7.482,31.302-11.224,46.951c12.854,3.074,25.521,7.171,37.886,12.291
		C502.708,151.384,508.865,136.517,515.024,121.652z"/>
</g>
<g>
	<path fill="#41479B" d="M376.557,99.686c-8.053-2.599-16.338-4.872-24.834-6.791c-7.497,4.439-14.705,9.153-21.613,14.114
		c3.741,15.651,7.483,31.302,11.227,46.951c12.854-3.073,25.89-5.12,38.988-6.145C379.068,131.772,377.812,115.73,376.557,99.686z"
		/>
	<path fill="#41479B" d="M469.888,107.009c-6.908-4.961-14.117-9.677-21.612-14.114c-8.497,1.919-16.783,4.195-24.835,6.791
		c-1.254,16.04-2.511,32.084-3.766,48.13c13.099,1.023,26.135,3.071,38.988,6.145C462.406,138.311,466.148,122.659,469.888,107.009z
		"/>
</g>
<g>
	<path fill="#FF4B55" d="M378.062,118.937c-14.602,1.141-29.135,3.424-43.464,6.852c-0.749-3.129-1.497-6.261-2.246-9.391
		c14.82-3.54,29.852-5.902,44.955-7.086C377.56,112.522,377.812,115.73,378.062,118.937z"/>
	<path fill="#FF4B55" d="M379.57,138.189c-13.599,1.064-27.135,3.19-40.479,6.381c-0.75-3.129-1.497-6.261-2.246-9.389
		c13.836-3.31,27.872-5.514,41.973-6.615C379.068,131.77,379.318,134.981,379.57,138.189z"/>
</g>
<path fill="#FFE15A" d="M445.821,141.429c-3.367-0.598-6.743-1.131-10.128-1.597c-5.565-0.769-9.711-5.493-9.229-10.805l0,0
	c0.481-5.31,5.802-9.161,11.859-8.323c3.633,0.5,7.258,1.07,10.874,1.714c6.029,1.065,9.933,6.378,8.756,11.572l0,0
	C456.781,139.195,451.365,142.406,445.821,141.429z"/>
<path fill="#FF4B55" d="M500.244,157.331c-12.836-5.317-25.994-9.57-39.336-12.763c0.75-3.13,1.497-6.261,2.245-9.39
	c13.836,3.307,27.477,7.719,40.786,13.231C502.708,151.384,501.477,154.358,500.244,157.331z"/>
<g>
	<path fill="#FFE15A" d="M496.799,128.365c-1.364,3.761-5.964,5.55-10.312,4.136c-4.345-1.416-7.004-5.547-5.904-9.394
		s5.76-5.883,10.368-4.385C495.566,120.218,498.163,124.605,496.799,128.365z"/>
	<path fill="#FFE15A" d="M319.413,123.109c1.099,3.851-1.563,7.983-5.905,9.395c-4.345,1.406-8.945-0.383-10.311-4.137
		c-1.365-3.762,1.234-8.146,5.847-9.641C313.653,117.231,318.317,119.264,319.413,123.109z"/>
	<path fill="#FFE15A" d="M397.796,116.785c0.009,3.198-2.866,5.804-6.429,5.913c-3.561,0.113-6.597-2.314-6.784-5.5
		c-0.186-3.188,2.687-5.947,6.424-6.067C394.744,111.014,397.781,113.587,397.796,116.785z"/>
	<path fill="#FFE15A" d="M415.413,117.198c-0.189,3.193-3.227,5.613-6.785,5.5c-3.561-0.109-6.436-2.715-6.428-5.913
		c0.014-3.195,3.052-5.776,6.787-5.654C412.727,111.243,415.598,114.009,415.413,117.198z"/>
	<path fill="#FFE15A" d="M406.26,131.678c-0.089,3.198-2.891,5.714-6.263,5.714c-3.368-0.002-6.17-2.514-6.263-5.714
		c-0.087-3.189,2.715-5.867,6.263-5.858C403.546,125.812,406.348,128.488,406.26,131.678z"/>
</g>
</svg>
