<svg width="210" height="211" viewBox="0 0 210 211" fill="none" xmlns="http://www.w3.org/2000/svg">
<path d="M210 105.055C210 163.076 162.99 210.11 105 210.11C47.0101 210.11 0 163.076 0 105.055C0 47.0348 47.0101 0 105 0C162.99 0 210 47.0348 210 105.055Z" fill="#3D79CF"/>
<mask id="mask0" mask-type="alpha" maskUnits="userSpaceOnUse" x="0" y="0" width="210" height="211">
<path d="M210 105.055C210 163.076 162.99 210.11 105 210.11C47.0101 210.11 0 163.076 0 105.055C0 47.0348 47.0101 0 105 0C162.99 0 210 47.0348 210 105.055Z" fill="#3D79CF"/>
</mask>
<g mask="url(#mask0)">
<path fill-rule="evenodd" clip-rule="evenodd" d="M76.3288 127.3C76.3288 129.095 76.0318 130.514 76.3787 131.763C78.9185 140.844 76.2623 149.153 72.9123 157.446C71.1707 161.719 68.7877 169.449 67.2054 173.784C65.2286 179.176 60.876 181.607 56.1669 180.03C51.3201 178.421 49.3339 173.665 51.2275 168.053C53.0165 162.771 55.5041 154.027 57.8966 149.051C61.0969 142.397 60.0373 135.79 58.9539 129.128C58.1532 124.247 56.1955 119.503 55.9056 114.644C55.5041 108.058 56.2073 101.413 56.4616 94.7917C56.5114 93.3222 56.6445 91.8858 56.7704 90.0531C52.3251 91.7363 49.227 93.6094 49.474 98.7991C49.6712 102.985 49.0939 107.187 48.7185 111.386C48.3693 115.313 45.2093 118.395 42.0161 118.119C37.7324 117.782 35.3945 114.983 35.701 110.351C36.1453 103.569 36.4826 96.7741 37.3879 90.0554C37.6825 87.9401 39.1935 85.3548 40.9398 84.1772C48.3788 79.1846 56.0481 74.4934 63.7936 69.9898C65.9105 68.7458 68.5858 68.4561 70.9213 67.7653C62.1447 59.938 59.9993 52.5404 64.4184 45.043C68.284 38.4526 76.3834 35.4969 83.4921 38.0989C90.8432 40.7697 94.9368 47.9584 93.6895 56.0017C92.4516 63.8884 86.1793 68.525 76.2765 68.9879C81.4037 74.7949 86.6639 80.6541 91.8173 86.6249C93.2618 88.3129 94.5757 89.2554 96.9872 88.6808C100.012 87.9947 103.16 87.6363 106.275 87.425C110.062 87.1876 112.758 89.4524 113.16 92.8758C113.604 96.4322 111.711 99.3143 108.049 100.043C103.248 100.979 98.3937 101.57 93.5588 102.353C90.1494 102.894 87.41 101.94 85.3548 99.0959C84.5755 98.0442 83.5634 97.1515 81.924 95.3591C81.6912 100.584 81.4037 104.832 81.4132 109.093C81.4132 109.82 82.556 110.795 83.4042 111.223C88.1299 113.561 92.7462 116.294 97.7166 117.899C102.834 119.544 105.628 122.856 107.368 127.497C109.601 133.465 112.621 141.162 114.714 147.171C116.733 153.004 114.994 157.719 110.323 159.438C105.31 161.294 100.926 158.839 98.6789 152.911C97.7523 150.511 95.652 146.442 95.2504 143.94C93.554 133.261 85.5853 129.897 76.3288 127.3Z" fill="#4BBBF2"/>
<path d="M210.368 108.165H177.602V130.068H210.368V108.165Z" fill="#253789"/>
<path d="M210.368 135.129H140.854V157.04H210.368V135.129Z" fill="#253789"/>
<path d="M210.368 162.104H82.0216V184.009H210.368V162.104Z" fill="#253789"/>
<path d="M210.368 189.057H31.1655V210.967H210.368V189.057Z" fill="#253789"/>
</g>
</svg>
