<svg width="190" height="53" viewBox="0 0 190 53" fill="none" xmlns="http://www.w3.org/2000/svg">
<path d="M189.788 11H168.5V16.7495C168.5 22.8458 164.995 29.3566 155.146 29.3566C145.297 29.3566 141.79 22.8458 141.79 16.7495V11H47.8541V16.7495C47.8541 22.8458 44.3494 29.3566 34.5 29.3566C24.6487 29.3566 21.1345 22.8458 21.1345 16.7495V11L3.11732e-05 11C3.11732e-05 11 3.11732e-05 12.0647 3.11732e-05 13.382V50.6143C3.11732e-05 51.9334 0 53 0 53H189.788C189.788 53 189.788 51.9334 189.788 50.6143V13.382C189.788 12.0647 189.788 11 189.788 11Z" fill="#4B62BE"/>
<path d="M33.5056 22C37.4129 22 39 20.5318 39 16.9322V5.06974C39 1.46628 37.4129 0 33.5056 0C29.5871 0 28 1.46822 28 5.06974V16.9341C28 20.5337 29.5871 22 33.5056 22Z" fill="#4B62BE"/>
<path d="M154.5 22C158.411 22 160 20.5318 160 16.9322V5.06974C160 1.46628 158.411 0 154.5 0C150.578 0 149 1.46822 149 5.06974V16.9341C148.998 20.5337 150.578 22 154.5 22Z" fill="#4B62BE"/>
</svg>
