<svg width="198" height="53" viewBox="0 0 198 53" fill="none" xmlns="http://www.w3.org/2000/svg">
<path d="M36.9001 42.29L37.6201 44.83H37.6401L38.3501 42.29H40.4301L38.5701 46.71V49.58H36.6701V46.71L34.8101 42.29H36.8901H36.9001Z" fill="#034EA1"/>
<path d="M45.79 42.29V43.84H43.37V45.09H45.64V46.58H43.37V48.03H45.88V49.58H41.47V42.29H45.79Z" fill="#034EA1"/>
<path d="M50.91 42.29L52.69 49.58H50.67L50.48 48.3H48.97L48.78 49.58H46.76L48.54 42.29H50.93H50.91ZM49.18 46.87H50.24L49.72 43.78H49.7L49.18 46.87Z" fill="#034EA1"/>
<path d="M56.76 42.29C58 42.29 58.72 42.95 58.72 44.23C58.72 45.27 58.29 45.84 57.47 45.97V45.99C58.31 46.06 58.67 46.58 58.67 47.58V48.4C58.67 49.19 58.73 49.32 58.98 49.48V49.58H56.96C56.84 49.35 56.78 48.83 56.78 48.35V47.76C56.78 46.96 56.68 46.66 56.17 46.66H55.66V49.58H53.76V42.29H56.77H56.76ZM55.65 45.37H56.04C56.54 45.37 56.83 45.05 56.83 44.5C56.83 43.91 56.61 43.65 56.03 43.65H55.65V45.37Z" fill="#034EA1"/>
<path d="M64.97 44.37V44.39H63.19V44.22C63.19 43.76 63.01 43.43 62.65 43.43C62.25 43.43 62.06 43.74 62.06 44.07C62.06 44.54 62.35 44.82 63.28 45.17C64.03 45.46 64.48 45.73 64.77 46.12C65.06 46.51 65.17 46.95 65.17 47.47C65.17 48.97 64.31 49.72 62.59 49.72C60.87 49.72 60.14 49.1 60.14 47.65V47.42H61.98V47.58C61.98 48.15 62.18 48.44 62.6 48.44C63.02 48.44 63.21 48.12 63.21 47.74C63.21 47.51 63.14 47.34 63.01 47.19C62.83 46.99 62.53 46.84 61.83 46.56C60.78 46.13 60.24 45.57 60.24 44.44C60.24 42.95 61.04 42.16 62.63 42.16C64.22 42.16 64.99 42.83 64.99 44.39L64.97 44.37Z" fill="#034EA1"/>
<path d="M48.02 2.22C38.04 2.22 29.91 10.34 29.91 20.33C29.91 22.42 30.27 24.43 30.93 26.31C28.24 21.27 22.94 17.83 16.84 17.83H0.869995V25.63H16.84C21.34 25.63 25 29.29 25 33.79C25 38.29 21.34 41.95 16.84 41.95C12.34 41.95 8.68 38.29 8.68 33.79H0.879995C0.879995 42.59 8.04 49.75 16.84 49.75C25.64 49.75 32.8 42.59 32.8 33.79C32.8 31.99 32.5 30.26 31.95 28.65C34.97 34.46 41.04 38.44 48.03 38.44C58.01 38.44 66.14 30.32 66.14 20.33C66.14 10.34 58.01 2.22 48.02 2.22ZM48.02 30.66C42.32 30.66 37.69 26.03 37.69 20.33C37.69 14.63 42.32 10 48.02 10C53.72 10 58.35 14.63 58.35 20.33C58.35 26.03 53.72 30.66 48.02 30.66Z" fill="#034EA1"/>
<path d="M29.9201 2.22H27.6801V10.02H29.9201V2.22Z" fill="#034EA1"/>
<path d="M14.29 2.22H11.5V10.02H14.29V2.22Z" fill="#FFF100"/>
<path d="M7.79001 2.22H0.890015V10.02H7.79001V2.22Z" fill="#034EA1"/>
<path d="M16.1801 2.22V10.02L16.8401 10V2.2L16.1801 2.22Z" fill="#034EA1"/>
<path d="M25.79 2.22H20.64V10.02H25.79V2.22Z" fill="#0098D9"/>
<path d="M108.28 26.74H111.86V27.34H108.93V28.84H111.63V29.41H108.93V31.08H111.91V31.67H108.28V26.74Z" fill="#18171C"/>
<path d="M113.33 28.08V30.47C113.33 30.65 113.36 30.8 113.42 30.92C113.52 31.13 113.72 31.24 114 31.24C114.41 31.24 114.69 31.05 114.84 30.68C114.92 30.48 114.96 30.2 114.96 29.85V28.09H115.56V31.68H114.99V31.15C114.92 31.29 114.82 31.4 114.71 31.5C114.48 31.69 114.21 31.78 113.89 31.78C113.39 31.78 113.04 31.61 112.86 31.27C112.76 31.09 112.71 30.84 112.71 30.54V28.1H113.33V28.08Z" fill="#18171C"/>
<path d="M116.56 28.08H117.13V28.7C117.18 28.58 117.29 28.43 117.48 28.26C117.66 28.09 117.87 28 118.11 28C118.12 28 118.14 28 118.17 28C118.2 28 118.24 28 118.31 28.01V28.65C118.31 28.65 118.24 28.64 118.21 28.64C118.18 28.64 118.15 28.64 118.11 28.64C117.81 28.64 117.57 28.74 117.41 28.93C117.25 29.13 117.17 29.35 117.17 29.61V31.68H116.57V28.09L116.56 28.08Z" fill="#18171C"/>
<path d="M121.43 28.44C121.75 28.75 121.91 29.2 121.91 29.8C121.91 30.4 121.77 30.86 121.49 31.23C121.21 31.61 120.78 31.8 120.19 31.8C119.7 31.8 119.31 31.63 119.02 31.3C118.73 30.97 118.59 30.52 118.59 29.95C118.59 29.35 118.74 28.87 119.05 28.51C119.35 28.15 119.76 27.97 120.28 27.97C120.74 27.97 121.13 28.12 121.45 28.43L121.43 28.44ZM121.06 30.82C121.21 30.52 121.28 30.18 121.28 29.81C121.28 29.47 121.23 29.2 121.12 28.99C120.95 28.66 120.66 28.49 120.25 28.49C119.89 28.49 119.62 28.63 119.45 28.91C119.28 29.19 119.2 29.53 119.2 29.93C119.2 30.33 119.28 30.63 119.45 30.88C119.62 31.13 119.88 31.26 120.24 31.26C120.64 31.26 120.91 31.11 121.05 30.81L121.06 30.82Z" fill="#18171C"/>
<path d="M122.6 28.09H123.19V28.57C123.31 28.41 123.44 28.28 123.59 28.19C123.79 28.06 124.03 27.99 124.31 27.99C124.72 27.99 125.06 28.15 125.35 28.46C125.63 28.77 125.78 29.22 125.78 29.8C125.78 30.58 125.57 31.14 125.16 31.48C124.9 31.69 124.6 31.8 124.25 31.8C123.98 31.8 123.75 31.74 123.57 31.62C123.46 31.55 123.34 31.44 123.21 31.27V33.1H122.61V28.09H122.6ZM124.87 30.91C125.06 30.67 125.15 30.32 125.15 29.85C125.15 29.56 125.11 29.32 125.03 29.11C124.87 28.71 124.59 28.52 124.17 28.52C123.75 28.52 123.46 28.73 123.31 29.15C123.23 29.37 123.19 29.66 123.19 30C123.19 30.28 123.23 30.51 123.31 30.71C123.47 31.08 123.75 31.27 124.17 31.27C124.45 31.27 124.69 31.15 124.87 30.92V30.91Z" fill="#18171C"/>
<path d="M128.69 28.18C128.93 28.3 129.11 28.45 129.23 28.64C129.35 28.82 129.43 29.03 129.47 29.27C129.51 29.44 129.52 29.7 129.52 30.06H126.91C126.92 30.43 127.01 30.72 127.17 30.94C127.33 31.16 127.58 31.27 127.91 31.27C128.22 31.27 128.47 31.17 128.66 30.96C128.76 30.84 128.84 30.7 128.88 30.54H129.47C129.45 30.67 129.4 30.82 129.31 30.98C129.22 31.14 129.12 31.27 129.01 31.38C128.83 31.56 128.6 31.68 128.33 31.74C128.19 31.78 128.02 31.79 127.84 31.79C127.4 31.79 127.02 31.63 126.71 31.3C126.4 30.97 126.25 30.52 126.25 29.93C126.25 29.34 126.41 28.88 126.72 28.52C127.03 28.16 127.44 27.98 127.94 27.98C128.19 27.98 128.44 28.04 128.68 28.16L128.69 28.18ZM128.91 29.59C128.89 29.33 128.83 29.12 128.74 28.96C128.58 28.67 128.3 28.52 127.92 28.52C127.64 28.52 127.41 28.62 127.23 28.82C127.04 29.02 126.95 29.27 126.93 29.58H128.91V29.59Z" fill="#18171C"/>
<path d="M132.22 29.5C132.36 29.48 132.45 29.42 132.5 29.33C132.53 29.28 132.54 29.2 132.54 29.1C132.54 28.89 132.47 28.74 132.32 28.65C132.17 28.56 131.96 28.51 131.69 28.51C131.38 28.51 131.15 28.6 131.02 28.77C130.95 28.86 130.9 29 130.88 29.19H130.32C130.33 28.75 130.47 28.44 130.75 28.26C131.03 28.09 131.35 28 131.71 28C132.13 28 132.48 28.08 132.74 28.24C133 28.4 133.13 28.65 133.13 28.99V31.06C133.13 31.12 133.14 31.17 133.17 31.21C133.2 31.25 133.25 31.27 133.33 31.27C133.36 31.27 133.39 31.27 133.42 31.27C133.45 31.27 133.49 31.27 133.53 31.26V31.71C133.44 31.74 133.36 31.75 133.32 31.76C133.27 31.76 133.2 31.77 133.12 31.77C132.91 31.77 132.76 31.7 132.67 31.55C132.62 31.47 132.59 31.36 132.57 31.22C132.45 31.38 132.27 31.52 132.04 31.64C131.81 31.76 131.56 31.82 131.28 31.82C130.95 31.82 130.67 31.72 130.46 31.52C130.25 31.32 130.14 31.07 130.14 30.76C130.14 30.43 130.24 30.17 130.45 29.99C130.66 29.81 130.93 29.69 131.27 29.65L132.23 29.53L132.22 29.5ZM130.95 31.13C131.08 31.23 131.23 31.28 131.4 31.28C131.61 31.28 131.82 31.23 132.02 31.13C132.36 30.97 132.52 30.7 132.52 30.33V29.84C132.45 29.89 132.35 29.93 132.24 29.96C132.12 29.99 132.01 30.01 131.9 30.03L131.54 30.08C131.32 30.11 131.16 30.15 131.05 30.22C130.86 30.33 130.77 30.49 130.77 30.72C130.77 30.89 130.83 31.03 130.96 31.13H130.95Z" fill="#18171C"/>
<path d="M134.11 28.08H134.68V28.59C134.85 28.38 135.03 28.23 135.22 28.14C135.41 28.05 135.62 28 135.85 28C136.36 28 136.7 28.18 136.88 28.53C136.98 28.72 137.03 29 137.03 29.37V31.67H136.42V29.41C136.42 29.19 136.39 29.01 136.32 28.88C136.21 28.66 136.02 28.54 135.74 28.54C135.6 28.54 135.48 28.55 135.39 28.58C135.22 28.63 135.08 28.73 134.95 28.88C134.85 29 134.78 29.12 134.75 29.25C134.72 29.38 134.7 29.56 134.7 29.79V31.67H134.1V28.08H134.11Z" fill="#18171C"/>
<path d="M143.41 27.1C143.75 27.43 143.94 27.8 143.98 28.22H143.33C143.26 27.9 143.11 27.65 142.9 27.47C142.68 27.28 142.38 27.19 141.99 27.19C141.51 27.19 141.13 27.36 140.84 27.7C140.55 28.04 140.4 28.56 140.4 29.27C140.4 29.85 140.53 30.32 140.8 30.68C141.06 31.04 141.46 31.22 141.98 31.22C142.46 31.22 142.83 31.03 143.08 30.65C143.21 30.45 143.31 30.19 143.38 29.87H144.03C143.97 30.39 143.78 30.82 143.46 31.17C143.07 31.59 142.55 31.8 141.89 31.8C141.32 31.8 140.85 31.63 140.46 31.28C139.95 30.82 139.7 30.11 139.7 29.16C139.7 28.43 139.89 27.84 140.27 27.37C140.68 26.86 141.25 26.61 141.97 26.61C142.59 26.61 143.07 26.77 143.41 27.1Z" fill="#18171C"/>
<path d="M147.02 28.18C147.26 28.3 147.44 28.45 147.56 28.64C147.68 28.82 147.76 29.03 147.8 29.27C147.84 29.44 147.85 29.7 147.85 30.06H145.24C145.25 30.43 145.34 30.72 145.5 30.94C145.66 31.16 145.91 31.27 146.24 31.27C146.55 31.27 146.8 31.17 146.99 30.96C147.09 30.84 147.17 30.7 147.21 30.54H147.8C147.78 30.67 147.73 30.82 147.64 30.98C147.55 31.14 147.45 31.27 147.34 31.38C147.16 31.56 146.93 31.68 146.66 31.74C146.52 31.78 146.35 31.79 146.17 31.79C145.73 31.79 145.35 31.63 145.04 31.3C144.73 30.97 144.58 30.52 144.58 29.93C144.58 29.34 144.74 28.88 145.05 28.52C145.36 28.16 145.77 27.98 146.27 27.98C146.52 27.98 146.77 28.04 147.01 28.16L147.02 28.18ZM147.24 29.59C147.22 29.33 147.16 29.12 147.07 28.96C146.91 28.67 146.63 28.52 146.25 28.52C145.97 28.52 145.74 28.62 145.56 28.82C145.37 29.02 145.28 29.27 145.26 29.58H147.24V29.59Z" fill="#18171C"/>
<path d="M148.63 28.08H149.2V28.59C149.37 28.38 149.55 28.23 149.74 28.14C149.93 28.05 150.14 28 150.37 28C150.88 28 151.22 28.18 151.4 28.53C151.5 28.72 151.55 29 151.55 29.37V31.67H150.94V29.41C150.94 29.19 150.91 29.01 150.84 28.88C150.73 28.66 150.54 28.54 150.26 28.54C150.12 28.54 150 28.55 149.91 28.58C149.74 28.63 149.6 28.73 149.47 28.88C149.37 29 149.3 29.12 149.27 29.25C149.24 29.38 149.22 29.56 149.22 29.79V31.67H148.62V28.08H148.63Z" fill="#18171C"/>
<path d="M152.57 27.07H153.18V28.07H153.75V28.56H153.18V30.9C153.18 31.03 153.22 31.11 153.31 31.15C153.36 31.17 153.44 31.19 153.54 31.19C153.57 31.19 153.6 31.19 153.63 31.19C153.66 31.19 153.7 31.19 153.75 31.18V31.66C153.68 31.68 153.61 31.69 153.53 31.7C153.45 31.7 153.37 31.71 153.29 31.71C153.01 31.71 152.82 31.64 152.72 31.49C152.62 31.35 152.57 31.16 152.57 30.93V28.55H152.08V28.06H152.57V27.06V27.07Z" fill="#18171C"/>
<path d="M154.37 28.08H154.94V28.7C154.99 28.58 155.1 28.43 155.29 28.26C155.47 28.09 155.68 28 155.92 28C155.93 28 155.95 28 155.98 28C156.01 28 156.05 28 156.12 28.01V28.65C156.12 28.65 156.05 28.64 156.02 28.64C155.99 28.64 155.96 28.64 155.92 28.64C155.62 28.64 155.38 28.74 155.22 28.93C155.06 29.13 154.98 29.35 154.98 29.61V31.68H154.38V28.09L154.37 28.08Z" fill="#18171C"/>
<path d="M158.86 28.18C159.1 28.3 159.28 28.45 159.4 28.64C159.52 28.82 159.6 29.03 159.64 29.27C159.68 29.44 159.69 29.7 159.69 30.06H157.08C157.09 30.43 157.18 30.72 157.34 30.94C157.5 31.16 157.75 31.27 158.08 31.27C158.39 31.27 158.64 31.17 158.83 30.96C158.93 30.84 159.01 30.7 159.05 30.54H159.64C159.62 30.67 159.57 30.82 159.48 30.98C159.39 31.14 159.29 31.27 159.18 31.38C159 31.56 158.77 31.68 158.5 31.74C158.36 31.78 158.19 31.79 158.01 31.79C157.57 31.79 157.19 31.63 156.88 31.3C156.57 30.97 156.42 30.52 156.42 29.93C156.42 29.34 156.58 28.88 156.89 28.52C157.2 28.16 157.61 27.98 158.11 27.98C158.36 27.98 158.61 28.04 158.85 28.16L158.86 28.18ZM159.08 29.59C159.06 29.33 159 29.12 158.91 28.96C158.75 28.67 158.47 28.52 158.09 28.52C157.81 28.52 157.58 28.62 157.4 28.82C157.21 29.02 157.12 29.27 157.1 29.58H159.08V29.59Z" fill="#18171C"/>
<path d="M108.42 35.95C108.56 35.74 108.83 35.64 109.24 35.64C109.28 35.64 109.32 35.64 109.36 35.64C109.4 35.64 109.45 35.64 109.5 35.64V36.19C109.44 36.19 109.39 36.19 109.36 36.19C109.33 36.19 109.31 36.19 109.28 36.19C109.09 36.19 108.98 36.24 108.95 36.33C108.91 36.43 108.9 36.67 108.9 37.06H109.5V37.54H108.9V40.64H108.3V37.54H107.8V37.06H108.3V36.5C108.3 36.25 108.35 36.07 108.43 35.95H108.42Z" fill="#18171C"/>
<path d="M112.65 37.4C112.97 37.71 113.13 38.16 113.13 38.76C113.13 39.36 112.99 39.82 112.71 40.19C112.43 40.57 112 40.76 111.41 40.76C110.92 40.76 110.53 40.59 110.24 40.26C109.95 39.93 109.81 39.48 109.81 38.91C109.81 38.31 109.96 37.83 110.27 37.47C110.57 37.11 110.98 36.93 111.5 36.93C111.96 36.93 112.35 37.08 112.67 37.39L112.65 37.4ZM112.28 39.79C112.43 39.49 112.5 39.15 112.5 38.78C112.5 38.44 112.45 38.17 112.34 37.96C112.17 37.63 111.88 37.46 111.47 37.46C111.11 37.46 110.84 37.6 110.67 37.88C110.5 38.16 110.42 38.5 110.42 38.9C110.42 39.3 110.5 39.6 110.67 39.85C110.84 40.1 111.1 40.23 111.46 40.23C111.86 40.23 112.13 40.08 112.27 39.78L112.28 39.79Z" fill="#18171C"/>
<path d="M113.89 37.04H114.46V37.66C114.51 37.54 114.62 37.39 114.81 37.22C114.99 37.05 115.2 36.96 115.44 36.96C115.45 36.96 115.47 36.96 115.5 36.96C115.53 36.96 115.57 36.96 115.64 36.97V37.61C115.64 37.61 115.57 37.6 115.54 37.6C115.51 37.6 115.48 37.6 115.44 37.6C115.14 37.6 114.9 37.7 114.74 37.89C114.58 38.09 114.5 38.31 114.5 38.57V40.64H113.9V37.05L113.89 37.04Z" fill="#18171C"/>
<path d="M118.19 36.04H118.8V37.04H119.37V37.53H118.8V39.87C118.8 40 118.84 40.08 118.93 40.12C118.98 40.14 119.06 40.16 119.16 40.16C119.19 40.16 119.22 40.16 119.25 40.16C119.28 40.16 119.32 40.16 119.37 40.15V40.63C119.3 40.65 119.23 40.66 119.15 40.67C119.07 40.67 118.99 40.68 118.91 40.68C118.63 40.68 118.44 40.61 118.34 40.46C118.24 40.32 118.19 40.13 118.19 39.9V37.52H117.7V37.03H118.19V36.03V36.04Z" fill="#18171C"/>
<path d="M119.97 35.69H120.57V37.53C120.71 37.35 120.84 37.22 120.96 37.15C121.15 37.02 121.4 36.96 121.69 36.96C122.21 36.96 122.56 37.14 122.75 37.51C122.85 37.71 122.9 37.99 122.9 38.34V40.64H122.28V38.38C122.28 38.12 122.25 37.92 122.18 37.8C122.07 37.6 121.86 37.5 121.56 37.5C121.31 37.5 121.08 37.59 120.88 37.76C120.68 37.93 120.57 38.26 120.57 38.74V40.65H119.97V35.71V35.69Z" fill="#18171C"/>
<path d="M126.01 37.14C126.25 37.26 126.43 37.41 126.55 37.6C126.67 37.78 126.75 37.99 126.79 38.23C126.83 38.4 126.84 38.66 126.84 39.02H124.23C124.24 39.39 124.33 39.68 124.49 39.9C124.65 40.12 124.9 40.23 125.23 40.23C125.54 40.23 125.79 40.13 125.98 39.92C126.08 39.8 126.16 39.66 126.2 39.5H126.79C126.77 39.63 126.72 39.78 126.63 39.94C126.54 40.1 126.44 40.23 126.33 40.34C126.15 40.52 125.92 40.64 125.65 40.7C125.51 40.74 125.34 40.75 125.16 40.75C124.72 40.75 124.34 40.59 124.03 40.26C123.72 39.93 123.57 39.48 123.57 38.89C123.57 38.3 123.73 37.84 124.04 37.48C124.35 37.12 124.76 36.94 125.26 36.94C125.51 36.94 125.76 37 126 37.12L126.01 37.14ZM126.23 38.55C126.21 38.29 126.15 38.08 126.06 37.92C125.9 37.63 125.62 37.48 125.24 37.48C124.96 37.48 124.73 37.58 124.55 37.78C124.36 37.98 124.27 38.23 124.25 38.54H126.23V38.55Z" fill="#18171C"/>
<path d="M129.64 35.71H131.61C132.28 35.71 132.8 35.95 133.17 36.43C133.5 36.86 133.66 37.42 133.66 38.1C133.66 38.62 133.56 39.1 133.37 39.52C133.03 40.27 132.44 40.64 131.61 40.64H129.65V35.71H129.64ZM131.47 40.07C131.69 40.07 131.87 40.05 132.01 40C132.26 39.91 132.47 39.74 132.63 39.5C132.76 39.3 132.85 39.05 132.91 38.74C132.94 38.55 132.96 38.38 132.96 38.22C132.96 37.61 132.84 37.14 132.6 36.8C132.36 36.46 131.98 36.29 131.45 36.29H130.29V40.07H131.45H131.47Z" fill="#18171C"/>
<path d="M136.71 37.14C136.95 37.26 137.13 37.41 137.25 37.6C137.37 37.78 137.45 37.99 137.49 38.23C137.53 38.4 137.54 38.66 137.54 39.02H134.93C134.94 39.39 135.03 39.68 135.19 39.9C135.35 40.12 135.6 40.23 135.93 40.23C136.24 40.23 136.49 40.13 136.68 39.92C136.78 39.8 136.86 39.66 136.9 39.5H137.49C137.47 39.63 137.42 39.78 137.33 39.94C137.24 40.1 137.14 40.23 137.03 40.34C136.85 40.52 136.62 40.64 136.35 40.7C136.21 40.74 136.04 40.75 135.86 40.75C135.42 40.75 135.04 40.59 134.73 40.26C134.42 39.93 134.27 39.48 134.27 38.89C134.27 38.3 134.43 37.84 134.74 37.48C135.05 37.12 135.46 36.94 135.96 36.94C136.21 36.94 136.46 37 136.7 37.12L136.71 37.14ZM136.92 38.55C136.9 38.29 136.84 38.08 136.75 37.92C136.59 37.63 136.31 37.48 135.93 37.48C135.65 37.48 135.42 37.58 135.24 37.78C135.05 37.98 134.96 38.23 134.94 38.54H136.92V38.55Z" fill="#18171C"/>
<path d="M138.6 37.04L139.56 39.97L140.56 37.04H141.22L139.87 40.63H139.23L137.9 37.04H138.6Z" fill="#18171C"/>
<path d="M143.96 37.14C144.2 37.26 144.38 37.41 144.5 37.6C144.62 37.78 144.7 37.99 144.74 38.23C144.78 38.4 144.79 38.66 144.79 39.02H142.18C142.19 39.39 142.28 39.68 142.44 39.9C142.6 40.12 142.85 40.23 143.18 40.23C143.49 40.23 143.74 40.13 143.93 39.92C144.03 39.8 144.11 39.66 144.15 39.5H144.74C144.72 39.63 144.67 39.78 144.58 39.94C144.49 40.1 144.39 40.23 144.28 40.34C144.1 40.52 143.87 40.64 143.6 40.7C143.46 40.74 143.29 40.75 143.11 40.75C142.67 40.75 142.29 40.59 141.98 40.26C141.67 39.93 141.52 39.48 141.52 38.89C141.52 38.3 141.68 37.84 141.99 37.48C142.3 37.12 142.71 36.94 143.21 36.94C143.46 36.94 143.71 37 143.95 37.12L143.96 37.14ZM144.18 38.55C144.16 38.29 144.1 38.08 144.01 37.92C143.85 37.63 143.57 37.48 143.19 37.48C142.91 37.48 142.68 37.58 142.5 37.78C142.31 37.98 142.22 38.23 142.2 38.54H144.18V38.55Z" fill="#18171C"/>
<path d="M145.58 35.71H146.18V40.64H145.58V35.71Z" fill="#18171C"/>
<path d="M149.69 37.4C150.01 37.71 150.17 38.16 150.17 38.76C150.17 39.36 150.03 39.82 149.75 40.19C149.47 40.57 149.04 40.76 148.45 40.76C147.96 40.76 147.57 40.59 147.28 40.26C146.99 39.93 146.85 39.48 146.85 38.91C146.85 38.31 147 37.83 147.31 37.47C147.61 37.11 148.02 36.93 148.54 36.93C149 36.93 149.39 37.08 149.71 37.39L149.69 37.4ZM149.32 39.79C149.47 39.49 149.54 39.15 149.54 38.78C149.54 38.44 149.49 38.17 149.38 37.96C149.21 37.63 148.92 37.46 148.51 37.46C148.15 37.46 147.88 37.6 147.71 37.88C147.54 38.16 147.46 38.5 147.46 38.9C147.46 39.3 147.54 39.6 147.71 39.85C147.88 40.1 148.14 40.23 148.5 40.23C148.9 40.23 149.17 40.08 149.31 39.78L149.32 39.79Z" fill="#18171C"/>
<path d="M150.86 37.06H151.45V37.54C151.57 37.38 151.7 37.25 151.85 37.16C152.05 37.03 152.29 36.96 152.57 36.96C152.98 36.96 153.32 37.12 153.61 37.43C153.89 37.74 154.04 38.19 154.04 38.77C154.04 39.55 153.83 40.11 153.42 40.45C153.16 40.66 152.86 40.77 152.51 40.77C152.24 40.77 152.01 40.71 151.83 40.59C151.72 40.52 151.6 40.41 151.47 40.24V42.07H150.87V37.06H150.86ZM153.13 39.88C153.32 39.64 153.41 39.29 153.41 38.82C153.41 38.53 153.37 38.29 153.29 38.08C153.13 37.68 152.85 37.49 152.43 37.49C152.01 37.49 151.72 37.7 151.57 38.12C151.49 38.34 151.45 38.63 151.45 38.97C151.45 39.25 151.49 39.48 151.57 39.68C151.73 40.05 152.01 40.24 152.43 40.24C152.71 40.24 152.95 40.12 153.13 39.89V39.88Z" fill="#18171C"/>
<path d="M154.73 37.04H155.33V37.55C155.47 37.37 155.6 37.24 155.72 37.16C155.92 37.02 156.15 36.96 156.4 36.96C156.69 36.96 156.92 37.03 157.09 37.17C157.19 37.25 157.28 37.37 157.36 37.53C157.49 37.34 157.65 37.2 157.83 37.1C158.01 37.01 158.21 36.96 158.44 36.96C158.92 36.96 159.25 37.13 159.43 37.48C159.52 37.67 159.57 37.92 159.57 38.24V40.63H158.94V38.13C158.94 37.89 158.88 37.73 158.76 37.64C158.64 37.55 158.49 37.51 158.32 37.51C158.08 37.51 157.88 37.59 157.71 37.75C157.54 37.91 157.45 38.17 157.45 38.55V40.64H156.84V38.3C156.84 38.06 156.81 37.88 156.75 37.77C156.66 37.6 156.49 37.52 156.24 37.52C156.01 37.52 155.8 37.61 155.62 37.78C155.43 37.96 155.34 38.28 155.34 38.74V40.65H154.74V37.06L154.73 37.04Z" fill="#18171C"/>
<path d="M162.67 37.14C162.91 37.26 163.09 37.41 163.21 37.6C163.33 37.78 163.41 37.99 163.45 38.23C163.49 38.4 163.5 38.66 163.5 39.02H160.89C160.9 39.39 160.99 39.68 161.15 39.9C161.31 40.12 161.56 40.23 161.89 40.23C162.2 40.23 162.45 40.13 162.64 39.92C162.74 39.8 162.82 39.66 162.86 39.5H163.45C163.43 39.63 163.38 39.78 163.29 39.94C163.2 40.1 163.1 40.23 162.99 40.34C162.81 40.52 162.58 40.64 162.31 40.7C162.17 40.74 162 40.75 161.82 40.75C161.38 40.75 161 40.59 160.69 40.26C160.38 39.93 160.23 39.48 160.23 38.89C160.23 38.3 160.39 37.84 160.7 37.48C161.01 37.12 161.42 36.94 161.92 36.94C162.17 36.94 162.42 37 162.66 37.12L162.67 37.14ZM162.89 38.55C162.87 38.29 162.81 38.08 162.72 37.92C162.56 37.63 162.28 37.48 161.9 37.48C161.62 37.48 161.39 37.58 161.21 37.78C161.02 37.98 160.93 38.23 160.91 38.54H162.89V38.55Z" fill="#18171C"/>
<path d="M164.28 37.04H164.85V37.55C165.02 37.34 165.2 37.19 165.39 37.1C165.58 37.01 165.79 36.96 166.02 36.96C166.53 36.96 166.87 37.14 167.05 37.49C167.15 37.68 167.2 37.96 167.2 38.33V40.63H166.59V38.37C166.59 38.15 166.56 37.97 166.49 37.84C166.38 37.62 166.19 37.5 165.91 37.5C165.77 37.5 165.65 37.51 165.56 37.54C165.4 37.59 165.25 37.69 165.12 37.84C165.02 37.96 164.95 38.08 164.92 38.21C164.89 38.34 164.87 38.52 164.87 38.75V40.63H164.27V37.04H164.28Z" fill="#18171C"/>
<path d="M168.22 36.04H168.83V37.04H169.4V37.53H168.83V39.87C168.83 40 168.87 40.08 168.96 40.12C169.01 40.14 169.09 40.16 169.2 40.16C169.23 40.16 169.26 40.16 169.29 40.16C169.32 40.16 169.36 40.16 169.41 40.15V40.63C169.34 40.65 169.27 40.66 169.19 40.67C169.11 40.67 169.03 40.68 168.95 40.68C168.67 40.68 168.48 40.61 168.38 40.46C168.28 40.32 168.23 40.13 168.23 39.9V37.52H167.74V37.03H168.23V36.03L168.22 36.04Z" fill="#18171C"/>
<path d="M110.74 46.37C111.06 46.68 111.22 47.13 111.22 47.73C111.22 48.33 111.08 48.79 110.8 49.16C110.52 49.54 110.09 49.73 109.5 49.73C109.01 49.73 108.62 49.56 108.33 49.23C108.04 48.9 107.9 48.45 107.9 47.88C107.9 47.28 108.05 46.8 108.36 46.44C108.66 46.08 109.07 45.9 109.59 45.9C110.05 45.9 110.44 46.05 110.76 46.36L110.74 46.37ZM110.37 48.76C110.52 48.46 110.59 48.12 110.59 47.75C110.59 47.41 110.54 47.14 110.43 46.93C110.26 46.6 109.97 46.43 109.56 46.43C109.2 46.43 108.93 46.57 108.76 46.85C108.59 47.13 108.51 47.47 108.51 47.87C108.51 48.27 108.59 48.57 108.76 48.82C108.93 49.07 109.19 49.2 109.55 49.2C109.95 49.2 110.22 49.05 110.36 48.75L110.37 48.76Z" fill="#18171C"/>
<path d="M112.24 44.92C112.38 44.71 112.65 44.61 113.06 44.61C113.1 44.61 113.14 44.61 113.18 44.61C113.22 44.61 113.27 44.61 113.32 44.61V45.16C113.26 45.16 113.21 45.16 113.18 45.16C113.15 45.16 113.13 45.16 113.1 45.16C112.91 45.16 112.8 45.21 112.77 45.3C112.73 45.4 112.72 45.64 112.72 46.03H113.32V46.51H112.72V49.61H112.12V46.51H111.62V46.03H112.12V45.47C112.12 45.22 112.17 45.04 112.25 44.92H112.24Z" fill="#18171C"/>
<path d="M116.25 44.68L117.67 48.88L119.07 44.68H119.82L118.02 49.61H117.31L115.52 44.68H116.26H116.25Z" fill="#18171C"/>
<path d="M122.96 46.37C123.28 46.68 123.44 47.13 123.44 47.73C123.44 48.33 123.3 48.79 123.02 49.16C122.74 49.54 122.31 49.73 121.72 49.73C121.23 49.73 120.84 49.56 120.55 49.23C120.26 48.9 120.12 48.45 120.12 47.88C120.12 47.28 120.27 46.8 120.58 46.44C120.88 46.08 121.29 45.9 121.81 45.9C122.27 45.9 122.66 46.05 122.98 46.36L122.96 46.37ZM122.59 48.76C122.74 48.46 122.81 48.12 122.81 47.75C122.81 47.41 122.76 47.14 122.65 46.93C122.48 46.6 122.19 46.43 121.78 46.43C121.42 46.43 121.15 46.57 120.98 46.85C120.81 47.13 120.73 47.47 120.73 47.87C120.73 48.27 120.81 48.57 120.98 48.82C121.15 49.07 121.41 49.2 121.77 49.2C122.17 49.2 122.44 49.05 122.58 48.75L122.59 48.76Z" fill="#18171C"/>
<path d="M126.55 46.2C126.8 46.4 126.96 46.74 127.01 47.22H126.42C126.38 47 126.3 46.81 126.18 46.67C126.05 46.52 125.85 46.45 125.57 46.45C125.19 46.45 124.91 46.64 124.74 47.01C124.63 47.25 124.58 47.55 124.58 47.91C124.58 48.27 124.66 48.57 124.81 48.82C124.96 49.07 125.2 49.19 125.53 49.19C125.78 49.19 125.98 49.11 126.13 48.96C126.28 48.81 126.38 48.6 126.43 48.33H127.02C126.95 48.81 126.78 49.15 126.52 49.37C126.25 49.59 125.91 49.7 125.49 49.7C125.02 49.7 124.65 49.53 124.37 49.19C124.09 48.85 123.95 48.42 123.95 47.9C123.95 47.27 124.1 46.78 124.41 46.43C124.72 46.08 125.11 45.9 125.58 45.9C125.98 45.9 126.31 46 126.57 46.2H126.55Z" fill="#18171C"/>
<path d="M129.54 47.43C129.68 47.41 129.77 47.35 129.82 47.26C129.85 47.21 129.86 47.13 129.86 47.03C129.86 46.82 129.79 46.67 129.64 46.58C129.49 46.49 129.28 46.44 129.01 46.44C128.7 46.44 128.47 46.53 128.34 46.7C128.27 46.79 128.22 46.93 128.2 47.12H127.64C127.65 46.68 127.79 46.37 128.07 46.19C128.35 46.02 128.67 45.93 129.03 45.93C129.45 45.93 129.8 46.01 130.06 46.17C130.32 46.33 130.45 46.58 130.45 46.92V48.99C130.45 49.05 130.46 49.1 130.49 49.14C130.52 49.18 130.57 49.2 130.65 49.2C130.68 49.2 130.71 49.2 130.74 49.2C130.77 49.2 130.81 49.2 130.85 49.19V49.64C130.76 49.67 130.68 49.68 130.64 49.69C130.59 49.69 130.52 49.7 130.44 49.7C130.23 49.7 130.08 49.63 129.99 49.48C129.94 49.4 129.91 49.29 129.89 49.15C129.77 49.31 129.59 49.45 129.36 49.57C129.13 49.69 128.88 49.75 128.6 49.75C128.27 49.75 127.99 49.65 127.78 49.45C127.57 49.25 127.46 49 127.46 48.69C127.46 48.36 127.56 48.1 127.77 47.92C127.98 47.74 128.25 47.62 128.59 47.58L129.55 47.46L129.54 47.43ZM128.27 49.06C128.4 49.16 128.55 49.21 128.72 49.21C128.93 49.21 129.14 49.16 129.34 49.06C129.68 48.9 129.84 48.63 129.84 48.26V47.77C129.77 47.82 129.67 47.86 129.56 47.89C129.44 47.92 129.33 47.94 129.22 47.96L128.86 48.01C128.64 48.04 128.48 48.08 128.37 48.15C128.18 48.26 128.09 48.42 128.09 48.65C128.09 48.82 128.15 48.96 128.28 49.06H128.27Z" fill="#18171C"/>
<path d="M131.56 45.01H132.17V46.01H132.74V46.5H132.17V48.84C132.17 48.97 132.21 49.05 132.3 49.09C132.35 49.11 132.43 49.13 132.53 49.13C132.56 49.13 132.59 49.13 132.62 49.13C132.65 49.13 132.69 49.13 132.74 49.12V49.6C132.67 49.62 132.6 49.63 132.52 49.64C132.44 49.64 132.36 49.65 132.28 49.65C132 49.65 131.81 49.58 131.71 49.43C131.61 49.29 131.56 49.1 131.56 48.87V46.49H131.07V46H131.56V45V45.01Z" fill="#18171C"/>
<path d="M133.35 44.68H133.96V45.36H133.35V44.68ZM133.35 46.03H133.96V49.61H133.35V46.03Z" fill="#18171C"/>
<path d="M137.48 46.37C137.8 46.68 137.96 47.13 137.96 47.73C137.96 48.33 137.82 48.79 137.54 49.16C137.26 49.54 136.83 49.73 136.24 49.73C135.75 49.73 135.36 49.56 135.07 49.23C134.78 48.9 134.64 48.45 134.64 47.88C134.64 47.28 134.79 46.8 135.1 46.44C135.4 46.08 135.81 45.9 136.33 45.9C136.79 45.9 137.18 46.05 137.5 46.36L137.48 46.37ZM137.1 48.76C137.25 48.46 137.32 48.12 137.32 47.75C137.32 47.41 137.27 47.14 137.16 46.93C136.99 46.6 136.7 46.43 136.29 46.43C135.93 46.43 135.66 46.57 135.49 46.85C135.32 47.13 135.24 47.47 135.24 47.87C135.24 48.27 135.32 48.57 135.49 48.82C135.66 49.07 135.92 49.2 136.28 49.2C136.68 49.2 136.95 49.05 137.09 48.75L137.1 48.76Z" fill="#18171C"/>
<path d="M138.69 46.01H139.26V46.52C139.43 46.31 139.61 46.16 139.8 46.07C139.99 45.98 140.2 45.93 140.43 45.93C140.94 45.93 141.28 46.11 141.46 46.46C141.56 46.65 141.61 46.93 141.61 47.3V49.6H141V47.34C141 47.12 140.97 46.94 140.9 46.81C140.79 46.59 140.6 46.47 140.32 46.47C140.18 46.47 140.06 46.48 139.97 46.51C139.8 46.56 139.66 46.66 139.53 46.81C139.43 46.93 139.36 47.05 139.33 47.18C139.3 47.31 139.28 47.49 139.28 47.72V49.6H138.68V46.01H138.69Z" fill="#18171C"/>
<path d="M144.44 47.43C144.58 47.41 144.67 47.35 144.72 47.26C144.75 47.21 144.76 47.13 144.76 47.03C144.76 46.82 144.69 46.67 144.54 46.58C144.39 46.49 144.18 46.44 143.91 46.44C143.6 46.44 143.37 46.53 143.24 46.7C143.17 46.79 143.12 46.93 143.1 47.12H142.54C142.55 46.68 142.69 46.37 142.97 46.19C143.25 46.02 143.57 45.93 143.93 45.93C144.35 45.93 144.7 46.01 144.96 46.17C145.22 46.33 145.35 46.58 145.35 46.92V48.99C145.35 49.05 145.36 49.1 145.39 49.14C145.42 49.18 145.47 49.2 145.55 49.2C145.58 49.2 145.61 49.2 145.64 49.2C145.67 49.2 145.71 49.2 145.75 49.19V49.64C145.66 49.67 145.58 49.68 145.54 49.69C145.49 49.69 145.42 49.7 145.34 49.7C145.13 49.7 144.98 49.63 144.89 49.48C144.84 49.4 144.81 49.29 144.79 49.15C144.67 49.31 144.49 49.45 144.26 49.57C144.03 49.69 143.78 49.75 143.5 49.75C143.17 49.75 142.89 49.65 142.68 49.45C142.47 49.25 142.36 49 142.36 48.69C142.36 48.36 142.46 48.1 142.67 47.92C142.88 47.74 143.15 47.62 143.49 47.58L144.45 47.46L144.44 47.43ZM143.17 49.06C143.3 49.16 143.45 49.21 143.62 49.21C143.83 49.21 144.04 49.16 144.24 49.06C144.58 48.9 144.74 48.63 144.74 48.26V47.77C144.67 47.82 144.57 47.86 144.46 47.89C144.34 47.92 144.23 47.94 144.12 47.96L143.76 48.01C143.54 48.04 143.38 48.08 143.27 48.15C143.08 48.26 142.99 48.42 142.99 48.65C142.99 48.82 143.05 48.96 143.18 49.06H143.17Z" fill="#18171C"/>
<path d="M146.35 44.68H146.95V49.61H146.35V44.68Z" fill="#18171C"/>
<path d="M153.43 44.68V45.27H151.77V49.61H151.1V45.27H149.44V44.68H153.44H153.43Z" fill="#18171C"/>
<path d="M153.98 46.01H154.55V46.63C154.6 46.51 154.71 46.36 154.9 46.19C155.08 46.02 155.29 45.93 155.53 45.93C155.54 45.93 155.56 45.93 155.59 45.93C155.62 45.93 155.66 45.93 155.73 45.94V46.58C155.73 46.58 155.66 46.57 155.63 46.57C155.6 46.57 155.57 46.57 155.53 46.57C155.23 46.57 154.99 46.67 154.83 46.86C154.67 47.06 154.59 47.28 154.59 47.54V49.61H153.99V46.02L153.98 46.01Z" fill="#18171C"/>
<path d="M158.18 47.43C158.32 47.41 158.41 47.35 158.46 47.26C158.49 47.21 158.5 47.13 158.5 47.03C158.5 46.82 158.43 46.67 158.28 46.58C158.13 46.49 157.92 46.44 157.65 46.44C157.34 46.44 157.11 46.53 156.98 46.7C156.91 46.79 156.86 46.93 156.84 47.12H156.28C156.29 46.68 156.43 46.37 156.71 46.19C156.99 46.02 157.31 45.93 157.67 45.93C158.09 45.93 158.44 46.01 158.7 46.17C158.96 46.33 159.09 46.58 159.09 46.92V48.99C159.09 49.05 159.1 49.1 159.13 49.14C159.16 49.18 159.21 49.2 159.29 49.2C159.32 49.2 159.35 49.2 159.38 49.2C159.41 49.2 159.45 49.2 159.49 49.19V49.64C159.4 49.67 159.32 49.68 159.28 49.69C159.23 49.69 159.16 49.7 159.08 49.7C158.87 49.7 158.72 49.63 158.63 49.48C158.58 49.4 158.55 49.29 158.53 49.15C158.41 49.31 158.23 49.45 158 49.57C157.77 49.69 157.52 49.75 157.24 49.75C156.91 49.75 156.63 49.65 156.42 49.45C156.21 49.25 156.1 49 156.1 48.69C156.1 48.36 156.2 48.1 156.41 47.92C156.62 47.74 156.89 47.62 157.23 47.58L158.19 47.46L158.18 47.43ZM156.91 49.06C157.04 49.16 157.19 49.21 157.36 49.21C157.57 49.21 157.78 49.16 157.98 49.06C158.32 48.9 158.48 48.63 158.48 48.26V47.77C158.41 47.82 158.31 47.86 158.2 47.89C158.08 47.92 157.97 47.94 157.86 47.96L157.5 48.01C157.28 48.04 157.12 48.08 157.01 48.15C156.82 48.26 156.73 48.42 156.73 48.65C156.73 48.82 156.79 48.96 156.92 49.06H156.91Z" fill="#18171C"/>
<path d="M160.08 44.68H160.69V45.36H160.08V44.68ZM160.08 46.03H160.69V49.61H160.08V46.03Z" fill="#18171C"/>
<path d="M161.6 46.01H162.17V46.52C162.34 46.31 162.52 46.16 162.71 46.07C162.9 45.98 163.11 45.93 163.34 45.93C163.85 45.93 164.19 46.11 164.37 46.46C164.47 46.65 164.52 46.93 164.52 47.3V49.6H163.91V47.34C163.91 47.12 163.88 46.94 163.81 46.81C163.7 46.59 163.51 46.47 163.23 46.47C163.09 46.47 162.97 46.48 162.88 46.51C162.71 46.56 162.57 46.66 162.44 46.81C162.34 46.93 162.27 47.05 162.24 47.18C162.21 47.31 162.19 47.49 162.19 47.72V49.6H161.59V46.01H161.6Z" fill="#18171C"/>
<path d="M165.42 44.68H166.03V45.36H165.42V44.68ZM165.42 46.03H166.03V49.61H165.42V46.03Z" fill="#18171C"/>
<path d="M166.95 46.01H167.52V46.52C167.69 46.31 167.87 46.16 168.06 46.07C168.25 45.98 168.46 45.93 168.69 45.93C169.2 45.93 169.54 46.11 169.72 46.46C169.82 46.65 169.87 46.93 169.87 47.3V49.6H169.26V47.34C169.26 47.12 169.23 46.94 169.16 46.81C169.05 46.59 168.86 46.47 168.58 46.47C168.44 46.47 168.32 46.48 168.23 46.51C168.06 46.56 167.92 46.66 167.79 46.81C167.69 46.93 167.62 47.05 167.59 47.18C167.56 47.31 167.54 47.49 167.54 47.72V49.6H166.94V46.01H166.95Z" fill="#18171C"/>
<path d="M172.77 46.16C172.88 46.24 173 46.35 173.12 46.5V46.05H173.68V49.32C173.68 49.78 173.61 50.14 173.48 50.4C173.23 50.89 172.76 51.13 172.07 51.13C171.68 51.13 171.36 51.04 171.1 50.87C170.84 50.7 170.69 50.43 170.66 50.06H171.27C171.3 50.22 171.36 50.35 171.44 50.43C171.58 50.56 171.79 50.63 172.08 50.63C172.54 50.63 172.84 50.47 172.98 50.14C173.07 49.95 173.1 49.6 173.1 49.11C172.98 49.29 172.84 49.43 172.67 49.52C172.5 49.61 172.28 49.65 172 49.65C171.61 49.65 171.27 49.51 170.98 49.24C170.69 48.96 170.54 48.51 170.54 47.87C170.54 47.27 170.69 46.8 170.98 46.46C171.27 46.12 171.63 45.95 172.04 45.95C172.32 45.95 172.57 46.02 172.77 46.16ZM172.84 46.8C172.66 46.59 172.42 46.48 172.14 46.48C171.72 46.48 171.43 46.68 171.27 47.08C171.19 47.29 171.15 47.57 171.15 47.92C171.15 48.33 171.23 48.63 171.4 48.84C171.56 49.05 171.78 49.16 172.06 49.16C172.49 49.16 172.8 48.96 172.97 48.57C173.07 48.35 173.12 48.09 173.12 47.79C173.12 47.34 173.03 47.02 172.85 46.8H172.84Z" fill="#18171C"/>
<path d="M95.0501 2.23H75.9301V15.12H95.0501V2.23Z" fill="#034EA1"/>
<path d="M85.09 5.03L85.49 4.74L85.89 5.03L85.74 4.55L86.15 4.25H85.64L85.49 3.77L85.33 4.25H84.83L85.24 4.55L85.09 5.03Z" fill="#FFF100"/>
<path d="M83 5.6L83.4 5.3L83.81 5.6L83.65 5.12L84.06 4.82H83.56L83.4 4.33L83.25 4.82H82.74L83.15 5.12L83 5.6Z" fill="#FFF100"/>
<path d="M81.87 5.88L81.72 6.37H81.22L81.62 6.67L81.47 7.15L81.87 6.85L82.28 7.15L82.12 6.67L82.53 6.37H82.03L81.87 5.88Z" fill="#FFF100"/>
<path d="M81.31 8.96L81.72 9.26L81.56 8.77L81.97 8.48H81.47L81.31 7.99L81.16 8.48H80.65L81.06 8.77L80.91 9.26L81.31 8.96Z" fill="#FFF100"/>
<path d="M82.03 10.59L81.87 10.1L81.72 10.59H81.22L81.62 10.89L81.47 11.37L81.87 11.07L82.28 11.37L82.12 10.89L82.53 10.59H82.03Z" fill="#FFF100"/>
<path d="M83.56 12.14L83.4 11.65L83.25 12.14H82.75L83.15 12.44L83 12.92L83.4 12.62L83.81 12.92L83.65 12.44L84.06 12.14H83.56Z" fill="#FFF100"/>
<path d="M85.64 12.7L85.49 12.21L85.34 12.7H84.83L85.24 13L85.09 13.48L85.49 13.18L85.89 13.48L85.74 13L86.15 12.7H85.64Z" fill="#FFF100"/>
<path d="M87.73 12.14L87.58 11.65L87.42 12.14H86.92L87.32 12.44L87.17 12.92L87.58 12.62L87.98 12.92L87.83 12.44L88.24 12.14H87.73Z" fill="#FFF100"/>
<path d="M89.26 10.59L89.11 10.1L88.95 10.59H88.45L88.86 10.89L88.7 11.37L89.11 11.07L89.51 11.37L89.36 10.89L89.77 10.59H89.26Z" fill="#FFF100"/>
<path d="M90.32 8.47H89.81L89.66 7.98L89.51 8.47H89L89.41 8.77L89.26 9.25L89.66 8.95L90.06 9.25L89.91 8.77L90.32 8.47Z" fill="#FFF100"/>
<path d="M88.7 7.14L89.11 6.84L89.51 7.14L89.36 6.66L89.77 6.36H89.26L89.11 5.88L88.95 6.36H88.45L88.86 6.66L88.7 7.14Z" fill="#FFF100"/>
<path d="M87.58 4.34L87.43 4.82H86.92L87.33 5.12L87.18 5.6L87.58 5.3L87.98 5.6L87.83 5.12L88.24 4.82H87.74L87.58 4.34Z" fill="#FFF100"/>
<path d="M112.05 6.52C109.71 6.52 107.8 8.45 107.8 10.82C107.8 13.19 109.71 15.12 112.05 15.12H119.2V13.56H112.05C110.56 13.56 109.34 12.33 109.34 10.82C109.34 9.31 110.55 8.08 112.05 8.08H119.2V6.52H112.05Z" fill="#18171C"/>
<path d="M133.01 6.52V15.11H140.98C143.48 15.11 145.23 13.18 145.23 10.81C145.23 8.44 143.5 6.51 140.98 6.51H133.01V6.52ZM140.8 8.08C142.45 8.08 143.64 9.05 143.64 10.83C143.64 12.61 142.43 13.56 140.8 13.56H134.59V8.09H140.8V8.08Z" fill="#18171C"/>
<path d="M186.08 6.52H185.27V19.41H186.85V8.08H193.14C194.91 8.08 195.9 9.21 195.9 10.82C195.9 12.33 194.95 13.56 193.24 13.56H188.16V15.12H193.24C195.82 15.12 197.49 13.19 197.49 10.82C197.49 8.45 195.68 6.52 193.24 6.52H186.09H186.08Z" fill="#18171C"/>
<path d="M129.23 10V11.56H122.71V10H129.23ZM124.26 13.55C122.61 13.55 121.42 12.58 121.42 10.81C121.42 9.04 122.63 8.08 124.26 8.08H131.25V6.52H124.09C121.59 6.52 119.84 8.45 119.84 10.82C119.84 13.19 121.57 15.12 124.09 15.12H131.25V13.56H124.26V13.55Z" fill="#18171C"/>
<path d="M155.98 10V11.56H149.46V10H155.98ZM151 13.55C149.35 13.55 148.16 12.58 148.16 10.81C148.16 9.04 149.37 8.08 151 8.08H157.99V6.52H150.83C148.32 6.52 146.58 8.45 146.58 10.82C146.58 13.19 148.31 15.12 150.83 15.12H157.99V13.56H151V13.55Z" fill="#18171C"/>
<path d="M179.63 6.52H175.41C172.74 6.52 171.16 8.45 171.16 10.82C171.16 13.19 172.9 15.12 175.41 15.12H179.63C182.24 15.12 183.88 13.19 183.88 10.82C183.88 8.45 182.12 6.52 179.63 6.52ZM179.46 13.55H175.59C173.84 13.55 172.75 12.58 172.75 10.81C172.75 9.04 173.86 8.08 175.59 8.08H179.46C181.21 8.08 182.3 9.03 182.3 10.81C182.3 12.59 181.22 13.55 179.46 13.55Z" fill="#18171C"/>
<path d="M168.85 10V11.56H162.33V10H168.85ZM161.01 19.41V10.81C161.01 9.03 162.22 8.08 163.85 8.08H170.83V6.52H163.67C161.17 6.52 159.42 8.45 159.42 10.82V19.41H161H161.01Z" fill="#18171C"/>
<path d="M101.73 2.22H101.13V49.47H101.73V2.22Z" fill="#18171C"/>
</svg>
