<svg width="132" height="133" viewBox="0 0 132 133" fill="none" xmlns="http://www.w3.org/2000/svg">
<path d="M66 131.637C102.175 131.637 131.5 102.311 131.5 66.1366C131.5 29.9619 102.175 0.636597 66 0.636597C29.8253 0.636597 0.5 29.9619 0.5 66.1366C0.5 102.311 29.8253 131.637 66 131.637Z" fill="#EAF2FB" stroke="#EAF2FB"/>
<mask id="mask0_10342_4040" style="mask-type:alpha" maskUnits="userSpaceOnUse" x="16" y="15" width="99" height="100">
<path fill-rule="evenodd" clip-rule="evenodd" d="M67.4136 114.041C93.7784 113.176 114.886 91.5433 114.886 64.9837C114.886 37.8755 92.8974 15.9 65.7732 15.9C38.649 15.9 16.6605 37.8755 16.6605 64.9837C16.6605 92.092 38.649 114.068 65.7732 114.068C65.8434 114.068 65.9136 114.067 65.9838 114.067C49.8247 113.98 36.7521 100.862 36.7521 84.6916C36.7521 68.4678 49.9118 55.3157 66.1453 55.3157C82.3787 55.3157 95.5385 68.4678 95.5385 84.6916C95.5385 100.491 83.0586 113.377 67.4136 114.041Z" fill="white"/>
</mask>
<g mask="url(#mask0_10342_4040)">
<path d="M41.961 48.6225H29.3108V82.0887H41.961V48.6225Z" fill="#3E63F4"/>
<path d="M56.8986 37.5756H44.6007V82.0885H56.8986V37.5756Z" fill="#9EB2FF"/>
<path d="M72.0208 44.3864H59.7229V82.0886H72.0208V44.3864Z" fill="#3E63F4"/>
<path d="M87.353 41.1856H74.7028V82.0887H87.353V41.1856Z" fill="#9EB2FF"/>
<path d="M102.236 37.4671H90.3296V82.0887H102.236V37.4671Z" fill="#3E63F4"/>
</g>
<path d="M61.2363 90.2866V76.1273H70.9705V90.2866C70.9705 90.2866 61.2363 90.3165 61.2363 90.2866Z" fill="#FEC03F"/>
<path d="M66.1033 76.1273V90.2979C68.5369 90.2941 70.9704 90.2866 70.9704 90.2866V76.1273H66.1033Z" fill="#D79922"/>
<path d="M62.5636 75.7735C62.5636 76.1662 62.3928 76.5191 62.1211 76.7623V76.0388C62.1211 71.1618 56.9281 67.9667 52.5666 70.2327C52.5807 70.1883 53.4533 67.9316 53.4701 67.8881C53.478 67.8678 53.486 67.8483 53.4948 67.828C54.2621 66.0999 55.9886 64.9837 57.8947 64.9837C60.0318 64.9837 61.9309 66.4174 62.5131 68.4692C62.5841 68.7176 62.5636 68.1872 62.5636 75.7735Z" fill="#2C81FF"/>
<path d="M55.5728 69.052C52.6705 69.052 50.0532 70.8797 49.0358 73.5577C43.6782 87.6505 44.0393 86.695 43.9696 86.897C43.6243 87.8974 43.4492 88.9457 43.4492 90.0125C43.4492 95.2792 47.7366 99.5641 53.0065 99.5641C58.2763 99.5641 62.5637 95.2792 62.5637 90.0125V76.0388C62.5637 72.1863 59.4276 69.052 55.5728 69.052Z" fill="#FEC03F"/>
<path d="M53.0065 99.5641C47.7366 99.5641 43.4492 95.2792 43.4492 90.0125C43.4492 84.7674 47.6924 80.4609 53.0065 80.4609C58.2763 80.4609 62.5637 84.7457 62.5637 90.0125C62.5637 95.2792 58.2763 99.5641 53.0065 99.5641Z" fill="#2C81FF"/>
<path d="M53.0064 96.9108C56.8186 96.9108 59.9089 93.8223 59.9089 90.0125C59.9089 86.2026 56.8186 83.1141 53.0064 83.1141C49.1943 83.1141 46.104 86.2026 46.104 90.0125C46.104 93.8223 49.1943 96.9108 53.0064 96.9108Z" fill="#E6E6E6"/>
<path d="M69.6431 75.7735C69.6431 76.1662 69.8139 76.5191 70.0856 76.7623V76.0388C70.0856 71.1618 75.2786 67.9667 79.6402 70.2327C79.626 70.1883 78.7535 67.9316 78.7367 67.8881C78.7287 67.8678 78.7207 67.8483 78.7119 67.828C77.9446 66.0999 76.2182 64.9837 74.312 64.9837C72.1749 64.9837 70.2759 66.4174 69.6936 68.4692C69.6226 68.7176 69.6431 68.1872 69.6431 75.7735Z" fill="#3E63F4"/>
<path d="M76.6339 69.052C79.5362 69.052 82.1535 70.8797 83.1709 73.5577C88.5285 87.6505 88.1675 86.6949 88.2371 86.897C88.5824 87.8975 88.7575 88.9457 88.7575 90.0125C88.7575 95.2792 84.4701 99.5641 79.2002 99.5641C73.9304 99.5641 69.643 95.2792 69.643 90.0125V76.0388C69.643 72.1863 72.7791 69.052 76.6339 69.052Z" fill="#D79922"/>
<path d="M70.9746 90.2778H61.2321L61.2362 86.5633H70.9704L70.9746 90.2778Z" fill="#2C81FF"/>
<path d="M70.9704 86.5633H66.1033V90.2778H70.9746L70.9704 86.5633Z" fill="#3E63F4"/>
<path d="M69.643 90.0125C69.643 84.7457 73.9304 80.4609 79.2002 80.4609C84.4632 80.4609 88.7575 84.7205 88.7575 90.0125C88.7575 95.2792 84.4701 99.5641 79.2002 99.5641C73.9304 99.5641 69.643 95.2792 69.643 90.0125Z" fill="#3E63F4"/>
<path d="M79.2002 96.9108C83.0123 96.9108 86.1026 93.8223 86.1026 90.0125C86.1026 86.2026 83.0123 83.1141 79.2002 83.1141C75.3881 83.1141 72.2978 86.2026 72.2978 90.0125C72.2978 93.8223 75.3881 96.9108 79.2002 96.9108Z" fill="#D9D9D9"/>
</svg>
