<svg width="102" height="102" viewBox="0 0 102 102" fill="none" xmlns="http://www.w3.org/2000/svg">
<circle cx="51" cy="51" r="51" fill="#89CAF7"/>
<mask id="mask0" mask-type="alpha" maskUnits="userSpaceOnUse" x="0" y="0" width="102" height="102">
<circle cx="51" cy="51" r="51" fill="#FBFAF8"/>
</mask>
<g mask="url(#mask0)">
<path d="M109.82 53.0264C111.839 44.5497 106.015 39.3898 102.851 37.8695C95.8263 34.571 89.6049 32.9093 87.3723 32.4907C70.9473 30.046 54.1263 33.5809 47.7689 35.6538C22.333 42.4526 15.8565 58.3173 15.7977 65.3998C15.5752 92.2159 30.9642 104.365 48.5273 104.415C76.3095 104.494 103.646 74.4184 109.82 53.0264Z" fill="#4AA0EF"/>
<path fill-rule="evenodd" clip-rule="evenodd" d="M101.544 52.0768L97.1971 66.3739L94.1392 63.1044L72.3448 83.4879L42.9188 80.7006L21.1727 89.6152L18.8453 84.0894L41.9772 74.591L70.2214 77.2637L90.0442 58.7262L86.9867 55.4572L101.544 52.0768Z" fill="white" fill-opacity="0.2"/>
<path d="M68.1286 37.9226H81.8323C85.5012 37.9226 88.4993 40.9207 88.4993 44.5896V50.7022C88.4993 54.3711 85.5012 57.3692 81.8323 57.3692H68.1286C67.5605 57.3692 67.0129 57.287 66.4927 57.157L61.4616 62.188V50.7022V50.2367V44.5896C61.4616 40.9207 64.4597 37.9226 68.1286 37.9226Z" fill="#184F78"/>
<path d="M67.9748 36.538H81.6785C85.3474 36.538 88.3455 39.5361 88.3455 43.205V49.3175C88.3455 52.9864 85.3474 55.9845 81.6785 55.9845H67.9748C67.4067 55.9845 66.8591 55.9024 66.3389 55.7723L61.3078 60.8034V49.3175V48.8521V43.205C61.3078 39.5361 64.3059 36.538 67.9748 36.538Z" fill="#D2EBFF"/>
<g style="mix-blend-mode:multiply" opacity="0.5">
<ellipse cx="52.2308" cy="94.23" rx="21.3846" ry="3.69231" fill="#C4C4C4"/>
</g>
<path d="M67.8314 88.9852L67.7817 94.5746L66.5242 94.5774L65.6637 88.9897L67.8314 88.9852Z" fill="#F9B099"/>
<path d="M66.2009 95.5975L71.9221 95.5892C71.844 94.9007 71.3077 94.7484 71.3077 94.7484L69.6061 94.2354L68.0688 93.3204L67.4894 93.6005C67.4894 93.6005 67.3725 93.5796 67.4899 93.8642C67.4899 93.8642 66.7661 94.0157 66.4211 93.8642L66.2014 95.6631" fill="#007499"/>
<path d="M66.2016 95.871L71.9225 95.863L71.922 95.5891L66.2008 95.5973L66.2016 95.871Z" fill="#1C4A6C"/>
<path d="M70.0954 94.383C70.001 94.3737 69.9319 94.4481 69.8772 94.5165C69.8063 94.6054 69.7629 94.721 69.7444 94.8326C69.7599 94.8251 69.7754 94.8174 69.7908 94.8099C69.7794 94.8101 69.7679 94.8109 69.7564 94.8121C69.7746 94.8189 69.7931 94.8259 69.8113 94.8326C69.8081 94.8189 69.7998 94.8131 69.7893 94.8031C69.7799 94.7944 69.7549 94.7941 69.7457 94.8031C69.7359 94.8126 69.7272 94.8189 69.7244 94.8326C69.7217 94.8458 69.7484 94.8523 69.7564 94.8531C69.7679 94.8543 69.7794 94.8551 69.7908 94.8551C69.8068 94.8551 69.8335 94.8516 69.8373 94.8323C69.8535 94.7475 69.8792 94.6678 69.9204 94.5917C69.9564 94.5253 70.0248 94.4267 70.1017 94.406C70.1226 94.4005 70.1121 94.3847 70.0954 94.383Z" fill="white"/>
<path d="M69.4862 94.1861C69.4498 94.2702 69.3869 94.3396 69.335 94.4143C69.29 94.4789 69.2184 94.5671 69.2229 94.6497C69.2244 94.6776 69.289 94.6734 69.3003 94.6549C69.3217 94.62 69.333 94.5783 69.3507 94.5408C69.3697 94.5006 69.3944 94.463 69.4186 94.4255C69.4655 94.3524 69.5165 94.2775 69.5417 94.1936C69.5482 94.1719 69.4935 94.1694 69.4862 94.1861Z" fill="white"/>
<path d="M69.0776 93.9776C68.9316 94.1152 68.8225 94.2697 68.7745 94.467C68.8077 94.4647 68.8407 94.4625 68.8739 94.4605C68.8662 94.443 68.8587 94.433 68.8462 94.4185C68.8367 94.4076 68.8135 94.4076 68.804 94.4185C68.7915 94.433 68.784 94.4433 68.7763 94.4605C68.7611 94.4944 68.8647 94.5069 68.8756 94.467C68.9228 94.2945 69.0017 94.1244 69.122 93.9904C69.1383 93.9724 69.0888 93.9672 69.0776 93.9776Z" fill="white"/>
<path d="M68.6058 93.7014C68.5654 93.7546 68.5424 93.8207 68.5097 93.8786C68.4825 93.9271 68.453 93.9743 68.4211 94.0197C68.3814 94.0764 68.3037 94.1368 68.3035 94.2077C68.3035 94.2224 68.3342 94.2189 68.3417 94.2154C68.459 94.163 68.5446 94.0177 68.5963 93.9026C68.6243 93.8404 68.6365 93.7703 68.6675 93.7099C68.6792 93.6872 68.617 93.6864 68.6058 93.7014Z" fill="white"/>
<path d="M63.1703 73.2541C63.2075 72.745 63.6948 72.4607 63.7662 72.394C64.0777 72.0992 64.1397 72.1152 64.259 71.9891C64.4909 71.7449 64.3788 71.7801 64.6222 71.543C65.2666 70.9154 65.9346 69.2157 65.5192 69.4983C64.3396 70.3007 63.708 70.4837 63.5183 70.608C63.5183 70.608 63.7892 69.7685 63.4684 69.8588C63.4684 69.8588 63.3018 69.8434 63.0447 70.5396C62.9471 70.8033 62.7778 70.9418 62.6398 71.3273C62.6398 71.3273 62.0811 72.2532 62.3689 73.3022C62.3692 73.3025 62.7741 73.5691 63.1703 73.2541Z" fill="#F9B099"/>
<path d="M64.1096 84.0446C63.129 85.1398 61.9716 84.6907 60.9987 83.4547C58.7059 80.5433 58.2978 78.253 58.3762 77.0474C58.3003 76.8063 59.0792 74.8942 60.6754 76.3929C60.6754 76.3929 61.2177 75.9879 62.8474 80.2554C62.8474 80.2554 63.2545 81.1669 63.7716 80.8144C63.7716 80.8144 65.4979 82.4945 64.1096 84.0446Z" fill="#F9B099"/>
<path d="M59.2434 81.7713C59.2434 81.7713 62.4277 81.273 63.1799 78.9753L60.9802 73.6677C60.9802 73.6677 60.3564 71.5207 58.494 72.7113C58.494 72.7113 56.1166 74.3113 57.4839 76.8205L59.2434 81.7713Z" fill="#F60A7C"/>
<path d="M64.5651 83.4343C65.0661 77.9645 63.8176 76.2569 63.1188 73.2544C63.1188 73.2544 62.652 72.8939 62.3599 73.1485C61.6199 76.6498 62.1083 81.3098 62.1083 81.3098C62.1083 81.3098 62.2498 84.1825 64.5651 83.4343Z" fill="#F9B099"/>
<path d="M58.8145 95.5273C59.8975 95.4771 60.9348 95.0477 61.6201 94.2146C63.0054 92.53 62.9826 90.054 62.8875 87.9467C62.7762 85.4759 61.1867 81.6341 58.1142 83.8078C56.6123 84.8703 56.14 86.8774 55.6579 88.5471C55.2762 89.8707 54.8036 91.6447 54.8091 93.0281C54.8134 94.0803 54.9804 94.7267 55.9583 95.1431C56.8715 95.5325 57.8326 95.5725 58.8145 95.5273Z" fill="#223E66"/>
<path d="M63.2271 88.9852L63.1772 94.5746L61.9197 94.5774L61.0594 88.9897L63.2271 88.9852Z" fill="#F9B099"/>
<path d="M61.5966 95.5975L67.3178 95.5892C67.2396 94.9007 66.7034 94.7484 66.7034 94.7484L65.0015 94.2356L63.4639 93.3207L62.8845 93.6008C62.8845 93.6008 62.7677 93.5798 62.8848 93.8644C62.8848 93.8644 62.1613 94.016 61.8163 93.8644L61.5963 95.6634" fill="#0080A3"/>
<path d="M61.5974 95.871L67.3181 95.863L67.3176 95.5891L61.5967 95.5973L61.5974 95.871Z" fill="#215176"/>
<path d="M65.4912 94.383C65.3968 94.3737 65.3276 94.4481 65.273 94.5165C65.2021 94.6054 65.1584 94.721 65.1402 94.8326C65.1556 94.8251 65.1711 94.8174 65.1866 94.8099C65.1751 94.8101 65.1636 94.8109 65.1524 94.8121C65.1706 94.8189 65.1891 94.8259 65.2073 94.8326C65.2041 94.8189 65.1958 94.8131 65.1853 94.8031C65.1761 94.7944 65.1509 94.7941 65.1417 94.8031C65.1319 94.8126 65.1232 94.8189 65.1204 94.8326C65.1177 94.8458 65.1444 94.8523 65.1524 94.8531C65.1639 94.8543 65.1754 94.8551 65.1866 94.8551C65.2026 94.8551 65.2293 94.8516 65.233 94.8323C65.2493 94.7475 65.2752 94.6678 65.3162 94.5917C65.3521 94.5253 65.4205 94.4267 65.4974 94.406C65.5184 94.4005 65.5076 94.3847 65.4912 94.383Z" fill="white"/>
<path d="M64.882 94.1861C64.8455 94.2702 64.7826 94.3396 64.7305 94.4143C64.6855 94.4787 64.6139 94.5673 64.6184 94.6497C64.6199 94.6776 64.6845 94.6731 64.6958 94.6549C64.7172 94.62 64.7285 94.5783 64.7462 94.5408C64.7652 94.5006 64.7899 94.4629 64.8138 94.4255C64.8608 94.3524 64.912 94.2775 64.9372 94.1936C64.9439 94.1719 64.8892 94.1694 64.882 94.1861Z" fill="white"/>
<path d="M64.4731 93.9776C64.3271 94.1152 64.218 94.2697 64.1703 94.467C64.2035 94.4647 64.2367 94.4625 64.2696 94.4605C64.2619 94.443 64.2544 94.433 64.2419 94.4185C64.2325 94.4076 64.2092 94.4076 64.1997 94.4185C64.1873 94.433 64.1798 94.4433 64.172 94.4605C64.1568 94.4944 64.2607 94.5069 64.2714 94.467C64.3186 94.2945 64.3975 94.1244 64.5176 93.9904C64.5338 93.9724 64.4841 93.9672 64.4731 93.9776Z" fill="white"/>
<path d="M63.9588 93.6364C63.8977 93.718 63.8485 93.8089 63.7913 93.8935C63.7441 93.9636 63.7104 94.0378 63.7079 94.1232C63.7167 94.1157 63.7254 94.1082 63.7341 94.1009C63.7092 94.1099 63.6989 94.1222 63.69 94.1469C63.6855 94.1596 63.6825 94.1728 63.6792 94.1861C63.677 94.1958 63.7019 94.2153 63.6997 94.22C63.7149 94.22 63.7301 94.22 63.7454 94.22C63.7449 94.219 63.7444 94.2183 63.7439 94.2173C63.7379 94.207 63.7057 94.2045 63.7007 94.2173C63.7004 94.2183 63.6999 94.219 63.6997 94.22C63.6927 94.238 63.7314 94.2345 63.7394 94.2312C63.7481 94.2278 63.7616 94.2135 63.7683 94.2073C63.7821 94.1943 63.7833 94.1893 63.7883 94.1711C63.7918 94.1589 63.8088 94.1379 63.7876 94.1456C63.7978 94.1419 63.8133 94.1366 63.8138 94.1234C63.8168 94.0373 63.853 93.9644 63.8982 93.893C63.9483 93.8141 63.9778 93.727 64.021 93.6448C64.0325 93.6224 63.9701 93.6211 63.9588 93.6364Z" fill="white"/>
<path d="M62.546 82.4211C63.4388 86.4377 64.5327 92.7061 65.2714 92.7016C67.6104 92.6866 68.6821 91.6815 68.6821 91.6815L66.7059 82.0546C66.7059 82.0546 65.4362 78.4342 62.546 82.4211Z" fill="#223E66"/>
<path d="M68.0449 90.2631C68.0449 90.2631 67.0238 74.7899 63.1358 74.5954C61.2232 74.4998 60.3624 78.07 60.3624 78.07L59.09 86.4145L57.6712 83.7955C57.6712 83.7955 54.2865 83.9378 49.8929 83.8234C48.1668 86.463 48.0495 88.4839 48.3743 91.1681C48.4774 92.0204 49.2086 93.1271 49.7493 93.7497C50.7529 94.9051 52.3859 95.6805 53.891 95.8668C55.865 96.1109 56.8758 95.4131 58.1628 94.0403C58.1628 94.0403 59.4053 86.8095 60.1392 86.3259C61.5785 85.3787 64.3718 91.0757 68.0449 90.2631Z" fill="#223E66"/>
<path d="M50.9894 85.5805C50.9157 85.7668 50.9115 85.9899 50.894 86.1882C50.8735 86.4211 50.8423 86.653 50.8014 86.8832C50.7165 87.3603 50.5755 87.8166 50.3765 88.258C50.194 88.6634 49.9376 89.0354 49.5856 89.311C49.4118 89.4471 49.2231 89.5564 49.0136 89.6278C48.9565 89.6473 48.8981 89.6633 48.8394 89.678C48.782 89.6925 48.7293 89.7287 48.6761 89.7352C48.609 89.7434 48.3905 89.7482 48.4082 89.8692C48.416 89.9227 48.4919 89.9277 48.5331 89.9304C48.617 89.9359 48.6834 89.9107 48.751 89.863C48.6884 89.8755 48.6257 89.888 48.563 89.9004C48.7211 89.9152 48.8966 89.9132 49.0286 89.8143C48.9924 89.828 48.956 89.8418 48.9198 89.8553C49.3686 89.7699 49.7893 89.5839 50.1273 89.2723C50.4496 88.9752 50.6965 88.586 50.8578 88.1804C51.0263 87.7565 51.1259 87.3051 51.1873 86.854C51.2173 86.6333 51.236 86.4108 51.247 86.1884C51.2567 85.9919 51.2652 85.766 51.1923 85.5808C51.1706 85.5263 51.0108 85.5263 50.9894 85.5805Z" fill="#002B50"/>
<path d="M58.7168 71.9847L56.6252 69.9476L59.0583 67.4498L61.1501 69.4867C61.1499 69.4867 59.0099 71.2375 58.7168 71.9847Z" fill="#F9B099"/>
<path d="M59.206 71.3239C59.9204 70.5984 61.15 69.4867 61.15 69.4867L59.0582 67.4498L58.3277 68.1995C58.3122 69.2728 58.4907 70.4606 59.206 71.3239Z" fill="#F6917A"/>
<path d="M63.6714 70.1355C62.7269 70.676 60.9791 71.4649 60.0035 71.1541C58.8207 70.7766 58.78 67.9309 59.1522 66.8574C59.6178 65.514 61.2697 64.466 62.5754 64.0159C64.0638 63.5031 65.6743 64.3177 66.1109 65.8762C66.5473 67.4333 64.9096 69.4263 63.6714 70.1355Z" fill="#F8A48D"/>
<path d="M62.6567 64.0201C62.9418 63.9295 63.2304 63.8873 63.5133 63.8888L60.7082 66.0965L59.5494 66.7962L59.1212 66.9151C59.1354 66.8674 59.1507 66.8212 59.1664 66.779C59.6637 65.4474 61.3406 64.4393 62.6567 64.0201Z" fill="#F6917A"/>
<path d="M60.7542 64.4844C60.1543 64.3945 59.305 65.3522 59.4878 66.2896C59.8058 66.3196 60.3146 65.9339 60.5832 65.7673C60.8476 65.6041 61.0915 65.4358 61.1896 65.1275C61.2193 65.0326 61.1964 64.5515 60.7542 64.4844Z" fill="#F8A48D"/>
<path d="M60.4051 65.4963C60.3741 65.5183 60.2808 65.6074 60.255 65.6014C60.2178 65.5927 60.1876 65.5725 60.1844 65.5325C60.1786 65.4649 60.2488 65.3915 60.29 65.3465C60.3457 65.2859 60.4091 65.2319 60.4732 65.1803C60.5022 65.1568 60.5411 65.1194 60.5504 65.0819C60.5559 65.0594 60.4994 65.0624 60.4905 65.0649C60.3229 65.1106 60.1439 65.2956 60.0683 65.4469C60.0299 65.524 60.0533 65.5912 60.1275 65.6314C60.2823 65.7153 60.3714 65.6172 60.4825 65.5185C60.5137 65.4906 60.4248 65.4823 60.4051 65.4963Z" fill="#F6917A"/>
<path d="M60.6363 65.2258C60.6887 65.1384 60.658 65.0201 60.5806 64.9584C60.509 64.9015 60.3956 64.9033 60.3115 64.9205C60.0753 64.9692 59.8497 65.2358 59.8769 65.4817C59.8794 65.5049 59.9345 65.5037 59.9438 65.4862C60.0159 65.3476 60.0624 65.1953 60.1792 65.0858C60.2441 65.0248 60.3407 64.9649 60.4328 64.9727C60.5304 64.9809 60.5936 65.1344 60.5649 65.2161C60.5552 65.2443 60.6248 65.2453 60.6363 65.2258Z" fill="#F6917A"/>
<path d="M65.0897 64.0228C65.0719 64.1539 65.0113 64.2822 64.9434 64.3821C64.8278 64.6817 64.2259 65.7165 64.144 65.8915C63.9225 66.366 63.4415 66.251 63.0338 66.1374C62.9052 66.1017 62.7767 66.064 62.6473 66.0285C62.2584 65.9227 61.8644 65.8405 61.4585 65.9052C61.1906 65.9481 60.5485 66.238 60.3406 65.9359C60.6456 65.7322 61.2228 65.2399 61.0329 64.7229C61.0199 64.6517 60.8868 64.4632 60.4362 64.5044C60.4362 64.5044 62.9646 61.7722 65.0897 64.0228Z" fill="#3D3202"/>
<path d="M64.0359 66.0717L65.0523 64.0131C65.8162 64.0907 66.5339 65.5629 66.5344 65.5629C66.7826 66.0719 67.1289 67.9028 65.8858 69.2417C65.8858 69.2417 64.0629 71.6319 62.0195 70.9286C63.5337 70.3314 64.4409 69.8049 65.0201 68.7244C64.6945 68.4448 64.2796 67.5401 64.2427 67.1761C64.202 66.7767 64.0814 66.2906 64.1258 65.8907" fill="#3D3202"/>
<path d="M60.2633 72.5681C59.8809 75.1502 60.12 75.6762 60.0721 77.4932C60.0451 78.512 58.536 78.3784 58.1116 79.3101C57.7144 80.1814 57.499 80.9678 57.2703 81.8765C57.0518 82.7438 57.0526 83.0641 56.1334 83.3924C55.2549 83.7059 54.9089 84.0837 53.9921 84.1623C53.0505 84.2434 51.79 84.1718 50.8418 84.0934C49.3432 83.9698 49.2463 82.7655 49.1859 81.6251C49.0017 78.1468 48.9387 74.5201 51.1701 71.5989C51.9093 70.6311 52.9434 69.8504 54.0995 69.458C54.9573 69.1666 56.2852 69.0742 57.1552 69.3643C57.2987 69.4123 58.1116 71.7073 59.3549 71.1813L60.2633 72.5681Z" fill="#F70A7C"/>
<path d="M64.4586 92.6061C64.4586 92.6061 62.9442 93.7855 61.0159 93.2277L59.3902 87.6333L55.4213 93.7537C55.4213 93.7537 50.9266 93.6581 50.7354 88.781L56.2821 77.3051C56.2821 77.3051 57.8441 74.4681 59.8203 74.723C59.8203 74.723 62.3705 74.9142 62.7849 79.0904C62.7849 79.0901 64.1398 87.378 64.4586 92.6061Z" fill="#223E66"/>
<path d="M58.3557 83.2847C58.6827 83.8347 58.7709 84.481 58.8817 85.0996C59.0218 85.8823 59.2082 86.6582 59.3755 87.4354C59.6963 88.9263 60.0131 90.4094 60.6078 91.8209C60.7506 92.16 60.9316 92.4705 61.126 92.7821C61.138 92.8013 61.2092 92.7991 61.1974 92.7724C61.0497 92.4368 60.9208 92.0923 60.7803 91.7535C60.636 91.4055 60.5084 91.0508 60.3916 90.6928C60.1539 89.9653 59.9699 89.2211 59.8094 88.4731C59.6371 87.6718 59.4639 86.8704 59.2901 86.0693C59.1461 85.4052 59.042 84.7264 58.844 84.0753C58.7571 83.79 58.6455 83.5126 58.4723 83.2685C58.4501 83.238 58.333 83.2465 58.3557 83.2847Z" fill="#002B50"/>
<path d="M57.9585 84.3132C58.1842 84.3564 58.4176 84.484 58.5894 84.6337C58.6805 84.7131 58.7494 84.8112 58.7983 84.9211C58.8278 84.9872 58.83 85.0377 58.9089 85.0604C58.9661 85.0769 59.023 85.0809 59.0794 85.0604C59.1029 85.0519 59.1723 85.0282 59.1631 84.989C59.0452 84.4917 58.4463 84.2326 57.9825 84.2271C57.8986 84.2261 57.8589 84.2942 57.9585 84.3132Z" fill="#002B50"/>
<path d="M59.256 86.9639C59.2825 87.1117 59.227 87.257 59.1724 87.392C59.1127 87.5398 59.062 87.6841 59.0241 87.8391C58.9332 88.2106 58.8788 88.5893 58.8099 88.9653C58.732 89.3902 58.6226 89.8094 58.5348 90.2323C58.3283 91.2254 58.157 92.225 57.8607 93.1971C57.7646 93.5129 57.654 93.8247 57.5187 94.1261C57.4141 94.3592 57.2795 94.5744 57.141 94.7884C57.0836 94.8768 57.3419 94.8755 57.3864 94.8391C57.6892 94.5912 57.852 94.1797 57.9888 93.8235C58.17 93.3514 58.3028 92.8608 58.4229 92.3703C58.6431 91.4695 58.7924 90.5558 58.9764 89.6476C59.065 89.2105 59.1339 88.7723 59.1988 88.3309C59.2365 88.0738 59.2562 87.8077 59.3306 87.558C59.3868 87.3693 59.4355 87.1476 59.3633 86.9569C59.3521 86.9277 59.25 86.9302 59.256 86.9639Z" fill="#002B50"/>
<path d="M61.3285 75.5229C62.2542 76.4134 62.4452 77.7593 62.7173 78.9526C62.8457 79.5151 62.9193 80.0928 63.0049 80.6627C63.2988 82.6197 63.5966 84.5772 63.8527 86.5394C63.9164 87.0263 63.9813 87.5128 64.0417 87.9999C64.0887 88.3776 64.1346 88.7413 64.2407 89.1078C64.2487 89.1353 64.3278 89.1308 64.3323 89.1018C64.3852 88.7611 64.3665 88.4365 64.3356 88.0945C64.2961 87.6609 64.2519 87.2277 64.1988 86.7956C64.0742 85.7833 63.9351 84.7727 63.7891 83.7631C63.6498 82.8002 63.4925 81.8405 63.3148 80.8839C63.2002 80.267 63.0891 79.6464 62.9355 79.0377C62.7857 78.4446 62.619 77.8581 62.4155 77.2815C62.1856 76.6304 61.8823 75.9875 61.369 75.5109C61.3585 75.5017 61.3133 75.5084 61.3285 75.5229Z" fill="#002B50"/>
<path d="M55.2583 84.3626C60.4153 84.7838 64.6072 82.154 64.9897 82.2496C64.7687 82.4855 65.2286 81.5323 64.7984 81.1019C60.4473 82.154 57.0523 81.7715 57.0523 81.7715C57.0523 81.7715 55.0951 81.9345 55.2583 84.3626Z" fill="#F9B099"/>
<path d="M56.8012 84.1442C55.5639 84.9376 54.5683 84.1961 53.9604 82.7452C52.528 79.3275 52.7454 77.0115 53.1428 75.8706C53.1339 75.6179 54.3946 73.983 55.5332 75.8534C55.5332 75.8534 56.3414 76.4358 56.7727 80.9834C56.7727 80.9834 56.7248 81.7006 57.8725 82.2267C57.8725 82.2267 58.5527 83.0205 56.8012 84.1442Z" fill="#F9B099"/>
<path d="M52.0872 80.6965C52.0872 80.6965 55.7213 80.7921 57.1078 78.4491L56.3477 73.177C56.3477 73.177 55.9527 71.1 53.7433 71.1796C53.7433 71.1796 51.3704 71.5289 51.274 74.3848L52.0872 80.6965Z" fill="#F70A7C"/>
<path d="M52.445 71.7364C52.2273 71.8769 52.0658 72.0896 51.917 72.2978C51.7517 72.529 51.6012 72.7767 51.4889 73.038C51.4357 73.1619 51.3753 73.2845 51.3376 73.4143C51.3101 73.5091 51.2934 73.6065 51.2796 73.7039C51.2594 73.8492 51.2142 74.0381 51.2692 74.1767C51.2826 74.2109 51.376 74.2079 51.3912 74.1767C51.4542 74.0481 51.4329 73.8756 51.4464 73.7343C51.4559 73.6365 51.4701 73.5388 51.4928 73.443C51.5243 73.3097 51.5872 73.1851 51.6366 73.058C51.73 72.8176 51.8641 72.5904 52.0036 72.3745C52.1462 72.154 52.309 71.9259 52.5107 71.7551C52.5379 71.7321 52.4615 71.7259 52.445 71.7364Z" fill="#955373"/>
<path d="M56.35 73.3079C56.5227 74.28 56.6505 75.2654 56.7756 76.2447C56.8258 76.6384 56.8655 77.0344 56.9074 77.4291C56.9279 77.6215 56.9456 77.8143 56.9596 78.0072C56.9721 78.1798 56.9628 78.3578 56.9831 78.529C56.9931 78.6136 57.2165 78.5879 57.2005 78.529C57.1888 78.4861 57.1775 78.4624 57.1518 78.4252C57.1299 78.3932 57.0537 78.3932 57.0317 78.4252C57.006 78.4624 56.9948 78.4861 56.9831 78.529C57.0555 78.529 57.1281 78.529 57.2005 78.529C57.218 78.3712 57.191 78.199 57.178 78.0414C57.1613 77.837 57.1381 77.6328 57.1136 77.4291C57.0655 77.0321 56.999 76.6392 56.9346 76.2447C56.7749 75.2656 56.6792 74.2742 56.4478 73.3079C56.4393 73.2742 56.3445 73.2772 56.35 73.3079Z" fill="#955373"/>
<path d="M51.2749 74.5285C51.3408 74.9751 51.3703 75.4312 51.415 75.8806C51.4702 76.4358 51.5248 76.9915 51.5937 77.5452C51.6229 77.7791 51.6584 78.0128 51.7028 78.2442C51.7315 78.3945 51.7755 78.5411 51.7942 78.6931C51.8416 79.0756 51.8604 79.4605 51.9225 79.8412C51.962 80.0824 52.0096 80.3543 52.1492 80.5605C52.2628 80.728 52.5229 80.8084 52.6922 80.6718C52.7601 80.6171 52.5906 80.6042 52.5656 80.6099C52.5409 80.6154 52.5152 80.6181 52.4995 80.6181C52.5244 80.6181 52.5099 80.6214 52.4935 80.6107C52.4395 80.575 52.4033 80.5248 52.3711 80.4699C52.2818 80.3166 52.2403 80.1351 52.2046 79.9633C52.1237 79.5736 52.0975 79.1752 52.0536 78.7802C52.0376 78.6364 52.0049 78.5016 51.9729 78.3608C51.9235 78.1421 51.8883 77.9199 51.8554 77.6982C51.7735 77.1488 51.7063 76.5975 51.6374 76.0466C51.5735 75.5335 51.5106 75.0203 51.3658 74.5227C51.3591 74.4965 51.2707 74.4995 51.2749 74.5285Z" fill="#955373"/>
<path d="M64.3916 81.809C64.5246 81.0992 64.7718 80.9172 66.6005 79.3792C66.915 79.8358 66.6676 80.017 66.1556 80.5373C66.1593 80.5338 66.3099 80.347 66.3236 80.3338C66.5463 80.1388 66.6554 79.9591 66.8112 79.9494C67.0705 79.9344 67.2518 80.22 67.49 80.7055C67.5284 80.7852 67.4473 81.0808 67.4967 81.1639C67.5454 81.2465 67.4615 81.5057 67.4852 81.6105C67.5274 81.7935 67.3948 81.7858 67.3174 81.9446C67.2795 82.0209 67.2643 82.1208 67.2138 82.1877C66.8868 82.6253 66.2332 82.5517 65.7541 82.5629C65.3784 82.5719 64.8222 82.5887 64.5224 82.31C64.3898 82.1872 64.3591 81.982 64.3916 81.809Z" fill="#F9B099"/>
<path d="M62.3761 65.781C62.0116 65.9431 61.758 66.0571 61.4916 66.3547C61.0749 66.8193 60.8233 67.4527 60.4016 67.9006C60.1 68.2214 59.7116 68.3155 59.391 68.5861C59.0747 68.8527 58.8376 69.2377 58.6461 69.5989C58.3046 70.2438 58.0577 71.0299 57.8714 71.7C57.6872 72.3638 57.4682 73.3234 56.7927 73.6497C56.4579 73.811 55.9958 73.8569 55.6213 73.79C55.0574 73.6887 55.1765 73.5194 55.0646 73.0199C54.9922 72.6971 54.8319 72.3141 54.5059 72.1141C54.1152 71.8742 53.9062 72.1156 53.577 71.7214C53.335 71.4323 52.5519 70.4143 52.5689 70.1062C52.6173 69.215 53.3732 68.7646 53.9477 68.443C54.7423 67.9984 55.9416 67.6786 56.5291 66.9941C56.9123 66.5472 57.4046 66.2079 57.7788 65.7526C58.1593 65.2897 58.4062 64.7335 58.7901 64.2729C59.4427 63.491 60.5032 63.0426 61.4933 62.9016C62.4433 62.7663 63.5931 62.8519 64.3918 63.4353C64.762 63.7057 64.9749 64.2292 64.7098 64.6688C64.4509 65.0982 62.3761 65.781 62.3761 65.781Z" fill="#3D3202"/>
<path d="M52.4253 36.9059C52.4253 36.9059 52.5177 35.4127 52.5068 34.766C52.4958 34.1193 50.8986 32.264 50.3559 32.264C49.8132 32.264 49.9939 33.9735 50.0849 34.5053C50.1752 35.037 49.9042 35.5195 50.2053 35.941C50.5064 36.3633 51.0998 37.257 51.0998 37.257L52.4253 36.9059Z" fill="#9D5F34"/>
<path d="M42.8952 39.3675L45.4587 41.8249C46.063 41.3206 46.5414 40.743 46.9226 40.1784C46.9821 40.0901 47.0396 40.0025 47.0943 39.9156C47.4365 39.3675 47.6883 38.8522 47.869 38.4546C47.8984 38.3902 47.9265 38.3293 47.9518 38.2711C48.0935 37.9618 46.5284 36.9716 45.6449 36.344C45.3705 36.1408 45.1583 35.982 45.0878 35.8842C45.0878 35.8842 45.1487 36.2989 45.0906 36.5815C44.9544 37.2446 44.6629 37.6504 44.3179 38.0289C43.4221 39.0116 42.8952 39.3675 42.8952 39.3675Z" fill="#BA7C51"/>
<path d="M44.8346 36.6411C44.8346 36.6411 45.3431 39.3422 46.9226 40.1792C46.9821 40.0909 47.0396 40.0033 47.0944 39.9164C47.4365 39.3682 47.6884 38.8529 47.869 38.4553C47.6767 38.0557 46.3594 37.2146 45.5765 36.6596C45.1351 36.65 44.8346 36.6411 44.8346 36.6411Z" fill="#9D5F34"/>
<path d="M45.5998 41.3425C46.9062 41.2652 49.2822 42.4512 51.4256 43.8452L50.9322 37.1222C51.3619 36.3783 52.5664 36.65 52.5664 36.65C52.5664 36.65 53.2781 37.2748 54.6174 41.0989C55.8547 44.6315 55.9231 47.8246 55.9231 47.8246C55.8745 49.5978 54.4333 49.6949 54.4333 49.6949C49.8338 48.9175 42.265 45.53 42.265 45.53C41.3076 44.3427 42.8289 41.5075 45.5998 41.3425Z" fill="#70BD00"/>
<path d="M44.0134 95.132C44.0476 95.5105 44.1304 95.8307 44.3008 95.9115C44.3303 95.9252 44.3795 95.9382 44.4459 95.9491H50.2074C50.3614 95.9443 50.449 95.9416 50.449 95.9416C50.449 95.9416 50.4346 95.2299 49.4546 95.0917C48.6628 94.9808 47.3831 94.6037 46.7542 93.7832C46.6057 93.5888 46.4928 93.3698 46.4319 93.1228C46.115 91.8362 44.0401 93.569 44.0401 93.569C44.0401 93.569 44.0168 93.7934 44.0024 94.1041C43.9881 94.4066 43.9812 94.7933 44.0134 95.132Z" fill="#233862"/>
<path d="M38.6113 95.9491H45.0146C44.9435 95.7848 44.6821 95.3031 44.0141 95.132C43.9498 95.1142 43.8814 95.1012 43.8095 95.0909C43.119 94.9937 42.0576 94.6947 41.3801 94.076C41.0961 93.8173 40.8798 93.5019 40.7861 93.1221C40.4692 91.8355 38.3943 93.5683 38.3943 93.5683C38.3943 93.5683 38.3724 93.7735 38.3567 94.0658C38.3224 94.6974 38.3142 95.7328 38.6113 95.9491Z" fill="#233862"/>
<path d="M41.33 61.0906C41.33 61.0906 41.3348 61.3233 41.3444 61.7407C41.4026 64.435 41.6325 74.8534 41.8515 80.6621C41.8604 80.8736 41.8686 81.0782 41.8762 81.2767C41.8803 81.3814 41.8844 81.4875 41.8885 81.5915C42.0192 84.3994 42.4004 87.149 42.7857 89.3478C43.2763 92.1523 43.7745 94.0623 43.7745 94.0623C45.6455 94.4414 46.8575 93.7297 46.8575 93.7297C46.8575 93.7297 47.3619 89.3773 47.5535 86.7432C47.6164 85.8885 47.9244 82.9718 48.311 79.4242C48.6108 76.6806 48.9571 73.5593 49.2753 70.72C49.2924 70.5687 49.3081 70.4175 49.3259 70.2683C49.8392 65.6784 50.2642 61.9405 50.2642 61.9405L46.956 61.6257L41.33 61.0906Z" fill="#073A93"/>
<path d="M42.785 89.3485L48.311 79.4248C48.6108 76.6812 48.9571 73.5599 49.2753 70.7206C49.2924 70.5694 49.3081 70.4181 49.3259 70.2689C49.8392 65.679 50.2642 61.9411 50.2642 61.9411L46.956 61.6263L41.3444 61.7413L42.785 89.3485Z" fill="#001972"/>
<path d="M49.6525 61.9659C49.6525 61.9659 46.5606 77.2508 44.0408 84.6273C41.5211 92.0039 41.4903 94.0535 41.4903 94.0535C41.4903 94.0535 39.1786 94.5544 38.1596 93.9727C38.1596 93.9727 37.5779 79.9882 39.1019 76.2742C40.11 73.8174 40.8819 68.5897 40.6191 66.7064C40.3563 64.8231 40.112 61.0469 40.112 61.0469L49.6525 61.9659Z" fill="#073A93"/>
<path d="M39.7322 60.6287C39.8983 61.5613 40.2946 62.3048 40.9067 62.7574C41.6052 63.2736 42.7059 63.46 43.9177 63.4408C45.3329 63.4169 46.8999 63.1118 48.1523 62.7206C48.8265 62.511 49.4079 62.2761 49.8278 62.0474C51.6995 61.0288 50.7326 58.8455 50.1355 55.4609C49.077 49.4609 48.2896 42.7223 47.7396 41.6013C46.7606 39.6057 42.6071 40.2618 42.6071 40.2618C41.6968 41.1337 40.8989 42.3994 40.3561 44.423C40.1363 45.2423 40.0075 46.3879 39.9336 47.6748C39.7086 51.6066 39.999 56.8499 39.7799 58.0747C39.6125 59.0134 39.5981 59.8818 39.7322 60.6287Z" fill="#95E200"/>
<path d="M43.2825 38.2513C43.2825 38.2513 42.5715 39.9348 42.7152 40.2339C42.7152 40.2339 46.6201 40.6021 48.2091 41.7347C48.2091 41.7347 47.6863 40.1004 47.0505 39.6939C46.4154 39.2881 43.2825 38.2513 43.2825 38.2513Z" fill="#70BD00"/>
<path d="M39.7062 60.6492C47.7937 57.571 43.1758 46.1897 43.1758 46.1897C42.0446 46.2698 40.9359 46.82 39.9176 47.6645C39.6822 51.6056 39.9861 56.8614 39.7568 58.0891C39.5809 59.0301 39.5659 59.9005 39.7062 60.6492Z" fill="#70BD00"/>
<path d="M42.4393 55.9984C42.4393 55.9984 42.8821 56.7656 43.3091 56.5849C43.7362 56.4042 44.5964 56.2133 45.2362 56.6253C45.8761 57.0372 46.8404 58.1493 46.2375 58.4203C45.6345 58.6913 44.489 57.9714 44.218 57.8509C43.947 57.7305 43.4748 57.9714 42.9519 57.71C42.4298 57.4485 41.8871 56.9264 41.8871 56.9264L42.4393 55.9984Z" fill="#BA7C51"/>
<path d="M33.4615 49.2009C36.4713 45.6368 43.4036 40.9922 43.4036 40.9922C44.9133 40.7718 46.5804 43.5235 45.3123 45.9927C44.5794 47.4202 41.443 49.1229 38.7405 50.1959L43.1354 56.2058C43.481 57.4835 41.506 57.1434 41.506 57.1434C41.506 57.1434 39.8628 56.6568 36.8839 54.2062C35.2818 52.8881 34.4052 51.4941 33.9412 50.5134C33.5518 49.9003 33.4615 49.2009 33.4615 49.2009Z" fill="#95E200"/>
<path d="M50.5502 35.5634C50.2043 35.9775 49.8286 36.4673 49.361 36.7766C48.8267 37.1303 48.262 36.9822 48.2021 36.3029C48.1461 35.6632 48.3818 34.973 48.6743 34.4306C48.8342 34.1342 49.0576 33.8126 49.4221 33.6949C49.9918 33.5112 50.564 33.8144 50.7758 34.3227C50.9746 34.7989 50.8546 35.1983 50.5502 35.5634Z" fill="#6F5600"/>
<path d="M49.8036 36.2054C49.5838 36.7678 49.312 37.3109 48.9795 37.8149C48.6417 38.3265 48.0872 39.3106 47.3765 39.3373C47.1572 39.3457 46.9993 39.2881 46.778 39.1999C45.9319 38.8624 45.2005 37.9862 44.862 37.1652C44.2309 35.6347 45.1844 32.7374 46.5782 31.9507C47.851 31.2322 50.654 32.7364 50.317 34.4369C50.201 35.024 50.0305 35.6238 49.8036 36.2054Z" fill="#BA7C51"/>
<path d="M45.316 34.3899C45.2877 34.3379 45.2887 34.2972 45.2877 34.2386C45.2864 34.1663 45.2518 34.0926 45.2202 34.0291C45.1917 33.9715 45.1508 33.9003 45.1088 33.852C45.0603 33.7965 45.0075 33.7924 44.9373 33.8035C44.9219 33.8056 44.9067 33.8056 44.8913 33.8035C44.8327 33.7957 44.9307 33.7965 44.8501 33.8058C44.7693 33.8152 44.7238 33.8935 44.6713 33.947C44.5543 34.066 44.4724 34.2191 44.3911 34.3626C44.3886 34.3669 44.3716 34.3669 44.3731 34.3614C44.4469 34.09 44.6743 33.7242 44.9722 33.7035C45.1323 33.6924 45.2483 33.7341 45.3435 33.8685C45.4517 34.0211 45.5032 34.2085 45.4466 34.3897C45.4345 34.4286 45.3327 34.4205 45.316 34.3899Z" fill="#BA7C51"/>
<path d="M45.894 34.0218C45.8083 34.1529 45.563 34.8009 45.4756 34.9126C45.3877 35.025 45.1651 34.7279 45.1651 34.7279C45.0325 34.4465 45.4539 34.0493 45.1239 33.8546C44.7662 33.6431 44.4605 34.1698 44.3655 34.4293C44.1728 34.019 44.2407 33.3879 44.3233 32.938C44.4764 32.1025 44.5699 31.8191 44.8147 31.5106C45.6719 30.4303 46.1062 30.6759 46.9306 31.0801C47.3065 31.2645 47.6117 31.8857 47.6283 32.3228C47.6458 32.7907 47.2577 33.016 46.8843 33.1904C46.4172 33.4081 46.2848 33.4228 45.894 34.0218Z" fill="#6F5600"/>
<path d="M44.7864 33.7522C44.2685 33.9688 44.0563 35.1327 44.6495 35.7857C44.9153 35.6574 45.133 35.1087 45.2662 34.8482C45.396 34.5925 45.5085 34.3424 45.4382 34.0519C45.4165 33.9627 45.1676 33.5933 44.7864 33.7522Z" fill="#BA7C51"/>
<path d="M45.0741 34.7167C45.0607 34.7642 45.0511 34.8933 44.9968 34.917C44.9488 34.938 44.9023 34.9514 44.8497 34.9532C44.7659 34.9559 44.7075 34.9069 44.6931 34.8266C44.6757 34.7298 44.7103 34.621 44.7363 34.5287C44.757 34.4562 44.7815 34.3792 44.8449 34.3324C44.8596 34.3218 44.9099 34.3137 44.9187 34.3372C44.9546 34.4327 44.8707 34.5709 44.8492 34.6634C44.8353 34.7235 44.8217 34.7945 44.8394 34.8554C44.875 34.9782 44.9728 34.7359 44.9867 34.7053C44.9985 34.6788 45.0837 34.6821 45.0741 34.7167Z" fill="#BA7C51"/>
<path d="M44.9801 34.4085C44.942 34.2609 44.7753 34.2746 44.7015 34.3781C44.6613 34.4345 44.6355 34.5047 44.6199 34.5712C44.5916 34.6922 44.6307 34.8228 44.6315 34.9448C44.6318 34.9706 44.5742 34.9632 44.5638 34.9494C44.419 34.7533 44.4655 34.4325 44.6517 34.2794C44.7811 34.1727 45.0521 34.2056 45.0549 34.4087C45.0554 34.4352 44.9865 34.4325 44.9801 34.4085Z" fill="#BA7C51"/>
<path d="M52.2915 33.6386C51.9593 34.3637 51.3469 34.8702 50.3808 34.6762C49.6654 34.5324 49.0229 34.0724 48.5522 33.5411C48.0475 32.9711 47.9563 32.738 47.5897 32.4734C47.2211 32.2072 46.6595 31.7865 46.396 31.3891C45.9518 30.7194 46.8394 30.4041 47.3012 30.1497C47.7168 29.9205 48.1566 29.8498 48.5495 30.1749C48.9373 30.4958 49.0252 30.9344 49.6141 30.9657C50.0522 30.9892 50.3424 30.6633 50.7176 30.4981C50.7701 30.8598 50.5223 31.3896 50.6956 31.6996C50.7037 31.7135 50.7125 31.7269 50.7224 31.74C50.7224 31.74 52.0955 32.6541 52.5199 31.5359C52.4977 31.5948 52.5662 31.7827 52.5742 31.8477C52.6068 32.1208 52.6018 32.3923 52.5641 32.6652C52.5171 33.0042 52.428 33.34 52.2915 33.6386Z" fill="#6F5600"/>
<path d="M32.7552 16.6918H19.0515C15.3826 16.6918 12.3845 19.6899 12.3845 23.3588V29.4713C12.3845 33.1402 15.3826 36.1383 19.0515 36.1383H32.7552C33.3233 36.1383 33.8709 36.0562 34.3911 35.9262L39.4222 40.9572V29.4713V29.0059V23.3588C39.4222 19.6899 36.4241 16.6918 32.7552 16.6918Z" fill="#184F78"/>
<path d="M33.0237 15.4611H19.3201C15.6512 15.4611 12.6531 18.4592 12.6531 22.1281V28.2406C12.6531 31.9095 15.6512 34.9076 19.3201 34.9076H33.0237C33.5919 34.9076 34.1395 34.8255 34.6597 34.6954L39.6907 39.7265V28.2406V27.7752V22.1281C39.6907 18.4592 36.6926 15.4611 33.0237 15.4611Z" fill="#D2EBFF"/>
<path d="M24.5453 27.9329C24.5564 27.2681 24.6316 26.7429 24.7707 26.3574C24.9098 25.9719 25.1936 25.5445 25.6221 25.0752L26.7155 23.9439C27.1829 23.4131 27.4166 22.8433 27.4166 22.2343C27.4166 21.6477 27.2636 21.1896 26.9575 20.8599C26.6515 20.5247 26.2063 20.3571 25.6221 20.3571C25.0545 20.3571 24.5982 20.508 24.2532 20.8097C23.9082 21.1114 23.7357 21.5164 23.7357 22.0248H22.1915C22.2027 21.1197 22.5226 20.3906 23.1514 19.8375C23.7858 19.2789 24.6093 18.9995 25.6221 18.9995C26.6737 18.9995 27.4917 19.2844 28.076 19.8543C28.6658 20.4186 28.9608 21.1952 28.9608 22.184C28.9608 23.1617 28.51 24.1255 27.6086 25.0752L26.6988 25.9803C26.2926 26.4329 26.0895 27.0837 26.0895 27.9329H24.5453ZM24.4785 30.5895C24.4785 30.3381 24.5537 30.1286 24.7039 29.961C24.8597 29.7878 25.0879 29.7012 25.3883 29.7012C25.6888 29.7012 25.917 29.7878 26.0728 29.961C26.2286 30.1286 26.3065 30.3381 26.3065 30.5895C26.3065 30.8409 26.2286 31.0504 26.0728 31.218C25.917 31.38 25.6888 31.461 25.3883 31.461C25.0879 31.461 24.8597 31.38 24.7039 31.218C24.5537 31.0504 24.4785 30.8409 24.4785 30.5895Z" fill="#D2EBFF"/>
<path d="M20.4399 26.6829V30.3215C20.4399 30.9827 20.9769 31.5196 21.6381 31.5196H30.7451C31.4063 31.5196 31.9433 30.9848 31.9433 30.3215V26.6829H20.4399Z" fill="#184F78"/>
<path d="M31.0778 21.5724H21.3032C20.6041 21.5724 20.0377 22.1388 20.0377 22.84V26.4449C20.0377 26.5776 20.1451 26.685 20.2778 26.685H32.1054C32.238 26.685 32.3454 26.5776 32.3454 26.4449V22.84C32.3433 22.1409 31.7769 21.5724 31.0778 21.5724Z" fill="#184F78"/>
<path opacity="0.2" d="M31.9412 26.6829H20.4399V27.1335H31.9412V26.6829Z" fill="black"/>
<path opacity="0.2" d="M21.9896 26.2806C21.9896 26.1479 22.097 26.0405 22.2297 26.0405H23.512C23.6447 26.0405 23.7521 26.1479 23.7521 26.2806V27.5629C23.7521 27.6956 23.6447 27.803 23.512 27.803H22.2297C22.097 27.803 21.9896 27.6956 21.9896 27.5629V26.2806Z" fill="black"/>
<path d="M21.9896 26.0427C21.9896 25.91 22.097 25.8026 22.2297 25.8026H23.512C23.6447 25.8026 23.7521 25.91 23.7521 26.0427V27.325C23.7521 27.4577 23.6447 27.5651 23.512 27.5651H22.2297C22.097 27.5651 21.9896 27.4577 21.9896 27.325V26.0427Z" fill="#FDC00F"/>
<path opacity="0.2" d="M28.629 26.2806C28.629 26.1479 28.7364 26.0405 28.8691 26.0405H30.1514C30.2841 26.0405 30.3915 26.1479 30.3915 26.2806V27.5629C30.3915 27.6956 30.2841 27.803 30.1514 27.803H28.8691C28.7364 27.803 28.629 27.6956 28.629 27.5629V26.2806Z" fill="black"/>
<path d="M28.629 26.0427C28.629 25.91 28.7364 25.8026 28.8691 25.8026H30.1514C30.2841 25.8026 30.3915 25.91 30.3915 26.0427V27.325C30.3915 27.4577 30.2841 27.5651 30.1514 27.5651H28.8691C28.7364 27.5651 28.629 27.4577 28.629 27.325V26.0427Z" fill="#FDC00F"/>
<path d="M29.509 21.5723H28.5509V20.4247C28.5509 20.292 28.4435 20.1847 28.3108 20.1847H24.0679C23.9352 20.1847 23.8278 20.292 23.8278 20.4247V21.5723H22.8698V20.4247C22.8698 19.7656 23.4067 19.2266 24.0679 19.2266H28.3108C28.9699 19.2266 29.509 19.7635 29.509 20.4247V21.5723Z" fill="#FDC00F"/>
<path d="M70.1543 44.743V49.213C70.1543 49.7239 73.7465 50.8133 74.7683 50.8133C75.7901 50.8133 79.3823 49.7239 79.3823 49.213V44.743H70.1543Z" fill="#184F78"/>
<path opacity="0.3" d="M70.1543 46.8136L74.7683 48.5557L79.3823 46.8136V45.1931H70.1543V46.8136Z" fill="black"/>
<path d="M74.7684 41L66.076 44.2793L74.7684 47.5609L83.4607 44.2793L74.7684 41Z" fill="#184F78"/>
<path d="M74.7684 47.561L66.076 44.2794V44.7296L74.7684 48.0111L83.4607 44.7296V44.2794L74.7684 47.561Z" fill="#467293"/>
<path d="M79.9315 48.3622H79.9H79.5759H79.5444C79.5444 48.3622 78.6936 49.5641 79.2541 50.7682C79.3846 50.7682 79.4881 50.7682 79.5737 50.7682H79.5759C79.5827 50.7682 79.6322 50.7682 79.9045 50.7682C79.9045 50.7682 79.9045 50.7682 79.9068 50.7682C79.9901 50.7682 80.0936 50.7682 80.2264 50.7682C80.7823 49.5641 79.9315 48.3622 79.9315 48.3622Z" fill="#FDC00F"/>
<path d="M80.0441 50.5701C80.0644 50.4599 80.0554 50.3271 80.0621 50.1898C80.0644 50.12 80.0644 50.048 80.0554 49.9759C80.0486 49.9039 80.0419 49.8296 80.0374 49.7576C80.0329 49.6834 80.0171 49.6136 80.0059 49.5416C79.9924 49.4718 79.9811 49.402 79.9699 49.3345C79.9339 49.2039 79.9114 49.0802 79.8753 48.9811C79.8146 48.7763 79.7583 48.6503 79.7583 48.6503C79.7583 48.6503 79.8056 48.7831 79.8506 48.9924C79.8776 49.0959 79.8933 49.2197 79.9181 49.3502C79.9249 49.4155 79.9316 49.4853 79.9406 49.5551C79.9474 49.6248 79.9586 49.6946 79.9564 49.7666C79.9564 49.8387 79.9586 49.9084 79.9586 49.9782C79.9631 50.048 79.9586 50.1155 79.9496 50.183C79.9339 50.3136 79.9361 50.4373 79.9068 50.5386C79.8843 50.6332 79.8686 50.7097 79.8551 50.7682C79.8708 50.7682 79.8866 50.7682 79.9046 50.7682C79.9046 50.7682 79.9046 50.7682 79.9068 50.7682C79.9406 50.7682 79.9789 50.7682 80.0171 50.7682C80.0239 50.7142 80.0329 50.6489 80.0441 50.5701Z" fill="#FED96F"/>
<path d="M79.5714 50.5409C79.5444 50.4419 79.5466 50.3159 79.5286 50.1853C79.5196 50.1201 79.5174 50.0503 79.5196 49.9805C79.5196 49.9107 79.5219 49.8387 79.5219 49.7689C79.5196 49.6969 79.5309 49.6272 79.5376 49.5574C79.5444 49.4876 79.5511 49.4178 79.5601 49.3526C79.5849 49.222 79.6007 49.096 79.6277 48.9947C79.6727 48.7854 79.7199 48.6526 79.7199 48.6526C79.7199 48.6526 79.6637 48.7786 79.6029 48.9834C79.5669 49.0847 79.5444 49.2085 79.5084 49.3368C79.4971 49.4043 79.4836 49.4719 79.4701 49.5439C79.4589 49.6159 79.4409 49.6857 79.4386 49.7599C79.4319 49.8342 79.4251 49.9062 79.4206 49.9783C79.4116 50.0503 79.4116 50.1223 79.4138 50.1921C79.4206 50.3316 79.4093 50.4644 79.4319 50.5725C79.4431 50.6512 79.4521 50.7143 79.4611 50.7705C79.4994 50.7705 79.5399 50.7705 79.5714 50.7705H79.5736C79.5759 50.7705 79.5894 50.7705 79.6232 50.7705C79.6097 50.712 79.5917 50.6355 79.5714 50.5409Z" fill="#FED96F"/>
<path d="M80.3185 50.3968C80.3297 50.3271 80.3365 50.255 80.3342 50.1763C80.3387 50.0997 80.332 50.021 80.3252 49.9422C80.3207 49.8634 80.3005 49.7846 80.2892 49.7081C80.2217 49.3975 80.0889 49.1274 79.9786 48.9406C79.8661 48.7538 79.7738 48.6503 79.7738 48.6503C79.7738 48.6503 79.8571 48.7651 79.9561 48.9609C80.0529 49.1567 80.1654 49.4358 80.2059 49.7329C80.2127 49.8071 80.2285 49.8814 80.2262 49.9557C80.2285 50.03 80.2307 50.0997 80.2217 50.1695C80.2194 50.2393 80.2082 50.3046 80.1924 50.3631C80.1812 50.4238 80.1677 50.4824 80.1497 50.5319C80.1204 50.6354 80.0822 50.7119 80.0529 50.766C80.0506 50.7682 80.0506 50.7682 80.0506 50.7705C80.1024 50.7705 80.1587 50.7705 80.2239 50.7705C80.2352 50.7457 80.2442 50.7209 80.2532 50.6939C80.2622 50.6602 80.2735 50.6287 80.2825 50.5904C80.3005 50.5319 80.3095 50.4666 80.3185 50.3968Z" fill="#FED96F"/>
<path d="M79.7378 48.6503L79.6591 50.7682C79.6951 50.7682 79.7446 50.7682 79.8166 50.7682L79.7378 48.6503Z" fill="#FED96F"/>
<path d="M79.4251 50.7638C79.3959 50.7097 79.3599 50.6332 79.3284 50.5297C79.3081 50.4802 79.2946 50.4239 79.2856 50.3609C79.2698 50.3001 79.2608 50.2348 79.2563 50.1673C79.2473 50.0975 79.2473 50.0278 79.2518 49.9535C79.2496 49.8792 79.2653 49.8072 79.2721 49.7307C79.3149 49.4336 79.4274 49.1545 79.5242 48.9587C79.6232 48.7629 79.7065 48.6481 79.7065 48.6481C79.7065 48.6481 79.6165 48.7539 79.5017 48.9384C79.3914 49.1252 79.2586 49.3953 79.1911 49.7059C79.1776 49.7847 79.1573 49.8612 79.1551 49.94C79.1461 50.0188 79.1416 50.0975 79.1461 50.1741C79.1438 50.2506 79.1506 50.3249 79.1618 50.3946C79.1708 50.4644 79.1798 50.5297 79.1978 50.5882C79.2068 50.6265 79.2158 50.658 79.2271 50.6917C79.2383 50.7165 79.2451 50.7412 79.2563 50.7683C79.3194 50.7683 79.3779 50.7683 79.4296 50.7683C79.4251 50.7683 79.4251 50.766 79.4251 50.7638Z" fill="#FED96F"/>
<path d="M79.738 48.8011C79.9804 48.8011 80.1769 48.6046 80.1769 48.3622C80.1769 48.1198 79.9804 47.9233 79.738 47.9233C79.4956 47.9233 79.2991 48.1198 79.2991 48.3622C79.2991 48.6046 79.4956 48.8011 79.738 48.8011Z" fill="#FED96F"/>
<path opacity="0.3" d="M74.7684 45.0987C75.5316 45.0987 76.1504 44.7319 76.1504 44.2795C76.1504 43.827 75.5316 43.4602 74.7684 43.4602C74.0052 43.4602 73.3865 43.827 73.3865 44.2795C73.3865 44.7319 74.0052 45.0987 74.7684 45.0987Z" fill="black"/>
<path d="M76.121 44.4459C76.0737 44.581 75.9725 44.7025 75.8284 44.8038L75.8217 44.8263L79.5106 45.9179V48.3644H79.9607V45.5803L76.121 44.4459Z" fill="#FDC00F"/>
<path d="M74.5771 44.8714C75.2334 44.8714 75.7654 44.556 75.7654 44.1669C75.7654 43.7778 75.2334 43.4624 74.5771 43.4624C73.9207 43.4624 73.3887 43.7778 73.3887 44.1669C73.3887 44.556 73.9207 44.8714 74.5771 44.8714Z" fill="#184F78"/>
</g>
</svg>
