<svg width="507" height="414" viewBox="0 0 507 414" fill="none" xmlns="http://www.w3.org/2000/svg">
<mask id="mask0" mask-type="alpha" maskUnits="userSpaceOnUse" x="0" y="0" width="507" height="414">
<rect width="507" height="414" fill="#C4C4C4"/>
</mask>
<g mask="url(#mask0)">
<rect width="507" height="414" fill="white"/>
<path d="M-596 13.9075L-596 -158C-573.288 -153.225 -403.194 -140.69 -358.48 -110.845C-271.89 -52.9455 -254.856 70.613 -130.649 86.7294C-18.5086 101.055 48.7597 68.5594 179.863 77.7896C293.554 86.7293 333.499 111.354 412.311 168.505C412.311 168.505 572.005 301.614 837.452 152.985L837.452 413.853L-596 413.853L-596 13.9075Z" fill="#C9E7FF"/>
<path d="M588 23.1117C588 23.1117 479.281 -15.2878 386.78 100.416C278.662 236.33 152.525 200.962 16.7765 179.236C-277.545 131.742 -394.71 327.922 -510 383L587.4 383L587.399 23.1117L588 23.1117Z" fill="#506ABF"/>
<path fill-rule="evenodd" clip-rule="evenodd" d="M238.405 241.341C427.199 114.336 587.603 130.435 686.258 184.695V351.333H507V414H-2.52419e-06V351.333H-610.459L-610.459 102.41C-387.597 -1.34097 -203.771 79.7519 -120.02 172.77C-23.4941 280.099 83.6792 329.589 238.405 241.341Z" fill="#2F4798"/>
</g>
</svg>
