<?xml version="1.0" encoding="utf-8"?>
<!-- Generator: Adobe Illustrator 16.0.0, SVG Export Plug-In . SVG Version: 6.00 Build 0)  -->
<!DOCTYPE svg PUBLIC "-//W3C//DTD SVG 1.1//EN" "http://www.w3.org/Graphics/SVG/1.1/DTD/svg11.dtd">
<svg version="1.1" id="Layer_1" xmlns="http://www.w3.org/2000/svg" xmlns:xlink="http://www.w3.org/1999/xlink" x="0px" y="0px"
	 width="800px" height="524.138px" viewBox="0 0 800 524.138" enable-background="new 0 0 800 524.138" xml:space="preserve">
<path fill="#FF4B55" d="M786.204,524.137H13.794C6.177,524.137,0,517.961,0,510.344V13.793C0,6.176,6.177,0,13.794,0h772.412
	C793.823,0,800,6.176,800,13.793v496.551C799.998,517.963,793.822,524.137,786.204,524.137z"/>
<path fill="#73AF00" d="M289.655,0.001H13.794C6.177,0.001,0,6.176,0,13.793v496.551c0,7.617,6.177,13.794,13.794,13.794h275.861
	L289.655,0.001L289.655,0.001z"/>
<circle fill="#FFE15A" cx="289.765" cy="262.069" r="124.031"/>
<path fill="#FF4B55" d="M331.143,220.689v55.172c0,22.817-18.563,41.38-41.379,41.38c-22.817,0-41.38-18.563-41.38-41.38v-55.172
	H331.143 M344.935,193.103H234.59c-7.617,0-13.794,6.177-13.794,13.794v68.966c0,38.088,30.878,68.966,68.966,68.966
	c38.087,0,68.965-30.878,68.965-68.966v-68.966C358.729,199.28,352.552,193.103,344.935,193.103L344.935,193.103z"/>
<path fill="#F5F5F5" d="M331.143,220.689v55.172c0,22.817-18.563,41.38-41.379,41.38c-22.817,0-41.38-18.563-41.38-41.38v-55.172
	H331.143"/>
<g>
	<circle fill="#FFE15A" cx="234.484" cy="206.898" r="6.897"/>
	<circle fill="#FFE15A" cx="344.827" cy="206.898" r="6.897"/>
	<circle fill="#FFE15A" cx="234.484" cy="262.069" r="6.896"/>
	<circle fill="#FFE15A" cx="344.827" cy="262.069" r="6.896"/>
	<circle fill="#FFE15A" cx="289.656" cy="206.898" r="6.897"/>
	<circle fill="#FFE15A" cx="331.062" cy="312.929" r="6.897"/>
	<circle fill="#FFE15A" cx="249.062" cy="312.929" r="6.897"/>
</g>
<g>
	<path fill="#41479B" d="M298.669,258.572v11.878c0,4.913-3.996,8.91-8.909,8.91c-4.912,0-8.909-3.997-8.909-8.91v-11.878H298.669"
		/>
	<path fill="#41479B" d="M298.669,230.413v11.878c0,4.913-3.996,8.91-8.909,8.91c-4.912,0-8.909-3.997-8.909-8.91v-11.878H298.669"
		/>
	<path fill="#41479B" d="M298.669,287.021v11.878c0,4.912-3.996,8.909-8.909,8.909c-4.912,0-8.909-3.997-8.909-8.909v-11.878
		H298.669"/>
	<path fill="#41479B" d="M322.664,258.572v11.878c0,4.913-3.996,8.91-8.909,8.91c-4.912,0-8.909-3.997-8.909-8.91v-11.878H322.664"
		/>
	<path fill="#41479B" d="M274.678,258.572v11.878c0,4.913-3.997,8.91-8.91,8.91c-4.912,0-8.909-3.997-8.909-8.91v-11.878H274.678"/>
</g>
</svg>
