<svg xmlns="http://www.w3.org/2000/svg" width="512" height="336.753" xmlns:v="https://vecta.io/nano"><style><![CDATA[.B{stroke-linejoin:round}.C{fill:#434a54}.D{stroke-width:.031}.E{fill:none}.F{stroke-linecap:round}.G{stroke:#434a54}.H{fill:#f6d660}.I{stroke-width:.042}]]></style><path fill="#ff4b55" d="M0 168.376h513.987V327.89c0 4.896-3.969 8.862-8.862 8.862H8.862c-4.894 0-8.861-3.968-8.861-8.862V168.376z"/><path fill="#4758a9" d="M513.988 168.376H0V8.862C0 3.969 3.968 0 8.862 0h496.267c4.894 0 8.861 3.969 8.861 8.862l-.002 159.514h0z"/><path d="M132.266 70.123l-1.055 35.846H94.839c-4.473-8.688-8.175-16.078-8.175-26.09 0-8.377 6.58-15.025 16.079-15.025 10.054-.001 21.091 3.391 29.523 5.269h0z" class="H"/><path d="M91.016 71.771v20.7-20.7z" class="C"/><path d="M91.016,71.771v20.7" class="B D E F G"/><path d="M93.934,69.664v27.549V69.664z" class="C"/><path d="M93.934 69.664v27.549" class="B D E F G"/><path d="M96.853,68.218v32.819V68.218z" class="C"/><path d="M96.853 68.218v32.819" class="B D E F G"/><path d="M99.785,67.542v25.739V67.542z" class="C"/><path d="M99.785 67.542v25.739" class="B D E F G"/><path d="M102.704,67.408v25.994V67.408z" class="C"/><path d="M102.704 67.408v25.994" class="B D E F G"/><path d="M105.622,66.502v26.887V66.502z" class="C"/><path d="M105.622 66.502v26.887" class="B D E F G"/><path d="M108.54,66.502v26.887V66.502z" class="C"/><path d="M108.54 66.502v26.887" class="B D E F G"/><path d="M111.458,66.771V93.66V66.771z" class="C"/><path d="M111.458 66.771V93.66" class="B D E F G"/><path d="M114.376,67.028v26.888V67.028z" class="C"/><path d="M114.376 67.028v26.888" class="B D E F G"/><path d="M117.309,68.745v26.888V68.745z" class="C"/><path d="M117.309 68.745v26.888" class="B D E F G"/><path d="M120.227,69.001V99.32V69.001z" class="C"/><path d="M120.227 69.001V99.32" class="B D E F G"/><path d="M123.146,69.001v26.888V69.001z" class="C"/><path d="M123.146 69.001v26.888" class="B D E F G"/><path d="M126.063,69.001v26.888V69.001z" class="C"/><g class="G B"><g class="D"><path d="M126.063 69.001v26.888" class="E F"/><path d="M109.338 67.624c6.174 1.014 19.726 7.362 18.186 15.943-2.188 12.174-9.296 7.282-18.713 5.54l-7.12 2.364c-2.54 2.607-6.296 4.986-8.822 1.852h-4.216v16.471h46.642V70.003l-25.957-2.379z" class="C"/></g><g class="H I"><path d="M130.226 67.624c1.567 0 2.824-1.271 2.824-2.823 0-1.568-1.257-2.838-2.824-2.838a2.84 2.84 0 0 0-2.837 2.838c0 1.552 1.27 2.823 2.837 2.823zm-6.378-1.528a2.84 2.84 0 0 0 2.837-2.837 2.84 2.84 0 0 0-2.837-2.837c-1.567 0-2.823 1.27-2.823 2.837s1.256 2.837 2.823 2.837zm-6.458-1.621a2.84 2.84 0 0 0 2.837-2.837 2.84 2.84 0 0 0-2.837-2.838c-1.567 0-2.824 1.271-2.824 2.838s1.258 2.837 2.824 2.837zm-6.485-1.082a2.84 2.84 0 0 0 2.839-2.836 2.84 2.84 0 0 0-2.839-2.837 2.84 2.84 0 0 0-2.837 2.837c0 1.568 1.27 2.836 2.837 2.836zm-6.486-.647c1.566 0 2.836-1.271 2.836-2.824 0-1.567-1.27-2.837-2.836-2.837s-2.824 1.271-2.824 2.837c.001 1.553 1.257 2.824 2.824 2.824zm-6.35.364c1.567 0 2.824-1.271 2.824-2.823 0-1.567-1.257-2.836-2.824-2.836a2.84 2.84 0 0 0-2.838 2.836c-.001 1.553 1.27 2.823 2.838 2.823zm-6.067 2.08a2.84 2.84 0 0 0 2.837-2.837 2.84 2.84 0 0 0-2.837-2.836c-1.567 0-2.824 1.27-2.824 2.836s1.257 2.837 2.824 2.837zm-5.107 3.758a2.84 2.84 0 0 0 2.837-2.838 2.84 2.84 0 0 0-2.837-2.838c-1.566 0-2.824 1.271-2.824 2.838s1.257 2.838 2.824 2.838zm-3.622 5.229c1.567 0 2.824-1.271 2.824-2.824 0-1.566-1.257-2.837-2.824-2.837a2.84 2.84 0 0 0-2.837 2.837c.001 1.553 1.271 2.824 2.837 2.824zm-1.741 6.16a2.83 2.83 0 0 0 2.823-2.823c0-1.567-1.271-2.837-2.823-2.837a2.84 2.84 0 0 0-2.839 2.837c.001 1.553 1.271 2.823 2.839 2.823zm.067 6.391c1.567 0 2.823-1.256 2.823-2.822s-1.256-2.839-2.823-2.839a2.84 2.84 0 0 0-2.837 2.839c0 1.565 1.27 2.822 2.837 2.822zm1.215 6.27c1.567 0 2.823-1.271 2.823-2.837s-1.256-2.838-2.823-2.838a2.84 2.84 0 0 0-2.838 2.838 2.84 2.84 0 0 0 2.838 2.837zm48.655-24.456l-.257 3.688c-7.052-1.082-17.051-5-26.359-5-8.606 0-15.282 3.446-15.282 12.12 0 8.553 3.621 16.335 8.432 24.252l-5.013 2.365c-4.473-8.688-8.175-16.078-8.175-26.09 0-8.377 6.594-16.605 17.93-16.605 10.052 0 20.293 3.392 28.724 5.27h0zm4-38.074l-2.958 5.54 2.958 5.512 2.959-5.512-2.959-5.54zm0 13.969l-2.958 5.526 2.958 5.54 2.959-5.54-2.959-5.526zm-10.539-1.459l4.662 2.958 4.647-2.958-4.647-2.959-4.662 2.959zm11.768 0l4.648 2.958 4.662-2.958-4.662-2.959-4.648 2.959z"/><path d="M135.469 45.29a2.24 2.24 0 0 0 2.243-2.243c0-1.229-1-2.243-2.243-2.243-1.229 0-2.243 1.014-2.243 2.243 0 1.242 1.013 2.243 2.243 2.243zm0 18.051c3.31 0 5.999-2.675 5.999-6 0-3.31-2.688-5.985-5.999-5.985s-6 2.676-6 5.985c0 3.325 2.69 6 6 6z"/></g><path d="M129.672 58.813c1.877-.31 3.824-.485 5.796-.485a35.94 35.94 0 0 1 5.81.485m-7.31-7.268l-.013 3.797a36.9 36.9 0 0 0-4.27.446l4.283-4.243zm7.297 4.243a37.43 37.43 0 0 0-4.27-.446v-3.797l4.27 4.243z" class="D E F"/><g class="H I"><path d="M129.604 67.489c-.567 9.795-1.716 19.779-5.525 27.021l6.188-2.5c2.175-8.215 2.621-18.834 3.283-23.861l-3.946-.66zm11.729 0l-3.946.661c.663 5.027 1.108 15.646 3.283 23.861l6.202 2.5c-3.81-7.243-4.973-17.227-5.539-27.022z"/><path d="M135.469 88.714c-7.418 0-12.85 3.487-13.174 12.376-1.812-3.189-9.471-13.2-16.619-11.863-4.256.797-7.998 6.688-7.363 13.444-3.527-10.107-13.822-11.771-21.348-5.784 6.675 5.485 9.647 21.686 15.269 28.725h43.236 43.223c5.621-7.039 8.606-23.239 15.281-28.725-7.513-5.986-17.821-4.323-21.333 5.783.634-6.757-3.136-12.647-7.392-13.444-7.146-1.337-14.781 8.674-16.592 11.863-.326-8.888-5.785-12.375-13.188-12.375z"/></g><g class="D"><path d="M178.556 125.614c0 3.201-19.307 6.715-43.087 6.715-23.793 0-43.102-3.514-43.102-6.715s19.309-4.878 43.102-4.878c23.779 0 43.087 1.676 43.087 4.878z" class="C"/><path d="M135.469 67.636c1.108 0 2.013-.892 2.013-2 0-1.122-.903-2.013-2.013-2.013a2.01 2.01 0 0 0-2.014 2.013c0 1.109.906 2 2.014 2zm0 4.487c1.188 0 2.134-.959 2.134-2.148a2.13 2.13 0 0 0-2.134-2.134c-1.189 0-2.148.959-2.148 2.134-.001 1.189.958 2.148 2.148 2.148zm0 4.878a2.34 2.34 0 0 0 2.337-2.337c0-1.297-1.041-2.352-2.337-2.352a2.35 2.35 0 0 0-2.337 2.352 2.35 2.35 0 0 0 2.337 2.337zm0 5.525a2.67 2.67 0 0 0 2.675-2.661c0-1.474-1.203-2.676-2.675-2.676a2.67 2.67 0 0 0-2.662 2.676 2.66 2.66 0 0 0 2.662 2.661zm0 6.067a2.932 2.932 0 0 0 0-5.865 2.932 2.932 0 0 0 0 5.865z" class="H"/></g></g><path d="M134.306 91.295c-.323 0-.621.27-.54.77l.325 2.486c.121.852.621.648.757-.028.121-.661.066-1.093.107-2.322.014-.622-.338-.893-.649-.906h0zm2.324 0c-.311.013-.662.283-.635.906.026 1.229-.027 1.661.095 2.322.135.677.634.879.757.028l.323-2.486c.08-.501-.215-.77-.54-.77h0zm-4.405.325c-.283.04-.595.338-.566.647.026.568.188 1.257.242 2.122.067.878.688.54.757.027.067-.5.136-1.256.067-2.243-.025-.364-.188-.527-.378-.554l-.122.001zm6.365 0c-.189.026-.352.188-.378.554-.068.987.013 1.743.066 2.243.067.513.689.851.758-.027l.257-2.122c.013-.311-.284-.607-.582-.647l-.121-.001zm-8.851 1.012c-.27.068-.513.379-.431.744.148.729.296 1.541.296 2.284 0 .635.541.403.582-.041l.081-2.243c0-.635-.271-.824-.528-.744zm11.282 0c-.188.041-.351.271-.351.744l.081 2.243c.04.444.582.676.582.041 0-.744.147-1.555.297-2.284.081-.365-.163-.676-.419-.744-.068-.027-.122-.027-.19 0zm-33.886.095c-.325-.015-.54.418-.325.893.353.77.717 1.241 1.082 2.066.311.729.797.271.635-.243-.148-.5-.324-1.066-.797-2.147-.176-.408-.406-.569-.595-.569zm56.666 0c-.189 0-.405.161-.595.567-.473 1.082-.648 1.647-.797 2.147-.162.515.324.974.636.243.365-.825.729-1.297 1.081-2.066.216-.473-.001-.905-.325-.891zm-54.369.04c-.243.068-.379.365-.243.703l.986 2.175c.257.663.825.475.636-.121l-.636-2.106c-.189-.57-.514-.732-.743-.651zm51.897 0c-.203.041-.433.23-.568.649l-.635 2.106c-.189.596.378.784.635.121.285-.756.689-1.473.987-2.175.135-.338 0-.635-.243-.703-.054-.024-.109-.024-.176.002zm-49.032.554c-.298.055-.527.5-.324 1.056.256.688.621 1.35.932 2.147.325.797.853.636.717.121l-.662-2.606c-.163-.569-.434-.772-.663-.718zm46.343 0c-.229-.054-.5.149-.663.718l-.662 2.606c-.121.515.406.676.717-.121l.934-2.147c.201-.556-.029-1.001-.326-1.056zm-53.437.393c-.325.027-.608.554-.419.946.323.635.526.852.823 1.526.324.689.662.148.541-.285l-.445-1.594c-.122-.472-.311-.621-.5-.593zm60.531 0c-.188-.027-.379.121-.5.595l-.445 1.594c-.122.434.216.975.54.285.312-.676.5-.893.824-1.526.201-.395-.096-.921-.419-.948zm-38.441 1.593c-.338 0-.689.447-.567.865.189.676.486 1.257.689 2.122.203.757.743.378.703-.136-.028-.499-.122-1.188-.339-2.271-.079-.405-.282-.58-.486-.58zm16.349 0c-.202 0-.405.176-.486.582l-.338 2.271c-.027.514.515.893.703.136.215-.865.5-1.446.689-2.122.121-.42-.231-.867-.568-.867zm-8.173.69c-.406 0-.474.554-.487 1-.04 1.473-.662 2.904-1.176 3.621-.527.716-1.296.526-2.013.148s-1.135-.676-1.893-1.244c-.77-.566-1.351-.229-.432 1.055 2.648 3.783 5.513 6.999 5.513 13.16 0 .798.149 1.041.487 1.041.351 0 .5-.242.5-1.041 0-6.161 2.851-9.377 5.499-13.16.919-1.283.338-1.621-.419-1.055-.771.568-1.189.865-1.905 1.244s-1.485.567-2.013-.148c-.513-.717-1.135-2.148-1.176-3.621-.014-.446-.066-1-.485-1zm-20.227-.933a.26.26 0 0 0-.108.027c-.162.054-.256.229-.203.553.108.582.5 1.703.663 2.243s.823.419.662-.31-.149-.946-.338-1.771c-.109-.445-.432-.727-.676-.742h0zm40.466 0c-.257.014-.581.297-.689.743-.188.824-.176 1.04-.338 1.771s.5.851.663.31.553-1.662.661-2.243c.067-.322-.04-.499-.189-.553-.04-.013-.081-.028-.108-.028h0zm-52.504.243c-.325.028-.568.447-.23 1.055.364.662.986 1.5 1.271 1.973.297.473.783.148.433-.446-.351-.607-.46-1.297-.879-2.147-.15-.325-.393-.448-.595-.435zm64.528 0c-.203-.013-.444.109-.594.434-.419.851-.527 1.541-.878 2.147-.351.595.149.919.433.446s.905-1.312 1.271-1.973c.336-.607.094-1.026-.232-1.054zM85.03 97.213c-.378-.013-.499.676-.134 1.136.527.662.893 1.013 1.486 1.554.474.434.607-.121.378-.554-.242-.433-.58-.865-1.054-1.581-.27-.393-.499-.542-.676-.555zm100.876 0c-.176.014-.405.162-.662.555-.486.716-.824 1.148-1.067 1.581-.23.433-.095.987.378.554.608-.541.974-.892 1.487-1.554.364-.461.242-1.149-.136-1.136zm-97.984.581c-.312 0-.5.217-.271.744.338.757.798 1.606 1.081 2.175s1.149.757.798-.136c-.338-.878-.419-1.337-.729-2.162-.163-.405-.57-.634-.879-.621zm95.093 0c-.298-.013-.717.217-.879.622-.31.825-.378 1.284-.729 2.162-.351.893.515.703.798.136.298-.568.743-1.418 1.082-2.175.241-.529.038-.745-.272-.745zm-100.687.188c-.446 0-.486.447-.081.73.513.391 1.135.81 1.757 1.297.703.567.985.04.607-.432-.392-.475-.757-.959-1.702-1.434-.243-.12-.432-.161-.581-.161zm106.279 0c-.147 0-.338.041-.566.163-.959.474-1.325.959-1.703 1.434-.393.472-.108.999.607.432.608-.487 1.229-.906 1.757-1.297.393-.285.352-.732-.095-.732zm-62.894.419c-.243.028-.459.313-.352.677.189.663.406 1.378.54 2.066.121.663.893.676.771.068-.136-.608-.189-1.365-.419-2.284-.082-.338-.257-.499-.434-.527-.026-.013-.067-.013-.106 0zm19.402 0c-.177.028-.352.189-.433.527-.229.919-.284 1.676-.418 2.284-.123.607.648.595.77-.068.136-.688.351-1.404.541-2.066.107-.364-.109-.648-.352-.677-.04-.013-.08-.013-.108 0zm-36.657-1.147c-.189.054-.311.432-.161.959.811 2.906 1.054 4.418.918 5.134-.149.717-.54.812-1.054.581a10.67 10.67 0 0 1-1.622-.919c-.473-.324-.973.067-.283.636 3.472 2.852 5.877 6.106 6.81 10.065.189.811.702.906.554 0-.784-4.985-.933-9.08.257-11.646.445-.974-.014-1.892-.716-.324-.487 1.054-1.258 1.459-1.865.554-.622-.905-1.905-3.311-2.283-4.405-.136-.419-.311-.608-.459-.635h-.096zm53.925 0c-.149.027-.324.216-.459.635-.379 1.095-1.663 3.5-2.284 4.405-.608.906-1.378.5-1.864-.554-.703-1.567-1.163-.649-.717.324 1.189 2.566 1.042 6.661.257 11.646-.147.906.366.811.556 0 .932-3.959 3.336-7.215 6.81-10.065.689-.567.189-.959-.284-.636-.473.338-1.094.676-1.606.919-.527.23-.919.136-1.068-.581-.135-.716.109-2.229.919-5.134.149-.527.027-.905-.162-.959h-.098zm-71.381 1.391c-.312.014-.568.23-.433.703.229.757.702 1.58.865 2.067.161.474.661.244.567-.419s-.135-1.067-.257-1.797c-.066-.365-.431-.554-.742-.554zm88.932 0c-.311 0-.676.189-.729.555-.137.729-.178 1.136-.271 1.797s.406.893.568.419c.162-.487.634-1.311.865-2.067.133-.473-.122-.69-.433-.704zm-78.163-.985c-.365-.068-.405.864-.107 1.242.419.514.985 1.122 1.566 1.812.474.581.771.068.487-.406-.298-.473-.717-.986-1.473-2.188-.189-.3-.352-.447-.473-.46zm67.394 0c-.121.013-.283.16-.473.459-.757 1.202-1.176 1.716-1.459 2.188-.297.475 0 .987.475.406l1.566-1.812c.309-.378.257-1.309-.109-1.241zm-75.704 2.256c-.23-.015-.419.175-.324.634.135.635.324 1.163.487 1.771s.566.5.566-.066-.095-1.216-.188-1.812c-.053-.299-.311-.502-.541-.527zm84.014 0c-.217.025-.487.229-.542.526-.094.595-.188 1.243-.188 1.812s.419.676.567.066c.162-.607.352-1.136.485-1.771.096-.458-.093-.648-.322-.633zm-76.501.824c-.365.054-.676.392-.257.932.662.852 1.392 1.446 1.647 1.771s.892.203.486-.46c-.419-.688-1.055-1.513-1.351-2.013-.092-.189-.322-.271-.525-.23zm68.853 0c-.162.013-.312.08-.392.229-.285.5-.933 1.324-1.352 2.013-.406.663.229.784.486.46s.986-.919 1.648-1.771c.418-.54.108-.878-.257-.932-.038-.014-.078-.014-.133.001zm-80.702 2.391c-.283-.027-.379.202 0 .716.852 1.176 1.797 2.945 1.863 3.702.067.771-.311.757-.661.757-1.055 0-1.567-.757-2.514-.987-.945-.216-1.095.285-.404.771 3.484 2.541 6.972 5.377 8.377 7.944.581 1.041 1.351 1.433.918.433-1.311-3.067-1.635-5.661-1.352-7.228.297-1.568.676-2.622.635-3.526-.053-.906-.566-.838-.77 0-.148.565-.419 1.324-.608 1.606s-.959.447-1.688-.54c-.73-.973-2.567-2.863-3.175-3.351-.215-.176-.459-.284-.621-.297zm92.687 0c-.162.013-.393.121-.621.297-.607.487-2.445 2.378-3.176 3.351-.729.987-1.5.825-1.688.54s-.459-1.041-.608-1.606c-.202-.838-.716-.906-.771 0-.039.904.352 1.958.637 3.525s-.041 4.161-1.353 7.229c-.433 1 .352.608.919-.433 1.405-2.567 4.892-5.404 8.392-7.944.675-.486.526-.986-.419-.771-.946.23-1.459.987-2.514.987-.351 0-.717.014-.663-.757.068-.757 1.015-2.526 1.865-3.702.377-.513.284-.743 0-.716z" class="C"/><path fill="#ffd83d" d="M94.259 121.953l1.122 3.539-1.122-3.539zm2.311-.677l.986 3.58-.986-3.58zm2.486-.404l.675 3.647-.675-3.647zm2.296-.459l.73 3.634-.73-3.634zm2.959-.298l.595 3.675-.595-3.675zm3.148.013l.635 3.648-.635-3.648zm3.067-1.041l.46 3.676-.46-3.676zm2.891.19l.459 3.675-.459-3.675zm2.798-.38l.459 3.689-.459-3.689zm2.811-.296l.242 3.715-.242-3.715zm2.985 0l.23 3.715-.23-3.715zm2.73-.175l.188 3.702-.188-3.702zm2.999-.19l.149 3.701-.149-3.701zm3.445-.094l.149 3.702-.149-3.702zm45.479 3.811l-1.108 3.539 1.108-3.539zm-2.296-.677l-.987 3.58.987-3.58zm-2.487-.404l-.676 3.647.676-3.647zm-2.298-.459l-.729 3.634.729-3.634zm-2.958-.298l-.596 3.675.596-3.675zm-3.148.013l-.636 3.648.636-3.648zm-3.067-1.041l-.459 3.676.459-3.676zm-2.891.19l-.46 3.675.46-3.675zm-2.797-.38l-.459 3.689.459-3.689zm-2.811-.296l-.243 3.715.243-3.715zm-2.999 0l-.217 3.715.217-3.715zm-2.715-.175l-.188 3.702.188-3.702zm-3-.19l-.148 3.701.148-3.701zm-3.447-.094l-.148 3.702.148-3.702zm-4.281-.244v4.08-4.08z"/><path d="M135.469 117.898v4.08m-41.21-.025l1.122 3.539-1.122-3.539zm2.311-.677l.986 3.58-.986-3.58zm2.486-.404l.675 3.647-.675-3.647zm2.296-.459l.73 3.634-.73-3.634zm2.959-.298l.595 3.675-.595-3.675zm3.148.013l.635 3.648-.635-3.648zm3.067-1.041l.46 3.676-.46-3.676zm2.891.19l.459 3.675-.459-3.675zm2.798-.38l.459 3.689-.459-3.689zm2.811-.296l.242 3.715-.242-3.715zm2.985 0l.23 3.715-.23-3.715zm2.73-.175l.188 3.702-.188-3.702zm2.999-.19l.149 3.701-.149-3.701zm3.445-.094l.149 3.702-.149-3.702zm45.479 3.811l-1.108 3.539 1.108-3.539zm-2.296-.677l-.987 3.58.987-3.58zm-2.487-.404l-.676 3.647.676-3.647zm-2.298-.459l-.729 3.634.729-3.634zm-2.958-.298l-.596 3.675.596-3.675zm-3.148.013l-.636 3.648.636-3.648zm-3.067-1.041l-.459 3.676.459-3.676zm-2.891.19l-.46 3.675.46-3.675zm-2.797-.38l-.459 3.689.459-3.689zm-2.811-.296l-.243 3.715.243-3.715zm-2.999 0l-.217 3.715.217-3.715zm-2.715-.175l-.188 3.702.188-3.702zm-3-.19l-.148 3.701.148-3.701zm-3.447-.094l-.148 3.702.148-3.702z" class="B D E F G"/></svg>