<?xml version="1.0" encoding="utf-8"?>
<!-- Generator: Adobe Illustrator 16.0.0, SVG Export Plug-In . SVG Version: 6.00 Build 0)  -->
<!DOCTYPE svg PUBLIC "-//W3C//DTD SVG 1.1//EN" "http://www.w3.org/Graphics/SVG/1.1/DTD/svg11.dtd">
<svg version="1.1" id="Layer_1" xmlns="http://www.w3.org/2000/svg" xmlns:xlink="http://www.w3.org/1999/xlink" x="0px" y="0px"
	 width="512px" height="345.153px" viewBox="0 0 512 345.153" enable-background="new 0 0 512 345.153" xml:space="preserve">
<g>
	<g>
		<defs>
			<path id="SVGID_1_" d="M512.259,335.153c0,5.521-4.478,10-10,10H9.74c-5.523,0-10-4.479-10-10V11.001c0-5.523,4.477-10,10-10
				h492.519c5.522,0,10,4.477,10,10V335.153z"/>
		</defs>
		<clipPath id="SVGID_2_">
			<use xlink:href="#SVGID_1_"  overflow="visible"/>
		</clipPath>
		<path clip-path="url(#SVGID_2_)" fill="#ED5565" d="M512.259,1H-0.26v344.152h512.519V1L512.259,1z"/>
	</g>
	<g>
		<defs>
			<path id="SVGID_3_" d="M512.259,335.153c0,5.521-4.478,10-10,10H9.74c-5.523,0-10-4.479-10-10V11.001c0-5.523,4.477-10,10-10
				h492.519c5.522,0,10,4.477,10,10V335.153z"/>
		</defs>
		<clipPath id="SVGID_4_">
			<use xlink:href="#SVGID_3_"  overflow="visible"/>
		</clipPath>
		<path clip-path="url(#SVGID_4_)" fill="#FFCE54" d="M-0.26,1h76.873l179.393,165.921L435.4,1h76.858L-0.26,345.153h76.873
			l179.393-165.936L435.4,345.153h76.858L-0.26,1z M512.259,138.653v68.833L-0.26,138.653v68.833L512.259,138.653z M230.373,1
			l25.633,147.491l25.62-147.49L230.373,1L230.373,1z M230.373,345.153l25.633-147.505l25.62,147.505H230.373z"/>
	</g>
	<g>
		<defs>
			<path id="SVGID_5_" d="M512.259,335.153c0,5.521-4.478,10-10,10H9.74c-5.523,0-10-4.479-10-10V11.001c0-5.523,4.477-10,10-10
				h492.519c5.522,0,10,4.477,10,10V335.153z"/>
		</defs>
		<clipPath id="SVGID_6_">
			<use xlink:href="#SVGID_5_"  overflow="visible"/>
		</clipPath>
		<path clip-path="url(#SVGID_6_)" fill="#FFCE54" stroke="#ED5565" stroke-width="0.4441" d="M256.006,228.376
			c30.539,0,55.293-24.782,55.293-55.307c0-30.553-24.755-55.308-55.293-55.308s-55.307,24.755-55.307,55.308
			C200.699,203.594,225.468,228.376,256.006,228.376z"/>
	</g>
</g>
</svg>
