<svg width="241" height="170" viewBox="0 0 241 170" fill="none" xmlns="http://www.w3.org/2000/svg">
<g filter="url(#filter0_d)">
<path d="M145.062 138.84H80.1542C78.8179 138.84 77.7345 137.755 77.7345 136.418V128.894C77.7345 127.556 78.8179 126.471 80.1542 126.471H145.062C146.398 126.471 147.482 127.556 147.482 128.894V136.418C147.482 137.755 146.398 138.84 145.062 138.84Z" fill="url(#paint0_linear)"/>
<path d="M186.791 135.136H73.5641C70.8278 135.136 68.609 132.916 68.609 130.176V28.9603C68.609 26.2211 70.8278 24 73.5641 24H186.791C189.528 24 191.746 26.2211 191.746 28.9603V130.176C191.746 132.916 189.528 135.136 186.791 135.136Z" fill="url(#paint1_linear)"/>
<path d="M87.4476 36.1668C82.9392 35.2574 78.5251 37.4323 76.3861 41.24C75.8685 42.1616 75.4843 43.1794 75.2637 44.2731C74.5976 47.5846 75.5891 50.8453 77.6674 53.1927C79.1073 54.8193 81.0685 56.0071 83.3616 56.4698C83.5897 56.5155 83.8179 56.5538 84.0457 56.5844C85.0762 56.7217 86.0958 56.7011 87.0785 56.5399C91.2015 55.8631 94.6719 52.7061 95.546 48.3635C96.6742 42.757 93.0483 37.2967 87.4476 36.1668ZM93.0076 47.8512C92.352 51.1073 89.7507 53.4741 86.6595 53.9817C85.923 54.1026 85.1584 54.1181 84.3854 54.0148C84.2151 53.9917 84.0436 53.9636 83.8724 53.9292C82.1532 53.5824 80.6831 52.6918 79.6035 51.4721C78.0449 49.7121 77.3012 47.2672 77.8008 44.7845C77.966 43.965 78.2542 43.2021 78.6422 42.511C80.2452 39.6559 83.5553 38.0251 86.9355 38.7066C91.1357 39.5543 93.8536 43.648 93.0076 47.8512Z" fill="#5BC5F2"/>
<path d="M79.6039 51.4721L77.6674 53.1927C75.5891 50.8453 74.5976 47.5846 75.2637 44.2732C75.4839 43.1798 75.8681 42.1621 76.3861 41.2401L78.643 42.511C78.255 43.2021 77.9669 43.965 77.8016 44.7845C77.3017 47.2676 78.0457 49.7121 79.6039 51.4721Z" fill="#29A1DC"/>
<path d="M84.3858 54.0148L84.0457 56.5844C83.8179 56.5538 83.5897 56.5156 83.3616 56.4698C81.0686 56.0071 79.1069 54.8193 77.6674 53.1927L79.6039 51.4721C80.6831 52.6914 82.1536 53.582 83.8729 53.9292C84.0436 53.9636 84.2151 53.9917 84.3858 54.0148Z" fill="#F2CB00"/>
<path d="M87.0789 56.5399C86.0958 56.7015 85.0766 56.7221 84.046 56.5844L84.3862 54.0148C85.1592 54.1181 85.9238 54.1026 86.6603 53.9817L87.0789 56.5399Z" fill="#3D96E0"/>
<path d="M95.7523 61.5963H75.0573V63.1939H95.7523V61.5963Z" fill="#C4C4C4"/>
<path d="M90.5443 64.9918H75.0573V66.5894H90.5443V64.9918Z" fill="#C4C4C4"/>
<path d="M128.988 40.7383H103.827V42.6021H128.988V40.7383Z" fill="#B8D6FF"/>
<path d="M132.715 45.3977H103.827V47.2615H132.715V45.3977Z" fill="#B8D6FF"/>
<path d="M118.737 50.0571H103.827V51.9209H118.737V50.0571Z" fill="#B8D6FF"/>
<path d="M127.124 54.7165H103.827V56.5803H127.124V54.7165Z" fill="#B8D6FF"/>
<path d="M140.908 119.783H75.0573V121.329H140.908V119.783Z" fill="white"/>
<path d="M146.21 123.39H75.0573V124.936H146.21V123.39Z" fill="white"/>
<path d="M121.225 126.997H75.0573V128.543H121.225V126.997Z" fill="white"/>
<path d="M109.345 119.783H75.0573V121.329H109.345V119.783Z" fill="#29A1DC"/>
<path d="M112.106 123.39H75.0573V124.936H112.106V123.39Z" fill="#F2CB00"/>
<path d="M99.0964 126.997H75.0573V128.543H99.0964V126.997Z" fill="#29A1DC"/>
<path d="M187.593 103.422H184.528V104.384H187.593V103.422Z" fill="#BDBDBD"/>
<ellipse cx="150.132" cy="59.4685" rx="11.2634" ry="11.2751" fill="#AED1DC"/>
<rect width="7.95487" height="65.6965" rx="3.97743" transform="matrix(0.991776 -0.127985 0.127724 0.99181 146.495 63.7715)" fill="#AED1DC"/>
<rect width="2.36807" height="50.5131" rx="1.18404" transform="matrix(0.993337 0.115248 -0.115011 0.993364 161.351 75.5378)" fill="#B4C7D2"/>
<ellipse cx="161.395" cy="76.6031" rx="7.09507" ry="7.10245" fill="#95B0BF"/>
<path d="M154.3 117.62C157.848 106.966 169.732 90.2162 175.23 83.1729L179.754 84.5046C179.966 87.7717 176.827 91.6071 175.23 93.1163C170.761 95.034 159.414 114.69 154.3 124.278V117.62Z" fill="#AFC2A1"/>
<ellipse cx="176.561" cy="69.5895" rx="9.48965" ry="9.49953" fill="#D9BCA6"/>
<path d="M149.422 101.817C142.185 96.561 140.139 89.3875 140.021 86.4578L135.942 99.4197C136.509 102.971 143.45 108.83 146.85 111.316C152.313 115.152 153.857 120.431 153.945 122.591C153.52 127.35 157.315 128.066 159.267 127.83C162.885 127.972 162.962 123.45 162.548 121.171C162.122 112.222 153.62 104.539 149.422 101.817Z" fill="#DAC2C9"/>
<ellipse cx="172.126" cy="88.0558" rx="9.48965" ry="9.49953" fill="#AFC2A1"/>
<ellipse cx="151.019" cy="89.4763" rx="9.48965" ry="9.49952" fill="#CAA8B2"/>
<ellipse cx="138.247" cy="75.6265" rx="6.11949" ry="6.12586" fill="#CAA8B2"/>
<ellipse cx="129.201" cy="91.4295" rx="12.3277" ry="12.3405" fill="#CAA8B2"/>
<path opacity="0.8" d="M205.536 143.245H163.519C160.702 143.245 158.418 140.959 158.418 138.138V73.1086C158.418 70.2879 160.702 68.0018 163.519 68.0018H205.536C208.354 68.0018 210.637 70.2879 210.637 73.1086V138.138C210.637 140.959 208.353 143.245 205.536 143.245Z" fill="white"/>
<path d="M164.612 105.623H164.406V132.053H164.612V105.623Z" fill="#BDBDBD"/>
<path d="M174.621 105.623H174.415V132.053H174.621V105.623Z" fill="#BDBDBD"/>
<path d="M184.631 105.623H184.425V132.053H184.631V105.623Z" fill="#BDBDBD"/>
<path d="M194.64 105.623H194.434V132.053H194.64V105.623Z" fill="#BDBDBD"/>
<path d="M204.649 105.623H204.444V132.053H204.649V105.623Z" fill="#42CDE8"/>
<path d="M164.508 121.337C164.508 121.337 168.219 123.587 172.16 119.515C176.102 115.443 180.354 112.228 184.373 115.657C188.392 119.087 190.865 119.944 194.885 116.086C198.904 112.228 198.595 107.512 204.547 107.512V132.053H164.508V121.337V121.337Z" fill="url(#paint2_linear)"/>
<path d="M168.477 103.422H164.508V104.384H168.477V103.422Z" fill="#BDBDBD"/>
<path d="M177.005 103.422H174.518V104.384H177.005V103.422Z" fill="#BDBDBD"/>
<path d="M199.262 103.422H194.537V104.384H199.262V103.422Z" fill="#BDBDBD"/>
<path d="M206.194 103.422H204.547V104.384H206.194V103.422Z" fill="#BDBDBD"/>
<path d="M165.331 77.0817L165.331 90.466L167.026 90.466L167.026 77.0817L165.331 77.0817Z" fill="#29A1DC"/>
<path d="M176.514 77.0817L176.514 90.466L178.208 90.466L178.208 77.0817L176.514 77.0817Z" fill="#F2CB00"/>
<path d="M172.435 78.1797L172.435 90.466L174.13 90.466L174.13 78.1797L172.435 78.1797Z" fill="#29A1DC"/>
<path d="M183.618 78.1797L183.618 90.466L185.312 90.466L185.312 78.1797L183.618 78.1797Z" fill="#29A1DC"/>
<path d="M168.689 79.615L168.689 90.2455L170.384 90.2455L170.384 79.615L168.689 79.615Z" fill="#F2CB00"/>
<path d="M179.872 79.615L179.872 90.2455L181.567 90.2455L181.567 79.615L179.872 79.615Z" fill="#29A1DC"/>
<path d="M27.6889 140.837L73.3739 122.698L70.2954 114.927L24.6103 133.065L27.6889 140.837Z" fill="url(#paint3_linear)"/>
<path d="M73.0068 121.76L75.4474 120.791L73.1107 114.891L70.6701 115.86L73.0068 121.76Z" fill="#2D3038"/>
<path opacity="0.1" d="M106.83 131.069C120.996 128.061 130.048 114.13 127.048 99.9539C124.047 85.7778 110.131 76.7244 95.9649 79.7327C81.7988 82.7409 72.7472 96.6716 75.7476 110.848C78.748 125.024 92.6642 134.077 106.83 131.069Z" fill="#B8B8B8"/>
<path opacity="0.3" d="M80.7219 90.3377C80.7219 90.3377 112.364 79.4071 126.103 112.351C126.103 112.351 126.103 112.351 126.103 112.351C127.224 108.449 127.435 104.224 126.536 99.9767C123.607 86.1381 110.022 77.2998 96.1923 80.2365C89.7024 81.6147 84.3126 85.3404 80.7219 90.3377Z" fill="#869AC2"/>
<path d="M95.0984 75.6302C78.6674 79.1194 68.1692 95.2777 71.6489 111.719C75.1292 128.162 91.2698 138.663 107.701 135.173C124.132 131.684 134.629 115.527 131.149 99.0834C127.669 82.6427 111.529 72.1411 95.0984 75.6302ZM106.675 130.325C92.9192 133.246 79.4068 124.457 76.4929 110.689C73.5798 96.9255 82.3687 83.3978 96.1242 80.4768C109.88 77.5557 123.393 86.3475 126.306 100.111C129.219 113.879 120.43 127.404 106.675 130.325Z" fill="#3F444F"/>
</g>
<defs>
<filter id="filter0_d" x="-16" y="-17" width="281" height="211" filterUnits="userSpaceOnUse" color-interpolation-filters="sRGB">
<feFlood flood-opacity="0" result="BackgroundImageFix"/>
<feColorMatrix in="SourceAlpha" type="matrix" values="0 0 0 0 0 0 0 0 0 0 0 0 0 0 0 0 0 0 127 0"/>
<feOffset/>
<feGaussianBlur stdDeviation="12"/>
<feColorMatrix type="matrix" values="0 0 0 0 0 0 0 0 0 0 0 0 0 0 0 0 0 0 0.55 0"/>
<feBlend mode="normal" in2="BackgroundImageFix" result="effect1_dropShadow"/>
<feBlend mode="normal" in="SourceGraphic" in2="effect1_dropShadow" result="shape"/>
</filter>
<linearGradient id="paint0_linear" x1="112.608" y1="149.971" x2="112.608" y2="119.873" gradientUnits="userSpaceOnUse">
<stop stop-color="#D5E4FF"/>
<stop offset="1" stop-color="#EDFFFE"/>
</linearGradient>
<linearGradient id="paint1_linear" x1="101.963" y1="32.8173" x2="168.244" y2="165.552" gradientUnits="userSpaceOnUse">
<stop stop-color="#F5F5F5"/>
<stop offset="1" stop-color="#B1CFED"/>
</linearGradient>
<linearGradient id="paint2_linear" x1="164.508" y1="119.783" x2="204.547" y2="119.783" gradientUnits="userSpaceOnUse">
<stop stop-color="#B1CFED"/>
<stop offset="1" stop-color="#4B62BE"/>
</linearGradient>
<linearGradient id="paint3_linear" x1="24.609" y1="133.059" x2="73.3818" y2="122.735" gradientUnits="userSpaceOnUse">
<stop stop-color="#283C81"/>
<stop offset="1" stop-color="#29A1DC"/>
</linearGradient>
</defs>
</svg>
