<svg width="393" height="271" viewBox="0 0 393 271" fill="none" xmlns="http://www.w3.org/2000/svg">
<path d="M271.895 109.123H266.738V118H257.891V109.123H239.609V102.824L258.389 75.168H266.738V102.092H271.895V109.123ZM257.891 102.092V94.8262C257.891 93.6152 257.939 91.8574 258.037 89.5527C258.135 87.248 258.213 85.9102 258.271 85.5391H258.037C257.314 87.1406 256.445 88.7031 255.43 90.2266L247.578 102.092H257.891Z" fill="white"/>
<path d="M304.971 96.584C304.971 104.064 303.74 109.602 301.279 113.195C298.838 116.789 295.068 118.586 289.971 118.586C285.029 118.586 281.299 116.73 278.779 113.02C276.279 109.309 275.029 103.83 275.029 96.584C275.029 89.0254 276.25 83.459 278.691 79.8848C281.133 76.291 284.893 74.4941 289.971 74.4941C294.912 74.4941 298.643 76.3691 301.162 80.1191C303.701 83.8691 304.971 89.3574 304.971 96.584ZM284.023 96.584C284.023 101.838 284.473 105.607 285.371 107.893C286.289 110.158 287.822 111.291 289.971 111.291C292.08 111.291 293.604 110.139 294.541 107.834C295.479 105.529 295.947 101.779 295.947 96.584C295.947 91.3301 295.469 87.5605 294.512 85.2754C293.574 82.9707 292.061 81.8184 289.971 81.8184C287.842 81.8184 286.318 82.9707 285.4 85.2754C284.482 87.5605 284.023 91.3301 284.023 96.584Z" fill="white"/>
<path d="M337.812 84.748C337.812 87.4238 337.002 89.6992 335.381 91.5742C333.76 93.4492 331.484 94.7383 328.555 95.4414V95.6172C332.012 96.0469 334.629 97.1016 336.406 98.7812C338.184 100.441 339.072 102.688 339.072 105.52C339.072 109.641 337.578 112.854 334.59 115.158C331.602 117.443 327.334 118.586 321.787 118.586C317.139 118.586 313.018 117.814 309.424 116.271V108.566C311.084 109.406 312.91 110.09 314.902 110.617C316.895 111.145 318.867 111.408 320.82 111.408C323.809 111.408 326.016 110.9 327.441 109.885C328.867 108.869 329.58 107.238 329.58 104.992C329.58 102.98 328.76 101.555 327.119 100.715C325.479 99.875 322.861 99.4551 319.268 99.4551H316.016V92.5117H319.326C322.646 92.5117 325.068 92.082 326.592 91.2227C328.135 90.3438 328.906 88.8496 328.906 86.7402C328.906 83.498 326.875 81.877 322.812 81.877C321.406 81.877 319.971 82.1113 318.506 82.5801C317.061 83.0488 315.449 83.8594 313.672 85.0117L309.482 78.7715C313.389 75.959 318.047 74.5527 323.457 74.5527C327.891 74.5527 331.387 75.4512 333.945 77.248C336.523 79.0449 337.812 81.5449 337.812 84.748Z" fill="white"/>
<path d="M267.917 152.244C265.94 152.244 264.377 151.642 263.23 150.438C262.091 149.233 261.521 147.561 261.521 145.42C261.521 143.264 262.05 141.551 263.108 140.281C264.174 139.012 265.602 138.377 267.393 138.377C269.069 138.377 270.396 138.93 271.372 140.037C272.349 141.136 272.837 142.588 272.837 144.395V145.677H263.621C263.661 147.247 264.056 148.44 264.805 149.253C265.562 150.067 266.624 150.474 267.991 150.474C269.431 150.474 270.855 150.173 272.263 149.571V151.377C271.547 151.687 270.868 151.906 270.225 152.037C269.59 152.175 268.821 152.244 267.917 152.244ZM267.368 140.074C266.294 140.074 265.435 140.424 264.792 141.124C264.158 141.823 263.783 142.792 263.669 144.029H270.664C270.664 142.751 270.379 141.775 269.81 141.099C269.24 140.416 268.426 140.074 267.368 140.074Z" fill="white"/>
<path d="M282.407 138.377C283.001 138.377 283.534 138.426 284.006 138.523L283.726 140.403C283.172 140.281 282.684 140.22 282.261 140.22C281.178 140.22 280.251 140.66 279.478 141.539C278.713 142.417 278.33 143.512 278.33 144.822V152H276.304V138.621H277.976L278.208 141.099H278.306C278.802 140.228 279.4 139.557 280.1 139.085C280.8 138.613 281.569 138.377 282.407 138.377Z" fill="white"/>
<path d="M292.612 138.377C293.206 138.377 293.739 138.426 294.211 138.523L293.931 140.403C293.377 140.281 292.889 140.22 292.466 140.22C291.383 140.22 290.456 140.66 289.683 141.539C288.918 142.417 288.535 143.512 288.535 144.822V152H286.509V138.621H288.181L288.413 141.099H288.511C289.007 140.228 289.605 139.557 290.305 139.085C291.005 138.613 291.774 138.377 292.612 138.377Z" fill="white"/>
<path d="M308.262 145.298C308.262 147.479 307.712 149.184 306.614 150.413C305.515 151.634 303.997 152.244 302.061 152.244C300.864 152.244 299.802 151.963 298.875 151.402C297.947 150.84 297.231 150.035 296.726 148.985C296.222 147.935 295.969 146.706 295.969 145.298C295.969 143.117 296.514 141.421 297.605 140.208C298.695 138.987 300.209 138.377 302.146 138.377C304.018 138.377 305.503 139 306.602 140.245C307.708 141.49 308.262 143.174 308.262 145.298ZM298.069 145.298C298.069 147.007 298.411 148.309 299.094 149.205C299.778 150.1 300.783 150.547 302.109 150.547C303.436 150.547 304.441 150.104 305.125 149.217C305.816 148.322 306.162 147.015 306.162 145.298C306.162 143.597 305.816 142.308 305.125 141.429C304.441 140.542 303.428 140.098 302.085 140.098C300.758 140.098 299.757 140.534 299.082 141.404C298.407 142.275 298.069 143.573 298.069 145.298Z" fill="white"/>
<path d="M317.93 138.377C318.524 138.377 319.057 138.426 319.529 138.523L319.248 140.403C318.695 140.281 318.206 140.22 317.783 140.22C316.701 140.22 315.773 140.66 315 141.539C314.235 142.417 313.853 143.512 313.853 144.822V152H311.826V138.621H313.499L313.73 141.099H313.828C314.325 140.228 314.923 139.557 315.623 139.085C316.322 138.613 317.091 138.377 317.93 138.377Z" fill="white"/>
<path d="M63.8467 258.805C63.5811 258.805 63.3586 258.598 63.3437 258.329C63.328 258.051 63.5408 257.813 63.8187 257.798C65.4816 257.704 67.1647 257.538 68.8212 257.304C69.096 257.265 69.3519 257.457 69.3908 257.733C69.4296 258.009 69.2377 258.264 68.9619 258.303C67.2774 258.54 65.566 258.709 63.8751 258.804C63.8659 258.805 63.8562 258.805 63.8467 258.805ZM56.7545 258.783C56.7438 258.783 56.7331 258.783 56.7225 258.783C55.0285 258.677 53.3183 258.496 51.64 258.247C51.3644 258.206 51.1744 257.949 51.2154 257.674C51.2564 257.398 51.5135 257.208 51.7883 257.249C53.4386 257.495 55.12 257.672 56.7855 257.776C57.0634 257.793 57.2745 258.033 57.2572 258.311C57.2404 258.578 57.0184 258.783 56.7545 258.783ZM75.8459 256.909C75.6222 256.909 75.418 256.759 75.3585 256.533C75.2879 256.263 75.449 255.988 75.7184 255.917C77.3346 255.493 78.9506 254.995 80.5208 254.438C80.7829 254.345 81.0715 254.482 81.1646 254.745C81.2577 255.007 81.1203 255.296 80.858 255.389C79.2612 255.955 77.618 256.461 75.9745 256.893C75.9314 256.904 75.8883 256.909 75.8459 256.909ZM44.7695 256.793C44.7254 256.793 44.6809 256.787 44.6363 256.775C42.9998 256.328 41.3617 255.805 39.7673 255.221C39.5057 255.125 39.3716 254.835 39.4674 254.574C39.5633 254.312 39.8529 254.178 40.1142 254.274C41.6819 254.848 43.2926 255.362 44.902 255.802C45.1707 255.875 45.3289 256.152 45.2555 256.421C45.1943 256.645 44.991 256.793 44.7695 256.793ZM87.2219 252.654C87.0361 252.654 86.8575 252.551 86.7696 252.374C86.6461 252.124 86.7482 251.822 86.9977 251.698C88.4931 250.957 89.9747 250.144 91.4013 249.279C91.6397 249.135 91.9497 249.211 92.094 249.449C92.2383 249.687 92.1622 249.997 91.9241 250.142C90.473 251.021 88.9663 251.849 87.4453 252.602C87.3731 252.638 87.2968 252.654 87.2219 252.654ZM33.4347 252.421C33.3582 252.421 33.2802 252.404 33.2072 252.367C31.6946 251.6 30.195 250.759 28.7501 249.866C28.5131 249.72 28.4397 249.409 28.5859 249.172C28.7323 248.935 29.0432 248.862 29.2799 249.008C30.7008 249.886 32.1756 250.713 33.6634 251.467C33.9117 251.593 34.011 251.897 33.8852 252.145C33.7958 252.32 33.6186 252.421 33.4347 252.421ZM97.4956 246.188C97.3459 246.188 97.1975 246.121 97.098 245.994C96.9264 245.775 96.9651 245.458 97.1848 245.287C98.4989 244.259 99.7857 243.162 101.009 242.026C101.213 241.837 101.532 241.849 101.722 242.053C101.911 242.257 101.899 242.576 101.695 242.765C100.451 243.92 99.1424 245.036 97.8058 246.081C97.7138 246.153 97.6044 246.188 97.4956 246.188ZM23.2091 245.866C23.0994 245.866 22.9887 245.831 22.8958 245.757C21.5659 244.702 20.265 243.578 19.0294 242.415C18.8265 242.224 18.8168 241.905 19.0076 241.702C19.1985 241.5 19.5175 241.49 19.7205 241.681C20.9356 242.824 22.2149 243.929 23.5228 244.967C23.741 245.14 23.7775 245.457 23.6045 245.676C23.5048 245.801 23.3577 245.866 23.2091 245.866ZM106.256 237.778C106.14 237.778 106.024 237.738 105.929 237.658C105.717 237.477 105.692 237.159 105.872 236.947C106.953 235.675 107.994 234.342 108.964 232.985C109.126 232.758 109.441 232.706 109.668 232.868C109.894 233.03 109.947 233.345 109.785 233.571C108.798 234.952 107.74 236.307 106.64 237.6C106.54 237.717 106.398 237.778 106.256 237.778ZM14.5061 237.398C14.3623 237.398 14.2194 237.336 14.1196 237.217C13.0282 235.916 11.98 234.553 11.0045 233.166C10.8443 232.938 10.899 232.624 11.1267 232.463C11.3542 232.303 11.6689 232.358 11.8293 232.586C12.7887 233.949 13.8192 235.29 14.8925 236.569C15.0714 236.783 15.0437 237.101 14.8302 237.28C14.7354 237.359 14.6205 237.398 14.5061 237.398ZM113.154 227.78C113.072 227.78 112.988 227.76 112.911 227.717C112.667 227.583 112.578 227.277 112.713 227.032C113.518 225.57 114.27 224.056 114.949 222.532C115.063 222.277 115.361 222.163 115.615 222.276C115.87 222.389 115.984 222.688 115.871 222.942C115.18 224.492 114.415 226.032 113.596 227.519C113.504 227.686 113.332 227.78 113.154 227.78ZM7.68773 227.346C7.50813 227.346 7.33444 227.251 7.24346 227.081C6.43879 225.587 5.68862 224.04 5.01356 222.483C4.9029 222.228 5.02018 221.931 5.27561 221.82C5.53127 221.709 5.82816 221.826 5.93881 222.082C6.60249 223.613 7.34012 225.134 8.13105 226.603C8.26327 226.848 8.17133 227.154 7.92632 227.286C7.85027 227.327 7.76829 227.346 7.68773 227.346ZM117.91 216.601C117.86 216.601 117.81 216.594 117.76 216.578C117.494 216.496 117.346 216.213 117.428 215.947C117.923 214.353 118.355 212.718 118.713 211.089C118.772 210.817 119.041 210.645 119.313 210.704C119.585 210.764 119.757 211.033 119.698 211.305C119.334 212.962 118.894 214.624 118.391 216.246C118.324 216.462 118.125 216.601 117.91 216.601ZM3.0462 216.124C2.82916 216.124 2.62868 215.983 2.56329 215.764C2.0785 214.142 1.65554 212.476 1.30605 210.812C1.2487 210.539 1.42334 210.272 1.69583 210.215C1.96879 210.158 2.23583 210.332 2.29293 210.605C2.63674 212.242 3.05282 213.881 3.52955 215.475C3.60917 215.742 3.45777 216.023 3.19074 216.102C3.14264 216.117 3.09407 216.124 3.0462 216.124ZM120.312 204.69C120.296 204.69 120.279 204.69 120.263 204.688C119.986 204.661 119.782 204.415 119.809 204.137C119.971 202.478 120.063 200.789 120.082 199.12C120.086 198.842 120.314 198.614 120.593 198.622C120.871 198.625 121.094 198.854 121.091 199.132C121.071 200.83 120.977 202.547 120.813 204.235C120.788 204.495 120.568 204.69 120.312 204.69ZM0.747117 204.196C0.489083 204.196 0.269182 203.999 0.245487 203.737C0.0924205 202.044 0.00972391 200.327 9.13645e-06 198.631C-0.00164948 198.353 0.22273 198.126 0.501379 198.124C0.502326 198.124 0.503294 198.124 0.504242 198.124C0.781469 198.124 1.00679 198.348 1.00845 198.626C1.01816 200.292 1.09921 201.982 1.2499 203.646C1.27502 203.923 1.07054 204.169 0.793309 204.194C0.77767 204.195 0.762282 204.196 0.747117 204.196ZM120.249 192.544C119.995 192.544 119.776 192.352 119.749 192.093C119.572 190.438 119.322 188.766 119.007 187.122L118.994 187.058C118.941 186.784 119.12 186.52 119.393 186.467C119.667 186.413 119.931 186.592 119.984 186.866L119.997 186.931C120.318 188.603 120.572 190.303 120.752 191.986C120.782 192.263 120.581 192.512 120.304 192.541C120.286 192.543 120.267 192.544 120.249 192.544ZM0.886415 192.045C0.867223 192.045 0.848055 192.044 0.828625 192.042C0.552109 192.011 0.353306 191.761 0.384583 191.484C0.576746 189.798 0.843778 188.099 1.17835 186.435C1.23308 186.162 1.49893 185.985 1.77213 186.04C2.04509 186.095 2.22185 186.361 2.16711 186.633C1.838 188.27 1.57547 189.94 1.38686 191.598C1.35771 191.855 1.13947 192.045 0.886415 192.045ZM117.74 180.593C117.526 180.593 117.328 180.456 117.259 180.241C116.753 178.649 116.174 177.061 115.536 175.521C115.429 175.264 115.552 174.969 115.809 174.862C116.066 174.756 116.361 174.878 116.468 175.135C117.116 176.701 117.706 178.316 118.22 179.936C118.305 180.201 118.158 180.484 117.893 180.569C117.842 180.585 117.791 180.593 117.74 180.593ZM3.48287 180.177C3.43074 180.177 3.37768 180.169 3.32555 180.152C3.06088 180.065 2.91681 179.78 3.00377 179.515C3.53287 177.903 4.13803 176.294 4.80195 174.731C4.91071 174.475 5.20666 174.355 5.46327 174.464C5.71964 174.573 5.83905 174.869 5.7303 175.126C5.07751 176.662 4.48256 178.245 3.96223 179.83C3.89233 180.042 3.69494 180.177 3.48287 180.177ZM112.904 169.452C112.728 169.452 112.557 169.359 112.464 169.195C111.648 167.74 110.758 166.302 109.821 164.922C109.664 164.692 109.724 164.378 109.954 164.222C110.185 164.065 110.498 164.125 110.655 164.355C111.609 165.759 112.513 167.221 113.344 168.701C113.48 168.944 113.394 169.251 113.151 169.387C113.073 169.431 112.988 169.452 112.904 169.452ZM8.41893 169.078C8.3341 169.078 8.24787 169.056 8.16897 169.011C7.92705 168.873 7.84316 168.565 7.98154 168.323C8.82388 166.85 9.73921 165.395 10.7026 163.997C10.8607 163.768 11.1746 163.71 11.404 163.868C11.6333 164.026 11.6909 164.34 11.5329 164.569C10.5856 165.944 9.68517 167.375 8.85704 168.824C8.76392 168.986 8.59403 169.078 8.41893 169.078ZM105.914 159.525C105.773 159.525 105.633 159.466 105.534 159.352C104.44 158.092 103.278 156.864 102.081 155.7C101.881 155.506 101.876 155.186 102.071 154.987C102.265 154.787 102.584 154.783 102.784 154.977C104.001 156.16 105.183 157.41 106.295 158.69C106.478 158.9 106.455 159.219 106.245 159.402C106.149 159.484 106.031 159.525 105.914 159.525ZM15.4785 159.194C15.3603 159.194 15.2416 159.153 15.1458 159.068C14.9366 158.885 14.916 158.566 15.0999 158.357C16.2206 157.082 17.4089 155.839 18.632 154.663C18.8327 154.47 19.1519 154.477 19.345 154.677C19.5379 154.878 19.5317 155.197 19.3308 155.39C18.128 156.547 16.9594 157.769 15.8574 159.023C15.7579 159.136 15.6185 159.194 15.4785 159.194ZM97.0644 151.207C96.9573 151.207 96.8497 151.173 96.7583 151.103C95.4328 150.088 94.0483 149.118 92.6432 148.218C92.4089 148.068 92.3404 147.755 92.4906 147.521C92.6406 147.287 92.9524 147.218 93.187 147.368C94.6158 148.283 96.0237 149.271 97.3714 150.303C97.5925 150.472 97.6344 150.788 97.4653 151.009C97.3658 151.139 97.2158 151.207 97.0644 151.207ZM24.3746 150.929C24.2218 150.929 24.0711 150.859 23.9718 150.729C23.8041 150.506 23.8479 150.19 24.0701 150.022C25.4243 148.999 26.8389 148.021 28.274 147.116C28.5096 146.968 28.8209 147.038 28.9695 147.274C29.118 147.509 29.0474 147.821 28.8117 147.969C27.4004 148.859 26.0098 149.82 24.6781 150.827C24.5874 150.895 24.4805 150.929 24.3746 150.929ZM86.7264 144.829C86.6525 144.829 86.5774 144.813 86.5065 144.778C85.0048 144.049 83.454 143.375 81.897 142.776C81.6371 142.676 81.5077 142.384 81.6077 142.124C81.7079 141.864 81.9996 141.734 82.2596 141.834C83.8428 142.444 85.4199 143.13 86.947 143.871C87.1975 143.993 87.302 144.295 87.1802 144.545C87.0932 144.725 86.9134 144.829 86.7264 144.829ZM34.7583 144.629C34.5697 144.629 34.3887 144.523 34.3024 144.341C34.183 144.089 34.2901 143.789 34.5417 143.669C36.0738 142.942 37.6569 142.271 39.2472 141.676C39.5081 141.578 39.7986 141.71 39.8962 141.971C39.9939 142.232 39.8616 142.523 39.6008 142.62C38.0372 143.205 36.4807 143.865 34.9739 144.58C34.9045 144.614 34.8308 144.629 34.7583 144.629ZM75.318 140.655C75.2767 140.655 75.2351 140.65 75.1934 140.639C73.5755 140.227 71.9206 139.88 70.2748 139.607C70.0002 139.562 69.8144 139.302 69.8599 139.028C69.9052 138.753 70.1646 138.567 70.4397 138.613C72.1135 138.89 73.7965 139.243 75.4419 139.662C75.712 139.731 75.875 140.005 75.8061 140.275C75.7483 140.503 75.5431 140.655 75.318 140.655ZM46.2009 140.562C45.9739 140.562 45.768 140.408 45.7116 140.177C45.6453 139.907 45.8106 139.634 46.0812 139.567C47.0833 139.322 48.1078 139.098 49.1262 138.902C49.7762 138.777 50.4372 138.661 51.0912 138.557C51.3663 138.514 51.6246 138.701 51.6682 138.976C51.7118 139.251 51.5243 139.51 51.2493 139.554C50.6062 139.656 49.956 139.77 49.3165 139.893C48.3147 140.085 47.3072 140.305 46.3213 140.547C46.281 140.557 46.2407 140.562 46.2009 140.562ZM63.2987 138.873C63.2911 138.873 63.2835 138.873 63.2757 138.873C62.3921 138.833 61.4964 138.813 60.6134 138.813C59.8298 138.813 59.0346 138.829 58.2501 138.86C57.974 138.873 57.7373 138.655 57.7262 138.376C57.715 138.098 57.9316 137.863 58.21 137.852C59.0078 137.821 59.8165 137.804 60.6134 137.804C61.5116 137.804 62.4224 137.825 63.3209 137.865C63.5991 137.878 63.8145 138.113 63.8019 138.392C63.7899 138.662 63.5666 138.873 63.2987 138.873Z" fill="#080852"/>
<path d="M293.283 210.997C292.992 211.016 292.702 211.034 292.412 211.05C292.134 211.066 291.896 210.853 291.88 210.575C291.865 210.299 292.075 210.061 292.351 210.043C292.352 210.043 292.354 210.043 292.355 210.043C294.003 209.95 295.672 209.816 297.318 209.645C297.596 209.615 297.843 209.818 297.872 210.095C297.9 210.372 297.699 210.62 297.422 210.648C296.05 210.791 294.657 210.908 293.283 210.997ZM285.418 211.213C285.406 211.213 285.393 211.214 285.38 211.214C283.712 211.197 282.022 211.14 280.358 211.044C280.08 211.028 279.868 210.789 279.884 210.511C279.9 210.233 280.139 210.021 280.416 210.037C282.064 210.132 283.738 210.189 285.39 210.205C285.669 210.208 285.892 210.436 285.889 210.714C285.887 210.98 285.679 211.196 285.418 211.213ZM304.34 209.699C304.085 209.716 303.854 209.538 303.811 209.281C303.764 209.007 303.949 208.746 304.223 208.699C305.855 208.421 307.498 208.1 309.108 207.747C309.381 207.687 309.649 207.859 309.709 208.131C309.769 208.403 309.597 208.672 309.325 208.732C307.699 209.089 306.04 209.412 304.393 209.693C304.375 209.696 304.357 209.698 304.34 209.699ZM273.449 210.406C273.417 210.408 273.385 210.407 273.353 210.403C271.697 210.195 270.025 209.945 268.383 209.658C268.109 209.61 267.925 209.349 267.973 209.075C268.021 208.8 268.282 208.616 268.556 208.665C270.182 208.949 271.839 209.197 273.478 209.402C273.755 209.437 273.95 209.689 273.916 209.965C273.885 210.209 273.686 210.391 273.449 210.406ZM316.032 207.016C315.801 207.031 315.583 206.884 315.516 206.653C315.438 206.385 315.592 206.106 315.859 206.028C317.446 205.568 319.042 205.062 320.604 204.527C320.868 204.436 321.154 204.577 321.245 204.84C321.335 205.104 321.195 205.391 320.931 205.481C319.354 206.022 317.742 206.532 316.14 206.997C316.105 207.007 316.068 207.013 316.032 207.016ZM261.641 208.228C261.591 208.231 261.539 208.227 261.488 208.215C259.866 207.818 258.231 207.376 256.628 206.901C256.361 206.822 256.208 206.542 256.287 206.275C256.366 206.008 256.647 205.855 256.914 205.934C258.502 206.404 260.122 206.842 261.727 207.235C261.998 207.301 262.164 207.574 262.097 207.845C262.044 208.064 261.854 208.214 261.641 208.228ZM327.343 203.016C327.134 203.029 326.931 202.911 326.845 202.708C326.737 202.451 326.858 202.155 327.115 202.047C328.639 201.408 330.167 200.723 331.656 200.012C331.908 199.891 332.209 199.998 332.329 200.249C332.449 200.501 332.342 200.802 332.091 200.922C330.587 201.64 329.044 202.331 327.505 202.977C327.452 202.999 327.397 203.012 327.343 203.016ZM250.154 204.707C250.086 204.712 250.015 204.702 249.947 204.677C248.382 204.097 246.81 203.471 245.272 202.816C245.016 202.707 244.897 202.411 245.006 202.154C245.115 201.898 245.411 201.779 245.667 201.888C247.19 202.536 248.747 203.156 250.297 203.731C250.559 203.828 250.692 204.118 250.595 204.379C250.524 204.572 250.347 204.695 250.154 204.707ZM338.111 197.748C337.924 197.76 337.737 197.667 337.639 197.492C337.502 197.25 337.588 196.942 337.831 196.805C339.268 195.998 340.704 195.144 342.101 194.267C342.337 194.119 342.648 194.191 342.796 194.427C342.944 194.662 342.873 194.974 342.637 195.122C341.226 196.006 339.776 196.869 338.326 197.684C338.257 197.723 338.184 197.744 338.111 197.748ZM239.152 199.897C239.065 199.903 238.975 199.886 238.892 199.844C237.403 199.088 235.912 198.288 234.462 197.464C234.22 197.326 234.135 197.018 234.273 196.776C234.41 196.534 234.718 196.449 234.96 196.587C236.396 197.403 237.873 198.196 239.348 198.944C239.596 199.07 239.695 199.374 239.569 199.622C239.486 199.787 239.324 199.886 239.152 199.897ZM348.2 191.285C348.033 191.296 347.864 191.223 347.758 191.078C347.595 190.852 347.645 190.537 347.871 190.374C349.207 189.406 350.537 188.393 351.825 187.362C352.043 187.188 352.36 187.223 352.534 187.441C352.708 187.658 352.673 187.976 352.455 188.15C351.155 189.19 349.811 190.213 348.462 191.19C348.382 191.248 348.291 191.279 348.2 191.285ZM228.772 193.868C228.667 193.875 228.558 193.849 228.463 193.786C227.069 192.867 225.68 191.903 224.333 190.92C224.108 190.756 224.059 190.441 224.223 190.216C224.387 189.991 224.703 189.941 224.928 190.106C226.262 191.079 227.638 192.034 229.018 192.944C229.25 193.098 229.315 193.41 229.161 193.643C229.071 193.78 228.925 193.858 228.772 193.868ZM357.49 183.709C357.342 183.718 357.192 183.664 357.085 183.546C356.897 183.341 356.911 183.022 357.116 182.834C358.334 181.72 359.541 180.561 360.705 179.39C360.901 179.192 361.221 179.191 361.418 179.387C361.616 179.584 361.617 179.903 361.42 180.1C360.245 181.283 359.026 182.453 357.797 183.578C357.709 183.658 357.6 183.702 357.49 183.709ZM219.147 186.704C219.022 186.712 218.894 186.674 218.791 186.587C217.512 185.518 216.242 184.403 215.015 183.274C214.81 183.085 214.797 182.766 214.985 182.561C215.174 182.356 215.493 182.343 215.698 182.532C216.913 183.65 218.171 184.754 219.438 185.814C219.651 185.992 219.68 186.31 219.501 186.524C219.409 186.634 219.28 186.695 219.147 186.704ZM365.862 175.122C365.734 175.13 365.603 175.09 365.499 174.999C365.289 174.817 365.267 174.498 365.449 174.288C366.533 173.042 367.602 171.753 368.626 170.457C368.799 170.238 369.116 170.201 369.334 170.374C369.553 170.546 369.59 170.864 369.417 171.082C368.384 172.39 367.305 173.692 366.21 174.95C366.118 175.056 365.992 175.114 365.862 175.122ZM210.399 178.498C210.255 178.507 210.108 178.455 210.001 178.342C208.852 177.134 207.717 175.883 206.627 174.623C206.445 174.413 206.468 174.094 206.678 173.912C206.889 173.73 207.207 173.753 207.39 173.964C208.469 175.212 209.593 176.451 210.731 177.647C210.924 177.849 210.916 178.168 210.714 178.36C210.625 178.445 210.513 178.49 210.399 178.498ZM373.211 165.638C373.102 165.645 372.99 165.617 372.893 165.55C372.663 165.392 372.605 165.078 372.763 164.849C373.7 163.487 374.616 162.084 375.486 160.681C375.633 160.444 375.944 160.371 376.181 160.518C376.417 160.665 376.49 160.976 376.344 161.212C375.465 162.629 374.54 164.045 373.594 165.42C373.503 165.553 373.36 165.628 373.211 165.638ZM202.642 169.355C202.479 169.366 202.313 169.297 202.207 169.156C201.204 167.827 200.219 166.456 199.28 165.08C199.123 164.85 199.182 164.536 199.412 164.379C199.642 164.222 199.956 164.281 200.113 164.511C201.043 165.874 202.018 167.232 203.012 168.548C203.18 168.771 203.135 169.087 202.913 169.254C202.831 169.316 202.737 169.349 202.642 169.355ZM379.439 155.378C379.348 155.384 379.256 155.366 379.17 155.32C378.924 155.19 378.831 154.884 378.962 154.638C379.738 153.177 380.49 151.679 381.195 150.186C381.314 149.934 381.614 149.826 381.866 149.945C382.118 150.064 382.226 150.365 382.107 150.616C381.395 152.124 380.636 153.637 379.852 155.112C379.767 155.272 379.607 155.367 379.439 155.378ZM195.982 159.393C195.798 159.405 195.615 159.315 195.515 159.146C194.671 157.712 193.85 156.238 193.075 154.765C192.946 154.519 193.041 154.214 193.287 154.084C193.534 153.954 193.838 154.05 193.968 154.296C194.735 155.755 195.548 157.214 196.384 158.634C196.525 158.875 196.445 159.183 196.205 159.325C196.135 159.366 196.059 159.388 195.982 159.393ZM384.462 144.473C384.39 144.478 384.316 144.467 384.245 144.439C383.986 144.337 383.858 144.045 383.961 143.785C384.566 142.245 385.142 140.67 385.672 139.104C385.762 138.841 386.048 138.699 386.312 138.789C386.575 138.878 386.717 139.164 386.627 139.428C386.092 141.008 385.51 142.598 384.899 144.154C384.825 144.342 384.651 144.461 384.462 144.473ZM190.506 148.732C190.301 148.745 190.1 148.631 190.012 148.433C189.337 146.908 188.689 145.346 188.087 143.791C187.987 143.531 188.116 143.239 188.376 143.138C188.636 143.038 188.928 143.167 189.028 143.427C189.624 144.967 190.266 146.514 190.934 148.024C191.047 148.279 190.932 148.577 190.677 148.689C190.621 148.714 190.563 148.728 190.506 148.732ZM388.208 133.061C388.155 133.064 388.1 133.059 388.046 133.045C387.776 132.973 387.616 132.697 387.688 132.428C388.113 130.827 388.504 129.195 388.852 127.578C388.91 127.306 389.179 127.133 389.45 127.191C389.723 127.25 389.896 127.518 389.838 127.79C389.487 129.423 389.092 131.07 388.662 132.687C388.605 132.901 388.418 133.047 388.208 133.061ZM186.285 137.502C186.058 137.517 185.842 137.375 185.771 137.148C185.275 135.557 184.811 133.932 184.391 132.317C184.321 132.048 184.483 131.772 184.752 131.702C185.022 131.632 185.297 131.794 185.367 132.063C185.783 133.662 186.243 135.272 186.734 136.849C186.817 137.114 186.668 137.397 186.403 137.48C186.363 137.492 186.324 137.499 186.285 137.502ZM390.618 121.297C390.583 121.299 390.548 121.298 390.512 121.293C390.237 121.253 390.046 120.997 390.086 120.721C390.324 119.087 390.525 117.425 390.684 115.78C390.71 115.503 390.958 115.3 391.234 115.327C391.511 115.354 391.714 115.6 391.687 115.877C391.527 117.538 391.323 119.216 391.083 120.866C391.049 121.107 390.85 121.282 390.618 121.297ZM183.375 125.864C183.125 125.88 182.896 125.708 182.847 125.455C182.536 123.819 182.259 122.151 182.024 120.498C181.985 120.222 182.176 119.967 182.452 119.927C182.729 119.889 182.983 120.08 183.022 120.356C183.255 121.994 183.53 123.646 183.838 125.266C183.89 125.54 183.711 125.804 183.437 125.856C183.416 125.86 183.395 125.863 183.375 125.864ZM391.659 109.346C391.644 109.347 391.627 109.347 391.611 109.346C391.333 109.338 391.114 109.106 391.122 108.828C391.171 107.177 391.181 105.503 391.151 103.851C391.146 103.572 391.369 103.342 391.646 103.338C391.924 103.333 392.154 103.554 392.159 103.832C392.189 105.5 392.18 107.191 392.13 108.857C392.122 109.119 391.916 109.329 391.659 109.346ZM181.797 113.968C181.522 113.986 181.283 113.779 181.262 113.503C181.232 113.11 181.204 112.717 181.179 112.325C181.097 111.051 181.036 109.759 181 108.485C180.992 108.206 181.208 107.976 181.49 107.966C181.768 107.958 182 108.178 182.008 108.456C182.044 109.718 182.104 110.998 182.185 112.26C182.211 112.649 182.238 113.038 182.267 113.427C182.288 113.705 182.08 113.947 181.803 113.968C181.801 113.968 181.799 113.968 181.797 113.968ZM391.329 97.353C391.056 97.3707 390.817 97.1662 390.794 96.8921C390.655 95.2489 390.475 93.5836 390.259 91.9418L390.238 91.7826C390.201 91.5066 390.395 91.253 390.671 91.2163C390.948 91.1793 391.201 91.3736 391.238 91.6497L391.259 91.8115C391.477 93.4675 391.659 95.1489 391.799 96.8075C391.822 97.085 391.616 97.329 391.339 97.3522C391.336 97.3525 391.332 97.3527 391.329 97.353ZM181.571 101.973C181.554 101.974 181.536 101.975 181.519 101.974C181.24 101.963 181.023 101.729 181.034 101.451C181.098 99.7835 181.203 98.0963 181.346 96.4353C181.37 96.1578 181.614 95.9521 181.892 95.9761C182.169 96 182.375 96.2443 182.351 96.5218C182.209 98.1669 182.105 99.838 182.042 101.489C182.032 101.75 181.826 101.957 181.571 101.973ZM389.617 85.3133C389.369 85.3294 389.141 85.1597 389.091 84.9093C388.766 83.289 388.397 81.6558 387.996 80.0545C387.928 79.7844 388.092 79.5105 388.363 79.4427C388.632 79.3752 388.907 79.5391 388.974 79.8093C389.379 81.4257 389.751 83.0748 390.08 84.7107C390.134 84.9837 389.958 85.2495 389.685 85.3043C389.662 85.309 389.64 85.3119 389.617 85.3133ZM182.717 90.0313C182.681 90.0337 182.644 90.0321 182.607 90.0264C182.332 89.984 182.143 89.7264 182.185 89.4511C182.44 87.7988 182.739 86.1305 183.073 84.4923C183.129 84.2195 183.395 84.0435 183.668 84.0989C183.941 84.1546 184.117 84.4209 184.061 84.6937C183.731 86.3163 183.434 87.9685 183.182 89.6048C183.145 89.843 182.947 90.0164 182.717 90.0313ZM386.59 73.7055C386.365 73.7202 386.151 73.5814 386.078 73.3572C385.57 71.7851 385.018 70.2044 384.436 68.6588C384.338 68.3982 384.47 68.1075 384.73 68.0094C384.991 67.9113 385.282 68.0428 385.38 68.3037C385.967 69.8639 386.525 71.46 387.038 73.0475C387.123 73.3125 386.978 73.5968 386.713 73.6823C386.672 73.6953 386.631 73.7029 386.59 73.7055ZM185.231 78.2791C185.176 78.2826 185.12 78.2772 185.064 78.262C184.796 78.1881 184.638 77.9106 184.712 77.6422C185.155 76.0319 185.643 74.4102 186.163 72.822C186.25 72.5573 186.535 72.413 186.799 72.4995C187.064 72.5862 187.208 72.871 187.121 73.1357C186.607 74.7088 186.123 76.315 185.685 77.9097C185.626 78.1222 185.439 78.2656 185.231 78.2791ZM382.256 62.5196C382.053 62.5328 381.853 62.4212 381.764 62.2253C381.079 60.7216 380.349 59.2146 379.594 57.7463C379.466 57.4987 379.564 57.1947 379.811 57.0672C380.059 56.9397 380.363 57.0371 380.491 57.2847C381.253 58.7673 381.991 60.289 382.682 61.8071C382.797 62.0606 382.685 62.3596 382.432 62.475C382.374 62.5013 382.315 62.5158 382.256 62.5196ZM189.076 66.8993C189.003 66.904 188.927 66.8929 188.855 66.8637C188.597 66.7597 188.472 66.4657 188.576 66.2074C189.2 64.6597 189.87 63.1053 190.568 61.5877C190.684 61.3346 190.983 61.2237 191.236 61.3403C191.489 61.4566 191.6 61.7559 191.484 62.0089C190.793 63.5121 190.129 65.0513 189.511 66.5844C189.436 66.7704 189.263 66.8872 189.076 66.8993ZM376.669 51.9122C376.487 51.9241 376.305 51.8364 376.204 51.6694C375.354 50.2576 374.457 48.8468 373.54 47.4763C373.385 47.2449 373.447 46.9316 373.678 46.7766C373.91 46.6217 374.223 46.6838 374.378 46.915C375.304 48.2988 376.209 49.7233 377.068 51.1488C377.212 51.3874 377.135 51.6971 376.896 51.8409C376.825 51.884 376.747 51.9072 376.669 51.9122ZM194.194 56.0382C194.102 56.0441 194.008 56.0251 193.921 55.978C193.676 55.845 193.586 55.5389 193.719 55.2941C194.514 53.8284 195.357 52.3612 196.222 50.9336C196.366 50.6955 196.676 50.6192 196.914 50.7637C197.153 50.908 197.229 51.218 197.084 51.4563C196.227 52.8704 195.393 54.3236 194.605 55.7756C194.519 55.9334 194.361 56.0273 194.194 56.0382ZM369.908 42.019C369.746 42.0294 369.582 41.9619 369.476 41.8238C368.468 40.5163 367.416 39.2162 366.347 37.9592C366.167 37.7469 366.193 37.4287 366.405 37.2484C366.618 37.0678 366.936 37.0939 367.116 37.3062C368.194 38.575 369.257 39.8879 370.274 41.2077C370.445 41.4283 370.404 41.7451 370.183 41.915C370.101 41.9787 370.005 42.0129 369.908 42.019ZM200.511 45.8327C200.401 45.8398 200.288 45.8109 200.19 45.7424C199.962 45.5827 199.907 45.2683 200.067 45.0401C201.024 43.6741 202.026 42.3126 203.047 40.9933C203.217 40.7732 203.534 40.7326 203.754 40.903C203.974 41.0734 204.015 41.3902 203.844 41.6103C202.833 42.917 201.84 44.2657 200.893 45.6187C200.801 45.7493 200.659 45.8232 200.511 45.8327ZM362.059 32.9561C361.916 32.9653 361.771 32.9144 361.664 32.804C360.514 31.6197 359.32 30.4468 358.115 29.318C357.911 29.1275 357.901 28.8086 358.091 28.6053C358.282 28.4022 358.601 28.3916 358.804 28.5821C360.021 29.7218 361.226 30.9058 362.387 32.1017C362.581 32.3014 362.577 32.6206 362.377 32.8146C362.288 32.9016 362.174 32.9485 362.059 32.9561ZM207.943 36.4126C207.813 36.4212 207.681 36.3797 207.576 36.2871C207.368 36.1025 207.348 35.7838 207.533 35.5753C208.638 34.3268 209.788 33.0883 210.951 31.8941C211.145 31.6948 211.464 31.6903 211.664 31.8846C211.863 32.0789 211.867 32.3981 211.673 32.5976C210.521 33.7804 209.383 35.0071 208.288 36.2437C208.196 36.3475 208.071 36.4043 207.943 36.4126ZM353.227 24.8393C353.104 24.8473 352.978 24.8104 352.875 24.726C351.598 23.6794 350.278 22.6487 348.952 21.663C348.728 21.4969 348.682 21.1811 348.848 20.9574C349.014 20.7339 349.33 20.6873 349.554 20.8536C350.892 21.8488 352.225 22.8892 353.515 23.946C353.73 24.1225 353.762 24.4403 353.585 24.6556C353.493 24.7682 353.362 24.8305 353.227 24.8393ZM216.391 27.8989C216.242 27.9087 216.09 27.8525 215.983 27.7329C215.797 27.5258 215.813 27.2071 216.021 27.0208C217.26 25.9065 218.542 24.807 219.832 23.7533C220.048 23.577 220.366 23.6093 220.542 23.8249C220.718 24.0405 220.686 24.3583 220.47 24.5345C219.193 25.5783 217.923 26.6671 216.695 27.7708C216.607 27.8494 216.5 27.8918 216.391 27.8989ZM343.529 17.7728C343.425 17.7795 343.318 17.7541 343.224 17.6932C341.835 16.7973 340.406 15.9225 338.977 15.0934C338.736 14.9537 338.654 14.6451 338.794 14.4042C338.933 14.1632 339.242 14.0812 339.483 14.221C340.926 15.0581 342.369 15.9412 343.771 16.8457C344.005 16.9966 344.072 17.3089 343.921 17.5428C343.831 17.6825 343.683 17.7626 343.529 17.7728ZM225.747 20.4039C225.579 20.4148 225.408 20.3406 225.303 20.193C225.142 19.966 225.195 19.6511 225.422 19.4897C226.779 18.5244 228.178 17.5792 229.579 16.68C229.813 16.5296 230.125 16.5978 230.275 16.8322C230.426 17.0665 230.358 17.3786 230.123 17.5288C228.736 18.4192 227.351 19.3556 226.006 20.3117C225.928 20.3681 225.838 20.3982 225.747 20.4039ZM333.09 11.8497C333.004 11.8551 332.916 11.839 332.834 11.7985C331.352 11.0658 329.832 10.359 328.317 9.69748C328.062 9.58612 327.945 9.28875 328.056 9.03356C328.168 8.77813 328.465 8.66179 328.72 8.77315C330.25 9.44087 331.785 10.1548 333.281 10.8943C333.531 11.0177 333.633 11.3201 333.51 11.5698C333.426 11.7371 333.263 11.8383 333.09 11.8497ZM235.892 14.0298C235.703 14.0421 235.515 13.9466 235.418 13.7699C235.284 13.5261 235.372 13.2194 235.616 13.0849C237.077 12.28 238.577 11.4997 240.074 10.7656C240.325 10.6431 240.626 10.7464 240.749 10.9966C240.872 11.2469 240.768 11.5487 240.518 11.6715C239.035 12.3982 237.549 13.1709 236.103 13.9682C236.036 14.0052 235.964 14.0251 235.892 14.0298ZM322.039 7.15198C321.972 7.15624 321.904 7.14724 321.837 7.12307C320.279 6.56387 318.687 6.03501 317.106 5.55141C316.84 5.4699 316.69 5.18816 316.771 4.92183C316.853 4.6555 317.135 4.506 317.401 4.58704C318.997 5.07562 320.605 5.60946 322.177 6.1741C322.439 6.26817 322.576 6.557 322.481 6.81906C322.411 7.01407 322.233 7.13942 322.039 7.15198ZM246.715 8.85395C246.505 8.86746 246.3 8.74733 246.216 8.54166C246.111 8.28386 246.234 7.98933 246.492 7.88413C248.034 7.25267 249.614 6.64989 251.187 6.09259C251.449 5.99947 251.737 6.13689 251.83 6.39943C251.924 6.66197 251.786 6.95009 251.524 7.04321C249.966 7.59529 248.401 8.19217 246.873 8.81747C246.822 8.83855 246.768 8.85064 246.715 8.85395ZM310.519 3.74848C310.47 3.75156 310.421 3.74777 310.371 3.73616C308.759 3.35918 307.116 3.01632 305.488 2.7173C305.214 2.66707 305.033 2.40429 305.083 2.13014C305.134 1.85623 305.397 1.67497 305.67 1.72543C307.314 2.0273 308.973 2.37348 310.601 2.75402C310.872 2.81752 311.041 3.08859 310.978 3.35989C310.925 3.58143 310.735 3.7345 310.519 3.74848ZM258.06 4.95478C257.827 4.9697 257.608 4.82114 257.542 4.58774C257.467 4.31952 257.623 4.04111 257.891 3.96576C259.495 3.51556 261.133 3.09736 262.76 2.72298C263.032 2.66067 263.302 2.83008 263.364 3.10138C263.427 3.37268 263.258 3.64352 262.986 3.70584C261.375 4.07642 259.753 4.49084 258.164 4.93677C258.129 4.94672 258.094 4.95241 258.06 4.95478ZM298.688 1.6918C298.658 1.69369 298.628 1.69298 298.597 1.68942C296.957 1.50082 295.289 1.34941 293.641 1.23947C293.363 1.22075 293.152 0.980719 293.171 0.702782C293.19 0.424845 293.43 0.214675 293.708 0.233157C295.372 0.344284 297.057 0.497107 298.712 0.687611C298.989 0.719362 299.188 0.969339 299.156 1.24609C299.128 1.49204 298.927 1.67639 298.688 1.6918ZM269.775 2.37396C269.519 2.39054 269.287 2.20976 269.245 1.95101C269.201 1.67616 269.388 1.41717 269.662 1.37287C270.689 1.207 271.733 1.0537 272.768 0.917456C273.39 0.835473 274.02 0.757995 274.642 0.687149C274.917 0.655872 275.168 0.854423 275.2 1.13118C275.231 1.40793 275.032 1.65768 274.756 1.68919C274.14 1.75933 273.516 1.83609 272.899 1.91713C271.875 2.05219 270.84 2.20407 269.823 2.36827C269.807 2.37112 269.791 2.37301 269.775 2.37396ZM286.711 1.0075C286.7 1.00821 286.689 1.00868 286.678 1.00868C285.028 1.00892 283.354 1.04895 281.702 1.12762C281.424 1.14089 281.188 0.926218 281.174 0.648043C281.161 0.372712 281.371 0.138616 281.645 0.120845C281.648 0.120608 281.651 0.120604 281.654 0.120367C283.322 0.0407536 285.012 0.000236946 286.677 0C286.956 0 287.182 0.22557 287.182 0.504218C287.182 0.771493 286.974 0.990437 286.711 1.0075Z" fill="#080852"/>
<path d="M166.5 34C137.46 34 113.829 57.6239 113.829 86.6681V179.011H138.399V86.6681C138.399 71.1704 151.003 58.5636 166.5 58.5636C181.995 58.5636 194.609 71.1711 194.609 86.6681V179.011H219.176V86.6681C219.176 57.6239 195.544 34 166.5 34Z" fill="#939598"/>
<path d="M175.07 34.7027C172.279 34.2494 169.417 34 166.5 34C137.46 34 113.829 57.6239 113.829 86.6681V179.011H123.798V86.6681C123.798 60.5413 137.381 42.8092 175.07 34.7027Z" fill="#6D6E71"/>
<path d="M183.634 58.5635C180.645 58.5635 177.767 59.0366 175.07 59.9037C186.39 63.5303 194.609 74.1529 194.609 86.6679V179.011H204.627V86.6679C204.627 71.1703 194.53 58.5635 183.634 58.5635Z" fill="#6D6E71"/>
<path d="M243 194.489C243 236.745 208.75 270.993 166.5 270.993C124.251 270.993 90 236.745 90 194.489C90 152.24 124.251 117.986 166.5 117.986C208.75 117.985 243 152.239 243 194.489Z" fill="#FBAA19"/>
<path d="M232.453 194.49C232.453 230.918 202.925 260.455 166.5 260.455C130.075 260.455 100.545 230.918 100.545 194.49C100.545 158.061 130.075 128.543 166.5 128.543C202.925 128.543 232.453 158.06 232.453 194.49Z" fill="#FFD200"/>
<path d="M185.227 183.813C185.227 173.473 176.844 165.076 166.5 165.076C156.157 165.076 147.771 173.473 147.771 183.813C147.771 190.633 151.423 196.578 156.863 199.85L150.185 233.558H182.813L176.138 199.85C181.578 196.579 185.227 190.633 185.227 183.813Z" fill="#414042"/>
</svg>
