<svg width="417" height="382" viewBox="0 0 417 382" fill="none" xmlns="http://www.w3.org/2000/svg">
<path opacity="0.56" d="M210.5 382C324.547 382 417 366.33 417 347C417 327.67 324.547 312 210.5 312C96.4532 312 4 327.67 4 347C4 366.33 96.4532 382 210.5 382Z" fill="#02233E" fill-opacity="0.5"/>
<path d="M250.956 288.861H180.714L183.199 258.048H248.472L250.956 288.861Z" fill="#E6E6E6"/>
<path d="M255.596 285.382H177.236V292.506H255.596V285.382Z" fill="#E6E6E6"/>
<path d="M349.528 58.4208H81.6471C77.6711 58.4208 74.5234 61.5684 74.5234 65.5444V228.891H356.652V65.5444C356.652 61.7341 353.504 58.4208 349.528 58.4208Z" fill="#080852"/>
<path d="M74.5234 229.056V255.728C74.5234 259.704 77.6711 262.852 81.6471 262.852H349.528C353.504 262.852 356.652 259.704 356.652 255.728V229.056H74.5234Z" fill="#E6E6E6"/>
<path d="M343.565 73.8278H89.2683V216.466H343.565V73.8278Z" fill="#E6E6E6"/>
<path d="M216.499 253.243C220.433 253.243 223.622 250.054 223.622 246.12C223.622 242.185 220.433 238.996 216.499 238.996C212.564 238.996 209.375 242.185 209.375 246.12C209.375 250.054 212.564 253.243 216.499 253.243Z" fill="#3F3D56"/>
<path d="M336.275 83.105H95.8949V202.881H336.275V83.105Z" fill="white"/>
<path d="M41.7226 134.461C44.7046 132.639 53.3192 134.461 51.8282 143.904C50.3372 153.347 61.4368 150.862 59.1175 161.796C56.6325 172.73 37.084 188.965 25.1561 177.865C13.0625 166.766 23.3338 161.962 23.0024 148.874C22.8368 141.253 26.3157 127.337 41.7226 134.461Z" fill="#603913"/>
<path d="M23.9956 177.534C23.9956 177.534 24.1612 177.534 23.9956 177.534C24.1612 177.368 24.1612 177.203 24.1612 177.203C16.7063 169.748 18.5286 165.275 20.6822 159.642C21.8419 156.495 23.1672 153.016 23.3329 148.377C23.4986 143.407 25.3209 136.615 29.9595 133.798C33.2728 131.81 37.5802 132.142 42.7158 134.792C42.8814 134.792 42.8814 134.792 43.0471 134.627C43.2127 134.461 43.0471 134.461 42.8815 134.295C37.5802 131.479 33.1072 131.148 29.6282 133.301C24.6583 136.118 22.8359 143.241 22.6703 148.211C22.5046 152.85 21.1793 156.329 20.0196 159.477C18.0316 165.275 16.2093 169.914 23.9956 177.534C23.8299 177.534 23.9956 177.534 23.9956 177.534Z" fill="#3C2415"/>
<path d="M22.3394 176.374C22.3394 176.374 22.1737 176.54 22.1737 176.706L21.8424 177.203C21.6767 177.534 21.3454 177.865 21.1797 178.031C20.6827 178.528 20.1857 179.191 19.5231 179.688C18.3634 180.847 17.0381 181.841 15.7127 182.67C14.2217 183.498 12.8965 184.326 11.2398 185.155C10.4115 185.486 9.74882 185.817 8.9205 186.149C8.75483 186.149 8.92045 186.149 9.08612 186.149C9.25179 186.149 9.2518 186.314 9.2518 186.149C9.08613 186.149 8.58913 185.652 8.42347 184.989C8.09214 184.326 7.76081 183.664 7.59514 182.835C7.09815 181.344 6.60117 179.522 6.26984 177.865C5.93851 176.209 5.60718 174.386 5.44151 172.564C5.11018 170.742 4.94452 168.919 4.77886 167.263H1.63117C1.29984 171.073 1.46551 174.718 1.63117 178.528C1.79684 180.35 2.12817 182.338 2.4595 184.326C2.62517 185.32 2.95651 186.314 3.4535 187.308C3.9505 188.302 4.44753 189.462 5.60719 190.622C6.26985 191.119 7.09817 191.616 8.09217 191.781C9.08616 191.947 10.2458 191.781 10.9085 191.616C11.9024 191.284 12.7308 190.953 13.7248 190.622C15.5471 189.959 17.3694 188.965 19.026 187.971C20.6827 186.977 22.3394 185.817 23.996 184.492C24.8243 183.829 25.487 183.001 26.1497 182.338C26.481 182.007 26.8124 181.51 27.1437 181.179L27.6407 180.516C27.8063 180.185 27.972 180.019 28.1376 179.688L22.3394 176.374Z" fill="#C89F82"/>
<path d="M23.3336 173.558C16.0443 178.197 16.5413 181.179 16.5413 181.179L21.18 187.805C21.18 187.805 32.9422 183.167 33.6049 179.356C34.4332 175.546 26.9783 171.239 23.3336 173.558Z" fill="#FFDE17"/>
<path opacity="0.1" d="M23.3336 173.558C16.0443 178.197 16.5413 181.179 16.5413 181.179L21.18 187.805C21.18 187.805 32.9422 183.167 33.6049 179.356C34.4332 175.546 26.9783 171.239 23.3336 173.558Z" fill="#FFDE17"/>
<path d="M16.2101 180.351C15.8788 180.516 15.8788 181.013 16.0444 181.179L20.683 187.971C20.8487 188.303 21.3457 188.303 21.5114 188.137C21.8427 187.971 21.8427 187.474 21.677 187.309L17.0384 180.516C16.8728 180.351 16.5414 180.185 16.2101 180.351Z" fill="#407BFF"/>
<path d="M3.78507 168.919L7.42968 164.115L0.471758 162.293C0.471758 162.293 -1.01923 166.6 1.30009 169.748L3.78507 168.919Z" fill="#C89F82"/>
<path d="M7.26471 157.986L1.46641 156.992L0.472412 162.127L7.43033 163.95L7.26471 157.986Z" fill="#C89F82"/>
<path d="M66.2413 347.01L59.6147 347.672L54.8104 332.1L61.437 331.437L66.2413 347.01Z" fill="#FFC3BD"/>
<path d="M108.486 323.982L103.516 328.621L92.9134 316.859L97.8834 312.386L108.486 323.982Z" fill="#FFC3BD"/>
<path d="M101.196 326.467L104.84 319.841C105.006 319.675 105.172 319.509 105.503 319.675L111.136 321.829C111.798 321.994 111.964 322.823 111.633 323.32C110.307 325.639 109.479 326.633 107.988 329.615C106.994 331.437 105.006 335.579 103.681 338.064C102.355 340.549 99.7046 339.389 100.036 338.23C101.693 333.094 101.361 330.112 100.864 327.793C101.03 327.13 101.03 326.799 101.196 326.467Z" fill="#263238"/>
<path d="M58.7854 345.685H66.903C67.2344 345.685 67.4 345.85 67.5657 346.182L69.388 352.477C69.5537 353.14 69.0567 353.802 68.394 353.802C65.5777 353.802 64.2524 353.802 60.6077 353.802C58.4541 353.802 52.8214 353.802 49.8395 353.802C46.8575 353.802 46.3605 350.82 47.5202 350.489C52.9871 349.329 56.1348 347.673 57.7914 346.016C57.9571 345.85 58.4541 345.685 58.7854 345.685Z" fill="#263238"/>
<path opacity="0.2" d="M54.8104 332.1L57.2953 340.218H64.0876L61.437 331.437L54.8104 332.1Z" fill="black"/>
<path opacity="0.2" d="M97.8834 312.386L92.9134 316.859L98.3804 322.988L103.35 318.35L97.8834 312.386Z" fill="black"/>
<path d="M23.333 173.558C23.333 173.558 20.6823 175.381 37.5802 211.993C48.1828 209.011 58.9511 206.029 64.0867 204.703C60.6077 194.101 58.7854 187.308 57.7914 163.784C57.7914 163.784 51.8275 164.115 46.0292 165.441C41.5562 166.435 37.7459 167.263 33.9356 168.754C29.1313 170.576 23.333 173.558 23.333 173.558Z" fill="#FFDE17"/>
<path opacity="0.1" d="M23.333 173.558C23.333 173.558 20.6823 175.381 37.5802 211.993C48.1828 209.011 58.9511 206.029 64.0867 204.703C60.6077 194.101 58.7854 187.308 57.7914 163.784C57.7914 163.784 51.8275 164.115 46.0292 165.441C41.5562 166.435 37.7459 167.263 33.9356 168.754C29.1313 170.576 23.333 173.558 23.333 173.558Z" fill="#FFDE17"/>
<path d="M41.226 152.022C41.5574 156.163 42.717 163.453 46.196 165.275C46.196 165.275 48.184 172.067 39.5694 174.552C32.2801 176.706 34.1024 168.588 34.1024 168.588C38.0783 166.435 35.5934 162.459 34.9307 157.986L41.226 152.022Z" fill="#C89F82"/>
<path opacity="0.2" d="M41.2248 152.022C41.3905 155.335 42.2188 160.636 44.3725 163.618C41.8875 163.784 38.0772 163.121 36.9175 161.299C36.5862 160.802 36.0892 158.98 35.5922 157.323L41.2248 152.022Z" fill="black"/>
<path d="M30.4569 146.058C30.4569 152.85 30.2913 155.666 33.6046 159.311C38.4089 164.778 46.6922 163.287 48.6801 156.66C50.5025 150.696 50.1711 140.756 43.7102 137.609C37.2492 134.627 30.4569 139.431 30.4569 146.058Z" fill="#C89F82"/>
<path d="M44.3729 142.413C40.5626 147.714 27.8064 155.004 26.9781 147.88C26.1497 140.757 32.6107 133.799 39.0716 134.461C45.5326 135.29 47.6862 137.94 44.3729 142.413Z" fill="#603913"/>
<path d="M27.6405 152.353C28.3032 153.678 29.2972 154.507 30.4569 154.838C32.1135 155.335 32.9418 154.01 32.6105 152.353C32.2792 150.862 30.9538 148.874 29.2972 149.04C27.6405 149.205 26.9779 151.028 27.6405 152.353Z" fill="#C89F82"/>
<path d="M37.5802 211.993C37.5802 211.993 28.1373 250.261 34.2669 279.253C38.4086 298.636 53.3184 337.898 53.3184 337.898L65.0807 337.567C65.0807 337.567 53.8154 296.482 51.3304 280.247C47.3545 252.581 56.7974 206.691 56.7974 206.691L37.5802 211.993Z" fill="#407BFF"/>
<path opacity="0.2" d="M48.1828 217.46L53.9811 226.737C52.4901 236.345 50.9991 248.273 50.6678 259.87C42.3845 244.96 46.1948 225.246 48.1828 217.46Z" fill="black"/>
<path d="M51.3317 338.395L66.2416 338.064L65.2476 332.763L50.1721 333.922L51.3317 338.395Z" fill="#263238"/>
<path d="M43.3788 210.502C43.3788 210.502 48.8457 252.415 60.608 276.105C70.2166 295.322 95.5634 322.657 95.5634 322.657L102.024 316.03C102.024 316.03 84.7952 286.376 77.6716 273.62C60.2767 242.309 75.6835 214.312 63.9213 204.703L43.3788 210.502Z" fill="#407BFF"/>
<path d="M95.0664 323.485L103.35 315.368L100.533 311.557L91.4218 321L95.0664 323.485Z" fill="#263238"/>
<path d="M64.0867 202.881L65.909 204.869C66.0747 205.035 65.909 205.2 65.5777 205.366L37.7459 213.152C37.5802 213.152 37.2489 213.152 37.2489 212.987L36.4205 210.667C36.4205 210.502 36.5862 210.336 36.7519 210.17L63.5897 202.715C63.7554 202.881 63.921 202.881 64.0867 202.881Z" fill="#407BFF"/>
<path opacity="0.5" d="M64.0867 202.881L65.909 204.869C66.0747 205.035 65.909 205.2 65.5777 205.366L37.7459 213.152C37.5802 213.152 37.2489 213.152 37.2489 212.987L36.4205 210.667C36.4205 210.502 36.5862 210.336 36.7519 210.17L63.5897 202.715C63.7554 202.881 63.921 202.881 64.0867 202.881Z" fill="white"/>
<path d="M61.2713 207.023L61.934 206.857C62.0996 206.857 62.0996 206.691 62.0996 206.691L60.94 203.709C60.94 203.544 60.7743 203.544 60.6086 203.544L59.9459 203.709C59.7803 203.709 59.7803 203.875 59.7803 203.875L60.94 206.857C60.94 207.023 61.1056 207.023 61.2713 207.023Z" fill="#407BFF"/>
<path d="M39.8998 212.821L40.5624 212.655C40.7281 212.655 40.7281 212.49 40.7281 212.49L39.5685 209.508C39.5685 209.342 39.4028 209.342 39.2371 209.342L38.5745 209.508C38.4088 209.508 38.4088 209.673 38.4088 209.673L39.5685 212.655C39.5685 212.821 39.7341 212.987 39.8998 212.821Z" fill="#407BFF"/>
<path d="M50.5031 209.839L51.1658 209.673C51.3314 209.673 51.3314 209.507 51.3314 209.507L50.1718 206.525C50.1718 206.36 50.0061 206.36 49.8404 206.36L49.1778 206.525C49.0121 206.525 49.0121 206.691 49.0121 206.691L50.1718 209.673C50.3374 209.839 50.5031 210.004 50.5031 209.839Z" fill="#407BFF"/>
<path d="M57.2953 173.724C57.958 174.718 58.6207 175.546 59.2834 176.54C59.946 177.369 60.6087 178.197 61.437 179.025C62.928 180.682 64.419 182.173 66.0756 183.664C67.7323 185.155 69.3889 186.48 71.2112 187.806C72.0396 188.468 73.0336 188.965 74.0276 189.628L75.5185 190.456L76.1812 190.788C76.5125 190.953 76.8439 191.119 77.1752 191.285C78.5005 191.947 80.1572 192.113 81.8139 191.947C83.4705 191.616 84.7958 190.953 85.7898 189.959C86.7838 189.131 87.6121 188.137 88.2748 187.143C88.9375 186.149 89.6001 185.155 90.0971 184.161C92.0851 180.019 93.2448 176.043 93.9074 171.736L90.7598 171.073C90.0971 172.896 89.4344 174.884 88.6061 176.706C87.7778 178.528 86.9495 180.351 85.9555 181.842C84.9615 183.498 83.8019 184.989 82.6422 185.818C81.9795 186.149 81.4825 186.48 80.9855 186.48C80.4885 186.48 80.1572 186.48 79.4945 186.149C79.3288 186.149 79.1632 185.983 78.9975 185.818L78.1692 185.321L77.0095 184.492C76.1812 183.83 75.3529 183.333 74.6902 182.836C73.1992 181.676 71.7083 180.351 70.2173 179.025C68.7263 177.7 67.401 176.209 66.0756 174.718C65.413 174.055 64.7503 173.227 64.2533 172.399C63.5907 171.57 63.0937 170.742 62.5967 170.079L57.2953 173.724Z" fill="#FFC3BD"/>
<path d="M89.9311 173.889L89.2684 166.6L95.8951 169.251C95.8951 169.251 95.0667 172.895 92.5817 174.221L89.9311 173.889Z" fill="#FFC3BD"/>
<path d="M91.4221 162.624L96.392 161.63L95.8951 169.251L89.2684 166.6L91.4221 162.624Z" fill="#FFC3BD"/>
<path d="M57.7923 163.618C61.2713 163.618 69.3889 176.706 69.3889 176.706L63.5906 182.67C63.5906 182.67 52.6567 175.215 52.1597 170.908C51.994 167.263 53.485 163.618 57.7923 163.618Z" fill="#FFDE17"/>
<path opacity="0.1" d="M57.7923 163.618C61.2713 163.618 69.3889 176.706 69.3889 176.706L63.5906 182.67C63.5906 182.67 52.6567 175.215 52.1597 170.908C51.994 167.263 53.485 163.618 57.7923 163.618Z" fill="#FFDE17"/>
<path d="M63.0933 183.001C63.259 183.167 63.756 183.332 63.9216 183.001L69.7199 177.203C69.8856 177.037 70.0513 176.54 69.7199 176.374C69.5543 176.209 69.0573 176.043 68.8916 176.374L63.0933 182.173C62.9276 182.338 62.9276 182.67 63.0933 183.001Z" fill="#407BFF"/>
<path d="M100.202 329.946C101.031 329.615 101.528 328.124 101.859 327.296V327.13H101.693C101.528 327.296 99.374 328.455 99.2084 329.284C99.2084 329.449 99.2083 329.615 99.374 329.781C99.5397 329.946 99.7054 329.946 100.037 329.946H100.202ZM100.202 329.615C100.037 329.615 99.871 329.615 99.5397 329.449C99.374 329.284 99.374 329.284 99.374 329.284C99.374 328.787 100.699 327.958 101.362 327.461C101.031 328.787 100.534 329.449 100.202 329.615Z" fill="#407BFF"/>
<path d="M101.693 327.461C101.859 327.296 101.859 327.296 101.693 327.461C101.693 327.296 101.693 327.296 101.693 327.296C101.693 327.296 99.8711 326.302 99.0428 326.633C98.8771 326.799 98.7114 326.799 98.5457 327.13C98.3801 327.461 98.5457 327.627 98.7114 327.793C98.8771 327.958 99.2084 327.958 99.7054 327.958C100.368 327.958 101.362 327.627 101.693 327.461ZM101.362 327.296C100.699 327.627 99.2084 327.793 98.8771 327.461C98.8771 327.461 98.7114 327.296 98.8771 327.13C98.8771 326.964 99.0428 326.799 99.2084 326.799C99.3741 326.799 99.3741 326.799 99.5397 326.799C100.202 326.633 101.031 327.13 101.362 327.296Z" fill="#407BFF"/>
<path d="M57.4604 346.679C57.4604 346.679 57.626 346.679 57.4604 346.679C57.626 346.513 57.4604 346.513 57.4604 346.347C57.129 346.182 54.1471 344.856 53.4844 345.353C53.3187 345.353 53.3187 345.519 53.3187 345.685C53.3187 346.016 53.4844 346.182 53.6501 346.513C53.9814 346.844 54.6441 346.844 55.1411 346.844C55.9694 347.01 56.7977 346.844 57.4604 346.679ZM56.9634 346.513C56.1351 346.679 54.4784 346.844 53.8157 346.347C53.65 346.182 53.4844 346.016 53.4844 345.85C53.4844 345.685 53.4844 345.685 53.4844 345.685C53.4844 345.685 53.65 345.685 53.8157 345.685C54.644 345.519 55.9694 346.016 56.9634 346.513Z" fill="#407BFF"/>
<path d="M57.4602 346.678C57.6259 346.678 57.6259 346.513 57.4602 346.678C57.4602 346.347 56.7976 343.531 55.3066 343.696C54.9753 343.696 54.8096 343.862 54.8096 344.028C54.6439 344.856 56.4662 346.347 57.4602 346.678ZM57.2946 346.347C56.3006 345.85 54.9753 344.69 55.1409 344.193C55.1409 344.193 55.1409 344.028 55.4722 344.028C55.4722 344.028 55.4722 344.028 55.6379 344.028C56.4662 344.028 56.9632 345.684 57.2946 346.347Z" fill="#407BFF"/>
<path d="M187.507 134.627L78.665 134.461C70.216 134.461 63.2581 141.419 63.2581 149.868L62.9268 335.413C62.9268 343.862 69.8847 350.82 78.3337 350.82L187.176 350.986C195.625 350.986 202.583 344.028 202.583 335.579L202.914 150.034C202.914 141.585 195.956 134.627 187.507 134.627Z" fill="#89CAF7"/>
<path d="M186.512 147.383H174.585C173.591 147.383 172.597 147.88 172.1 148.708L169.283 153.016C166.301 157.489 161.497 160.139 156.196 159.974L109.975 159.808C104.674 159.808 99.7038 157.157 96.8875 152.684L94.0712 148.377C93.5742 147.549 92.5802 147.052 91.5862 147.052H79.6583C78.0016 147.052 76.6763 148.377 76.6763 150.034L76.345 334.916C76.345 336.573 77.6703 337.898 79.327 337.898L186.181 338.064C187.838 338.064 189.163 336.739 189.163 335.082L189.494 150.199C189.66 148.708 188.169 147.383 186.512 147.383Z" fill="#D2EBFF"/>
<path d="M245.325 271.963L144.766 271.798C141.95 271.798 139.631 274.117 139.631 276.933L139.465 333.922C139.465 336.739 141.784 339.058 144.6 339.058L245.159 339.224C247.976 339.224 250.295 336.904 250.295 334.088L250.461 277.099C250.461 274.283 248.141 271.963 245.325 271.963Z" fill="#073A93"/>
<path d="M237.705 329.946H154.209C153.547 329.946 153.05 330.443 153.05 331.106V331.272C153.05 331.934 153.547 332.431 154.209 332.431H237.705C238.367 332.431 238.864 331.934 238.864 331.272V331.106C238.864 330.443 238.202 329.946 237.705 329.946Z" fill="#489BFF"/>
<path d="M237.705 329.946H178.563V332.431H237.54C238.202 332.431 238.699 331.934 238.699 331.272V331.106C238.865 330.443 238.202 329.946 237.705 329.946Z" fill="#89CAF7"/>
<path d="M178.23 333.757C179.694 333.757 180.881 332.57 180.881 331.106C180.881 329.642 179.694 328.455 178.23 328.455C176.766 328.455 175.58 329.642 175.58 331.106C175.58 332.57 176.766 333.757 178.23 333.757Z" fill="white"/>
<path d="M194.962 316.196C204.02 316.196 211.363 309.076 211.363 300.292C211.363 291.509 204.02 284.388 194.962 284.388C185.904 284.388 178.561 291.509 178.561 300.292C178.561 309.076 185.904 316.196 194.962 316.196Z" fill="white"/>
<path d="M192.311 294.991L200.097 298.801C201.588 299.464 201.588 301.617 200.097 302.28L192.311 306.09C190.986 306.753 189.495 305.759 189.495 304.268V296.482C189.495 295.322 191.151 294.328 192.311 294.991Z" fill="#073A93"/>
<path d="M300.912 175.148L224.072 196.446C221.928 197.117 220.609 199.297 221.104 201.645L232.976 245.918C233.636 248.099 235.779 249.44 238.088 248.937L314.928 227.807C317.072 227.136 318.391 224.956 317.896 222.608L306.024 178.334C305.364 175.986 303.056 174.645 300.912 175.148Z" fill="#5BC5F2"/>
<path d="M285.748 192.941L245.988 203.875C244.497 204.206 243.669 205.863 244 207.354C244.332 208.845 245.988 209.673 247.479 209.342L287.239 198.408C288.73 198.077 289.558 196.42 289.227 194.929C288.73 193.438 287.239 192.61 285.748 192.941Z" fill="#073A93"/>
<path d="M279.784 208.017L258.91 213.649C257.419 213.981 256.591 215.637 256.922 217.128C257.253 218.619 258.91 219.448 260.401 219.116L281.275 213.484C282.766 213.152 283.594 211.496 283.263 210.005C282.766 208.514 281.275 207.685 279.784 208.017Z" fill="#073A93"/>
<path d="M289.558 218.619L255.597 227.897C254.106 228.228 253.277 229.884 253.609 231.375C253.94 232.866 255.597 233.695 257.088 233.363L291.049 224.086C292.54 223.755 293.368 222.098 293.037 220.607C292.706 219.116 291.049 218.122 289.558 218.619Z" fill="#073A93"/>
<path d="M131.182 243.8L39.4031 214.312C36.7524 213.484 33.9361 214.975 33.1077 217.459L16.3756 269.478C15.5472 272.129 17.0382 274.945 19.5232 275.774L111.302 305.262C113.953 306.091 116.769 304.6 117.597 302.115L134.495 249.93C135.323 247.445 133.832 244.629 131.182 243.8Z" fill="#FFAA45"/>
<path d="M119.585 262.189L77.8377 248.936C76.8437 248.605 75.8498 249.102 75.5184 250.096C75.1871 251.09 75.6841 252.084 76.6781 252.415L118.426 265.668C119.42 266 120.414 265.502 120.745 264.509C121.242 263.515 120.579 262.521 119.585 262.189Z" fill="white"/>
<path d="M107.491 267.987L75.1862 257.716C74.1922 257.385 73.1981 257.882 72.8668 258.876C72.5355 259.87 73.0325 260.864 74.0265 261.195L106.331 271.466C107.325 271.798 108.319 271.301 108.651 270.307C108.982 269.313 108.485 268.319 107.491 267.987Z" fill="white"/>
<path d="M100.368 274.945L72.5362 266C71.5422 265.668 70.5482 266.165 70.2169 267.159C69.8855 268.153 70.3825 269.147 71.3765 269.478L99.2083 278.424C100.202 278.756 101.196 278.259 101.528 277.265C101.859 276.271 101.362 275.111 100.368 274.945Z" fill="white"/>
<path d="M49.6232 249.152C53.2849 250.318 57.2435 248.154 58.465 244.317C59.6864 240.481 57.7081 236.426 54.0463 235.26C50.3846 234.095 46.4259 236.259 45.2045 240.095C43.9831 243.932 45.9614 247.986 49.6232 249.152Z" fill="white"/>
<path d="M56.4663 256.888L52.8217 254.237C50.171 252.415 47.0233 251.421 43.8757 251.421H39.4028C36.5864 251.421 34.2671 253.243 33.4388 255.894L31.2852 262.355L41.3907 265.503L46.5263 267.159L56.632 270.307L58.7856 263.846C59.6139 261.361 58.7856 258.379 56.4663 256.888Z" fill="white"/>
<path d="M122.253 174.118H200.447C204.589 174.118 208.068 177.597 208.068 181.738V220.007C208.068 224.149 204.589 227.628 200.447 227.628H173.444L161.35 239.721L149.257 227.628H122.253C118.111 227.628 114.633 224.149 114.633 220.007V181.738C114.467 177.597 117.946 174.118 122.253 174.118Z" fill="#407BFF"/>
<path opacity="0.3" d="M122.253 174.118H200.447C204.589 174.118 208.068 177.597 208.068 181.738V220.007C208.068 224.149 204.589 227.628 200.447 227.628H173.444L161.35 239.721L149.257 227.628H122.253C118.111 227.628 114.633 224.149 114.633 220.007V181.738C114.467 177.597 117.946 174.118 122.253 174.118Z" fill="white"/>
<path d="M127.223 187.536V214.705C127.223 216.858 129.046 218.681 131.199 218.681H191.501C193.655 218.681 195.477 216.858 195.477 214.705V187.536C195.477 187.039 195.312 186.542 195.146 186.045C194.483 184.554 193.158 183.56 191.501 183.56H131.199C129.543 183.56 128.217 184.554 127.555 186.045C127.223 186.376 127.223 186.873 127.223 187.536Z" fill="white"/>
<path opacity="0.1" d="M127.389 185.88L156.546 198.636C159.528 199.961 162.841 199.961 165.823 198.636L194.98 185.88C194.317 184.389 192.992 183.395 191.335 183.395H131.033C129.542 183.395 128.051 184.555 127.389 185.88Z" fill="black"/>
<path d="M120.597 189.193C127.001 189.193 132.193 184.001 132.193 177.597C132.193 171.192 127.001 166 120.597 166C114.192 166 109 171.192 109 177.597C109 184.001 114.192 189.193 120.597 189.193Z" fill="#DE5753"/>
<path d="M122.749 184.72H120.099V174.449C119.105 175.443 117.945 176.106 116.62 176.437V173.952C117.282 173.786 118.111 173.289 118.939 172.627C119.767 171.964 120.264 171.301 120.596 170.307H122.749V184.72Z" fill="white"/>
<path d="M412.812 51.7942C410.824 51.7942 409.002 50.3032 408.836 48.3152C405.026 22.6371 380.839 4.74517 355.161 8.72114C353.007 9.05247 350.853 7.56149 350.522 5.24218C350.191 3.08853 351.682 0.934871 354.001 0.60354C384.152 -3.86943 412.481 17.0044 416.954 47.1555C417.285 49.3092 415.794 51.4628 413.475 51.7942C413.309 51.7942 412.978 51.7942 412.812 51.7942Z" fill="white"/>
<path d="M392.601 54.7763C390.613 54.7763 388.956 53.2853 388.625 51.2973C386.471 36.7187 372.887 26.7788 358.308 28.9325C356.154 29.2638 354.001 27.7728 353.669 25.4535C353.338 23.2998 354.829 21.1462 357.149 20.8148C376.2 17.9985 393.926 31.0861 396.743 50.1376C397.074 52.2913 395.583 54.4449 393.264 54.7763C392.932 54.7763 392.767 54.7763 392.601 54.7763Z" fill="white"/>
<path d="M372.224 57.9239C370.236 57.9239 368.414 56.4329 368.248 54.4449C367.917 52.7883 367.089 51.2973 365.763 50.469C364.438 49.475 362.781 49.1436 361.125 49.3093C358.971 49.6406 356.817 48.1496 356.486 45.8303C356.155 43.6767 357.646 41.523 359.965 41.1917C363.775 40.6947 367.586 41.523 370.568 43.8423C373.715 46.1617 375.703 49.475 376.2 53.2853C376.532 55.4389 375.041 57.5926 372.721 57.9239C372.721 57.9239 372.556 57.9239 372.224 57.9239Z" fill="white"/>
<path d="M308 240.043C308 240.043 309.93 302.991 313.308 310.942C316.042 317.569 317.65 339.6 318.133 346.724C318.294 348.214 318.294 349.043 318.294 349.043C318.294 349.043 327.301 349.043 327.783 346.724C328.266 344.404 330.035 319.059 327.783 311.108C325.531 303.157 331 243.521 331 243.521L308 240.043Z" fill="#2F2E41"/>
<path d="M320.623 345.875C320.623 345.875 314.784 347.54 313.617 349.871C312.449 352.202 293.264 356.198 299.103 359.195C304.942 362.025 322.291 356.864 322.291 356.864C322.291 356.864 331.633 356.364 330.966 352.868C330.465 349.372 328.297 345.043 328.297 345.043L320.623 345.875Z" fill="#2F2E41"/>
<path d="M336.623 347.716C336.623 347.716 330.784 349.4 329.616 351.757C328.449 354.114 309.264 358.155 315.103 361.185C320.942 364.047 338.291 358.828 338.291 358.828C338.291 358.828 347.633 358.323 346.966 354.787C346.465 351.252 344.297 347.043 344.297 347.043L336.623 347.716Z" fill="#2F2E41"/>
<path d="M323.187 162.79H215.008V90.5598H323.187V162.79ZM215.67 162.293H322.69V91.2225H215.67V162.293Z" fill="#D0CDE1"/>
<path d="M251.951 121.042H239.029V155.004H251.951V121.042Z" fill="#3F3D56"/>
<path d="M275.641 134.13H262.719V154.838H275.641V134.13Z" fill="#3F3D56"/>
<path d="M299.332 106.961H286.41V154.838H299.332V106.961Z" fill="#3F3D56"/>
<path d="M269.18 127.503C272.748 127.503 275.641 124.611 275.641 121.042C275.641 117.474 272.748 114.581 269.18 114.581C265.612 114.581 262.719 117.474 262.719 121.042C262.719 124.611 265.612 127.503 269.18 127.503Z" fill="#3F3D56"/>
<path d="M312 243.356L320.142 257.052L333.602 304.904C333.602 304.904 332.273 348.796 333.935 348.796C335.596 348.796 344.902 351.601 345.4 348.796C345.899 346.321 352.379 323.22 349.056 307.709C346.896 297.974 345.566 288.073 345.068 278.173L343.572 251.441C343.572 251.441 349.388 241.046 343.074 239.396C336.926 237.581 312 243.356 312 243.356Z" fill="#2F2E41"/>
<path d="M320 154.043C327.732 154.043 334 147.999 334 140.543C334 133.087 327.732 127.043 320 127.043C312.268 127.043 306 133.087 306 140.543C306 147.999 312.268 154.043 320 154.043Z" fill="#FFB8B8"/>
<path d="M318 150.022C318 150.022 320.409 167.851 319.72 168.975C319.204 170.1 334 156.768 334 156.768C334 156.768 328.667 148.898 329.871 145.043L318 150.022Z" fill="#FFB8B8"/>
<path d="M350 167.821C350 167.821 334.015 156.367 333.356 154.043L321.326 164.335L319.348 161.845C319.348 161.845 309.955 171.141 309.955 175.291C309.955 179.275 309.461 191.393 311.109 194.879C312.757 198.365 306 242.19 306 242.19C306 242.19 311.768 247.336 312.262 248C312.757 248.498 335.663 244.514 335.663 244.514C335.663 244.514 347.034 243.352 347.034 241.692C347.034 240.032 343.573 213.969 344.727 207.163C346.045 200.191 350 167.821 350 167.821Z" fill="#575A89"/>
<path d="M314.072 133.642C315.897 133.003 318.054 132.683 320.045 133.163C322.7 133.962 324.691 136.199 326.682 138.116C328.673 140.033 331.66 141.631 334.314 140.832C334.148 139.714 334.48 138.595 335.144 137.637C335.476 137.317 335.808 136.838 335.974 136.358C336.14 135.719 335.476 135.08 335.31 134.281C334.978 133.003 335.808 131.405 334.812 130.766C334.48 130.606 334.148 130.606 333.817 130.287C332.655 129.488 333.983 127.73 333.153 126.612C332.987 126.292 332.655 126.133 332.323 125.973C327.014 122.937 320.377 122.937 314.238 123.097C313.408 123.097 312.247 123.576 312.413 124.375C311.251 123.576 309.758 124.695 308.762 125.813L306.771 127.89C305.942 128.849 305.112 129.807 304.448 130.926C303.785 132.044 303.785 133.642 304.946 134.121C304.117 133.802 302.955 138.755 307.103 137.956C309.26 137.477 311.417 134.441 314.072 133.642Z" fill="#2F2E41"/>
<path d="M354.031 184.043C354.031 184.043 356.851 221.788 352.87 222.957C348.89 224.126 334.461 232.811 311.408 230.473C311.408 230.473 289.018 242.664 292.335 230.974C295.818 219.45 311.408 222.289 311.408 222.289C311.408 222.289 339.105 216.443 340.266 212.435C341.427 208.427 336.783 191.558 338.607 191.057C340.431 190.556 354.031 184.043 354.031 184.043Z" fill="#FFB8B8"/>
<path d="M341.129 169.203L350.395 168.043C350.395 168.043 359.661 185.942 354.366 188.76C349.237 191.577 336 193.897 336 192.737C336 191.577 341.129 169.203 341.129 169.203Z" fill="#575A89"/>
</svg>
