<?xml version="1.0" encoding="utf-8"?>
<!-- Generator: Adobe Illustrator 16.0.0, SVG Export Plug-In . SVG Version: 6.00 Build 0)  -->
<!DOCTYPE svg PUBLIC "-//W3C//DTD SVG 1.1//EN" "http://www.w3.org/Graphics/SVG/1.1/DTD/svg11.dtd">
<svg version="1.1" id="Layer_1" xmlns="http://www.w3.org/2000/svg" xmlns:xlink="http://www.w3.org/1999/xlink" x="0px" y="0px"
	 width="512px" height="342.5px" viewBox="0 0 512 342.5" enable-background="new 0 0 512 342.5" xml:space="preserve">
<path fill="#FF4B55" d="M511.808,333.518c0,5.521-4.479,10-10,10H10.192c-5.522,0-10-4.479-10-10V10c0-5.522,4.478-10,10-10h491.615
	c5.521,0,10,4.478,10,10L511.808,333.518L511.808,333.518z"/>
<path fill="#F5F7FA" d="M383.906,0.001H128.092v343.519h255.813L383.906,0.001L383.906,0.001z"/>
<path fill="#FF4B55" d="M256.006,65.744l-18.021,33.601c-2.037,3.655-5.706,3.317-9.36,1.268l-13.043-6.744l9.726,51.596
	c2.037,9.429-4.519,9.429-7.756,5.354l-22.755-25.479l-3.696,12.936c-0.432,1.699-2.307,3.48-5.112,3.063l-28.771-6.057
	l7.554,27.489c1.619,6.11,2.887,8.646-1.632,10.252l-10.251,4.829l49.531,40.224c1.956,1.537,2.954,4.264,2.252,6.744l-4.33,14.244
	c17.05-1.97,32.333-4.937,49.396-6.744c1.512-0.162,4.033,2.319,4.021,4.047l-2.253,52.12h8.294l-1.309-52.014
	c-0.014-1.728,2.279-4.315,3.776-4.153c17.05,1.809,32.373,4.774,49.423,6.744l-4.345-14.244c-0.7-2.48,0.298-5.207,2.24-6.744
	l49.529-40.224l-10.252-4.829c-4.505-1.604-3.237-4.142-1.618-10.252l7.556-27.489l-28.759,6.057
	c-2.834,0.419-4.693-1.362-5.127-3.063l-3.694-12.936l-22.742,25.479c-3.237,4.073-9.819,4.073-7.77-5.354l9.711-51.596
	l-13.029,6.744c-3.643,2.052-7.311,2.389-9.36-1.268"/>
</svg>
