<?xml version="1.0" encoding="utf-8"?>
<!-- Generator: Adobe Illustrator 16.0.0, SVG Export Plug-In . SVG Version: 6.00 Build 0)  -->
<!DOCTYPE svg PUBLIC "-//W3C//DTD SVG 1.1//EN" "http://www.w3.org/Graphics/SVG/1.1/DTD/svg11.dtd">
<svg version="1.1" id="Layer_1" xmlns="http://www.w3.org/2000/svg" xmlns:xlink="http://www.w3.org/1999/xlink" x="0px" y="0px"
	 width="512px" height="335.45px" viewBox="0 0 512 335.45" enable-background="new 0 0 512 335.45" xml:space="preserve">
<g>
	<polygon fill="#F5F5F5" points="0,186.965 0,208.482 123,208.482 123,335.45 145.971,335.45 145.971,186.965 	"/>
	<polygon fill="#F5F5F5" points="145.971,0 124.996,0 124.996,126.02 0,126.02 0,143.935 145.971,143.935 	"/>
	<polygon fill="#F5F5F5" points="208.895,0 189.669,0 189.669,143.935 511.999,143.935 511.999,126.02 208.895,126.02 	"/>
	<polygon fill="#F5F5F5" points="189.669,335.45 211.05,335.45 211.05,209.92 511.999,209.92 511.999,186.965 189.669,186.965 	"/>
	<path fill="#FF4B55" d="M124.996,0H6.882C3.08,0,0,3.081,0,6.88V126.02h124.996V0L124.996,0z"/>
	<path fill="#FF4B55" d="M505.119,0H208.895V126.02h303.104V6.88C511.999,3.081,508.917,0,505.119,0z"/>
	<path fill="#FF4B55" d="M0,208.482v120.087c0,3.799,3.08,6.881,6.882,6.881h116.119V208.482H0z"/>
	<path fill="#FF4B55" d="M211.05,335.45h294.068c3.799,0,6.88-3.082,6.88-6.881V209.92H211.05V335.45z"/>
	<polygon fill="#41479B" points="189.669,0 145.971,0 145.971,143.935 0,143.935 0,186.965 145.971,186.965 145.971,335.45 
		189.669,335.45 189.669,186.965 511.999,186.965 511.999,143.935 189.669,143.935 	"/>
</g>
</svg>
