<?xml version="1.0" encoding="utf-8"?>
<!-- Generator: Adobe Illustrator 16.0.0, SVG Export Plug-In . SVG Version: 6.00 Build 0)  -->
<!DOCTYPE svg PUBLIC "-//W3C//DTD SVG 1.1//EN" "http://www.w3.org/Graphics/SVG/1.1/DTD/svg11.dtd">
<svg version="1.1" id="Layer_1" xmlns="http://www.w3.org/2000/svg" xmlns:xlink="http://www.w3.org/1999/xlink" x="0px" y="0px"
	 width="800px" height="524.138px" viewBox="0 0 800 524.138" enable-background="new 0 0 800 524.138" xml:space="preserve">
<path fill="#F5F5F5" d="M799.998,174.713H0V13.793C0,6.176,6.177,0,13.794,0h772.412C793.823,0,800,6.176,800,13.793
	L799.998,174.713L799.998,174.713z"/>
<path fill="#FF4B55" d="M786.204,524.137H13.794C6.177,524.137,0,517.961,0,510.344V349.426h799.998v160.918
	C799.998,517.963,793.822,524.137,786.204,524.137z"/>
<rect x="0" y="174.71" fill="#41479B" width="799.998" height="174.703"/>
<path fill="#FF4B55" d="M203.476,392.202c-4.082-2.346-100.027-58.149-100.027-143.927v-117.24h206.896v117.24
	c0,85.777-95.944,141.581-100.027,143.927l-3.42,1.951L203.476,392.202z"/>
<polygon fill="#F5F5F5" points="261.084,227.587 228.57,231.869 217.734,231.869 217.734,212.467 224.236,212.467 250.244,216.749 
	246.723,201.629 250.244,186.509 224.236,190.79 217.734,190.79 217.734,184.236 222.015,151.724 206.897,156.129 191.778,151.724 
	196.059,184.236 196.059,190.79 189.554,190.79 163.546,186.509 167.069,201.629 163.546,216.749 189.554,212.467 196.059,212.467 
	196.059,231.869 185.222,231.869 152.709,227.587 157.113,242.705 152.709,257.825 185.222,253.543 196.059,253.543 
	196.059,303.449 217.734,303.449 217.734,253.543 228.57,253.543 261.084,257.825 256.681,242.705 "/>
<path fill="#41479B" d="M206.897,282.759c-14.247,0-26.466,8.644-31.722,20.967c-0.929-0.076-1.816-0.278-2.762-0.278
	c-18.36,0-33.228,14.391-34.281,32.486c27.93,34.381,62.913,54.868,65.344,56.267l3.421,1.953l3.42-1.953
	c2.432-1.398,37.414-21.884,65.344-56.267c-1.053-18.096-15.92-32.486-34.281-32.486c-0.945,0-1.833,0.202-2.761,0.278
	C233.362,291.402,221.143,282.759,206.897,282.759z"/>
<path fill="#F5F5F5" d="M303.448,137.932c0,0,0,82.759,0,110.345c0,82.76-96.551,137.932-96.551,137.932
	s-96.552-55.172-96.552-137.932c0-27.586,0-110.345,0-110.345H303.448 M317.24,124.138h-13.794H110.345H96.551v13.794v110.345
	c0,89.731,99.276,147.49,103.502,149.906l6.844,3.911l6.844-3.911c4.227-2.416,103.501-60.177,103.501-149.906V137.932v-13.794
	H317.24z"/>
</svg>
