<svg width="159" height="106" viewBox="0 0 159 106" fill="none" xmlns="http://www.w3.org/2000/svg">
<path d="M156.184 47.3988C159.926 49.5588 159.937 53.0554 156.226 55.2154L81.6311 98.5653C77.9206 100.725 71.879 100.725 68.1471 98.5653L2.83358 60.7866C-0.898315 58.6265 -0.919702 55.1299 2.79081 52.9699L77.386 9.62001C81.0965 7.46 87.1381 7.46 90.87 9.62001L156.184 47.3988Z" fill="#4B62BE"/>
<path d="M158.975 51.6119C158.964 51.7081 158.953 51.815 158.942 51.9113C158.932 51.9968 158.9 52.0717 158.878 52.1572C158.857 52.2534 158.825 52.3497 158.793 52.4459C158.761 52.5208 158.729 52.5956 158.696 52.6812C158.654 52.7774 158.611 52.8843 158.557 52.9806C158.515 53.0554 158.472 53.1196 158.429 53.1944C158.365 53.3014 158.29 53.419 158.205 53.5259C158.151 53.5901 158.108 53.6543 158.055 53.7184C157.937 53.8681 157.798 54.0071 157.649 54.1568C157.595 54.2103 157.552 54.2638 157.488 54.3065C157.392 54.3921 157.296 54.4669 157.199 54.5525C157.114 54.6273 157.028 54.6915 156.932 54.7663C156.825 54.8412 156.708 54.916 156.59 54.9909C156.472 55.0657 156.355 55.1513 156.226 55.2261L81.6312 98.576C81.3425 98.7471 81.0431 98.8861 80.733 99.0251C80.6474 99.0679 80.5512 99.1 80.455 99.1428C80.209 99.239 79.9631 99.3352 79.7065 99.4315C79.6102 99.4635 79.5247 99.4956 79.4284 99.5277C79.2681 99.5812 79.1076 99.6239 78.9366 99.6667C78.8082 99.6988 78.6906 99.7416 78.5623 99.763C78.3912 99.8057 78.2094 99.8378 78.0383 99.8806C77.9207 99.902 77.8031 99.934 77.6748 99.9554C77.3219 100.02 76.9583 100.073 76.5948 100.105C76.4771 100.116 76.3702 100.127 76.2526 100.137C76.0387 100.159 75.8249 100.169 75.611 100.18C75.472 100.191 75.333 100.191 75.194 100.191C75.0229 100.191 74.8411 100.191 74.67 100.191C74.5203 100.191 74.3813 100.18 74.2316 100.18C74.0712 100.169 73.9108 100.169 73.7504 100.159C73.6007 100.148 73.451 100.137 73.312 100.127C73.1516 100.116 72.9912 100.094 72.8415 100.073C72.7025 100.052 72.5528 100.03 72.4137 100.009C72.2427 99.9875 72.0716 99.9554 71.9112 99.9233C71.7829 99.902 71.6439 99.8699 71.5155 99.8485C71.3124 99.8057 71.1199 99.7523 70.9274 99.6988C70.8205 99.6667 70.7135 99.6453 70.5959 99.6133C70.243 99.5063 69.9009 99.3994 69.5694 99.2711C69.5266 99.2497 69.4838 99.2283 69.4304 99.2176C68.9813 99.0358 68.5428 98.8327 68.1365 98.5974L2.82298 60.8186C0.940993 59.7386 2.28453e-06 58.3057 0.0106954 56.8836L0 62.3584C0 63.7806 0.930298 65.2028 2.81229 66.2935L68.1258 104.072C68.5322 104.308 68.9706 104.511 69.4197 104.692C69.4518 104.703 69.4731 104.725 69.5052 104.735C69.5266 104.746 69.5373 104.746 69.5587 104.757C69.8902 104.885 70.2324 105.003 70.5852 105.099C70.6173 105.109 70.6387 105.12 70.6708 105.131C70.7456 105.152 70.8312 105.174 70.9167 105.195C71.1092 105.249 71.3124 105.291 71.5048 105.345C71.5583 105.355 71.6118 105.377 71.6652 105.388C71.7401 105.409 71.8256 105.409 71.9005 105.43C72.0716 105.462 72.232 105.494 72.4031 105.516C72.4672 105.527 72.5421 105.537 72.6062 105.548C72.6811 105.559 72.7559 105.559 72.8308 105.569C72.9912 105.591 73.1516 105.612 73.3013 105.623C73.3761 105.633 73.451 105.644 73.5258 105.644C73.6007 105.644 73.6648 105.655 73.7397 105.655C73.9001 105.666 74.0605 105.676 74.2209 105.676C74.3064 105.676 74.3813 105.687 74.4668 105.687C74.531 105.687 74.5952 105.687 74.6593 105.687C74.8304 105.687 75.0122 105.687 75.1833 105.687C75.2688 105.687 75.3544 105.687 75.4399 105.687C75.4934 105.687 75.5468 105.676 75.5896 105.676C75.8035 105.666 76.0173 105.655 76.2312 105.633C76.3167 105.623 76.4023 105.623 76.4878 105.612C76.5199 105.612 76.5413 105.601 76.5627 105.601C76.9263 105.559 77.2898 105.516 77.6427 105.452C77.6641 105.452 77.6748 105.452 77.6962 105.441C77.8031 105.42 77.8993 105.398 78.0063 105.377C78.1774 105.345 78.3591 105.302 78.5302 105.27C78.6585 105.238 78.7762 105.206 78.9045 105.174C79.0649 105.131 79.236 105.088 79.3964 105.035C79.4284 105.024 79.4712 105.013 79.5033 105.003C79.5568 104.981 79.6102 104.96 79.6744 104.938C79.931 104.853 80.177 104.757 80.4229 104.65C80.5191 104.607 80.6047 104.575 80.7009 104.532C81.011 104.393 81.3104 104.243 81.5992 104.072L156.194 60.7224C156.237 60.701 156.269 60.6796 156.312 60.6582C156.397 60.6048 156.472 60.5513 156.558 60.4978C156.675 60.423 156.793 60.3481 156.9 60.2733C156.996 60.2091 157.082 60.1343 157.167 60.0594C157.264 59.9846 157.371 59.899 157.456 59.8135C157.477 59.7921 157.499 59.7814 157.52 59.76C157.552 59.7279 157.584 59.6852 157.616 59.6531C157.766 59.5141 157.895 59.3644 158.023 59.2147C158.044 59.1826 158.087 59.1505 158.108 59.1184C158.13 59.0864 158.151 59.0543 158.173 59.0222C158.258 58.9153 158.333 58.7976 158.397 58.6907C158.429 58.6479 158.461 58.5945 158.493 58.5517C158.504 58.5303 158.515 58.4982 158.525 58.4768C158.579 58.3806 158.622 58.2737 158.664 58.1774C158.686 58.124 158.729 58.0598 158.75 58.0063C158.761 57.985 158.761 57.9636 158.771 57.9422C158.803 57.8459 158.825 57.7497 158.857 57.6535C158.878 57.5893 158.9 57.5252 158.91 57.461C158.91 57.4396 158.91 57.4289 158.921 57.4075C158.942 57.3113 158.942 57.2044 158.953 57.1081C158.964 57.044 158.975 56.9798 158.975 56.9157C158.975 56.8836 158.975 56.8622 158.975 56.8301L158.985 51.3552C158.996 51.4301 158.985 51.5263 158.975 51.6119Z" fill="#021D7A"/>
<path d="M66.5957 53.2816L64.8992 52.5227L64.7207 52.4333L69.252 55.0673L69.4306 55.1566L71.127 55.9155C71.1716 55.9155 71.194 55.9378 71.2386 55.9378L66.7074 53.3039C66.6627 53.3039 66.6403 53.2816 66.5957 53.2816Z" fill="#024462"/>
<path d="M61.5507 66.0263C61.5284 65.9147 61.4837 65.8478 61.4168 65.8032L56.8855 63.1692C56.9525 63.2138 56.9971 63.2808 57.0194 63.3924L57.957 65.2228C57.9793 65.3121 58.0239 65.379 58.0685 65.4013L62.5998 68.0353C62.5328 67.9907 62.4882 67.946 62.4882 67.8567L61.5507 66.0263Z" fill="#024462"/>
<path d="M67.176 44.2857C67.1313 44.2634 67.0644 44.241 66.9751 44.2634C66.9304 44.2634 66.8858 44.2857 66.8412 44.3303C66.7965 44.3526 66.7518 44.375 66.7295 44.4196L65.0108 45.5357L65.9482 43.7723C65.9929 43.6607 66.0376 43.5714 66.1269 43.4822C66.1938 43.3929 66.2831 43.3259 66.3724 43.2812C66.417 43.2589 66.4617 43.2366 66.5286 43.2142C66.5733 43.2142 66.5956 43.2142 66.6403 43.2142L68.6045 43.4375C68.6268 43.4375 68.6715 43.4598 68.6938 43.4598L64.1626 40.8259C64.1402 40.8036 64.1179 40.8036 64.0732 40.8036L62.1089 40.5803C62.0866 40.5803 62.042 40.5803 61.9974 40.5803C61.9527 40.5803 61.9081 40.6026 61.8634 40.6473C61.7742 40.6919 61.6849 40.7589 61.6179 40.8482C61.551 40.9375 61.484 41.0268 61.4393 41.1384L59.9438 43.9509L59.7876 44.2187L56.7965 42.4777C56.7518 42.4553 56.6849 42.433 56.5956 42.4553C56.5509 42.4553 56.5062 42.4777 56.4616 42.5C56.417 42.5223 56.3723 42.5446 56.35 42.5892L54.1402 44.4866C54.0956 44.5312 54.0509 44.5536 54.0286 44.5982C53.85 44.8215 53.7384 45.1339 53.8054 45.3572L53.9393 47.8572V48.125C53.85 48.2366 53.7607 48.3259 53.6714 48.4375C53.2919 48.9063 52.9125 49.4196 52.5777 49.933C52.5107 50 52.4214 50.067 52.3544 50.1117C52.2875 50.134 52.2429 50.1786 52.1759 50.1786C52.1313 50.1786 52.1089 50.1786 52.0643 50.1786L49.9438 50.4465C49.9214 50.4465 49.8768 50.4465 49.8544 50.4465C49.8098 50.4465 49.7428 50.4688 49.6982 50.5134C49.6089 50.5581 49.5196 50.625 49.4527 50.7143C49.3857 50.8036 49.3187 50.8929 49.2741 51.0045L48.1134 53.9286C48.0018 54.2188 48.0241 54.4643 48.1803 54.5536L50.1 55.6697C49.9661 56.2724 49.8545 56.8751 49.8098 57.4331C49.7652 57.5894 49.6759 57.7456 49.5643 57.8795C49.5196 57.9465 49.475 57.9911 49.4081 58.0358L47.3545 60.2903C47.3098 60.3349 47.2652 60.3572 47.2429 60.4018C47.0643 60.6251 46.9527 60.9152 47.0196 61.1384L47.5553 63.3706C47.5777 63.4599 47.6223 63.5045 47.6893 63.5492L50.9482 65.4465L50.6803 66.4063C50.5687 66.6965 50.6134 66.9421 50.7696 67.0313L55.3009 69.6653C55.1447 69.576 55.1 69.3081 55.2116 69.0403L56.0152 66.1608C56.1045 65.9152 56.1268 65.692 56.0598 65.5358C55.725 65.2679 55.4125 64.9108 55.167 64.4867L52.1089 62.701L53.9616 60.6474C54.0062 60.6028 54.0732 60.5581 54.1179 60.4911C54.2295 60.3572 54.3188 60.2009 54.3634 60.0447C54.4081 59.375 54.5197 58.7054 54.6759 58.0134L52.6 56.8081C52.6 56.7188 52.6 56.6295 52.6446 56.5179L53.8054 53.5938C53.85 53.4822 53.917 53.3929 53.9839 53.3036C54.0509 53.2143 54.1402 53.1474 54.2294 53.1027C54.2741 53.0804 54.3411 53.0581 54.3857 53.0358C54.408 53.0358 54.4527 53.0358 54.475 53.0358L56.5956 52.7679C56.6402 52.7679 56.6625 52.7679 56.7072 52.7679C56.7741 52.7679 56.8188 52.7232 56.8857 52.7009C56.975 52.6562 57.042 52.5893 57.1089 52.5223C57.4661 52.009 57.8232 51.4955 58.2027 51.0268C58.292 50.9152 58.3813 50.8036 58.4706 50.7143V50.4465L58.3367 47.9465C58.2697 47.7232 58.3813 47.4107 58.5598 47.1875C58.6045 47.1428 58.6268 47.0982 58.6715 47.0759L60.0777 45.8705L62.5554 47.2991C62.6 47.3214 62.667 47.3437 62.734 47.3437C63.2697 47.0982 63.8054 46.9197 64.2965 46.808H64.3188L64.4751 46.5179L64.6536 46.183L68.7831 48.5937L69.0063 48.4598L71.2608 47.0089C71.3054 46.9643 71.3501 46.9419 71.3724 46.9196C71.4171 46.8973 71.4617 46.875 71.5063 46.8527C71.5733 46.8303 71.6403 46.8527 71.7072 46.875L67.176 44.2857Z" fill="#024462"/>
<path d="M64.2969 52.5892L59.7656 49.9553C60.1674 50.2009 60.4799 50.6026 60.6138 51.2053C60.9933 52.6785 60.3013 54.7768 59.0513 56.2946C58.8057 56.6071 58.5379 56.875 58.2477 57.1205C57.9799 57.3437 57.712 57.5446 57.4665 57.6785C57.1317 57.8794 56.7968 58.0134 56.4843 58.0803C55.9709 58.1919 55.5245 58.125 55.145 57.9018L59.6763 60.5357C60.0558 60.7589 60.5022 60.8036 61.0156 60.7143C61.3281 60.6473 61.6629 60.5134 61.9977 60.3125C62.2656 60.1562 62.5335 59.9776 62.8014 59.7544C63.0915 59.5089 63.3594 59.2187 63.6049 58.9285C64.8549 57.4107 65.5469 55.3125 65.1674 53.8392C64.9889 53.2366 64.6986 52.8125 64.2969 52.5892Z" fill="#024462"/>
<path d="M72.3996 49.3303C72.4666 49.5982 72.3103 49.9776 72.0425 50.2008L69.9889 52.4553C69.8103 52.6116 69.6764 52.8347 69.6094 53.058C69.5648 53.7276 69.4532 54.3973 69.2746 55.0892L69.4532 55.1785L71.1496 55.9375C71.3728 55.9375 71.4398 56.25 71.3059 56.5848L70.1451 59.5089C70.0558 59.7321 69.8996 59.9107 69.7433 60C69.6541 60.0446 69.5648 60.0669 69.4978 60.0669L67.3773 60.3571C67.288 60.3571 67.1987 60.3795 67.0871 60.4241C66.9978 60.4687 66.9309 60.5357 66.8416 60.625C66.4398 61.25 65.971 61.8527 65.4799 62.433V62.6785L65.6139 65.2009C65.6808 65.4687 65.5246 65.8482 65.2567 66.0714L63.0469 67.9688C63.0022 67.9911 62.98 68.0134 62.9353 68.0357C62.7121 68.1697 62.5112 68.125 62.4665 67.8795L61.529 66.0491C61.4844 65.8705 61.3728 65.7813 61.1942 65.8036C60.6362 66.0491 60.1228 66.2277 59.5871 66.3616L59.4308 66.6295L57.9352 69.4419C57.846 69.6652 57.6897 69.8437 57.5335 69.933C57.4442 69.9777 57.3549 70 57.288 70L55.3459 69.7768C55.1227 69.7545 55.0335 69.442 55.1674 69.1295L55.9709 66.25C56.0602 66.0044 56.0826 65.7812 56.0156 65.625C55.6808 65.3571 55.3683 65 55.1228 64.5759L54.8996 64.7098L52.6451 66.1607C52.6004 66.183 52.5781 66.2277 52.5335 66.25C52.3326 66.3616 52.1316 66.3169 52.0647 66.0937L51.529 63.8616C51.462 63.5937 51.6183 63.2143 51.8638 63.0134L53.9174 60.7589C54.096 60.6027 54.2522 60.3795 54.3192 60.1563C54.3638 59.4866 54.4755 58.817 54.6317 58.125L54.4754 58.058L52.779 57.2991C52.5558 57.2768 52.4888 56.9866 52.6227 56.6518L53.7835 53.7276C53.8728 53.5044 54.029 53.3259 54.2076 53.2366C54.2969 53.1919 54.3638 53.1696 54.4531 53.1696L56.5737 52.9018C56.663 52.9018 56.7522 52.8794 56.8639 52.8348C56.9531 52.7902 57.0201 52.7232 57.087 52.6562C57.5111 52.0089 57.9576 51.4062 58.4487 50.8482V50.5803L58.3147 48.0803C58.2478 47.8124 58.404 47.4329 58.6496 47.2097L60.8594 45.3124C60.904 45.2677 60.9487 45.2455 60.971 45.2232C61.1719 45.1115 61.3728 45.1561 61.4174 45.3794L62.3326 47.2321C62.3772 47.4106 62.5111 47.4999 62.6674 47.4999C63.2254 47.2544 63.7389 47.0535 64.2523 46.9642L64.4085 46.674L65.904 43.8615C65.9933 43.6383 66.1496 43.4597 66.3058 43.3704C66.3951 43.3258 66.4844 43.3035 66.5514 43.3035L68.5157 43.5267C68.7389 43.549 68.8058 43.8392 68.6719 44.1963L67.8683 47.0758C67.7791 47.3213 67.7791 47.5446 67.8237 47.7008C68.1586 47.9687 68.471 48.3258 68.7166 48.7499L68.9398 48.616L71.1942 47.1651C71.2389 47.1205 71.2836 47.0981 71.3059 47.0758C71.5291 46.9419 71.7076 47.0089 71.7523 47.2321L72.3996 49.3303ZM62.7567 59.7768C64.4978 58.2812 65.5916 55.6026 65.1451 53.8616C64.788 52.3437 63.4264 51.9866 61.9532 52.8348C61.7076 52.991 61.4398 53.1696 61.1942 53.3928C59.4532 54.9107 58.3594 57.5669 58.8058 59.3526C59.1853 60.8482 60.5246 61.2276 61.9978 60.3794C62.221 60.2008 62.4888 60 62.7567 59.7768Z" fill="#025A82"/>
<path d="M78.6931 17.9912L76.3047 16.9198L76.0591 16.7859L80.5904 19.4198L80.8359 19.5537L83.2243 20.6252C83.269 20.6252 83.3136 20.6475 83.3583 20.6698L78.827 18.0359C78.8047 18.0136 78.76 18.0136 78.6931 17.9912Z" fill="#F0A72E"/>
<path d="M69.698 34.9334C69.6533 34.7995 69.5864 34.6878 69.4971 34.6432L64.9658 32.0093C65.0551 32.0762 65.1444 32.1655 65.1667 32.2995L66.4837 34.8888C66.5283 35.0227 66.5729 35.112 66.6622 35.1566L71.1935 37.7905C71.1042 37.7459 71.0373 37.6566 71.0149 37.5227L69.698 34.9334Z" fill="#F0A72E"/>
<path d="M79.5414 5.26825C79.4521 5.22361 79.3628 5.20128 79.2512 5.2236C79.1842 5.24592 79.1173 5.26826 79.0503 5.3129C79.0056 5.33523 78.9387 5.37984 78.894 5.42448L75.7021 7.47809L75.3672 7.67898L79.8985 10.3129L80.2333 10.112L83.4253 8.05844C83.4699 8.0138 83.5369 7.96915 83.5816 7.94683C83.6485 7.90218 83.7155 7.87988 83.7824 7.85756C83.8941 7.83523 83.9833 7.85753 84.0726 7.90217L79.5414 5.26825Z" fill="#F0A72E"/>
<path d="M73.5599 15.9152L69.0287 13.2812C69.609 13.6161 70.0331 14.2188 70.234 15.067C70.7474 17.1652 69.7876 20.1116 68.0019 22.2768C67.6447 22.7009 67.2653 23.1027 66.8412 23.4599C66.4617 23.7724 66.1046 24.0402 65.7251 24.2634C65.2564 24.5313 64.7876 24.7322 64.3411 24.8215C63.6268 24.9777 62.9796 24.8884 62.4438 24.5759L66.9751 27.2099C67.5108 27.5224 68.1582 27.5894 68.8725 27.4554C69.3189 27.3661 69.7876 27.1652 70.2564 26.8974C70.6135 26.6965 70.993 26.4286 71.3725 26.0938C71.7966 25.7367 72.176 25.3349 72.5331 24.9108C74.2965 22.7456 75.2787 19.7991 74.7653 17.7009C74.5644 16.8527 74.1403 16.25 73.5599 15.9152Z" fill="#F0A72E"/>
<path d="M60.6357 32.8127L56.3054 30.2903L58.9393 27.4108C59.0062 27.3439 59.0732 27.2769 59.1402 27.2099C59.2964 27.009 59.4304 26.7858 59.4973 26.5403C59.5643 25.6251 59.7205 24.6653 59.9661 23.6831L57.0419 21.9867C57.0419 21.8528 57.0419 21.7412 57.1089 21.5849L58.783 17.4554C58.85 17.2992 58.9393 17.1653 59.0286 17.0313C59.1179 16.8974 59.2294 16.8081 59.3411 16.7411C59.408 16.6965 59.475 16.6742 59.5419 16.6518C59.5866 16.6518 59.6536 16.6295 59.6982 16.6518L62.6893 16.2278C62.7339 16.2278 62.8009 16.2278 62.8679 16.2278C62.9572 16.2054 63.0241 16.1831 63.1134 16.1384C63.225 16.0715 63.3143 15.9822 63.4259 15.8929C63.9393 15.134 64.475 14.3751 65.0554 13.6831C65.1446 13.5715 65.2339 13.4599 65.3455 13.3483V12.9688L65.1447 9.41968C65.0554 9.1295 65.2116 8.68307 65.4795 8.37057C65.5241 8.3036 65.5911 8.25896 65.6357 8.19199L67.6 6.49557L71.0822 8.5268C71.1715 8.57145 71.2608 8.59378 71.35 8.57146C72.109 8.21431 72.8679 7.96878 73.6045 7.81253L73.8277 7.41073L75.9483 3.4375C76.0152 3.28125 76.1046 3.12503 76.1938 3.01342C76.2831 2.90181 76.3947 2.79019 76.5063 2.72323C76.5733 2.67858 76.6402 2.65624 76.7072 2.63392C76.7518 2.63392 76.7965 2.6116 76.8411 2.63392L79.609 2.96877C79.6537 2.96877 79.6983 2.9911 79.743 3.01342L75.2117 0.379462C75.167 0.35714 75.1224 0.334809 75.0778 0.334809L72.3322 0C72.2876 0 72.2429 0 72.1759 0C72.109 0.0223215 72.042 0.0446281 71.975 0.0892711C71.8634 0.156236 71.7519 0.245533 71.6626 0.379462C71.5733 0.491069 71.484 0.647325 71.417 0.803576L69.2964 4.7768L69.0733 5.15627L64.8545 2.70088C64.7652 2.65624 64.6759 2.63394 64.5866 2.65627C64.5197 2.67859 64.4527 2.70089 64.3857 2.74554C64.3411 2.76786 64.2964 2.81251 64.2295 2.85715L61.1045 5.53573C61.0375 5.58037 60.9928 5.64734 60.9482 5.7143C60.6803 6.0268 60.5464 6.47324 60.6134 6.76342L60.8143 10.3125V10.692C60.725 10.8036 60.6357 10.9152 60.5241 11.0268C59.9437 11.7411 59.4081 12.4777 58.8947 13.2366C58.8054 13.3483 58.6937 13.4152 58.5821 13.4822C58.4928 13.5268 58.4259 13.5715 58.3366 13.5715C58.2697 13.5715 58.225 13.5938 58.158 13.5715L55.1669 13.9956C55.1223 13.9956 55.0553 13.9956 55.0107 13.9956C54.9437 14.0179 54.8768 14.0402 54.8098 14.0849C54.6982 14.1518 54.5866 14.2411 54.4973 14.3751C54.408 14.509 54.3187 14.6429 54.2518 14.7992L52.5776 18.9286C52.4214 19.3304 52.4661 19.6876 52.6893 19.8215L55.3902 21.384C55.2116 22.2546 55.0553 23.0804 55.0107 23.9063C54.9437 24.1295 54.8098 24.3751 54.6535 24.576C54.5866 24.6429 54.5196 24.7323 54.4526 24.7769L51.5509 27.9465C51.4839 27.9912 51.4392 28.0582 51.3946 28.1251C51.1267 28.4376 50.9928 28.8841 51.0598 29.1742L51.8411 32.3216C51.8634 32.4555 51.9303 32.5448 52.0196 32.5894L56.5509 35.2234C56.4616 35.1787 56.3946 35.0894 56.3723 34.9555L55.5911 31.8082C55.5018 31.4957 55.658 31.0716 55.9259 30.759C55.9705 30.6921 56.0375 30.6475 56.0821 30.5805L56.283 30.3573C56.6178 30.8484 56.9973 31.3171 57.4214 31.6742C57.5107 31.8751 57.5107 32.1876 57.3768 32.5447L56.2607 36.6296C56.1044 37.0314 56.1491 37.4109 56.3723 37.5225L60.9036 40.1564C60.6804 40.0225 60.6357 39.6653 60.7919 39.2635L61.908 35.1787C62.0419 34.8216 62.0643 34.5091 61.9527 34.3082C61.417 33.9064 60.9929 33.393 60.6357 32.8127Z" fill="#F0A72E"/>
<path d="M85.0329 11.3173C85.1222 11.6968 84.899 12.2325 84.5418 12.545L81.6177 15.737C81.3498 15.9602 81.1712 16.2727 81.0819 16.6075C80.9926 17.545 80.8587 18.4825 80.6132 19.4647L80.8588 19.5986L83.2471 20.67C83.5819 20.6924 83.6713 21.1165 83.4927 21.5852L81.8409 25.7147C81.707 26.0272 81.4838 26.2728 81.2605 26.4067C81.1489 26.4736 81.015 26.5183 80.9034 26.496L77.9123 26.9201C77.7784 26.8977 77.6445 26.9424 77.4882 27.0317C77.3766 27.0986 77.2873 27.1879 77.1757 27.2772C76.5953 28.1701 75.948 29.0183 75.2561 29.8442L75.2784 30.2237L75.4793 33.7728C75.5686 34.1299 75.3454 34.688 74.9882 34.9782L71.8632 37.6791C71.7962 37.7237 71.7516 37.7683 71.6846 37.813C71.3944 37.9916 71.1265 37.9023 71.0373 37.5898L69.7203 35.0005C69.6533 34.7326 69.4748 34.621 69.2516 34.6433C68.4926 35.0004 67.7337 35.246 66.9971 35.3799L66.7739 35.7817L64.6533 39.7549C64.5194 40.0674 64.2962 40.3353 64.0729 40.4692C63.9613 40.5362 63.8497 40.5586 63.7381 40.5586L60.9703 40.246C60.6578 40.2014 60.5462 39.7772 60.7471 39.3085L61.8631 35.2237C61.9971 34.8665 62.0194 34.554 61.9078 34.3531C61.439 33.9513 60.9926 33.438 60.6355 32.8576L60.323 33.0361L57.131 35.1121C57.064 35.1567 57.0193 35.2014 56.9524 35.2237C56.6622 35.4022 56.3721 35.313 56.3051 35.0005L55.5238 31.8531C55.4346 31.4736 55.6578 30.938 56.0149 30.6255L58.9167 27.4558C59.1845 27.2326 59.3854 26.8978 59.4747 26.5853C59.5417 25.6701 59.698 24.7103 59.9435 23.7281L59.7203 23.6165L57.3095 22.5674C56.997 22.5227 56.8855 22.121 57.064 21.6299L58.7381 17.5004C58.8721 17.1879 59.073 16.9424 59.2962 16.8084C59.4078 16.7415 59.5417 16.7192 59.6533 16.7192L62.6444 16.295C62.7783 16.3174 62.9123 16.2727 63.0685 16.1834C63.1801 16.1165 63.2694 16.0272 63.381 15.9379C63.9613 15.045 64.6087 14.1968 65.3007 13.3932V13.0138L65.0998 9.46466C65.0105 9.10752 65.2114 8.57179 65.5909 8.23697L68.7159 5.5584C68.7605 5.51375 68.8275 5.4691 68.8721 5.44678C69.1846 5.26821 69.4524 5.33515 69.5194 5.66998L70.8364 8.25928C70.9033 8.52714 71.082 8.63875 71.3052 8.61643C72.0641 8.25929 72.8453 8.01376 73.5596 7.85751L73.7828 7.4557L75.9034 3.48248C76.0373 3.16998 76.2382 2.90213 76.4837 2.76821C76.5953 2.70124 76.7293 2.65658 76.8409 2.6789L79.6088 3.01374C79.9213 3.05839 80.0329 3.48249 79.8543 3.95124L78.7159 8.03609C78.5819 8.39323 78.5596 8.68341 78.6712 8.90662C79.14 9.30841 79.5864 9.79948 79.9436 10.4022L80.2784 10.2012L83.4704 8.14767C83.515 8.10302 83.582 8.05841 83.6266 8.03609C83.9391 7.85751 84.207 7.92447 84.2962 8.23697L85.0329 11.3173ZM71.3944 26.0942C73.8721 23.9736 75.39 20.2236 74.7873 17.7013C74.2516 15.5807 72.3766 15.045 70.2783 16.2281C69.8989 16.4513 69.5417 16.7192 69.1623 17.0317C66.6846 19.1522 65.1667 22.9245 65.7917 25.4245C66.3051 27.5451 68.2024 28.0808 70.3007 26.8978C70.6578 26.6745 71.0149 26.4067 71.3944 26.0942Z" fill="#FFCA00"/>
<path d="M110.034 37.7229L114.565 40.3568C114.588 40.3568 114.632 40.3792 114.655 40.4015L110.123 37.7676C110.101 37.7453 110.056 37.7229 110.034 37.7229Z" fill="#D43E3E"/>
<path d="M112.645 19.7765C112.534 19.7095 112.422 19.7095 112.266 19.7319C112.154 19.7542 112.02 19.8212 111.864 19.8881L107.4 22.2319C107.288 22.2988 107.177 22.3435 107.065 22.3658L111.596 24.9997C111.708 24.9774 111.819 24.9328 111.931 24.8658L116.395 22.522C116.552 22.4328 116.685 22.3881 116.797 22.3658C116.953 22.3435 117.087 22.3435 117.177 22.4104L112.645 19.7765Z" fill="#D43E3E"/>
<path d="M95.4577 57.9019C95.4131 57.634 95.3015 57.4778 95.1453 57.3662L90.614 54.7322C90.7703 54.8215 90.8818 55.0001 90.9265 55.2679L92.2881 59.2412C92.3104 59.4421 92.3997 59.5983 92.5336 59.6876L97.0649 62.3215C96.931 62.2546 96.8417 62.0983 96.8194 61.8751L95.4577 57.9019Z" fill="#D43E3E"/>
<path d="M102.332 31.3393L97.8011 28.7053C98.7386 29.241 99.3859 30.2902 99.5868 31.808C99.9439 34.6429 98.6047 38.2366 96.4172 40.9152C95.7475 41.7188 95.0109 42.4554 94.2073 43.0358C93.9171 43.2367 93.6493 43.4376 93.3591 43.5938C92.7118 43.9733 92.0645 44.2188 91.4618 44.3527C90.4797 44.5536 89.6091 44.442 88.8948 44.0179L93.4261 46.6518C94.1404 47.076 95.0109 47.1875 95.9931 46.9867C96.5958 46.8527 97.2431 46.6072 97.8904 46.2277C98.1806 46.0715 98.4484 45.8706 98.7386 45.6697C99.5421 45.0893 100.279 44.3528 100.948 43.5492C103.136 40.8706 104.475 37.2768 104.118 34.442C103.917 32.9241 103.27 31.875 102.332 31.3393Z" fill="#D43E3E"/>
<path d="M84.1629 52.969L79.6316 50.335C80.0111 51.2501 80.4799 52.0537 81.0602 52.7234C81.1495 53.0359 81.1048 53.5047 80.9039 53.9288L78.9396 59.5315C78.6718 60.1118 78.6941 60.6698 79.0289 60.8707L83.5602 63.5047C83.2254 63.3261 83.203 62.7458 83.4709 62.1654L85.4352 56.5627C85.6361 56.1386 85.7031 55.6698 85.5915 55.3573C85.0111 54.6877 84.5423 53.8841 84.1629 52.969Z" fill="#D43E3E"/>
<path d="M96.3286 18.0803C96.2393 18.0803 96.15 18.0579 96.083 18.0133L100.614 20.6473C100.681 20.6919 100.771 20.7142 100.86 20.7142C101.351 20.558 101.82 20.424 102.266 20.3348C102.802 20.2231 103.315 20.1562 103.829 20.1115L104.163 19.5758L107.378 14.3526C107.467 14.1963 107.556 14.0401 107.668 13.9061C107.802 13.7499 107.958 13.616 108.114 13.5267C108.204 13.482 108.293 13.4374 108.382 13.4151C108.471 13.3927 108.561 13.3927 108.65 13.4151L112.132 14.4642C112.177 14.4642 112.199 14.4865 112.244 14.5088L107.713 11.8749C107.69 11.8526 107.646 11.8303 107.601 11.8303L104.119 10.7811C104.029 10.7588 103.94 10.7588 103.851 10.7811C103.762 10.8035 103.672 10.8481 103.583 10.8928C103.427 10.982 103.271 11.116 103.137 11.2945C103.025 11.4285 102.936 11.5624 102.846 11.741L99.6322 16.9642L99.2973 17.4999C98.7839 17.5222 98.2706 17.5892 97.7348 17.7231C97.2661 17.7901 96.7973 17.924 96.3286 18.0803Z" fill="#D43E3E"/>
<path d="M89.4754 29.7322C89.587 29.6652 89.6763 29.5982 89.7879 29.5089C90.0558 29.1518 90.346 28.7724 90.6361 28.4152C91.2611 27.6563 91.9085 26.942 92.5781 26.25C92.6227 26.0714 92.6227 25.8929 92.6004 25.7366L92.8013 20.625C92.7566 20.2232 92.9352 19.6875 93.2701 19.308C93.3593 19.1964 93.4709 19.0848 93.5825 19.0178L97.9129 15.8482C97.9575 15.8259 98.0022 15.7812 98.0468 15.7589C98.1361 15.6919 98.2254 15.6696 98.337 15.6473C98.4709 15.6249 98.6049 15.625 98.6942 15.6919L94.1629 13.058C94.0513 12.991 93.9397 12.991 93.8058 13.0133C93.7165 13.0357 93.6272 13.058 93.5156 13.125C93.4709 13.1473 93.4263 13.1696 93.3816 13.2142L89.0513 16.3839C88.9397 16.4732 88.8281 16.5625 88.7388 16.6741C88.4263 17.0535 88.2254 17.5892 88.27 17.991L88.0915 23.1027C88.1138 23.2589 88.1138 23.4375 88.0691 23.6161C87.3995 24.308 86.7521 25.0223 86.1271 25.7813C85.837 26.1384 85.5468 26.4955 85.2789 26.875C85.1673 26.9643 85.0781 27.0536 84.9665 27.0982C84.8548 27.1652 84.7433 27.2098 84.6316 27.2321C84.52 27.2545 84.4084 27.2545 84.2968 27.2321L80.4352 27.1875C80.3459 27.1652 80.2566 27.1652 80.145 27.1875C80.0557 27.2098 79.9664 27.2545 79.8548 27.2991C79.6986 27.3884 79.5423 27.5223 79.4083 27.6786C79.2967 27.8125 79.2075 27.9465 79.1182 28.125L76.4842 33.6607C76.1941 34.2634 76.2387 34.8214 76.5512 35L76.7968 35.1339L79.587 37.0313L79.8771 37.2322C79.453 38.5715 79.1406 39.8884 78.9173 41.2054C78.8281 41.4733 78.6718 41.7411 78.4932 41.9643C78.3816 42.0983 78.2477 42.2322 78.1137 42.3215L73.9842 46.2277C73.8726 46.317 73.7611 46.4063 73.6718 46.5179C73.3593 46.8974 73.1583 47.4331 73.203 47.8349L73.7833 52.4778C73.8057 52.6787 73.895 52.8349 74.0289 52.9242L78.5602 55.5581C78.4263 55.4688 78.3369 55.3349 78.3146 55.1117L77.7342 50.4688C77.6896 50.067 77.8905 49.5313 78.203 49.1519C78.2923 49.0402 78.4039 48.9286 78.5155 48.8617L82.645 44.9554C82.7789 44.8438 82.9129 44.7322 83.0245 44.5983C83.2031 44.3751 83.3593 44.1072 83.4486 43.8393C83.6718 42.5447 83.9843 41.2054 84.4084 39.8661L84.1182 39.6652L81.1718 37.6563L81.0378 37.5893C80.7477 37.3884 80.7254 36.8527 80.9932 36.2724L83.6271 30.7366C83.6941 30.5804 83.8057 30.4241 83.895 30.2902C84.0289 30.134 84.1852 30 84.3415 29.9107C84.4307 29.8661 84.52 29.8215 84.6316 29.7991C84.7209 29.7768 84.8325 29.7768 84.9218 29.7991L88.7834 29.8438C88.895 29.8661 89.0066 29.8661 89.1182 29.8438C89.2522 29.8214 89.3638 29.7768 89.4754 29.7322Z" fill="#D43E3E"/>
<path d="M118.003 27.5C118.07 28.0357 117.713 28.7723 117.222 29.1295L113.092 33.0581C112.735 33.3036 112.445 33.7277 112.289 34.1742C112.065 35.4688 111.753 36.8081 111.329 38.1474L111.619 38.3706L114.565 40.3572C114.967 40.4911 115.056 41.0939 114.744 41.7412L112.11 47.2769C111.931 47.6564 111.664 47.9465 111.396 48.1028C111.195 48.2144 110.994 48.2591 110.838 48.2144L106.976 48.1697C106.775 48.1028 106.552 48.1698 106.329 48.2814C106.217 48.3483 106.128 48.4153 106.016 48.5046C105.146 49.6653 104.208 50.7591 103.226 51.7635C103.181 51.9421 103.181 52.1207 103.204 52.277L103.003 57.3885C103.07 57.9242 102.713 58.6609 102.222 59.018L97.8913 62.1876C97.3109 62.5225 96.9314 62.3663 96.8644 61.8752L95.5029 57.902C95.4359 57.5225 95.235 57.3216 94.9448 57.2993C93.8957 57.6564 92.9135 57.835 91.976 57.9243L91.6412 58.4376L88.4269 63.6609C88.2483 64.0403 87.9805 64.3305 87.7126 64.4868C87.5117 64.5984 87.3331 64.643 87.1546 64.5984L83.6724 63.5493C83.2706 63.4154 83.2037 62.8127 83.4939 62.1654L85.4582 56.5626C85.6591 56.1385 85.726 55.6698 85.6144 55.3573C85.0564 54.6876 84.5653 53.9064 84.1858 52.9689C84.0742 52.9912 83.9626 53.0359 83.851 53.1028L79.409 55.4466C78.8286 55.7814 78.4269 55.6252 78.3599 55.1341L77.7796 50.4912C77.7126 49.9555 78.0698 49.2188 78.5608 48.8617L82.6903 44.9554C83.0474 44.6876 83.3376 44.2635 83.4939 43.8394C83.7171 42.5447 84.0296 41.2054 84.4537 39.8661L84.1635 39.6652L81.2171 37.6563C80.8153 37.5447 80.726 36.9197 81.0385 36.2724L83.6724 30.7366C83.851 30.3572 84.1189 30.067 84.3867 29.9107C84.5876 29.7991 84.7885 29.7545 84.9448 29.7992L88.8064 29.8438C89.0073 29.9108 89.2305 29.8438 89.4537 29.7099C89.5653 29.6429 89.6546 29.5759 89.7662 29.4866C90.6367 28.3482 91.5743 27.2545 92.5564 26.25C92.601 26.0714 92.6011 25.8929 92.5787 25.7366L92.7796 20.625C92.7127 20.0893 93.0698 19.3527 93.5609 18.9955L97.8913 15.8259C97.9359 15.8036 97.9806 15.7589 98.0252 15.7366C98.4716 15.4687 98.8511 15.625 98.918 16.1161L100.28 20.0893C100.347 20.4688 100.547 20.6697 100.838 20.692C101.887 20.3348 102.869 20.1563 103.806 20.0893L104.141 19.5536L107.356 14.3303C107.534 13.9509 107.802 13.6607 108.092 13.5045C108.271 13.3928 108.472 13.3482 108.628 13.3928L112.11 14.4643C112.512 14.5759 112.601 15.2009 112.289 15.8259L110.324 21.4286C110.123 21.875 110.056 22.3214 110.168 22.6339C110.726 23.3036 111.217 24.0848 111.597 25.0223C111.708 25 111.82 24.9554 111.931 24.8884L116.396 22.5447C116.976 22.2099 117.356 22.3438 117.423 22.8572L118.003 27.5ZM98.7394 45.6697C102.177 43.1474 104.588 38.1251 104.119 34.442C103.672 31.0491 100.972 29.9778 97.8689 31.7635C97.5787 31.9197 97.3109 32.1206 97.0207 32.3215C93.5832 34.8438 91.1725 39.8661 91.6412 43.5715C92.0876 46.9421 94.7886 48.0358 97.8913 46.2278C98.1591 46.0715 98.4493 45.8929 98.7394 45.6697Z" fill="#FA7564"/>
</svg>
