<svg width="110" height="110" viewBox="0 0 110 110" fill="none" xmlns="http://www.w3.org/2000/svg">
<circle cx="55" cy="55" r="55" fill="#F2F2F2"/>
<mask id="mask0_5440_2205" style="mask-type:alpha" maskUnits="userSpaceOnUse" x="3" y="3" width="103" height="103">
<circle cx="54.5" cy="54.5" r="51.5" fill="#FBFAF8"/>
</mask>
<g mask="url(#mask0_5440_2205)">
</g>
<path d="M56.1331 84.1619L56.1331 42.6278C56.1331 33.0706 64.1744 25.3222 74.0894 25.3222C83.9178 25.3222 91.9033 32.934 92.0437 42.3761V42.8814C91.9744 47.4981 90.0315 51.6757 86.9131 54.743C83.6542 51.5372 79.1123 49.5488 74.0894 49.5488C78.0561 49.5488 81.2726 46.4503 81.2726 42.6278C81.2726 38.8053 78.0542 35.7067 74.0894 35.7067C70.1207 35.7067 66.9061 38.8053 66.9061 42.6278V49.5488H56.1331V59.9353H66.9061V73.7774H56.1331V84.1619Z" fill="#CBCB30"/>
<path d="M74.0894 84.1622H56.1331H66.9061V73.7777H74.0894C78.0561 73.7777 81.2726 70.6792 81.2726 66.8567C81.2726 63.0323 78.0542 59.9356 74.0894 59.9356H66.9061V49.5492H74.0894V59.9356C79.1123 59.9356 83.6542 57.9473 86.9131 54.7434C90.0315 57.8088 91.9744 61.9864 92.0437 66.603V67.1104C91.9033 76.5505 83.9178 84.1622 74.0894 84.1622Z" fill="#84B6B8"/>
<path d="M66.9061 59.9356H56.133V49.5492H66.9061V59.9356ZM74.0894 59.9356V49.5492C79.1123 49.5492 83.6542 51.5375 86.9131 54.7434C83.6542 57.9473 79.1123 59.9356 74.0894 59.9356ZM66.9061 84.1622H56.1331L56.133 73.7777L66.9061 73.7777V84.1622Z" fill="#76A044"/>
<path d="M30.9685 59.9353L19.9589 59.9353L27.2749 25.3222L38.3076 25.3222L27.2769 25.3222L32.7922 51.3342L30.9685 59.9353ZM25.8321 84.1619H14.8379L17.7639 70.3159H28.7697L25.8321 84.1619Z" fill="#BD705B"/>
<path d="M45.6256 59.9353L34.614 59.9353L32.7922 51.3342L38.3076 25.3222L45.6256 59.9353ZM50.7485 84.1619H39.7543L36.8187 70.3159H47.8206L50.7485 84.1619Z" fill="#F6989B"/>
<path d="M32.7922 51.3323L27.2769 25.3203L38.3076 25.3203L32.7922 51.3323Z" fill="#BC5048"/>
<path d="M17.7637 70.314H17.4732L17.4732 59.9334H19.9606L17.7637 70.314ZM36.8184 70.314H28.7676L30.9683 59.9334H34.6158L36.8184 70.314ZM48.1128 70.314H47.8204L45.6254 59.9334H48.1128V70.314Z" fill="#78B7E4"/>
<path d="M28.7676 70.314H17.7637L19.9587 59.9334H30.9683L28.7676 70.314Z" fill="#785E5D"/>
<path d="M47.8204 70.314H36.8184L34.6158 59.9334H45.6254L47.8204 70.314Z" fill="#8F7795"/>
</svg>
