<svg width="351" height="351" viewBox="0 0 351 351" fill="none" xmlns="http://www.w3.org/2000/svg">
<path d="M350.387 175.285C350.387 272.093 271.95 350.571 175.193 350.571C78.4367 350.571 0 272.093 0 175.285C0 78.4779 78.4367 0 175.193 0C271.95 0 350.387 78.4779 350.387 175.285Z" fill="#3D79CF"/>
<mask id="mask0_314_1097" style="mask-type:alpha" maskUnits="userSpaceOnUse" x="0" y="0" width="351" height="351">
<path d="M350.387 175.285C350.387 272.093 271.95 350.571 175.193 350.571C78.4367 350.571 0 272.093 0 175.285C0 78.4779 78.4367 0 175.193 0C271.95 0 350.387 78.4779 350.387 175.285Z" fill="#3D79CF"/>
</mask>
<g mask="url(#mask0_314_1097)">
</g>
<path d="M262.33 106.753C259.3 106.753 256.394 105.55 254.252 103.407C252.109 101.265 250.906 98.3586 250.906 95.3286V75.3813L250.688 75.1643C250.011 74.486 249.206 73.9489 248.32 73.5841C247.433 73.2194 246.483 73.0342 245.525 73.0393H158.801C155.771 73.0393 152.865 74.2429 150.722 76.3855C148.58 78.528 147.376 81.4339 147.376 84.4639V241.255C147.376 242.667 147.654 244.066 148.195 245.371C148.736 246.676 149.529 247.862 150.529 248.861C151.528 249.859 152.715 250.651 154.02 251.19C155.326 251.73 156.725 252.007 158.138 252.005H265.003C266.416 252.007 267.815 251.73 269.121 251.19C270.427 250.651 271.613 249.859 272.613 248.861C273.612 247.862 274.405 246.676 274.946 245.371C275.487 244.066 275.765 242.667 275.765 241.255V106.753H262.33Z" fill="#EAF2FB"/>
<path d="M282.323 106.753H272.041V241.255C272.041 242.667 271.763 244.066 271.222 245.371C270.681 246.676 269.888 247.862 268.888 248.861C267.889 249.859 266.702 250.651 265.397 251.19C264.091 251.73 262.692 252.007 261.279 252.005H273.846C275.259 252.007 276.658 251.73 277.964 251.19C279.269 250.651 280.456 249.859 281.455 248.861C282.455 247.862 283.248 246.676 283.789 245.371C284.33 244.066 284.608 242.667 284.608 241.255V112.157C284.607 110.242 283.847 108.406 282.495 107.05L282.323 106.753Z" fill="#EAF2FB"/>
<path d="M282.552 107.028L250.688 75.1645C250.073 74.5544 249.353 74.0592 248.563 73.7021V97.6938C248.563 100.724 249.767 103.63 251.91 105.772C254.052 107.915 256.958 109.118 259.988 109.118H283.98C283.631 108.342 283.148 107.635 282.552 107.028V107.028Z" fill="#EAF2FB"/>
<path d="M282.552 107.028L250.688 75.1645C250.073 74.5544 249.353 74.0592 248.563 73.7021V97.6938C248.563 100.724 249.767 103.63 251.91 105.772C254.052 107.915 256.958 109.118 259.988 109.118H283.98C283.631 108.342 283.148 107.635 282.552 107.028V107.028Z" fill="#4452B8"/>
<path fill-rule="evenodd" clip-rule="evenodd" d="M248.564 181.796H171.574V177.009H248.564V181.796Z" fill="#4452B8"/>
<path fill-rule="evenodd" clip-rule="evenodd" d="M248.564 166.384H205.596V161.597H248.564V166.384Z" fill="#4452B8"/>
<path fill-rule="evenodd" clip-rule="evenodd" d="M248.564 150.972H205.596V146.185H248.564V150.972Z" fill="#4452B8"/>
<path fill-rule="evenodd" clip-rule="evenodd" d="M248.564 197.208H171.574V192.421H248.564V197.208Z" fill="#4452B8"/>
<path fill-rule="evenodd" clip-rule="evenodd" d="M200.98 117.07L203.311 101.578L187.831 103.92L172.351 106.251L179.136 113.036L157.663 134.51L146.142 122.99L146.189 122.943L133.248 110.001L93.2921 149.957L106.234 162.898L133.201 135.931L144.721 147.451L144.711 147.461L157.653 160.403L192.075 125.981L198.638 132.55L200.98 117.07Z" fill="#9728B2"/>
<path fill-rule="evenodd" clip-rule="evenodd" d="M238.726 225.98H93.4314V220.882H238.726V225.98Z" fill="#4452B8"/>
<path d="M94.7059 233.627C101.041 233.627 106.177 228.492 106.177 222.157C106.177 215.822 101.041 210.686 94.7059 210.686C88.3709 210.686 83.2354 215.822 83.2354 222.157C83.2354 228.492 88.3709 233.627 94.7059 233.627Z" fill="#5BC5F2"/>
<path d="M168.627 233.627C174.962 233.627 180.098 228.492 180.098 222.157C180.098 215.822 174.962 210.686 168.627 210.686C162.292 210.686 157.157 215.822 157.157 222.157C157.157 228.492 162.292 233.627 168.627 233.627Z" fill="#649800"/>
<path d="M240 233.627C246.335 233.627 251.471 228.492 251.471 222.157C251.471 215.822 246.335 210.686 240 210.686C233.665 210.686 228.529 215.822 228.529 222.157C228.529 228.492 233.665 233.627 240 233.627Z" fill="#CC7400"/>
<path d="M195.392 243.823H139.314V279.51H195.392V243.823Z" fill="#649800"/>
<path fill-rule="evenodd" clip-rule="evenodd" d="M185.196 266.765H146.961V264.216H185.196V266.765Z" fill="#4452B8"/>
<path d="M269.314 243.823H213.235V279.51H269.314V243.823Z" fill="#CC7400"/>
<path fill-rule="evenodd" clip-rule="evenodd" d="M238.725 254.02H220.882V251.471H238.725V254.02Z" fill="#4452B8"/>
<path fill-rule="evenodd" clip-rule="evenodd" d="M259.118 266.765H220.882V264.216H259.118V266.765Z" fill="#4452B8"/>
<path fill-rule="evenodd" clip-rule="evenodd" d="M164.804 254.02H146.961V251.471H164.804V254.02Z" fill="#4452B8"/>
<path d="M124.02 243.823H67.9412V279.51H124.02V243.823Z" fill="#5BC5F2"/>
<path fill-rule="evenodd" clip-rule="evenodd" d="M116.373 266.765H75.5883V264.216H116.373V266.765Z" fill="#4452B8"/>
<path fill-rule="evenodd" clip-rule="evenodd" d="M95.9804 254.02H75.5883V251.471H95.9804V254.02Z" fill="#4452B8"/>
</svg>
