<svg xmlns="http://www.w3.org/2000/svg" width="512" height="340.619" xmlns:v="https://vecta.io/nano"><path fill="#4758a9" d="M512 330.619c0 5.522-4.479 10-10 10H10c-5.523 0-10-4.478-10-10V11.166c0-5.522 4.477-10 10-10h492c5.521 0 10 4.478 10 10v319.453z"/><path fill="#f6d660" d="M205.646 162.059s.892-.607 1.215-.688l1.484-.432s.742-.378 1.134-.378c.405 0 1.215.431 1.472.81.243.393 1.553 1.052 1.553 1.052s.891.299 1.065 0c.176-.309.566-.525.985-.525.405 0 .473-.377.473-.673 0-.313.177-.688.473-1.056.337-.378.984-.594.984-.594s.892-.391.986-.904c.081-.524.971-.903 1.471-.984.486-.08 0-.297 1.31-.162 1.309.162 1.484-.296 1.553-.675.081-.393 0-.77.823-.688s1.215.081 1.215-.378c0-.444.743-.676-.566-1.039-1.296-.392-1.215-.081-1.296-.688-.095-.596 0-.516-.905-.596-.891-.081-.404-.525-.472-.984-.095-.445-.324-.688-.486-.986s-.647-.296-.647-.741-.081-.677-.568-.677c-.473 0-.647 0-.647-.445s.082-.823.565-.823c.474 0 .73-.377.648-.823s-.08-1.417-.08-1.417l.646-.771 2.135-1.889c.175-.299.822-.515 1.133.08.324.606.473.77.744 1.053.229.297.971.081 1.133-.229.176-.299.229-1.403.675-1.998.431-.581.729-.892.852-1.362.106-.486.323-.891.837-.891.525 0 .851-.677.851-1.081s.216-.782.85-.877c.635-.107.958-.486 1.175.095s.445.58.851.782c.446.203 1.066.485 1.376.203.324-.298.473-.783.959-.485.458.309.783 0 .891-.582l.216-1.363s.107-.391.851-.391.215-.486.634-.783c.432-.311.432-.594.958-.405.514.204 1.363-.243.959-.729-.445-.474-1.377-1.255-.851-1.863.525-.58.742-1.564.216-1.66s-1.282.096-1.377-.485c-.108-.579-.324-.984.338-1.079.62-.096 1.688-.096 2.025-.403.322-.299 1.361-.474 1.361-1.364 0-.878.324-.973.434-1.459s.107-1.511-.324-1.982c-.431-.486-1.066-1.188-1.175-1.473-.107-.296-.526-.781-1.174-.971-.635-.203-1.174-.313-1.174-.785 0-.484.432.098.432-1.187 0-1.271-.852-1.458-.852-1.458l-1.281-.783s-2.269-.607-2.875-.607-1.31-.635-.607-1.04.877-1.134.607-1.687c-.257-.567-.433-.958-1.392-1.201s-1.215-.485-.782-1.039c.433-.566.526-.972 1.04-.566.526.403 1.404.566 2.093.242.701-.322.958-.565 1.309-.242s.783.635 1.31.161c.514-.484 1.472-.565 1.918-.323.432.243 1.472.162 1.822 0s1.054-.715 1.054-1.039.431-.892.863-1.119c.433-.244.958-1.054 1.392-1.054.444 0 .606-.474.606-.798s.352-.956.446-1.2c.081-.242.958-.58 1.564-.08.607.472 1.392.633 1.392.633s.877.162 1.309 0 1.039-.31 1.647.082c.62.404 1.483.404 1.483.404s.177-.647.177-.958c0-.323.175-.893-.177-1.12-.351-.243-.782-.566-.081-1.055.688-.472.688-.391 1.391-.391l1.646.067c.526 0 1.403.486 1.403.972s.352.796.784 1.039.958.486.783.878c-.178.405-.178.729.351.648.514-.082.688.241.688.646 0 .394.175.634.688.796.539.162.811.487.811.877 0 .405-.106.648.054 1.055.188.391.703 1.038.703 1.038s.973 1.12-.243.555c-1.215-.555-1.485-.796-1.917-.716-.445.081-.701.323-.701.323s-.607.162-1.04.162c-.446 0-.877.877-.175 1.04.688.161.958.323.958.877 0 .567-.271.404-.607.812-.351.39-.622.146-1.228.146s-.784.486-.784.975.271.402.526.796c.257.403.701.483 1.134.081.431-.393.783-.636 1.04.081.27.729.606.729 1.146.729.514 0 .703 0 1.135-.243s.943 0 1.025.634c.104.649.539.729.974.974s.7.392.756.796c.104.406.377.567.811.325s1.133-.405 1.403-.081l.675.957.08.811 1.676.555s.16.402.16.729c0 .311.271.473.702.392s1.216 0 1.216 0 .62-.229.62-.717.271-.633.701-.633 1.377.31 1.646-.161c.242-.485 1.054-.648 1.646-.406l2.16.877s-.162.082.377.894c.515.795 1.458.795 1.458.795s.106.729.271 1.039c.162.324.971.486 1.399.163.435-.324 1.021-.716 1.563-.716.518 0 .864 0 .864-.324s-.538-.566-.538-1.039c0-.487.538-.487.646-.972.055-.474.596 0 .941.242.354.241.782.647.782.958 0 .323.702 1.444 1.136 1.606s1.563.243 1.916-.162c.354-.392 1.215-.553 1.104.405-.055.958-.243 1.039.38 1.363.596.323.7 1.443.161 1.768s-.702.404-.702.959c0 .567-.16 1.201.271 1.524s.703.566.703.879c0 .321.513 1.768.513 1.768s.241 1.444.188 1.769c-.107.324-.271.878.512.797s.947-.081.947.565c0 .634.27.878-.162 1.12-.437.244-.703 1.04-.271 1.202s.782.405.862.729c.105.312.812.877 1.242.556.434-.313.514-.474.861-.556.354-.079.598-.322.271-.729-.377-.392-.433-.796-.104-1.039.377-.243.538-1.039.538-1.039s.515-.729 1.134 0c.594.715.703.473 1.135.473.438 0 .598.403.598.811s.861.323.861.958c0 .647.188 2.173.188 2.173s0 .877.516 1.201c.541.31.434.393.162.796-.244.405-.162 1.054-.162 1.364 0 .323.162.485-.271.81-.433.312-.595.716-.322 1.202s.16.795.863 1.362c.7.555.595.796.595 1.2s.7.959.7 1.363.541.878.975.959.975.811.975 1.202l.054 1.444s-.054.242.436.242c.541 0 .893.566 1.079-.081.16-.635.675-.716 1.023-.879.354-.16 1.054-.484 1.4-.242.326.242.756.242 1.137.242l1.996.081s.435-.081.701.554c.244.648 1.023 1.377.596 1.688-.434.324-.434.958.107.958.514 0 1.022 0 1.022.405s.107.729.54.485.702-.323.864 0 .513.324.972.566c.434.229.595.082.864-.242.24-.324 1.295-.647 1.295-.647s1.402-.324 1.916-.162 1.216.485 1.216.485.354.797.162 1.282c-.162.485-.324.405-.162 1.12.162.729-.161.811-.54.729-.321-.081-.676-.081-.676.554 0 .648-.352.81-.352 1.363 0 .566 0 .485-.354.729s-.434.635.081.717c.54.08.354.646.354.958 0 .324-.081 1.054-.081 1.054s.081.402-.541.402c-.594 0-1.134-.08-1.188.313-.104.404-.813 1.039-.188 1.443s.434.646.082.813c-.326.16-.598.955.104 1.199.675.244.597.477.161.797s-1.295.566-1.295 1.056c0 .477-.189.477-.701.555-.541.08-.813.729-.162 1.523.596.798.755.646 1.188.646s.436-.646.436-.646l1.941.079c.434 0 1.023 0 1.377-.24s1.322-.637 1.322.081c0 .729.161.646.594.959.436.319.541.08.865.563.352.484.432.08.7-.483.271-.556.782-1.12 1.24-.476.435.635.435.476.943.476.514 0 .678.239.678.646s.539.402 1.133.322c.621-.082.701.311.974.717s.354.323.702.323c.322 0 .7 0 .972-.323.244-.324.598-.717.944-.244.353.485 1.054.404 1.216-.162.161-.553.971-1.039 1.401-.393.435.637.757.637 1.188.717.459.082 1.08.082 1.322.485.271.404 1.135 1.039.514 1.525-.594.473-1.295 1.119-.756 1.281.516.157.861.319 1.188.715.377.403 1.515.563 2.024.646s.94.161 1.563-.322 1.217-.484 1.139.16.238 1.363.238 1.363.437 1.038.437 1.44-.056.485.699.959c.813.484.702.813 1.321.324s.783-.729.783-1.121v-1.281s.861-.16 1.214-.401 1.755-.96 2.079-.646c.378.319.813.238 1.136.08.354-.162 1.054-.162 1.401-.162s.972.082 1.675-.476c.676-.563.676-.401 1.104 0 .457.404.457.877.188 1.202-.271.319 0 1.038.596 1.038.619 0 .813.32.813.729 0 .391.054.957.16 1.279.08.324.08.485 1.023.715.975.244.813.813.975 1.201.16.405.16.729-.354.729s-.699.244-.781.646c-.082.396-.863.558-.863.558l-.813-.162s-.484 0-.756.323-.81.96-.433 1.521c.319.564.319.861 0 1.135-.377.219-.541 1.435-.863 1.188-.379-.24-.812.082-1.135.244-.377.162-.271 1.27.432 1.7.703.378.863.941.863.941l.758 1.215s-.243.218-.432.646c-.164.379-.681 1.188-.164 1.351.541.162.271 1.024-.271 1.024-.516 0-1.135-.218-1.188.435-.105.62-.377.459-.895.378s-1.81-.378-2.187.242c-.324.646-.434.896-1.024.813-.621-.08-.354.942-.164 1.377.164.377.759.942.759.942s.538.404.538 1.216-.379.701-.698.159c-.354-.563-1.056-.481-1.138.163-.104.621-.161 1.594-.78 1.594s-.894.16-1.136.483c-.271.299-.7.893-.7 1.216 0 .297-.08.622-.515.702s-.541.973-.541.973-1.021.161-1.134.539c-.055.437.107 1.057-.756 1.137-.895.078-1.403.646-1.676 1.056-.271.399-.322.729 0 1.104.354.403.596 1.699 1.053 1.942.435.217.783.323.677.974-.054.619-.595 1.105.106 1.105s1.135.161.863.729c-.271.541-.271.648-.781.864-.516.243-.783.243-.783.893s.162.646-.271.895c-.433.216-.433.539-.433 1.024s-.164.319-.703.893c-.514.563-1.188.563-1.646.402-.433-.161-.515-.161-.619-.646-.056-.484-.861-.484-1.297-.405s-1.023.566-1.023.566-.813.484-.436.862c.323.434.162 1.079-.433.975-.646-.057-2.022.646-2.457-.057-.434-.757-1.646-1.214-1.834-.271-.188.976.513.894.457 1.864-.106.941-.271.941-.646 1.268-.322.324-.322.567-.435.977-.055.4-.162 1.296.435 1.617.646.322.893 1.188.893 1.678 0 .48 0 .971.621.971.596 0 1.135-.106 1.215-.647.082-.563 1.297-.892 1.377.221.105 1.134.105 1.698.539 2.188.437.459.756 1.106 1.135 1.377.324.219.92 2.271.92 2.271-.84.188-1.055 1.297-1.618 1.513-.271.108-.597 0-.916.217-.222.161-.222.459-.486.599-.646.27-.541-.701-1.297-.324-.701.324-.756 1.104-1.78.756-.515-.162-.839-2.215-.974-2.699-.106-.271-.647-1.135-.813-1.377-.596-.893-1.776 0-2.158-.243-.565-.433-.321-1.104-1.188-1.188-1.836-.106-.541 1.104-1.295 1.401-1.459.515-1.459-1.378-2.539-.515-.435.323.646.515.379 1.08-.217.458-1.297 1.16-1.215 1.699.08.757.892.973 1.104 1.595.678 1.646-.435 2.778-2.054 1.483-.916-.703-1.079-2.056-2.479-1.943-.353 0-.46.353-.781.378-.326.055-.567-.271-.944-.188-.515.188-.056.563-.162.836l-.812.758c-.379.513-.271.972-.813 1.399-.482.354-.861.138-1.4.701-.543.599-.567 1.459-1.271 1.997-.352.271-.563-.837-1.021-.104l-.188.321c-.105.218-.105.323 0 .539.918 1.782-1 2.433-1.595 3.677-.241.536.461 1.021.188 1.398-.217.323-1.053 1.134-1.135 1.296-.055.218-.137.597-.297.758-.137.16-.676.056-.729.3-.024.297.539.513.7.674.218.217-.082.539 0 .595.973.973.377.701.864 1.539.078.136.377-.081.482.243.105.271-.218.271-.105.593.023.108.729 1.026.729 1.026.023.321-1.322.918-1.646.918-.812.022.729-1.674-.621-1.674-.564 0-.621 1.319-.783 1.457-.055.053-.594 0-.756 0-.862 0-1.4 1.077-1.78 1.188-.218.08-.7-.107-1.054-.056s-.782.403-1.104.403c-.22 0-.324-.137-.484-.241-.379-.22-1.104-.322-1.563-.46-.218-.079-.677.298-.813.188-.299-.163.162-.676-.481-1.023-.082-.057-.541-1.217-.541-1.271.215-.781.459-1.592.352-2.4-.137-.812-1.432-1.514-1.756-2.157-.271-.516-.482-1.839-1.023-2.188s-1.024-1.054-1.296-1.593c-.106-.162.161-.437-.056-.729-.217-.298-.594-.402-.701-.837-.105-.324 0-1.352-.379-1.563-.432-.242-3.076-.566-3.725-.621-.354-.024-.621-.024-.863-.297-.105-.08-.299-.517-.379-.517-.271-.022-.595.14-.836.14-.188.022-.516-.108-.677 0-.862.595-1.079 1.35-1.893 1.939-.838.646-1.729.595-2.592 1.354-.484.433-.863 1.563-1.377 2.052-.218.243-.566 0-.646.105-.434.539-1.055.863-1.481 1.377-.082.08-.057.3-.164.38l-.942.239c-.241.058-.7-.022-.892.058-.434.104-.434.595-1.893.894-.105.024-.322.134-.402.188-.162.104-.3.27-.459.399-.107.081-.435-.055-.646-.022-.379.054-.596.377-.92.401-.809.107-2.051-.353-2.674-.104-.351.133-1.375 1.269-1.752 1.403-.246.077-.435-.028-.703-.14-.105.161-.434 1.403-.539 1.674 0 .058-1.676 1.459-1.782 1.62-.216.218-.321.484-.595.757-.162.16-.432.322-.729.322-.354 0-.861-.271-1.188-.322-.621-.104-2.521-.159-3.09-.057-.595.108-.419 1.813-1.877 1.973l-2.51.354c-.082 0-.608-.379-1.122-.217-.202.055-.836.698-.836.892v.354c0 .053.175.27.162.319-.337.378-1.067.976-1.311 1.402-.066.108-.162.271-.271.325-.189.16-1.188.539-1.282.729-.229.599.702 1.159.606 1.402-.257.782-1.296 1.513-1.634 2.239-.122.299.352 1.297.337 1.646-.107.942-.444 2.133-.391 3.051 0 .188.122 1.136.188 1.24.108.161.352.271.499.437.162.162 1.31 2.398 1.351 2.646.216 1.674-2.201 1.078-.797 2.754.216.271.392.539.622.755.31.324 2.092 1.62 2.119 1.757.039.242-1.445.461-1.701.729-.702.701-1.282 1.943-1.957 2.646-.419.434-.783-.025-1.336.973-.189.406 0 1.271-.229 1.514-.352.354-.635-.137-.986.025-.148.082-.242.515-.392.621-.391.353-3.875 2.188-4.198 2.021-.175-.081-.378-.646-.392-.836-.054-.217-.271-.646-.445-.784-.891-.755-2.254-.892-3.132.026-.215.242-.243.596-.526.837l-1.472 1.161c-.094.08-.351.378-.458.378-.351-.054-1.201-1.025-1.418-1.296-.392-.434-1.523-1.564-1.633-2.053 0-1.78-1.391-3.672-1.984-5.398h.877c.973-.646.688-2.268 2.457-1.619.217-.32.203-.646.607-.864.162-.077.446-.157.526-.296.595-.892 1.282-4.348.675-5.234-.54-.782-1.106-.756-1.553-2.078-.12-.379.122-.783 0-1.188-.079-.321-.675-2.215-.755-2.377-.107-.162-.473-.353-.5-.433-.026-.162-.147-2.239-.094-2.401-.581-1.594-2.564-2.619-2.673-2.81-.243-.379-.473-.896-.742-1.321-.297-.485-.297-.757-.473-1.241-.067-.217-.392-.378-.418-.622-.041-.401 1.161-1.319 1.106-2.052-.014-.242-.756-.939-.606-1.376.146-.405.917-1.353.891-1.812-.042-.619-1.188-1.974-1.35-2.617-.067-.324.459-.596.337-.813-.163-.27-1.377-1.376-1.58-1.697-.148-.242.458-.565.027-.998-.393-.406-.068-.271-.177-.598-.135-.378-.566-.756-.742-1.134-.147-.353-1.188-4.104-1.174-4.317-.176-.271-.473-.484-.635-.759-.147-.271-.215-.755-.337-.972-.027 0-1.188-.353-1.404-.7-.175-.271-.216-1.188-.513-1.676-.162-.216-.392-.161-.566-.324-.163-.104-.136-.322-.242-.481-.352-.486-1.039-.058-1.525-1.783-.635-.457-1.215-.836-1.768-1.375-.108-.106-.163-.242-.298-.297-.433-.162-1.093-.219-1.458-.541-.216 0-1.376-.057-1.511-.136-.122-.083-.257-.565-.337-.597-.621-.135-1.619-.08-2.134-.514-.418-.354-.512-2.104-1.241-1.861-.094-.024-.203-.081-.31-.057-.473-.619-2.134-.7-2.809-1.104-.203-.104-.823 0-.823-.215.148-.324.107-.597.121-.944-.363-.354-.606-.781-.863-1.055-.634-.137-.392-.188-.782-.434-1.093-.08-1.201.105-1.903.757-.162.161-.513.188-.728.323-.378.188-.487.861-1.014.539-.161-.105-.283-.271-.403-.378-.312-.271-.486-.106-.635-.597-.892-.48-3.348 1.188-3.941 0-.418-.216-.716.081-1.066-.27-.176-.188.486-2.215-1.31-3.024.419-.321.851-.539 1.243-.836.106-.243-.014-.564-.014-.783 0-.352.216-1.022.147-1.237-.066-.244-.322-.437-.417-.729-.108-.298.027-.646-.122-.944-.121-.081-.445-.271-.567-.271-.459-.377-.958-.646-1.336-1.077-.081-.109-.147-.3-.256-.381-.324-.216-1.39-.54-1.35-1.054.014-.162.243-.188.297-.354.067-.188.027-.459.175-.646.5-.676 1.62-.38 1.444-1.621-.094-.563-.486-1.052-.593-1.672-.189-.107-.216-.38-.392-.484-1.081-.107-.932-1.242-1.323-1.514-1.16-.757-2.052-.3-.77-1.836.176-.484-1.106-1.296-1.362-1.564-.459-.459-.244-1.376-.419-1.862-.08-.239-.85-.675-1.092-.999-.054-.105-.257-.619-.365-.701l.027-.158c.229-.164.107-.541.04-.76-.149-.161-.487-.104-.594-.217-1.04-.918-2.31-1.351-3.672-1.889-.379-.162-.271-.435-.567-.597l-2.241-.893c-.216-.08-.377-.894-.526-1.16-.134-.217-.646-.676-.646-.701.041-.756-.446-.863-1.026-1.241.041-.107-.066-.353-.066-.484 0-.08.392-1.402.459-1.593.107-.301.473-.54.403-.864-.08-.515-.147-1.271-.323-1.701-.58-1.563-1.282-1.375-.918-3.427.095-.405-.054-.677.271-1.056-.041 0 .148-.218.175-.241.189-.188.743-.485.852-.637.322-.432.513-1.442.931-1.756.311-.241 1.175-.7 1.323-.901.134-.162.337-.661.229-.863-.31-.176-.621-.106-.917-.136-.107-.026-.499-.313-.81-.364-.082-.104-.243-.229-.243-.363l-.122-.118c-.351-.044-.742-.261-1.052-.366-.393-.16-.933-.178-1.297-.395-.702-.4-1.484-1.512-2.159-1.672-.918-.203-1.499.08-2.376.12-.566.04-.566-.296-1.026-.434-.605-.188-.147.313-1.539-.12-.175-.148.082-.621.108-.812-.216-.057-.486.063-.742 0-1.161-.283-.715-1.322-1.026-1.998-.135-.162-.606-.123-.822-.147-.067-.015-.095-.12-.067-.16l.107-.081c.203-.297-.5-1.057-.473-1.161.04-.24 1.458-.459 1.646-.474.067-.188-.135-.354-.149-.526-.04-.402.217-.916.352-1.279l-.055-.123c-.391-.217-.513-.538-.863-.795.026-.188.257-.313.297-.484.675-1.86 1.728-.377 2.646-2.104.081-.162.338-.58.433-.863l.175-.041c.176.041.406.188.582.121.135-.176.417-.242.634-.297l.323.08c1.701-.361 1.31-.984 2.295-1.688.256-.188 1.012-.254 1.362-.377.379.162.892.741 1.594.998.498.202 2.226.565 2.51.729.365.188.433.676.755.852.986.525.419-.354 1.351-.176.959.203 1.74.982 2.632 1.361.147.057.525-.015.702-.064.283-.057 1.81-.338 1.958-.271.176.055.432.217.605.258.216.039.393-.418.54-.402.662.104.675.361 1.552.279.041 0 .459-2.44.864-2.563.243-.055.904.582 1.094.621.323.082-.015-.5-.042-.539-.094-.203-.54-1.7-.525-1.852.026-.082.433.121.635.066.473-.162 1.133-.284 1.483-.661a29.33 29.33 0 0 0 .797-1.147c.054-.177-.189-.607-.081-.743.106-.122.526-.283.716-.485.282-.282.324-.756.715-.958 1.552-.136 2.092-1.351 3.483-1.498.094 0 .391-.067.459-.04l.282.459c.096.12 1.026.675 1.176.634.135-.014.201-.229.337-.269.27.038 1.065-.446 1.146-.689.028-.041-.176-.284-.081-.446.054-.121 1.039-.836 1.188-.917.352 0 .716-.082 1.053.039.189.083.216.379.432.42.243.026.676-.082.852-.041.188.041.284-.351.526-.379l.053.026z"/><path d="M279.993 48.7l4.533 14.376 15.063-.135-12.281 8.761 4.776 14.309-12.094-8.977-12.146 8.977 4.805-14.309-12.282-8.761 15.091.135 4.535-14.376zm47.191 8.315l4.535 14.39 15.092-.135-12.285 8.761 4.811 14.308-12.146-8.977-12.121 8.976 4.773-14.308-12.255-8.761 15.063.135 4.533-14.389zm45.028 16.4l4.535 14.391 15.118-.136-12.312 8.761 4.807 14.295-12.148-8.963-12.095 8.963 4.778-14.295-12.283-8.761 15.064.136 4.536-14.391zM232.035 48.7l4.534 14.376 15.092-.135-12.284 8.761 4.777 14.309-12.119-8.977-12.122 8.977 4.792-14.309-12.283-8.761 15.077.135 4.536-14.376zm-47.204 8.315l4.536 14.39 15.077-.135-12.271 8.761 4.778 14.308-12.121-8.976-12.122 8.976 4.777-14.308-12.282-8.761 15.09.135 4.538-14.39zm-45 16.393l4.536 14.39 15.077-.135-12.271 8.762 4.778 14.308-12.121-8.977-12.122 8.977 4.777-14.308-12.282-8.762 15.09.135 4.538-14.39z" fill="#f5f7fa"/></svg>