<?xml version="1.0" encoding="utf-8"?>
<!-- Generator: Adobe Illustrator 16.0.0, SVG Export Plug-In . SVG Version: 6.00 Build 0)  -->
<!DOCTYPE svg PUBLIC "-//W3C//DTD SVG 1.1//EN" "http://www.w3.org/Graphics/SVG/1.1/DTD/svg11.dtd">
<svg version="1.1" id="Layer_1" xmlns="http://www.w3.org/2000/svg" xmlns:xlink="http://www.w3.org/1999/xlink" x="0px" y="0px"
	 width="800px" height="524.138px" viewBox="0 0 800 524.138" enable-background="new 0 0 800 524.138" xml:space="preserve">
<path fill="#41479B" d="M786.204,524.137H13.794C6.177,524.137,0,517.961,0,510.344V13.793C0,6.176,6.177,0,13.794,0h772.412
	C793.823,0,800,6.176,800,13.793v496.551C799.998,517.963,793.822,524.137,786.204,524.137z"/>
<g>
	<path fill="#FFE15A" d="M405.609,60.014l5.531,16.583l17.479,0.136c2.264,0.018,3.201,2.905,1.381,4.25l-14.063,10.385
		l5.272,16.666c0.683,2.156-1.773,3.943-3.616,2.626l-14.22-10.165l-14.221,10.165c-1.841,1.315-4.298-0.469-3.615-2.626
		l5.271-16.666l-14.063-10.385c-1.82-1.345-0.883-4.232,1.382-4.25l17.479-0.136l5.531-16.583
		C401.854,57.868,404.893,57.868,405.609,60.014z"/>
	<path fill="#FFE15A" d="M405.609,416.049l5.531,16.583l17.479,0.136c2.264,0.018,3.201,2.905,1.381,4.25l-14.063,10.385
		l5.272,16.665c0.683,2.156-1.773,3.944-3.616,2.627l-14.22-10.166l-14.221,10.166c-1.841,1.315-4.298-0.469-3.615-2.627
		l5.271-16.665l-14.063-10.385c-1.82-1.345-0.883-4.232,1.382-4.25l17.479-0.136l5.531-16.583
		C401.854,413.902,404.893,413.902,405.609,416.049z"/>
	<path fill="#FFE15A" d="M583.625,238.032l5.531,16.583l17.479,0.136c2.265,0.017,3.202,2.904,1.382,4.25l-14.063,10.384
		l5.271,16.666c0.683,2.156-1.773,3.943-3.615,2.627l-14.221-10.166l-14.221,10.166c-1.84,1.315-4.298-0.469-3.615-2.627
		l5.271-16.666l-14.063-10.384c-1.82-1.346-0.883-4.233,1.382-4.25l17.479-0.137l5.531-16.582
		C579.87,235.885,582.909,235.885,583.625,238.032z"/>
	<path fill="#FFE15A" d="M227.59,238.032l5.531,16.583l17.479,0.136c2.265,0.017,3.202,2.904,1.382,4.25l-14.063,10.384
		l5.271,16.666c0.683,2.156-1.773,3.943-3.615,2.627l-14.221-10.166l-14.22,10.166c-1.841,1.315-4.299-0.469-3.616-2.627
		l5.272-16.666l-14.063-10.384c-1.82-1.346-0.883-4.233,1.381-4.25l17.479-0.137l5.531-16.582
		C223.837,235.885,226.876,235.885,227.59,238.032z"/>
	<path fill="#FFE15A" d="M254.315,145.069l5.531,16.583l17.48,0.136c2.264,0.018,3.201,2.905,1.381,4.25l-14.063,10.385
		l5.271,16.665c0.684,2.156-1.773,3.944-3.615,2.627l-14.221-10.166l-14.22,10.166c-1.841,1.315-4.299-0.469-3.616-2.627
		l5.272-16.665l-14.063-10.385c-1.82-1.345-0.883-4.232,1.381-4.25l17.479-0.136l5.531-16.583
		C250.562,142.923,253.598,142.923,254.315,145.069z"/>
	<path fill="#FFE15A" d="M562.649,323.087l5.531,16.583l17.479,0.136c2.265,0.017,3.202,2.904,1.382,4.25l-14.063,10.384
		l5.271,16.666c0.683,2.156-1.773,3.943-3.615,2.627l-14.221-10.166l-14.221,10.166c-1.84,1.315-4.298-0.469-3.615-2.627
		l5.271-16.666l-14.063-10.384c-1.82-1.346-0.883-4.233,1.382-4.25l17.479-0.136l5.531-16.583
		C558.896,320.939,561.933,320.939,562.649,323.087z"/>
	<path fill="#FFE15A" d="M497.49,79.91l5.531,16.583l17.48,0.136c2.264,0.018,3.201,2.905,1.381,4.25l-14.063,10.385l5.271,16.665
		c0.684,2.156-1.773,3.944-3.615,2.627l-14.221-10.166l-14.22,10.166c-1.841,1.315-4.299-0.469-3.615-2.627l5.271-16.665
		l-14.063-10.385c-1.82-1.345-0.883-4.232,1.381-4.25l17.48-0.136l5.531-16.583C493.737,77.763,496.772,77.763,497.49,79.91z"/>
	<path fill="#FFE15A" d="M319.473,388.246l5.531,16.583l17.479,0.136c2.264,0.017,3.201,2.904,1.381,4.25l-14.063,10.384
		l5.272,16.666c0.683,2.156-1.773,3.943-3.616,2.627l-14.22-10.166l-14.221,10.166c-1.841,1.315-4.299-0.469-3.615-2.627
		l5.271-16.666l-14.063-10.384c-1.82-1.346-0.883-4.233,1.382-4.25l17.479-0.136l5.531-16.583
		C315.719,386.098,318.755,386.098,319.473,388.246z"/>
	<path fill="#FFE15A" d="M558.18,145.069l-5.531,16.583l-17.479,0.136c-2.265,0.018-3.202,2.905-1.382,4.25l14.063,10.385
		l-5.271,16.665c-0.683,2.156,1.773,3.944,3.615,2.627l14.221-10.166l14.221,10.166c1.84,1.315,4.298-0.469,3.615-2.627
		l-5.271-16.665l14.063-10.385c1.82-1.345,0.883-4.232-1.382-4.25l-17.479-0.136l-5.531-16.583
		C561.933,142.923,558.896,142.923,558.18,145.069z"/>
	<path fill="#FFE15A" d="M249.846,323.087l-5.531,16.583l-17.479,0.136c-2.264,0.017-3.201,2.904-1.381,4.25l14.063,10.384
		l-5.272,16.666c-0.683,2.156,1.773,3.943,3.616,2.627l14.22-10.166l14.221,10.166c1.841,1.315,4.299-0.469,3.615-2.627
		l-5.271-16.666l14.063-10.384c1.82-1.346,0.883-4.233-1.381-4.25l-17.48-0.136l-5.531-16.583
		C253.598,320.939,250.562,320.939,249.846,323.087z"/>
	<path fill="#FFE15A" d="M315.004,79.91l-5.531,16.583l-17.479,0.136c-2.265,0.018-3.202,2.905-1.382,4.25l14.063,10.385
		l-5.271,16.665c-0.683,2.156,1.773,3.944,3.615,2.627l14.221-10.166l14.22,10.166c1.841,1.315,4.299-0.469,3.616-2.627
		l-5.272-16.665l14.063-10.385c1.82-1.345,0.883-4.232-1.381-4.25l-17.479-0.136l-5.531-16.583
		C318.755,77.763,315.719,77.763,315.004,79.91z"/>
	<path fill="#FFE15A" d="M493.021,388.246l-5.531,16.583l-17.479,0.136c-2.265,0.017-3.202,2.904-1.382,4.25l14.063,10.384
		l-5.271,16.666c-0.683,2.156,1.773,3.943,3.615,2.627l14.221-10.166l14.22,10.166c1.841,1.315,4.299-0.469,3.616-2.627
		l-5.272-16.666l14.063-10.384c1.82-1.346,0.883-4.233-1.381-4.25l-17.479-0.136l-5.531-16.583
		C496.772,386.098,493.737,386.098,493.021,388.246z"/>
</g>
</svg>
