<svg xmlns="http://www.w3.org/2000/svg" width="512" height="335.227" xmlns:v="https://vecta.io/nano"><path fill="#00ab39" d="M.255 167.613h511.659v158.791c0 4.872-3.95 8.822-8.822 8.822H9.078c-4.872 0-8.821-3.95-8.821-8.822V167.613H.255z"/><path fill="#f5f5f5" d="M511.744 167.613H.085V8.822C.085 3.95 4.036 0 8.907 0h494.016c4.872 0 8.822 3.95 8.822 8.822l-.001 158.791h0z"/><g stroke="#000" stroke-width="1.8"><path fill="#d21034" d="M345.049 36.12c-.007.013-.012.027-.02.039.021-.012.038-.026.059-.039h-.039zm-.019.039c-32.424 17.931-61.447 36.585-89.977 60.359-13.69 11.96-9.828 21.494-10.356 32.234.44 7.211-1.56 13.919-5.993 17.961l-30.45 6.168-2.91-8.418c.929-4.309 4.489-6.426 11.986-3.726.591-5.537-3.865-7.791-9.076-9.716-1.791-1.394-4.016-2.466-3.725-7.255-.877-10.841 16.52.774 16.68.774s-.58-10.938-8.572-13.131c-4.356-1.542-6.202-6.139-4.539-9.542 3.486-6.957 10.052.545 15.07.813-.188-4.539-1.479-7.776-5.392-11.442-2.105-1.295-7.275-2.27-7.409-4.439-.11-2.949 4.846-4.211 11.656-3.396-1.42-4.134-6-6.808-12.296-8.748l-3.725-6.478c-1.764-3.266-2.555-3.354 1.531-9.542l12.22-8.108-4.054-.484c.539-4.427.602-5.914 1.629-13.267-3.938 5.382-8.859 4.42-13.285 6.633 0 0-12.619 2.24-16.681 7.604-.163 0-31.73-1.609-31.73-1.609-6.729.937-12.476 2.844-13.597 9.387-15.388 1.554-31.502.181-43.231 14.896 7.986-.379 14.979-2.28 23.953-1.126 0 0 7.646.146 9.231 8.243.162.324 2.6.33 2.6.33l2.908 2.27 1.125-3.084 2.6 1.783.814-3.394 2.58 1.783.174-4.053 3.396 2.424V73.53s12.531-.029 16.351 7.934c.163.161-35.171 6.494-69.301 3.567l9.873-4.869c-12.444-2.528-24.146-4.815-35.126-13.439 4.144 15.604 25.558 33.929 29.947 33.847 0 .162-4.209-7.603-4.209-7.603l37.083 1.609c1.351 4.103.753 8.701 4.056 12.316 0 0-2.05 6.779 2.501 9.543.163.322 5.431-13.754 5.431-13.754s1.613 3.787 3.239 6.305c2.354-12.106 15.536-14.081 15.536-14.081l2.754 6.479c-4.119.595-9.242 8.99-6.479 13.596-2.762.053-7.666 8.185-6.147 12.627-2.322 2.312-8.104 5.392-6.634 15.069-4.553.977-7.247 9.305-5.838 18.137-7.044 6.556-5.314 18.591.971 23.467-2.608 2.321-4.215 4.106-4.209 6.964-2.479-.922-4.768-.15-5.839 1.475-3.039-3.116-7.404-5.847-10.513-2.93-.805-3.687-5.604-7.741-10.86-7.271.309-3.888-1.71-8.7-7.273-10.377 0 0-1.126-18.221-6.651-24.128-.543-3.307.315-5.554 4.867-8.264 4.546-2.425 5.512-4.305 5.18-11.172 1.791-4.59 3.151-9.271-2.424-12.45.165 5.458-1.51 8.087-3.726 10.512-2.646-.386-3.572 2.705-5.354 4.054-2.493-3.36 5.258-8.563-.484-16.04-.324-.324-4.01-9.759-13.111-9.543 4.326 2.534 6.156 6.797 6.147 11.172-2.87 8.098-4.328 14.354-1.454 23.644-3.781-5.665-5.926-16.437-9.058-18.31-2.745-.535-4.085-7.026-14.74-5.178 4.595 1.236 6.055 4.745 7.292 7.932-2.818 1.454-1.418 5.287.641 7.934-.392 6.216 3.332 9.848 8.902 12.161l-2.754 25.407c-2.213-.281-5.617 8.332-6.963 8.593-2.166 1.348-5.947 4.972-1.609 5.992-1.289 4.649-2.484 7.453-9.408 8.418 0 0 7.316 4.34 13.383-3.084 6.501-.162 4.363-7.915 7.508-11.326 0-.161 1.782-1.281 4.383-8.106 1.136 6.094 7.39 24.757 21.53 34.02 12.321 13.192 22.45 25.651 22.343 43.232 4.811-4.474 7.683-11.56 9.892-18.31 6.688-2.326 16.256-3.215 24.787-2.832-1.464 3.079-3.103 6.034-.989 8.029-5.954 2.046-7.258 6.365-4.868 10.688-6.274 4.262-6.688 7.001-6.787 14.081-11.611 14.887-18.774 14.393-30.276 10.532-3.777-2.219-9.623-5.408-12.316-3.726-4.968-3.311-12.109-3.802-13.285 3.726 3.729-3.09 5.953-2.494 8.923.483-.599 1.514-1.098 3.019 1.124 3.879l-2.909 3.239c-5.347-.821-12.533-.774-14.41 6.964 2.746-2.274 8.838-2.81 13.75-.641l2.756.97.329 3.725s-7.282-1.124-9.231 10.688c6.826-7.264 11.655-5.354 11.655-5.354 2.632 3.852 12.314 3.271 19.28-3.064 9.781-5.469 12.635 2.392 18.948-2.754 5.235-3.905 11.431-1.309 15.69 3.238 4.913 1.843 10.054 3.36 14.101 0 0 0 4.942-3.153 9.873 1.939.054-5.742-4.017-8.795-9.543-8.902l-1.629-1.629c-5.183-1.08-11.005-.643-15.536-3.238 2.137-8.109 5.249-15.457 11.327-21.704 7.502-8.043 13.025-11.699 22.498-24.012-.365 6.958 4.967 14.694 7.777 21.762 0 0 5.658-9.033 6.479-16.37.162 0 7.09-3.605 10.047-6.672 6.24 3.871 16.414-3.1 22.984-8.863 4.049 1.533 7.123 1.423 11.83 0-3.777 7.689 2.187 14.823 11.657 17.805.876 6.789 7.732 8.211 18.135 8.264.438 3.995 6.634 4.538 6.634 4.538-3.916 1.824-5.956 3.652-5.819 7.776-4.012.027-7.051 1.037-8.106 5.664-5.509.095-11.123.518-15.865 3.239-5.074-.788-11.247-2.891-15.226-6.963-2.053-1.729-2.563-4.219-6.148-5.179-2.271-2.687-4.989-2.087-5.838.484-2.348-1.834-11.154-2.687-12.627 5.663 4.111-3.009 7.799-4.156 10.377-.484-1.404 2.549 3.424 4.007 7.604 5.022 2.964.184 8.221 2.885 9.872 7.448-3.823 1.16-9.618.777-13.44-2.114-3.399-2.844-7.99-2.505-10.514-.64-3.5-2.232-11.836 1.98-12.16 8.728 3.512-3.218 6.707-4.772 9.892-2.733-1.585.376-.982.529-.813 1.454l8.088 4.692c-3.969 1.047-7.698 2.631-5.975 10.028 0 0 3.231-6.392 10.513-4.034.162-.162 1.004 2.282 3.084.641 3.149-3.586 10.354-5.189 16.68-5.818 5.078-.606 10.146-2.104 14.566.795 3.937-2.024 8.316-3.387 12.802-.155 5.29 1.674 9.151 7.84 15.865 5.024 3.338-2.313 7.44-2.43 11.655 2.269.052-5.923-4.387-7.909-10.687-9.231l-4.364-2.6c-4.048-.595-8.113.123-12.161-1.785 21.188-5.477 36.037-17.291 46.491-34.155l10.027 3.551c2.374.15 2.556.977 7.447 2.443.186-7.209-2.909-14.634-15.864-15.382l-17.011-6.478c-3.61-3.809-5.242-11.888-.641-16.682 4.505-4.011 5.291-3.529 8.263-8.417 3.613-.329 7.02 3.395 10.357 3.395 1.584 4.709 10.721 8.872 16.524 7.448 3.637 3.22 10.557 5.009 18.135 2.425 4.301 3.766 9.904 5.337 16.506 2.424 1.752 1.753 5.451 3.146 9.717 2.27.324 0 2.155 4.682 6.809 6.323-2.027 1.971-.781 10.529 1.3 13.596-1.42 3.291-1.866 6.803-.659 10.202-4.691 3.018-5.646 5.262-3.55 10.358-6.146 9.871-13.494 11-20.403 7.951l-7.448-4.713-7.933-7.76c-1.348-1.264-4.134-1.661-4.713 1.125 0 0-10.181-2.27-10.997 6.323 4.218-4.109 10.201-.491 10.201-.33s-1.426 1.132-.329 2.773c.246-.204 7.431 2.682 13.829 5.431 3.475 1.317 4.237 1.729 5.76 2.542l-5.76-2.542c-3.896-1.476-7.689-2.655-8.807-2.366-3.625-.338-7.47-.788-9.231 1.94-3.896 1.647-9.982 2.969-9.717 10.201 2.63-4.307 6.239-4.125 10.842-3.724l-.312.97c4.995 2.275 4.049-.619 8.709-1.047 3.896-.357 9.417 1.038 12.335 2.017-3.67 1.08-8.66.627-11.017 3.24-.433.863-1.943.51-1.28 2.579 0 0-7.158-.187-9.077 9.717 7.28-4.66 12.796-4.52 12.957-4.52s2.27.484 2.27.484l8.901-5.838c.163 0 8.467-3.677 12.297.484 3.346 1.645 6.923 1.749 10.377-.329 6.807-2.961 13.178-3.168 19.436.988l5.663 3.395 2.425-1.629s6.41-1.812 11.113 3.897c-1.944-9.877-8.999-10.201-8.999-10.201l-1.63-1.455-10.027-3.898c-1.461-3.616-5.131-6.495-1.474-10.842 3.735-18.573 8.204-32.523.97-51.34 6.747 2.913 11.795 11.927 20.249 8.746 0-7.557-27.819-21.904-49.071-33.438 34.815-1.781 76.657-27.48 60.572-60.146l7.604-23.643c3.581 7.213 10.832 12.713 17.34 15.051-5.362-10.237-8.44-41.541-5.354-63.151-14.029 17.33-29.521 32.71-45.987 48.334 8.101 1.893 15.179.561 23.005-.408l-6.575 13.617c-21.396-12.53-46.518-3.128-46.705 13.596.731 19.501 24.844 22.271 38.753 15.477-2.758 17.78-43.621 11.23-43.621 11.23-14.52-5.004-28.311-4.147-43.563-4.034 3.168-9.751 20.769-18.403 34.176-14.585-18.771-21.047 2.652-47.176 28.49-55.221-28.162-9.287-3.912-30.757 17.166-46.142 0 0-60.614 25.511-66.14 25.429-17.25-1.29-12.55-21.699-5.982-32.678h0zM154.78 60.657c1.41.007 3.067.146 4.383.466 2.733.665 6.06 1.048 6.013 1.861-1.266 2.118-4.374 4.673-7.429 4.521s-4.82-1.986-5.837-6.576c.31-.169 1.458-.28 2.87-.272zm255.147 71.919c3.975-.056 8.735 1.626 13.384 6.556-2.234 6.437-21.625 9.741-22.927.213-.393-2.882 3.734-6.691 9.543-6.769h0z"/><g stroke-linejoin="round"><path fill="none" d="M174.802 116.916l2.939 4.277m-.133.135s0 5.746 1.202 5.882m-2.673 3.073c.135.136 3.075 5.08 3.075 5.08m-8.422 1.336c.133 0 3.743 4.146 3.743 4.146m3.135-3.216c0 .133 3.415 6.557 3.684 6.557m-8.154-2.139s1.202 7.752 2.271 7.483m-7.324 6.722l3.447 5.176m2.941-10.694s1.872 7.353 3.341 6.684m1.469-11.098c.134.134 3.479 4.949 4.413 4.281m-.802 1.871l3.208 6.416m-8.554-1.472c.134.27 2.673 7.62 2.673 7.62m-8.822-3.741s2.406 8.151 4.544 6.815m-5.48 4.01s.134 4.277 2.272 4.544m1.472-6.682c0 .134 2.139 3.075 2.139 3.075m3.97-8.161l1.775 2.813m3.878-8.018l2.674 3.34m-15.078-41.668c.134 3.608 5.856-1.271 8.13-4.346m-10.562 16.875s6.28-4.411 11.094-11.095m-13.1 21.655c4.409-1.203 12.526-11.02 14.131-16.231m-15.068 25.988c1.205.534 16.365-10.385 16.768-18.404m-17.167 26.826c0-.135 13.858-3.533 19.606-18.771m-20.35 30.302s22.131-13.271 23.334-23.025m149.434 45.31s-1.427 11.453-12.922 13.19m16.531 7.262c.135-.135 10.961-12.03 8.155-15.64m16.975 4.144s-.134 8.287-6.951 14.035m20.451-11.628s.269 10.022-4.01 14.034m16.44-8.02s-4.796 9.389-6.533 10.324m6.326 6.315s6.311 1.571 8.314-2.572m-6.678 16.188s5.834 1.055 8.508-4.56m-9.133 15.074s4.721 3.966 7.929-1.246m-75.69-75.994s-.535 20.317 28.068 24.46c31.947 8.822 47.051 4.145 48.923 39.967-1.203 13.634-2.896 29.033-12.788 23.151m-94.538-68.862s4.545 8.153 10.024 7.618c7.217-2.139 9.892 2.271 9.892 2.271m-39.431-1.736s12.029 5.881 22.322-3.609m-20.985-4.811c1.066 14.033-16.175 22.055-22.993 20.719m23.81 33.06c.134 0 9.341-5.525 7.47-9.403m-25.799 1.204c.269-.269 15.506-1.738 18.313-7.22m-25.397-15.237c0-.135 21.628.061 23.098 4.069m5.641-16.9s-21.119 36.09 17.911 36.09m-40.234-36.626s-4.544 13.501-10.962 18.045m-11.493-22.721s7.842 15.174-.045 22.658m-20.406-18.382c.134.269 2.54 21.521-2.808 27.535m-7.349-26.867s.799 13.5-3.209 18.313.939 14.807.939 14.807m-48.722 6.489s2.871 5.035 6.881 3.297m-2.006-14.301s6.416 2.807 8.556 1.736m-1.605-24.46s-9.49 2.674-5.881 13.9c5.479 4.412 10.826 3.743 10.826 3.743m-23.658 30.076c-.133 0 1.069 8.822 7.219 2.139 4.275-8.955 17.777-34.218 20.853-42.906m6.28-4.144s-6.55-5.08-6.28 2.005c-.136 4.41 2.004 5.479 2.004 5.479.268 3.208 3.074 7.752 5.347 3.608.937-4.01-.668-5.747-.668-5.747m3.741-7.218c-5.881-.4-9.089 12.564 2.271 4.413m3.878-8.823s-1.471 2.006-3.742-.134c-1.202-2.139-5.479 9.625 2.006 10.024 1.336-3.476 5.479-4.41 5.479-4.41m3.476-11.095s-3.343 1.604-4.546 1.337c-4.011.937-3.208 10.293 1.872 9.759 1.735-2.006 3.607-4.813 3.607-4.813m-32.453-18.513c-.134 0-13.265 20.647 7.32 26.128m159.329-57.21s-8.021 6.816-.535 17.777c-24.862-.4-38.228 11.095-39.296 18.847-31.68-2.271-25.934 7.085-36.227 10.159-13.767-11.495-33.949-5.079-32.612 6.415-9.225-12.966-23.392-6.683-25.129-3.476s-1.069-15.906-1.069-15.906-9.223 4.146-15.64 11.764c.134-5.079 0-13.366 0-16.04-7.708 1.56-15.148 1.646-23.123 1.471m-20.853-5.881s11.495 6.415 25.663-2.272m-26.598-20.852s8.956 8.019 25.798 5.479m-20.183-23.925s2.004 6.55 21.252 6.95m-14.735-22.097s7.249 8.863 17.005 7.527m-10.824-20.183s2.808 4.812 13.499 5.614m-7.218-19.649s5.614 6.148 12.03 5.08m21.37-55.051s2.485-2.486 6.631-1.244m-8.425 14.364s-7.735-.275-7.184-3.313c.553-3.453 8.148-5.938 8.148-5.938s10.082-6.492 11.601-8.701m-45.574 35.353l9.808 18.783 4.693-7.044 2.486 4.834 4.006-7.043 6.904 4.419-2.623-8.563 5.799-.414s-1.518-4.146-6.768-4.974c1.383-1.104 6.217-4.28 6.217-4.28s-2.762-3.178-7.045-3.314c1.383-1.52 3.313-5.248 3.178-5.248s-4.281-.967-4.281-.967 9.806 3.177 17.401-1.243m-18.774-15.184c.139.138-.553 3.866-2.625 6.076m-35.217 4.282s6.065-1.67 10.605-.724c4.496.925 10.522 2.519 10.522 2.519s7.183-.967 9.531-2.624m-45.713 4.834s-.827 2.898-1.104 4.832c0 1.382-4.422 3.179-4.422 3.179m8.288-13.95s3.867 4.834 4.006 7.596-2.899 4.834-2.899 4.834M95.67 92.771l-4.005-6.49 3.59-1.244m72.74 97.269c-3.207-4.145 2.406-67.771 14.304-84.341-4.144 29.939 9.624 60.55 13.1 60.417m-63.555-78.197s5.412 2.072 16.641-6.816m15.169 21.521l8.055.1m241.739-49.969l-136.135 66.02c22.655-6.838 118.749-22.854 121.096-21.485-5.665 1.368-122.271 28.125-127.737 34.572 29.103-.979 90.045 9.375 99.609 19.336-20.704-4.688-82.621-13.867-101.564-9.769 13.867 3.322 66.994 37.697 66.994 43.167-8.008-7.617-71.879-33.986-74.417-31.446 14.647 8.789 35.353 41.406 35.352 49.415-4.297-6.836-41.213-46.484-43.359-43.946 3.906 5.47 11.646 52.271 7.689 54.441 0-5.664-14.33-46.629-15.503-47.801-2.931.78-21.195 49.98-17.577 54.555-2.344-16.405.391-50.647 4.882-49.28-8.007 1.172-33.563 34.867-30.829 40.143.781-8.399 1.924-13.97 16.376-41.9-16.018.978-49.219 21.876-54.884 29.299 4.492-13.281 32.616-35.744 44.923-37.307m57.915-48.877c14.183-7.87 58.008-23.931 87.24-35.715M238.753 146.51s9.668-.139 19.335-26.379c9.526-35.904 85.073-75.955 86.596-83.416M110.9 182.612s-2.243 4.781-5.006 6.163m15.842 1.082s-2.996 5.823-3.688 8.585m14.059-5.738s2.514 7.946.442 11.678m-29.319-32.307c-7.596 4.281 4.322 31.339 40.367 33.963m-5.799-14.64s-.967 4.833 5.8 14.502c-1.934 10.771 8.19 19.237 12.194 20.619M134.896 94.313c0-.14 1.104-2.901 1.104-2.901l1.231 3.193 1.98-.052 1.309-3.2 1.073 3.213h1.971l1.214-3.568 1.836 3.38 1.559.077 1.229-4.113 2.529 2.945.921-.354.786-4.116 2.5 2.879.718-.421 1.159-4.056 2.076 3.016 1.045-.341.972-3.409 1.931 3.133m-31.365 5.057l15.065-.225c4.793-.071 12.688-6.715 21.527-4.644m-68.347 37.1s2.486 5.388 5.939 2.35m-11.738 1.241s-4.834 12.982.966 16.021m-7.871-30.383s0 3.037 6.353-1.657m-26.115 69.879s5.11 1.519 4.282 5.386m-2.35-65.05s3.177 1.52 6.216-3.177m27.482 152.614c4.972-.276 6.042 1.969 10.565 1.969 5.212.158 10.288-1.969 16.919-3.766m42.675 12.016c-.138 0-2.349 4.696-.415 7.043m-70.436-6.629s7.873-6.491 12.016-2.485c4.006 1.382 6.215 1.104 6.215 1.104m-14.084-17.122s1.935 4.971-4.559 4.279m-1.933 7.183s4.144 2.624-.553 6.076m3.039 4.696s5.662.828 2.348 5.387m180.555-39.793s15.377 1.591 16.084 2.739c1.769-1.855 15.499-12.979-1.382-14.567-2.826 11.577-14.437 12.004-14.702 11.828h0zm-5.48 7.688c5.745 4.595 3.391 7.349 21.421-4.759m-29.639 10.504s8.482 9.103 14.67-1.945m-30.843 5.214l-11.49 6.01m-20.68 8.484s6.979-6.01 10.251-2.827 17.146-2.739 17.146-2.739m-22.184-20.504s2.387 4.771-2.209 5.391m-6.893 9.544s2.422 4.487-2.264 5.726m7.655 6.47s7.247.354 4.684 5.833m63.102-6.804s-3.978 3.357-1.062 7.158m58.773-31.286s4.596 2.208-.885 6.011m-4.595 7.953s3.446 3.624 1.149 6.628m8.485 7.247s4.771 1.326 4.241 5.303m62.569-8.837s-3.978 2.915-1.855 6.716m-68.979-122.871c9.545-1.15 23.243 20.061 30.224 24.215m41.752-54.262s4.835 4.221.582 14.402m8.381-30.638c1.347 1.046 6.541 3.82 9.976 10.238m3.295-41.993c0 .088-6.717 18.117-6.717 18.117m14.228-19.001s-1.325 16.084-3.27 19.354m-26.66 29.31c-2.234 6.438-21.624 9.729-22.925.201-.66-4.849 11.485-12.332 22.925-.201z"/><path d="M154.63 60.708l7.46 1.382s-5.251 7.045-7.46-1.382z"/></g></g></svg>