<svg xmlns="http://www.w3.org/2000/svg" xmlns:xlink="http://www.w3.org/1999/xlink" width="210" height="211" fill="none" xmlns:v="https://vecta.io/nano"><style><![CDATA[.B{opacity:.15}.C{fill:#000}.D{stroke:#000}.E{stroke-width:.25}.F{fill-rule:evenodd}.G{fill:#fee1b9}.H{stroke-miterlimit:10}.I{fill:#c465c3}.J{fill:#57291e}.K{fill:#c6421e}.L{fill:#aa3115}.M{fill:#a8ce9d}.N{fill:#e2901a}.O{fill:#ffc55f}.P{fill:#5a2a28}.Q{fill:#a2003d}.R{fill:#f2c796}.S{fill:#ffe7d4}.T{fill:#f9b49b}.U{fill:#03446b}.V{fill:#052c49}.W{fill:#2a72d1}.X{fill:#d4d4d4}.Y{fill:#231f20}.Z{fill:#ddd2f0}.a{fill:#223496}.b{fill:#77196d}.c{fill:#d4ebce}.d{fill:#8cb482}]]></style><path d="M210 105.055c0 58.021-47.01 105.055-105 105.055S0 163.076 0 105.055 47.01 0 105 0s105 47.035 105 105.055z" fill="#3d79cf"/><mask id="A" mask-type="alpha" maskUnits="userSpaceOnUse" x="0" y="0" width="210" height="211"><path d="M210 105.055c0 58.021-47.01 105.055-105 105.055S0 163.076 0 105.055 47.01 0 105 0s105 47.035 105 105.055z" fill="#3d79cf"/></mask><g mask="url(#A)"><g class="B"><use xlink:href="#C" class="B C D E"/><use xlink:href="#C" class="B C D E"/><use xlink:href="#D" class="B C D E"/><use xlink:href="#D" class="B C D E"/><use xlink:href="#E" class="B C D E"/><use xlink:href="#E" class="B C D E"/><use xlink:href="#F" class="B C D E"/><use xlink:href="#F" class="B C D E"/><use xlink:href="#G" class="B C D E"/><use xlink:href="#G" class="B C D E"/><use xlink:href="#H" class="B C D E"/><use xlink:href="#H" class="B C D E"/><use xlink:href="#I" class="B C D E"/><use xlink:href="#I" class="B C D E"/><use xlink:href="#J" class="B C D E"/><use xlink:href="#J" class="B C D E"/><use xlink:href="#K" class="B C D E"/><use xlink:href="#K" class="B C D E"/><use xlink:href="#L" class="B C D E"/><use xlink:href="#L" class="B C D E"/><use xlink:href="#M" class="B C D E"/><use xlink:href="#M" class="B C D E"/><use xlink:href="#N" class="B C D E"/><use xlink:href="#N" class="B C D E"/><use xlink:href="#O" class="B C D E"/><use xlink:href="#O" class="B C D E"/><path d="M95.919 115.812h.194v-.207l.224-.209h-.224-.194v.209h-.418v.207.209l.418-.209z" class="B C D E"/><path d="M95.919 115.812h.194v-.207l.224-.209h-.224-.194v.209h-.418v.207.209l.418-.209z" class="B C D E"/><g class="B"><use xlink:href="#P" class="C"/><use xlink:href="#Q" class="D E"/><use xlink:href="#P" class="C"/><use xlink:href="#Q" class="D E"/><use xlink:href="#R" class="C D E"/><use xlink:href="#R" class="C D E"/><use xlink:href="#S" class="C D E"/><use xlink:href="#S" class="C D E"/><use xlink:href="#T" class="C D E"/><use xlink:href="#T" class="C D E"/><use xlink:href="#U" class="C D E"/><use xlink:href="#U" class="C D E"/><use xlink:href="#V" class="C D E"/><use xlink:href="#V" class="C D E"/><use xlink:href="#W" class="C D E"/><use xlink:href="#W" class="C D E"/><path d="M96.713 82.558h-.194-.197v-.402h.197.194l.224.209-.224.194z" class="C D E"/><path d="M96.713 82.558h-.194-.197v-.402h.197.194l.224.209-.224.194zm1.785 6.595h.418.209v.209h-.209-.21l-.208-.209z" class="C D E"/><path d="M98.498 89.153h.418.209v.209h-.209-.21l-.208-.209zm4.25-18.115l-.221-.209-.209-.196h.209l.221-.209v.209.196.209z" class="C D E"/><path d="M102.748 71.038l-.221-.209-.209-.196h.209l.221-.209v.209.196.209z" class="C D E"/><use xlink:href="#X" class="C D E"/><use xlink:href="#X" class="C D E"/><use xlink:href="#Y" class="C D E"/><use xlink:href="#Y" class="C D E"/><path d="M96.937 80.514l.193-.224.225-.196.208.196v.224l-.433.193-.193-.193z" class="C D E"/><path d="M96.937 80.514l.193-.224.225-.196.208.196v.224l-.433.193-.193-.193z" class="C D E"/><use xlink:href="#Z" class="C D E"/><use xlink:href="#Z" class="C D E"/><path d="M97.339 75.394v-.196h-.209l.209-.224v-.209h-.209l.433.209v.224h-.224v.196z" class="C D E"/><path d="M97.339 75.394v-.196h-.209l.209-.224v-.209h-.209l.433.209v.224h-.224v.196z" class="C D E"/><use xlink:href="#a" class="C"/><use xlink:href="#b" class="D E"/><use xlink:href="#a" class="C"/><use xlink:href="#b" class="D E"/><use xlink:href="#c" class="C D E"/><use xlink:href="#c" class="C D E"/><use xlink:href="#d" class="C D E"/><use xlink:href="#d" class="C D E"/><use xlink:href="#e" class="C D E"/><use xlink:href="#e" class="C D E"/><use xlink:href="#f" class="C D E"/><use xlink:href="#f" class="C D E"/><use xlink:href="#g" class="C"/><use xlink:href="#h" class="D E"/><use xlink:href="#g" class="C"/><use xlink:href="#h" class="D E"/><use xlink:href="#i" class="C D E"/><use xlink:href="#i" class="C D E"/><use xlink:href="#j" class="C D E"/><use xlink:href="#j" class="C D E"/><use xlink:href="#k" class="C D E"/><use xlink:href="#k" class="C D E"/><use xlink:href="#l" class="C D E"/><use xlink:href="#l" class="C D E"/><use xlink:href="#m" class="C D E"/><use xlink:href="#m" class="C D E"/><use xlink:href="#n" class="C D E"/><use xlink:href="#n" class="C D E"/><use xlink:href="#o" class="C"/><use xlink:href="#p" class="D E"/><use xlink:href="#o" class="C"/><use xlink:href="#p" class="D E"/><use xlink:href="#q" class="C D E"/><use xlink:href="#q" class="C D E"/><use xlink:href="#r" class="C D E"/><use xlink:href="#r" class="C D E"/><path d="M118.681 84.018v-.193-.209l.21.209h.21v.193h-.21v.212l-.21-.212z" class="C D E"/><path d="M118.681 84.018v-.193-.209l.21.209h.21v.193h-.21v.212l-.21-.212z" class="C D E"/><use xlink:href="#s" class="C D E"/><use xlink:href="#s" class="C D E"/><use xlink:href="#t" class="C D E"/><use xlink:href="#t" class="C D E"/><use xlink:href="#u" class="C D E"/><use xlink:href="#u" class="C D E"/><use xlink:href="#v" class="C D E"/><use xlink:href="#v" class="C D E"/><use xlink:href="#w" class="C D E"/><use xlink:href="#w" class="C D E"/><use xlink:href="#x" class="C D E"/><use xlink:href="#x" class="C D E"/><use xlink:href="#y" class="C D E"/><use xlink:href="#y" class="C D E"/><use xlink:href="#z" class="C D E"/><use xlink:href="#z" class="C D E"/><use xlink:href="#AA" class="C D E"/><use xlink:href="#AA" class="C D E"/><use xlink:href="#AB" class="C D E"/><use xlink:href="#AB" class="C D E"/><use xlink:href="#AC" class="C D E"/><use xlink:href="#AC" class="C D E"/><use xlink:href="#AD" class="C D E"/><use xlink:href="#AD" class="C D E"/><use xlink:href="#AE" class="C D E"/><use xlink:href="#AE" class="C D E"/><use xlink:href="#AF" class="C D E"/><use xlink:href="#AF" class="C D E"/><use xlink:href="#AG" class="C D E"/><use xlink:href="#AG" class="C D E"/><use xlink:href="#AH" class="C D E"/><use xlink:href="#AH" class="C D E"/></g></g><path d="M116.824 156.538c34.862 0 63.123-28.208 63.123-63.004S151.686 30.53 116.824 30.53 53.702 58.738 53.702 93.534s28.261 63.004 63.122 63.004z" stroke="#d4d4d4" stroke-width="2" stroke-dasharray="3.01 5.02" class="H"/><path d="M73.56 74.193c-.986 4.134-3.498 7.684-5.019 10.13-.928 1.494-1.25 3.191.796 3.616-2.713 1.004-3.954-.16-4.12-1.543-.554 1.396.206 3.652 1.659 4.36-2.499.647-3.893.437-4.447-.781-.225 1.436-.24 1.923.956 2.454-1.923.143-4.006 1.128-4.839-.117.133 1.255 1.243.903 2.027 1.329-.79.601-3.935.687-4.346.521-1.142-.457-2.132-.764-2.633-1.917-.638 1.057-2.246 2.764-3.162 3.053s-3.188.746-4.933.465c1.125-1.089 1.599-2.815 1.594-3.689-1.137 1.564-3.29 4.28-4.615 3.902.857-.981 1.711-1.031 1.161-2.991-.355 1.186-2.124 2.591-4.856 1.903 1.199-.7 3.59-.499 2.963-1.903-.139.869-4.622 1.393-6.73-.217 1.848-.257 2.283-2.171 1.064-4.184-.688-1.136-2.147-1.98-3.547-2.323-3.5-.856-5.497-3.48-6.131-7.365-.938-5.739 10.317-18.991 22.397-20.667s26.471 8.767 24.76 15.963z" class="P"/><path d="M32.859 122.738l2.91 1.363 1.907-4.054-2.91-1.364-1.907 4.055z" class="G"/><path d="M36.968 120.762l-2.942-.65-.511 2.308-1.468 2.278c1.229.543 3.461-.091 3.302 1.73l1.62-5.666z" class="F G"/><path d="M31.586 125.579l1.956-4.346c.162-.332.572-.465.904-.298.032.016.061.033.088.052l.175-.358c.17-.346.599-.486.944-.312a.7.7 0 0 1 .387.615.75.75 0 0 1 .483.067c.374.188.522.644.339 1.02l-2.52 4.544-.708 2.071c-.184.376-.649.525-1.023.339-.356-.18-.337-.783-.19-1.148-.023-.304-1.254-1.383-.835-2.246z" class="F G"/><path d="M32.735 131.433c-.285-.047-.474-.319-.429-.603l.87-4.42-.016-.04.98.652-.8 3.984c-.045.283-.321.476-.605.427zm2.981-2.98c-.31-.032-.531-.31-.502-.619l.161-1.705c.021-.645-.504-.517-.881.162l-.918-3.64 1.804-1.195.718 1.535c.503.112.619.961.578 1.386l-.34 3.576c-.03.309-.312.533-.621.5z" class="F G"/><path d="M32.803 130.546c-.287.034-.546-.172-.583-.458l-.419-4.483-.027-.036 1.126.347.362 4.05c.037.285-.173.547-.46.58z" class="F G"/><path d="M33.596 130.602c-.268.108-.57-.029-.68-.294l-1.382-3.986 1.181.627 1.175 2.975a.52.52 0 0 1-.294.678z" class="F G"/><path d="M32.34 123.477l4.477 1.071.292-1.18-4.478-1.071-.291 1.18z" fill="#fff" class="F"/><path d="M46.579 95.905l-5.247-1.251c-.017-.003-9.04 27.944-9.034 27.944l5.132 1.155 9.156-27.836z" class="F Q"/><path d="M45.33 117.771h4.493c.618 0 1.14.507 1.124 1.124-.179 6.517.083 11.804-.872 18.397-.446 3.091-.207 6.993-.599 11.481-.209 2.409.588 3.356.394 3.818-.236.564-2.619 4.207-4.434 3.727l-2.347-.624c-.594-.156 2.469-3.001 2.607-3.599 1.322-5.706.311-10.039-.25-15.467-.578-5.607-1.24-12.124-1.24-17.733a1.13 1.13 0 0 1 1.124-1.124z" class="F R"/><path d="M49.636 151.282c.621.537 1.245 2.334 1.167 3.241s-.093 1.004-.624 1.274-.713.301-.825.061-1.271.842-1.839 1.182-1.318.86-2.844 1.231c-.913.222-2.134.297-2.695-.318-1.366-1.495 1.606-3.126 2.878-4.726-.666 1.186-2.25 2.27-.448 2.335 3.107.114 5.213-2.022 5.231-4.28z" class="F J"/><path d="M57.232 117.771h-4.493c-.62 0-1.14.507-1.123 1.124.178 6.517-.084 11.804.871 18.397.447 3.091.207 6.993.599 11.481.211 2.409-.588 3.356-.393 3.818.236.564 2.619 4.207 4.434 3.727l2.347-.624c.594-.156-2.468-3.001-2.608-3.599-1.321-5.706-.312-10.039.249-15.467.579-5.607 1.24-12.124 1.24-17.733-.001-.618-.504-1.124-1.123-1.124z" class="F R"/><path d="M52.925 151.282c-.621.537-1.244 2.334-1.167 3.241s.092 1.004.623 1.274.713.301.826.061 1.271.842 1.84 1.182 1.317.86 2.844 1.231c.912.222 2.133.297 2.695-.318 1.368-1.495-1.606-3.126-2.878-4.726.665 1.186 2.251 2.27.447 2.335-3.107.114-5.212-2.022-5.23-4.28z" class="F J"/><path d="M43.872 111.265c-1.348 2.443-4.291 10.154-1.09 20.584.817.671 16.567.65 17.095 0 3.006-10.067.371-18.003-1.091-20.584H43.872z" fill="#2d2d2d" class="F"/><path d="M83.527 101.89c.17.32.043.672-.274.79l-4.694 1.807c-.317.119-.721-.05-.891-.37s-.043-.669.277-.789l4.691-1.806c.32-.12.722.05.891.368z" class="F G"/><path d="M72.557 105.554l1.071 2.621 2.658-.289c1.415-.154 3.863-2.397 4.975-3.355l-1.362-1.611-4.802.281-2.539 2.353z" fill="#d1a886" class="F"/><path d="M94.762 90.498l.257.316-23.071 19.268-.784-.963 23.598-18.621z" class="F J"/><path d="M74.763 103.945l.103.473.492-.161 3.943-1.29c.444-.145.639-.414.705-.727.053-.267-.019-.869-.228-.8l-4.475 1.473c-.391.129-.635.592-.539 1.032z" class="F G"/><path d="M79.938 101.498a.08.08 0 0 0-.116-.072l-.895.302c.141.393.611.298.948.054.049-.035.089-.168.063-.284z" class="F S"/><path d="M78.424 106.529c.038.308-.171.556-.464.55l-.998-.016c-.293-.005-.565-.263-.602-.571s.171-.556.465-.551l.996.018c.294.004.565.263.603.57z" class="F G"/><path d="M79.919 105.351c.045.357-.199.644-.539.638l-.986-.016c-.341-.006-.655-.306-.7-.663s.198-.644.54-.638l.986.016c.341.006.656.304.699.663z" class="F G"/><path d="M78.887 105.322c.035.285-.158.512-.429.509l-.103-.004c-.27-.005-.52-.243-.557-.526s.16-.513.43-.508l.101.001c.273.007.523.243.557.528zm-1.404 1.172c.032.263-.145.471-.394.468l-.094-.001c-.247-.007-.478-.224-.512-.485s.146-.471.395-.466l.095.001c.249.004.478.223.51.483z" class="F S"/><path d="M81.428 104.042c.044.359-.199.646-.54.639l-.986-.016c-.341-.007-.656-.306-.699-.664s.199-.644.539-.638l.987.017c.341.004.655.304.7.662z" class="F G"/><path d="M80.396 104.012c.035.286-.16.514-.43.508l-.102-.002c-.27-.006-.522-.241-.555-.526s.158-.512.429-.508l.101.003c.271.005.522.241.557.525z" class="F S"/><path d="M72.557 105.554l.762 1.864c1.422-.5 3.78-1.874 3.225-3.6a3 3 0 0 0-.202-.691l-1.246.073-2.539 2.354z" class="F G"/><path d="M70.225 105.131l1.279 4.292 2.451-.775-1.278-4.293-2.452.776z" fill="#fff" class="F"/><path d="M55.899 95.107l5.233-.385 3.273 11.627 7.42-2.1 1.428 4.967-9.86 3.103c-2.12.666-2.843-1.052-3.085-1.914l-4.41-15.298z" class="F Q"/><path d="M46.434 92.289l-.222 5.882 4.933 12.498 4.863-12.498-.301-6.042-2.073-1.135-5.015.027-2.185 1.268z" fill="#fff" class="F"/><path d="M42.384 101.384c1.989 4.76 2.708 5.555.486 10.926 2.734 1.138 9.335 3.121 16.688-.197-3.078-6.289-.7-6.115.774-10.729 1.756-5.499-1.702-1.534.851-6.936-2.483-1.615-5.982-2.55-7.348-3.66-.874.768-1.53.969-2.523.969s-1.616-.176-2.492-.943c-1.847 1.5-4.913 2.115-7.286 3.634 2.677 5.263-.926 2.684.85 6.936z" class="F Q"/><path d="M74.464 107.98l-2.516 2.102-.784-.963 2.629-2.073c.183.106.401.003.515-.055l.157.989z" class="F J"/><path d="M35.83 61.604c2.339-1.619 6.845-2.959 11.513-3.674 4.688-.584 9.389-.523 12.082.396 5.564 1.899 6.308 20.007 4.367 24.081-2.52 5.293-9.922 9.274-11.709 9.521-2.182.304-10.214-1.019-14.049-5.619-2.892-3.467-7.04-21.36-2.205-24.705z" class="R"/><path d="M48.008 57.686l-.958.11c-4.668.716-9.173 2.055-11.513 3.674-4.834 3.344-.687 21.237 2.205 24.705 3.835 4.599 11.867 5.922 14.049 5.619.223-.031.535-.121.915-.265l-4.698-33.843z" fill="#e6bd91"/><path d="M40.321 60.513c4.075 5.541 11.78 10.383 21.452 10.692 6.305.202 11.641 1.029 11.786 2.988 1.195-7.582-2.571-12.583-6.143-16.873-4.415-5.303-10.319-7.768-15.341-8.916-6.211-1.419-10.758.837-12.803 3.815-3.545-.408-7.451 3.682-8.888 7.331-2.04 5.185-5.957 12.696-3.564 21.134.183-1.758 6.997-4.705 9.268-8.14 2.418-3.656 4.652-9.022 4.232-12.032z" fill="#773a39"/><path d="M34.466 72.004c3.042-4.293 5.218-6.932 5.863-13.792a40.91 40.91 0 0 1 .082 2.422l-.09-.121c.419 3.01-1.814 8.377-4.232 12.032-2.271 3.434-9.085 6.382-9.268 8.14-.607-4.331 5.441-5.57 7.645-8.681z" class="P"/><path d="M63.382 69.984c6.964.416 9.992 1.981 10.178 4.208-.145-1.959-5.481-2.787-11.786-2.988-9.672-.309-17.377-5.15-21.452-10.692 6.404 6.258 16.096 9.056 23.06 9.472z" class="P"/><path d="M47.752 91.438l3.546 12.917 2.981-13.258s-1.719 1.264-6.527.341z" fill="#fff" class="F"/><path d="M35.955 84.445a.68.68 0 0 0 .679-.678.68.68 0 0 0-.679-.678.68.68 0 0 0-.679.678.68.68 0 0 0 .679.678zm29.164-4.791a.68.68 0 0 0 .679-.678.68.68 0 0 0-.679-.678.68.68 0 0 0-.679.678.68.68 0 0 0 .679.678z" fill="#ffe6d4"/><path d="M60.874 174.834l.395-31.91s2.446-1.02 11.037-1.194l3.864 5.39 3.217-5.39c4.152.174 9.625 1.939 9.625 1.939l-1.523 31.165H60.874z" fill="#7f1c7f"/><path d="M61.216 142.962s-15.48 20.182-8.202 23.052h18.493l-1.211-2.962s-11.275-.214-12.486-1.966 9.581-12.506 9.581-12.506m21.622-4.911s15.201 19.475 7.924 22.345H78.444l1.209-2.962s11.276-.214 12.487-1.966-9.581-12.506-9.581-12.506m-.79 1.112v-7.453c-2.287 1.259-6.469 1.417-6.469 1.417s-4.181-.158-6.47-1.417v7.453h12.939z" fill="#7f1c7f"/><path d="M94.711 210.059c0 3.434-2.916 6.217-6.355 6.217H61.695c-3.44 0-6.1-2.783-6.1-6.217v-48.185c0-3.434 2.661-6.217 6.1-6.217h26.661c3.439 0 6.355 2.783 6.355 6.217v48.185h0z" fill="#023256"/><path d="M94.711 209.022c0 3.434-2.938 6.227-6.378 6.227H61.776c-3.44 0-6.181-2.794-6.181-6.227v-44.418c0-3.433 2.742-6.378 6.181-6.378h26.557c3.44 0 6.378 2.945 6.378 6.378v44.418h0z" fill="#041728"/><path d="M86.346 134.413c1.269-.444 2.986-5.526 1.16-7.739s-.157-4.412-3.466-10.684-11.418-4.718-12.435-2.954c-4.243-.002-5.526 3.069-6.211 6.358-.181.413-.323.813-.419 1.189-.323 1.276-.558 2.543-.517 3.816-.183.702-.412 1.318-.725 1.8-2.167 3.32.132 7.371 1.13 8.459s.644 2.32-.267 2.965c-2.793 1.97-.655 8.288 10.24 8.349 10.193.055 14.01-5.379 11.371-8.6-.62-.755-1.128-2.513.141-2.959z" fill="#ecba00" class="F"/><path d="M124.206 174.834l.395-31.91s2.445-1.02 11.036-1.194l3.864 5.39 3.218-5.39c4.151.174 9.625 1.939 9.625 1.939l-1.523 31.165h-26.615z" fill="#8bc543"/><path d="M124.547 142.962s-15.482 20.182-8.205 23.052h18.494l-1.21-2.962s-11.276-.214-12.487-1.966 9.581-12.506 9.581-12.506m21.624-4.911s15.201 19.475 7.924 22.345h-18.494l1.21-2.962s11.276-.214 12.487-1.966-9.581-12.506-9.581-12.506m-.792 1.112v-7.453c-2.286 1.259-6.469 1.417-6.469 1.417s-4.18-.158-6.468-1.417v7.453h12.937z" fill="#8bc543"/><path d="M158.018 210.059c0 3.434-2.789 6.217-6.229 6.217H125.13c-3.44 0-6.229-2.783-6.229-6.217v-48.185c0-3.434 2.789-6.217 6.229-6.217h26.659c3.44 0 6.229 2.783 6.229 6.217v48.185z" fill="#023256"/><path d="M158.018 209.032c0 3.434-2.789 6.217-6.229 6.217H125.13c-3.44 0-6.229-2.783-6.229-6.217v-44.59c0-3.433 2.789-6.217 6.229-6.217h26.659c3.44 0 6.229 2.784 6.229 6.217v44.59z" fill="#041728"/><path d="M43.877 163.551V146.25l7.081-11.371v31.882" class="T"/><path d="M58.001 142.198c0 5.746-4.665 10.403-10.422 10.403s-10.424-4.657-10.424-10.403v-6.678c0-5.746 4.668-10.403 10.424-10.403s10.422 4.657 10.422 10.403v6.678z" class="T"/><path d="M32.445 186.956l.395-31.911s2.446-1.019 11.037-1.193l3.863 5.39 3.217-5.39c4.152.174 9.625 1.939 9.625 1.939l-1.522 31.165H32.445z" fill="#ad6b14"/><path d="M60.624 137.012c0-7.627-5.889-13.809-13.154-13.809s-14.689 6.336-13.155 13.809c2.006 9.771 5.889 13.808 13.155 13.808s10.385-2.192 13.154-13.808z" fill="#050000"/><path d="M50.958 153.851v-.819h-7.081v.819l3.702 6.27 3.379-6.27zm-18.172 1.232s-15.481 20.184-8.204 23.052h18.494l-1.21-2.961s-11.276-.214-12.487-1.966 9.58-12.506 9.58-12.506m21.623-4.911s15.203 19.476 7.926 22.344H50.014l1.209-2.961s11.277-.214 12.487-1.966-9.58-12.506-9.58-12.506" fill="#ad6b14"/><path d="M35.976 139.655s.693-4.152 5.988-4.655 9.329-2.706 10.526-5.222c3.089 2.077 6.242 4.592 6.492 9.877 2.333-3.586 3.378-12.795-4.438-14.432-6.935-6.919-14.478-4.019-18.128.591-5.409 6.834-.44 13.841-.44 13.841z" fill="#050000"/><path d="M151.814 131.691c0-7.626-5.889-13.809-13.154-13.809s-14.688 6.337-13.155 13.809c2.006 9.772 5.889 13.809 13.155 13.809s10.385-2.193 13.154-13.809z" fill="#614a13"/><path d="M127.165 134.334s.694-4.152 5.988-4.656 9.33-2.704 10.526-5.221c3.09 2.076 6.243 4.592 6.493 9.877 2.333-3.586 3.378-12.795-4.437-14.432-6.936-6.919-14.479-4.019-18.129.591-5.41 6.834-.441 13.841-.441 13.841z" fill="#614a13"/><use xlink:href="#AI" class="U"/><use xlink:href="#AJ" class="V"/><path d="M119.584 139.716c-.226-.6-.732-1.158-1.249-.905l-.001-.397c-.172-8.385-4.62-11.531-10.026-11.421s-9.723 3.432-9.552 11.817c.005.223.014.444.025.67-.647-.738-1.303-.048-1.549.69-.335 1.004-.09 2.129.217 3.108.214.676.575 1.565 1.306 1.853.268.105.62.138.883.051.645 4.262 1.438 7.168 4.879 8.488.213 1.607.708 5.242.794 6.867 2.085.751 3.417-.292 5.556-.263.549-1.112.73-4.997 1.058-7.132 3.442-.528 4.823-3.685 5.779-8.283a1.54 1.54 0 0 0 .562-.123c.72-.317 1.045-1.221 1.23-1.904.268-.992.465-2.125.089-3.116z" fill="#ecbba7"/><path d="M126.566 211.152l.172-44.559v-.073c-.021-2.443-1.29-4.618-3.158-5.564l-2.781-.878-5.042-1.59c-5.001-1.577-10.254-1.582-15.258-.014l-5.435 1.7-2.326.729c-1.74.858-2.955 2.79-3.17 5.042l-.469 45.207h3.591l2.375-38.57v38.57h25.735V173.14l1.78 38.012h3.987z" fill="#7e8cad"/><path d="M119.655 128.109c-2.372-4.026-8.05-5.485-11.17-5.573-4.018-.116-11.87 1.392-13.267 9.058s-.132 12.083.565 16.264c.138.817-.64 6.37-.528 8.98.9-.179 2.936-1.146 3.704-1.584 6.748-3.17 8.572-5.1 15.084-1.849 1.058.527 5.259 2.06 6.086 2.113-2.382-6.602 3.997-19.818-.474-27.409z" fill="#723d03"/><path d="M101.421 158.779l1.153-4.107s2.633-.821 4.772-.985 5.76.658 5.76.658l1.317 3.942s-5.595-.165-6.913 0l-6.089.492z" fill="#eaeaea"/><path d="M128.166 220.848c0 3.433-2.788 6.216-6.228 6.216H95.277c-3.44 0-6.228-2.783-6.228-6.216v-48.187c0-3.433 2.788-6.216 6.228-6.216h26.661c3.44 0 6.228 2.783 6.228 6.216v48.187z" class="U"/><path d="M128.166 220.848c0 3.433-2.788 6.217-6.228 6.217H95.277c-3.44 0-6.228-2.784-6.228-6.217v-44.59c0-3.434 2.788-6.217 6.228-6.217h26.661c3.44 0 6.228 2.783 6.228 6.217v44.59z" class="V"/><path d="M167.48 163.551V146.25l7.081-11.371v31.882" class="T"/><path d="M156.048 186.956l.395-31.911s2.445-1.019 11.037-1.193l3.863 5.39 3.218-5.39c4.152.174 9.624 1.939 9.624 1.939l-1.522 31.165h-26.615z" class="W"/><path d="M156.388 155.083s-15.481 20.184-8.202 23.052h18.493l-1.211-2.961s-11.276-.214-12.486-1.966 9.58-12.506 9.58-12.506m21.623-4.911s15.202 19.476 7.924 22.344h-18.492l1.21-2.961s11.275-.214 12.486-1.966-9.58-12.506-9.58-12.506" class="W"/><path d="M175.772 156.191v-5.24c-1.608.886-4.547.997-4.547.997s-2.937-.112-4.546-.997v5.24h9.093z" fill="#fff"/><path d="M176.942 161.814v-7.453c-2.287 1.257-6.469 1.417-6.469 1.417s-4.181-.16-6.47-1.417v7.453h12.939z" class="W"/><path d="M182.332 135.989c.17-4.584-.564-9.889-4.242-10.745-5.003-3.929-12.494-2.114-15.68.963-3.043.985-5.475 1.201-6.201.279 0 0-2.606 5.456 2.27 8.311.333.193.667.361 1.004.51a24.27 24.27 0 0 0-.453 4.557c0 5.865 3.111 10.871 7.489 12.852 1.56 1.033 3.175 1.816 4.314 1.816 1.364 0 3.417-1.125 5.234-2.464 1.119-.688 2.133-1.588 3.003-2.651.29-.322.526-.618.684-.874.03-.045.061-.108.097-.181 1.559-2.342 2.491-5.29 2.491-8.498 0-1.23.036-2.556-.01-3.875z" fill="#3c3c3b"/><use xlink:href="#AI" x="125.068" class="U"/><use xlink:href="#AJ" x="125.068" class="V"/><path d="M146.069 65.299a4.83 4.83 0 0 1-4.163-2.417l-8.128-14.167a4.81 4.81 0 0 1 .017-4.807l8.228-14.109a4.83 4.83 0 0 1 4.161-2.389l16.374.057a4.83 4.83 0 0 1 4.161 2.418l8.128 14.166a4.81 4.81 0 0 1-.016 4.807l-8.227 14.11c-.858 1.473-2.454 2.388-4.162 2.388l-16.373-.057z" fill="#f69322"/><path d="M146.2 27.919l16.356.057c1.539.006 2.957.83 3.721 2.161l8.128 14.166a4.29 4.29 0 0 1-.014 4.297l-8.227 14.11a4.31 4.31 0 0 1-3.722 2.135l-16.371-.056a4.31 4.31 0 0 1-3.721-2.161l-8.127-14.167a4.29 4.29 0 0 1 .013-4.297l8.228-14.109c.771-1.323 2.189-2.136 3.721-2.136zm.002-1.02h-.002-.015a5.34 5.34 0 0 0-4.602 2.643l-8.229 14.109c-.954 1.637-.961 3.673-.018 5.316l8.128 14.167c.943 1.642 2.707 2.667 4.604 2.673l16.356.058h.018c1.89 0 3.654-1.013 4.604-2.643l8.226-14.11c.956-1.636.963-3.673.019-5.316l-8.128-14.167c-.942-1.642-2.707-2.667-4.603-2.674l-16.356-.057h-.002z" class="X"/><path d="M166.301 62.531l8.179-14.138c.77-1.329.77-2.967 0-4.297l-8.179-14.138c-.768-1.329-2.19-2.149-3.728-2.149h-8.179v36.871h8.179c1.538 0 2.96-.818 3.728-2.148z" fill="#e8811a"/><path d="M165.261 54.707h-22.978v.785h22.978v-.785z" fill="#f0f1f1"/><path d="M146.85 45.523h-3.665v8.139h3.665v-8.139z" class="K"/><path d="M146.85 45.523h-1.832v8.139h1.832v-8.139z" class="L"/><path d="M152.627 42.491h-3.667v11.171h3.667V42.491z" class="K"/><path d="M152.627 42.491h-1.834v11.171h1.834V42.491z" class="L"/><path d="M158.403 43.59h-3.666v10.072h3.666V43.59z" class="K"/><path d="M158.403 43.59h-1.833v10.072h1.833V43.59z" class="L"/><path d="M164.179 39.718h-3.666v13.944h3.666V39.718z" class="K"/><path d="M164.179 39.718h-1.833v13.944h1.833V39.718z" class="L"/><path d="M162.346 36.149l-5.776 4.749-5.776-1.211-5.892 3.463m15.923-7.258l2.017-.098-.757 2.09" stroke="#f0f1f1" stroke-width="3.154" stroke-linecap="round" class="H"/><path d="M169.087 111.987a4.23 4.23 0 0 1-3.652-2.105l-7.159-12.377c-.751-1.298-.751-2.911 0-4.208l7.159-12.378a4.23 4.23 0 0 1 3.652-2.105h14.319c1.502 0 2.901.806 3.653 2.105l7.16 12.378c.751 1.299.751 2.911 0 4.208l-7.16 12.377c-.752 1.298-2.151 2.105-3.653 2.105h-14.319z" fill="#29a9e0"/><path d="M183.406 79.261c1.348 0 2.591.717 3.266 1.881l7.159 12.378a3.76 3.76 0 0 1 0 3.762l-7.159 12.378c-.675 1.164-1.918 1.882-3.266 1.882h-14.319c-1.347 0-2.591-.718-3.265-1.882l-7.159-12.378c-.674-1.164-.674-2.599 0-3.762l7.159-12.378a3.77 3.77 0 0 1 3.265-1.881h14.319zm0-.892h-14.319a4.68 4.68 0 0 0-4.039 2.327l-7.16 12.378c-.83 1.436-.83 3.219 0 4.655l7.161 12.378c.829 1.436 2.377 2.328 4.038 2.328h14.319a4.68 4.68 0 0 0 4.04-2.328l7.16-12.378c.83-1.435.83-3.218 0-4.655l-7.16-12.378a4.68 4.68 0 0 0-4.04-2.327z" class="X"/><path d="M186.672 109.66l7.16-12.378c.672-1.164.672-2.599 0-3.762l-7.16-12.378c-.675-1.165-1.918-1.881-3.266-1.881h-7.158v32.281h7.158c1.348 0 2.591-.718 3.266-1.882z" fill="#179ecc"/><path d="M182.249 99.328l-15.858-3.885-.152.618 15.858 3.885.152-.618z" fill="#b9bbbd"/><path d="M182.948 103.585a.78.78 0 0 1-1.015.429l-18.051-7.289c-.399-.161-.591-.614-.429-1.012l2.872-7.09a.78.78 0 0 1 1.015-.429l18.051 7.289a.78.78 0 0 1 .431 1.014l-2.874 7.089z" fill="#cacbcd"/><path d="M182.339 98.389l-15.136-6.112-.239.59 15.136 6.112.239-.59zm-.626 1.538l-15.137-6.112-.239.59 15.137 6.112.239-.59z" fill="#a9abad"/><path d="M171.927 91.292l-3.52-1.421-.615 1.518 3.52 1.421.615-1.518z" fill="#b73e26"/><path d="M187.412 103.374a.78.78 0 0 1-.78.778h-19.473a.78.78 0 0 1-.779-.778v-7.649a.78.78 0 0 1 .779-.778h19.473a.78.78 0 0 1 .78.778v7.649z" fill="#e6e7e8"/><path d="M184.894 98.793h-16.327v.636h16.327v-.636zm0 1.656h-16.327v.636h16.327v-.636zm0 1.658h-16.327v.636h16.327v-.636z" fill="#b9bbbd"/><path d="M172.572 96.104h-3.799v1.637h3.799v-1.637z" fill="#6acbe6"/><path opacity=".1" d="M180.204 101.131l3.14 2.821 6.049.079-.858-9.203-6.29-.009-2.041 6.312z" class="Y"/><path d="M183.318 86.146a.29.29 0 0 1-.342.233c-.159-.03-.264-.183-.234-.342l.225-1.197c.032-.159.185-.264.343-.234s.266.183.235.343l-.227 1.197zm-3.684 12.512l.606 2.198 1.378-1.877-1.984-.321z" fill="#e39c29"/><path d="M181.605 99.029c.005-.016.009-.033.012-.05l2.337-12.365a.78.78 0 0 0-.621-.908l-.443-.084a.78.78 0 0 0-.911.621l-2.337 12.364c-.004.017-.006.033-.008.051l1.971.371z" fill="#06848e"/><path d="M180.173 101.256c.139.026.297-.192.353-.488s-.01-.558-.149-.584-.296.192-.353.488.011.558.149.584z" class="Y"/><path d="M181.819 87.105l1.972.371s.494-.02.354.721l-1.229 5.206s-.105.514.326.542" stroke="#bebebe" stroke-width="3" class="H"/><path opacity=".1" d="M183.4 85.717l.145-.772a.29.29 0 0 0-.197-.332l-3.144 16.636c.128-.016.263-.219.313-.488.021-.111.025-.216.013-.307l1.053-1.434.022.004a.38.38 0 0 0 .013-.05l2.336-12.365c.077-.4-.169-.785-.554-.892z" class="Y"/><path d="M88.668 54.194c-2.118 0-4.092-1.137-5.15-2.967L73.414 33.769a5.94 5.94 0 0 1-.002-5.937L83.508 10.37a5.97 5.97 0 0 1 5.151-2.97l20.199-.004c2.119 0 4.093 1.136 5.152 2.967l10.104 17.458c1.059 1.83 1.059 4.105.001 5.936l-10.096 17.462c-1.059 1.831-3.032 2.97-5.15 2.97l-20.2.004h-.001z" fill="#ed2b7a"/><path d="M108.859 8.026a5.32 5.32 0 0 1 4.605 2.651l10.103 17.459c.95 1.641.951 3.665.001 5.307l-10.096 17.463c-.949 1.643-2.705 2.654-4.603 2.655l-20.2.004a5.32 5.32 0 0 1-4.606-2.652L73.96 33.453c-.95-1.64-.952-3.664-.001-5.306l10.095-17.463a5.32 5.32 0 0 1 4.605-2.654l20.199-.004h.001zm0-1.259h-.001l-20.199.004a6.6 6.6 0 0 0-5.697 3.286L72.867 27.517a6.57 6.57 0 0 0 .001 6.566l10.103 17.458a6.6 6.6 0 0 0 5.697 3.282l20.201-.003a6.6 6.6 0 0 0 5.696-3.286l10.096-17.462c1.17-2.025 1.17-4.541-.002-6.566l-10.103-17.458a6.6 6.6 0 0 0-5.697-3.282z" class="X"/><path d="M113.829 10.682c-.949-1.642-2.705-2.654-4.603-2.654H99.125v45.535h10.101c1.898 0 3.654-1.011 4.603-2.653l10.1-17.46c.951-1.641.951-3.665 0-5.308l-10.1-17.46z" fill="#d61d71"/><path d="M100.105 16.811l-11.884 9.651 4.883 5.99 11.884-9.65-4.883-5.991z" class="Z"/><path d="M94.429 21.428l-3.537 2.871 4.87 5.976 3.537-2.871-4.87-5.976z" fill="#b789e1"/><path d="M97.96 18.553l-3.536 2.872 4.871 5.974 3.536-2.872-4.871-5.974zm-3.54 3.674l.274.176.253-.205-.083.315.274.177-.327.018-.084.316-.117-.304-.326.017.253-.206-.117-.304z" class="I"/><path d="M93.511 23.636l.326.016.116-.305.085.315.327.016-.274.178.085.314-.254-.205-.273.179.115-.305-.253-.204zm-.081 1.675l.291-.148-.052-.322.231.231.291-.149-.148.291.231.23-.323-.05-.147.29-.052-.322-.323-.05zm.769 1.491l.178-.274-.207-.253.316.084.177-.274.018.326.316.083-.306.118.019.326-.206-.253-.305.118zm1.413.907l.016-.325-.305-.117.315-.085.017-.326.179.274.315-.085-.205.254.179.273-.306-.117-.205.254z" fill="#dbb0de"/><path d="M97.289 27.79l-.149-.291-.323.052.231-.231-.149-.291.292.148.23-.231-.05.323.291.146-.323.052-.05.323zm.302-6.251l-.016.326.305.116-.315.085-.016.325-.179-.273-.315.085.205-.254-.179-.273.305.116.205-.254zm-1.677-.08l.149.29.323-.051-.231.231.149.29-.292-.147-.231.231.05-.323-.292-.147.324-.051.05-.322z" class="I"/><path d="M91.099 24.559l-1.092.887.598.733 1.092-.887-.598-.733z" class="a"/><path d="M89.533 26.978c.115-.093.23-.137.346-.13a.41.41 0 0 1 .302.166c.099.121.138.247.117.377s-.101.251-.241.364c-.127.103-.243.164-.349.182l-.135-.165a.71.71 0 0 0 .19-.062c.065-.031.121-.066.167-.104.082-.067.13-.136.143-.208s-.009-.143-.067-.214c-.11-.136-.252-.133-.426.007a.84.84 0 0 0-.084.081l-.081.093-.121.018-.408-.59.591-.48.132.162-.43.349.203.302.057-.065c.023-.026.054-.054.091-.084zm1.41-.91c.161.197.248.37.263.517s-.043.274-.174.38-.263.131-.409.085-.297-.164-.452-.355c-.163-.2-.252-.373-.266-.52s.044-.273.174-.379.264-.132.41-.085.298.165.454.357zm-.587.477c.126.155.232.253.318.293s.164.032.234-.025.094-.132.071-.225-.096-.217-.22-.37-.23-.249-.318-.29-.167-.035-.237.022-.094.132-.072.224.097.216.224.371zm1.497-1.216c.161.197.248.37.263.517s-.043.274-.174.38-.263.131-.409.085-.297-.164-.452-.355c-.163-.2-.252-.373-.266-.52s.044-.273.174-.379.264-.132.41-.085.298.165.454.357zm-.587.477c.126.155.232.253.318.293s.164.032.234-.025.094-.132.071-.225-.096-.217-.22-.37-.23-.249-.318-.29-.167-.035-.237.022-.094.132-.072.225.097.216.224.371z" fill="#b789e1"/><path d="M93.874 31.992c.153-.124.307-.182.462-.174s.289.082.403.222c.132.161.184.329.156.503s-.134.334-.321.486c-.169.138-.325.218-.466.242l-.18-.221a.95.95 0 0 0 .253-.083 1.13 1.13 0 0 0 .223-.138c.11-.089.174-.182.191-.277s-.012-.191-.09-.285c-.147-.181-.336-.178-.567.01a1.12 1.12 0 0 0-.112.108l-.108.124-.161.024-.544-.786.788-.64.176.216-.573.466.271.403.076-.086c.031-.034.071-.072.122-.113zm1.88-1.214c.214.263.331.493.35.69s-.057.365-.232.507c-.169.137-.35.175-.545.114s-.396-.219-.603-.474c-.218-.267-.336-.498-.355-.693s.059-.364.233-.505.352-.175.547-.114.397.22.605.476zm-.783.636c.168.206.309.337.424.391s.219.042.312-.033.125-.176.095-.3-.127-.29-.293-.493-.307-.332-.424-.387-.222-.047-.316.029-.125.176-.095.3.13.288.298.494zm1.996-1.621c.214.263.331.493.35.689s-.058.365-.232.506-.35.175-.545.114-.396-.219-.603-.474c-.218-.267-.336-.498-.355-.693s.059-.365.233-.505.352-.175.547-.114.397.22.605.476zm-.783.636c.168.206.309.337.424.391s.219.043.312-.033.125-.176.095-.3-.127-.29-.293-.493-.307-.332-.424-.387-.222-.047-.316.029-.125.176-.095.299.13.288.298.495zm-2.347-7.88l-2.475 2.01.143.175 2.475-2.01-.143-.175z" class="b"/><path d="M95.643 28.784l-1.321 1.072.259.318 1.321-1.072-.259-.318z" class="b"/><path d="M95.998 29.218l-1.321 1.074.259.318 1.321-1.074-.259-.318z" class="I"/><path opacity=".1" d="M99.51 17.298l-.975.793 4.874 5.973.975-.793-4.874-5.973z" fill="#b79ac6"/><path d="M101.929 21.285l-1.27.045.303-1.231 1.269-.045-.302 1.232z" class="I"/><path d="M101.843 21.522c.082-.066.164-.097.247-.093s.155.044.216.119c.07.087.098.176.084.269s-.072.179-.172.26c-.091.074-.174.117-.25.13l-.096-.118c.044-.007.089-.022.135-.045a.58.58 0 0 0 .12-.074c.059-.048.093-.097.102-.149s-.006-.102-.048-.153c-.079-.097-.18-.095-.304.005-.017.014-.037.033-.059.058l-.058.066-.087.013-.291-.421.422-.343.094.116-.307.249.146.216.04-.046a.66.66 0 0 1 .066-.06zm1.007-.65c.115.141.177.264.187.369s-.03.196-.124.271-.187.094-.292.061-.212-.117-.323-.254c-.116-.143-.18-.267-.19-.371s.032-.195.125-.271.188-.094.293-.061.212.118.324.255zm-.42.341c.091.111.166.18.227.209s.118.023.168-.018.067-.094.05-.161-.068-.155-.157-.264-.164-.178-.227-.207-.119-.025-.169.016-.067.094-.051.16.069.154.159.265zm1.07-.868c.115.141.177.264.187.369s-.03.196-.124.271-.187.094-.292.061-.212-.117-.323-.254c-.116-.143-.18-.267-.19-.371s.032-.195.125-.271.188-.094.293-.061.212.118.324.255zm-.42.341c.091.111.166.18.227.209s.118.023.168-.018.067-.094.05-.161-.068-.155-.157-.264-.164-.178-.227-.207-.119-.025-.169.016-.067.094-.051.16.069.154.159.265z" class="Z"/><path d="M97.567 22.697c.316-.257.635-.377.956-.359s.599.17.835.459c.273.335.381.682.324 1.041s-.278.692-.665 1.006c-.351.285-.672.452-.965.502l-.372-.457c.17-.028.344-.086.524-.172s.334-.182.463-.287c.228-.185.359-.376.396-.574s-.026-.395-.185-.591c-.305-.375-.697-.368-1.175.021-.067.055-.145.129-.232.224l-.223.256-.334.05-1.128-1.629 1.632-1.326.365.448-1.188.965.562.834.158-.178c.064-.071.148-.149.252-.233zm3.894-2.514c.444.545.686 1.021.726 1.428s-.12.756-.48 1.049a1.15 1.15 0 0 1-1.129.236c-.403-.127-.82-.454-1.25-.981-.451-.553-.696-1.032-.734-1.435s.122-.755.482-1.047c.351-.285.728-.363 1.132-.235s.822.456 1.253.985zm-1.621 1.317c.348.428.641.697.877.809a.57.57 0 0 0 .647-.069c.193-.157.259-.364.196-.622s-.264-.6-.608-1.021-.635-.688-.878-.802-.461-.097-.654.06-.259.364-.198.62.269.597.617 1.024zm4.134-3.358c.444.545.686 1.021.726 1.428s-.119.756-.48 1.049a1.15 1.15 0 0 1-1.129.236c-.403-.127-.82-.454-1.25-.981-.451-.553-.695-1.032-.734-1.435s.122-.755.482-1.047c.351-.285.728-.363 1.132-.235s.822.457 1.253.986zm-1.621 1.317c.348.427.641.697.877.809a.57.57 0 0 0 .647-.069c.193-.157.259-.364.196-.622s-.264-.599-.608-1.021-.635-.688-.878-.802-.461-.096-.654.061-.259.364-.198.62.269.597.618 1.024z" class="b"/><path d="M99.469 21.308l-3.82 3.102 2.918 3.581 3.82-3.102-2.919-3.58z" fill="#aa53b8"/><path d="M99.773 23.938l-.29.149.052.323-.232-.231-.291.149.148-.29-.232-.231.323.05.148-.291.052.322.323.051zm-.769-1.492l-.177.274.206.254-.316-.084-.177.275-.019-.326-.316-.084.305-.118-.018-.325.206.253.305-.119z" fill="#f4cb71"/><path d="M96.382 23.872c-.119.097-.188.211-.205.344s.019.28.111.445l.579-.47.159.195-.598.486.043.059.057.069.042.048.519-.421.158.194-.497.403c.268.22.531.226.784.02a1.25 1.25 0 0 0 .308-.38l.209.257a1.16 1.16 0 0 1-.324.392c-.204.166-.416.245-.633.236s-.433-.101-.644-.281l-.193.157-.158-.194.173-.14-.041-.045-.038-.047-.064-.084-.173.139-.159-.195.191-.155c-.141-.239-.196-.47-.164-.696s.148-.422.354-.589a1.18 1.18 0 0 1 .546-.257l.087.323c-.183.042-.326.103-.428.186z" class="Z"/><path d="M99.991 17.34l-.702.571.048.059.702-.571-.048-.059zm.23.276l-.702.57.047.058.702-.57-.047-.058z" class="a"/><path d="M99.692 25.612l-.327-.016-.116.305-.086-.314-.326-.016.274-.178-.085-.314.254.204.273-.178-.116.306.255.204z" class="I"/><path d="M96.062 14.853l-10.36 10.891 5.512 5.223 10.36-10.891-5.512-5.223z" fill="#f9fbf6"/><path d="M91.116 20.054l-3.083 3.242 5.498 5.209 3.083-3.242-5.498-5.209z" class="c"/><path d="M94.929 16.044l-3.817 4.014 5.497 5.209 3.817-4.014-5.497-5.209z" class="d"/><path d="M91.569 25.321l.137-.289-.233-.22.318.041.139-.289.058.315.318.042-.282.153.058.315-.233-.22-.281.153zm1.49.707l-.024-.319-.312-.075.296-.122-.025-.32.209.245.296-.123-.168.274.209.242-.312-.075-.168.273zm1.645-.132l-.181-.264-.309.091.196-.254-.182-.263.302.106.196-.254-.008.32.303.107-.309.09-.008.32z" fill="#f2c500"/><path d="M88.266 23.523l-.952 1.001.675.639.952-1.001-.675-.639z" class="a"/><path d="M87.867 26.613l-.159.168-.674-.639-.186-.187a.77.77 0 0 1-.001.076l-.02.284-.186-.017.05-.535.133-.14 1.044.989zm.475-1.543c.181.172.288.329.321.471s-.008.272-.122.392a.4.4 0 0 1-.387.134c-.148-.027-.31-.123-.485-.289-.184-.175-.292-.332-.324-.473s.009-.272.122-.391a.41.41 0 0 1 .389-.134c.148.027.311.124.487.291zm-.512.538c.142.135.258.217.346.245s.164.01.225-.054.075-.14.041-.228-.12-.2-.261-.333-.255-.214-.346-.243-.167-.013-.228.051-.075.14-.041.228.122.198.264.333zm1.305-1.373c.181.172.288.329.321.471s-.008.272-.121.392-.24.161-.387.135-.31-.123-.485-.289c-.184-.175-.292-.332-.324-.473s.009-.272.122-.391a.41.41 0 0 1 .389-.135c.148.027.311.124.487.29zm-.512.538c.142.135.258.217.346.246s.164.01.225-.054.075-.14.041-.228-.12-.199-.261-.333-.255-.214-.346-.243-.167-.013-.228.051-.075.14-.041.228.122.198.264.333zm4.378 6.352l-.212.223-.899-.852-.248-.249a1.02 1.02 0 0 1-.001.102l-.027.379-.249-.022.067-.714.177-.186 1.392 1.319zm.634-2.058c.242.229.385.439.428.628s-.01.363-.162.523-.319.214-.516.179-.413-.164-.647-.386c-.246-.233-.39-.443-.433-.63a.55.55 0 0 1 .163-.522.54.54 0 0 1 .518-.18c.197.035.414.165.649.387zm-.683.718c.19.18.344.289.462.327a.27.27 0 0 0 .3-.072c.081-.086.1-.187.054-.305s-.16-.266-.348-.444-.341-.285-.462-.324a.27.27 0 0 0-.304.068c-.081.086-.1.187-.055.304s.163.264.353.444zm1.741-1.83c.242.229.385.438.428.628s-.01.363-.162.523-.319.214-.516.179-.413-.164-.647-.386c-.246-.233-.39-.443-.432-.63s.012-.363.163-.522.32-.215.518-.179.414.165.649.387zm-.683.718c.19.18.344.289.462.327a.27.27 0 0 0 .3-.072.27.27 0 0 0 .054-.305c-.045-.118-.16-.266-.348-.443s-.34-.285-.462-.324a.27.27 0 0 0-.304.068c-.081.085-.1.187-.055.304s.163.264.352.444z" fill="#8bb481"/><path d="M90.681 21.226l-2.158 2.269.161.153 2.158-2.269-.161-.153zm2.547 5.845l-1.152 1.211.292.277 1.152-1.211-.292-.277z" fill="#8bb481"/><path d="M93.631 27.445l-1.152 1.211.292.277 1.152-1.211-.292-.277z" fill="#77966f"/><path d="M95.777 15.148l-.85.893 5.495 5.21.85-.893-5.495-5.21z" class="M"/><path d="M96.587 22.329l-.44.463-1.862-1.765-.514-.517a2.15 2.15 0 0 1-.002.211l-.057.785-.515-.046.139-1.479.367-.386 2.884 2.733zm1.313-4.263c.501.475.797.908.886 1.3s-.021.751-.336 1.082c-.305.32-.661.444-1.07.372s-.855-.339-1.341-.799c-.509-.482-.808-.918-.896-1.306s.024-.751.338-1.08c.306-.322.664-.445 1.074-.372s.858.341 1.345.803zm-1.414 1.487c.393.373.712.599.957.678a.56.56 0 0 0 .621-.149c.169-.177.206-.388.113-.631s-.332-.551-.72-.919-.706-.59-.956-.67-.461-.036-.629.141-.207.387-.115.629.337.548.73.92zm3.605-3.791c.501.475.797.908.886 1.3s-.021.752-.335 1.082c-.305.32-.661.444-1.07.372s-.855-.339-1.341-.799c-.509-.482-.808-.918-.896-1.306s.024-.751.337-1.081c.306-.322.664-.446 1.074-.372s.858.341 1.344.802zm-1.414 1.487c.393.373.712.599.957.678s.453.029.621-.149.206-.387.113-.631-.333-.551-.721-.919-.706-.59-.956-.67-.461-.036-.629.141-.207.387-.114.629.337.548.73.92z" fill="#518d43"/><path d="M96.014 19.306l-3.331 3.502 3.295 3.122 3.331-3.502-3.295-3.122z" class="M"/><path d="M96.637 21.832l-.264.181.091.307-.255-.195-.265.182.108-.303-.255-.195.321.008.107-.302.091.307.321.009zm-.936-1.357l-.138.289.233.221-.318-.042-.138.289-.058-.315-.318-.041.281-.153-.058-.315.232.22.283-.153z" class="M"/><g class="B c"><g class="B"><path d="M96.361 16.4c-.037.039-.055.081-.056.129s.019.096.058.149l.18-.189.064.061-.186.195.018.019.023.021.016.015.161-.169.063.06-.154.162c.103.065.195.055.274-.028.038-.04.068-.088.09-.146l.083.08a.39.39 0 0 1-.095.15c-.063.067-.133.103-.21.111s-.155-.016-.236-.069l-.059.063-.064-.061.054-.055-.016-.014-.015-.014-.026-.027-.053.056-.064-.061.059-.062c-.059-.076-.089-.155-.088-.234s.032-.153.097-.22c.052-.056.112-.093.178-.115l.044.109a.37.37 0 0 0-.139.084z" class="B"/></g></g><path d="M96.021 15.373l-.612.643.053.051.612-.643-.053-.051zm.256.242l-.612.643.054.051.612-.643-.054-.051z" fill="#518d43"/><path d="M97.232 24.625l.874-.919-1.573-1.492-.874.919 1.573 1.492z" class="d"/><path d="M96.098 23.307c.351 0 .635-.284.635-.634s-.284-.634-.635-.634-.635.284-.635.634.284.634.635.634z" class="d"/><path d="M93.088 23.595l3.674-3.863-.709-.672-3.674 3.863.709.672z" class="M"/><path opacity=".25" d="M97.423 21.782l-5.53-.188-.006.168 5.529.188.006-.168zm.221.549l-6.184-.209-.006.168 6.184.209.006-.168zm.207.544l-7.178-.243-.006.167 7.178.243.006-.167zm-.279.539l-7.179-.243-.006.168 7.179.243.006-.168zm-.895.514l-5.768-.196-.006.167 5.768.196.006-.167z" class="c"/><path d="M94.375 33.448s-2.259-3.684-5.33-1.301l2.64 3.389 2.69-2.088zm-2.418-5.865a1.05 1.05 0 0 1-.186 1.476c-.459.357-1.122.274-1.479-.184a1.05 1.05 0 0 1 .186-1.477c.459-.357 1.122-.274 1.479.185z" fill="#348453"/><path d="M104.541 23.522l-21.06 2.663 2.169 17.089 21.06-2.663-2.17-17.089z" fill="#823d06"/><path d="M105.266 23.468l-10.561 1.336 2.169 17.089 10.561-1.336-2.169-17.089z" fill="#975d30"/><path d="M90.895 37.962a4.71 4.71 0 0 1-4.084 5.26c-2.583.327-4.943-1.499-5.271-4.078s1.502-4.933 4.086-5.258 4.941 1.499 5.269 4.076z" fill="#ef9e20"/><path d="M89.984 38.077a3.79 3.79 0 0 1-3.288 4.235c-2.08.263-3.979-1.205-4.243-3.282a3.79 3.79 0 0 1 3.289-4.233c2.078-.263 3.978 1.206 4.242 3.28z" fill="#f6ca10"/><path d="M90.211 42.082l-2.459.311c.123.83.405 1.445.846 1.845s1.014.555 1.718.466a4.42 4.42 0 0 0 1.368-.394l.258 1.008a6.36 6.36 0 0 1-1.512.386c-1.059.134-1.933-.072-2.622-.618s-1.114-1.396-1.285-2.537l-1.14.144-.101-.794 1.14-.144-.111-.877-1.14.144-.102-.8 1.14-.144c-.099-1.124.115-2.029.644-2.716s1.317-1.103 2.355-1.235c.452-.057.975-.056 1.568.003l.004 1.053a4.6 4.6 0 0 0-1.431-.047c-.7.088-1.213.374-1.537.858s-.443 1.121-.367 1.926l2.452-.31.102.8-2.459.311.111.877 2.459-.311.101.794z" fill="#ef9e20"/><path opacity=".2" d="M104.591 39.904l-1.573.199c-.163.022-.312-.095-.332-.256s.095-.311.257-.332l1.574-.199c.162-.021.311.094.332.257s-.095.311-.258.331zm-3.145.397l-1.573.2c-.163.021-.311-.095-.333-.257s.095-.311.257-.332l1.573-.199c.163-.021.312.095.332.258s-.094.31-.257.33zM98.3 40.7l-1.573.198c-.162.022-.311-.094-.332-.256s.095-.311.257-.332l1.572-.199c.164-.021.312.095.332.257s-.094.311-.257.331zm-3.145.398l-1.574.199c-.163.021-.311-.094-.332-.257s.095-.311.257-.332l1.573-.199c.163-.02.311.095.332.257s-.095.311-.257.332zm-3.146.397l-1.573.199c-.163.022-.312-.096-.333-.256s.095-.311.258-.332l1.573-.199c.163-.02.311.094.332.257s-.095.311-.257.331zm-3.146.399l-1.572.199c-.163.02-.312-.096-.332-.257s.095-.311.257-.332l1.573-.199c.163-.021.311.095.332.257s-.094.312-.258.332zm16.697-2.654a.3.3 0 0 1-.332-.258l-.198-1.57c-.021-.162.094-.31.256-.33s.312.094.332.256l.201 1.57a.3.3 0 0 1-.259.332zm-.397-3.14c-.163.021-.311-.094-.333-.257l-.199-1.571c-.02-.162.096-.311.258-.331s.311.094.332.257l.2 1.569a.3.3 0 0 1-.258.332zm-.399-3.14a.3.3 0 0 1-.333-.257l-.199-1.57c-.02-.162.095-.311.258-.331s.311.094.332.257l.199 1.569c.021.164-.093.312-.257.332zm-.399-3.14c-.162.021-.311-.095-.332-.256l-.2-1.57c-.021-.162.096-.311.258-.331s.311.093.333.257l.199 1.57c.021.162-.095.311-.258.331zm-.399-3.139a.3.3 0 0 1-.332-.257l-.09-.705-.276.034c-.162.02-.311-.095-.332-.257s.094-.311.258-.332l.57-.072a.3.3 0 0 1 .333.257l.127 1c.021.162-.093.311-.258.332zm-2.269-.729l-1.574.199c-.163.021-.311-.094-.333-.257s.095-.31.259-.332l1.572-.199a.3.3 0 0 1 .332.256c.021.164-.094.312-.256.332zm-3.146.398l-1.574.199c-.162.021-.311-.095-.332-.257s.094-.311.257-.332l1.573-.199c.163-.021.312.096.332.257s-.094.311-.257.332zm-3.146.398l-1.573.199c-.163.021-.311-.094-.331-.257s.094-.31.257-.331l1.573-.199c.163-.02.311.095.332.257s-.095.311-.258.332zm-3.145.398l-1.572.199c-.164.021-.311-.095-.333-.257s.095-.311.258-.332l1.572-.199a.3.3 0 0 1 .332.257c.021.162-.094.311-.257.332zm-3.145.397l-1.574.199c-.162.021-.311-.095-.331-.257s.094-.311.257-.332l1.573-.199c.164-.02.312.096.333.257s-.095.312-.257.332zm-3.146.399l-1.572.199c-.163.021-.311-.095-.332-.257s.095-.31.258-.332l1.572-.199a.3.3 0 0 1 .332.257c.021.163-.095.311-.258.332z" fill="#fffaef"/><path d="M108.367 29.299l-8.954 1.131.774 6.1 8.954-1.132-.774-6.1z" fill="#bd7730"/><path d="M103.992 32.949c.099.782-.458 1.5-1.244 1.598a1.43 1.43 0 1 1-.36-2.838c.786-.1 1.504.455 1.604 1.24z" fill="#f5f1e3"/><path d="M115.399 31.533h-7.422v14.849h7.422V31.533z" class="N"/><use xlink:href="#AK" class="O"/><use xlink:href="#AK" y="14.849" class="N"/><path d="M111.689 34.084c-1.508 0-2.864-.331-3.457-.845-.024-.02-.026-.056-.006-.08s.057-.026.08-.006c.574.497 1.9.818 3.382.818.84 0 1.63-.1 2.285-.291.031-.009.062.008.07.038s-.008.062-.038.07c-.665.193-1.467.295-2.316.295zm0 1.321c-1.508 0-2.864-.332-3.457-.846-.024-.02-.026-.056-.006-.08s.057-.026.08-.006c.574.497 1.9.817 3.382.817.84 0 1.63-.101 2.285-.29.031-.01.062.009.07.038s-.008.061-.038.071c-.665.193-1.467.295-2.316.295zm0 1.319c-1.508 0-2.864-.332-3.457-.845-.024-.021-.026-.056-.006-.08s.057-.027.08-.006c.574.496 1.9.817 3.382.817.84 0 1.63-.101 2.285-.291.031-.009.062.008.07.039s-.008.061-.038.07c-.665.193-1.467.295-2.316.295zm0 1.321c-1.508 0-2.864-.331-3.457-.845-.024-.02-.026-.056-.006-.079s.057-.027.08-.006c.574.497 1.9.817 3.382.817.84 0 1.63-.1 2.285-.29.031-.01.062.008.07.038s-.008.061-.038.071c-.665.192-1.467.294-2.316.294zm0 1.32c-1.508 0-2.864-.331-3.457-.845-.024-.021-.026-.056-.006-.08s.057-.027.08-.007c.574.497 1.9.818 3.382.818.84 0 1.63-.1 2.285-.291.031-.009.062.009.07.038s-.008.062-.038.071c-.665.194-1.467.295-2.316.295zm0 1.32c-1.508 0-2.864-.332-3.457-.845-.024-.021-.026-.057-.006-.08s.057-.026.08-.006c.574.497 1.9.818 3.382.818.84 0 1.63-.101 2.285-.291.031-.009.062.009.07.039s-.008.062-.038.07c-.665.193-1.467.295-2.316.295zm0 1.32c-1.508 0-2.864-.332-3.457-.845-.024-.021-.026-.056-.006-.08s.057-.026.08-.006c.574.496 1.9.817 3.382.817.84 0 1.63-.1 2.285-.291.031-.009.062.009.07.038s-.008.062-.038.07c-.665.193-1.467.295-2.316.295zm0 1.32c-1.508 0-2.864-.331-3.457-.844-.024-.021-.026-.056-.006-.08s.057-.027.08-.005c.574.496 1.9.816 3.382.816.84 0 1.63-.1 2.285-.29.031-.01.062.008.07.038s-.008.061-.038.07c-.665.193-1.467.295-2.316.295zm0 1.321c-1.508 0-2.864-.332-3.457-.846-.024-.02-.026-.056-.006-.079s.057-.027.08-.006c.574.496 1.9.817 3.382.817.84 0 1.63-.1 2.285-.291.031-.009.062.009.07.038s-.008.062-.038.07c-.665.193-1.467.296-2.316.296zm0 1.32c-1.508 0-2.864-.332-3.457-.845-.024-.021-.026-.056-.006-.08s.057-.026.08-.006c.574.497 1.9.817 3.382.817.84 0 1.63-.101 2.285-.291.031-.009.062.009.07.038s-.008.062-.038.071c-.665.193-1.467.295-2.316.295z" class="O"/><path d="M111.906 30.56c.314 0 .594.033.841.1l-.199.21c-.24-.057-.455-.085-.642-.085-.221 0-.403.031-.543.095a.5.5 0 0 0-.281.286h1.073v.173h-1.108l-.004.051v.061l.004.044h.959v.173h-.918c.099.234.385.35.855.35.223 0 .453-.023.69-.069v.227c-.206.046-.445.069-.717.069-.379 0-.685-.05-.922-.149s-.389-.242-.461-.429h-.357v-.173h.32l-.006-.041v-.042l.006-.073h-.32v-.173h.353c.059-.189.21-.336.448-.443s.55-.161.929-.161z" fill="#b97615"/><path d="M111.672 32.64c1.918 0 3.473-.53 3.473-1.183s-1.555-1.183-3.473-1.183-3.472.53-3.472 1.183 1.554 1.183 3.472 1.183z" stroke="#b97615" class="H"/><path d="M106.887 38.465h-7.422v7.832h7.422v-7.832z" class="N"/><path d="M103.176 39.826c2.049 0 3.711-.609 3.711-1.36s-1.662-1.36-3.711-1.36-3.711.609-3.711 1.36 1.661 1.36 3.711 1.36z" class="O"/><path d="M103.176 47.658c2.049 0 3.711-.609 3.711-1.361s-1.662-1.361-3.711-1.361-3.711.609-3.711 1.361 1.661 1.361 3.711 1.361z" class="N"/><path d="M103.176 41.017c-1.508 0-2.864-.331-3.457-.845-.023-.021-.026-.056-.006-.08s.057-.027.08-.007c.572.497 1.899.818 3.382.818.839 0 1.629-.1 2.284-.291.031-.01.063.008.071.038s-.008.062-.038.071c-.666.193-1.467.295-2.317.295zm0 1.32c-1.508 0-2.864-.332-3.457-.846-.023-.02-.026-.056-.006-.079s.057-.026.08-.006c.572.496 1.899.817 3.382.817.839 0 1.629-.101 2.284-.29.031-.01.063.008.071.038s-.008.061-.038.07c-.666.193-1.467.295-2.317.295zm0 1.32c-1.508 0-2.864-.332-3.457-.846-.023-.02-.026-.055-.006-.079s.057-.027.08-.006c.572.497 1.899.818 3.382.818.839 0 1.629-.101 2.284-.291.031-.009.063.009.071.039s-.008.061-.038.07c-.666.193-1.467.295-2.317.295zm0 1.32c-1.508 0-2.864-.331-3.457-.845-.023-.021-.026-.056-.006-.08s.057-.027.08-.006c.572.496 1.899.817 3.382.817.839 0 1.629-.1 2.284-.291.031-.009.063.008.071.039s-.008.061-.038.07c-.666.193-1.467.295-2.317.295zm0 1.32c-1.508 0-2.864-.332-3.457-.845-.023-.021-.026-.056-.006-.08s.057-.026.08-.006c.572.496 1.899.817 3.382.817.839 0 1.629-.1 2.284-.291.031-.009.063.009.071.038s-.008.062-.038.071c-.666.194-1.467.295-2.317.295z" class="O"/><path d="M103.392 37.492c.315 0 .595.033.843.1l-.198.21c-.242-.057-.456-.086-.645-.086-.22 0-.4.032-.541.094a.5.5 0 0 0-.28.285h1.072v.174h-1.108l-.004.051v.061l.004.045h.959v.172h-.919c.1.234.385.35.856.35a3.53 3.53 0 0 0 .689-.069v.228c-.205.046-.445.069-.717.069-.379 0-.685-.05-.922-.148s-.389-.242-.46-.429h-.358v-.172h.32l-.005-.042v-.042l.005-.073h-.32v-.174h.353c.059-.187.209-.334.449-.442s.549-.161.927-.161z" fill="#b97615"/><path d="M103.16 39.573c1.917 0 3.472-.53 3.472-1.183s-1.555-1.183-3.472-1.183-3.472.53-3.472 1.183 1.554 1.183 3.472 1.183z" stroke="#b97615" class="H"/></g><defs ><path id="C" d="M149.923 103.345v-.209l.389-.209v-.208l.21-.208h.433v-.193l.402-.226.208-.179v-.182-.417h.184v.196h.235l.198.221v.182l.193-.182.18-.417.238.196.209.221v.182.179h.197.209v.226l.18.193.42-.193.236.193v.208h.808l.21-.208.169-.193.417-.226h.429.197v.226h-.197v.193l.197.208v.208l-.405.209h-.418-.389v-.209h-.418l-.419.418v.196l-.181.611-.236-.208v-.195l-.42.195-.18.208-.209.208-.197.615-.627.208-.193-.208h-.617v-.197l.184-.221-.184-.405.184-.208-.184-.403v-.196l-.208.196-.402-.196-.225-.209h-.208-.21l-.389.209z"/><path id="D" d="M132.719 76.812l.225-.193v-.225h.402.197v-.181l.193-.209.24-.22-.433-.197-.599.417-.225-.417-.192.197v.22.209l-.42.181h.195.225l.192.225v.193z"/><path id="E" d="M133.137 75.363v-.402h-.193-.225v-.169h.225l.193-.209.406.209v.169l-.197.209-.209.193z"/><path id="F" d="M135.411 77.228l.822-.209.196-.208.209.208h.222v-.208l.377.208h.209v.209l.21.209h.236.375l.209.405.42-.196.418-.21v.21h.403l.209-.419h-.209l-.208-.209v-.208l.208-.193.209.193.209.208.169-.208v-.193l-.169-.225-.418-.181v-.429l-.208-.421.208-.402-.208-.169v-.209l.417-.402v-.432l-.209-.194h-.208-.837-.196l-.209-.209h-.194l-.417.209v-.209h-.419-.181-.196-.222l-.209.209h-.196-.403-.225-.194-.225v.194.223h-.18-.209-.209l-.21.209v.193.209.209h.419v.169.209h-.209v.193.641l.418.39h.18v-.181l.225-.209h.194l.225.209-.225.406v.401.209h-.194z"/><path id="G" d="M135.383 77.437v.21.196.402.209.416l-.208.21-.197.195h-.209l-.419-.405-.195-.193v-.432l-.419-.402h-.193l-.197-.196v-.21h-.402l-.417.21-.225.196h-.195l-.181.402v.432l-.209.403-.224.377-.209 1.24.642-.211h.376l.225-.209h.192.225.599.193l.419-.221h.614l.614.221.42-.221.208.221.39.209.639.211h.169l.209.402.64.417.181.197h.627.209.212l.194-.197.21.197.417-.197.168-.208-.168-.209-.209-.194.377-.208.42-.211h.026l-.197-.43v-.404l-.221-.375v-.195h-.169-.209l-.209-.403h.418v-.432-.402h-.209l-.209.181v-.181h-.208v-.196h.182-.404v-.21l-.421.21-.418.196-.209-.405h-.375-.223l-.223-.209v-.209h-.209l-.378-.208v.208h-.22l-.21-.208-.197.208-.821.209v.209z"/><path id="H" d="M138.866 81.711l-.418.819.839.196-.421.417h-.627v.21l-.821.208v.208.572.22l-.209.417h-.169v.209l-.209-.209-.43.209h-.197-.401.208l-.208.404-.21.193h-.418v-.193h-.406l-.419-.404-.614-.209v-.236h-.193v-.181l.193-.22v-.197-.21l-.193-.165v-.208l-.197-.208h-.209v.208h-.193-.417l-.225-.208h-.195l-.181-.21v-.181h-.433v-.626l-.209-.625v-.197-.208-.611h.028l.641-.211h.363l.238-.209h.181.236.599.194l.405-.221h.628l.614.221.418-.221.209.221.391.209.627.211h.181l.209.402.626.417.195.197h.629-.03z"/><path id="I" d="M134.978 90.908v-.42-.193-.236l.197-.169h-.406l-.208-.221.208-.224.209-.193.197-.209.418-.197v-.401l-.21-.405.21-.194v-.196l-.21-.221-.208-.209-.197-.208v-.405l-.209-.402v-.614h.028.389v.193h.419l.224-.193.209-.404h-.209.403.197l.431-.209.196.209v-.209h.181l.209-.417v-.22-.572-.208l.821-.208v-.21h.629l.418-.417-.838-.196.42-.819h.209.209l.195-.197.208.197.418-.197.169-.208-.169-.209-.209-.194.378-.208.418-.211h.222.208v.211h.391.433.403l.209.208v.194h.181l.418-.194v-.208h.211l.403.208.225.403h.392v.208l-.198.197v.208l.391.611.224.613-.417.21h.612v.208.208l.626.165h.196l.418.21v.417.181h.391.22.391v.445h.418l.209.404-.209.193-.209.212-.209.209-.391.209-.22.194-.391-.194h-.209v.194.405.208l.209.43.194.389v.236l.197.169.431.181-.027-.181v.401h-.432-.197-.193-.21-.405-.192l-.211.197v.402l-.209.445.209.405v.193.42h-.209l-.433-.42h-.196l-.194.196-.628-.196h-.196l-.209.196v.224l-.182.194-.237-.418-.179-.196-.21.42-.209-.224-.182-.196h-.43l-.224.196h-.611l-.197-.196h-.223l-.795-.193-.406-.236-.627-.169h-.584l-.655.169h-.378-.43l-.39.236v.193l-.208.196-.21.224-.21-.224h-.208l-.197.418v-.194z"/><path id="J" d="M145.825 101.731l.208-.221.21.221.193.182h.197v-.599l.221-.418h.211l.18.21.418-.21.418-.404h.197v.181h.222v-.389-.209-.402l.195.402.195.209v.208l.224.404h-.419v.21.208.196l.419.221.391.182.641-.403.376-.196h.208l.225-.208.193.625.209-.221.209-.404v-.21h.183l.235.21.198-.21h.193.627v.21h.197v-.21h.209l.18-.612.42-.209v.417h.236l.6-.626.418-.193.169-.209.22-.209h.197l.429.209.197-.209-.197-.208.393-.196.208-.402.225-.209h.192l.198-.224v-.193l.22.193h.182l.028-.193V96.82l.613-.209.21-.626.193-.181h.615.419l.224-.627v-.613l-.433-.627h-.21v-.193l.21-.209.209-.224v-.194h-.419l-.193-.154.193-.223.419-.209.224-.193V91.7h-.224l-.209.236h-.403l-.422-.236h-.403v.236l-.195-.236v-.193h-.194-.419v.193h-.405v-.193l-.43.193-.197-.193-.209-.209v.209l-.39.193-.639-.402-.182-.195v-.194h-.419l-.405.389-.194.209h-.224l-.194-.209-.224.209-.196-.209h-.194-.406-.236v-.195l-.194-.614v-.193h-.378l-.237-.405v-.221h-.18l-.221.221h-.614-.42v-.221-.417-.405l-.166-.22-.237-.35-.209-.236h-.209l-.378.236-.419-.236h-.209l-.208.236h-.197l-.418.169-.209-.169-.389.169v.181-.181.401h-.431-.197-.194l-.237-.11h-.377-.22l-.326.307v.375l-.151.459.239.445-.088.154v.444l-.08-.012-.419-.42h-.193l-.198.196-.642-.196h-.18l-.251.208-.071.224-.082.182-.236-.543-.225-.083-.221.444-.142-.236-.194-.196h-.433l-.208.196h-.613l-.196-.196h-.222l-.795-.193-.404-.236-.629-.169h-.584l-.655.169h-.377l-.419-.044-.375.224-.082.236-.226.22-.153.212-.194-.224-.268.012-.137.406.07.054-.098.141-.209.209.209.193.405.417.21.223-.21.193v.209l.21.223v.347.224h-.21-.208l-.197.402-.417.224-.585.598-.24.21-.193.416.193.599v.433h-.193-.197l-.402.61-.225.57v.418l.418.433.406.193h.433.793l.406.209.418.196.611-.196.197-.209.43.209.209.196.378-.196.446-.402h.375.418.209l.209-.433h.212.404v-.193l.208.193h.209l.588-.193.22-.225.21-.164h.586v.164h.431l.209.225.21.193.179-.193h.237l.182.193.405.224v-.224l.447.224v.209.193h.181v.405.417.209h.194.196l.224.402v.417h.209.209v.181.223l.211.21.192.208.197.196v.221z"/><path id="K" d="M139.899 98.016l.209.433h.168v.599l.223.208.197.209.43.209h.181v.193l.224.209h.181l.431.209v.208l.209.404v.418l.21.417v.361l-.21.226v.193l.21.208-.21.209v.208.405.403.208h.389l.237.208h.182.209.406l.237-.208.181-.208.194-.195.196.195h.224v.208h.209v-.403-.208l-.209-.196v-.209l.209-.208h.209v.208l.211-.208h.389l.208-.209h.21.193v-.401l-.193-.226h-.21l-.405-.179v-.182h.197l.028-.221-.197-.196-.21-.208-.193-.21v-.223-.181h-.223-.195v-.417l-.224-.402h-.193-.198v-.209-.417-.405h-.194v-.193-.209l-.448-.224v.224l-.391-.224-.193-.193h-.225l-.181.193-.209-.193-.209-.225h-.43v-.164h-.588l-.208.164-.222.225-.587.193h-.236z"/><path id="L" d="M93.171 104.655h-.195l-.224-.212h-.39l-.419-.209-.221-.208h-.196-.221-.405l-.209-.208-.209-.402h-.407l-.209-.211h-.192-.419-.222l-.194-.193h-.225-.194l-.196-.223-.221-.208h-.197l-.418-.197h-.221l-.407-.22v-.18h-.417l-.209-.225h-.197-.403l-.224-.193-.209-.208-.401.208-.226-.418-.192-.208v-.209-.195l-.418.195h-.208l-.209-.195v.195h-.197-.209-.209l.209.209-.209.208-.209.21v-.21l-.21-.208h-.209-.209l-.197-.209-.21.417-.209-.208-.208.208-.209.21.209.208v.193l.208-.193v.193l-.208.225h-.209v.18h.209v-.18h.417v.18l-.209.22v.197l-.208.208h.208v.223l-.208.193-.209-.193-.207.193v.404h.417.208v-.193l.418.193h.197v.209.208.208h.209.209.21l.209.209h.209l.209.212.197.193v-.193h.209.208v.193h.209.21l.192.208-.192.21v.208.209h.192l.226.196v.209h-.226v.209h-.192-.21v.192h-.209-.208v.225h-.209l-.197.193v.208l-.209.224v.182l-.209.221v.196.208.209.208h-.209-.21v.194l-.418.419v.211l-.197.207v.193h-.21l-.417-.193v.402.208.209l.208.197v.209.22l-.208.196-.209.194v.224h-.207l-.21.193v.223l-.193.194.193.209h.21v.196.21h-.21l-.193.207h-.211-.208v.208h-.209v.208l-.209.21v.39.417h.209.209l.208.224.211.193.193.209v.208l.417.197.209.22v.197l-.209.209h.209.208l-.208.401v.225h-.417l.207.191v.422l.209.208h.208l.209.194.21.418.197-.21v-.208l.418-.194h.419l.209-.208h.209l.406.208h.208l.209-.419h.402l.419.211.209.208h.433l.194.402h.405.626.21l.418.21.196-.21h.419l.221.21h.196v.207h.194l.225-.207v-.21-.208l.416-.194v-.208h.419l.192-.211h.419.197l.418.211.223-.211.403-.211v-.416l.196-.193h.221l.198-.208v-.209l.417-.197h.194.419l.417-.417-.194-.208v-.209l-.223-.193v-.224-.193-.405-.419l.223-.208.194-.208.419-.207.406-.406h.208l.225-.209.418-.417.194-.193.419-.224h.208-.208v-.194h.208v-.196l.208-.22h.209.39.434.402.225.192.21l.405-.209h.224l.195-.197h.417.209l.209-.209h.208l.209-.208.21-.209v-.193l.196-.207v-.211-.419l-.112-.151-.084.151h-.21l-.209-.194-.208.194-.209-.194h-.419-.208l-.195-.208-.224-.209h-.194-.211-.21l-.192-.208.042-.264-.152-.182-.181-.169-.295-.208-.249.224H96.7v-.224h-.197l-.417-.208h-.208l-.419-.193v-.225l-.419-.192h-.192l-.433-.418h-.198l-.208-.196-.195-.209h-.225v-.208-.21l-.194-.208-.223-.193z"/><path id="M" d="M79.762 114.506l-.628.208h-.208v-.208l-.195.208-.224-.208-.417-.209-.197-.209h-.209-.194v-.196l-.209-.208-.224.208h-.195-.224v-.208l.224-.209.195-.405v-.22l.224-.197h.209v-.208l.194-.403-.194-.224.194-.193v-.224l.209-.181.197-.209v-.208-.418h-.197l-.209-.207h-.403v-.209-.193l.209-.21.194-.209v-.211-.208-.21l.209-.192h.42.195l.224-.417.195-.209v-.195l.208-.223.209-.18.209-.418.21-.207v-.418l.196-.21.221-.196v-.416l.197-.208.208-.194v-.421-.209l.195-.208v-.193-.224-.193h.433.208v-.208l.403.208h.208v.193.224.193h.198.225.192l.225.208h.207l.194.209.209.197v-.197h.21.209v.197h.197.22l.182.224-.182.194v.208.208h.182l.226.208v.196H84.5v.21h-.182-.22v.208h-.197-.209v.21h-.21l-.209.207v.194l-.194.224v.18l-.207.223v.195.209.221.196h-.225-.192v.192l-.423.418v.211l-.208.209v.21h-.192l-.419-.21v.403.209.207l.208.21v.208.208l-.208.209-.209.181v.224h-.224l-.195.193v.224l-.208.194.208.209h.195v.208.197h-.195l-.208.22h-.197-.221v.196h-.196v.209l-.21.209v.404.418h.21z"/><path id="N" d="M99.223 115.396v-.196h-.208l-.197-.418h-.222-.405v-.209h.208.197.419v-.208l.208-.209.209.209v.208l.21.209h.207.211l-.211.209h-.207v.209l-.21.196h-.209z"/><path id="O" d="M101.507 114.782l-.209-.209h-.209l-.21-.208v-.209h.21l.209.209h.209.212v.208.209h-.212z"/><path id="P" d="M108.533 107.351l.21-.208v-.208l.197-.209-.197-.208h-.404-.224l-.193-.403v-.208-.418-.208l.193-.197v-.208-.195l-.193-.222h-.225l-.209-.193v-.209h.209.225.193l.224-.212.194-.209.21-.208-.21-.193v-.209l-.194-.209v-.209h.194v-.196-.22l-.194-.196v-.21h.194l-.194-.209v-.192h.194.21v-.224l-.21-.402h-.194v.209h-.224l-.193.417-.434.192-.194-.416.194-.402.434-.405v-.209l.193-.208h.418l.407-.21.208-.404v-.208l.208-.21.209.21.224.208.195-.418.209.21v-.626l.197-.209v-.193-.405-.221l.221-.208v-.197l.196-.402.221-.225.406-.401-.209-.209h-.197-.221l-.196-.212h-.418l-.404-.207-.224-.194-.209-.417-.208-.418h-.405l-.21-.196h-.194-.224l-.193.196v-.196l-.225-.208-.209-.209h-.194v-.208l-.208-.194v-.224l-.198-.18v-.221h-.22v.221h-.198-.221l-.208-.221.208-.21v-.196-.417h-.208-.197-.209l-.209-.402v-.209h-.209-.208v-.211-.209h-.21-.197v-.21l-.209-.208v-.194-.208-.21h-.417-.21-.209-.21-.193l-.209.21v.208.194l-.197.208v.21.42.209h-.221-.209l-.208.193h-.214l-.4.209-.42.196h-.417-.406v.221h.209l.405.196.209.21h-.209v.221l-.405-.221h-.419-.417v-.21h-.419l-.401-.196-.418-.221v.221l-.423-.221.213-.196-.213-.209v-.193l.213-.209h-.213-.193l-.209-.211h-.208v.211l-.225.209v.402.196l.225.417-.225.21v.221.18l.225.224v.194h-.418l-.224-.194h-.194-.197l.197-.224h-.406-.418l-.208-.18v.18h-.403v-.18-.43h-.224-.194v-.196l.194-.221-.194.221-.416-.221-.21.221v.196h-.406v-.196h-.417-.224l-.194-.221-.224.221h-.182-.208-.21v.196h.21.208.182v.21.221h-.182v.18h-.208-.21l-.208.224h.208l.21.194.208.417v-.209l.406.209v-.209h.194v.209l.418.404h.223v.209h.194v.209.208h.422.416l-.223.209h.223l.194.194-.194.42h.194l.224.209h.403-.403v.207h.182v.194l-.407.418v.209l.224.405h.182v.418l.221.209v.193l.417.209.209-.209v.209.208l-.209.209h.209l-.209.21v.416.196l-.209.21v.208h.209v.209.196l.209.209v.209.417.192l-.209-.192v-.224-.193l-.209-.209v-.209l-.208-.196v-.209l-.221.209v.614.193l-.182.224v.401h-.224l.407.21-.182.196h-.419v.22.196l-.223.209v.209h-.194v.402h-.21l-.212.208v.209l-.417.421-.418.415.224.195.194.208v.197.208h.223.194l.422.418h.194l.223.417h.194.224l.182.194.43.417h.209l.418.208h.197v.208l.489.028.473-.139.249.17.087.248-.044.307.193.209h.213.21.194l.224.209.209.208h.192.419l.208.18.237.044.181-.044h.209l.154.1.237-.197-.096-.068-.058-.113-.04-.11.208-.209-.208-.209.208-.417v-.197l.209-.208h.209l.211-.208h.208.192.214l.208-.209.209-.208h.221l.197.208.209.209h.193.419v.416l.21-.208h.208l.209-.208h.209v.208.208h.197.21v.197.208l.208-.208.209.208.209.209v.209l.209.209h.197.208.221.198.22l.198-.209v-.209-.209h.208.194.209v-.208h.225.193v.208l.418-.405-.194.197.194-.197z"/><path id="Q" d="M108.533 107.351l.21-.208v-.208l.197-.209-.197-.208h-.404-.224l-.193-.403v-.208-.418-.208l.193-.197v-.208-.195l-.193-.222h-.225l-.209-.193v-.209h.209.225.193l.224-.212.194-.209.21-.208-.21-.193v-.209l-.194-.209v-.209h.194v-.196-.22l-.194-.196v-.21h.194l-.194-.209v-.192h.194.21v-.224l-.21-.402h-.194v.209h-.224l-.193.417-.434.192-.194-.416.194-.402.434-.405v-.209l.193-.208h.418l.407-.21.208-.404v-.208l.208-.21.209.21.224.208.195-.418.209.21v-.626l.197-.209v-.193-.405-.221l.221-.208v-.197l.196-.402.221-.225.406-.401-.209-.209h-.197-.221l-.196-.212h-.418l-.404-.207-.224-.194-.209-.417-.208-.418h-.405l-.21-.196h-.194-.224l-.193.196v-.196l-.225-.208-.209-.209h-.194v-.208l-.208-.194v-.224l-.198-.18v-.221h-.22v.221h-.198-.221l-.208-.221.208-.21v-.196-.417h-.208-.197-.209l-.209-.402v-.209h-.209-.208v-.211-.209h-.21-.197v-.21l-.209-.208v-.194-.208-.21h-.417-.21-.209-.21-.193l-.209.21v.208.194l-.197.208v.21.42.209h-.221-.209l-.208.193h-.214l-.4.209-.42.196h-.417-.406v.221h.209l.405.196.209.21h-.209v.221l-.405-.221h-.419-.417v-.21h-.419l-.401-.196-.418-.221v.221l-.423-.221.213-.196-.213-.209v-.193l.213-.209h-.213-.193l-.209-.211h-.208v.211l-.225.209v.402.196l.225.417-.225.21v.221.18l.225.224v.194h-.418l-.224-.194h-.194-.197l.197-.224h-.406-.418l-.208-.18v.18h-.403v-.18-.43h-.224-.194v-.196l.194-.221-.194.221-.416-.221-.21.221v.196h-.406v-.196h-.417-.224l-.194-.221-.224.221h-.182-.208-.21v.196h.21.208.182v.21.221h-.182v.18h-.208-.21l-.208.224h.208l.21.194.208.417v-.209l.406.209v-.209h.194v.209l.418.404h.223v.209h.194v.209.208h.422.416l-.223.209h.223l.194.194-.194.42h.194l.224.209h.403-.403v.207h.182v.194l-.407.418v.209l.224.405h.182v.418l.221.209v.193l.417.209.209-.209v.209.208l-.209.209h.209l-.209.21v.416.196l-.209.21v.208h.209v.209.196l.209.209v.209.417.192l-.209-.192v-.224-.193l-.209-.209v-.209l-.208-.196v-.209l-.221.209v.614.193l-.182.224v.401h-.224l.407.21-.182.196h-.419v.22.196l-.223.209v.209h-.194v.402h-.21l-.212.208v.209l-.417.421-.418.415.224.195.194.208v.197.208h.223.194l.422.418h.194l.223.417h.194.224l.182.194.43.417h.209l.418.208h.197v.208l.489.028.473-.139.249.17.087.248-.044.307.193.209h.213.21.194l.224.209.209.208h.192.419l.208.18.237.044.181-.044h.209l.154.1.237-.197-.096-.068-.058-.113-.04-.11.208-.209-.208-.209.208-.417v-.197l.209-.208h.209l.211-.208h.208.192.214l.208-.209.209-.208h.221l.197.208.209.209h.193.419v.416l.21-.208h.208l.209-.208h.209v.208.208h.197.21v.197.208l.208-.208.209.208.209.209v.209l.209.209h.197.208.221.198.22l.198-.209v-.209-.209h.208.194.209v-.208h.225.193v.208l.418-.405zm0 0l-.194.197.194-.197z"/><path id="R" d="M88.657 52.325l.193.181h.225l.193.22.225.209.192.197h.21.212v.22.196.209.193l.193.209.418.421h.224.194v.221.18l.404.209.223.21v-.21l.208-.209v.209h.21l.391-.209h.224l.419.209.194-.209.223.209h.405v.21l.404-.21.223-.209.418.209h.182l.221-.209.208.209v.21l.209-.21h.209l.406-.209.194-.401.224.221h.193.433v-.418l.209-.223h.193v-.209-.193l.213-.209v-.196l-.213-.22v-.197-.209h-.402v-.22l.209-.181.193.181v-.181l-.193-.209v-.209-.208l.406-.209v-.209l-.213.209h-.402v-.209-.196l.209-.208v-.209-.21.21l-.417-.21v.21l-.225.209-.193.208h-.224l-.194-.208v-.209l-.406.209-.418.208h-.208l.208-.626-.208-.209v.209l-.221.418v.208l-.182.196-.224-.196v-.417l.224-.21v-.404l-.224-.221-.194.221-.223-.221v.221l-.194.196-.21.209h-.212v-.209-.196-.417l-.194-.193-.223.389-.194.417h-.224v-.196h-.194-.224l-.391.614v-.21h-.21v-.209l.21-.196v-.221-.196-.418h.208.182l.224-.417h-.224v-.194l.224-.209v-.196-.429l-.406-.405h-.418l.21.209.208.417h-.208v.209.196.209l-.21.194-.208-.194v-.405l-.223.196v-.405-.417.197h-.195l-.209-.197v.626l-.418-.209.224.209.194.196-.418.209h-.192V48.4v-.196l-.225-.209v.209.196h-.193v-.196l-.212.196v.209h.212.193l.225.194h.417l.194.224.209.193v.225h.195.223v.389h-.223l-.404-.196h-.418l.224.196.194.221.209.196-.209.209h-.194l-.224-.209-.192-.196H90.3l-.404-.221-.403-.196-.418.196v.221h.418.403l.212.196v.209h.193v.21.209l-.193.208v.405l.193-.209v.209l-.193.209-.212.208h-.21-.192-.225l-.193.209-.225-.209-.193.418z"/><path id="S" d="M94.858 80.247l-.194.196v-.196h-.223l.223.196-.223.222v.196.417l-.194.194v.223.196l-.21.209v.21.208.209h-.212v.194l-.194.208h-.223v.209l-.194.209-.418.196-.224-.196h-.391-.418-.418-.209l-.194.196h-.224v-.196l-.192.196H90.3v.21h-.404l-.211-.21-.192.21h-.418l-.225-.21h-.193l-.407.21v-.21-.196l-.626.196h.197l.429-.196h-.626l.418-.209h-.221-.197v-.209l.197-.208h.221.208-.208-.221l-.197-.194-.22.194-.198-.194.198-.209.22-.208h.197.221.208l-.208-.21h-.418-.22v-.209l.22-.196h.197.612v-.223h.417.225l.193.223h.417.211l-.211-.223h-.192-.225l-.193-.194-.418.194-.224-.194h.417l.418-.417.628-.196h.212l.193-.222v-.196h-.193-.422l-.192.196v-.405h-.225v-.193l-.193-.418.193-.208h.225l.192-.209.211-.209h.212-.212v-.196-.209l-.211-.209h.211l.212-.417h.418l.192.224.224.193v.209l.403.209.195.196.431-.196v-.209-.209h.418l.182-.193h-.182l-.418-.224-.209-.209.626-.194.182-.207h.224-.224l.224-.197h.418l.194-.224.417.224h.212.21.194v-.224l.223.224.194.197-.194.207h-.223-.194l.194.194h-.194-.422l-.194.209-.223.224v.193l-.194.209-.224-.209h-.194v.209l-.224.209.224.196.194.209.224.209.194.208.223-.208h.194.212l.404.208v.209l.223.209.194.401z"/><path id="T" d="M94.398 77.579h-.21-.418l-.182.209-.221.209v.208l-.209.194-.209-.194h-.209v.194l-.21.224.21.193.209.209.209.209.209.209.221-.209h.182.224l.403.209v.209l.208.196.21.417.211-.209.194-.208h.225.193v-.405l.224-.209v.209.209h.194v-.209-.209l-.194-.209-.224.209-.193-.209.193-.209h.224v-.193-.224l-.224-.402v-.209-.209h-.193-.225-.194v-.196h-.211l-.21.196h-.208z"/><path id="U" d="M110.611 112.613l-.139-.028-.125-.197v-.208l-.154-.181-.127-.22.142-.126-.015-.071v-.208l-.084-.182-.043-.221.043-.224-.043-.18.142-.139.182-.224.221-.082.099-.138.097-.043h.221l.208-.098.184.042.043-.042.097.098.083.194v.223.196.417l-.209.209-.209.194v.208.208l-.197.418v.197l-.221.208v.209l-.196-.209z"/><path id="V" d="M108.743 113.656l.197.193.208-.193h.417.225l.194-.224h.209.197v-.193h.221l.196-.209v.209l.221.193.197.224h-.197l.197.193v.196h.209v.225l-.209.417h.209v.193l-.209.208h-.197v.197.208.209.208.21l-.221.401v.418.416.21l-.196.196-.221-.196h-.197l-.403-.21-.225.21v.196.209h-.209-.208l-.405-.209v-.196-.21l-.21-.208.21-.417-.21-.209h.21l.197-.194v-.207-.21l.208-.208.208-.209h-.416-.197v-.405-.208l-.21-.417v-.193-.225l.21-.196v-.193z"/><path id="W" d="M121.371 120.433v.209.209l-.209.416h-.194l-.209.193v.223.194.209l-.208.209v.197.223h.208l-.208.193h.208v.418l-.416.196v.418l-.42-.198-.223.198-.391-.198-.208-.416v-.222l-.42-.196h-.417l-.193-.193h-.419l-.212-.42-.208-.209-.613-.209-.224-.194h-.194l-.417-.223-.225-.193v-.208l.225-.208v-.418h.192l.225-.197.194.197v.209l.417-.209h.42l.208.209.406.209.418.208h.417l.42-.208h.208.209.182l.223-.209h.194l.226.209.208-.209h.417l.403-.209z"/><path id="X" d="M105.217 69.59l.209-.209v-.194l-.209-.209v-.209h.418v-.208l.209-.613v.405.208.208.209l-.209.209v.194l-.418.209z"/><path id="Y" d="M97.13 72.053l.225-.405.208-.193.209.193v.225l.193-.225v-.193l.213-.224h.21v-.194l.194-.209v-.196l-.194.196h-.21-.406v.403l-.209-.194v-.209l-.208.209v.194l-.225.417v.225.18z"/><path id="Z" d="M97.982 73.332v-.193-.224l.196-.194v-.209l-.196.209-.224.194v-.194-.209l-.418.209v.194.224l.418-.224-.194.417.194.209v.209l.224-.418z"/><path id="a" d="M92.741 88.417l.418-.209h.209v-.197l.612-.22h.418l.208-.405v-.21h.21l.211.21.21-.21-.21-.193h.21.195.209v.193h.209l.209.21h.21.209.405.209v-.21l.21-.193h.209.209l.209-.211.194-.209h-.194-.417v-.193h.209v-.419h-.209v-.209-.208l.209-.209.209-.405h-.209.209l.194-.209v-.209-.193l.209-.224.207-.193v-.21l-.207-.208v-.197l.207-.219v.219h.211l.211-.219h-.211v-.197-.209h-.211v-.193l.211-.212h.211v-.208-.209h.208v-.209h.404v-.209l-.404-.208h-.208l-.211.208.419-.402h-.208l-.211-.209v-.196-.43-.196l.211-.207.208-.194.195.194v-.194h.209l.209-.224v.224h.209l.209-.224.209-.194h.21v-.209h.196v-.209h.209l.209.209.209-.209-.209-.196h.209l.211-.417.207.417.21.196-.21.417v.194.224l.21.194v.207l-.21.196v.209.418.209h.21l.193.194h.21v.208l.208.209v.209.209.208 1.031l-.208-.219h-.21-.193v.219h.193l.418.197v.208l.224.21v.193.224.193l-.224.209-.208.209h-.21v.209.196l.21.209.208-.209h.224l.197-.196.209.196h.402l.418.209.224.208v.418.21l-.224.401v.211l-.208.193-.21.21h-.193-.209v.224h-.209-.197-.224l-.208.182h.208v.22l-.208.197-.21-.197h-.193-.21v.197l.21.209.193.209h.21l.208.208.224-.208h.197l.209.208-.209.209-.197.193h-.224l-.208.209-.21.21-.193-.21h-.21l-.418.21-.209-.21h-.209l-.209-.209h-.196-.21-.209-.418v-.193h-.209-.209l-.195-.209-.208-.208-.211.208v.209h-.419l-.209-.209h-.403l-.209.209H97.3v-.209l-.21-.208-.209-.209h-.209-.196-.209-.21l-.209-.209-.209.209v.209.208l-.209.209h-.404l-.211-.209v-.208h-.418l-.418-.209-.403.209-.21.208v-.208h-.209v.208h-.209-.209v-.417h-.197-.209.406z"/><path id="b" d="M92.741 88.417l.418-.209h.209v-.197l.612-.22h.418l.208-.405v-.21h.21l.211.21.21-.21-.21-.193h.21.195.209v.193h.209l.209.21h.21.209.405.209v-.21l.21-.193h.209.209l.209-.211.194-.209h-.194-.417v-.193h.209v-.419h-.209v-.209-.208l.209-.209.209-.405h-.209.209l.194-.209v-.209-.193l.209-.224.207-.193v-.21l-.207-.208v-.197l.207-.219v.219h.211l.211-.219h-.211v-.197-.209h-.211v-.193l.211-.212h.211v-.208-.209h.208v-.209h.404v-.209l-.404-.208h-.208l-.211.208.419-.402h-.208l-.211-.209v-.196-.43-.196l.211-.207.208-.194.195.194v-.194h.209l.209-.224v.224h.209l.209-.224.209-.194h.21v-.209h.196v-.209h.209l.209.209.209-.209-.209-.196h.209l.211-.417.207.417.21.196-.21.417v.194.224l.21.194v.207l-.21.196v.209.418.209h.21l.193.194h.21v.208l.208.209v.209.209.208 1.031l-.208-.219h-.21-.193v.219h.193l.418.197v.208l.224.21v.193.224.193l-.224.209-.208.209h-.21v.209.196l.21.209.208-.209h.224l.197-.196.209.196h.402l.418.209.224.208v.418.21l-.224.401v.211l-.208.193-.21.21h-.193-.209v.224h-.209-.197-.224l-.208.182h.208v.22l-.208.197-.21-.197h-.193-.21v.197l.21.209.193.209h.21l.208.208.224-.208h.197l.209.208-.209.209-.197.193h-.224l-.208.209-.21.21-.193-.21h-.21l-.418.21-.209-.21h-.209l-.209-.209h-.196-.21-.209-.418v-.193h-.209-.209l-.195-.209-.208-.208-.211.208v.209h-.419l-.209-.209h-.403l-.209.209H97.3v-.209l-.21-.208-.209-.209h-.209-.196-.209-.21l-.209-.209-.209.209v.209.208l-.209.209h-.404l-.211-.209v-.208h-.418l-.418-.209-.403.209-.21.208v-.208h-.209v.208h-.209-.209v-.417zm0 0h-.197-.209.406z"/><path id="c" d="M98.414 83.31l-.224-.21v-.208h-.195-.207v-.193l-.631.193h-.209l-.21.208h-.402l-.209.21h-.209v.209h.209l.209-.209.222.209.181-.209h.21v.209l-.21.196v.209.209h-.181l.181.209-.181.208h-.222l-.209.193-.209.224-.209-.224-.209.224h-.197-.209-.209l-.209-.224-.21.224v.194l-.209.209h.418.209v.196h-.209v.209h.418l.209-.209h.197.209v.209.224h.209-.209v.193h.418.209l-.209.225.209.194.222.196h.181.419.209l.211-.196v-.194h.21v-.418h-.21v-.224-.209l.21-.196.207-.402h-.207.207l.195-.224v-.193-.208l.224-.209.194-.209v-.209l-.194-.196v-.209z"/><path id="d" d="M99.767 79.441v-.209l-.208.209h-.209l-.197-.209h-.208v.209h-.21v-.209l-.405.209v-.209l-.222-.209-.196.209v.209.209l-.21-.209v-.209l-.208-.209h-.209v.209.209h-.208v-.209-.418-.193h.208v-.224h.209l.208-.194v-.208h.21l.196-.209.222-.209.196-.196v-.209h.209v-.194h-.209l-.196-.224h-.222-.196v-.209h.196l.222-.196v-.221l-.222-.181h-.196l-.21.402-.208.196v-.196-.221l.208-.405.21-.194h.196.222v-.208h-.222l.222-.209.196-.208.209-.196h-.209l-.196.196h-.222l-.196.417-.21-.209-.208-.208.418-.196v-.209-.21l.196-.208h.222v-.209-.209h.405v-.209l-.209-.193h-.196.196v-.209-.209-.196l.209-.224h.21.208v.224h.197l.209.196v-.196-.224l-.209-.209.209-.181h.208l-.208-.22.417.22.221-.22h-.221l.221-.417v-.196h.197l.403.196h-.181l.181.221.209-.221v.221l.418.196.418-.196v.196h.209.197l.222.22-.222.181v.209h-.406l-.192.224-.226.196h-.209-.209l-.209.209v.209h-.181l-.419.193v.209h.197-.197v.209.209h.197l.403-.209h.209.418.226.401.197l.222.209v.208h.195.225.193v.21.209l-.193.196h-.225v.208h-.195l-.222.209.222.208v.194l-.222.224-.406.181v.221h-.192l-.226.196-.209-.196h-.209-.39v.196h.181l.209.209h.209l-.209.224h-.39v.194h-.222-.197l-.221-.194h-.21v.194h.21l.221.209h.197.403.209l.209.196.209.209.226.417-.226.418h-.209l.209.193-.209.209-.209-.209h-.209v.209h-.181v.209h-.222l-.197.209-.221.209h-.21v-.209z"/><path id="e" d="M108.268 107.492l.407-.18.209-.224h.209.209l.417-.194.21-.207v-.21l.193-.208.209-.21h.418.212l.418.418.194-.208.627.418v-.21l.209-.208h.208.21l-.21.208v.21l.21.207-.21.194.407.404.221.848.196.806.209.211.419 1.028h.209l.418.418.196.417.222.181.197.224.61.611 1.242 1.239h.222l.196.417H118l.208.405.211-.209.613.626.222.208.196.195h.194l.418.416h.224l.193.209v.405.221.181l.418.224h.209.198l.429.208.197.194v.225l.211.192.193.613.224.626v.614l-.224.208h-.193-.211v.209.209.193.196l-.197.222-.208.196v.221l.208.196h.197.211.193l.224-.196h.194v-.221l.432-.196v-.222-.389l.21-.209.197-.209.209-.208h.209.192.225v-.208-.197-.209-.417-.209-.209l-.225-.192-.401.192-.209-.346-.071-.542.071-.335h.209v-.224l.209-.181h-.209l.209-.221.192-.196h.225.194v.196l.418.221h.209.208.21.209v.181.224l.197.208v.194l.22.225h.183.224l.208-.225v-.402-.405-.221l-.432-.196-.183-.418-.22-.208-.406-.208h-.418l-.209-.195-.194-.208-.643-.208-.192-.209-.209-.209h-.209-.407l-.208-.196-.418-.208h-.224l.224-.209h.194l.224-.209v-.417l-.642-.196h-.193-.616-.419l-.401-.208-.226-.403-.193-.224-.418-.417-.224-.39-.39-.416v-.417l.196-.209-.196-.403-.222-.42v-.208l-.197-.21v-.388h-.224l-.403-.221-.417-.209h-.21l-.418-.195v-.223l-.196-.18v-.224l-.209-.401.209-.21v-.208-.21l.196-.196.222-.208v-.208h-.222l-.196-.208v-.194h-.209l.209-.224h.196v-.406h.418.21.209.208l.211-.208h.192v-.193h.224.197v.193l.222.208v-.401h.196l.194-.224-.194-.193-.196-.208.39-.209v-.197l-.194-.221v-.197-.208h-.196l-.222-.209h-.421-.192-.211H118l-.209-.192-.21-.225v-.194l-.196-.208-.222-.208h-.405-.209-.209-.193l-.226-.211h-.209v.211l-.401.208h-.197-.222v-.208-.211h-.196-.224v.211.208.208h-.194l-.209-.208-.208.208-.211.194.211.225-.211.192-.209-.192h-.196-.221-.197v-.225l-.21-.194h-.208v.194.417h-.209l-.209.209-.21.208v.197l-.208-.197-.194-.208-.209-.209v-.192-.225l-.209-.194h-.212l-.208.194v.225l-.21.401h-.209-.403l-.209-.209-.835.209h-.197v.208h-.21v.197l.21.221v.197l.197.209-.197.208-.21.193-.208.224h-.21-.208-.209v.193l.209.208h.208l.21.209v.197.224l-.21.194v.208.416.196l.21.418h.208.407l.209.21-.209.207v.194l-.197.224-.21.18z"/><path id="f" d="M108.506 102.192l-.195-.196v-.21h.195l-.195-.209v-.192h.195.209v-.224l-.209-.402h-.195v.209h-.223l-.195.417-.417.192-.208-.416.208-.402.417-.405v-.209l.195-.208h.418l.418-.21.194-.404v-.208l.225-.21.195.21.222.208.196-.418.21.21v-.21l.191.21v-.21l.434.21h.21.209.197.209.193.226.417v.208h.209.192v.208l.42.196v.21l-.211.208v.209h.211v.196h.208l.198.209.22.209h.824-.209v.193.224.192h-.21l-.208-.192-.197.192-.22.209.22.21-.22.196-.198-.196h-.208-.211-.209v-.21l-.192-.209h-.209v.209.406h-.224l-.193.22-.226.196v.209l-.193-.209-.209-.196-.197-.22v-.196-.21l-.209-.209h-.21l-.208.209v.21l-.226.416h-.191-.406l-.222-.22-.823.22-.209-.22z"/><path id="g" d="M123.619 101.984v.18h-.197v.22h-.22v-.22h-.211-.209-.197-.222-.195-.21-.209v.22l-.197.197h-.22-.21l-.196.208h-.209l-.21-.208h-.208-.209l-.21-.197v.197l-.402-.197h-.209l-.208-.22h-.419-.209-.196-.209l-.209-.18-.21-.225v-.193l-.209-.208-.209-.21h-.405-.209-.209-.21l-.207-.208h-.211v.208l-.402.21h-.209-.209v-.21-.208h-.21-.823l-.208-.209-.21-.195h-.208v-.209h-.209v-.209l.209-.209V99.7l.208-.197h.21l.208.197.193.209h.209l.213.209.208-.209h.21l.209-.406.403.197v.209h.208.211l.207-.209.21.209h.209.209l.208-.209h.197.418.21l.209.209V99.7h.209l.405.209v.209.209l.21.209v-.209h.209v-.209-.209l-.209-.209v-.197-.208l-.21-.209v-.209-.417h.627l.209-.194.194-.208v-.209h.208.21.209v-.196h.208l.21.196h.405.43l.197-.196v-.22-.197h.209.405.222.197l.209.197h.211.417l.208.22h.209v.196l.194.209h.211.208.208l.196.208-.196.194.196.417h-.196l.196.418v.404l-.196.209v.209h-.208v-.209h-.208-.211v.209l.211.209v.209.195h-.211v.417l-.194.418h-.209l-.208.418v.18-.18z"/><path id="h" d="M123.619 101.984v.18h-.197v.22h-.22v-.22h-.211-.209-.197-.222-.195-.21-.209v.22l-.197.197h-.22-.21l-.196.208h-.209l-.21-.208h-.208-.209l-.21-.197v.197l-.402-.197h-.209l-.208-.22h-.419-.209-.196-.209l-.209-.18-.21-.225v-.193l-.209-.208-.209-.21h-.405-.209-.209-.21l-.207-.208h-.211v.208l-.402.21h-.209-.209v-.21-.208h-.21-.823l-.208-.209-.21-.195h-.208v-.209h-.209v-.209l.209-.209V99.7l.208-.197h.21l.208.197.193.209h.209l.213.209.208-.209h.21l.209-.406.403.197v.209h.208.211l.207-.209.21.209h.209.209l.208-.209h.197.418.21l.209.209V99.7h.209l.405.209v.209.209l.21.209v-.209h.209v-.209-.209l-.209-.209v-.197-.208l-.21-.209v-.209-.417h.627l.209-.194.194-.208v-.209h.208.21.209v-.196h.208l.21.196h.405.43l.197-.196v-.22-.197h.209.405.222.197l.209.197h.211.417l.208.22h.209v.196l.194.209h.211.208.208l.196.208-.196.194.196.417h-.196l.196.418v.404l-.196.209v.209h-.208v-.209h-.208-.211v.209l.211.209v.209.195h-.211v.417l-.194.418h-.209l-.208.418zm0 0v.18-.18z"/><path id="i" d="M108.951 92.966v.194l.209.208.209.209v.21.208.208.197h-.209l.209.402.213.421.207.209.404.207h.432l.194.194h.226.191l.212.224-.403.402-.226.208-.194.418v.196l-.224.209v.209.401.209l-.208.209v.448-.031l.208.196v-.196l.418.196h.226.191.212.195.21.209.429v.223h.197.21v.194l.417.21.197-.21h.21l.207.21.211.208h.208l.194.198.224-.198h.195l.222-.417.393.21v.208h.208.209l.221-.208.197.208h.221.197l.208-.208h.195.42.209l.222.208v-.208h.196l.402.208v.198.219l.226.197v-.197h.194v-.219-.198l-.194-.208v-.21-.194l-.226-.223v-.196-.417h.644l.193-.209.197-.209v-.193h.222.195.221v-.208-.209l-.221-.209-.195-.196-.222-.209h-.197l-.193-.209-.224-.417-.194-.417-.226-.194v-.207-.404l-.193-.225-.209-.194v-.405h-.196l-.222-.416v-.419l.222.209v.21l.405-.21.193.21h.42l.417-.21h.197l.222-.209h.195l.64-.402.196-.208.21-.209.418-.197.208.197v.209h.197l.221-.209v-.197-.625l.196-.21h-.196v-.194-.222-.614-.193l-.221-.418v-.209-.209l.221-.209h-.221l-.197-.209v-.197l-.208-.208-.21-.417.21-.193.208-.225v-.181-.221-.208-.197-.611h-.626v-.42-.418h-.406-.221v-.208l-.198-.194v-.209h-.221l-.195.209h-.222-.197l-.417.194-.42.208-.193-.208v.208h-.209-.418-.209l-.42-.208h.224v-.194h.196v-.209-.224h-.196-.224l-.195.224-.208-.418h-.197-.221v-.208h-.197-.221v-.208l.221-.209-.221-.196-.209-.209-.208-.193h-.393l-.222-.224h-.195v.417.209l.195.196v.209l-.419.208h-.194v.208h.194v.194.224l.419.209-.195.194.195.208.417.209v.418l-.195-.418-.222-.209h-.419-.402v.209.418.211l-.211.194v.193l-.207-.387v-.211-.209h-.21v.209h-.197v-.209l.197-.209-.42-.209h-.404-.418-.208v.209l-.209.209v.209h.209v.211l.208.194-.208.193v.224.197.208h-.209v.221.405.193l-.21.209.21.209v.208l-.21.614h-.195-.212-.191-.226l-.194-.209-.627.209-.416.209v.209.194.417.208l-.422.212v.194.222.194l-.209.418h.209v.196.221h-.209v.197.209.208z"/><path id="j" d="M114.821 83.116h.194l.225.194h.417l.083.111-.109.098.221-.209h.208l-.208-.21-.221-.208.221-.193h.208l-.208-.209v-.197h.208v-.22-.196h.213l.193-.209h.224v-.209l.403-.208.209-.406-.209-.208.209-.209h.209v.209h.208l.198-.209v-.209-.209l-.198-.193h-.208-.209v-.209h-.209v-.209l.209-.209h.209l-.209-.197v-.22h-.209-.194v.22h-.433-.193l-.213.197.213.209v.209.209-.209l-.213-.209-.208.209v-.209-.209h-.221l-.181.209v.209h-.21v.209-.209l-.225-.209h-.194v-.209h-.208v.209l-.209.209v.209.402.209.209.208.197.209l-.21.208.21.209h.209v.209l.208.196v.22.197.402.208.21-.194z"/><path id="k" d="M109.16 90.727l-.417-.405-.194-.223-.21-.209h-.208l-.209.209h-.21v-.209l-.614-.193h-.21l-.207.193v.209h-.42-.208-.194v-.209l-.21-.193h-.212v-.225h-.209l-.209.225-.207-.225v.225l-.403.193v.209.223.181l.208.223v.193h.195.207v.209.21h.209.209v.208l.212.405h.21.194.208v.418.208l-.208.194.208.224h.209.211v-.224h.207v.224l.21.193v.21l.209.207v.197h.197l.208.22.21.196v.209l.209-.209h.208l.056-.028.083-.349-.111-.237v-.207-.21l.209-.193.194-.224h.181v-.194-.208h.209v-.209-.209h-.209l.209-.405v-.208-.21-.209-.193z"/><path id="l" d="M108.367 94.191l.083-.349-.111-.237v-.207-.21l.21-.193.194-.224.208.224v.193l.209.21.209.207v.197.22.196.209h-.209l-.793-.236z"/><path id="m" d="M111.825 86.608h-.198v-.823h-.207-.21l-.193.224-.419.197v-.197-.224l-.224.224h-.193-.21l-.421.197-.207.209v.194.208.209.208.418l-.403.404h-.212-.207v-.404l.207-.221h-.207l.207-.197.212-.208v-.209l-.212-.208h-.405v-.194.194l-.219.417v.405l-.198.221v.196h-.221v.209l-.197.209h-.417v.417h.209v.194l-.404.209v-.402h-.225v.194.209.405h.225l.195.22.614.197v.209h.221l.198-.209h.219l.198.209.207.209.405.418v.196l.417-.196v-.221-.405-.209-.197l.421-.22.627-.197.193.197h.226.193.21.207l.198-.614v-.194l-.198-.209.198-.208v-.209-.404-.221h.222v-.197-.208-.209l.196-.208-.196-.194-.222.194z"/><path id="n" d="M115.25 79.094v-.196-.221l.211-.195h.181.224.194.224.198l.22-.21h.21.406l.209.21.208.195v-.195l.194-.21.225-.193v-.416h-.225v-.209l.225-.209.194-.197h-.194l-.225.197h-.194-.208l-.209.209h-.209l-.197.209-.21.208v.209l-.22.193h-.198-.224-.599-.211l-.219.21v.195l.219.417z"/><path id="o" d="M117.527 83.002h-.209-.406v-.193h-.43v-.418-.196h.22v-.221l.21.221.197-.221.209.221h.209v.196.21.208.193h-.209.209z"/><path id="p" d="M117.527 83.002h-.209-.406v-.193h-.43v-.418-.196h.22v-.221l.21.221.197-.221.209.221h.209v.196.21.208.193zm0 0h-.209.209z"/><path id="q" d="M118.891 83.407l-.419-.196h.209v-.221h-.209-.417l-.209-.196v-.208l.209-.195-.209-.208v-.224l.209-.193h.209l.208-.209v-.208h.209v.208l-.209.209.209.193h.21v-.193-.209h.21.195l.21-.208-.21-.196h-.195l.195-.209h.21.417l-.208.209h.208l-.208.196.208.417-.208.193-.419.431.21.195-.21.404h-.195l-.21.221.21.196h-.21z"/><path id="r" d="M118.264 84.23h-.209l-.209-.212-.209-.193v-.209h.209.209v.209h.209l.208.193v.212h-.208z"/><path id="s" d="M133.137 98.449l.071-.378-.071-.137.071-.237.111-.181h.181l-.057-.252.127-.154.224-.137-.069-.308h-.321-.196-.222l-.197-.208-.223-.209-.194-.193h-.209l-.197-.488-.292.292-.126.196-.627.193.043-.208-.07-.473-.182.166-.193.098-.211-.194-.416.194v.224l-.209.193v-.417l-.209-.194-.21.194h-.195l-.211.224-.209-.224h-.417l-.209-.194-.209-.207-.197-.209h-.419l-.417-.196-.222-.225-.406-.599-.194.197-.207-.197h-.419-.208l.208.197h-.208l-.199.208v.194l-.223-.402-.194-.197h-.418l.195-.208.223-.208-.223-.21h-.402l-.408-.209h-.208l-.209-.208h-.222v-.194-.208-.405h-.196-.403v.197l-.224.209h-.195v-.209l-.208-.197-.418.197-.213.209-.192.208-.642.402h-.196l-.223.209h-.193l-.419.21h-.417l-.197-.21-.418.21v-.21l-.209-.209v.419l.209.416h.209v.405l.209.194.197.225v.404.207l.221.194.196.417.222.417.197.209h.193l.141.225.182.165.181.252.122.181h.21l.225.208h.405.418l.208-.208v-.209l.069-.099.126-.11h.404.223.196l.222.209h.209.406l.109.193.127.126.055.126.321.164.208.055h.239l.124.182-.068.181.249.294-.305.122.238.404.362.015.21.194.192.153.182.165.236.099.419.083.236-.067.182-.016.056-.027.363-.126h.168l.181-.055.056-.21.126-.154.083-.041h.402.224.209l.406-.223.21-.196.418-.209.208-.208.208-.209v-.209l.211-.193h.193.209.418.209l.071.029h.167v.164h.377l.209.209.46-.236.305.378z"/><path id="t" d="M124.789 98.991l.458.332.208.208h.21l.209.196.197.21h.403.224.208.084l.532-.18h.181l-.126-.183.126-.054.027-.196.32-.04.292.04h.225.209l.402-.208.209-.21.419-.209.209-.208.197-.209v-.193l.223-.209h.196.208.417.209.209.197v.209h.209l.208.193.418-.193.419.193.083.237.138-.068.224.068.166.18.308.169v.236l-.056.362-.307.293-.292.18-.181.11-.222.056-.181.294-.07.417-.111.18-.07.238-.111.527-.237.237-.126.235-.294.059v.236l-.348.236-.056.111-.252.236-.111.181-.125.181-.682-.043-.197-.193h-.209v.193l-.419.208h-.209l-.192-.208-.419.208-.225.209h-.402-.21l-.196.212-.209.209-.209.193h-.21l-.432-.193h-.183-.22-.197l-.209-.209h-.21v-.212h-.208l-.209-.209-.194-.208-.224-.193-.194-.209v-.209-.209l-.225-.196-.192-.22v-.196h-.418v.196-.196l.209-.419h.209l.192-.416v-.402h.225v-.209-.196l-.225-.209v-.208h.225l.25-.126-.068.169.249.067-.013-.11.194-.21-.125-.39-.124-.346z"/><path id="u" d="M121.819 86.677l.223.292h.307l.055.028v-.224l-.193-.193.193-.194.21-.42.417-.209h.209.418.197v-.209h.209l.209-.208h.209l.209-.194.21-.209.192-.224.209.224.212-.224h.21v-.194h.208l.21-.208.403.208h.209l.208-.208h.627v.208l.196.194v.224.209.194l.222.208.615-.208h.209v.208h.21.417v-.208-.194-.209h.197l.209-.224v-.194l-.362-.126.362-.291v-.209l.627-.405v.209.196.209h.403l.208-.209.21-.405h-.21v-.193h.21l.307-.059.167.239.056.166h.056.249.407l.251-.279.332-.111.363.127.152.346.073.169.069.362-.069.291-.073.028h.226l-.153.236.361.251.309.083.444.347v.444l.068.307.155.141v.598l.113.151.348.475.124.402v.669l-.14.362-.766.516.166.248.363.083-.138.628v.139l.07.083-.14.598.113.169-.113.165.294.209.151.307.363.472-.155.071v.264l.155.07.154.292-.154.445-.237.165-.402-.055-.419.362-.126.223-.182.362-.224.056-.18.236-.084.263-.099.445v.181.236l-.054.169.015.22-.226.308-.067-.308h-.21-.195-.209l-.208-.208-.209-.209-.209-.193h-.198l-.221-.418-.196.194-.209.224-.627.193v-.193-.418l-.209.194h-.194l-.209-.194-.418.194v.224l-.209.193v-.417l-.197-.194-.224.194h-.193l-.21.224-.209-.224h-.418l-.197-.194-.222-.207-.196-.209h-.418l-.417-.196-.209-.225-.403-.599-.21.197-.208-.197h-.422-.209l.209.197h-.209l-.192.208v.194l-.21-.402-.209-.197h-.418l.209-.208.209-.208-.209-.21h-.418l-.407-.209h-.208l-.209-.208h-.209v-.194-.208-.405h-.208l-.293.043-.11.154v-.197-.625l.193-.21h-.193v-.194-.222-.614-.193l-.225-.418v-.209-.209l.225-.209h-.225l-.194-.209v-.197l-.209-.208-.212-.417.212-.193.209-.224v-.181-.221-.208-.197l.027-.319z"/><path id="v" d="M135.186 119.166l.419-.197h.21l.223.197.182.208h.418l.418.209.21.197h.208l.193.22v.196l.225.194.193.223v.418h-.193l-.225-.418-.193-.223-.208-.194-.419-.196-.209-.22-.418-.197-.182-.209h-.433-.208l-.211-.208z"/><path id="w" d="M127.255 53.186l.208-.196v-.209h.212.194l.224-.598-.224-.221h-.194v.221h-.212-.208v.196.195l-.209.208.209.209v.196z"/><path id="x" d="M119.406 74.195h.211v.209l.181.212.224-.212v-.209-.208l-.224-.209.418-.418v-.181l.224-.222v-.209l.194-.196h.223.194l.21-.61v-.641-.193-.209l-.21-.406v-.208l.628-.417v-.209-.39-.225l-.209-.194-.209-.222v-.21-.193l.209-.405v-.221-.405l-.209-.21v-.193-.417l.209-.208v-.42-.402-.416l.209-.406.209-.221.419-.196v.196h.196l.209-.196.193-.194h.225.417l.209-.223-.209-.418v-.194-.208l-.208-.405.208-.221.406-.197v-.209l.209-.613v-.209-.209-.417l.194-.181.225-.417v-.43l.417-.197.403-.208.209-.194v-.209-.417l.418-.224.418-.39v-.208l.196-.208-.196-.418-.221-.196.221-.209.196-.208.628-.418v-.193l.209-.418h.208l.406.194h.209v-.194-.417l.419-.196.208.196h.209v-.196l.194-.626.419.209v-.209-.402-.224h.418v-.405l.207-.402h.21l.199.195.416.208v.209l.208.42h.21.208l.198.209h.611l.223-.209h.209l.212.402.401-.193h.209v-.209l.21-.42.208-.209v-.208-.195-.196l.196-.417v-.834l.211-.194h.417l.419-.225.208-.193h.209l-.209.418.614.194h.209l.209.209.209.196v.209l-.209.221v.417.196.195.208H137l.096-.735.281-.461.444-.264.476-.097.179-.737-.04.027h-.417-.21l.21-.193v-.417l-.21-.197h.21l.208-.208v-.209-.209h-.208v-.209h-.419l-.407.209v-.417h-.416l-.209-.209-.418.418v.209l-.195.209-.208-.417v-.209l.208-.209v-.197-.417h-.208l-.422.417v.197l-.418.209v.626.209l-.209-.209v-.209l-.194-.209v-.209-.209-.197h-.208v.197.209l-.21.417-.208.418-.209.405v-.197-.208-.418l.417-.209v-.209l.21-.406.208-.208-.208-.209-.627.417-.21-.208-.196.208v.197l.406.209-.615.209-.209-.209-.209.209v.417h-.209l.209.209-.418.405-.208-.405-.196.208v.197.209l-.21.208-.21-.208h-.208v.208l-.21-.208h-.208l-.194.208v.193h-.209l-.209.225v.402l.209.196v.429l-.209-.221-.208-.209h-.21l-.197.429-.221-.429-.197.209v.417l.197.417v.195l-.197-.195-.208-.417v.417l-.211.402-.208-.208v-.39l-.21.196v.611h-.193-.224l-.194.196.194.224-.194.209-.212.193v.209l.212.196-.212.221h-.627v-.221l-.208.221v.196.417.194l-.194.417v-.417-.389-.221l-.209.221h-.21-.208l-.208.196h.208l.208.194v.224l-.208-.224-.208.224-.21-.224h-.21v.417l-.196.224.616-.224.208.224v.193h-.418-.21l-.196.208v.209h.406v.405h-.21-.196l-.209.209-.209.208-.419-.208-.209.208v.208.197h-.192l-.213.194.213.224-.213.208h-.417l.208.209.209.209.213-.209v.402h-.422-.208v.208l.208.197-.208.208h-.21l-.209.222-.209.195.209.222v.181l-.209.209-.193-.209v-.181l-.225.389v.209h.225v.417l-.225.208h-.194v.405l-.208.209h-.209v.197h.209v.221.208l-.209.197-.407-.197v-.208l-.208-.221-.209.221-.209.208h-.221-.197v.405l-.224.194-.183.418h-.209-.208v.223.389l-.208-.196-.21.196-.209.221-.208-.221-.194.221-.225.197h-.194v.417l-.208-.208h-.209l.209.208v.208h-.209l-.209-.208-.197.208h-.21-.22-.198v.209l.198.402h-.198-.224l-.417-.209h-.182l-.211.209.211.212v.208h-.211-.415l-.222.417v-.417h-.197l-.208.209-.194-.209h-.226-.192v.209.209l.192.193h.226v.21h-.226l-.192.209h-.434v.196l.224.221v.196l-.418-.196v.196.21l.194.402h.434v.222h-.21l-.418-.222v.222.194l.194.405.224.209-.224.209-.194-.209-.209.209v.209l.403.209h-.194-.209v.208l.209.209.194.197h.434l.418-.197-.418.406-.21.193-.224.224.434.418h-.21-.224l-.194.194-.209-.194h-.196l-.222.39v.22l-.196.405.196.222.418-.627h.403v.196.431h-.194v.404l-.209.194v-.194l-.196.194v.209.417.212l.405.401.628.209-.434.405.434.22.192-.22v.417h.628.419l.415-.197v.197l.393-.197.223-.22.194-.405.224-.209.628-.208v-.193l.197-.212h.418v.212l.208.193.419-.193v-.42l.402-.417v-.418l-.208-.181.417-.431.21-.196.208-.22h.208v.416l-.208.209h-.208v.403h.208l.6.418-.377.417z"/><path id="y" d="M133.652 59.795v-.43l-.209-.197-.192-.402v-.209-.417-.418l.192-.197-.192-.208v-.208l-.208-.209v-.209-.196-.209h-.419l.208-.208v-.193-.224-.193-.224l-.208-.194v-.417h-.209l-.42-.196-.404-.221h-.197l-.22-.196h-.21v-.402l-.405-.209-.418-.224h-.419v.224.402.209l-.418-.209-.192.626v.196h-.211l-.209-.196-.418.196v.417.194h-.196l-.403-.194h-.225l-.207.418v.193l-.628.418-.196.208-.21.209.21.196.196.418-.196.208v.208l-.418.39-.419.224v.417.209l-.208.194-.403.208-.418.197v.43l-.21.417-.208.181v.417.209.209l-.212.613v.209l-.403.197-.21.221.21.405v.208.194l.209.418-.209.223h-.419-.208l-.209.194-.21.196h-.195v-.196l-.419.196-.209.221-.209.406v.416.402.42l-.21.208v.417.193l.21.21v.405.221l-.21.405v.193.21l.21.222.209.194v.225.39.209l-.61.417v.208l.191.406v.209.193.641l-.191.61h-.211-.208l-.209.196v.209l-.209.222v.181l-.421.418.209.209v.208.209l-.209.212-.193-.212v-.209h-.21.011v.42.193.417.209.196.22.197h.209v.418l.183-.209.224.209-.224.418v.193.208.197.43.197l.224.208-.224.209v.405l.224.209h.197v.626l.43.193v.209.208h-.209v.209l-.221.197v.208.21l.221.193v.224l.209.193v.21.418l-.209.208.209.197.209-.197.208.197.616-.197.208.197h.194.225v-.197-.416-.419l.193-.193h.209.209l.21-.224h-.21l.21-.193.417-.21.405.21v.193h.209.419.209v-.403-.208l.405-.613v-.402l.21-.209.21-.224v-.193h-.21l.21-.42.208-.193-.208-.209v-.208-.197l.208-.22v-.209l.208-.405v-.193-.224l-.208-.403.418-.209-.626-.197.208-.22.418.22h.209l.402-.416v-.209-.209h.21.209l.208.209.212-.417.194-.193.417-.212-.417-.209v-.208l.224-.209h.193l.418-.599-.208-.222v-.405l-.403.196v-.196-.22l-.224-.196-.194-.194v-.209-.209l-.42.209-.209-.209-.21-.224V70.9l-.208-.197v-.209l-.194-.208h.194l.208-.209v-.417-.209-.405h.21l-.21-.194.21-.222v-.402l.209-.21v-.417h-.627v-.405l.208-.21.419.21.208-.21h.212l.194-.193h.224l.403-.209-.21-.209.418-.42-.208-.209h.419l.208-.402.197.209.418-.209-.197-.208.197-.208h.21l.417-.209v-.418-.196-.194l.209-.417h.194l.208-.418.209-.208-.209-.197v-.208-.418-.417l.209-.197v-.208-.209l.209-.209h.42v-.417-.403-.195h.196l.208.195.418-.417.209.222h.209.209l.196.195.193-.195z"/><path id="z" d="M136.985 52.781h-.208v-.208-.195-.196-.417l.208-.221v-.209l-.208-.196-.209-.209h-.209l-.612-.194.208-.418h-.208l-.213.193-.416.225h-.42l-.194.194v.834l-.208.417v.196.195.208l-.21.209-.208.42v.209h-.209l-.406.193-.209-.402h-.209l-.209.209h-.626l-.196-.209h-.21-.21l-.208-.42v-.209l-.418-.208-.194-.195h-.209l-.209.402v.405l.418.224.402.209v.402h.21l.208.196h.21l.406.221.417.196h.209v.417l.209.194v.224.193.224.193l-.209.208h.418v.209.196.209l.209.209v.208l.196.208-.196.197v.418.417.209l.196.402.21.197v.43h.209l.208.195h.418v.222l.194.181v.209.209.417.208l.209.197v.209h-.209-.194-.208v.209l-.418.626v.197l-.209.402-.21.224-.405.417v.194.196l-.418.221v.197-.197l-.209.197-.209.209v.208.417l-.404.194-.21-.194h-.21v.402l-.418.42v.417.193l.21.21v.405l-.21.221v.196l.418.21v.193.432.599.418l-.418.209v.417.209l.418.598h.616l.208.224h.418.209l.209.418v.39l.209.22.196.196h.627.21l.208-.416.194-.196.209.416.211-.22.207-.196.422-.194.612-.209h.209.209v-.209-.224l.208-.193.208.416.199-.224.417-.193.21-.406.208.197h.43.181l.21-.197.417-.834.213-.209.209-.39.209-.225.193-.194.226-.432.192-.598v.196h.209l.21-.196-.21-.221.21-.196v-.419l.209-.193.208-.209v-.209l.197-.42.419-.209.22-.402-.22-.416-.198-.209-.626-.197-.628-.221-.192-.196-.226-.194h-.193l-.209-.417h.209.193l.226-.224v-.194-.208l-.226-.197v-.208h-.402v-.221-.197l-.422-.209.422-.209-.209-.197v-.208l-.213.208-.208-.208v-.209-.209-.209l-.209-.209v-.181l.209-.222-.209-.417.209-.208v-.197-.208l-.209-.402-.21-.417-.181-.224-.43-.194v-.197l-.208-.208-.21-.417v-.405-.209-.402l.21-.224v-.193-.418l-.419-.417-.407-.196v-.221l-.208-.196-.208-.209-.209-.193v-.209l.209-.224v-.196l.208-.209z"/><path id="AA" d="M134.658 113.74h.418.418.418.403l.212.194.418-.194v-.222h.194l.209-.196.209.196v-.196h.209l.209.196h.209v.222l.418-.222h.197.193.433l.21-.196h.402.418l.212-.209-.212-.209v-.208h.212.194v-.194l.265-.015.082-.362h.225l.055-.042.209-.21h.208.209.211v.21h.208.406.626v-.21-.416h-.209l-.209-.194v-.208h-.416l-.198.208v-.418-.207l.198-.198h.208v-.22l.208-.197-.208-.208v-.401h.208v-.417-.406h.418.419l.192-.208-.22-.544v-.07l-.809-.291-.236-.068h-.142-.221l-.446.068-.197-.127h-.417-.194l-.208-.208-.84.208-.209.197-.402.417-.417.418-.419.208-.197.18h-.418l-.418-.18h-.209-.418-.194-.418-.421l-.194-.208h-.418-.418-.418l-.209-.209v-.209-.417h-.405.209l-.431.417-.197.209h-.221l.221.417v.406l.197.193v.224h.222.209l.196.192-.196.209v.208l-.431.197v.22.405h-.197v.418.194.416l.419.21.209.209.196.21.209.194.195.208v.209.209l-.195.196v.222z"/><path id="AB" d="M134.323 107.658l-.237-.445-.182-.098v-.208l.21-.193-.21-.225-.417.225-.196.193-.417-.193-.223-.225h-.195-.419-.195v-.192-.209l.195-.209v-.196l-.195-.209-.208-.208h-.208-.209v-.418l-.213-.193v-.212-.417-.208h-.209-.194l.194-.402v.012l.224-.416.209-.21.21-.209.207-.193.211-.224v-.18h.197l.208-.221.209-.209v-.614l.193-.208v-.403l.226-.208.192-.213h.226l.18-.208.221-.193.209-.209v-.209l-.347-.499.375-.086h.587l.375.086.295.137.238.139.363.07.221-.279.362-.067h.236l.587.276.222-.139.445-.373.143.026h.345l.392-.026.069-.142.084-.235.6-.209.362.154.446.125.208.208.627.418-.093.708.499.11.418.197v.418l.21.209.209.209.402.195v.209l.209.418v.208.418h-.209v.18.221l.209.196v.208.416.404l.225.335.417-.111.237.138.141.07.138-.07.167-.222.445.084.141.071.154.067.278.377.154-.322v.822l-.211.418h-.207v.208l-.209.209h-.194v-.417l-.224-.21-.21.21v.208l-.193.405v.209h.193.21l-.21.209-.193.192v.225.401l.193.224-.193.403v.196l-.029.082-.806-.444h-.226l-.197-.055-.181-.016-.446.071-.209-.139h-.374-.226l-.235-.224-.809.224-.209.084-.307.499-.514.446-.462.153-.141.223-.445.068-.363-.221h-.22-.447-.224-.363-.446l-.306-.153h-.293-.445-.363l-.237-.139-.071-.307-.066-.278-.072-.07v-.084z"/><path id="AC" d="M143.637 112.069l.209.194v.209.196h.402l.434.417h.194l.416.208h.211v.418l-.211.209h-.207-.403-.434-.193l-.418.181-.211.224-.206.193-.423.224-.194.193v.209l-.417.208-.21.197-.615.22-.209.197-.208-.197.417-.417h.197v-.208-.209l-.197.209h-.209-.416l-.21-.209.21-.193v-.224l.208-.193v-.405-.209h.208v-.21l.209-.208v-.208-.207h-.209l-.208-.21v-.196l.208-.209v-.194h.209.197l.209-.223h.209.21.209v.223h.208.403.631z"/><path id="AD" d="M134.741 113.684h.434.418.418.402l.209.208.28-.224-.071-.221.154-.082.446-.142.225.142.153-.142h.067l.182.252h.224v.209l.418-.209h.196.194.419l.224-.209h.402.419l-.013-.196-.153-.22v-.209l.373-.154.298.154.122.209h.196v.22.196l-.196.209.113.193-.307.072.072.152-.1.405-.198.209v.208l-.207.208h-.209l-.21-.208h-.626l-.419-.208h-.39-.209l.209.208-.209.208h-.433l-.194-.208-.208-.208-.21.208v.208.195h-.209-.615-.209v.208l.209.208.197.209.418.209.419.196h.208l-.208.221-.419.181h-.418v-.402h-.197-.209l.209.221.197.405h.221v.208l-.627-.208-.209-.224-.193-.181-.224-.221v.221.181l.224.224.402.208v.194l-.402-.194-.418-.208-.225-.405-.193-.417-.225-.209v-.417h-.209l-.406.208-.193.209.193.209v.196.221.405l.21.208.405.194.225.417.612.613h.224l-.224.418h-.194v-.209-.209l-.225-.209h-.418-.209l-.196.209.196.418h.209v.208l-.209.209-.196.197.196.208h.434l.418.208.418.209h.193l.209.402.406.196h.221v.418.417.208.209l-.418-.209-.209-.404h-.209l-.417.404-.194.209v.193l.194.225h.224l.402-.225v.421l-.402.208-.418.209h-.225l-.193-.209v-.208l-.225-.196h-.209v.404l.209.209.225.401h.193v.418l.225.209v.209l.418.197v.207h-.836-.225v-.404h-.209v-.418l-.196.209v.209.197.415h-.21l-.193-.415h-.225l-.192-.197v-.209-.209-.209l-.226-.209-.18.209v.209l.18.209-.18.209h-.221-.209l-.21-.418v-.209-.209l-.209-.193.209-.208v-.417-.196l-.209-.225-.196-.193h-.209l-.194-.417v-.196l.194-.221h.209.196.209.21l.209-.196h.221.18.226.192v.196l.418-.196.21.196v.221l.196.196.209-.196h.225l.193-.221-.418-.196-.209-.222-.196-.196h-.403v.196l-.225-.196-.192-.193h-.406-.221-.209l-.419.193v-.193h-.196-.209l-.194.193-.418-.193h-.225v-.209-.209l-.193-.208.193-.208h.225.418v-.197-.209h-.226-.192-.225l-.193.209-.225-.209v-.417-.209h-.405l-.209-.209-.194-.404h.194v-.192-.225l.209-.194h.226l.404-.208-.225-.224h.225l.193-.181.225-.417.192-.209v-.209-.208l-.192-.208-.225-.195.225-.208h.192v-.208l.226.208h.403.196l.419-.208h.43l.18-.209.226-.209.192.209h.225.193l.21-.209.196-.196.434-.208h-.434z"/><path id="AE" d="M131.481 115.117l.208.208v.208.209l-.208.209-.21.417-.207.181h-.211l.211.224-.407.208h-.21l-.209.194v.225.192h-.208l-.209-.417v-.194h-.419l-.195-.208h-.419v-.405h.209v-.221h-.209v-.196l.209-.209-.209-.209v-.208-.208l.209-.195v-.416-.209-.209-.196-.208-.209h.21v-.209-.196l-.21-.22v-.405-.209-.194-.224l.21-.193h.195l.419-.224.209.224.208.193h.419v.224l.196.403v.208l-.196.197v.22.405l.196.209v.208.405h.211v.417l.207.208.21.195z"/><path id="AF" d="M134.769 113.501l.209-.208v-.208-.207l-.209-.21-.194-.196-.209-.209-.197-.194-.433-.223v-.417-.194-.416h.209v-.406-.209l.421-.208v-.209l.209-.193-.209-.207h-.197-.224v-.211l-.209-.209v-.404l-.209-.417h.209l.209-.208.421-.417-.197-.406h-.224v-.208l.224-.193-.224-.225-.418.225-.194.193-.417-.193-.21-.225h-.209-.417-.182v-.192-.209l.182-.209v-.196l-.182-.209-.224-.208h-.193-.225v-.418l-.208-.193v-.212-.417-.208h-.209-.195l.195-.402-.292-.071-.293-.11h-.476v.181l-.304.055-.058.055-.238-.236-.474.126-.291.22-.181.06h-.348l-.181.122-.24.239-.236.236-.123.055-.406-.114h-.194-.213-.208l-.195-.208h-.222v-.208h-.21l-.209-.209-.194-.193-.209-.211-.209-.193v-.223-.208l-.209-.197-.209-.22-.071-.168-.472-.127-.308.24-.236-.059-.183.059-.18.055h-.209-.851l-.167.304v.058l-.251-.058-.293.113-.055.181-.236-.181h-.208-.211l-.236-.291h-.182l-.418.122-.059.237.059.168.068.18v.183l-.068.055-.294.181.294.22v.308l.222.082.196-.208v.208.208.209l-.196.212h-.209l-.209.193.209.208v.21.417l.209.196v.209l.196.209.209-.418.209-.196.211-.417v-.21h.208l.208.21.209.208.194.209.209.405-.209.401v.225.401h.417v.224h.21l.198.182.222.221h-.63l.21.196.198.208.222.417h.195l.418.404v.209l.418.211.418-.211h.209l.405.418.418.402.209.417h.403l.21.406.417.22h.208l.213.39h.194l.208.224h.419.209l.224.193v.223l.182.194h.221v.405h.406v.21h.209.21v-.406-.209-.194-.223l.207-.193h.194l.419-.224.224.224.192.193h.422v.223l.195.403v.196l-.195.21v.207.416l.195.21v.209.405h.209v.417l.208.193.225-.193h.193v-.224l.224.224h.404.195l.419-.224h.417l.194-.193.209-.224.209.224h.224.197l.209-.224.194-.181.417-.209-.417-.21z"/><path id="AG" d="M98.316 108.201l.111-.181.154-.055.253-.055h.152l.195.264-.014.306-.18.182h-.141l-.193-.044-.237-.082-.098-.335z"/><path id="AH" d="M113.331 99.937l.265.208v.319l-.056.141-.209.041h-.154l-.125-.182v-.346l.221-.138.058-.043z"/><path id="AI" d="M65.889 220.848c0 3.433-2.788 6.216-6.228 6.216h-26.66c-3.44 0-6.228-2.783-6.228-6.216v-48.187c0-3.433 2.788-6.216 6.228-6.216h26.66c3.44 0 6.228 2.783 6.228 6.216v48.187z"/><path id="AJ" d="M65.889 220.848c0 3.433-2.788 6.217-6.228 6.217h-26.66c-3.44 0-6.228-2.784-6.228-6.217v-44.59c0-3.434 2.788-6.217 6.228-6.217h26.66c3.44 0 6.228 2.783 6.228 6.217v44.59z"/><path id="AK" d="M111.688 32.894c2.05 0 3.711-.609 3.711-1.36s-1.661-1.36-3.711-1.36-3.711.609-3.711 1.36 1.662 1.36 3.711 1.36z"/></defs></svg>