<?xml version="1.0" encoding="utf-8"?>
<!-- Generator: Adobe Illustrator 16.0.0, SVG Export Plug-In . SVG Version: 6.00 Build 0)  -->
<!DOCTYPE svg PUBLIC "-//W3C//DTD SVG 1.1//EN" "http://www.w3.org/Graphics/SVG/1.1/DTD/svg11.dtd">
<svg version="1.1" id="Layer_1" xmlns="http://www.w3.org/2000/svg" xmlns:xlink="http://www.w3.org/1999/xlink" x="0px" y="0px"
	 width="800px" height="524.138px" viewBox="0 0 800 524.138" enable-background="new 0 0 800 524.138" xml:space="preserve">
<path fill="#41479B" d="M800,514.137c0,5.522-4.479,10-10,10H11.983c-5.521,0-10-4.478-10-10V10c0-5.523,4.479-10,10-10H790
	c5.521,0,10,4.477,10,10V514.137z"/>
<path fill="#FF4B55" d="M617.928,437.694c-0.562,0-1.123-0.178-1.604-0.515L600,425.516l-16.327,11.664
	c-0.479,0.336-1.044,0.515-1.604,0.515c-0.572,0-1.138-0.179-1.622-0.526c-0.956-0.7-1.367-1.938-1.011-3.07l6.055-19.128
	l-16.137-11.904c-0.956-0.714-1.354-1.939-0.988-3.07c0.37-1.132,1.414-1.9,2.605-1.913l20.063-0.162l6.348-19.033
	c0.378-1.117,1.434-1.886,2.619-1.886c1.187,0,2.242,0.769,2.619,1.886l6.348,19.033l20.063,0.162
	c1.192,0.015,2.236,0.781,2.606,1.913c0.362,1.131-0.034,2.356-0.989,3.07l-16.136,11.904l6.055,19.128
	c0.356,1.133-0.053,2.37-1.011,3.07C619.067,437.516,618.493,437.694,617.928,437.694z"/>
<path fill="#F5F5F5" d="M600,379.758l6.97,20.903l22.034,0.17l-17.729,13.089l6.647,21.008L600,422.117l-17.929,12.813l6.646-21.008
	l-17.729-13.089l22.034-0.17L600,379.758 M600,374.24c-2.375,0-4.483,1.519-5.234,3.771l-5.725,17.162l-18.092,0.143
	c-2.373,0.018-4.471,1.553-5.203,3.813s0.062,4.732,1.971,6.146l14.553,10.746l-5.456,17.247c-0.716,2.267,0.097,4.733,2.018,6.131
	c0.969,0.699,2.104,1.053,3.243,1.053c1.124,0,2.249-0.344,3.208-1.029l14.72-10.521l14.72,10.521
	c0.961,0.686,2.085,1.029,3.21,1.029c1.137,0,2.274-0.354,3.243-1.053c1.921-1.397,2.731-3.864,2.018-6.131l-5.457-17.247
	l14.554-10.746c1.911-1.411,2.703-3.886,1.971-6.146c-0.734-2.258-2.83-3.795-5.203-3.813l-18.091-0.143l-5.726-17.162
	C604.483,375.76,602.371,374.24,600,374.24L600,374.24z"/>
<path fill="#FF4B55" d="M617.928,215.319c-0.565,0-1.123-0.179-1.604-0.515L600,203.129l-16.327,11.679
	c-0.479,0.336-1.044,0.515-1.604,0.515c-0.564,0-1.138-0.179-1.622-0.527c-0.956-0.699-1.367-1.938-1.011-3.07l6.055-19.128
	l-16.137-11.92c-0.956-0.714-1.354-1.953-0.988-3.07c0.37-1.132,1.42-1.898,2.605-1.913l20.063-0.146l6.348-19.032
	c0.378-1.117,1.434-1.886,2.619-1.886c1.187,0,2.242,0.767,2.619,1.886l6.348,19.032l20.063,0.146
	c1.188,0.017,2.236,0.781,2.606,1.913c0.362,1.117-0.034,2.356-0.989,3.07l-16.136,11.92l6.055,19.128
	c0.356,1.132-0.053,2.371-1.011,3.07C619.067,215.143,618.493,215.319,617.928,215.319z"/>
<path fill="#F5F5F5" d="M600,157.381l6.97,20.903l22.034,0.17l-17.729,13.089l6.647,21.01L600,199.738l-17.929,12.813l6.646-21.01
	l-17.729-13.089l22.034-0.17L600,157.381 M600,151.863c-2.375,0-4.483,1.52-5.234,3.771l-5.725,17.162l-18.092,0.141
	c-2.373,0.02-4.471,1.556-5.203,3.813c-0.732,2.26,0.062,4.731,1.971,6.144l14.553,10.747l-5.456,17.249
	c-0.716,2.266,0.097,4.732,2.018,6.128c0.969,0.701,2.104,1.055,3.243,1.055c1.124,0,2.249-0.346,3.208-1.029l14.72-10.521
	l14.72,10.521c0.961,0.685,2.085,1.029,3.21,1.029c1.137,0,2.274-0.354,3.243-1.055c1.921-1.396,2.731-3.862,2.018-6.128
	l-5.457-17.249l14.554-10.747c1.911-1.41,2.703-3.884,1.971-6.144c-0.734-2.259-2.83-3.795-5.203-3.813l-18.091-0.141l-5.726-17.162
	C604.483,153.383,602.371,151.863,600,151.863L600,151.863z"/>
<path fill="#FF4B55" d="M714.48,284.284c-0.565,0-1.124-0.177-1.604-0.513l-16.321-11.68l-16.326,11.68
	c-0.479,0.336-1.044,0.513-1.604,0.513c-0.563,0-1.138-0.177-1.621-0.526c-0.955-0.7-1.366-1.938-1.012-3.069l6.057-19.13
	l-16.138-11.92c-0.956-0.714-1.354-1.953-0.987-3.07c0.369-1.131,1.42-1.898,2.604-1.91l20.063-0.148l6.346-19.033
	c0.378-1.117,1.435-1.886,2.62-1.886c1.187,0,2.244,0.767,2.62,1.886l6.346,19.033l20.064,0.148c1.186,0.014,2.233,0.779,2.604,1.91
	c0.364,1.117-0.034,2.356-0.988,3.07l-16.137,11.92l6.055,19.13c0.356,1.132-0.053,2.369-1.011,3.069
	C715.616,284.109,715.047,284.284,714.48,284.284z"/>
<path fill="#F5F5F5" d="M696.551,226.346l6.971,20.903l22.034,0.17l-17.729,13.089l6.647,21.011l-17.927-12.813l-17.929,12.813
	l6.646-21.009l-17.728-13.089l22.034-0.171L696.551,226.346 M696.551,220.829c-2.373,0-4.482,1.519-5.234,3.771l-5.723,17.162
	l-18.091,0.143c-2.374,0.018-4.473,1.553-5.203,3.813c-0.734,2.26,0.06,4.732,1.969,6.146l14.553,10.745l-5.456,17.249
	c-0.716,2.266,0.099,4.732,2.02,6.13c0.967,0.701,2.104,1.053,3.242,1.053c1.122,0,2.247-0.344,3.209-1.029l14.721-10.521
	l14.719,10.521c0.961,0.687,2.084,1.029,3.207,1.029c1.138,0,2.277-0.352,3.244-1.053c1.92-1.397,2.73-3.864,2.017-6.13
	l-5.456-17.249l14.556-10.745c1.908-1.411,2.702-3.886,1.969-6.146c-0.734-2.26-2.83-3.795-5.203-3.813l-18.091-0.143l-5.726-17.162
	C701.032,222.347,698.926,220.829,696.551,220.829L696.551,220.829z"/>
<path fill="#FF4B55" d="M521.375,311.87c-0.564,0-1.122-0.177-1.604-0.513l-16.324-11.68l-16.326,11.68
	c-0.479,0.336-1.044,0.513-1.604,0.513c-0.565,0-1.137-0.177-1.621-0.526c-0.957-0.698-1.367-1.938-1.012-3.068l6.055-19.128
	l-16.136-11.923c-0.956-0.714-1.354-1.953-0.989-3.068c0.371-1.133,1.421-1.9,2.606-1.912l20.063-0.148l6.345-19.033
	c0.379-1.115,1.437-1.886,2.621-1.886c1.188,0,2.243,0.769,2.62,1.886l6.345,19.033l20.064,0.148
	c1.186,0.014,2.236,0.779,2.605,1.912c0.363,1.115-0.033,2.354-0.988,3.068l-16.137,11.923l6.056,19.128
	c0.354,1.131-0.054,2.37-1.011,3.068C522.516,311.695,521.944,311.87,521.375,311.87z"/>
<path fill="#F5F5F5" d="M503.448,253.932l6.972,20.903l22.033,0.17l-17.727,13.09l6.646,21.011l-17.927-12.813l-17.927,12.813
	l6.646-21.011l-17.727-13.09l22.034-0.17L503.448,253.932 M503.448,248.415c-2.374,0-4.481,1.519-5.232,3.771l-5.726,17.162
	l-18.091,0.143c-2.373,0.018-4.47,1.553-5.203,3.813c-0.732,2.26,0.062,4.732,1.969,6.146l14.556,10.747l-5.457,17.249
	c-0.715,2.264,0.098,4.73,2.018,6.128c0.967,0.701,2.104,1.053,3.244,1.053c1.123,0,2.248-0.344,3.209-1.029l14.719-10.521
	l14.721,10.521c0.961,0.687,2.084,1.029,3.208,1.029c1.138,0,2.274-0.352,3.241-1.053c1.923-1.397,2.733-3.864,2.02-6.128
	l-5.456-17.249l14.553-10.747c1.911-1.411,2.703-3.886,1.969-6.146c-0.732-2.26-2.83-3.795-5.202-3.813l-18.092-0.143l-5.723-17.162
	C507.931,249.933,505.822,248.415,503.448,248.415L503.448,248.415z"/>
<g>
	<path fill="#41479B" d="M396.323,262.894H8.901c-3.818,0-6.918-3.099-6.918-6.919V6.919c0-3.82,3.1-6.918,6.918-6.918h387.422
		c3.82,0,6.919,3.098,6.919,6.918v249.057C403.24,259.796,400.143,262.894,396.323,262.894z"/>
	<path fill="#F5F5F5" d="M403.24,6.919c0-3.82-3.098-6.918-6.918-6.918h-30.953L237.203,83.972V0.001h-69.185v83.972L39.853,0H8.901
		C5.082,0,1.983,3.097,1.983,6.918v17.894l109.961,72.043H1.983v69.185h109.961L1.983,238.083v17.893c0,3.82,3.1,6.919,6.918,6.919
		h30.953l128.167-83.972v83.972h69.185v-83.972l128.166,83.972h30.953c3.82,0,6.918-3.099,6.918-6.919v-17.893l-109.959-72.045
		H403.24V96.856H293.28L403.24,24.812L403.24,6.919L403.24,6.919z"/>
	<g>
		<polygon fill="#FF4B55" points="403.24,110.694 223.365,110.694 223.365,0 181.856,0 181.856,110.694 1.983,110.694 
			1.983,152.202 181.856,152.202 181.856,262.894 223.365,262.894 223.365,152.202 403.24,152.202 		"/>
		<path fill="#FF4B55" d="M142.225,166.038L2.178,256.946c0.49,3.34,3.245,5.946,6.722,5.946h9.529l149.21-96.854H142.225
			L142.225,166.038z"/>
		<path fill="#FF4B55" d="M273.449,166.038h-25.414l148.99,96.713c3.475-0.37,6.214-3.205,6.214-6.776v-5.688L273.449,166.038z"/>
		<path fill="#FF4B55" d="M1.983,14.555l126.787,82.3h25.414L6.013,0.675c-2.367,1.1-4.031,3.463-4.031,6.244L1.983,14.555
			L1.983,14.555z"/>
		<path fill="#FF4B55" d="M262.616,96.856L403,5.728c-0.585-3.229-3.279-5.728-6.68-5.728h-9.912L237.203,96.856H262.616z"/>
	</g>
</g>
</svg>
