<svg width="210" height="211" viewBox="0 0 210 211" fill="none" xmlns="http://www.w3.org/2000/svg">
<ellipse cx="105" cy="105.055" rx="105" ry="105.055" fill="#3D79CF"/>
<path d="M67.8 123.419L175.928 124.354C182.772 124.413 182.772 124.413 197.083 112.128L55.4918 110.904C55.4324 117.778 60.9387 123.377 67.8 123.419Z" fill="#2F4798"/>
<path d="M176.143 99.5387L176.384 99.5408L167.302 105.666L159.629 110L151.792 105.532L151.828 99.3285L141.923 99.2429L141.87 105.429L126.359 105.295L126.413 99.1089L119.156 99.0461L119.102 105.233L111.13 108.395L103.557 105.098L103.611 98.9118L68.0153 98.604C61.1543 98.5275 55.5347 104.047 55.4926 110.904L197.066 112.145C183.004 99.6152 183.004 99.6152 176.143 99.5387Z" fill="#5BC5F2"/>
<path d="M54.1218 118.351L126.121 118.99C126.912 118.997 127.571 118.35 127.595 117.542C127.602 116.752 126.954 116.093 126.146 116.069L54.1985 115.447C54.2416 116.427 54.2333 117.389 54.1218 118.351Z" fill="#5BC5F2"/>
<path d="M55.1683 148.401C74.8748 148.572 91.0052 132.728 91.1754 113.034C91.3457 93.3405 75.4916 77.2204 55.7851 77.05C36.0786 76.8797 19.9483 92.7233 19.778 112.417C19.6078 132.111 35.4448 148.214 55.1683 148.401ZM40.5522 102.474C46.1237 102.522 50.6242 107.098 50.576 112.666C50.5279 118.234 45.949 122.732 40.3775 122.683C34.806 122.635 30.3055 118.059 30.3537 112.491C30.4018 106.923 34.9807 102.426 40.5522 102.474Z" fill="#C97D17"/>
<path d="M30.3686 110.704C30.4167 105.136 34.9956 100.639 40.5671 100.687C46.1386 100.735 50.639 105.311 50.5909 110.879L90.7949 111.227C88.5896 93.7981 73.8314 80.2138 55.7587 80.0404C37.6859 79.867 22.6952 93.1941 20.2059 110.599L30.3686 110.704Z" fill="#F99B1D"/>
<path d="M50.5502 115.691C50.502 121.259 45.9231 125.757 40.3516 125.708C34.7801 125.66 30.2796 121.084 30.3278 115.516C30.3349 114.691 30.3622 111.529 30.3694 110.705L20.1894 110.617C20.0794 111.406 19.952 112.213 19.8935 113.02C20.9882 131.608 36.2859 146.434 55.184 146.615C74.0995 146.778 89.6512 132.218 91.0327 113.652C90.9881 112.844 90.8747 112.035 90.7784 111.244L50.5744 110.896C50.5846 111.704 50.5573 114.866 50.5502 115.691Z" fill="#F9B71D"/>
<path d="M158.666 117.999C158.681 116.35 160.051 115.004 161.702 115.018L174.564 115.129C176.215 115.144 177.562 116.513 177.548 118.163C177.533 119.812 176.163 121.158 174.512 121.144L161.65 121.033C159.982 121.001 158.652 119.649 158.666 117.999Z" fill="#5BC5F2"/>
<path d="M134.317 117.789C134.332 116.139 135.702 114.794 137.353 114.808L150.198 114.902C151.849 114.916 153.196 116.285 153.181 117.935C153.167 119.585 151.797 120.931 150.146 120.916L137.284 120.805C135.615 120.808 134.286 119.456 134.317 117.789Z" fill="#5BC5F2"/>
<path d="M135.78 39.6311L122.329 39.515L121.706 111.504L135.157 111.621L135.78 39.6311Z" fill="#994BBE"/>
<path d="M135.782 39.6318L128.901 39.5724L128.278 111.562L135.159 111.621L135.782 39.6318Z" fill="#8739AC"/>
<path d="M175.979 57.9778L162.528 57.8616L162.061 111.854L175.512 111.97L175.979 57.9778Z" fill="#CD3F53"/>
<path d="M175.981 57.9779L169.327 57.9204L168.859 111.912L175.513 111.97L175.981 57.9779Z" fill="#B5273B"/>
<path d="M155.646 75.8005L142.194 75.6844L141.883 111.68L155.334 111.796L155.646 75.8005Z" fill="#B27600"/>
<path d="M155.649 75.8006L148.804 75.7415L148.493 111.737L155.337 111.796L155.649 75.8006Z" fill="#955900"/>
<path d="M115.292 75.452L101.84 75.3359L101.529 111.331L114.98 111.447L115.292 75.452Z" fill="#95911D"/>
<path d="M115.294 75.4515L108.683 75.3944L108.371 111.39L114.983 111.447L115.294 75.4515Z" fill="#837F0B"/>
</svg>
