<svg width="130" height="131" viewBox="0 0 130 131" fill="none" xmlns="http://www.w3.org/2000/svg">
<path d="M130 65.1024C130 101.02 100.899 130.137 65 130.137C29.1015 130.137 0 101.02 0 65.1024C0 29.1851 29.1015 0.0682983 65 0.0682983C100.899 0.0682983 130 29.1851 130 65.1024Z" fill="#3D79CF"/>
<path d="M118.726 35H49.4874L61.7965 57.2611H106.417L118.726 35Z" fill="#CCDC31"/>
<path d="M27.9465 57.2611L14.0988 35H44.1022L56.4113 57.2611H27.9465Z" fill="#A7D2F2"/>
<path d="M103.34 62.6345H64.8738L84.1067 94.8748L103.34 62.6345Z" fill="#174195"/>
<path d="M58.7193 62.6345H31.0238L66.4124 124.045L80.2602 98.7129L58.7193 62.6345Z" fill="#CCDC31"/>
</svg>
