<svg width="128" height="69" viewBox="0 0 128 69" fill="none" xmlns="http://www.w3.org/2000/svg">
<path fill-rule="evenodd" clip-rule="evenodd" d="M40.687 34.4576V34.4573H39.881V34.4576H29V41.6358V42.593V61.2576H59.6286V42.593V41.6358V34.4576H40.687ZM39.881 35.2458H29.6381V41.6358H39.881V35.2458ZM40.687 41.6358V35.2458H58.9905V41.6358H40.687ZM58.9905 60.4694V42.593H29.6381V60.4694H58.9905Z" fill="white"/>
<path fill-rule="evenodd" clip-rule="evenodd" d="M66.6812 0.788235H56.4384V7.17857H66.6812V0.788235ZM66.6812 0H67.4873H86.4289V7.17857V8.13571V26.8H55.8003V8.13571V7.17857V0H66.6812ZM67.4873 0.788235V7.17857H85.7908V0.788235H67.4873ZM85.7908 26.0118V8.13571H56.4384V26.0118H85.7908Z" fill="white"/>
<path fill-rule="evenodd" clip-rule="evenodd" d="M77.0583 42.1146V42.1143H76.2523V42.1146H65.3718V49.2928H65.3713V50.25H65.3718V68.9146H96.0004V42.1146H77.0583ZM76.2523 42.9028H66.0099V49.2928H76.2523V42.9028ZM77.0583 49.2928V42.9028H95.3623V49.2928H77.0583ZM95.3623 50.25H66.0099V68.1263H95.3623V50.25Z" fill="white"/>
<path fill-rule="evenodd" clip-rule="evenodd" d="M81.1642 26.8V42.1143H80.207V26.8H81.1642Z" fill="white"/>
<path fill-rule="evenodd" clip-rule="evenodd" d="M40.9644 31.1072L80.6858 31.1072L80.6858 30.15L40.0072 30.15L40.0072 35.4143L40.9644 35.4143L40.9644 31.1072Z" fill="white"/>
<path d="M127.22 26.63H106.5C106.22 26.63 106 26.41 106 26.13V20.5C106 20.22 106.22 20 106.5 20H127.22C127.5 20 127.72 20.22 127.72 20.5V26.13C127.72 26.4 127.5 26.63 127.22 26.63ZM107 25.63H126.72V21H107V25.63Z" fill="#5BC5F2"/>
<path d="M119.22 15.63H98.5C98.22 15.63 98 15.41 98 15.13V9.5C98 9.22 98.22 9 98.5 9H119.22C119.5 9 119.72 9.22 119.72 9.5V15.13C119.72 15.4 119.5 15.63 119.22 15.63ZM99 14.63H118.72V10H99V14.63Z" fill="#FFED00"/>
<path d="M39.4936 20H18.5064C18.2228 20 18 19.7677 18 19.4721V13.5279C18 13.2323 18.2228 13 18.5064 13H39.4936C39.7772 13 40 13.2323 40 13.5279V19.4721C40 19.7572 39.7772 20 39.4936 20ZM19.0129 18.9442H38.9871V14.0558H19.0129V18.9442Z" fill="#FFED00"/>
<path d="M21.22 51.63H0.5C0.22 51.63 0 51.41 0 51.13V45.5C0 45.22 0.22 45 0.5 45H21.22C21.5 45 21.72 45.22 21.72 45.5V51.13C21.72 51.4 21.5 51.63 21.22 51.63ZM1 50.63H20.72V46H1V50.63Z" fill="#FFED00"/>
</svg>
