<svg width="210" height="210" viewBox="0 0 210 210" fill="none" xmlns="http://www.w3.org/2000/svg">
<path d="M105 206.641C161.135 206.641 206.641 161.135 206.641 105C206.641 48.8654 161.135 3.35931 105 3.35931C48.8654 3.35931 3.35931 48.8654 3.35931 105C3.35931 161.135 48.8654 206.641 105 206.641Z" fill="#3D79CF"/>
<path fill-rule="evenodd" clip-rule="evenodd" d="M38.0858 51.2674H138.005V54.2882H41.1066V153.042H106.015V156.063H38.0858V51.2674Z" fill="#4BBBF2"/>
<path fill-rule="evenodd" clip-rule="evenodd" d="M157.979 115.557V80.6292H160.847V115.557H157.979Z" fill="#4BBBF2"/>
<path fill-rule="evenodd" clip-rule="evenodd" d="M143.303 57.8806C143.303 48.278 151.087 40.4935 160.69 40.4935C170.293 40.4935 178.077 48.278 178.077 57.8806C178.077 67.4833 170.293 75.2678 160.69 75.2678C156.345 75.2678 152.372 73.6739 149.324 71.0388L128.765 91.5927C129.373 92.5314 129.725 93.6505 129.725 94.8519C129.725 98.1692 127.036 100.858 123.719 100.858C120.401 100.858 117.712 98.1692 117.712 94.8519C117.712 93.6077 118.091 92.4518 118.739 91.493L110.01 82.7693C109.052 83.4161 107.897 83.7938 106.654 83.7938C105.4 83.7938 104.235 83.4091 103.271 82.7514L86.0192 99.9986C86.6782 100.963 87.0636 102.128 87.0636 103.384C87.0636 106.702 84.3744 109.391 81.0571 109.391C77.7398 109.391 75.0507 106.702 75.0507 103.384C75.0507 100.067 77.7398 97.3777 81.0571 97.3777C81.9652 97.3777 82.8262 97.5793 83.5979 97.94L101.212 80.3316C100.85 79.559 100.648 78.6967 100.648 77.7873C100.648 74.47 103.337 71.7808 106.654 71.7808C109.971 71.7808 112.661 74.47 112.661 77.7873C112.661 78.7086 112.453 79.5814 112.082 80.3616L121.147 89.4221C121.927 89.0523 122.799 88.8454 123.719 88.8454C124.683 88.8454 125.594 89.0726 126.401 89.4763L147.125 68.7582C144.734 65.7799 143.303 61.9974 143.303 57.8806Z" fill="#9728B2"/>
<path fill-rule="evenodd" clip-rule="evenodd" d="M83.7075 65.6849H51.5325V63.1303H83.7075V65.6849ZM83.7075 73.5275H51.5325V70.9729H83.7075V73.5275ZM83.8991 81.3701H51.7241V78.8155H83.8991V81.3701ZM83.7075 89.2063H51.5325V86.6517H83.7075V89.2063Z" fill="#353789"/>
<path d="M135.955 110.001L137.041 113.366H140.573L137.712 115.442L138.804 118.801L135.955 116.732L133.088 118.801L134.186 115.442L131.325 113.366H134.857L135.955 110.001Z" fill="#FDDC23"/>
<path d="M135.955 157.542L137.041 160.907H140.573L137.712 162.976L138.804 166.342L135.955 164.26L133.088 166.342L134.186 162.976L131.325 160.907H134.857L135.955 157.542Z" fill="#FDDC23"/>
<path d="M124.549 154.757L125.641 158.123H129.179L126.312 160.198L127.41 163.558L124.549 161.482L121.694 163.558L122.793 160.198L119.925 158.123H123.463L124.549 154.757Z" fill="#FDDC23"/>
<path d="M115.934 146.423L117.032 149.776H120.557L117.696 151.864L118.788 155.217L115.934 153.141L113.073 155.217L114.171 151.864L111.323 149.776H114.854L115.934 146.423Z" fill="#FDDC23"/>
<path d="M112.881 134.186L113.967 137.552H117.505L114.65 139.627L115.736 142.987L112.881 140.911L110.02 142.987L111.112 139.627L108.251 137.552H111.782L112.881 134.186Z" fill="#FDDC23"/>
<path d="M115.659 121.956L116.758 125.322H120.283L117.428 127.397L118.514 130.757L115.659 128.687L112.798 130.757L113.89 127.397L111.042 125.322H114.561L115.659 121.956Z" fill="#FDDC23"/>
<path d="M124 113.622L125.085 116.981H128.624L125.756 119.05L126.848 122.422L124 120.347L121.139 122.422L122.231 119.05L119.37 116.981H122.908L124 113.622Z" fill="#FDDC23"/>
<path d="M147.342 113.622L148.434 116.981H151.973L149.105 119.05L150.203 122.422L147.342 120.347L144.488 122.422L145.586 119.05L142.719 116.981H146.257L147.342 113.622Z" fill="#FDDC23"/>
<path d="M156.251 121.956L157.337 125.322H160.862L158.008 127.397L159.093 130.757L156.251 128.687L153.384 130.757L154.476 127.397L151.615 125.322H155.153L156.251 121.956Z" fill="#FDDC23"/>
<path d="M159.298 133.637L160.39 136.996H163.928L161.06 139.072L162.159 142.425L159.298 140.349L156.443 142.425L157.535 139.072L154.674 136.996H158.199L159.298 133.637Z" fill="#FDDC23"/>
<path d="M156.251 145.592L157.337 148.952H160.862L158.008 151.021L159.093 154.387L156.251 152.311L153.384 154.387L154.476 151.021L151.615 148.952H155.153L156.251 145.592Z" fill="#FDDC23"/>
<path d="M147.617 154.208L148.715 157.561H152.247L149.399 159.643L150.484 163.002L147.617 160.926L144.769 163.002L145.854 159.643L143 157.561H146.531L147.617 154.208Z" fill="#FDDC23"/>
<path d="M68.0223 114.318L61.9041 114.267L61.623 147.585L67.7477 147.642L68.0223 114.318Z" fill="#4EB849"/>
<path d="M68.0223 114.318H64.8929L64.6119 147.636H67.7477L68.0223 114.318Z" fill="#4EB849"/>
<path d="M94.5198 122.825L88.4016 122.767L88.1908 147.757L94.309 147.815L94.5198 122.825Z" fill="#4EB849"/>
<path d="M94.5198 122.825H91.4926L91.3265 147.789H94.3601L94.5198 122.825Z" fill="#4EB849"/>
<path d="M81.2296 131.076L75.1113 131.018L74.9708 147.681L81.0891 147.732L81.2296 131.076Z" fill="#4EB849"/>
<path d="M81.2295 131.076L78.1129 131.044L77.9788 147.706H81.089L81.2295 131.076Z" fill="#4EB849"/>
<path d="M54.6746 130.923L48.5372 130.859L48.4222 147.528L54.5405 147.585L54.6746 130.923Z" fill="#4EB849"/>
<path d="M54.681 130.923H51.6666L51.5325 147.528H54.5405L54.681 130.923Z" fill="#4EB849"/>
</svg>
