<?xml version="1.0" encoding="utf-8"?>
<!-- Generator: Adobe Illustrator 16.0.0, SVG Export Plug-In . SVG Version: 6.00 Build 0)  -->
<!DOCTYPE svg PUBLIC "-//W3C//DTD SVG 1.1//EN" "http://www.w3.org/Graphics/SVG/1.1/DTD/svg11.dtd">
<svg version="1.1" id="Layer_1" xmlns="http://www.w3.org/2000/svg" xmlns:xlink="http://www.w3.org/1999/xlink" x="0px" y="0px"
	 width="512px" height="336.187px" viewBox="0 0 512 336.187" enable-background="new 0 0 512 336.187" xml:space="preserve">
<path fill="#4173CD" d="M505.272,336.186H9.847c-4.886,0-8.847-3.962-8.847-8.85V8.848c0-4.886,3.961-8.848,8.847-8.848h495.426
	c4.888,0,8.849,3.961,8.849,8.848v318.488C514.118,332.224,510.157,336.186,505.272,336.186z"/>
<path fill="#FFFFFF" d="M321.366,163.497L513.12,48.444V8.847c0-4.886-3.961-8.848-8.849-8.848H466.25L257.56,125.214L48.872,0.001
	H8.847C3.96,0.001,0,3.962,0,8.848v38.396l193.755,116.253L0,279.751v47.586c0,4.888,3.961,8.85,8.847,8.85h24.707L257.56,201.781
	l224.008,134.404h22.705c4.886,0,8.847-3.962,8.849-8.85v-48.787L321.366,163.497z"/>
</svg>
