<svg width="351" height="351" viewBox="0 0 351 351" fill="none" xmlns="http://www.w3.org/2000/svg">
<path d="M350.387 175.285C350.387 272.093 271.95 350.571 175.193 350.571C78.4367 350.571 0 272.093 0 175.285C0 78.4779 78.4367 0 175.193 0C271.95 0 350.387 78.4779 350.387 175.285Z" fill="#F2F2F2"/>
<path d="M260.199 65.3713H248.441H234.477H223.453H214.265H211.695H199.565H192.587H187.807H182.296H173.844H162.819H151.061H131.954H121.663C116.026 65.3713 111.467 69.9764 111.467 75.6519V116.711C111.467 122.178 115.699 126.603 121.031 126.94C121.24 126.956 121.447 127.003 121.663 127.003C121.879 127.003 122.081 126.956 122.294 126.94H131.318C131.529 126.956 131.733 127.003 131.951 127.003C132.167 127.003 132.369 126.956 132.581 126.94H150.423C150.634 126.956 150.839 127.003 151.057 127.003C151.273 127.003 151.475 126.956 151.686 126.94H161.954C162.091 126.94 162.223 126.956 162.358 126.961C162.506 126.98 162.655 127.003 162.813 127.003C162.859 127.003 162.903 126.996 162.949 126.991C165.949 127.286 168.558 128.896 170.223 131.24H170.213H166.736H152.036H151.115H140.278H134.946H126.315H121.171H109.413H90.305H74.1363C68.5045 131.24 63.9382 135.845 63.9382 141.526V223.543C63.9382 229.23 68.5022 233.837 74.1316 233.837H90.3004H94.7598H109.408H110.929H121.168H126.31H130.036H134.946H140.274H141.794H146.936H151.113H152.029H160.902H166.729H170.218H172.126V249.889H119.328V250.194C114.826 251.248 111.467 255.317 111.467 260.189V268.591V282.654C112.203 287.421 116.328 291.019 121.206 291.234L121.665 291.262H131.956H141.509H142.108H151.064H152.394H161.947H162.819H171.499H173.844H182.296H183.26H187.807H192.587H194.284H199.565H202.14H208.248H211.693H214.262H220.003H223.451H234.475H234.705H248.441H260.196H274.896C280.514 291.262 285.068 286.664 285.068 280.996C285.068 280.853 285.033 280.717 285.024 280.565H285.068V270.807V270.303V239.981V212.316V197.515C284.388 192.502 280.033 188.637 274.875 188.637H235.705C236.961 186.93 237.709 184.824 237.709 182.538C237.709 176.872 233.163 172.278 227.546 172.278H187.362C183.954 172.278 180.945 170.58 179.102 167.985H274.896C280.514 167.985 285.066 163.391 285.066 157.721V157.29V147.035V116.713C285.066 111.258 280.843 106.831 275.506 106.494L275.492 106.482C275.29 106.465 275.102 106.421 274.896 106.421H260.199H248.441H234.705C229.087 106.421 224.53 101.828 224.53 96.1568C224.53 90.4883 229.085 85.8996 234.705 85.8996H248.441H260.199H274.896C280.514 85.8996 285.066 81.304 285.066 75.6378C285.066 69.9694 280.516 65.376 274.896 65.376H260.199V65.3713Z" fill="url(#paint0_linear_317_1124)"/>
<path d="M72.2141 131.332C66.5824 131.332 62.0161 135.937 62.0161 141.617V223.634C62.0161 229.319 66.5824 233.929 72.2095 233.929H92.84H133.022C138.644 233.929 143.187 229.338 143.187 223.671C143.187 218.005 138.642 213.412 133.022 213.412H92.84C87.2222 213.412 82.6699 208.812 82.6699 203.148C82.6699 197.479 87.2222 192.895 92.84 192.895H133.022C138.644 192.895 143.187 188.293 143.187 182.631C143.187 176.965 138.642 172.372 133.022 172.372H92.84C87.2222 172.372 82.6699 167.776 82.6699 162.117C82.6699 156.442 87.2222 151.858 92.84 151.858H133.022C138.644 151.858 143.187 147.26 143.187 141.593C143.187 135.927 138.642 131.336 133.022 131.336L72.2141 131.332Z" fill="url(#paint1_linear_317_1124)"/>
<path d="M119.741 65.4603C114.107 65.4603 109.545 70.0677 109.545 75.7432V116.802C109.545 122.269 113.777 126.694 119.107 127.031C119.316 127.045 119.523 127.094 119.738 127.094C119.959 127.094 120.156 127.045 120.368 127.031H160.034C165.649 127.031 170.204 131.622 170.204 137.291C170.204 142.957 165.649 147.552 160.034 147.552H119.27V147.67C113.863 147.908 109.54 152.371 109.54 157.887C109.54 163.401 113.863 167.863 119.27 168.102V168.144L119.446 168.121C119.534 168.123 119.625 168.144 119.711 168.144V168.076L119.731 168.074H140.174H180.365C185.983 168.074 190.533 163.48 190.533 157.812V157.381V147.126V116.802C190.533 111.347 186.31 106.92 180.973 106.582L180.961 106.571C180.757 106.554 180.571 106.51 180.363 106.51H140.181C134.563 106.51 130.006 101.917 130.006 96.2457C130.006 90.5773 134.563 85.9886 140.181 85.9886H180.372C185.99 85.9886 190.54 81.3929 190.54 75.7268C190.54 70.0583 185.99 65.4627 180.372 65.4627H119.741V65.4603Z" fill="url(#paint2_linear_317_1124)"/>
<path d="M119.722 188.729C114.102 188.729 109.552 193.324 109.552 198.993C109.552 204.654 114.102 209.254 119.722 209.254H159.911C165.533 209.254 170.083 213.843 170.083 219.512L170.206 219.39V260.563C170.206 266.227 165.656 270.828 160.038 270.828H138.946C133.855 270.256 129.888 265.899 129.888 260.608V270.828H129.885V268.682V260.28H129.888C129.888 254.605 125.328 250.009 119.718 250.009C114.1 250.009 109.545 254.605 109.545 260.28V268.682V282.745C110.281 287.512 114.404 291.108 119.279 291.325L119.738 291.354H140.179H180.372C185.99 291.354 190.544 286.753 190.544 281.089C190.544 280.944 190.51 280.806 190.498 280.656H190.544V270.896V270.397V240.068V212.407V197.604C189.862 192.591 185.507 188.726 180.351 188.726L119.722 188.729Z" fill="url(#paint3_linear_317_1124)"/>
<defs>
<linearGradient id="paint0_linear_317_1124" x1="63.9399" y1="178.317" x2="285.066" y2="178.317" gradientUnits="userSpaceOnUse">
<stop stop-color="#F7FCFE"/>
<stop offset="0.103" stop-color="#F6F3F4"/>
<stop offset="0.2706" stop-color="#F4DCDC"/>
<stop offset="0.482" stop-color="#F0B7B5"/>
<stop offset="0.729" stop-color="#EC837D"/>
<stop offset="1" stop-color="#E84439"/>
</linearGradient>
<linearGradient id="paint1_linear_317_1124" x1="62.1268" y1="182.78" x2="143.295" y2="182.78" gradientUnits="userSpaceOnUse">
<stop stop-color="#1583C5"/>
<stop offset="0.8156" stop-color="#1C468F"/>
<stop offset="1" stop-color="#1C468F"/>
</linearGradient>
<linearGradient id="paint2_linear_317_1124" x1="109.618" y1="116.806" x2="190.636" y2="116.806" gradientUnits="userSpaceOnUse">
<stop stop-color="#1583C5"/>
<stop offset="0.3184" stop-color="#1583C5"/>
<stop offset="0.476" stop-color="#187EC0"/>
<stop offset="0.6659" stop-color="#166FB4"/>
<stop offset="0.8716" stop-color="#1357A1"/>
<stop offset="1" stop-color="#1C468F"/>
</linearGradient>
<linearGradient id="paint3_linear_317_1124" x1="109.387" y1="240.015" x2="190.381" y2="240.015" gradientUnits="userSpaceOnUse">
<stop stop-color="#1583C5"/>
<stop offset="0.3184" stop-color="#1583C5"/>
<stop offset="0.476" stop-color="#187EC0"/>
<stop offset="0.6659" stop-color="#166FB4"/>
<stop offset="0.8716" stop-color="#1357A1"/>
<stop offset="1" stop-color="#1C468F"/>
</linearGradient>
</defs>
</svg>
