<svg xmlns="http://www.w3.org/2000/svg" width="210" height="211" fill="none" xmlns:v="https://vecta.io/nano"><ellipse cx="105" cy="105.055" rx="105" ry="105.055" fill="#3d79cf"/><g clip-path="url(#A)"><path d="M124.601 173.712l-4.093-4.258c1.093-1.239 2.111-2.543 3.046-3.907a43.97 43.97 0 0 0 2.582-4.258l5.394 2.34a1.44 1.44 0 0 0 .568.111c.194-.002.386-.044.565-.123s.338-.192.471-.335.237-.311.303-.495a47.31 47.31 0 0 0 2.326-6.083c.079-.179.122-.373.125-.569s-.034-.391-.108-.572a1.45 1.45 0 0 0-.322-.484c-.139-.137-.304-.245-.486-.317l-5.488-1.895c.883-3.206 1.398-6.502 1.535-9.826l5.883-.234a1.45 1.45 0 0 0 .586-.14 1.46 1.46 0 0 0 .775-.894c.061-.195.08-.401.058-.603a51.07 51.07 0 0 0-.442-6.528c-.024-.393-.201-.761-.493-1.023s-.674-.4-1.065-.38l-5.86.584a42.92 42.92 0 0 0-1.14-4.842 37.65 37.65 0 0 0-1.697-4.679l5.209-2.785a1.45 1.45 0 0 0 .435-.375c.119-.153.205-.329.255-.517a1.45 1.45 0 0 0 .035-.575c-.026-.193-.091-.378-.19-.544-.951-1.969-2.023-3.875-3.21-5.709-.092-.171-.217-.322-.368-.445a1.46 1.46 0 0 0-.51-.267 1.44 1.44 0 0 0-.573-.049c-.193.021-.379.081-.548.176l-5.046 3.088c-.955-1.361-1.996-2.658-3.116-3.883a41.68 41.68 0 0 0-3.558-3.463l3.488-4.679c.215-.327.294-.725.22-1.11a1.5 1.5 0 0 0-.616-.949l-2.604-1.941-21.44 31.115c1.051.717 1.978 1.602 2.744 2.621 1.466 2.047 2.277 4.495 2.325 7.018.029 1.882-.378 3.744-1.19 5.44a12.09 12.09 0 0 1-3.487 4.326c-1.481 1.149-3.208 1.935-5.045 2.295a11.95 11.95 0 0 1-5.532-.223c-1.223-.348-2.379-.902-3.418-1.638L60.35 182.298l2.721 1.778a1.47 1.47 0 0 0 .531.241c.191.043.389.048.582.013a1.46 1.46 0 0 0 .541-.217c.164-.107.305-.247.415-.411l3.209-4.96a38.9 38.9 0 0 0 4.465 2.129 41.06 41.06 0 0 0 4.651 1.591l-1.093 5.826c-.029.192-.02.389.028.577a1.45 1.45 0 0 0 .682.903 1.45 1.45 0 0 0 .546.181 45.69 45.69 0 0 0 6.441 1.029 1.43 1.43 0 0 0 .576-.015c.189-.043.368-.123.526-.237s.292-.256.394-.422a1.48 1.48 0 0 0 .202-.543l.744-5.872a43.53 43.53 0 0 0 4.953 0c1.637-.12 3.267-.323 4.883-.608l1.535 5.708a1.47 1.47 0 0 0 .278.51c.125.15.279.273.452.363s.362.143.556.158a1.49 1.49 0 0 0 .574-.071 49.97 49.97 0 0 0 6.232-1.872c.187-.051.361-.139.513-.259a1.46 1.46 0 0 0 .372-.44 1.47 1.47 0 0 0 .171-.551 1.45 1.45 0 0 0-.056-.575l-1.86-5.638a37.41 37.41 0 0 0 4.442-2.199c1.44-.812 2.83-1.71 4.162-2.691l3.837 4.469c.135.143.297.257.477.335s.373.118.569.118a1.45 1.45 0 0 0 .57-.118c.18-.078.342-.192.477-.335a45.23 45.23 0 0 0 4.79-4.422 1.46 1.46 0 0 0 .509-.995c.015-.192-.007-.384-.067-.567s-.154-.351-.279-.497z" fill="#9728b2"/><g fill-rule="evenodd"><path d="M111.234 22.368a38.63 38.63 0 0 1 25.734-2.062c8.561 2.284 16.097 7.444 21.369 14.63s7.965 15.972 7.636 24.91-3.66 17.497-9.445 24.269l-3.077-2.686c5.182-6.065 8.165-13.731 8.459-21.736s-2.117-15.873-6.839-22.309-11.472-11.058-19.141-13.104-15.798-1.395-23.052 1.847-13.197 8.881-16.855 15.988a35.59 35.59 0 0 0-3.271 23.119c1.54 7.858 5.683 14.953 11.747 20.117s13.687 8.09 21.616 8.295l-.104 4.108c-8.852-.23-17.362-3.495-24.132-9.261S90.483 74.807 88.763 66.033s-.432-17.878 3.653-25.815 10.721-14.231 18.818-17.85z" fill="#4452b8"/><path d="M121.184 27.688a30.81 30.81 0 0 1 19.556 2.893c6.036 3.088 10.913 8.08 13.895 14.223a31.84 31.84 0 0 1 2.633 19.821c-1.274 6.721-4.676 12.839-9.691 17.43s-11.373 7.404-18.108 8.014-13.486-1.014-19.228-4.63l2.138-3.481a26.84 26.84 0 0 0 16.728 4.028c5.861-.531 11.391-2.979 15.754-6.972s7.323-9.315 8.43-15.161.304-11.897-2.289-17.24-6.837-9.686-12.088-12.372-11.223-3.57-17.014-2.517a27 27 0 0 0-15.084 8.353c-3.996 4.366-6.479 9.93-7.073 15.85a28.15 28.15 0 0 0 .691 9.408l-3.928.993a32.29 32.29 0 0 1-.793-10.801l.001-.009c.682-6.809 3.536-13.207 8.132-18.228s10.682-8.391 17.338-9.601z" fill="#74a627"/><path d="M119.251 35.96a23.53 23.53 0 0 1 11.761-.809c3.926.733 7.601 2.453 10.682 4.999a23.63 23.63 0 0 1 6.934 9.557l-3.774 1.495a19.55 19.55 0 0 0-5.739-7.912 19.51 19.51 0 0 0-8.845-4.139c-3.25-.607-6.601-.376-9.739.67s-5.958 2.873-8.197 5.31a19.58 19.58 0 0 0-4.608 8.623 19.6 19.6 0 0 0 .133 9.78 19.58 19.58 0 0 0 4.84 8.494 19.52 19.52 0 0 0 8.333 5.083 19.98 19.98 0 0 0 5.643.822 19.54 19.54 0 0 0 10.381-3.004 19.6 19.6 0 0 0 7.209-8.068l.003-.006.003-.006a18.24 18.24 0 0 0 1.42-4.04l3.959.891c-.383 1.709-.965 3.367-1.736 4.94-1.932 3.999-4.947 7.373-8.701 9.736s-8.1 3.621-12.535 3.626h-.006a24.01 24.01 0 0 1-6.796-.991l-.006-.002-.006-.002a23.57 23.57 0 0 1-10.072-6.141c-2.784-2.869-4.796-6.4-5.847-10.261s-1.106-7.927-.161-11.816a23.66 23.66 0 0 1 5.566-10.417c2.706-2.944 6.113-5.151 9.901-6.414z" fill="#9728b2"/><path d="M118.819 44.383a16.01 16.01 0 0 1 10.441-1.865c3.59.583 6.877 2.371 9.319 5.072a16.08 16.08 0 0 1 1.241 20.019c-2.09 2.983-5.13 5.165-8.621 6.188a16.01 16.01 0 0 1-10.591-.556l1.546-3.78c2.511 1.032 5.297 1.178 7.901.415a11.96 11.96 0 0 0 6.43-4.615c1.559-2.224 2.316-4.913 2.148-7.625a11.99 11.99 0 0 0-3.073-7.3c-1.822-2.014-4.273-3.348-6.952-3.783s-5.425.056-7.788 1.391-4.203 3.435-5.217 5.956-1.143 5.307-.367 7.908c.346 1.13.861 2.202 1.527 3.177l-3.362 2.309a15.8 15.8 0 0 1-2.064-4.296l-.002-.006-.002-.006a16.1 16.1 0 0 1 .49-10.616c1.36-3.38 3.827-6.197 6.996-7.987z" fill="#f79700"/><path d="M126.696 54.531c-2.385 0-4.316 1.865-4.316 4.162s1.931 4.162 4.316 4.162 4.316-1.865 4.316-4.162-1.931-4.162-4.316-4.162zm-8.49 4.162c0-4.525 3.802-8.19 8.49-8.19s8.489 3.666 8.489 8.191-3.802 8.19-8.489 8.19-8.49-3.666-8.49-8.19z" fill="#4452b8"/></g><path d="M84.134 58.402a42.48 42.48 0 0 1 5.208-20.318c3.406-6.226 8.316-11.489 14.279-15.304-21.16 1.286-41.111 15.123-45.715 47.309l2.069 7.316L44 93.487l7.999 6.638-3.139 7.316 4.534 3.857-2.79 5.586 3.465 3.483c-1.99 2.593-2.973 5.824-2.767 9.092.698 8.018 6.976 9.07 24.671 7.667l4.046 10.402 33.786-48.665c-8.587-2.688-16.097-8.063-21.433-15.341s-8.223-16.078-8.237-25.12z" fill="#f79700"/></g><defs><clipPath id="A"><path fill="#fff" transform="translate(44 19)" d="M0 0h122v172H0z"/></clipPath></defs></svg>