<svg width="1267" height="339" viewBox="0 0 1267 339" fill="none" xmlns="http://www.w3.org/2000/svg">
<path d="M1 165.907L0.999991 -6C23.1745 -1.22479 189.242 11.3101 232.898 41.1551C317.439 99.0545 334.069 222.613 455.336 238.729C564.823 253.055 630.499 220.559 758.499 229.79C869.499 238.729 908.499 263.354 985.446 320.505C985.446 320.505 1141.36 453.614 1400.52 304.985L1400.52 565.853L1 565.853L1 165.907Z" fill="#C9E7FF"/>
<path d="M1267 93.2161C1267 93.2161 1141.55 47.8774 1034.81 184.49C910.05 344.966 764.498 303.206 607.856 277.554C268.233 221.477 133.035 453.11 2.19399e-05 518.141L1266.31 518.141L1266.31 93.2161L1267 93.2161Z" fill="#506ABF"/>
<path d="M1267 329.695C1170.68 275.435 1014.07 259.336 829.747 386.341C678.683 474.589 574.047 425.099 479.805 317.77C398.037 224.752 218.562 143.659 0.974612 247.41L0.974653 496.333L1267 496.333L1267 329.695Z" fill="#2F4798"/>
</svg>
