<svg xmlns="http://www.w3.org/2000/svg" width="512" height="334.027" xmlns:v="https://vecta.io/nano"><style><![CDATA[.B{fill:#d4af3a}.C{fill:#b96b29}.D{fill:#1d5e91}]]></style><path fill="#d3ae3b" d="M511.424 320.998c0 7.193-5.872 13.029-13.115 13.029H13.115C5.872 334.027 0 328.191 0 320.998V13.394C0 6.198 5.872.365 13.115.365h485.193c7.243 0 13.115 5.833 13.115 13.029v307.604h.001z"/><path fill="#c40308" d="M12.786 17.048h485.852v300.295H12.786z"/><path d="M325.675 164.485c1.964-.553 8.804-2.536 13.623-6.421s5.757-6.998 6.146-8.679.554-3.003-.693-2.039-4.982 3.884-7.529 5.29-4.902 2.066-6.285 2.453-2.495.632-1.163.109 5.675-2.04 9.027-5.373 5.998-8.328 6.053-11.396-.164-2.85-1.157-2.082-4.521 5.094-6.505 6.737-5.183 3.835-6.781 4.764-3.855 1.975-.717-.163 9.095-7.175 11.523-13.692 1.981-10.352 1.929-11.008-.607-1.973-1.158-.766-4.521 9.09-7.716 12.485c-3.201 3.396-2.428 2.74-3.146 3.287s-1.93 1.534-.384-.385 4.741-6.354 6.396-10.733 2.095-8.764 2.147-11.284-1.047-6.022-1.543-7.063-.993-1.809-1.16-.605c-.162 1.206-2.7 8.983-4.078 12.762s-4.135 8.055-4.686 8.874-1.983 2.521-.439-.328 4.519-11.229 4.906-19.169-.718-12.323-1.819-14.515-2.06-2.968-2.06-2.968.189 5.421-1.438 13.211-4.007 11.901-4.007 11.901-1.004 1.122-.315-.747c.464-1.258 1.421-4.025 1.858-8.716.458-4.92.515-10.519-.932-15.284-1.574-5.19-4.309-7.845-4.309-7.845-.76 7.446-.611 17.041-3.358 24.818-.513-.456-1.191-1.301-1.463.418-.502 2.556-1.505 7.354-4.884 13.462-3.385 6.106-4.761 6.917-4.761 6.917s-.627-1.496-1.064-2.306-.688-1.247-1.255-.125-2.442 5.421-6.576 10.156-6.45 7.042-6.324 10.594 2.003 5.36 4.509 6.979 2.947 2.492 2.567 4.424-2.63 2.617-4.57 2.68-4.387-.125-5.263.373-.938 1.744-1.815 2.615-1.251 1.37-2.065 1.498c-.288.044-.521.07-.702.091-.181-9.369 3.476-13.547 3.476-13.547l-10.212-11.92c-.528.257-1.058.498-1.585.727-.072-.139-.169-.288-.299-.451-1.359-1.724-1.805-3.187-1.805-5.396.508.05 1.528.414 2.454.229s.23-1.106-.047-1.982-.558-3.92-.371-5.073l.275-1.614s1.485 1.614 2.409 1.614.833-.923.972-1.938c.21-1.53.933-3.46 2.131-4.52 0 0 1.617 1.107 3.471 1.107s4.352-.507 6.34-2.397 1.944-2.353 1.944-2.353 3.7 1.291 6.524 1.432 5.832-.325 7.27-3.275-.42-5.672-.74-6.134c-.328-.462-1.252-.831-1.252 0s.049 3.043-1.667 4.15-3.053 1.06-4.673.553-3.887-1.153-6.48-.784c-2.323.332-2.639.513-2.68.547.12-.123 2.232-2.273 4.3-2.899 2.13-.646 3.382.231 4.074 1.061s1.296 2.169 1.851.23.231-4.149-.692-5.581-2.916-2.352-4.999-2.122-2.82.554-2.82.554-1.067-2.996-3.75-3.55c-3.274-.677-6.889.548-9.721 2.121 0 0-2.224.509-4.488-.139-1.485-.423-2.969-1.32-3.82-1.888l.768-2.454s.648-.196 1.325-.45.537-.478.624-1.038-1.275-1.538-1.275-1.538-.193-1.686 2.037-2.842 1.988-.964 1.988-.964 1.309.242 1.844-.145.533-.626.533-.626.987-.322 1.35-.914.433-1.447.166-2.138-.596-.822-.229-1.15c.361-.329.691-1.118.725-1.678l.033-.689s.76-.267.726-1.415-.659-1.613-1.024-1.712-.592-.098-.592-.098-.067-.691-.661-1.611-.99-1.315-.99-1.315.429-.326.196-1.083-.76-1.217-1.285-1.383-1.091 0-1.091 0-1.75-1.052-2.573-1.479l-1.025-.525s-.032-.725-.328-1.118-.989-.56-1.354-.56-.76.197-.76.197-2.973-.758-4.194-.956-1.287-.296-1.287-.296-2.64-1.25-3.661-1.446-1.321-.296-1.321-.296 1.069-1.284 1.134-2.764-.924-2.877-1.979-3.501c-.597-.352-.917-.411-1.11-.532l-.021-1.018 1.982.199.163-3.172-1.931.242.295-1.908-4.047-.047.297 1.908-1.946-.132.164 3.126 2.047-.264-.197 1.183s-.75.126-1.385.591c-1.056.626-1.95 1.845-1.884 3.325s.957 2.796.957 2.796-.264.065-1.286.263-3.665 1.447-3.665 1.447-.066.099-1.289.295-4.191.956-4.191.956-.396-.197-.761-.197-1.055.165-1.353.56-.33 1.119-.33 1.119l-1.023.524c-.827.429-2.575 1.48-2.575 1.48s-.563-.165-1.09 0-1.056.626-1.287 1.383.196 1.083.196 1.083-.395.395-.99 1.316-.66 1.61-.66 1.61-.23 0-.594.099-.99.56-1.021 1.712.725 1.415.725 1.415 0 .13.034.69.363 1.349.726 1.677.033.461-.229 1.151-.199 1.545.164 2.138 1.352.914 1.352.914 0 .241.533.627 1.842.145 1.842.145-.241-.193 1.99.964 2.034 2.841 2.034 2.841-1.357.979-1.271 1.538-.057.787.62 1.039 1.329.45 1.329.45l.765 2.454c-.85.567-2.333 1.465-3.817 1.889-2.268.646-4.49.137-4.49.137-2.831-1.572-6.443-2.796-9.718-2.12-2.685.554-3.75 3.55-3.75 3.55s-.739-.322-2.821-.553-4.073.69-5 2.12-1.249 3.646-.693 5.581 1.157.6 1.852-.229 1.946-1.706 4.073-1.062c2.067.626 4.179 2.776 4.3 2.9-.042-.035-.354-.217-2.681-.547-2.591-.37-4.858.276-6.479.783s-2.962.553-4.675-.553-1.667-3.321-1.667-4.15-.925-.462-1.249 0-2.175 3.183-.74 6.134 4.442 3.412 7.266 3.275 6.525-1.431 6.525-1.431-.045.461 1.945 2.353 4.487 2.397 6.341 2.397 3.471-1.107 3.471-1.107c1.195 1.061 1.921 2.99 2.129 4.52.14 1.017.047 1.938.975 1.938s2.405-1.615 2.405-1.615.094.462.276 1.615-.092 4.195-.371 5.073-.971 1.8-.044 1.981 1.944-.18 2.452-.23c0 2.211-.446 3.674-1.804 5.397a3.01 3.01 0 0 0-.286.424c-.504-.22-1.012-.453-1.519-.699l-10.212 11.922s3.671 4.196 3.474 13.616v-.065a14.69 14.69 0 0 1-.744-.095c-.814-.126-1.189-.622-2.068-1.497s-.938-2.116-1.815-2.615-3.319-.313-5.261-.374-4.195-.747-4.571-2.679.063-2.804 2.566-4.425 4.385-3.427 4.509-6.979-2.189-5.858-6.324-10.593-6.014-9.036-6.576-10.157-.815-.687-1.254.125-1.063 2.306-1.063 2.306-1.378-.811-4.759-6.917-4.385-10.905-4.886-13.462c-.272-1.719-.953-.874-1.464-.418-2.752-7.777-2.599-17.374-3.358-24.818 0 0-2.733 2.653-4.308 7.845-1.445 4.765-1.392 10.363-.932 15.285.438 4.689 1.395 7.458 1.857 8.715.688 1.87-.313.748-.313.748s-2.38-4.112-4.008-11.902-1.44-13.211-1.44-13.211-.954.777-2.058 2.968-2.204 6.572-1.819 14.516 3.364 16.319 4.908 19.169.11 1.149-.441.327-3.308-5.093-4.687-8.874-3.914-11.556-4.08-12.762-.662-.437-1.159.605-1.599 4.545-1.544 7.063.497 6.902 2.15 11.284 4.852 8.818 6.395 10.734.331.931-.387.384.058.108-3.142-3.287-7.167-11.283-7.718-12.485-1.104.108-1.159.766-.496 4.49 1.93 11.008 8.379 11.559 11.523 13.693.881 1.096-.718.162-4.796-3.12-6.78-4.765-5.514-5.971-6.504-6.737-1.214-.985-1.158 2.082 2.702 8.063 6.054 11.396 7.697 4.85 9.027 5.373.222.273-1.164-.109-3.737-1.05-6.286-2.453-6.285-4.327-7.531-5.29-1.081.357-.693 2.039 1.33 4.794 6.146 8.68 11.658 5.867 13.624 6.42.582.55.582.55-.775-.107-4.763-.992-10.024-4.021-11.658-5.041-1.882-1.405-1.662.744 2.521 6.75 6.204 8.899 10.33 3.253 12.046 3.334 1.275.33.499.386-2.687.055-5.814-.303c-2.565-.296-6.376-1.531-7.667-1.97a23.02 23.02 0 0 1-.339-1.41c-.151-.814-.578-.695-.854-.513s-.427.332-1.339.788-.946-.089-.977-.363-.212-1.458-.244-2.063-.365-.64-.791-.456l-3.229 1.368c-.761.333-.062.938.335 1.667l1.006 1.794-2.529.668c-.608.149-.426.576-.273 1.002s1.097 2.55 1.34 3.157.792.241.792.241l1.918-1.123.669 2.55c-.032.04-.886.202-1.858.879s-.728 1.546.438 1.887c1.164.335 2.522.917 4.024 3.622s1.892 7.589 2.813 15.274 5.869 11.597 6.548 12.079.291.87.291.87-.679.969-.387 2.464 1.599 2.369 2.276 2.611.486.916.486.916-.34 1.641 0 4.64 2.813 6.377 3.492 6.96.728.871.63 1.11-.534.049-1.358.675-1.745 1.5-2.325 2.563-.39 1.691-.195 3.144 2.327 2.753 2.327 2.753-.389.099-.483 1.16.678 2.271 1.648 3.042 2.813 1.161 2.813 1.161l.243 1.547c.097.628 1.309 1.254 2.084 1.689s2.28.194 2.91-.096 1.066.05 1.454.676.243 3.045.243 4.013-.582 1.981-.243 2.464 1.262.145 2.184-.387 1.163-.145 1.988.387 2.133 1.018 2.474.968.194-.918.194-1.644.131-2.364.47-2.606c.161-.112 1.588-.221 2.683-.681.509-.212 1.164-.435 1.211-.92s-.68-.481-2.277-1.303-1.891-1.308-2.91-1.98-.533-.918-.533-1.208.484-.627.679-1.015.096-1.258.096-1.258.826-.819 1.213-1.256.874-1.113 1.405-1.547 1.356-2.512 1.892-3.189 1.747-1.4 2.474-2.318 2.669-2.416 3.783-3.143 4.122-2.126 4.122-2.126-.048 1.786.728 2.656 1.793-.674 5.236-3.095c3.443-2.413 6.062-3.284 6.062-3.284a35.99 35.99 0 0 0 1.647 2.271c.922 1.161 1.747-.048 5.967-5.849 3.327-4.571 7.711-8.755 9.414-10.317l.935.42a19.52 19.52 0 0 0-.256.753c-.388 1.198-1.015 1.969-1.838 3.646s-2.076 2.063-3.527 4.321-1.642 3.792-1.788 6.097 1.159 2.785 1.159 2.785-2.125 2.063-2.754 3.602-.966 4.658-.966 4.658-.34.143-1.112 1.727-2.176 1.824-4.204 3.843-4.301 2.88-5.364 3.501c-1.063.628-.772 1.25-.482 2.067s1.739 1.632 3.431 2.256 2.271.383 3.432.336.242.863-.24 1.343-1.112 2.16-1.016 4.032 1.498 1.439 3.238 1.154 3.77-1.154 3.77-1.154l-.194.529c-.192.529-.288.91-.288 2.402 0 1.486.241 2.207.676 2.59s1.308-.432 1.934-.621c.629-.195 1.692-.816 3.237-1.152s2.125-1.008 2.125-1.008-.387.477-.481 1.535-.049 2.639.193 3.553.917 2.018 1.98 2.977 1.304.529 2.077-.67 2.368-2.74 2.368-2.74.096.385 1.158 3.795 4.543 6.238 4.543 6.238 3.479-2.832 4.543-6.238l1.156-3.795s1.599 1.539 2.371 2.74 1.018 1.631 2.077.67 1.739-2.064 1.98-2.977.291-2.496.195-3.553-.483-1.535-.483-1.535.579.672 2.126 1.008 2.607.959 3.234 1.152 1.501 1.006 1.937.621.677-1.104.677-2.59c0-1.492-.097-1.873-.288-2.402l-.197-.529s2.032.865 3.771 1.154 3.142.719 3.239-1.154-.532-3.549-1.016-4.032-1.401-1.392-.241-1.343 1.737.285 3.432-.336c1.688-.624 3.141-1.441 3.433-2.256s.579-1.439-.483-2.067c-1.063-.621-3.335-1.486-5.363-3.501s-3.435-2.257-4.206-3.843-1.108-1.727-1.108-1.727-.341-3.122-.967-4.658-2.757-3.602-2.757-3.602 1.307-.479 1.16-2.785-.337-3.839-1.786-6.097-2.707-2.641-3.529-4.321-1.45-2.448-1.837-3.646c-.076-.243-.16-.485-.246-.729l1.246-.543c1.69 1.55 6.095 5.745 9.433 10.335 4.221 5.8 5.047 7.01 5.966 5.847s1.647-2.27 1.647-2.27 2.618.868 6.063 3.283 4.462 3.963 5.234 3.093c.411-.456.501-1.217.555-1.8 0 0 1.977.575 4.24 1.362 1.359.475 2.868 1.07 3.99 1.541 2.981 1.255 3.306 1.897 5.68 3.763 2.372 1.86 5.749 1.682 8.95.715s11.721-3.76 15.133-5.228 5.863-2.761 6.223-3.442.754-2.578.754-3.258-.754-1.684-1.007-1.864-.143-.718-.071-1.144c.071-.435-.145-1.723-.681-2.297s-.468-.785-.396-2.435c.152-3.496-2.36-7.899-5.917-9.305 0 0-.095-.404-.384-.646s-.767-.452-.767-.452l.048-2.442c-.021-.43.168-.38.409-.263s.623.599 1.199.743.936-.266 1.055-.908.604-1.939.815-2.585c.219-.646-.048-.741-.312-.813s-1.126-.168-1.535-.265-.408-.119-.313-.334.24-.549.769-1.364.048-.838-.457-1.003-2.782-.861-3.404-.959c-.629-.095-.771.433-.771.695a52.63 52.63 0 0 0 .05 1.842c.025.431-.384.31-.622.191s-.794-.455-1.227-.791-.743-.022-.914.454-.693 2.441-.861 3.019-.118 1.024.122 1.121 1.366 0 2.04 0c.669 0 .285.382.285.382s-.72 1.175-.962 1.628-.646.527-1.198.527-1.479-.009-1.479-.009-3.688.139-6.402 2.145-3.479 3.664-3.897 4.632-.9.76-1.321 1.106c-.416.346-1.599 1.594-1.599 2.351 0 .763.274 1.177-.904 1.938-1.185.762-2.159 4.079-.558 5.807s2.227 3.457 2.714 4.288 0 1.175-.42 1.175-1.287-.705-2.016-1.247-4.405-3.391-5.983-4.562-.417-1.036-.417-1.036.399.036 1.324-.349c.919-.388 1.065-.871.142-1.161s-2.713-1.304-3.196-1.788-.728-1.016.192-1.499 2.958-1.787 1.357-2.223-3.491-.772-5.045-1.209-1.697-.871-1.697-.871l1.021-1.447s.823-1.159-.146-1.306-3.298-.435-5.435-1.354c-4.261-1.833-6.931-4.943-7.919-8.741l.069-.092c.795 1.565 2.651 4.489 5.444 4.582 3.819.124 4.257-1.062 3.383-2.309s-1.881-2.369-2.13-2.74-.314-.873.688.063 2.911 4.112 8.672 3.739 5.731-1.497 5.731-1.809c0-1.098-1.172-1.272-1.861-1.962-.362-.36-.581-.883.581-.44s4.013.963 7.892.136c1.531-.324 5.588-2.084 5.979-4.13 0 0-2.574-.142-4.374-.91s-2.881-1.405-.969-1.021 5.621 1.155 8.89.057c1.906-.646 4.374-2.179 4.373-4.987 0 0-3.543-.744-4.844-1.213s-1.719-.826-1.719-.826 5.065 1.598 9.663-.716 4.79-5.483 4.79-6.229-.11-.965-.11-.965-4.18 1.021-7.31.993-4.1-.304-4.1-.304 8.754-.249 13.154-2.921 4.653-7.936 4.653-7.936-4.986 1.764-8.113 2.12-5.041.357-5.815.304-1.218-.304.5-.387 8.361-1.185 12.044-3.334 5.981-6.751 6.205-8.897-.027-1.764-1.664-.743-7.669 4.159-11.656 5.041l-4.763.992s-1.531-.072.44-.614l.121.067zm-157.531 9.989l-1.768.999-.883-1.851c-.184-.425-.093-.606.15-.606s.976-.212 1.554-.272c.083-.009.158-.022.227-.037.193.549.447 1.142.781 1.736-.021.021-.042.031-.063.043l.002-.012zm53.713 31.248c-1.067 1.985-3.977 4.064-6.11 4.98s-4.461 1.207-5.431 1.351-.146 1.307-.146 1.307l1.018 1.452s-.145.436-1.696.869-3.442.772-5.044 1.208.438 1.739 1.357 2.226c.922.479.68 1.015.194 1.496s-2.278 1.499-3.2 1.786-.776.776.145 1.163 3.443.868 3.443.868-.048.097-1.599 1.257-4.269 1.935-6.063 2.029a81.25 81.25 0 0 1-8.229.048c-3.598-.162-4.011-.244-4.011-.244s-.125-1.192-.373-2.959-1.322-4.271-2.148-5.422-2.563-3.452-2.563-3.452.041-.491.165-1.064.042-1.194-.379-2.279-2.521-2.672-2.521-2.672-.085-1.17-.085-2.255-.755-5.346-1.431-7.351c-.671-2.004-3.949-7.267-5.463-9.771s-2.412-6.218-2.868-9.101-.274-3.824-.123-4.586c.067-.331.211-.635.346-.903.621.799 1.416 1.555 2.433 2.172 4.403 2.671 13.153 2.921 13.153 2.921s-.969.275-4.1.302-7.31-.989-7.31-.989-.111.219-.111.964.196 3.913 4.791 6.226 9.665.718 9.665.718-.417.358-1.717.827-4.845 1.21-4.845 1.21c0 2.811 2.467 4.344 4.375 4.988 3.268 1.102 6.977.33 8.89-.055s.831.244-.97 1.019-4.374.909-4.374.909c.394 2.047 4.452 3.809 5.98 4.133 3.877.827 6.729.304 7.893-.136s.941.08.582.438c-.691.69-1.865.864-1.865 1.964 0 .312-.029 1.434 5.733 1.806s7.669-2.802 8.672-3.738.938-.436.688-.062-1.252 1.495-2.128 2.74-.438 2.433 3.381 2.307c2.814-.093 4.677-3.058 5.461-4.613l.054.071.153.207c-.356.916-.977 2.418-1.658 3.689l-.011.001zm46.472-123.83c-.521-.984-.799-1.448-.799-1.448s2.174 1.012 3.464 2.462 1.263 2.217 1.455 2.931 0 2.025-.19 3.258-.192 1.971.056 2.409.468.657.468.657-.963.246-1.869.603-2.086.684-2.745.136-.826-.931-.414-1.285 1.951-.795 2.145-3.423c.188-2.629-1.042-5.312-1.564-6.298l-.007-.002h0zm-11.837 7.15c.491-1.248.696-2.44.318-4.996-.315-2.15-.738-3.989-.844-6.306 0 0 1.602.349 3.907 2.44s2.828 4.242 2.828 5.289-.555 2.324-.645 3.342.292 1.917.292 1.917-.847.349-1.604.87-1.28.844-2.447.785-1.867-.58-2.538-.93-1.105-.406-1.105-.406 1.332-.755 1.826-2.005h.012 0zm-11.23-8.86c2.302-2.091 3.905-2.44 3.905-2.44-.105 2.315-.526 4.155-.847 6.306-.379 2.556-.175 3.748.321 4.996s1.837 2.005 1.837 2.005-.437.059-1.108.407-1.37.873-2.537.93-1.691-.261-2.448-.785-1.604-.87-1.604-.87.379-.899.291-1.917-.64-2.296-.64-3.342c.01-1.047.534-3.197 2.833-5.289h-.003zm-8.303 12.717c-.66.548-1.84.221-2.748-.136s-1.869-.603-1.869-.603.22-.218.468-.657.248-1.178.055-2.409-.386-2.546-.192-3.258.166-1.478 1.456-2.931 3.463-2.462 3.463-2.462-.275.464-.797 1.448-1.758 3.669-1.565 6.299 1.731 3.065 2.144 3.423c.408.354.24.738-.42 1.285h.005zm30.687 21.978c-2.27 1.246-3.563.968-3.472 1.891s2.128 1.614 2.128 1.614-2.083 2.214-3.702 3.229-3.521 1.659-3.521 1.659-.646.094-.276 1.107 1.02 1.706 1.527 1.984.788.369.788.369-2.821 2.997-4.074 3.967a10.68 10.68 0 0 1-2.962 1.707c-1.019.415-.506 2.074-.276 2.813s1.109 1.753 1.619 1.892.696.507.048 1.522c-.486.756-2.102 2.771-2.872 3.881l-.046.024c-.767-1.104-2.402-3.145-2.89-3.905-.646-1.016-.463-1.384.046-1.522s1.39-1.152 1.62-1.892.739-2.397-.279-2.813-1.712-.739-2.961-1.707-4.074-3.967-4.074-3.967.279-.094.789-.369 1.157-.969 1.528-1.984-.279-1.107-.279-1.107-1.896-.645-3.518-1.659-3.703-3.229-3.703-3.229 2.036-.692 2.129-1.614-1.203-.646-3.471-1.891-3.01-2.813-3.01-2.813 2.639-.876 3.936-3.505c.459-.931.568-1.78.521-2.492l.101.034c4.213 1.362 9.136 1.907 13.538 1.907 4.394 0 9.315-.548 13.52-1.907l.101-.034c-.05.712.063 1.562.521 2.492 1.298 2.629 3.936 3.505 3.936 3.505s-.734 1.575-3.001 2.826l-.009-.013z" class="C"/><path d="M281.417 165.631c0-7.074 3.273-11.549 3.273-11.549l-8.912-10.146c-8.488 3.262-16.267 3.458-23.192-.041-6.924 3.5-14.703 3.303-23.189.041l-8.917 10.146s3.278 4.475 3.278 11.549-1.376 12.326-2.182 15.749-1.493 9.813.345 14.378 3.789 8.56 11.713 11.867 12.06 5.02 14.817 7.303 4.134 4.106 4.134 4.106 1.379-1.827 4.137-4.106 6.889-3.993 14.816-7.303 9.876-7.303 11.713-11.867 1.147-10.956.344-14.378c-.797-3.421-2.17-8.665-2.17-15.745l-.008-.004z" class="B"/><path d="M278.613 168.551c-1.115-6.759 2.806-12.709 2.806-12.709l-7.632-8.864c-5.879 3.281-14.063 2.842-21.173-.409-7.108 3.25-15.294 3.69-21.171.409l-7.631 8.864s3.92 5.951 2.801 12.709-3.527 17.45-2.927 21.813 3.704 9.408 6.889 12.06 7.922 4.878 11.276 6.075 6.631 3.507 8.182 4.705 2.581 2.223 2.581 2.223 1.034-1.023 2.584-2.223 4.82-3.508 8.18-4.705 8.095-3.423 11.278-6.075 6.286-7.697 6.887-12.06c.6-4.379-1.813-15.065-2.938-21.823l.008.01z" class="C"/><path d="M277.879 169.354c-1.104-7.297 2.208-13.175 2.208-13.175l-6.888-7.621c-5.822 2.973-12.897 2.204-20.605-.453-7.708 2.657-14.782 3.424-20.605.453l-6.889 7.621s3.315 5.878 2.209 13.175-2.793 15.563-2.47 20.407c.021.33.058.669.104 1.011h6.274s.363-.419 1.062-.717.897-.497.897-.497.133-1.258.897-1.522 1.097-.268 1.395-.268.533-.064.897-.429 1.362-1.259 1.793-2.518.699-1.758.699-2.582c0-.829.3-2.152.3-2.152s-.167-.398-.798-.166-.731-.396-.797-1.026-.034-1.92.331-2.515l.499-.797-.267-.991s-3.987.795-4.685-2.284-.832-4.571-.931-4.9-.199-.499-.73-.465-1.661-.33-2.459-1.922-.864-2.251-.632-2.88.665-.396.798-.199 1.196 1.725 1.629 1.291.199-.431-.398-1.621-.399-1.589-.333-2.188-.199-1.392-.199-1.722.365-.596.73-.431.697.431.863.631.233.497.566.299.132-1.293.132-1.655.432-.63.964-.332.797.86.797 1.257.034.763.232.763.433-.597.465-.994.266-.993.632-.496.498 1.226.366 1.985.131.365-.133 1.689-.399 1.92-.366 2.915.066 1.556.565 2.781.896 2.646 1.827 2.681l1.196.033s1.029-1.987 1.828-2.451 1.927-.531 2.725-.63 1.13-.331 1.13-.531-.267-.263-1.229-.396-1.76-.364-1.793-1.094.165-1.355-.466-1.39-2.192-.533-2.757-1.557-.432-1.261-.365-1.821.796-1.69 1.262-.63.766 1.191 1.163 1.424.931.299.666-.431-.432-1.191-.366-1.721.433-.761.865-.861 1.729-.498 2.393-.629.697-.197.697-.197.066-.465.931-.729 1.428-.297 2.06-.297 1.096.101 1.927-.299 1.495-.462 2.027-.43.931.231 1.329.497.267.629.267.993.064.563.628.563 1.067 0 1.6.198 1.264.496.795 1.059c-.463.564-.496 1.193-.795 1.16s-.267.298-.399.497-.23.363.101.563.364.397.832.826 1.16.896.464 1.59-1.928 1.259-1.928 1.259-.698.33.1.797c.798.461 1.164 1.423 1.463 1.588s.6.43.796.529.167.762.167.762-.43.298-1.029.529-1.229.496-1.792.496-.865 0-.635.53.635 1.094.731 1.393.231.827.231.827.931.196 1.764.196 1.195.034 3.023-.165 2.358-.265 4.119-.064 2.023.132 2.491.298.931.397.931.397 2.491-.033 3.854-.331 1.695-1.158 1.499-1.622-.167-1.157-2.561-1.49-3.354-.199-5.252-.563c-1.893-.364-4.852-1.324-5.381-3.676s1.394-3.343 2.357-3.807 3.06-1.193 4.021-1.59 2.726-.794 4.585-.529 2.923.761 3.656.332 1.329-.102 1.195.562-.863 2.021-2.957 2.649-4.617.694-5.982.331-2.389-.895-3.221-.598-1.762 1.324-.866 2.55 5.484 1.59 6.715 1.722 5.781-.198 7.076 2.054.265 4.769-1.264 5.332-2.822.929-3.985 1.091l-1.162.167s.531 1.192.531 1.688-.067 1.425.497 1.786c.565.366 1.361.632 2.326.531s2.129.563 2.196 1.425.328 2.053.429 3.773 0 3.147 0 3.147-.066.662-.299 1.288c-.232.632-1.429 3.068-1.429 3.068h6.691a15.93 15.93 0 0 0 .106-1.011c.271-4.913-1.418-13.171-2.521-20.471l.052.07z" class="D"/><path fill="#6d8c3e" d="M225.74 194.015c1.313 3.724 4.017 7.493 8.133 9.957 5.72 3.421 8.189 2.969 13.584 6.456s5.07 4.067 5.135 4.067-.26-.581 5.136-4.067 7.865-3.035 13.584-6.456c4.118-2.464 6.819-6.233 8.131-9.957H225.75h-.01z"/><g class="B"><path d="M230.42 165.245c.614.642 1.067.837 2.006.74s1.164.578 1.326 1.316.162 2.475.84 4.08 2.942 1.703 2.942 1.703c.063-.776.335-1.816.68-2.668.06-.15.354-.868-.454-.868s-.776-.321-1.261-1.091-1.422-2.826-1.648-4.145.195-3.276.421-3.982.259-1.188 0-1.317-.774 0-.774 0 .192.611-.034.706-.42-.321-.581-.77-.356-.387-.679-.355-.322.323-.098.645.098.897.098.897-.711-.512-1.002-.642-.971.13-1.034.515.259 1.379.873 1.894.613 1.574.419 2.058-1.099.417-1.292.193a.55.55 0 0 0-.84 0c-.263.291-.525.458.095 1.094l-.003-.003zm-.355-1.699s-.355-.287-.485-.449l-.389-.516s-.065.161-.065.547.419.804.419.804l.516-.386h.004 0zm1.353-4.462c.291-.129.518-.194.291-.515s-.42-.676-.647-.739-.421-.032-.421-.032.258.579.324.933.167.479.451.354l.002-.001zm1.69-1.356c-.032.289.033.417.289.289s.357-.48.228-.738-.419-.449-.419-.449l-.195-.129c-.021 0 .116.739.084 1.021l.013.006zm2.413.387c.032-.321-.098-.675-.098-.675s0 .386-.161.611-.129.16.033.354c.156.196.188.03.221-.292l.005.002zm3.799 16.328c.476 1.095 1.684-.619 2.781-2.007s1.063-.329.914.803.293 2.335.733 3.102.805.326.986-.22.329-1.676.695-2.226.73-.071.769.402.62 1.531 1.17 2.149.805-.219.986-.983l.549-2.408c.146-.473.658-.072.658-.072l1.099 1.059c.729.694.804-.402.878-.945.072-.549-.11-1.752.108-1.937s.841.256 1.794.732.915-.439.807-.951-.659-1.677-1.429-2.333-.877-1.42-.62-1.751c.254-.325 1.169-.035 1.756-.107l1.317-.217c.439-.073.439-.513.439-.513s-.331-.546-.952-1.093-.988-.983-1.756-1.167-1.829 0-1.829 0l-.11-.22c-.109-.218-.329-.218-.476 0s-.512.511-.806.766-.478.401-.658.29c-.185-.107.146-.364.146-.364s.403-.289.77-1.021.476-1.423.182-1.75-1.097 0-1.536 0-.694.072-.731-.146.438-.108.987-.184.879-.729 1.062-1.277.33-.474.659-.146.625.255.694.036.367-.766.732-1.313.584-1.312.183-1.82c-.402-.513-1.392-.441-1.793-.109-.401.326-.658.654-.767 1.457s-.33.364-.33.107-.329-.656-.184-.984 0-.693 0-.693-.072-.691-.842-.838-1.646.036-2.414.219-.624.842-.624.842l-1.208.107c-.619.072-1.353.326-1.938.472s-.807.22-.807.511.11.767.11.767.477 0 .732.146.107.401-.186.511-.4.146-.4.51.146.439.438.439.915 0 1.646.325.916.982.843 1.348-1.099.841-1.612.841-.656.11-.656.438.621.295.621.295l1.829.181c1.208.146 1.392.401 1.94.876s.145.583-.11.729-.66.475-1.061.62-.66.438-1.026.51-1.281.037-2.963.693-2.27 2.848-2.27 2.848.22-.075.986-.478l2.6-1.387c.878-.545.878.258.438 1.021-.438.768.404.619.66.401s.585-.438 1.425-.875.55.254.55.254-.256.512-.327 1.718c-.074 1.2 1.205.071 1.793-.694s.841 0 .4.877-1.28 1.565-1.754 1.565-.843-.511-.88-.802.146-1.167-.146-1.386-1.135.034-1.757.399-.771.075-.916-.255.22-.438.074-.656-.477 0-.733.108-.841.438-1.975 1.023-1.061.908-1.061 1.747.209 1.033.682 2.126l.022-.042z"/><path d="M250.298 156.185c.238-.149.671-.322.671-.322l1.037-.194c.497-.064.411-.343.301-.578-.105-.238-.301-.323-.947-.323s-1.061.323-1.427.473-.8.258-.8.258.087.106.325.452c.229.364.598.405.829.25l.011-.016zm2.646 2.606c.259 0 .541-.151.541-.151s.474-.235.906-.386.605-.215.862-.731-.28-.514-1.035-.707-1.125.063-1.21.343-.065.6-.369 1.138c-.304.532.043.49.305.49v.004zm-.242.657c-.733 0-1.555 1.095-1.857 1.289s-.132.385-.132.385.218.452.302.88.109 1.16.109 1.16.107.043.54.043.69-.215 1.104-.516.733-.408 1.318-.516.862-.215 1.51-.558-.343-.945-1.035-1.502c-.691-.532-1.124-.647-1.857-.647l-.002-.018zm-9.771 2.524c.58-.063.841-.353.841-.674s-.294-.674-1.036-.61c-1.82.161-3.586-.486-3.91-2.278 0 0-.614 1.121.516 2.376 1.145 1.251 3.012 1.251 3.6 1.188l-.011-.002zm-6.203 28.487c.092.159.206.258.321.317h2.79c.477-.134.478-.568.502-.867.028-.357.303-1.375.688-3.216s1.049-3.158 1.324-3.9-.276-.989-.468-1.455-.498-1.292-.58-1.703-.745-.357-1.103-.329-.415.604-.47 1.151-.303 2.171-.579 3.573-1.874 3.27-2.314 3.68-.801.578-1.104.578-.964 0-1.295.192-.66.716-.688 1.125.635.634.635.634.523-.303.716-.552.634-.301 1.075-.383.497.082.331.301c-.168.209-.115.261.22.846v.008h-.001zm-4.271-.147c-.211.073-.365.284-.461.456h1.823c-.021-.147-.071-.324-.177-.456-.22-.271-.807-.136-1.185 0z"/><path d="M234.934 190.26c-.223.121-.491.316-.628.511h1.964c.069-.182.09-.425-.15-.618-.44-.366-.881-.063-1.186.104v.003zm17.022-.803c-.214 0-.403.188-.712.401s-.401.544-.449.804c-.009.045-.003.082.012.113h.833c.033-.029.056-.068.056-.113 0-.237.096-.449.452-.757.367-.313.031-.448-.179-.448h-.013zm1.637.896c0-.26-.094-.494-.283-.47s-.499.354-.759.543c-.145.104-.252.244-.333.351h1.233c.073-.147.146-.303.146-.428l-.004.004zm7.577-8.997c.592-.426.5-.544.52-.991s.025-.592-.211-.758a4.14 4.14 0 0 0-1.943-.543c-.832 0-2.395.189-2.984.592s-.877 1.842-.877 2.597.119.873.33.873.57-.543.57-.543l1.253 1.726c.477.706.262.988.05 1.53s-.995 1.984-1.611 2.291-1.092.022-1.824-.094-1.138.094-1.564.52-.022.755.236.755.615-.021.901.331c.196.246.063.806-.036 1.128h3.629c.621-.271 1.046-1.118 1.214-1.577.192-.519.974-1.202 1.353-1.557s.426-.591.426-1.371-.211-1.226-.5-1.771c-.283-.541-.495-1.321-.399-1.77.061-.479.848-.97 1.437-1.396l.03.028zm-5.969-9c.361.588.182.699-.342.812a6.03 6.03 0 0 1-1.899.135c-.815-.066-.792.045-.813.449s-.092 1.261-.566 1.891-1.064.381-1.427.135-.565-.183-.701.27-.386.766-.771 1.44-.634.695-.906.629-.521-.475-.792-.496-.702-.563-1.109-1.215-.61.066-.881.631-.542.968-1.064.897c-.521-.064-1.108-1.031-1.402-1.619s-.477-1.146-.929-1.123-1.199.966-1.698 1.214-.634.158-.859-.155-.521.112-.814.854.023 1.371.432 1.572 1.221-.382 1.765-.741.792-.269 1.357-.269.521.923.771 2.269 1.042 1.531 1.042 1.531.271.224.882-.809.677-2.047 1.268-2.047.635.135 1.223.942 1.085 1.414 1.425.81.634-1.506 1.02-1.821.745-.404.339.18-.59 1.214.249.97l5.318-1.775s1.517-.248 3.257-.339l2.853-.202c.678 0 .701-.067.748-.518s-.317-.359-1.584-.359-2.15.158-3.033.294-1.29.112-1.131-.114.408-.381 1.426-.538 3.101-.271 4.187-.293.745.315.655 1.034.09 1.777.158 2.45.091.879.677 1.82c.592.945 2.624 1.531 3.214 1.847s.499 0 .479-.563.451-.539.972-.248 1.381.542 1.991.699.701.269.701.584.066 1.013.139 1.665c.063.653.043.854-.229 1.26s-1.425 1.571-1.425 1.571-.521 0-1.629.271-1.451.788-1.563 1.237.205.584.251.765c.023.1.013.343 0 .54h.255a6.94 6.94 0 0 1 .398-.587c.386-.492 1.36-.604 1.993-.313.414.192.419.624.376.899h2.533l1.367-2.701c.271-.604.43-.987.451-1.82l-.045-4.226c-.157-.183.045-.723 0-1.621s0-1.574-1.673-1.729c-1.679-.16-2.197-.854-2.764-1.418s-.432-1.864-.883-3.439-1.561-1.819-3.528-2.203-3.418-.427-4.89-.292l-4.323.247c-.996-.126-.839.167-.471.75l-.028.029zm9.507 18.06c-.173.111-.285.242-.364.355h1.711c.009-.145-.016-.309-.168-.49-.25-.313-.755-.138-1.174.135h-.005z"/><path d="M267.773 190.302c-.277.141-.458.318-.565.471h1.732a.6.6 0 0 0-.011-.198c-.052-.271-.574-.563-1.153-.271l-.003-.002h0zm-42.737 1.072c.097.535.223 1.076.38 1.62h54.351a16.43 16.43 0 0 0 .375-1.62h-55.106 0zm36.629-25.794c1.717 1.135 7.17 1.195 9.729 1.705s2.38 2.455 1.595 3.471-4.383 1.141-5.026 1.227c.349.24.874.987.874.987l1.476-.12c1.083-.09 2.979-.357 4.275-1.437 1.296-1.074 1.203-2.812.062-3.979-1.146-1.168-3.044-1.287-4.971-1.497l-5.603-.718c-2.167-.357-3.223-1.227-3.223-2.482s1.177-1.915 2.019-2.154 2.197-.597 3.402-.15 2.62.507 4.999.21 2.925-1.944 2.925-1.944-.304.149-1.508.179-2.08-.507-4.274-.54c-2.201-.029-2.986.751-4.007 1.108s-3.765.63-4.579 2.394c-.808 1.773.127 2.607 1.848 3.744l-.013-.004z"/></g><g class="C"><ellipse cx="247.381" cy="157.435" rx="1.024" ry="1.003"/><path d="M269.4 159.145c-1.356-.117-3.135.24-3.135.24s.332.271.783.24 1.267-.062 2.59.178 2.291-.388 2.291-.388l-2.529-.272v.002h0z"/></g><path d="M256.512 184.274c-.331-.521-.429-.471-.808-.141s-.763-.803-.81-1.511.285-2.876.285-2.876l-2.849.707c-.996.33-1.947.426-2.754.614s-1.233.375-1.661.282-1.329-.143-2.042-.143-.663.143-1.376.85-.901 1.083-1.472 2.404-.76 2.547-.948 4.148c-.124 1.052-.33 1.775-.458 2.152h8.51l.35-.862c.223-.489.69-.799 1.026-.953s.625-.157.778-.529c.154-.38.58-.688 1.027-.889s1.226-.09 1.939.11.959-.289 1.158-.555.291-.642.669-1.129.093-.93.093-.93-.344-.23-.678-.753l.021.004zm13.655.23c-.111-.488-.066-.552-.357-.62s-.781-.155-1.204-.331-.378.951-.378.951-1.005.108-2.141-.022-2.475-1.149-2.94-1.482-.981-1.084-.981-1.084-.357.332-.713.531-.559.907-.624 1.616.823 1.572.891 2.281-.779 2.126-1.204 2.702c-.289.396-.665 1.235-.869 1.727h4.108a2.14 2.14 0 0 1 .439-.687c.42-.421 1.139-.509 1.139-.509s0-.179.152-.551c.155-.379.58-.821 1.604-1.221s2.252-.466 2.252-.466.49-.398.848-.952.095-1.388-.021-1.877l-.001-.006h0z" class="D"/><path d="M235.952 229.516c.765.256 2.193-.302 2.908-1.164s.97-2.183 1.48-2.942l.88-1.323s-.109 1.252-.785 2.934c-.646 1.601-.759 3.791-.605 4.729.308 1.876 1.531 2.18 2.246 1.925.543-.191 1.364-1.021 2.118-2.268.239-.396.407-.944.641-1.383.483-.911.918-2.405 1.132-2.364.472.09.169 1.146-.007 1.856-.358 1.418-1.072 3.499-1.124 4.767s.103 3.55 1.377 3.652 1.938-1.015 2.654-3.602.867-3.399 1.174-3.399.307 1.775.307 2.538a12.85 12.85 0 0 0 .114 1.707c.199 1.384.605 3.048 1.008 3.415.611.56 1.124.456 1.124.456s.508.104 1.123-.456 1.121-4.364 1.121-5.122c0-.763 0-2.538.305-2.538.313 0 .459.814 1.176 3.399s1.376 3.703 2.655 3.602 1.43-2.384 1.379-3.652-.768-3.349-1.126-4.767.152-1.317 1.126.505l.922 1.759c.681 1.074 1.344 1.719 1.834 1.895.712.255 1.938-.051 2.245-1.925.307-1.881-1.123-7.254-1.123-7.254l.612.911c.511.764.766 2.081 1.48 2.944s2.145 1.417 2.91 1.164.866-1.675.307-4.21-2.86-3.954-4.494-5.984c-1.501-1.863-2.66-5.147-2.835-5.66-2.056 1.011-3.858 2.16-5.487 3.849l-4.112 4.378s-.733-.876-4.112-4.378c-1.64-1.699-3.454-2.85-5.525-3.866-.189.432-1.595 3.565-3.113 5.454-.754.938-1.794 1.646-2.533 2.543-.858 1.048-1.382 2.302-1.684 3.665-.546 2.522-.439 3.94.325 4.2l-.018.01zm-.094 8.593l1.497-1.34s.718-.595.54.535-.569 3.453-.33 4.464.359 1.874 1.617 1.131 1.558-1.19 2.158-1.814 1.228-.893 1.078.09-.601 2.469-.391 4.462 1.2 2.29 2.485.595a22.53 22.53 0 0 0 2.457-4.073c.389-.835 1.167-1.549 1.167 0 0 3.326.768 8.169 4.462 9.459 3.694-1.29 4.463-6.133 4.463-9.459 0-1.549.777-.835 1.164 0a22.65 22.65 0 0 0 2.457 4.073c1.287 1.695 2.275 1.399 2.485-.595s-.239-3.479-.392-4.462c-.146-.98.48-.714 1.082-.09s.896 1.072 2.152 1.814c1.261.743 1.38-.117 1.618-1.131s-.151-3.333-.327-4.464.539-.535.539-.535.507.478 1.498 1.34c.985.861 2.343.913 2.343.913s.635-3.493-.831-5.577l-2.002-2.768s-.829-.048-1.465-.288-1.251-.7-1.251-.7v1.428.508s1.795 1.692 2.215 2.201c.419.503 1.259 1.366.031.532s-2.246-1.666-2.246-1.666-.24 1.758-.75 2.2-1.229.506-1.524.39l-.301-.12-.09.687s1.107 2.052 1.257 2.885-.09.742-.598-.327-1.498-2.438-1.947-3.183-1.108-1.252-1.049-.3-.328 2.68-.659 3.302c-.329.628-.539.834-.539.834l.779 2.858c.091.444.03.951-.359.385s-1.499-2.942-1.499-2.942-1.468-.06-1.886-.478-1.078-2.021-1.078-2.021-.601 2.046-1.097 2.702-1.654 1.314-1.654 1.314-.082 3.561-.165 4.191-.108.9-.377.9-.298-.271-.38-.9-.164-4.191-.164-4.191-1.159-.656-1.655-1.314-1.096-2.702-1.096-2.702-.658 1.602-1.078 2.021-1.887.478-1.887.478-1.107 2.377-1.497 2.942-.45.061-.359-.385.779-2.858.779-2.858-.21-.206-.54-.834c-.33-.622-.72-2.347-.658-3.302s-.6-.443-1.049.3-1.437 2.112-1.946 3.183-.748 1.159-.598.327 1.257-2.885 1.257-2.885l-.09-.687-.298.12c-.302.116-1.02.058-1.529-.39-.509-.442-.748-2.2-.748-2.2s-1.018.834-2.247 1.666-.389-.029.031-.532c.418-.509 2.214-2.201 2.214-2.201v-.508-1.428s-.615.456-1.25.7-1.465.288-1.465.288-.537.679-2.003 2.768-.83 5.577-.83 5.577 1.365-.04 2.351-.895l-.002-.018zm18.02 23.264c-.946-1.102-1.265-1.648-1.265-1.648s-.314.549-1.26 1.648-3.159 2.822-3.159 2.822.197 2.902 1.264 4.471c.898 1.324 1.759 2.533 3.156 3.451 1.4-.918 2.261-2.127 3.158-3.451 1.069-1.568 1.265-4.471 1.265-4.471s-2.217-1.73-3.158-2.824l-.001.002h0z" class="B"/><path d="M252.134 264.927c.088.674.03 2.375.442 2.375s.353-1.701.441-2.375.117-2.289.117-2.289h-1.121c.011-.01.042 1.605.126 2.283l-.005.006z" class="C"/><path d="M252.565 105.541c-3.953.066-8.589-.476-11.141-1.419l-2.72.596c4.205 1.573 7.718 2.184 13.86 2.245 6.143-.062 9.656-.671 13.86-2.245l-2.723-.596c-2.552.939-7.188 1.481-11.145 1.419h.009zm14.379-3.277c-.313-.26-2.113-1.534-2.58-1.766s-.104-.858-.027-1.117 2.113-.832 3.234-1.118.938-.521.938-.521-.653-.753-4.722-1.195-11.207-.337-11.207-.337-7.146-.105-11.213.337-4.719 1.195-4.719 1.195-.183.234.939.521 3.152.857 3.232 1.118.443.884-.025 1.117-2.271 1.506-2.581 1.766-.338.676.157.702.503.019 1.902-.261c4.186-.827 8.125-1.06 12.309-1.115 4.181.057 8.119.288 12.306 1.115 1.398.276 1.406.286 1.902.261s.475-.44.157-.702h-.002zm-4.628 1.716c-2.79-.327-4.563-.687-9.729-.641s-6.937.313-9.729.641c1.76.701 4.603 1.054 9.729 1.054 5.132 0 7.976-.354 9.729-1.051v-.003zm-10.589-38.042l2.128-.17-.199-1.85 2.288.315.095-1.825-2.403.22.421-1.971-2.647-.024.463 1.995-2.331-.22v1.825l2.309-.266zm4.647 2.994h-2.86v-2.424a4.17 4.17 0 0 0-.845-.083c-.256 0-.504.022-.747.066v2.441h-2.959a3.1 3.1 0 0 0-.154.976 3.16 3.16 0 0 0 .027.413h7.663a3.16 3.16 0 0 0 .025-.413c-.01-.34-.072-.667-.168-.977h.018z" class="B"/><path d="M252.67 73.387c1.702 0 3.145-.995 3.657-2.373h-7.317c.514 1.38 1.962 2.373 3.663 2.373h-.003zm1.576-6.657v1.666h1.896c-.388-.734-1.063-1.328-1.898-1.666h.002zm-3.161 0c-.83.338-1.504.931-1.899 1.666h1.899V66.73z" class="D"/><path d="M254.864 97.66l-2.296-1.007-2.31 1.139c-.814.405-.708.287-.959.875s.024.798.38.954l2.929 1.467 3.162-1.467c.617-.286.503-.574.332-1.021-.168-.442-.516-.6-1.229-.94h-.009 0z" class="C"/><g class="B"><path d="M250.11 98.406l2.518 1.274 2.488-1.274-2.551-1.186zm2.455-9.78s-.213.883-.498 1.258-.498.71-.417 1.166.607.761.914.761.833-.304.913-.761-.131-.791-.417-1.166c-.271-.375-.492-1.258-.492-1.258h-.003z"/><circle cx="252.586" cy="92.705" r=".47"/><path d="M250.896 90.287s.818-.903 1.121-1.477l.551-1.083.547 1.083c.304.571 1.121 1.477 1.121 1.477s1.152-.604 1.819-2.798-.153-4.515-.457-7.013l-.545-6.8c-.872.497-1.695.708-2.487.721-.792-.014-1.617-.225-2.488-.721l-.546 6.8c-.303 2.499-1.119 4.814-.453 7.013.671 2.194 1.816 2.798 1.817 2.798h0z"/></g><g class="C"><ellipse cx="252.565" cy="85.35" rx="1.987" ry="1.906"/><ellipse cx="252.565" cy="80.881" rx="1.91" ry="1.834"/><ellipse cx="252.565" cy="76.607" rx="1.823" ry="1.749"/></g><g class="B"><ellipse cx="252.565" cy="85.008" rx="1.056" ry="1.009"/><ellipse cx="252.565" cy="80.553" rx="1.015" ry=".97"/><ellipse cx="252.565" cy="76.294" rx=".889" ry=".852"/></g><path d="M252.513 233.969c.122.026.146-.286.17-.869l.244-2.802c.145-.823-.221-.773-.44-.726s-.339.675-.339 1.038l.098 2.876c-.001.436.145.461.267.483z" class="C"/><path d="M231.89 249.995l3.65-2.492c2-1.323 2.737-2.787 2.737-2.787h-.708c-.383 0-.706-.528-.734-1.058s0-1.611.146-2.875-.207-2.287-.207-2.287-.852.791-2.146 1.466-1.827.352-1.827.352l-.324-1.287-1.354 2.55c-.796 1.378-2.943 2.903-4.475 4.047s-3.209 2.348-4.476 2.79-.529 1.025-.529 1.025 1.267 1.26 4.533 1.848 4.832-.734 5.714-1.292h0zm11.429-1.262c-1.167-.122-1.864-.559-2.09-1.817-.147-.819.06-3.962.06-3.962s-.384.321-.824.854c-.442.525-1.443.645-1.443.645s-.146.439-.589 1.144-1 1.558-2.119 2.26l-3.269 2.229c-.854.705-1.854 1.526-2.973 2.141s-2.119 1.615-2.503 3.256-.087 2.171 1.208 2.083 1.442.027 3.532-.498 5.064-2.846 7.242-4.225 3.768-4.11 3.768-4.11h0zm5.794 1.899s-.885-1.112-1.207-2.376l-.94-3.754s-.296.792-1.001 2.286-1.914 1.851-1.914 1.851-.059.644-1.061 1.904-2.472 2.436-3.975 3.317-3.443 2.084-4.504 3.577-1.147 3.051-.646 3.725 1.205-.088 2.206-.584 3.857-.941 7.802-3.055 5.24-6.891 5.24-6.891h0zm1.71 8.78c1.091-1.613 1.268-5.542 1.268-5.542l-.913-.707c-.53-.439-1.56-1.994-1.56-1.994l-1.354 2.612c-.707 1.262-1.061 1.698-2.533 3.05s-3.474 2.67-4.328 4.105-.383 4.313.178 5.279 1.354.645 2.177-.146l2.531-2.229c1.443-1.233 3.445-2.817 4.534-4.428h0z" class="B"/><path d="M237.872 226.515l1.763-3.327c.529-.727.906-1.552.906-1.552s-1.41 1.278-1.964 2.178-.905 1.775-1.16 2.753c-.249.972-.124 1.124.455-.052zm5.595 1.001l.353-1.294s.229-.75.103-.801-.707.467-1.109 1.741l-.883 3.201c.124.079 1.308-2.072 1.536-2.847h0zm4.407 3.525l.252-.575s.454-1.45.454-1.754c0-.298-.151-.648-.528.103s-.403 1.477-.479 1.801-.503 1.452-.379 1.553.429-.576.68-1.128h0zm-13.685 13.345l-.59-.352s-.353.469-.853.997-1.063.733-1.443 1.231-.972 1.115-1.884 1.584-1.267.616-1.088.764.793-.205.793-.205.265-.029 1.354-.675 1.354-.996 2.061-1.612 1.65-1.732 1.65-1.732zm4.774 5.609c.412-.438.854-.734.618-.968s-.53-.206-.913.114l-1.974 1.791c-.5.438-.911.705-1.411 1.085s-1.591.968-2.119 1.262-.029.325-.029.325.412-.208.853-.354 1.706-.705 1.706-.705.501-.233 1.179-.702 1.678-1.409 2.09-1.848h0zm5.5 3.786c.353-.702-.029-.5-.618-.265s-1.914 1.674-2.679 2.199-1.413.734-2.061 1.057-.647.498-.618.646.295.145.559.027 1.178-.646 1.178-.646.383-.115.736-.145.853-.414 1.649-1.085 1.5-1.081 1.854-1.788h0zm2.561 5.016c-.972.586-2.649 1.906-3.091 2.787s-.737 1.494-.59 1.643.619-.146.824-.498.647-.881.647-.881 1.677-1.643 2.295-2.021 1.62-1.467 1.855-2.111.059-.998.059-.998-1.029 1.491-1.999 2.079h0z" class="C"/><path fill="#c52126" d="M221.09 118.481c-.89-.519-3.283-1.534-5.831-1.751s-4.515.167-6.628.734c-1.515.406-2.742.469-3.955.146-1.824-.482-3.236-2.117-3.717-4.12 0 0-1.683 2.142.037 4.465.825 1.118 1.901 1.816 2.998 2.037 3.566.715 7.065-1.449 10.037-1.639 2.854-.184 5.095 1.613 5.095 1.613s.674.557 1.626.008 1.228-.974.338-1.493z"/><g class="B"><path d="M210.816 221.062l-.842-.106c-.491-.068-1.544-.42-1.859-.561s-.807-.174-1.123.177-2.878 1.853-2.878 1.853h4.246c1.473-.001 2.456-1.363 2.456-1.363h0zm11.954-.72v-.421l-.564-1.211s-.661.41-1.304 1.072c-.827.854-1.719 2.057-2.116 2.563-.708.898-1.696 1.746-.849.31l1.809-3.017c.679-.956 1.188-1.378 1.104-1.438s-.623-.139-2.404-.364-2.882-.901-3.701-1.381l-2.29-1.269-4.157 1.549c-1.132.28-1.81.45-.707.985s2.035.704 2.572 1.042 2.205.872 3.223.872 2.741.029 2.063.734-1.441 2.056-2.176 4.11c-.734 2.06-.763 3.889-.763 4.789a16.81 16.81 0 0 0 .112 1.805s1.242-1.38 4.581-3.465l5.199-3.071c.622-.277.935-.277.819-1.069l-.451-3.125h0zm12.741-10.072l-.62-.28c-.056.016-.106.029-.152.056-.392.195-2.427 1.556-3.248 2.879s-1.645 1.438-.743 0 1.564-2.258 2.27-2.879l.709-.593c-1.636-.784-3.415-1.735-5.134-2.925-.224.441-.651 1.224-1.135 1.729-.704.739-2.271 1.362-2.271 1.362s1.252-1.283 1.685-2.257c.273-.621.453-1.289.546-1.69a22.16 22.16 0 0 1-3.368-3.196c-.209.844-.887 2.892-2.891 5.12-2.623 2.917-7.868 4.395-7.868 4.395s-1.839.194-.352.585 2.544 1.051 5.44.543l3.482-.736c.391-.117 1.448-.039 0 .505s-4.813 1.049-6.104.934-3.053-.391-1.213.584 2.622 1.359 3.756 1.359 1.604.351 2.702.351 1.408-.191 2.19-.351c.783-.152 1.292.117 1.292.43s-1.056 1.167-1.018 3.304.195 3.54.392 4.159c.196.627.666 1.633.979 2.219s.433 1.166.744-.079l1.292-4.236c.273-1.206.431-1.244.547-1.866s.784-1.09.471.038l-.899 3.577c-.236 1.013-.783 2.876.154 1.4s4.462-5.404 5.049-6.105l1.486-1.941c.43-.585 1.645-1.362 2.231-2.216.53-.774 2.087-2.28 2.754-2.821l-3.155-1.358h0zm-48.656-89.755c.094 2.144 2.481 6.243 3.839 8.433s1.731 3.072 1.499 3.213-.796-.979-1.546-1.955-2.199-3.261-3.417-4.984-2.996-5.823-3.229-6.195-.329-.605-.937-.142-1.778 4.985-.374 8.06 3.511 5.309 4.4 6.381 2.06 2.747 1.872 2.889-.515-.281-1.591-1.398l-4.025-4.425c-.951-1.135-2.24-3.438-2.693-4.263-.169-.313-.389-.229-.552-.064-.386.385-1.002 1.278-.733 3.722.375 3.4 2.152 5.356 3.743 7.081s3.186 3.167 2.95 3.399-1.872-1.211-2.996-2.282l-4.494-4.472c-.608-.745-1.498-.373-1.45 2.562s3.322 5.917 4.681 7.548 3.044 2.605 2.904 2.934-1.498-.512-2.388-1.119l-4.869-3.214c-.653-.465-.982.419-.141 3.214s3.278 5.031 4.729 6.056 3.792 2.28 3.651 2.609-1.123-.095-2.479-.747-2.996-1.257-4.167-1.583-1.17.512-1.17.512-.235 2.375 1.498 4.286 3.697 2.654 5.569 2.979 2.154.42 2.106.7-.233.326-.655.326l-3.745.187c-1.593 0-2.434.372-2.434 1.07s-.047 1.631 2.34 3.215 5.055 1.817 6.179 2.051 1.17.326.938.652-.749.279-2.528.465-2.854.886-3.089 1.351.141 1.865 1.593 2.842 3.323 1.306 6.133 1.119 3.511-.232 3.605.232-.843.606-2.248.841c-1.405.229-2.482.229-3.277.884s-.187 2.004 1.17 2.981 4.729.979 6.134.885 3.558-.604 3.697-.231-1.028.932-2.479 1.442-1.874.837-2.154 1.443-.047 1.165 1.686 1.817 4.26.65 5.569.046 2.014-.839 2.249-.604 0 .467-.282.793-1.403 1.209-2.855 1.584-1.592.372-2.106 1.535.795 2.098 3.417 2.191 6.134-.931 7.257-1.584 1.546-.792 1.731-.56.141.373-.42.791-2.341 1.677-3.23 1.909-.982.886-.982 1.491-.234 1.815 2.106 2.377 5.104.141 7.631-1.632c.813-.567 1.287-1.038 1.555-1.447-.206-2.376-.099-4.013.189-5.521a9.2 9.2 0 0 1-2.401-.577c-1.403-.559-1.965-1.861-2.293-2.563s-.797-.698-1.359-.512-1.124.421-1.919.373-2.48-.466-3.699-1.909-.983-2.841-1.03-3.542-1.171-.187-1.731-.187-2.2-.232-3.698-1.259-1.498-2.421-1.639-2.98-.749-.931-1.217-1.117-1.218-.37-2.248-1.21-1.403-2.47-1.451-3.028-.656-.604-2.763-1.676-1.919-3.307-1.825-4.192 1.076-1.63 1.076-1.958-.702-.418-1.404-.837-2.481-1.118-2.528-3.726 1.687-2.89 1.687-2.89-.329-.142-1.031-.559-2.62-1.724-2.62-3.262.701-2.235 1.216-2.608 1.919-.745 1.919-.745-.89-.56-1.264-1.77-.516-2.7.374-3.773 2.387-1.07 3.183-1.07 1.498.419 1.779.188.327-.419.047-1.025-.328-2.097-.094-2.607.281-1.537 2.296-2.189 4.117.699 4.773 1.072.375-.514.375-1.165-1.357-2.282-2.903-4.612-2.246-3.541-3.979-7.081-2.856-8.104-3.09-9.269-.702-.607-.702-.607-.468.188-1.545 2.889c-1.083 2.698-1.269 5.165-1.177 7.307h0z"/><path d="M222.171 168.156c-1.206-.063-2.773-.721-3.979-2.459s-3.014-2.161-6.149-2.104c-3.137.063-4.583-1.438-5.368-3.599s.121-4.622 3.317-6.182 4.644-3.301 4.763-6-3.194-6.061-6.511-9.84-5.91-9.122-5.91-9.122-.965 1.262-.965 2.521.481 2.58 0 2.939-.664-.54-2.593-1.379-3.499-.96-4.704.419 0 3.78 1.086 4.921 1.988 1.981 1.688 2.401-1.93-.66-2.473-1.021-1.81-1.739-3.68-1.561-2.532.719-2.714 2.28 1.689 2.938 2.896 3.54 1.688 1.14 1.386 1.379-.604 0-1.146-.179-2.05-.359-3.014 0-2.534 1.68-1.087 3.3 4.462 2.22 5.066 2.339.904-.061.964.419-1.268.481-2.896.542-2.108 1.62-1.869 2.82 2.955 2.52 4.461 2.76 2.051 0 2.172.419-.181.6-1.025.841-2.473.42-2.775 1.74-.36 1.92.906 3.061 3.318.962 3.919.841 1.328-.78 1.932-.18-.544 1.079-1.569 1.801-.964 2.102.784 3.061 3.498.599 4.221.361 1.69-1.38 2.171-.662-1.507.961-2.353 1.98-.541 2.698 1.146 3.719 4.462.3 4.945-.12 1.083-.597 1.446-.237-.181 1.317-.543 2.159-1.025 3.301 1.508 4.259 4.825-1.199 5.247-1.62.844-.48 1.206-.3.181.539-.121.962c-.302.417-.964 2.218.844 3.48 1.236.857 2.583.796 3.313.67l1.366-5.011h-.377c-.241 0-.29.36-.29.503s.072.266-.146.266-.241.12-.557.335-.603.479-.771.361.65-.553.87-.816.651-.673.676-.959.17-.457.604-.817a1.57 1.57 0 0 0 .325-.374 66.2 66.2 0 0 0 .834-5.021l.314-3.799-.791-.037h0zm-51.54-37.403c2.694 5.415 6.499 8.464 6.499 8.464s-.5-1.346-.721-2.271-.05-1.973-.05-1.973-.955-1.217-2.719-3.919-2.696-6.691-2.696-6.691 1.643 3.99 2.916 6.109 2.746 3.847 2.746 3.847.514-1.874.881-1.972.638.195.955.608.591.375.591.375-.436-.895-1.105-1.965c-.304-.487-.748-1.014-1.062-1.504-1.005-1.577-3.171-4.573-4.28-7.569s-3.54-10.513-3.963-12.723-.846-1-1.269.632-1.003 3.941-.634 7.412 1.215 7.726 3.911 13.14h0zm3.484 14.619l2.483 1.733s-.235-.543-.382-1.194-.211-1.993-.211-1.993l-2.004-1.743c-.823-.715-1.858-1.638-3.904-4.157s-.402-1.008 1.265.8 4.854 4.429 4.854 4.429l.021-.588c.022-.545.191-.944.486-1.321s.14-.432-1.657-1.798-6.445-6.571-8.348-9.674-3.963-7.308-3.963-7.308-1.003 6.204 2.801 13.038 7.555 9.04 8.559 9.776zm19.961 39.132c2.085-.802 1.513-2.845 1.513-2.879s-1.278.403-2.453.837-4.069 1.271-5.212 1.305-1.144-.131-1.176-.301.874 0 2.521-.3 4.539-1.808 5.042-2.141.438-.405-.302-.471-1.377-.4-1.647-.636-1.041.103-2.925.537-5.784 1.104-8.775 1.104a35.32 35.32 0 0 1-6.253-.602c-.471-.099-.976.165.472 2.575s6.521 3.714 10.053 3.68 7.059-1.905 9.142-2.708h0zm-9.382-4.973c3.642.03 5-1.045 5-1.045s0-.187-.492-.922-.401-1.994-.401-1.994l-2.376.368c-1.513.215-3.272.43-5.217.093s-1.11-.555.432-.37 4.506-.368 5.464-.706.555-.645-.093-.862c-.647-.211-2.406-1.318-2.406-1.318s-4.413.553-8.518.094-6.698-1.505-7.531-1.629-.802.216-.802.216-.217.369 1.202 2.579 4.197 3.653 6.543 4.329 5.552 1.137 9.195 1.167h0zm-.935-8.478s-.154-.213-.371-.953.402-1.288.402-1.288-.833-.246-3.551-.583-2.869-.553-4.536-.923-2.776-.857-2.746-1.043.555.092 1.543.459 5.153.799 6.913 1.046 2.747.431 3.056.244 1.387-.461 1.387-.461-.741-.212-1.666-.367a5.91 5.91 0 0 1-2.252-.891c-.494-.339-.648-.433-2.87-.675s-4.012-.953-7.994-2.396-6.975-3.163-7.777-3.807-.741-.185-.524.644.187 1.874 2.192 4.207 2.993 3.348 8.053 5.19 10.741 1.597 10.741 1.597h0zm-14.965-12.251c4.476 3.131 9.72 4.282 10.831 4.42.251-.289-.271-1.33-.03-1.965.289-.761.772-.769 1.851-.83s.371-.276.125-.276-.308-.03-2.099-.491-3.61-.737-6.08-1.659-3.208-1.597-3.146-1.781 1.142.584 3.427 1.444 4.937 1.196 6.388 1.505.185-.309-.495-.708-1.636-1.874-1.636-1.874-1.604-.276-4.228-1.074-4.813-1.69-7.005-2.917c-.754-.423-1.481-.969-2.267-1.529l-3.597-2.586c-.896-.644-.618-.123-.525.277s.709 2.242 2.129 4.269 1.882 2.641 6.357 5.775zm-.734-8.811c4.412 3.471 8.208 4.543 8.856 4.82s.586-.092.463-.46-.218-1.563-.218-1.563l-3.333-1.906c-1.76-1.015-3.703-2.395-5-3.284s-.524-.829-.123-.493 2.19 1.383 3.979 2.488l4.505 2.702s.063-.583.434-.953 1.295-.273 1.295-.273-.462-.462-.741-.892-1.729-.89-3.364-1.66-4.567-2.915-6.728-4.727-6.358-6.356-6.635-6.727-.463-.307-.495.153-.185.768.277 2.855c.469 2.09 2.413 6.449 6.828 9.92zm15.616-32.814c.501 1.032 1.048 1.813 1.442 2.485l.933 1.674s.119-.358.025-.968-.19-1.456-.023-2.463c.087-.54.204-1.079.175-1.559-.035-.546-.218-1.017-.293-1.327l-1.086-4.951c-.306-1.807-.635-4.388-.612-6.665s.354-1.126.354-.023.118 2.793.472 5.397 1.461 6.569 1.461 6.569.07-.61.401-1.479.874-1.853 1.298-2.933.275-1.26.275-1.26-1.55-7.367-1.957-10.85-1.061-12.633-1.061-12.633c-2.267 2.265-3.953 8.228-4.252 13.868-.225 4.249.466 8.182.667 9.776.397 3.16.948 5.625 1.781 7.342h0zm-5.028 11.627c.071-1.669.456-2.931 1.54-3.302 0 0-.958-1.668-1.795-4.049-.572-1.629-1.045-3.719-1.285-5.323-.593-3.948-1.066-8.016.117-1.354s2.606 9.018 2.606 9.018l1.718 2.771c-.255-1.217-.293-2.071-.229-3.4s.237-3.13.645-4.557c0 0-2.074-4.125-3.376-9.076s-2.048-9.457-2.074-12.143l-.177-3.596s-2.133 1.592-2.842 9.667 1.422 15.797 2.486 18.745 2.666 6.599 2.666 6.599zm23.257 61.582l-1.343-.87c-1.01-.635-.706-2.543-.706-2.543l-1.009.704c-.74.502-1.58 1.067-2.589 1.472l-2.151.869c-.639.201-.469-.065.067-.369s.707-.468 2.051-1.002 4.035-2.878 4.035-2.878l-1.75-.101c-1.109-.033-2.521-.602-2.521-.602s-1.107 1.004-5.58 2.909-8.271 2.407-8.271 2.407.471 2.277 2.623 3.046c1.781.771 4.236 1.239 9.044.102s8.1-3.144 8.1-3.144h0zm5.888 4.555c.37-1.876-.707-3.179-.707-3.179s-.235.132-.907.735-1.649 1.741-3.53 2.675-2.556.87-.739-.101 4.472-3.714 4.472-3.714l-.706-.269c-.707-.268-1.917.201-6.96 3.212s-8.002 3.112-8.002 3.112 2.252 2.71 8.372 2.508c6.119-.196 8.338-3.108 8.707-4.979h0zm11.566-2.179s-.672.937-1.58 1.538-3.328.972-3.328.972-.102.27-.571.869c-.471.604-1.515 2.04-2.589 2.812s-2.757 1.271-2.858 1.069.975-.602 2.019-1.238 1.983-1.808 2.689-2.608-.303-.669-.303-.669-1.276.033-2.454-.066-.941 0-1.278.569-.807 1.07-1.681 2.074l-3.093 3.543c-.672.805-.168 1.039-.168 1.039s.303.501 3.025.803c1.683.186 3.502-.023 5.419-1.123 1.188-.685 2.412-1.768 3.66-3.126 3.259-3.545 3.091-6.458 3.091-6.458zm1.448 7.32l-1.044 1.24s.472-1.44.875-2.11l.622-.931c-.451-1.006-.82-2.086-1.093-3.25-.299.962-1.23 3.786-2.389 5.621-1.408 2.238-2.654 3.043-1.848 3.646s2.386.736 4.169-.136c1.721-.839 2.218-2.305 2.462-3.487l-.848-1.455c-.219.137-.544.394-.906.862h0z"/><ellipse cx="220.408" cy="110.63" rx="1.252" ry="1.138"/><path d="M217.774 108.481c1.143-.026 1.756-.563 3.017-.442 1.486.144 3.502 1.004 5.949 2.295 1.914.86 4.439 1.29 6.873.596.682-.194 1.355-.565 2.007-.93 2.975-1.675 2.255-4.976 2.255-4.976-2.195 1.573-4.91 2.42-7.438 2.249 0 0 .191.145.624.574s1.223.933.959 1.149-1.343-.814-2.255-1.484-2.256-1.578-4.559-2.246-4.896-.718-6.622.236-1.872 2.154-1.632 2.632c.132.271.45.357.822.347zm32.336 24.097c-.527-.145-1.438-.287-2.639-1.388s-4.079-4.256-4.417-4.829-.192-1.101.624-1.437 1.391-1.387 1.391-1.387-1.773-.671-2.974-1.532-3.983-3.347-4.368-3.969-.19-.717.385-.908.722-.575.722-.575-1.296-.812-2.495-1.769-2.833-2.535-2.833-2.535c-1.797.718-4.618.416-6.143.144-2.688-.478-4.653-1.578-4.653-1.578s-.098.431-.435 1.244-1.583 1.292-2.832.478-.959-2.581-.959-2.581-1.008-.622-3.07-1.387-3.742-.86-5.422-.097-2.496 3.062-2.496 4.783.914 1.004 1.104.764.577-1.482 2.688-1.816 4.031.67 6.431 2.629 2.927 2.104 4.126 3.348.24 1.913-1.822 2.583-4.703-.668-4.8-.62c-.396.197.891 2.021 2.67 2.71s4.056.241 5.825-.463c1.2-.478 1.423.017 1.774.382 1.948 2.035 2.455 3.943 2.782 6.267.997-.305 1.687-1.292 1.825-2.104.065-.389.192-1.243.864-.622s1.2 4.064 1.2 5.644-.481 3.683-.481 3.683l.481-.048c.288-.048.862-.382 1.632-.812s.814.048.814.907.288 2.487 1.44 5.404 2.831 3.873 2.831 3.873.337-.574.673-1.72.577-3.396.577-5.357-.529-6.169-.529-6.169 2.401 2.918 4.896 3.636 4.991.287 6.047-.908.093-1.723-.434-1.868h0zm-16.415 7.55s-.758 1.665-1.172 2.258-.597.687-.597.687.758.638 1.861.979l2.091.548s-1.242-1.689-1.676-2.876l-.507-1.596h0zm14.987-.981l-.597-1.461c-1.531.307-4.438-.408-5.698-1.164 0 0 1.15 2.327 2.297 3.126l1.311.846s-1.148.183-2.688-1.324-2.228-3.242-2.228-3.242.344 4.019-.276 6.481l-.758 2.784s3.261.57 6.891-.435 3.905-1.324 3.905-1.324.435-.112-.138-.865-1.654-2.487-2.021-3.422h0z"/></g><path d="M242.091 130.326c-1.117-1.275-1.229-1.581-1.229-1.581s-.39.388-.057.942 1.926 1.94 3.015 2.551a7.74 7.74 0 0 0 2.178.803l-.057-.222c.001.003-2.734-1.218-3.85-2.493zm-4.429 8.373l-.278-5.796c0-.748-.474-.555-.474-.555l-.558.249 1.09 7.379c.119.795.514.728.714.691-.398-.204-.477-1.738-.494-1.968zm-6.853-21.845c-.415-.41-1.347-.718-.447.275s2.072 2.231 2.417 3.261.553 2.298-.034 2.024-1.001-.275-1.623-.789-1.795-1.374-2.28-1.51-1.348 0-.656.753 1.452 1.477 2.765 2.438l2.763 1.854 1.381.893s-.623-4.118-1.763-5.936-2.108-2.85-2.523-3.263zm-22.396 68.974c-.843.636-1.944.895-1.944.895s-.523-.026-.523.175.61 0 1.248-.115 1.511-.75 1.829-.982.784-.519.639-.924-.409.316-1.249.951h0zm7.23 3.85c-.173.199-1.565 1.24-1.565 1.24s-.437.286-.9.459-.579.437-.579.437.087.112.579-.027c.493-.147 1.946-1.157 2.408-1.563s.669-.52.495-.69c-.175-.177-.263-.061-.438.144h0zm-29.311-51.751c.26.315.576.746.722.603s-.029-.287-.376-.689l-.548-.603s-.49-.776-.78-1.064-.722-.431-.173.229l1.155 1.524zm-2.227 4.849l.953.919c.346.373.606.773.809.574s-.52-.63-.837-1.033a5.22 5.22 0 0 0-.981-.978c-.405-.314-.896-.573-.896-.573s.635.805.952 1.091h0zm.831 7.83c.55.577 1.363.75 1.48.521s-.06-.417-.521-.646-1.212-.716-1.588-.976-.751-.547-1.011-.804-.567-.492-.664-.404.765 1.009 1.024 1.154.729.579 1.28 1.155h0zm1.594 6.267c0-.231.058-.346-.405-.376l-1.104-.114s-.899-.347-.959-.173.754.521 1.104.578.782.174.986.287.378.027.378-.202h0zm.693 6.809c-.985 0-1.828-.231-1.886-.088s.464.377.959.549 1.422.232 2.061.261.755-.115.727-.433-.873-.289-1.861-.289zm7.725 7.455c-.146-.143-.493-.027-1.045.088s-1.45.289-1.972.261l-1.655-.058-.639.144c0 .146.841.115 2.061.261s2.031-.115 2.611-.204.784-.345.639-.492h0zm3.19 5.307a3.95 3.95 0 0 1-1.509.29c-.463 0-1.567.2-1.567.2s-.522.061-.436.262.261 0 .724-.061.813 0 1.626-.028 1.278-.231 1.771-.316 1.044-.347.783-.663-.782.085-1.392.316h0zm6.213 4.015c-.349.347-1.683 1.241-1.683 1.241s-.262.203-.785.462-.493.376-.406.521.406-.204.696-.319 1.248-.75 1.741-1.152 1.131-.725 1.015-1.011-.229-.087-.579.257l.001.001h0zm-10.338-51.979s.115.265 1.188 1.597.498.075.229-.265l-2.374-3.158c-.535-.609-.612-.306-.344.074l1.301 1.752zm-2.255 6.842c.152-.152-.193-.305-.804-1.064l-1.838-2.321s-.347-.722-.461-.646.423 1.217.92 1.713 1.147 1.445 1.492 1.864.537.605.691.454h0zm2.969 12.823c0-.372-1.212-.315-1.76-.431l-1.53-.315s-1.154-.201-1.183-.057.229.285.866.402l2.31.516c.72.115 1.297.259 1.297-.115h0zm-2.969-6.922c.803.646 1.338.95 1.759 1.18s.767.569.997.304-.192-.457-.88-.761-1.033-.571-1.033-.571l-.729-.38c-.346-.191-.92-.419-.114.228h0zm6.926-4.567c-.499-.418-.919-.649-.919-.649s-.612-.57-.728-.38.688.762 1.071 1.104 1.073 1.332 1.416 1.142-.344-.8-.84-1.217zm-4.524 17.872l-1.104.287c-.435.115-.464.319.32.319s1.103-.203 1.885-.349 1.046-.23.929-.49-.521-.172-.842-.086l-1.188.319zm1.218 6.474c-.06.146.55 0 .956-.146l1.742-.721c.494-.144.494-.231.494-.521s-.523-.06-1.16.145-1.452.838-1.452.838-.523.26-.58.405zm8.385 3.921c.583-.349.698-.607.495-.781s-.378-.144-.842.232l-1.364 1.01-.813.348c-.349.173-.783.462-.668.635s.843 0 1.22-.317 1.393-.783 1.972-1.127h0zm3.957 5.203c.232-.202.928-.431 1.248-.666.319-.229.521-.922.262-1.009s-.407.288-.958.691l-2.437 1.646-.495.204c-.523.2-.29.346.146.287s.726-.06 1.248-.461l.986-.692zm5.856 4.931c.494-.199 1.221-.837 1.567-1.151.349-.32.783-.724.522-.925s-.55.06-.958.432l-1.481 1.504s-.145.027-.725.491c-.581.459.029.373.231.172s.351-.319.844-.523h0z" class="C"/><path d="M237.453 101.076l2.361-1.665-2.781-.708-1.784 1.414z" class="B"/><ellipse cx="245.009" cy="99.124" rx="2.252" ry="2.157" class="C"/><g class="B"><ellipse cx="245.009" cy="98.668" rx="1.36" ry="1.29"/><path d="M240.307 91.713c.58.214 1.332.12 1.332.12s.229-.993-.323-1.478l-1.372-1.151-.402-.431-.042 1.396c-.04.538.229 1.328.807 1.544h0z"/><ellipse cx="241.503" cy="92.799" rx=".413" ry=".389"/><path d="M238.428 92.382c-.176.242-.551.63-.551.63s.458.015.835.282.86.496 1.305.443a.61.61 0 0 0 .538-.766c-.094-.294-.308-.602-1.037-.872s-.914.041-1.09.283zm1.574 2.613c-1.414.126-3.284-1.427-3.284-1.427-.174 1.246-.95 1.896-2.14 2.132l.108.056a8.89 8.89 0 0 0 2.413.759c.591.089 1.117-.011 1.752-.138.768-.154 1.627-.371 2.094-.656.854-.522.599-1.88.599-1.88s-.125 1.028-1.542 1.154h0 0zm-5.509-1.41c-.58-.217-1.451-.632-1.813-.651s-.891-.108-.799.562.779.995 1.449 1.012 1.018-.234 1.417-.434.326-.272-.254-.489zm-4.428-2.387c-.635-.452-1.2-.578-1.2-.578s-.417 1.085-.181 1.755.727.849 1.324.83 1.489-.326 1.234-.778-.543-.776-1.177-1.229h0z"/><ellipse cx="230.641" cy="94.249" rx=".49" ry=".351"/><path d="M231.995 88.853c-.394-1.85-.327-3.861 1.438-6.426s4.835-3.604 4.835-3.604.097-.195 1.077-1.232 2.974-2.336 2.974-2.336l-3.628.985.001.068c0 .888-.709 1.607-1.585 1.607a1.56 1.56 0 0 1-.9-.286c-.714.138-3.09 1.549-3.697 2.052a1.62 1.62 0 0 1 .239.848c0 .886-.71 1.604-1.586 1.604-.263 0-.509-.063-.727-.179l-.203.342a16.27 16.27 0 0 0-1.137 2.583c.406.278.678.798.678 1.393 0 .883-.602 1.601-1.345 1.607-.051.521-.047.882-.027 1.038.065.521.263.844 1.177 1.104s2.156 1.852 2.156 1.852c.087-.002.74-1.169.26-3.02h0zm5.626-11.845c.334-.269.393-.68.126-.916s-.746-.209-1.08.063-.392.683-.126.918.747.209 1.08-.065zm-5.92 3.974c.374-.339.44-.854.142-1.15s-.842-.261-1.218.08-.44.852-.145 1.147.845.264 1.221-.077z"/><ellipse cx="228.175" cy="85.979" rx=".914" ry=".892"/><path d="M247.906 73.371c-.475.104-1.352.387-2.664 1.069h.023c.912 0 1.622.58 1.622 1.331s-.83 1.567-1.741 1.567-1.533-.787-1.533-1.538a1.14 1.14 0 0 1 .117-.503l-1.249.799c-2.908 1.948-3.593 2.89-5.029 5.552s-1.961 5.581-1.341 7.302 2.908 2.078 2.941 2.078-.262-.261-.296-.583.064-.488.164-1.139.033-1.426.033-1.426.522-.066.817.292l1.012 1.134c.294.356 1.077 1.04 1.077 1.04s.459-.65.459-1.429-.521-1.622-.622-2.985.622-3.799 1.959-5.583 3.855-3.406 4.606-3.765.883-.909.915-1.233.098-.55.163-1.362-.683-.78-1.433-.618h0zm-2.887 3.083c.515 0 .983-.46.983-.882s-.399-.747-.916-.747-.933.343-.933.762.351.867.866.867zm4.324 16.969c.702.285 1.493.125 1.865-.122s.498-.879.056-1.241-1.095-.347-1.502-.122-1.324.865-1.324.865.204.339.905.62h0zm2.246.782c-.253.388-.44.624-1.218.657s-1.625-.018-2.132-.522-.862-1.214-.862-1.214l-.88-.016s-.286 1.214-.677 1.549-1.741.39-2.334-.051-1.134-.977-1.232-.909 0 .506.607 1.027 1.031.844 2.014.844h5.581s1.133.065 1.456-.607.335-1.096.185-1.264-.254.119-.508.506h0zm-8.49-.939c.837.462 1.3.181 1.604-.191s.362-.541.362-.541-.791-.282-1.175-.507-.645-.439-1.029-.394-.44.102-.44.102-.158 1.068.678 1.531h0z"/></g><g class="C"><ellipse cx="239.058" cy="85.073" rx="1.863" ry="1.834"/><path d="M242.291 78.717c-.746-.498-1.839-.299-2.446.444s-.49 1.755.257 2.253 1.841.299 2.448-.444.487-1.752-.259-2.253z"/></g><g class="B"><ellipse cx="238.985" cy="84.835" rx="1.082" ry="1.025"/><path d="M241.515 78.919a1.25 1.25 0 0 0-1.324.523c-.249.42.017.867.656.996 1.175.24 1.734-1.228.668-1.519h0zm-28.453 143.196l-3.79 1.606-1.123.247s-1.966 1.781-3.404 2.621c-1.513.885-3.246 1.526-4.983 1.717-2.247.243-8.422.173-11.195.068s-4.489.56-5.685 1.889-1.474 3.252.036 4.722 3.191.734 3.753-.174.281-2.064.035-2.588.492-.701 1.264-.735 2.071.068 3.265.244 3.299.873 4.211 1.364.387.561-.246.454-1.333-.348-2.457-.769-2.071-.629-2.771-.665-.458.351-.316.595.526.839.632 1.12-.21 1.326-.21 1.326l.351.665s.42-.665.561-1.013-.034-1.016.106-1.33.736-.315 1.193.21a4.65 4.65 0 0 1 1.227 2.48c.246 1.329-.21 2.275-.21 2.275s.563.455.667.767-.141 1.577-.141 1.577.387.244.738-.492a16.61 16.61 0 0 0 .876-2.48c.105-.453.42-1.294.982-.666s.948 1.4 1.054 1.784.104.698.104.698 1.264-1.226 1.685-1.924 1.297-1.749 2.492-2.727 3.263-2.938 4.28-3.604 3.615-2.063 4.422-2.551.948-.524 1.088-1.892.808-2.588 1.123-3.53c.305-.949.378-1.293.378-1.293l.008.004zm-46.02-51.249c-.023-.232-.491-1.049-.608-1.47s-.539-.161-.539-.161-.913.513-1.591.697-.773-.065-.843-.419l-.352-2.215c-.117-.768-.28-.721-.562-.606l-1.707.678c-.585.256-.398.536-.211.861l1.169 2.191c.305.488.023.7-.329.864s-.865.23-1.567.464-.653.396-.585.632.538 1.188.796 1.629.491.141.491.141.749-.675 1.379-.978.679-.21.843.256l1.029 3.382c.142.465.375.417.702.279s.771-.212 1.146-.327.515-.86.515-.86l-1.754-3.104c-.375-.629 0-.77.282-.813l1.8-.328c.692-.179.504-.572.482-.813l.014.02zm15.595 67.13c-.105-.6 0-1.192-.458-1.646a5.61 5.61 0 0 1-1.227-2.099c-.21-.734.175-1.082.104-1.504s-.632-.418-1.192.036-1.299.874-1.299 2.204c0 1.324.492 2.901 2.353 3.461s1.827.146 1.722-.449l-.003-.003zm1.888-.639s-.386-.241-.561.106-.142.525.351 1.293.808.945 1.368 1.293.175-.348.105-.558 0-.489-.141-.667-.211-.386-.211-.942c0-.551-.914-.521-.914-.521l.003-.004zm2.278 6.299c.351-.526.668-.664 1.509-1.046.842-.388 2.385-.597 2.912-.633s1.72-1.05 1.544-2.101-.948-1.467-1.614-1.607-1.264-.141-1.474.174-.598.735-1.334.98-.842.49-1.298.629-.106.421-.492.735-.912 0-1.509-.176-.632-.279-1.298-.315l-2.421-.14s-.07-.033-.456-.033-.422.067-.597.488.034 1.47.457 1.993 1.79.77 2.7 1.049a15.31 15.31 0 0 0 2.144.522c.798.137.902-.01 1.25-.532l-.023.013zm8.533.834c.736-.488.314-1.327.141-1.851s-1.192-.633-1.72-.633-.807 0-1.088.244-.667.597-1.439.841-1.369.523-2.421.945-1.37 1.116-1.825 1.398-1.333 0-1.333 0-.633-.178-.843 0c-.211.172 0 .521.421.979s1.229.42 2.141.7 1.089.066 1.439-.175.632-.771 1.263-1.153 2-.455 2.667-.524c.683-.074 1.879-.281 2.612-.771h-.015zm0-3.179c.314.28.666.665.947.209s.737-1.397.42-1.957-.7-1.051-.7-1.051l-.772 2.028c-.23.428-.199.491.115.771h-.01zm-2.845-4.829c0-.909-.632-2.027-.632-2.027s-.211.84-.597 1.574-.771 1.117-.771 1.117.911.243 1.263.243.746.011.746-.895l-.009-.012zm-5.258 1.928c.983-.207 1.511-.592 1.931-.942s.668-1.295.387-1.781c-.281-.492-.983-1.017-1.263-1.017h-.527s-.281.91-.666 1.363-.843.77-.808 1.363c.03.587-.042 1.212.943 1.003l.003.011zm1.995-4.441c.035-.453-.142-.941-.457-1.259l-.526-.522-.14 1.082-.104.458s.28.28.525.385c.242.094.661.313.693-.146l.009.002zm-12.132-24.804l.664-4.123c-.5-4.118-2.656-8.019-4.369-10.712s-3.484-6.922-4.258-9.175-1.294-5.337-1.294-6.949.694-2.448.694-2.448.301-.438.022-.715-.717-.022-1.157.413-.902 1.247-1.088 1.822-.186.784-.186.784-.88-.206-2.292-.09-2.083.23-2.131.529.186.531 1.203.97 1.667.623 2.177 1.225 1.813 3.612 2.21 5.066a69.22 69.22 0 0 1 1.595 8.498c.346 3.098 1.397 6.848 2.867 9.981.482 1.03 3.117 5.911 5.342 4.932v-.008h.001zm2.571 7.256c-.96.534-.924 4.432-.498 6.454s2.419 4.537 3.022 5.211.748.674 1.069.496.461-.176.461-.176.854-.284 1.496-.78.39-1.737.283-2.838-.959-3.299-2.525-5.85c-1.553-2.556-2.34-3.055-3.295-2.521l-.013.004zm1.06-3.158c0-1.272-1.11-2.233-2.387-2.233-.604 0-1.136.151-1.465.445-1.295 1.16-.515 4.059 1.356 4.059.679 0 1.471-.113 1.96-.58.442-.408.537-1.085.536-1.691h0zm18.556 36.64c-.513-.09-.813-.298-1.567-.808s-1.957-1.555-2.168-2.063-.211-.54-.935-.298-1.746.207-2.528.238.089.896.632 1.707.361 3.528.361 3.528 0 .24-.121.631-.03.658.181.747.33-.089.873-.72 1.536-2.271 1.536-2.271.15.025.995.237 2.197.09 2.891-.12c.713-.208.378-.718-.136-.813l-.014.005zm-3.222 2.105c-.361-.061-.512-.092-.692.148s-.331.691-.422.928a.51.51 0 0 0 .151.631 8.19 8.19 0 0 0 .512.389s.302.329.604.477.359-.296.359-.626.182-.928.182-1.317-.315-.57-.684-.625l-.01-.005z"/></g><path d="M333 225.7c-.881-.207-1.256-.539-1.256-.539s-.375-.044-.673.499c-.287.541-1.421 1.247-1.421 1.247s-1.589.417-1.8 1.499.547 1.455 1.297 1.329c.756-.124 2.597-.5 3.389-1.454s.924-1.498 1.091-1.874c.146-.364.24-.49-.641-.699l.014-.008zm2.468-8.611c-.575-2.406-2.138-5.375-5.149-6.863l-1.466 5.199c-.334 1.247-.334 1.206.629 1.456l4.685 1.081c.631.167 1.68.699 1.304-.888l-.003.015zm-14.36-2.243c.711.127.629-.166.879-1.121l1.507-5.695s-3.179-.127-5.941 1.201-3.978 3.785-3.978 3.785.712.291 2.595.709l4.944 1.115-.006.006zm-7.368 6.527l-1.547-.331s.711 2.701 1.883 4.199 2.471 2.247 4.897 2.288 4.269-1.288 4.563-2.329.795-1.829.795-1.829l-6.195-1-4.417-.999.021.001z" class="D"/><g class="B"><path d="M312.984 219.665c1.092.248 10.046 1.953 10.802 2.12s1.382.332 1.591.125.334-.333 1.131-.626.755-1.082.755-1.082.21-.749.292-1.497.502-.997 1.38-.08c.88.911 1.046 2.243 1.214 3.533s2.221 1.622 3.014 1.747 1.171-.125 1.632-.875.715-2.244.839-3.199.044-.876-.964-1.124l-6.486-1.499c-.837-.211-.668-.747-.546-1.328s1.968-6.448 1.968-6.448c-1.313-.805-3.152-1.283-5.355-1.538l-1.594 6.903c-.25.915-.838.915-1.8.748s-7.911-1.785-7.911-1.785l-.543 1.286c-.545 1.289-.793 2.829-.793 3.619s.281.771 1.362 1.01l.012-.01zm23.771 5.41c-.924-.6-1.602-.757-2.082.358s-.521 2.754-1.726 3.907-2.885 2.354-4.567 2.234-2.646-.521-2.244-2.436 2.965-2.51 3.564-3.507.441-2.153-.438-2.91c-.886-.759-2.166-.917-2.526-.677s-1.401 1.115-1.922 2.549-.841 2.592-1.966 3.51-4.008 1.833-6.249 1.314-3.046-1.194-3.889-3.389l-2.284-6.221c-.439-.396-1.001-.716-1.964-.04s-1.041 1.676-1.158 2.474 0 1.716.957 2.871 1.966 2.313 2.327 3.507 1.442 3.032-.081 3.113-2.205.116-3.365-.997-5.689-4.189-6.934-5.188l-1.763-1.312c-2.096-.038-4.193-.894-6.29-2.313l1.442 4.224c.238 1.156.2 1.793.2 1.793l6.37 3.192c1.804.875 5.447 2.95 7.212 4.026s3.246 2.751 6.372 2.112 9.456-2.552 11.499-3.149 7.694-1.995 9.778-3.428 2.285-1.356 2.644-2.792c.356-1.407 0-2.198-.924-2.806l.007-.019z"/><path d="M324.697 203.607l1.554-.229c1.065-.141.671.876.486 1.267s-.512 1.176-.949 1.912.138.855.438.973.743.161 1.601.393.694-.393.72-.718l.161-2.604c.093-.599.648-.438.857-.324l1.182.645c.438.234.648-.021.742-.274s.298-.715.486-1.385-.231-.529-.65-.529-1.021 0-1.712-.021c-.696-.022-.257-.692-.257-.692l.904-1.453c.393-.621.254-.715-.143-.829l-1.97-.484c-.346-.09-.509-.045-.509.186l-.047 1.893c0 .457-.043.735-.647.759s-.974-.325-1.461-.853-.694-.323-.741-.114l-.533 2.143c-.113.406.117.388.464.334l.024.004zm3.358 15.108s-.042 1.206-.166 1.622-.418 1.041.084 1.205.96.375 1.252.291.168-.664 0-1.162-.416-1.124-.794-1.54l-.367-.405-.009-.011zm7.368 4.817c.169.375.503.457.753.541s.587.083.587-.375.085-1.038-.29-1.539-.578-.862-.795-.124c-.222.752-.421 1.137-.252 1.501l-.003-.004zm-25.659-4.858c.208.041 1.005.29 1.005.29s0-1.164.166-1.956c.166-.786.502-1.328.208-1.328s-.458.251-.669.583-.797.414-1.004 1.371c-.209.95.085.991.294 1.033v.007z"/></g><g class="C"><ellipse cx="314.79" cy="216.671" rx="1.635" ry="1.622"/><ellipse cx="319.387" cy="217.798" rx="1.673" ry="1.663"/><path d="M332.789 218.96a1.67 1.67 0 0 1 1.677 1.665 1.67 1.67 0 1 1-3.351 0 1.67 1.67 0 0 1 1.674-1.665z"/><ellipse cx="323.995" cy="218.882" rx="1.677" ry="1.664"/><ellipse cx="325.211" cy="214.889" rx="1.676" ry="1.664"/><ellipse cx="326.388" cy="210.895" rx="1.676" ry="1.665"/></g><g class="B"><path d="M314.905 215.705c.451 0 .817.362.817.81s-.366.812-.817.812a.81.81 0 1 1 0-1.622zm4.608 1.094c.462 0 .837.374.837.83 0 .463-.375.835-.837.835s-.837-.372-.837-.835c0-.456.374-.83.837-.83z"/><circle cx="332.915" cy="220.456" r=".832"/><ellipse cx="324.12" cy="218.716" rx=".837" ry=".831"/><ellipse cx="325.338" cy="214.722" rx=".837" ry=".831"/><ellipse cx="326.513" cy="210.727" rx=".839" ry=".833"/></g><g transform="matrix(-1 0 0 1 639.96566 0)"><path d="M273.248 249.995l-3.651-2.492c-2-1.323-2.735-2.787-2.735-2.787h.704c.386 0 .707-.528.736-1.058s0-1.611-.146-2.875.205-2.287.205-2.287.854.791 2.148 1.466 1.826.352 1.826.352l.322-1.287 1.354 2.55c.798 1.378 2.945 2.903 4.473 4.047s3.211 2.348 4.478 2.79.528 1.025.528 1.025-1.266 1.26-4.532 1.848-4.83-.734-5.71-1.292h0zm-11.433-1.262c1.171-.122 1.867-.559 2.093-1.817.146-.819-.059-3.962-.059-3.962s.382.321.822.854c.443.525 1.443.645 1.443.645s.147.439.591 1.144 1 1.558 2.119 2.26l3.268 2.229c.853.705 1.853 1.526 2.973 2.141s2.118 1.615 2.504 3.256.087 2.171-1.208 2.083-1.44.027-3.529-.498-5.065-2.846-7.243-4.225-3.774-4.11-3.774-4.11h0zm-5.79 1.899s.883-1.112 1.207-2.376l.94-3.754s.295.792 1.003 2.286 1.913 1.851 1.913 1.851.059.644 1.06 1.904 2.47 2.436 3.975 3.317 3.442 2.084 4.504 3.577 1.149 3.051.646 3.725-1.204-.088-2.207-.584-3.854-.941-7.801-3.055-5.24-6.891-5.24-6.891h0zm-1.713 8.78c-1.087-1.613-1.266-5.542-1.266-5.542s.383-.266.914-.707 1.56-1.994 1.56-1.994l1.354 2.612c.707 1.262 1.061 1.698 2.533 3.05s3.472 2.67 4.327 4.105.383 4.313-.177 5.279-1.354.645-2.179-.146l-2.53-2.229c-1.441-1.235-3.447-2.817-4.536-4.428h0z" class="B"/><path d="M267.266 226.515l-1.766-3.327c-.527-.727-.905-1.552-.905-1.552s1.411 1.278 1.965 2.178.906 1.775 1.159 2.753c.25.972.125 1.124-.453-.052zm-5.595 1.001l-.355-1.294s-.228-.75-.103-.801.707.467 1.113 1.741l.88 3.201c-.123.079-1.309-2.072-1.535-2.847h0zm-4.408 3.525l-.252-.575s-.453-1.45-.453-1.754c0-.298.151-.648.529.103s.4 1.477.479 1.801c.072.326.5 1.452.375 1.553s-.425-.576-.678-1.128h0zm13.686 13.345l.589-.352a12.75 12.75 0 0 0 .855.997c.499.526 1.061.733 1.441 1.231a5.54 5.54 0 0 0 1.884 1.584c.914.471 1.267.616 1.089.764s-.795-.205-.795-.205-.266-.029-1.354-.675-1.354-.996-2.063-1.612-1.646-1.732-1.646-1.732zm-4.777 5.609c-.411-.438-.854-.734-.619-.968s.531-.206.916.114l1.971 1.791c.5.438.912.705 1.413 1.085s1.591.968 2.118 1.262.029.325.029.325-.413-.208-.854-.354-1.707-.705-1.707-.705-.5-.233-1.177-.702-1.677-1.409-2.09-1.848h0zm-5.5 3.786c-.354-.702.029-.5.62-.265s1.912 1.674 2.678 2.199 1.414.734 2.059 1.057.648.498.617.646c-.024.145-.29.145-.558.027s-1.177-.646-1.177-.646-.384-.115-.737-.145-.854-.414-1.649-1.085-1.497-1.081-1.853-1.788h0zm-2.558 5.016c.972.586 2.647 1.906 3.091 2.787s.735 1.494.589 1.643-.617-.146-.823-.498-.649-.881-.649-.881-1.677-1.643-2.295-2.021-1.621-1.467-1.854-2.111-.06-.998-.06-.998 1.028 1.491 2.001 2.079h0z" class="C"/><path fill="#c52126" d="M284.044 118.481c.894-.519 3.285-1.534 5.832-1.751s4.517.167 6.63.734c1.515.406 2.739.469 3.954.146 1.821-.482 3.236-2.117 3.718-4.12 0 0 1.681 2.142-.039 4.465-.824 1.118-1.902 1.816-2.997 2.037-3.564.715-7.063-1.449-10.038-1.639-2.854-.184-5.093 1.613-5.093 1.613s-.675.557-1.626.008-1.228-.974-.341-1.493z"/><g class="B"><path d="M294.322 221.062l.841-.106c.491-.068 1.545-.42 1.86-.561s.807-.174 1.123.177 2.878 1.853 2.878 1.853h-4.246c-1.475-.001-2.456-1.363-2.456-1.363h0zm-11.953-.72v-.421l.563-1.211s.659.41 1.304 1.072c.829.854 1.722 2.057 2.116 2.563.709.898 1.697 1.746.85.31l-1.81-3.017c-.68-.956-1.188-1.378-1.103-1.438s.623-.139 2.404-.364 2.88-.901 3.701-1.381l2.289-1.269 4.156 1.549c1.132.28 1.81.45.708.985s-2.035.704-2.571 1.042-2.207.872-3.225.872-2.742.029-2.063.734 1.44 2.056 2.176 4.11c.735 2.06.764 3.889.764 4.789s-.112 1.805-.112 1.805-1.242-1.38-4.578-3.465l-5.205-3.071c-.619-.277-.932-.277-.815-1.069l.451-3.125h0zm-12.743-10.072l.62-.28c.056.016.105.029.15.056.394.195 2.427 1.556 3.249 2.879s1.645 1.438.744 0-1.566-2.258-2.268-2.879l-.713-.593c1.639-.784 3.415-1.735 5.135-2.925.224.441.649 1.224 1.135 1.729.703.739 2.271 1.362 2.271 1.362s-1.255-1.283-1.686-2.257a9.93 9.93 0 0 1-.545-1.69c1.197-.927 2.342-1.984 3.367-3.196.208.844.886 2.892 2.893 5.12 2.622 2.917 7.866 4.395 7.866 4.395s1.839.194.353.585-2.546 1.051-5.44.543l-3.483-.736c-.391-.117-1.446-.039 0 .505s4.816 1.049 6.105.934 3.054-.391 1.213.584-2.621 1.359-3.757 1.359-1.605.351-2.702.351-1.407-.191-2.191-.351c-.782-.152-1.289.117-1.289.43s1.058 1.167 1.019 3.304-.197 3.54-.395 4.159c-.194.627-.666 1.633-.977 2.219s-.434 1.166-.744-.079-1.018-3.031-1.291-4.236-.431-1.244-.549-1.866-.781-1.09-.469.038l.897 3.577c.236 1.013.782 2.876-.154 1.4s-4.463-5.404-5.049-6.105l-1.486-1.941c-.432-.585-1.644-1.362-2.229-2.216-.532-.774-2.088-2.28-2.757-2.821l3.157-1.358h0zm48.656-89.755c-.096 2.144-2.481 6.243-3.841 8.433s-1.729 3.072-1.498 3.213.796-.979 1.545-1.955 2.2-3.261 3.418-4.984 2.997-5.823 3.23-6.195.327-.605.938-.142 1.778 4.985.371 8.06c-1.402 3.074-3.512 5.309-4.397 6.381-.893 1.07-2.062 2.747-1.873 2.889s.514-.281 1.591-1.398l4.025-4.425c.952-1.135 2.243-3.438 2.691-4.263.172-.313.391-.229.555-.064.387.385 1.004 1.278.733 3.722-.375 3.4-2.153 5.356-3.745 7.081s-3.185 3.167-2.948 3.399c.231.234 1.87-1.211 2.997-2.282l4.492-4.472c.61-.745 1.499-.373 1.45 2.562-.044 2.936-3.321 5.917-4.678 7.548s-3.045 2.605-2.905 2.934 1.499-.512 2.388-1.119l4.867-3.214c.654-.465.984.419.143 3.214s-3.276 5.031-4.729 6.056-3.793 2.28-3.649 2.609c.138.325 1.124-.095 2.48-.747s2.994-1.257 4.167-1.583 1.169.512 1.169.512.234 2.375-1.498 4.286-3.696 2.654-5.57 2.979-2.152.42-2.106.7.235.326.655.326 2.153.187 3.746.187 2.434.372 2.434 1.07.047 1.631-2.34 3.215-5.055 1.817-6.181 2.051-1.17.326-.937.652.748.279 2.527.465 2.855.886 3.09 1.351-.14 1.865-1.591 2.842-3.324 1.306-6.133 1.119-3.514-.232-3.605.232.843.606 2.246.841c1.404.229 2.48.229 3.278.884s.187 2.004-1.171 2.981-4.729.979-6.134.885-3.56-.604-3.696-.231c-.144.37 1.027.932 2.479 1.442s1.873.837 2.152 1.443.047 1.165-1.686 1.817-4.26.65-5.568.046-2.014-.839-2.25-.604 0 .467.281.793 1.404 1.209 2.854 1.584 1.593.372 2.111 1.535c.51 1.165-.799 2.098-3.421 2.191s-6.134-.931-7.258-1.584-1.546-.792-1.73-.56-.14.373.423.791 2.341 1.677 3.228 1.909.983.886.983 1.491.235 1.815-2.105 2.377-5.103.141-7.63-1.632c-.813-.567-1.288-1.038-1.555-1.447.203-2.376.097-4.013-.192-5.521a9.17 9.17 0 0 0 2.402-.577c1.404-.559 1.967-1.861 2.294-2.563s.796-.698 1.36-.512 1.123.421 1.917.373 2.479-.466 3.699-1.909.983-2.841 1.029-3.542 1.17-.187 1.732-.187 2.201-.232 3.698-1.259 1.499-2.421 1.637-2.98.75-.931 1.217-1.117 1.218-.37 2.249-1.21 1.405-2.47 1.452-3.028.656-.604 2.762-1.676 1.92-3.307 1.825-4.192-1.076-1.63-1.076-1.958.701-.418 1.405-.837 2.479-1.118 2.526-3.726-1.687-2.89-1.687-2.89.329-.142 1.03-.559 2.621-1.724 2.621-3.262-.7-2.235-1.218-2.608-1.919-.745-1.919-.745.89-.56 1.265-1.77.516-2.7-.373-3.773-2.389-1.07-3.186-1.07-1.496.419-1.777.188-.327-.419-.046-1.025.327-2.097.092-2.607-.281-1.537-2.293-2.189-4.119.699-4.774 1.072-.376-.514-.376-1.165 1.358-2.282 2.902-4.612 2.248-3.541 3.979-7.081 2.857-8.104 3.092-9.269.702-.607.702-.607.471.188 1.545 2.889c1.08 2.698 1.269 5.165 1.176 7.307h0z"/><path d="M282.965 168.156c1.206-.063 2.771-.721 3.979-2.459 1.202-1.74 3.016-2.161 6.148-2.104 3.138.063 4.585-1.438 5.37-3.599s-.122-4.622-3.317-6.182-4.646-3.301-4.764-6 3.192-6.061 6.512-9.84 5.91-9.122 5.91-9.122.964 1.262.964 2.521-.481 2.58 0 2.939.664-.54 2.592-1.379 3.5-.96 4.704.419 0 3.78-1.086 4.921-1.987 1.981-1.688 2.401 1.931-.66 2.474-1.021 1.811-1.739 3.676-1.561 2.535.719 2.715 2.28-1.688 2.938-2.895 3.54-1.688 1.14-1.386 1.379.604 0 1.146-.179 2.05-.359 3.018 0 2.531 1.68 1.084 3.3-4.462 2.22-5.066 2.339-.902-.061-.962.419 1.266.481 2.895.542 2.109 1.62 1.869 2.82-2.957 2.52-4.463 2.76-2.05 0-2.171.419.181.6 1.025.841 2.472.42 2.774 1.74.362 1.92-.907 3.061-3.317.962-3.92.841-1.326-.78-1.929-.18.543 1.079 1.568 1.801.965 2.102-.783 3.061-3.499.599-4.221.361-1.69-1.38-2.171-.662 1.507.961 2.352 1.98.543 2.698-1.146 3.719-4.463.3-4.943-.12-1.084-.597-1.446-.237.18 1.317.542 2.159 1.025 3.301-1.509 4.259-4.825-1.199-5.248-1.62-.842-.48-1.205-.3-.181.539.122.962c.302.417.967 2.218-.844 3.48-1.235.857-2.584.796-3.313.67l-1.368-5.011h.381c.239 0 .288.36.288.503s-.071.266.146.266.24.12.556.335.603.479.772.361-.652-.553-.869-.816-.654-.673-.678-.959-.171-.457-.604-.817c-.135-.11-.239-.244-.324-.374l-.833-5.021a39.34 39.34 0 0 1-.315-3.799l.792-.037h0zm51.541-37.403c-2.694 5.415-6.499 8.464-6.499 8.464s.501-1.346.723-2.271.046-1.973.046-1.973.955-1.217 2.721-3.919 2.695-6.691 2.695-6.691-1.643 3.99-2.917 6.109-2.745 3.847-2.745 3.847-.513-1.874-.881-1.972-.637.195-.956.608-.589.375-.589.375.437-.895 1.104-1.965c.306-.487.748-1.014 1.063-1.504 1.004-1.577 3.168-4.573 4.276-7.569s3.541-10.513 3.966-12.723.844-1 1.266.632 1.005 3.941.636 7.412-1.213 7.726-3.909 13.14h0zm-3.484 14.619l-2.482 1.733s.232-.543.381-1.194.211-1.993.211-1.993l2.006-1.743c.821-.715 1.858-1.638 3.905-4.157s.399-1.008-1.269.8-4.854 4.429-4.854 4.429l-.021-.588a2.14 2.14 0 0 0-.485-1.321c-.295-.379-.141-.432 1.658-1.798s6.445-6.571 8.348-9.674 3.963-7.308 3.963-7.308 1.004 6.204-2.8 13.038-7.558 9.04-8.561 9.776zm-19.962 39.132c-2.085-.802-1.513-2.845-1.513-2.879s1.277.403 2.454.837 4.066 1.271 5.211 1.305 1.142-.131 1.178-.301-.875 0-2.521-.3-4.541-1.808-5.043-2.141-.438-.405.301-.471 1.378-.4 1.647-.636 1.041.103 2.923.537 5.785 1.104 8.777 1.104a35.29 35.29 0 0 0 6.252-.602c.473-.101.979.165-.471 2.575-1.444 2.408-6.521 3.714-10.052 3.68s-7.059-1.905-9.143-2.708h0zm9.385-4.973c-3.644.03-5.003-1.045-5.003-1.045s0-.187.495-.922.401-1.994.401-1.994l2.375.368c1.512.215 3.271.43 5.218.093s1.109-.555-.435-.37-4.506-.368-5.463-.706-.556-.645.094-.862c.647-.211 2.406-1.318 2.406-1.318s4.413.553 8.517.094 6.7-1.505 7.532-1.629.803.216.803.216.216.369-1.2 2.579c-1.422 2.213-4.198 3.653-6.546 4.329s-5.554 1.137-9.194 1.167h0zm.932-8.478s.152-.213.371-.953-.402-1.288-.402-1.288.834-.246 3.55-.583 2.87-.553 4.537-.923 2.777-.857 2.747-1.043-.555.092-1.541.459-5.155.799-6.914 1.046-2.749.431-3.056.244-1.391-.461-1.391-.461.742-.212 1.666-.367a5.91 5.91 0 0 0 2.254-.891c.493-.339.647-.433 2.869-.675s4.016-.953 7.993-2.396c3.982-1.443 6.979-3.163 7.778-3.807s.741-.185.524.644-.186 1.874-2.19 4.207-2.993 3.348-8.055 5.19-10.74 1.597-10.74 1.597h0zm14.966-12.251c-4.477 3.131-9.719 4.282-10.832 4.42-.25-.289.27-1.33.03-1.965-.289-.761-.771-.769-1.851-.83s-.372-.276-.126-.276.311-.03 2.1-.491 3.611-.737 6.08-1.659 3.206-1.597 3.147-1.781-1.143.584-3.428 1.444-4.939 1.196-6.388 1.505-.188-.309.493-.708 1.638-1.874 1.638-1.874 1.604-.276 4.227-1.074 4.814-1.69 7.005-2.917c.754-.423 1.48-.969 2.268-1.529l3.597-2.586c.896-.644.618-.123.525.277s-.71 2.242-2.129 4.269-1.881 2.641-6.356 5.775zm.736-8.811c-4.412 3.471-8.209 4.543-8.855 4.82s-.588-.092-.465-.46.217-1.563.217-1.563l3.333-1.906c1.76-1.015 3.705-2.395 4.999-3.284s.527-.829.124-.493-2.19 1.383-3.979 2.488l-4.507 2.702s-.063-.583-.432-.953-1.295-.273-1.295-.273.462-.462.74-.892 1.729-.89 3.364-1.66 4.567-2.915 6.728-4.727 6.357-6.356 6.634-6.727.464-.307.496.153.186.768-.276 2.855c-.47 2.09-2.414 6.449-6.826 9.92zm-15.619-32.814c-.499 1.032-1.046 1.813-1.442 2.485l-.93 1.674s-.122-.358-.027-.968.188-1.456.024-2.463c-.088-.54-.203-1.079-.176-1.559.033-.546.219-1.017.294-1.327l1.083-4.951c.308-1.807.638-4.388.612-6.665s-.352-1.126-.352-.023-.119 2.793-.475 5.397-1.461 6.569-1.461 6.569-.07-.61-.4-1.479-.873-1.853-1.297-2.933-.275-1.26-.275-1.26 1.55-7.367 1.956-10.85 1.063-12.633 1.063-12.633c2.268 2.265 3.951 8.228 4.251 13.868.225 4.249-.467 8.182-.665 9.776-.398 3.16-.95 5.625-1.783 7.342h0zm5.028 11.627c-.07-1.669-.456-2.931-1.539-3.302 0 0 .958-1.668 1.797-4.049.57-1.629 1.046-3.719 1.284-5.323.593-3.948 1.065-8.016-.117-1.354s-2.605 9.018-2.605 9.018l-1.718 2.771c.252-1.217.293-2.071.228-3.4s-.235-3.13-.645-4.557c0 0 2.075-4.125 3.375-9.076s2.05-9.457 2.075-12.143l.18-3.596s2.129 1.592 2.841 9.667-1.423 15.797-2.486 18.745l-2.67 6.599zm-23.255 61.582l1.345-.87c1.008-.635.704-2.543.704-2.543l1.009.704c.739.502 1.58 1.067 2.588 1.472l2.15.869c.641.201.473-.065-.064-.369s-.707-.468-2.053-1.002-4.033-2.878-4.033-2.878l1.749-.101c1.105-.033 2.521-.602 2.521-.602s1.108 1.004 5.58 2.909 8.271 2.407 8.271 2.407-.472 2.277-2.623 3.046c-1.781.771-4.237 1.239-9.044.102s-8.1-3.144-8.1-3.144h0zm-5.892 4.555c-.368-1.876.707-3.179.707-3.179s.238.132.906.735c.677.603 1.649 1.741 3.532 2.675s2.556.87.74-.101-4.474-3.714-4.474-3.714l.705-.269c.708-.268 1.919.201 6.961 3.212s8.003 3.112 8.003 3.112-2.253 2.71-8.371 2.508c-6.119-.196-8.337-3.108-8.709-4.979h0zm-11.564-2.179s.675.937 1.58 1.538 3.33.972 3.33.972.102.27.57.869c.471.604 1.514 2.04 2.588 2.812s2.757 1.271 2.86 1.069-.977-.602-2.02-1.238-1.981-1.808-2.688-2.608.302-.669.302-.669 1.277.033 2.454-.066.941 0 1.276.569.809 1.07 1.684 2.074l3.093 3.543c.67.805.167 1.039.167 1.039s-.305.501-3.027.803c-1.68.186-3.5-.023-5.416-1.123-1.187-.685-2.414-1.768-3.661-3.126-3.261-3.545-3.092-6.458-3.092-6.458zm-1.445 7.32l1.042 1.24s-.472-1.44-.874-2.11l-.621-.931c.451-1.006.817-2.086 1.092-3.25.301.962 1.229 3.786 2.387 5.621 1.41 2.238 2.656 3.043 1.85 3.646s-2.389.736-4.169-.136c-1.724-.839-2.22-2.305-2.463-3.487l.847-1.455c.219.137.543.394.909.862h0z"/><ellipse transform="matrix(1 -.000003 .000003 1 -.000305 .000748)" cx="284.728" cy="110.63" rx="1.251" ry="-1.138"/><path d="M287.363 108.481c-1.142-.026-1.757-.563-3.016-.442-1.489.144-3.504 1.004-5.952 2.295-1.912.86-4.438 1.29-6.87.596-.683-.194-1.354-.565-2.007-.93-2.976-1.675-2.254-4.976-2.254-4.976 2.193 1.573 4.91 2.42 7.438 2.249 0 0-.192.145-.623.574s-1.226.933-.963 1.149 1.345-.814 2.257-1.484a13.62 13.62 0 0 1 4.56-2.246c2.304-.672 4.895-.718 6.625.236 1.724.958 1.867 2.154 1.627 2.632-.132.271-.45.357-.822.347zm-32.335 24.097c.527-.145 1.438-.287 2.64-1.388s4.08-4.256 4.414-4.829.192-1.101-.622-1.437-1.393-1.387-1.393-1.387 1.773-.671 2.975-1.532 3.982-3.347 4.367-3.969.191-.717-.385-.908-.721-.575-.721-.575 1.297-.812 2.495-1.769 2.831-2.535 2.831-2.535c1.797.718 4.618.416 6.143.144 2.688-.478 4.654-1.578 4.654-1.578s.097.431.432 1.244 1.585 1.292 2.833.478.959-2.581.959-2.581 1.008-.622 3.071-1.387 3.743-.86 5.423-.097 2.496 3.062 2.496 4.783-.913 1.004-1.103.764-.577-1.482-2.691-1.816-4.029.67-6.429 2.629-2.928 2.104-4.127 3.348-.239 1.913 1.824 2.583 4.701-.668 4.799-.62c.396.197-.892 2.021-2.671 2.71s-4.056.241-5.823-.463c-1.198-.478-1.423.017-1.774.382-1.949 2.035-2.457 3.943-2.784 6.267-.995-.305-1.686-1.292-1.824-2.104-.065-.389-.19-1.243-.861-.622s-1.201 4.064-1.201 5.644.481 3.683.481 3.683l-.481-.048c-.286-.048-.863-.382-1.63-.812s-.816.048-.816.907-.289 2.487-1.439 5.404-2.831 3.873-2.831 3.873-.336-.574-.673-1.72-.575-3.396-.575-5.357.525-6.169.525-6.169-2.399 2.918-4.895 3.636-4.993.287-6.048-.908-.093-1.723.435-1.868h0zm16.413 7.55s.758 1.665 1.172 2.258.598.687.598.687-.758.638-1.86.979l-2.09.548s1.24-1.689 1.676-2.876l.504-1.596h0zm-14.986-.981l.597-1.461c1.532.307 4.436-.408 5.7-1.164 0 0-1.15 2.327-2.302 3.126l-1.308.846s1.147.183 2.687-1.324 2.229-3.242 2.229-3.242-.344 4.019.277 6.481l.759 2.784s-3.263.57-6.892-.435-3.905-1.324-3.905-1.324-.437-.112.137-.865 1.655-2.487 2.021-3.422h0z"/></g><path d="M263.045 130.326c1.117-1.275 1.229-1.581 1.229-1.581a.76.76 0 0 0 .058.942c-.335.555-1.929 1.94-3.017 2.551s-2.176.803-2.176.803l.057-.222c0 .003 2.733-1.218 3.849-2.493zm4.429 8.373l.278-5.796c0-.748.477-.555.477-.555l.557.249-1.093 7.379c-.118.795-.512.728-.713.691.398-.204.479-1.738.494-1.968zm6.854-21.845c.415-.41 1.345-.718.448.275s-2.07 2.231-2.417 3.261-.553 2.298.034 2.024 1.001-.275 1.622-.789 1.795-1.374 2.281-1.51c.48-.139 1.347 0 .655.753s-1.452 1.477-2.765 2.438l-2.764 1.854-1.382.893s.624-4.118 1.764-5.936 2.111-2.85 2.524-3.263zm22.395 68.974c.843.636 1.945.895 1.945.895s.522-.026.522.175-.609 0-1.249-.115-1.509-.75-1.829-.982-.782-.519-.638-.924c.151-.405.409.316 1.249.951h0zm-7.228 3.85c.173.199 1.565 1.24 1.565 1.24a5.32 5.32 0 0 0 .899.459c.466.175.58.437.58.437s-.088.112-.58-.027c-.491-.147-1.944-1.157-2.408-1.563s-.669-.52-.495-.69c.175-.177.261-.061.439.144h0zm29.311-51.751c-.26.315-.579.746-.723.603s.027-.287.376-.689l.548-.603s.491-.776.782-1.064c.283-.286.719-.431.172.229l-1.155 1.524zm2.224 4.849l-.95.919c-.348.373-.607.773-.809.574s.521-.63.837-1.033a5.22 5.22 0 0 1 .981-.978c.406-.314.896-.573.896-.573l-.955 1.091h0zm-.827 7.83c-.552.577-1.362.75-1.48.521s.058-.417.522-.646 1.211-.716 1.587-.976.749-.547 1.011-.804.565-.492.663-.404-.766 1.009-1.025 1.154c-.264.144-.728.579-1.278 1.155zm-1.597 6.267c0-.231-.057-.346.406-.376l1.103-.114s.901-.347.96-.173-.755.521-1.104.578-.781.174-.984.287-.381.027-.381-.202h0zm-.69 6.809c.983 0 1.828-.231 1.886-.088s-.465.377-.96.549-1.423.232-2.061.261-.754-.115-.726-.433.871-.289 1.861-.289zm-7.726 7.455c.145-.143.492-.027 1.045.088s1.45.289 1.974.261l1.654-.058.638.144c0 .146-.842.115-2.063.261s-2.03-.115-2.608-.204-.786-.345-.64-.492h0zm-3.189 5.307c.606.231 1.044.29 1.509.29s1.567.2 1.567.2.521.061.435.262-.259 0-.724-.061-.814 0-1.626-.028-1.276-.231-1.771-.316-1.043-.347-.784-.663.782.085 1.394.316h0zm-6.214 4.015c.35.347 1.683 1.241 1.683 1.241s.263.203.786.462.491.376.405.521-.405-.204-.696-.319-1.249-.75-1.74-1.152-1.133-.725-1.016-1.011.229-.087.578.257v.001h0zm10.337-51.979s-.114.265-1.187 1.597-.498.075-.229-.265l2.374-3.158c.533-.609.608-.306.345.074l-1.303 1.752zm2.255 6.842c-.153-.152.19-.305.805-1.064l1.836-2.321s.347-.722.463-.646-.424 1.217-.92 1.713-1.146 1.445-1.494 1.864-.535.605-.69.454h0zm-2.97 12.823c0-.372 1.214-.315 1.761-.431l1.53-.315s1.155-.201 1.185-.057-.231.285-.866.402l-2.31.516c-.723.115-1.3.259-1.3-.115h0zm2.97-6.922c-.803.646-1.34.95-1.761 1.18s-.767.569-.995.304.19-.457.879-.761 1.035-.571 1.035-.571l.728-.38c.345-.191.919-.419.114.228h0zm-6.924-4.567c.497-.418.918-.649.918-.649s.612-.57.728-.38-.688.762-1.072 1.104-1.07 1.332-1.417 1.142.345-.8.843-1.217zm4.52 17.872l1.104.287c.434.115.464.319-.319.319s-1.104-.203-1.886-.349-1.046-.23-.931-.49.523-.172.844-.086l1.188.319zm-1.218 6.474c.061.146-.548 0-.956-.146l-1.741-.721c-.494-.144-.494-.231-.494-.521s.522-.06 1.16.145 1.452.838 1.452.838.522.26.579.405zm-8.382 3.921c-.582-.349-.699-.607-.493-.781s.377-.144.841.232l1.365 1.01.812.348c.348.173.783.462.666.635s-.841 0-1.219-.317-1.395-.78-1.974-1.125l.002-.002h0zm-3.957 5.203c-.232-.202-.929-.431-1.246-.666-.32-.229-.522-.922-.264-1.009.264-.087.406.288.956.691l2.438 1.646.496.204c.522.2.292.346-.146.287s-.726-.06-1.248-.461l-.986-.692zm-5.857 4.931c-.495-.199-1.222-.837-1.567-1.151-.349-.32-.784-.724-.523-.925s.553.06.959.432l1.479 1.504s.146.027.726.491c.581.459-.029.373-.231.172s-.353-.319-.843-.523h0z" class="C"/><path d="M267.683 101.076l-2.36-1.665 2.781-.708 1.785 1.414z" class="B"/><ellipse transform="matrix(1 -.000003 .000003 1 -.000275 .000679)" cx="260.128" cy="99.124" rx="2.254" ry="-2.157" class="C"/><g class="B"><ellipse transform="matrix(1 -.000003 .000003 1 -.000244 .000679)" cx="260.128" cy="98.668" rx="1.358" ry="-1.29"/><path d="M264.831 91.713c-.579.214-1.335.12-1.335.12s-.228-.993.324-1.478l1.374-1.151.401-.431.043 1.396c.039.538-.231 1.328-.807 1.544h0z"/><ellipse transform="matrix(1 -.000003 .000003 1 -.000244 .000694)" cx="263.633" cy="92.799" rx=".414" ry="-.389"/><path d="M266.709 92.382a8.02 8.02 0 0 0 .552.63s-.459.015-.835.282-.86.496-1.307.443-.633-.472-.538-.766.31-.602 1.037-.872.916.041 1.091.283zm-1.576 2.613c1.416.126 3.283-1.427 3.283-1.427.176 1.246.953 1.896 2.143 2.132l-.11.056s-1.104.563-2.411.759c-.592.089-1.116-.011-1.751-.138-.768-.154-1.628-.371-2.097-.656-.854-.522-.595-1.88-.595-1.88s.123 1.027 1.538 1.154h0zm5.512-1.41c.578-.217 1.45-.632 1.813-.651s.893-.108.8.562-.779.995-1.45 1.012-1.017-.234-1.414-.434-.331-.272.251-.489zm4.428-2.387c.634-.452 1.196-.578 1.196-.578s.419 1.085.185 1.755-.728.849-1.324.83-1.488-.326-1.234-.778.542-.776 1.177-1.229h0z"/><ellipse transform="matrix(1 -.000003 .000003 1 -.000244 .000717)" cx="274.497" cy="94.249" rx=".487" ry="-.351"/><path d="M273.143 88.853c.391-1.85.324-3.861-1.438-6.426-1.768-2.564-4.836-3.604-4.836-3.604s-.098-.195-1.075-1.232c-.983-1.04-2.976-2.336-2.976-2.336l3.628.985v.068c0 .888.71 1.607 1.585 1.607a1.56 1.56 0 0 0 .901-.286c.713.138 3.089 1.549 3.696 2.052a1.62 1.62 0 0 0-.238.848c0 .886.709 1.604 1.584 1.604a1.54 1.54 0 0 0 .729-.179l.202.342c.498.91.865 1.784 1.137 2.583-.406.278-.678.798-.678 1.393 0 .883.603 1.601 1.343 1.607.055.521.051.882.028 1.038-.063.521-.262.844-1.174 1.104s-2.158 1.852-2.158 1.852c-.088-.002-.739-1.169-.26-3.02h0zm-5.628-11.845c-.331-.269-.39-.68-.127-.916s.746-.209 1.082.063.39.683.125.918-.746.209-1.08-.065zm5.922 3.974c-.376-.339-.441-.854-.145-1.15s.844-.261 1.219.08.441.852.144 1.147-.844.264-1.218-.077z"/><ellipse transform="matrix(1 -.000003 .000003 1 -.000214 .000725)" cx="276.961" cy="85.979" rx=".915" ry="-.892"/><path d="M257.232 73.371c.474.104 1.352.387 2.664 1.069h-.023c-.911 0-1.623.58-1.623 1.331s.829 1.567 1.741 1.567 1.533-.787 1.533-1.538c0-.177-.042-.348-.112-.503l1.243.799c2.91 1.948 3.595 2.89 5.03 5.552 1.44 2.659 1.961 5.581 1.342 7.302s-2.909 2.078-2.939 2.078.261-.261.293-.583-.065-.488-.161-1.139-.034-1.426-.034-1.426-.521-.066-.817.292l-1.012 1.134c-.294.356-1.079 1.04-1.079 1.04s-.457-.65-.457-1.429.523-1.622.621-2.985-.621-3.799-1.958-5.583c-1.343-1.783-3.855-3.406-4.606-3.765s-.881-.909-.916-1.233-.098-.55-.161-1.362c-.072-.812.681-.78 1.431-.618h0zm2.887 3.083c-.515 0-.982-.46-.982-.882s.399-.747.915-.747.934.343.934.762-.354.867-.867.867zm-4.325 16.969c-.703.285-1.492.125-1.864-.122s-.5-.879-.058-1.241 1.095-.347 1.502-.122 1.323.865 1.323.865-.201.339-.903.62h0zm-2.245.782c.251.388.438.624 1.218.657s1.623-.018 2.132-.522.861-1.214.861-1.214l.88-.016s.288 1.214.679 1.549 1.74.39 2.333-.051 1.135-.977 1.234-.909 0 .506-.609 1.027-1.03.844-2.012.844h-5.582s-1.134.065-1.457-.607-.335-1.096-.188-1.264c.153-.167.256.119.511.506h0zm8.49-.939c-.839.462-1.303.181-1.605-.191s-.361-.541-.361-.541.791-.282 1.178-.507.643-.439 1.025-.394.442.102.442.102.158 1.068-.679 1.531h0z"/></g><g class="C"><ellipse transform="matrix(1 -.000003 .000003 1 -.000214 .000694)" cx="266.08" cy="85.073" rx="1.863" ry="-1.834"/><path d="M262.847 78.717c.745-.498 1.84-.299 2.444.444s.49 1.755-.258 2.253c-.741.499-1.843.299-2.447-.444s-.489-1.752.261-2.253z"/></g><g class="B"><ellipse transform="matrix(1 -.000003 .000003 1 -.000214 .000694)" cx="266.153" cy="84.835" rx="1.082" ry="-1.025"/><path d="M263.624 78.919c.479-.131 1.071.104 1.321.523s-.014.867-.651.996c-1.179.24-1.741-1.228-.67-1.519h0z"/></g></g></svg>