<?xml version="1.0" encoding="utf-8"?>
<!-- Generator: Adobe Illustrator 16.0.0, SVG Export Plug-In . SVG Version: 6.00 Build 0)  -->
<!DOCTYPE svg PUBLIC "-//W3C//DTD SVG 1.1//EN" "http://www.w3.org/Graphics/SVG/1.1/DTD/svg11.dtd">
<svg version="1.1" id="Layer_1" xmlns="http://www.w3.org/2000/svg" xmlns:xlink="http://www.w3.org/1999/xlink" x="0px" y="0px"
	 width="800px" height="525.139px" viewBox="0 0 800 525.139" enable-background="new 0 0 800 525.139" xml:space="preserve">
<path fill="#FF4B55" d="M786.206,1.001H400v524.137h386.206c7.617,0,13.794-6.176,13.794-13.793V14.793
	C800,7.176,793.823,1.001,786.206,1.001z"/>
<path fill="#F5F5F5" d="M13.794,525.138H400V1.001H13.794C6.177,1.001,0,7.176,0,14.793v496.552
	C0,518.965,6.177,525.138,13.794,525.138z"/>
<path fill="#FF4B55" d="M114.944,33.186v36.906c2.033,0.079,4.3,1.001,6.185,2.886c1.885,1.884,2.81,4.151,2.886,6.185h36.906
	v36.781h-36.907c-0.08,2.032-1.002,4.3-2.887,6.184c-1.884,1.885-4.151,2.807-6.184,2.887v36.906H78.161v-36.906
	c-2.033-0.08-4.301-1.002-6.185-2.887c-1.885-1.884-2.807-4.151-2.886-6.184H32.185v-36.78h36.906
	c0.079-2.032,1.001-4.3,2.886-6.185c1.884-1.884,4.151-2.806,6.185-2.886V33.187L114.944,33.186 M119.539,28.587h-4.599H78.159
	h-4.597v4.599v33.285c-1.755,0.719-3.401,1.82-4.838,3.255c-1.436,1.437-2.536,3.083-3.256,4.838H32.185h-4.599v4.599v36.781v4.598
	h4.599H65.47c0.721,1.755,1.82,3.403,3.257,4.838c1.435,1.435,3.081,2.536,4.836,3.255v33.286v4.597h4.599h36.781h4.598v-4.599
	v-33.286c1.755-0.719,3.402-1.82,4.838-3.256c1.435-1.435,2.536-3.081,3.255-4.836h33.286h4.597v-4.599V79.16v-4.599h-4.599h-33.283
	c-0.719-1.755-1.82-3.401-3.256-4.837c-1.435-1.435-3.081-2.536-4.838-3.255V33.186L119.539,28.587L119.539,28.587z"/>
<polygon fill="#CDCDCD" points="160.919,79.16 114.944,79.16 114.944,33.186 78.161,33.186 78.161,79.16 32.185,79.16 
	32.185,115.944 78.161,115.944 78.161,161.92 114.944,161.92 114.944,115.944 160.919,115.944 "/>
<g>
	<circle fill="#B4A08C" cx="96.552" cy="97.554" r="18.391"/>
	
		<ellipse transform="matrix(-0.7071 0.7071 -0.7071 -0.7071 213.2766 147.8205)" fill="#B4A08C" cx="76.024" cy="118.081" rx="5.723" ry="8.178"/>
	
		<ellipse transform="matrix(-0.7071 -0.7071 0.7071 -0.7071 116.3874 284.3416)" fill="#B4A08C" cx="117.083" cy="118.066" rx="5.724" ry="8.178"/>
	
		<ellipse transform="matrix(0.7071 -0.7071 0.7071 0.7071 -20.1815 105.3406)" fill="#B4A08C" cx="117.067" cy="77.031" rx="5.723" ry="8.177"/>
	
		<ellipse transform="matrix(0.7071 0.7071 -0.7071 0.7071 76.7298 -31.1927)" fill="#B4A08C" cx="76.018" cy="77.025" rx="5.723" ry="8.177"/>
	<path fill="#B4A08C" d="M96.552,122.729c-13.883,0-25.177-11.29-25.177-25.176c0-13.887,11.294-25.177,25.177-25.177
		s25.176,11.294,25.176,25.177S110.435,122.729,96.552,122.729z M96.552,74.676c-12.613,0-22.877,10.264-22.877,22.877
		c0,12.612,10.264,22.876,22.877,22.876c12.612,0,22.876-10.264,22.876-22.876C119.428,84.94,109.164,74.676,96.552,74.676z"/>
</g>
</svg>
