<svg xmlns="http://www.w3.org/2000/svg" width="210" height="212" fill="none" xmlns:v="https://vecta.io/nano"><style><![CDATA[.B{fill:#ffc28e}.C{fill:#ecbb1a}.D{fill:#bdedf6}.E{fill:#fff}.F{fill:#134663}.G{fill:#dba18f}.H{fill:#eab081}.I{fill:#f0b784}.J{fill:#f9cb31}.K{fill:#e8bb95}.L{fill:#3d3b36}.M{fill:#f3b70e}.N{fill:#f2b100}.O{fill:#02567d}.P{opacity:.26}.Q{stroke-miterlimit:10}.R{fill:#20b7ea}.S{fill:#1c9ec6}.T{fill:#f7dc54}.U{fill:#373b6d}.V{fill:#9f72bf}.W{fill:#60121a}.X{fill:#6b33fb}.Y{fill:#6fc1cf}.Z{stroke-linecap:round}.a{stroke-linejoin:round}]]></style><path d="M210 106c0 58.02-47.01 105.055-105 105.055S0 164.02 0 106 47.01.945 105 .945 210 47.98 210 106z" fill="#3d79cf"/><mask id="A" mask-type="alpha" maskUnits="userSpaceOnUse" x="0" y="0" width="210" height="212"><path d="M210 106c0 58.02-47.01 105.055-105 105.055S0 164.02 0 106 47.01.945 105 .945 210 47.98 210 106z" fill="#3d79cf"/></mask><g mask="url(#A)"><path d="M106.14 147.199c31.931 0 57.815-25.919 57.815-57.892s-25.884-57.892-57.815-57.892-57.814 25.919-57.814 57.892 25.884 57.892 57.814 57.892z" stroke="#d4d4d4" stroke-width="2" stroke-dasharray="3.02 5.03" class="Q"/><path d="M171.395 72.98l-.009.368a9.58 9.58 0 0 1-.37 2.307c-.299 1.039-.766 2.004-1.374 2.865l-.233.317a9.55 9.55 0 0 1-2.403 2.221l-.165.103-.068.042-.069.044-.164.096-.62.325-.197.09-.694.283a9.56 9.56 0 0 1-2.027.485l-.257.032-.568.04-.392.008a6.38 6.38 0 0 1-.337-.008l-.676-.044a9.25 9.25 0 0 1-1.255-.217c-.335-.079-.663-.179-.983-.295-.409-.145-.805-.319-1.185-.521l-.016-.008c-.01-.006-.019-.011-.031-.016l-.153-.08a9.71 9.71 0 0 1-2.684-2.193 9.6 9.6 0 0 1-2.296-6.244 9.62 9.62 0 0 1 19.132-1.344l.04.325.054 1.02z" class="D"/><path d="M163.55 72.062l-.003.003.002-.003h.001z" class="G"/><path d="M163.436 72.168a1.07 1.07 0 0 1 .111-.103l-.184.184.073-.081z" class="G"/><path d="M163.9 72.967a1.93 1.93 0 0 1-.093-.592v-.502l-.257.189h-.001l-.186.187-.285.284h-.001c-.085.074-.176.143-.282.199-.161.082-.385.084-.591.073v.599l-.011 1.098h.007.006c.755-.015 1.423-.386 1.845-.952l.014-.025c.011.004-.087-.312-.165-.558z" fill="#e0a579"/><path d="M162.35 77.406l-.008.187c-.013.176-.074.293-.165.377a.3.3 0 0 1-.05.042c-.267.199-.719.209-1.002.541a4.26 4.26 0 0 0-.518.76c-.01.02-.022.04-.028.06-.067.134-.113.275-.166.413l-.093.258-.106.288-.209.605-.489 1.402c-.335-.079-.663-.179-.984-.295a8.85 8.85 0 0 1-1.185-.521l-.015-.008c-.005-.041-.014-.044-.031-.016l-.153-.08a9.71 9.71 0 0 1-2.684-2.193c.493-1.772 1.139-3.841 1.54-4.287.239-.265.385-.419.735-.527.127-.039 1.282-.163 1.489-.261.018-.008.029-.015.03-.024l.003 2.941h1.328v-3.344l.574-.174.073-.021c.004.006.008.014.018.023a1.9 1.9 0 0 0 .179.203c.448.421 1.139.692 1.76.739a.77.77 0 0 0 .078.004l.071.005.008 2.904z" fill="#455256"/><path d="M169.642 78.521l-.233.317a9.55 9.55 0 0 1-2.403 2.221c-.008-.022-.012-.016-.012.008l-.153.095-.068.042-.031-.101c-.015-.032-.023-.04-.024-.014l-.014.16-.164.096-.62.325-.197.09-.694.283-.286-.61c-.374-.67-.656-1.383-1.012-2.059l-.032-.06c-.062-.112-.334-.038-.639.06l-.057.017c-.319.101-.662.218-.825.156a.12.12 0 0 1-.064-.04c-.231-.27-.09-.912.014-1.494l.049-.293a2.86 2.86 0 0 0 .035-.313c.003-.105 0-.201-.019-.281v-1.641l.009-.319v-.662a.63.63 0 0 0 .069-.004c.733-.036 1.372-.398 1.781-.947.009-.01.013-.017.018-.023l.073.021.574.174v3.344h1.328v-2.944c.812.245 1.129.165 1.83.661.876.623 1.224 1.617 1.482 2.622l.285 1.114z" fill="#3b494c"/><path d="M162.204 73.405v-.599l-.078.002-.081.003c-.031 0-.061-.003-.091-.004l-.066-.003-.101-.016-.047-.008a.66.66 0 0 1-.132-.048c-.267-.139-.446-.35-.642-.565-.133-.147-.31-.247-.469-.367l-.02.698a1.31 1.31 0 0 1-.047.304l-.186.723.001.002a2.36 2.36 0 0 0 .971.779h.001c.23.1.482.165.744.187h.001l.174.009h.001.042.014l.011-1.098z" class="H"/><path d="M158.367 77.593h1.032v.297h-1.032v-.297zm-.263-.187v3.355l-.764.355.008.405c.38.202.776.376 1.185.521.32.116.649.216.983.295.408.099.828.174 1.255.218l.677.044.333.008.396-.008v-5.192h-4.073z" class="R"/><path d="M164.871 77.593h1.032v.297h-1.032v-.297zm1.87 3.51l-.024-.014-.554-.327v-3.355h-3.986v5.193l.567-.04.257-.032c.701-.088 1.38-.254 2.027-.485l.695-.283.196-.09.621-.325.154-.092.078-.048.068-.042-.099-.059z" class="S"/><path d="M164.984 73.8l-.268-.077v3.344h1.328v-2.944l-1.06-.323zm.922 3.06h-1.032v-.295h1.032v.295z" class="R"/><path d="M159.589 73.738l-.218.063-1.111.326h-.002c-.01.004-.02.008-.03.01v2.932h1.371v-3.334zm-1.178 3.123v-.295h1.031v.295h-1.031z" class="S"/><path d="M165.907 77.593h-1.031v.297h1.031v-.297zm0-1.028h-1.031v.297h1.031v-.297z" fill="#455256"/><path d="M159.4 77.593h-1.033v.297h1.033v-.297zm0-1.028h-1.033v.297h1.033v-.297z" fill="#303e43"/><path d="M165.919 79.372v2.297l-.196.09-.695.283c-.647.231-1.326.397-2.027.485v-3.155h2.918z" class="R"/><path d="M158.089 76.526l.757.146.002-.004 1.156 3.347-.504-.044-.925-2.681c-.356-.052-.674-.296-.799-.661a.99.99 0 0 1 .07-.807l.243.705z" fill="#84969b"/><path d="M159.107 75.384c.25.107.456.314.552.592.125.365.028.753-.222 1.014l1.059 3.068-.492-.043-1.156-3.347.501-.578-.242-.705z" fill="#62767f"/><path d="M157.778 77.63l.766.078.003-.005 1.444 3.232h-.505l-1.157-2.59a.99.99 0 0 1-.854-.588c-.121-.269-.112-.561-.001-.81l.304.681z" class="T"/><path d="M158.691 76.403c.258.085.483.272.603.541a1 1 0 0 1-.131 1.03l1.323 2.962h-.495l-1.443-3.232.448-.619-.305-.681z" class="C"/><path d="M161.448 79.372v3.226l-.677-.044c-.427-.043-.847-.118-1.255-.217-.335-.079-.663-.179-.983-.295v-2.67h2.915z" class="S"/><path d="M160.152 71.702c.018.13.08.25.177.337l.847.766c-.19-.849-.659-1.541-1.178-2.272l.154 1.169z" class="I"/><path d="M164.255 70.886l.148-1.178-.006-1.413c-.012-.278-.099-.436-.359-.59-.316-.187-.559-.092-.84.006l-.293.087c-.3.064-.631.121-.918-.01-.471-.214-.927-.563-1.491-.532a.74.74 0 0 0-.288.069c-.186.094-.287.282-.341.468-.135.457.067.842.016 1.314l.012.637.104.793c.519.73.988 1.423 1.178 2.272l.202.183c.096.086.219.134.348.132l.433-.003.434-.003c.128-.001.251-.05.344-.137l.302-.279c.013-.77.286-1.539 1.015-1.815z" class="B"/><path d="M164.255 70.885c-.729.277-1.002 1.045-1.015 1.815l.796-.738a.36.36 0 0 0 .113-.219l.106-.858z" class="I"/><path d="M160.17 69.729l-.072-.422c-.013-.045-.036-.097-.087-.107-.027-.006-.058.026-.082.012-.181-.106-.294.015-.351.186-.067.199-.046.328.046.505.108.205.176.432.267.645.024.054.122.367.204.367l.395-.003c-.131.001-.246-.703-.32-1.183zm3.956-.029c.022-.149.055-.297.138-.463.04-.078.125-.17.209-.13.114.056.195.19.243.303.074.172.003.261-.069.426-.046.106-.367 1.048-.438 1.048l-.395.004c.086-.257.209-.523.256-.787l.056-.401z" class="B"/><path d="M160.082 70.117l-.134-1.076c-.091-.472.172-.962.448-1.367.045-.066.099-.135.181-.159.112-.032.226.032.322.091.321.199 1.049.452 1.049.452s.758.024 1.121-.055c.249-.054.588-.234.841-.089.206.119.263.489.348.706l.014 1.787.233-.714c.186-.629.234-2.079.234-2.079s-1.008-1.025-1.598-.914c.208-.039.592.018.801-.021-.796-.245-1.452-.476-2.109-.368s-1.269.397-1.78.784c-.229.172-.575.608-.575.608s.007 1.554.604 2.414z" fill="#733f3a"/><path d="M162.184 68.904a28.66 28.66 0 0 1-.881-.014l-.962-.045a1.97 1.97 0 0 1-.178-.021 1.65 1.65 0 0 1-.324-.08 1.17 1.17 0 0 1-.21-.095l.035.043a.79.79 0 0 0 .149.136c.015.01.033.019.047.028.036.023.069.047.11.066.06.028.125.051.193.071.086.026.176.044.269.054l1.751.081.002-.224h-.001zm-2.383-.584l-.051-.007.051.007z" class="J"/><path d="M161.408 67.677l.105.325v.001l-.105-.326z" class="K"/><path d="M160.033 68.349l-.232-.029v.001l.232.028zm1.375-.672l-.205-.585.205.585z" class="L"/><path d="M162.184 65.179h0-.002v3.047h.002v-3.047z" class="C"/><path d="M162.182 69.15v-.023a18.75 18.75 0 0 1-1.751-.081c-.093-.009-.183-.028-.269-.054a1.37 1.37 0 0 1-.193-.071c-.04-.019-.074-.043-.109-.066l-.047-.028a.75.75 0 0 1-.15-.136l-.035-.043c.06.037.133.067.211.096a1.69 1.69 0 0 0 .306.078l.196.023.961.045.88.014v-.11-.135-.098-.093a20.4 20.4 0 0 1-.716-.014l-.213-.012-.503-.028-.258-.023-.298-.026-.161-.015-.232-.028-.051-.007-.382-.047-.096-.015-.072.052-.033.291c-.021.183.138.359.354.386l.299.034c.028.023.06.043.09.063.077.054.157.1.246.136h.001a1.32 1.32 0 0 0 .388.094l1.639.07v-.226h-.002z" class="M"/><path d="M162.184 68.226v-3.047c-.511.03-.875.132-1.124.239s-.379.218-.424.265c-.008.013.038.104.069.17l-.219.151c-.703.501-1.133 1.291-1.12 2.149l.001.092v.018a1.31 1.31 0 0 0 .149.02l.233.03.052.007c.01.002.02.002.03.004l.197.025.166.017.298.025.256.023.504.03.214.01.717.014h.001v-.241h0 0zm-.741-.363l-.096-.189-.14-.276v-.002l-.4-.76-.263-.443-.051-.086c.031-.03.067-.058.1-.088.011-.01.023-.021.036-.03l.103-.084.027.066c.011.022.018.042.028.068l.044.108.164.405.036.087.173.454.128.359.077.225.064.197.04.128-.07-.139z" class="T"/><path d="M160.543 66.194c.289.458.557.989.804 1.48l.166.329v-.001l-.105-.325-.205-.585-.415-1.051-.029-.068c-.011-.023-.021-.048-.029-.068h-.001l-.02.016-.116.101-.101.089.051.084z" class="M"/><path d="M162.184 68.904l.881-.014.962-.045c.061-.004.121-.012.178-.021.129-.019.231-.047.324-.08.079-.028.151-.059.21-.095l-.034.043a.8.8 0 0 1-.15.136c-.014.01-.032.019-.048.028l-.109.066c-.059.028-.124.051-.193.071a1.4 1.4 0 0 1-.269.054l-1.75.081-.002-.224h0z" class="C"/><path d="M164.568 68.32l.051-.007-.051.007z" class="J"/><path d="M162.96 67.677l-.104.325v.001l.104-.326z" class="K"/><path d="M164.336 68.349l.232-.029v.001l-.232.028zm-1.376-.672l.205-.585-.205.585z" class="L"/><path d="M162.184 65.179h.002v3.047h-.002v-3.047z" class="C"/><path d="M162.186 69.15v-.023l1.751-.081a1.4 1.4 0 0 0 .269-.054c.068-.02.133-.043.193-.071.04-.019.074-.043.109-.066l.048-.028a.78.78 0 0 0 .15-.136l.034-.043c-.059.037-.131.067-.21.096a1.71 1.71 0 0 1-.306.078l-.197.023-.961.045-.879.014v-.11-.135-.098-.093l.716-.014.212-.012.504-.028.257-.023.298-.026.162-.015.232-.028.051-.007.381-.047.097-.015.072.052.032.291c.022.183-.138.359-.353.386l-.299.034c-.028.023-.06.043-.091.063a1.25 1.25 0 0 1-.245.136c-.122.05-.253.082-.389.094l-1.638.07v-.226h0z" class="N"/><path d="M163.32 66.687h0zm0 0h0zm.562-.683l-.219-.151c.034-.066.079-.157.068-.17-.045-.047-.177-.159-.424-.265s-.61-.21-1.12-.239v3.047h-.002v.241h.002l.715-.014.213-.01.503-.03.259-.023.297-.025h.001l.16-.017c.022-.001.042-.006.063-.008l.171-.021.051-.006c.025-.005.054-.006.079-.01l.301-.038.003-.112c.011-.859-.417-1.648-1.121-2.149zm-.301.036l.03-.068c.012-.024.017-.042.021-.052.034.01.072.039.108.07.012.008.024.019.036.03l.102.088-.052.086-.115.187-.111.192-.066.115-.029.054-.484.931-.053.105-.113.224.068-.212.035-.114.205-.583.118-.309.036-.087.075-.19.185-.461zm-.261.646h0z" class="C"/><path d="M163.826 66.194c-.29.458-.557.989-.804 1.48l-.166.329v-.001l.104-.325.205-.585.416-1.051.029-.068.03-.068c.007.005.013.011.021.016l.115.101.1.089-.05.084z" class="N"/><path d="M86.318 141.447l-.038.848-.09.722a9.56 9.56 0 0 1-.912 2.785 9.65 9.65 0 0 1-.832 1.351l-.164.212-.133.166a9.59 9.59 0 0 1-2.099 1.918h-.001l-.152.098a9.06 9.06 0 0 1-1.045.584c-.508.247-1.041.446-1.596.598a9.23 9.23 0 0 1-1.322.265l-.108.014c-.322.038-.649.06-.98.064l-.141.001h-.002c-.046 0-.093 0-.139-.001-2.946-.042-5.57-1.41-7.306-3.536l-.134-.168a9.59 9.59 0 0 1-2.033-5.922c0-5.315 4.305-9.624 9.612-9.624a9.62 9.62 0 0 1 9.6 9.079 11.88 11.88 0 0 1 .014.546z" class="D"/><path d="M78.112 141.058l-.003.004.002-.003.001-.001z" class="G"/><path d="M77.996 141.168a1.07 1.07 0 0 1 .113-.106l-.189.188.076-.082z" class="G"/><path d="M78.471 141.985a1.97 1.97 0 0 1-.095-.606v-.514l-.263.193-.001.001-.191.192-.291.291h-.001c-.088.076-.18.147-.289.203-.165.084-.394.087-.606.077v.613h.001l-.012 1.124h.007.005c.775-.015 1.46-.394 1.893-.975l.014-.026c.012.005-.089-.319-.169-.573z" fill="#e0a579"/><path d="M76.732 142.436v-.614h0l-.079.002-.083.002a1.42 1.42 0 0 1-.093-.004c-.023 0-.046 0-.067-.002-.036-.004-.07-.011-.104-.017-.016-.003-.033-.004-.048-.009-.049-.011-.094-.027-.135-.048-.275-.142-.458-.36-.659-.578-.137-.151-.318-.254-.481-.377l-.021.714a1.24 1.24 0 0 1-.048.312l-.19.741.001.002c.254.348.595.626.996.799a2.42 2.42 0 0 0 .764.192l.178.008h.044.014l.012-1.124h-.001v.001z" class="H"/><path d="M74.629 140.689c.017.133.082.256.181.346l.869.786c-.195-.871-.675-1.58-1.207-2.328l.157 1.196z" class="I"/><path d="M78.835 139.853l.151-1.207-.006-1.45a.64.64 0 0 0-.367-.604c-.324-.192-.573-.095-.861.005-.094.034-.193.067-.3.089-.307.066-.646.124-.941-.01-.483-.22-.95-.577-1.528-.546-.103.005-.206.025-.296.071-.19.096-.294.289-.349.479-.138.469.07.863.017 1.346l.012.653.107.814c.532.748 1.012 1.458 1.207 2.328l.207.188a.52.52 0 0 0 .356.136l.444-.004.445-.003c.131-.001.257-.051.353-.14l.309-.286c.013-.788.293-1.575 1.041-1.859z" class="B"/><path d="M78.835 139.853c-.748.284-1.028 1.071-1.041 1.86l.817-.756c.064-.059.105-.139.115-.225l.109-.879z" class="I"/><path d="M74.647 138.667l-.073-.433c-.014-.046-.037-.099-.089-.11-.028-.006-.059.027-.083.013-.187-.109-.302.016-.36.19a.58.58 0 0 0 .047.519c.11.21.18.442.273.66.024.057.125.377.209.377l.405-.004c-.134.002-.253-.72-.329-1.212zm4.056-.03a1.46 1.46 0 0 1 .141-.473c.04-.08.128-.175.215-.133.117.056.2.194.249.309.075.176.001.267-.071.437-.047.109-.377 1.074-.449 1.075l-.406.003c.088-.263.215-.536.263-.806l.057-.412z" class="B"/><path d="M74.558 139.066l-.138-1.104c-.093-.484.175-.986.459-1.401.046-.067.102-.139.186-.163.114-.033.231.033.329.094.331.202 1.075.462 1.075.462s.776.025 1.149-.056c.256-.055.603-.241.862-.091.212.121.269.501.356.723l.014 1.832.24-.732c.19-.645.239-2.13.239-2.13s-1.033-1.052-1.638-.938c.215-.04.607.018.822-.021-.817-.251-1.489-.488-2.162-.377s-1.3.407-1.824.804c-.233.176-.588.622-.588.622s.006 1.594.619 2.476z" fill="#393b42"/><path d="M76.712 137.822h-.001a33.84 33.84 0 0 1-.901-.014l-.986-.047c-.062-.003-.123-.012-.183-.02-.132-.021-.237-.049-.332-.083-.081-.029-.155-.061-.215-.098l.035.044c.042.051.094.097.154.14.015.011.032.019.048.029l.112.067a1.23 1.23 0 0 0 .197.073 1.31 1.31 0 0 0 .276.055l1.794.083h.001v-.229zm-2.443-.599l-.053-.007.053.007z" class="J"/><path d="M75.917 136.565l.106.333v.001l-.106-.334z" class="K"/><path d="M74.506 137.253l-.238-.03.238.03zm1.411-.688l-.21-.6.21.6z" class="L"/><path d="M76.712 134.005h-.002.001v3.122h.001v-3.122z" class="C"/><path d="M76.711 138.074v-.023a19.23 19.23 0 0 1-1.794-.084c-.097-.008-.188-.028-.276-.054a1.33 1.33 0 0 1-.197-.073c-.041-.019-.075-.044-.112-.068l-.048-.029a.77.77 0 0 1-.154-.14l-.035-.044c.061.038.135.069.215.098a1.72 1.72 0 0 0 .314.081l.2.022.986.047.901.014v-.112-.139-.101-.095c-.244 0-.489-.004-.733-.013l-.219-.012-.516-.03-.265-.023-.304-.027-.167-.016-.238-.03-.053-.007-.391-.048c-.033-.007-.066-.01-.1-.015l-.074.053-.034.299c-.021.187.142.366.363.395l.307.034c.029.024.061.044.093.065.079.055.161.103.252.139a1.33 1.33 0 0 0 .398.095l1.679.073v-.232h.001z" class="M"/><path d="M76.71 137.127v-3.122c-.524.027-.896.133-1.151.242a1.45 1.45 0 0 0-.434.274c-.008.014.038.108.072.175l-.225.155c-.72.511-1.161 1.321-1.149 2.204l.002.092v.02l.155.021.234.028.053.006c.01.002.023.002.032.005l.202.026.171.016.305.027.265.024.515.028.219.012.733.014h.002v-.247h-.001 0zm-.759-.371l-.097-.195-.141-.282-.153-.295-.102-.193-.159-.291-.133-.231-.135-.224-.052-.088a.31.31 0 0 1 .037-.034l.064-.054.002-.002.141-.118c.01.02.018.046.028.068l.03.069.114.276.079.195.02.052.074.189.037.098.037.094.034.09c.012.028.022.055.032.084l.134.372.078.229.066.205.04.127-.073-.141z" class="T"/><path d="M75.03 135.045c.296.47.571 1.012.823 1.516l.169.337v-.001l-.106-.332-.21-.601-.427-1.077-.03-.07-.03-.07h-.001l-.021.016-.119.103-.104.091.053.088z" class="M"/><path d="M76.712 137.822l.903-.014.985-.047c.063-.003.123-.012.184-.02a1.81 1.81 0 0 0 .332-.083 1.17 1.17 0 0 0 .215-.098l-.035.044a.78.78 0 0 1-.153.14c-.015.011-.033.019-.049.029-.037.023-.071.048-.112.067a1.23 1.23 0 0 1-.197.073c-.088.027-.18.047-.276.055l-1.795.083-.002-.229h.001z" class="C"/><path d="M79.155 137.223l.053-.007-.053.007z" class="J"/><path d="M77.506 136.565l-.106.333v.001l.106-.334z" class="K"/><path d="M78.918 137.253l.237-.03-.237.03zm-1.412-.688l.211-.6-.211.6z" class="L"/><path d="M76.712 134.005h.001.001v3.122h-.002v-3.122z" class="C"/><path d="M76.714 138.074v-.023l1.795-.084a1.37 1.37 0 0 0 .276-.054c.069-.02.136-.044.197-.073.041-.019.075-.044.112-.068.016-.009.034-.018.049-.029a.79.79 0 0 0 .153-.14l.035-.044c-.061.038-.135.069-.215.098-.095.034-.2.063-.314.081l-.202.022-.985.047-.902.014v-.112-.139-.101-.095l.733-.013.218-.012.517-.03.265-.023.305-.027.166-.016.237-.03.053-.007.391-.048c.033-.007.066-.01.099-.015l.073.053.034.299c.021.187-.142.366-.362.395l-.307.034c-.028.024-.062.044-.092.065a1.23 1.23 0 0 1-.253.139 1.33 1.33 0 0 1-.398.095l-1.679.073v-.232z" class="N"/><path d="M77.874 135.55h0zm0 0h0zm.578-.698l-.225-.155c.034-.068.079-.162.072-.175-.048-.048-.181-.162-.434-.274s-.627-.215-1.151-.243v3.123h-.002v.247h.002l.733-.014.219-.012.515-.028.265-.023.305-.028h.001l.165-.016.064-.008.173-.023.052-.005.086-.011.306-.038v-.022c.003-.029 0-.062.003-.091.013-.884-.428-1.694-1.148-2.204zm-.504.516l.195-.481.03-.069c.01-.022.017-.047.027-.067l.142.118.103.089-.052.088-.233.39-.066.117-.03.055-.202.378-.175.341-.12.235-.056.112-.114.225.068-.215.038-.118.211-.6.032-.084.034-.09.036-.094.037-.098.016-.038.021-.062.052-.131h.003v-.001zm-.074.182h0zm0 0h0z" class="C"/><path d="M78.394 135.045c-.296.47-.57 1.012-.823 1.516l-.17.337v-.001l.106-.332.211-.601.426-1.077.03-.07.03-.07.022.016.119.103.104.091-.054.088z" class="N"/><path d="M76.704 148.139v2.935c-.046 0-.094 0-.139-.002a9.59 9.59 0 0 1-7.306-3.535l.709-3.205 4.124-1.707.545-.225.092-.038c.016-.009.031-.014.041-.018l.03-.012.061-.024.136.564v.002l.227.936.002.007.133.556.074.306.012.051.53 1.434v.002l.697 1.884.032.089z" fill="#2c5263"/><path d="M76.705 143.127c-.363.017-.839.738-1.085.966-.419.39-.617.812-.758 1.299a5.41 5.41 0 0 1 .654.964c.222.423.366.85.509 1.303.074.232.138.589.412.619.093.01.183-.028.267-.093v-5.058z" fill="#cad9e0"/><path d="M76.705 143.127c.364.017.84.738 1.085.966.419.39.617.812.757 1.299-.242.291-.459.593-.654.964-.222.423-.365.85-.509 1.303-.073.232-.138.589-.411.619-.093.01-.183-.028-.268-.093v-5.058z" fill="#cad9e0"/><path d="M77.064 144.377l.372-.577c.008-.02-.394-.6-.687-.766-.047.019-.095.033-.148.035-.039.002-.062-.015-.078-.038-.015.017-.028.04-.04.069-.03.087-.426.546-.513.632-.022.021.035.139.046.168l.253.476c.046.086.06.187.039.282l-.47 2.142c.204.097.437 2.827.655 2.881.51.125.785-2.742.945-3.157l-.411-1.866c-.022-.094-.008-.195.039-.281z" fill="#21414f"/><path d="M76.69 143.046c-.014 0-1.713-1.552-1.713-1.552l-.45 1.207.572 2.416 1.592-2.071zm.015.006c.014 0 1.69-1.558 1.69-1.558l.45 1.207-.571 2.416-1.569-2.065z" fill="#e4f4ff"/><path d="M76.706 148.148v2.926h-.002c-.046 0-.094 0-.139-.002l-1.056-3.049c-.557-1.535-1.316-2.698-1.916-3.476l.934-.456-1.029-.435c.06-.165.074-.586.345-.817l.249-.214c.299-.251.468-.383.581-.427l.018.057.038.107.022.06v.002l.099.293.374 1.093.002.008.173.507.093.274.504 1.472.675 1.979.032.089v.001l.003.008z" fill="#25485b"/><path d="M84.15 147.532c-.598.738-1.306 1.384-2.099 1.917h-.001l-.152.098c-.334.218-.683.413-1.045.584-.508.247-1.041.447-1.596.599a9.23 9.23 0 0 1-1.322.265l-.108.013c-.322.038-.649.06-.98.064l-.141.002h-.002v-2.935l.042-.114.01-.026.63-1.701.581-1.567.004-.013.106-.315.659-1.997.032-.097.307.133 4.369 1.891c-.001 0 .401 1.779.706 3.199z" fill="#25485b"/><path d="M78.883 144.092l.934.456a12.91 12.91 0 0 0-1.915 3.476l-1.054 3.049-.141.002v-2.927l.04-.122.01-.025.604-1.819v-.002l.522-1.579.104-.307v-.002l.514-1.551.106-.319.064-.193v-.003l.01-.026c.081.033.213.108.396.244l.494.396c.271.231.284.653.345.818l-1.032.434z" fill="#2c5263"/><path d="M142.617 141.483l-.014.519-.022.34a9.63 9.63 0 0 1-.946 3.418c-.16.329-.337.644-.532.951-.46.728-1.015 1.388-1.648 1.961-.029.03-.059.055-.091.084l-.165.146-.22.18a9.52 9.52 0 0 1-1.451.956l-.725.346c-.018.009-.033.014-.051.022a8.88 8.88 0 0 1-1.085.383c-.303.086-.61.155-.925.212a9.5 9.5 0 0 1-1.39.138l-.148.004h-.092c-.316 0-.631-.016-.94-.046-.769-.076-1.513-.246-2.218-.5l-.199-.072a9.48 9.48 0 0 1-2.644-1.55l-.134-.11c-2.059-1.773-3.369-4.421-3.369-7.381 0-5.334 4.254-9.66 9.503-9.66 4.642 0 8.508 3.38 9.337 7.858a9.53 9.53 0 0 1 .169 1.801z" class="D"/><path d="M135.702 135.711l-.127-.135.127.135z" fill="#2b2924"/><path d="M131.416 143.689s.828-.796.454-2.663c-.157-.781 3.112.292 3.112.292-.196.466-.348 1.069-.134 1.642.176.476.484.606.423.877-.102.459-1.756.853-2.071.822s-1.308-.294-1.438-.49c-.115-.17-.21-.325-.346-.48z" class="H"/><path d="M139.455 148.672l-.091.084-.165.146-.221.18a9.52 9.52 0 0 1-1.451.956l-.725.346c-.017.009-.033.014-.051.022a8.82 8.82 0 0 1-1.085.383c-.303.086-.61.155-.925.212-.453.08-.917.125-1.39.138l-.147.004h-.093a9.78 9.78 0 0 1-.94-.046c-.768-.076-1.513-.246-2.218-.5l-.198-.072c-.967-.37-1.857-.899-2.645-1.55l.453-2.832c.265-1.014.854-1.751 1.833-2.057.064-.02.465-.098.905-.218a6.79 6.79 0 0 0 .754-.243 2.25 2.25 0 0 0 .374-.184c.028-.017.032 0 .077.032.008.006.025.009.053.033.775.76 1.741.8 1.741.8.422.006.785-.125 1.076-.302a2.86 2.86 0 0 0 .398-.29c.098-.084.179-.168.246-.237l.002-.003.067-.072.002-.001.018-.019.445.154h.001l.099.034.748.256.764.26c.977.306 1.567 1.043 1.833 2.058.1.378.276 1.387.456 2.528z" fill="#a4d7e7"/><path d="M136.013 138.635c.002-.008 0-.024-.005-.04-.004.037-.007.068.005.04z" fill="#a74214"/><path d="M135.384 138.909a2.03 2.03 0 0 0-.442-.836 2.3 2.3 0 0 0-1.139-.722c-.178-.049-.363-.075-.533-.148l-.031-.016v5.502c.145.009.275-.004.419-.054.35-.123.62-.371.89-.599l.078-.065c.392-.322.55-.792.697-1.232.183-.547.195-1.274.061-1.83z" class="B"/><path d="M132.981 136.921l-.235-.245c-.049-.058-.102-.116-.167-.153-.129-.075-.29-.068-.432-.024-.354.109-.623.422-.754.774-.119.318-.104.626-.113.957-.007.283-.115.504-.171.788-.104.527-.088 1.207.085 1.721.147.441.305.91.696 1.232l.128.107c.254.215.511.441.84.556a.97.97 0 0 0 .381.055c.007 0 0-.829 0-.876v-3.104-1.206c.001-.311-.093-.418-.258-.582z" class="B"/><path d="M131.178 140.661c-.091-.02-.179-.05-.246-.113-.093-.085-.127-.214-.148-.339s-.025-.254-.073-.369c-.032-.077-.081-.145-.111-.223s-.036-.173.013-.239.141-.085.224-.084c.096.001.171.033.228.086l-.007.175c-.004.237.016.475.05.709l.07.397zm4.694-1.044c-.029.077-.078.145-.111.222-.048.116-.054.245-.073.369s-.055.255-.147.339c-.052.05-.119.08-.188.099.038-.129.066-.267.086-.409.032-.233.042-.476.031-.713l-.013-.182c.049-.03.108-.048.178-.049.083-.001.174.017.224.084s.043.162.013.24z" class="B"/><path d="M132.742 135.409c-.208.048-.411.122-.611.197-.281.105-.563.215-.803.396-.591.449-.895 1.14-.996 1.865-.036.254-.031.511-.026.767a3.51 3.51 0 0 0 .185 1.122c.063.183.124.368.223.535.047.082.103.158.161.233.008-.005.015-.01.024-.012-.068-.084-.097-.197-.115-.304-.019-.124-.025-.254-.073-.369-.032-.077-.081-.146-.111-.223s-.036-.173.013-.239.141-.086.224-.084c.154.002.254.1.298.246-.022-.073.016-.189.016-.269 0-.106.009-.211.027-.315.057-.32.274-.66.422-.948a5.2 5.2 0 0 0 .469-1.23 2.44 2.44 0 0 0 1.151.831v-2.256c-.164.004-.325.022-.478.057z" fill="#e0ac0f"/><path d="M136.223 138.355c-.041-.428-.138-.861-.252-1.245-.322-1.089-1.638-1.778-2.752-1.758v2.256c.097.033.196.061.296.081l.584.097c.481.112.779.343 1.022.757 0-.057-.067-.333.002-.229.104.282.275.806.232 1.108a.79.79 0 0 0 .089-.173l.012.095a.32.32 0 0 1 .178-.052c.083-.001.174.017.225.084s.042.161.013.239-.078.146-.111.223c-.048.116-.054.245-.073.369s-.056.254-.147.339c-.04.038-.151.06-.188.099-.066.069-.049.159-.059.263.515-.414.833-1.053.921-1.715.037-.265.035-.551.008-.838z" fill="#ce9225"/><path d="M135.57 141.203c.05.151.102.304.122.462.059.44-.117.879-.343 1.259-.197.328-.44.65-.476 1.033-.041.431.19.846.196 1.28.007.521-.353 1.026-.843 1.181.137-.179.275-.36.365-.567s.132-.444.066-.66c-.049-.161-.153-.3-.211-.458-.056-.152-.066-.317-.068-.48-.005-.663.013-1.414.301-2.01.212-.436.493-.788.592-1.251.016-.075.061-.153.082-.229s.042-.115.11-.15c-.014.201.043.401.107.59z" fill="#ce9225"/><path d="M134.891 145.626a1.41 1.41 0 0 1-.054.188c-.047.121-.19.382-.323.412.265-.059.494-.251.622-.493a1.29 1.29 0 0 0 .121-.804c-.045-.293-.174-.594-.084-.877.075-.237.284-.397.443-.584.27-.317.409-.74.413-1.159a2.4 2.4 0 0 0-.327-1.197c-.089-.159-.198-.322-.193-.504-.11.031-.181.146-.201.26s.005.231.026.346c.101.582.116 1.216-.166 1.734-.076.14-.173.268-.249.408-.166.303-.236.659-.197 1.004.032.293.14.572.182.865a1.13 1.13 0 0 1-.013.401z" fill="#e0ac0f"/><path d="M130.724 135.353l-.297 1.701h5.587l-.39-2.934-4.9 1.233zm2.629 11.371v4.415l-.148.004h-.093a9.74 9.74 0 0 1-.939-.046c-.769-.076-1.513-.246-2.218-.5l.348-3.186v-3.688l.742-.208.012.11.358 3.1h1.938v-.001z" fill="#1ca8f0"/><path d="M136.803 150.384c-.018.009-.033.014-.051.022a8.88 8.88 0 0 1-1.085.383c-.303.086-.61.155-.925.212a9.5 9.5 0 0 1-1.39.138v-4.415h1.935l.368-3.156.006-.053.742.208v3.687l.4 2.974z" fill="#0193da"/><path d="M136.004 149.372h-1.98v1.307h1.98v-1.307z" fill="#a4d7e7"/><path d="M135.624 149.187h-1.156v.442h1.156v-.442z" fill="#939598"/><path d="M115.998 31.497v.072c0 3.304-1.663 6.22-4.198 7.954a9.56 9.56 0 0 1-3.54 1.489c-.418.083-.848.14-1.285.166l-.589.018c-.083 0-.169-.003-.253-.005l-.315-.014-.211-.016c-.627-.048-1.236-.158-1.823-.325l-.919-.308-.056-.024c-.294-.117-.583-.251-.862-.396l-.323-.177c-.296-.17-.582-.353-.857-.554-.429-.308-.833-.652-1.203-1.027a9.53 9.53 0 0 1-.866-1.003 9.57 9.57 0 0 1-1.925-5.778 9.62 9.62 0 0 1 9.614-9.625c4.736 0 8.674 3.431 9.465 7.949.073.405.12.82.137 1.243 0 .012.002.025.002.037l.008.323z" class="D"/><path d="M103.87 27.195l.124-.129-.124.129z" fill="#2b2924"/><path d="M107.936 35.435c-.025.034-.093.254-.192.588l-.029.094-.078.269-.216.746-1.288 4.059-.315-.014c-.26-.661-.7-2.509-1.043-4.026l-.169-.743-.105-.487-.211-.961v-.002c-.033-.144.032-.241.122-.368l.003-.001.041-.057c.011-.012.015-.016.017-.021l.134-.208a1.77 1.77 0 0 0 .091-.193l.037-.108v-.002c.1-.347.07-.7-.015-1.021-.041-.155-.094-.303-.151-.437l.781-.227.641-.161.265-.056c.727-.142 1.397-.185 1.327.168-.075.361-.1.68-.093.959a3.11 3.11 0 0 0 .118.807c.075.256.173.441.255.569.088.14.158.205.158.205-.131.148.024.467-.085.629z" class="H"/><path d="M103.57 29.985c-.003-.008-.001-.023.004-.039.004.035.006.065-.004.039z" fill="#a74214"/><path d="M104.462 34.451l.273-.45a3.46 3.46 0 0 0 .413.419c.451.39.557.385.741.65.112.163.294.419.26.996 0 0-.383.541-.542.646s-1.517-1.159-1.517-1.159l.372-1.102zm3.444.006l-.269-.453a4.4 4.4 0 0 1-.495.468c-.342.276-.508.414-.763.887-.218.405-.02 1.09.362 1.349.157.107 1.526-1.147 1.526-1.147l-.361-1.105z" fill="#d8e7ef"/><path d="M111.8 39.523c-1.05.718-2.248 1.234-3.54 1.489-.418.083-.848.14-1.285.166l-.589.018c-.083 0-.169-.003-.253-.005l-.315-.014-.211-.016c-.627-.048-1.236-.158-1.823-.325l-.919-.308c-.021-.096-.038-.195-.041-.297.001.052-.002.146-.014.273-.294-.117-.583-.251-.862-.396l-.324-.177a9.28 9.28 0 0 1-.856-.554l.477-2.399c.258-.967.611-1.581 1.559-1.87.062-.019.453-.174.843-.33l.353-.141.404-.162.022-.01.034-.012a.5.5 0 0 1 .014.058c.001.014.004.028.008.042l.004.014a1.85 1.85 0 0 0 .533.952c.07.064.141.123.216.172.012.01.022.016.034.024.152.102.313.172.478.215.089.022.181.038.27.044a1.39 1.39 0 0 0 .291-.004c.689-.068 1.332-.577 1.552-1.352l.038-.164.01.002v.002l.461.146.324.112 1.077.395c.948.289 1.306.901 1.56 1.87.102.392.283 1.421.47 2.544z" fill="#a9c6d3"/><path d="M104.178 30.246c.074-.297.226-.566.427-.797a2.23 2.23 0 0 1 1.104-.689c.171-.046.351-.071.516-.142l.029-.014v5.249a1.01 1.01 0 0 1-.404-.052c-.34-.117-.601-.353-.863-.571l-.076-.062c-.379-.306-.531-.754-.675-1.174-.177-.522-.189-1.216-.058-1.747z" class="B"/><path d="M106.506 28.349l.227-.234c.047-.055.099-.11.163-.147.123-.071.28-.064.417-.022.342.105.603.403.73.739.114.303.101.597.109.913.007.27.111.481.165.752.101.503.086 1.151-.081 1.642-.143.42-.295.869-.675 1.174l-.123.103c-.247.205-.497.42-.814.53-.132.045-.253.057-.37.052-.005-.001 0-.792 0-.836v-2.961-1.15c0-.298.091-.398.252-.556z" class="B"/><path d="M108.251 31.917a.5.5 0 0 0 .24-.107c.088-.081.123-.204.141-.324s.025-.242.071-.352c.031-.073.079-.138.107-.212s.036-.165-.012-.228-.137-.082-.217-.08c-.092.001-.165.031-.219.082l.006.167c.003.227-.016.453-.049.676l-.068.379zm-4.545-.996c.029.074.076.139.107.212.046.11.053.234.071.352s.052.243.142.324a.44.44 0 0 0 .182.094 2.99 2.99 0 0 1-.083-.39 3.51 3.51 0 0 1-.03-.68l.013-.174c-.047-.029-.105-.046-.173-.046-.08-.002-.169.016-.217.08s-.041.155-.012.228z" class="B"/><path d="M104.331 31.769c-.368 1.738.568 2.967.46 3.028-.094.052-.93-.758-1.408-2.114-.153-.435-.877-2.491.197-4.36.231-.402.653-1.124 1.532-1.5.905-.386 2.213-.144 2.994.44.531.397.927 1.179 1.082 1.827.188.783-.206 1.548-.444 2.273l-.091-.599c-.028-.117-.186-.142-.251-.041l-.118.193c-.071-.96-.143-1.759-.75-2.553.123.162-1.242.587-1.405.627-.965.234-1.61 1.914-1.798 2.779z" fill="#964239"/><path d="M103.394 27.687c-.238.154-.297 1.258-.24 1.443.517-.129 1.549-.44 2.286-.503 1.093-.094 2.681.068 3.856.503.092-1.133.014-1.58-.06-1.972.001.001-4.733-1.537-5.842.529z" fill="#a9c6d3"/><path d="M103.49 27.648c.009.259-.655.004-.751-.042-.297-.143-.53-.395-.664-.642-.166-.31-.056-1.168.555-1.13-.392-.924.431-1.752 1.674-1.893.262-.03.384-.035.579-.125.257-.119.378-.232.697-.292.642-.12 1.131.027 1.467.445a1.95 1.95 0 0 1 1.749-.363c.759.172.993.636 1.038 1.2.688-.156.992.55 1.103.938.119.418-.105.921-.441 1.244-.208.202-.755.507-1.112.486-.315-.019-.643-.256-1.013-.317a7.45 7.45 0 0 0-2.331-.012c-.714.114-1.352.402-2.04.578-.406.104-.506.06-.51-.075zm4.971 8.437c-.097.715-.161 2.64-.201 4.927a9.42 9.42 0 0 1-1.285.166l-.589.018c-.083 0-.169-.003-.253-.005l-.315-.014-.211-.016a9.19 9.19 0 0 1-1.823-.325l-.919-.308a1.6 1.6 0 0 1-.041-.297 2.61 2.61 0 0 1-.014.273 9.55 9.55 0 0 1-.862-.396l-.324-.177a9.26 9.26 0 0 1-.856-.554l.477-2.399c.258-.967.611-1.581 1.559-1.87.062-.019.453-.174.843-.33l.353-.141.404-.162.022-.01c.005.01.013.022.019.032l.018.028c.006.01.012.017.017.028v.01a1.42 1.42 0 0 0 .146.525c.186.364.486.539.608.602.011.01.022.016.034.024.081.046.312.163.747.259l.137.028.169.028a7.59 7.59 0 0 0 1.309.089l.085-.001.746-.032z" fill="#bad1dd"/><path d="M107.544 37.152a.39.39 0 0 0 .388-.389.39.39 0 0 0-.388-.388.39.39 0 0 0-.388.388.39.39 0 0 0 .388.389zm0 3.112a.39.39 0 0 0 .388-.389.39.39 0 0 0-.388-.389.39.39 0 0 0-.389.389.39.39 0 0 0 .389.389zm-2.778-3.112a.39.39 0 0 0 .388-.389.39.39 0 0 0-.388-.388.39.39 0 0 0-.388.388.39.39 0 0 0 .388.389zm0 3.112a.39.39 0 0 0 .388-.389.39.39 0 0 0-.388-.389.39.39 0 0 0-.389.389.39.39 0 0 0 .389.389z" fill="#95bcc9"/><path d="M106.738 120.026c17.229 0 31.197-13.987 31.197-31.239s-13.968-31.239-31.197-31.239S75.54 71.534 75.54 88.787s13.968 31.239 31.198 31.239z" fill="#f6d738"/><path d="M106.738 115.298c14.622 0 26.476-11.869 26.476-26.511s-11.854-26.512-26.476-26.512-26.477 11.87-26.477 26.512 11.854 26.511 26.477 26.511z" fill="#f3cc30"/><path d="M120.59 66.158a26.41 26.41 0 0 1 4.165 14.281c0 14.642-11.854 26.512-26.476 26.512a26.33 26.33 0 0 1-13.852-3.915c4.706 7.356 12.94 12.231 22.312 12.231 14.622 0 26.476-11.869 26.476-26.511-.001-9.557-5.051-17.932-12.625-22.597z" fill="#edbd31"/><path d="M84.899 91.212c0-12.925 10.464-23.403 23.372-23.403 7.545 0 14.254 3.581 18.527 9.136-4.036-7.015-11.6-11.738-20.266-11.738-12.908 0-23.372 10.477-23.372 23.403a23.32 23.32 0 0 0 4.845 14.266 23.32 23.32 0 0 1-3.106-11.665z" fill="#f7db5e"/><path d="M109.296 83.625H93.569v3.727h15.727v-3.727zm0 6.597H93.569v3.727h15.727v-3.727z" fill="#d49a34"/><path d="M114.145 98.75c-1.03.501-2.282.752-3.754.752-2.851 0-5.005-.793-6.968-2.889s-2.946-4.666-2.946-7.714c0-3.086.982-5.695 2.946-7.828 1.952-2.145 4.1-2.964 6.95-2.964 1.139 0 2.262.208 3.368.62l1.676-3.681c-1.687-.718-2.985-1.079-4.756-1.079-4.563 0-8.028 1.522-10.902 5.071-2.335 2.897-3.503 6.197-3.503 9.898 0 4.127 1.395 7.652 4.185 10.575 2.803 2.897 5.932 4.092 9.896 4.092 1.899 0 3.737-.37 5.513-1.107l-.888-4.155c-.277.156-.549.292-.817.409z" fill="#d49a34"/><path d="M109.97 130.731l3.894-6.586 1.456-2.556-2.183-8.71-1.954.981-.006-.048-3.15-.411-1.783 3.211-1.27-1.6-3.062.355-.545 1.65-.914-2.336-2.311 1.253 1.37 3.225-.121.039-.945 8.393.506 2.435 2.327 3.773-2.353 38.359 12.623-2.832-2.22-36.676.642-1.919z" fill="#ffe3b8"/><path d="M96.764 148.2v-6.091l17.489.974v5.726l-17.489-.609z" fill="#d5d8db"/><path d="M126.647 202.653H92.679l2.434-57.876 20.256.759 11.278 57.117z" fill="#647381"/><path d="M98.208 151.8c.703 0 1.273-.571 1.273-1.275s-.57-1.275-1.273-1.275-1.273.571-1.273 1.275.57 1.275 1.273 1.275z" fill="#d5d8db"/><path d="M71.628 55.366c-7.107 0-12.888-5.789-12.888-12.904s5.782-12.906 12.888-12.906 12.888 5.789 12.888 12.906-5.782 12.904-12.888 12.904z" fill="#ffca00"/><path d="M78.155 50.603a.95.95 0 0 1-.945.946H66.118a.95.95 0 0 1-.945-.946V35.51a.95.95 0 0 1 .945-.946h11.092a.95.95 0 0 1 .945.946v15.092z" fill="#19617e"/><path d="M75.253 48.118l-1.052 2.262h-8.234V35.278h11.251V47.32l-1.964.799z" class="E"/><path d="M77.217 47.32l-3.016 3.061V47.32h3.016z" fill="#e3e4e4"/><path d="M76.604 38.153h-9.827v.918h9.827v-.918zm0 1.799h-9.827v.919h9.827v-.919zm-.026 1.758h-9.827v.919h9.827v-.919zm0 1.942h-9.827v.918h9.827v-.918zm0 1.758h-9.827v.918h9.827v-.918z" fill="#c8c8ca"/><path d="M72.648 34.795v-.683c0-.173-.142-.315-.314-.315H70.84c-.173 0-.315.142-.315.315v.683h-.744v1.155h3.591v-1.155h-.724zm-1.055-.294c-.135 0-.245-.11-.245-.246s.109-.245.245-.245.245.11.245.245-.109.246-.245.246z" fill="#ffb241"/><path d="M143.123 55.367c-7.106 0-12.889-5.789-12.889-12.906s5.783-12.905 12.889-12.905 12.888 5.789 12.888 12.905-5.782 12.906-12.888 12.906z" class="U"/><path d="M142.767 46.184a5.87 5.87 0 1 0 0-11.746 5.87 5.87 0 1 0 0 11.746z" fill="#6fcbf0"/><path d="M150.478 40.311c0-2.013-.773-3.846-2.038-5.223l.567-.597c.051.014.104.023.16.023a.62.62 0 0 0 .616-.622.62.62 0 0 0-.621-.616.62.62 0 0 0-.617.621c0 .032.005.061.01.091l-2.15 2.195.478.543.904-.952c1.086 1.202 1.749 2.793 1.749 4.537 0 3.737-3.037 6.777-6.768 6.777a6.73 6.73 0 0 1-4.531-1.747l.968-.929-.545-.477-2.184 2.16c-.03-.005-.06-.008-.09-.008a.62.62 0 0 0-.619.619.62.62 0 0 0 .619.62.62.62 0 0 0 .618-.62c0-.055-.01-.108-.023-.159l.573-.551c1.252 1.152 2.883 1.888 4.681 2.012v.972h-.681v.445l-1.162 1.227h-1.085v.999h6.945v-.999h-1.007l-1.172-1.227v-.443h-.77v-.968a7.73 7.73 0 0 0 7.175-7.701z" fill="#ef5c54"/><path d="M140.578 43.722c.398.838.913 1.341 1.315 1.629a5.28 5.28 0 0 0 .595.069v-2.198a5.11 5.11 0 0 0-1.91.499zm1.909-5.912c-.63-.027-1.307-.171-2.012-.492-.258.693-.446 1.574-.498 2.703h2.511V37.81h-.001zm3.442-1.516a5.13 5.13 0 0 0-1.23-.721 8.7 8.7 0 0 1 .604 1.109 7.12 7.12 0 0 0 .626-.388zm.152 3.728h1.788c-.075-1.351-.677-2.563-1.602-3.435a6.76 6.76 0 0 1-.793.499 8.64 8.64 0 0 1 .607 2.935zm-3.057 5.4a5.15 5.15 0 0 0 .626-.07c.4-.289.914-.79 1.31-1.624-.687-.323-1.338-.47-1.936-.504v2.198z" class="E"/><path d="M143.024 42.778c.816.05 1.535.283 2.108.548.267-.705.448-1.611.443-2.768h-2.55v2.22h-.001zm-2.181-7.206c-.442.179-.854.421-1.223.713a5.54 5.54 0 0 0 .616.4c.21-.459.426-.834.607-1.113zm-.877 4.986c-.006 1.142.17 2.04.433 2.742a5.37 5.37 0 0 1 2.088-.526v-2.215h-2.521v-.001zm3.058-3.197c.577-.032 1.202-.172 1.863-.471-.378-.81-.855-1.31-1.283-1.627-.19-.032-.384-.053-.579-.064v2.162h-.001z" class="E"/><path d="M143.024 37.805v2.217h2.538c-.052-1.143-.244-2.033-.506-2.73-.56.25-1.251.465-2.032.513zm-.537-2.604a5.4 5.4 0 0 0-.55.06c-.429.318-.908.82-1.286 1.635.503.231 1.126.424 1.836.465v-2.159zm-2.894 9.117a5.14 5.14 0 0 0 1.232.726 11.29 11.29 0 0 1-.581-1.15 5.53 5.53 0 0 0-.651.424zm-.131-3.76h-1.799c.064 1.352.656 2.568 1.572 3.447a6.88 6.88 0 0 1 .835-.538c-.398-1.038-.575-2.015-.608-2.91zm5.255 4.483c.448-.186.865-.435 1.238-.734-.223-.155-.444-.292-.66-.41a11.4 11.4 0 0 1-.578 1.144zm3.155-4.483h-1.794c-.032.901-.214 1.885-.616 2.932a6.35 6.35 0 0 1 .827.523c.923-.88 1.517-2.098 1.583-3.456zm-7.814-3.449a7.1 7.1 0 0 1-.799-.514c-.921.872-1.518 2.08-1.594 3.426h1.795a8.59 8.59 0 0 1 .598-2.913z" class="E"/><path d="M49.888 120.553a12.9 12.9 0 1 0 0-25.811 12.9 12.9 0 1 0 0 25.811z" fill="#ff8146"/><path d="M50.104 116.251l-1.636-.056.042-1.026 1.635.054-.041 1.028z" fill="#081929"/><path d="M49.888 115.914c.306.199.285.498-.047.669a1.27 1.27 0 0 1-1.155-.051c-.306-.199-.284-.498.047-.669a1.27 1.27 0 0 1 1.155.051z" fill="#081929"/><path d="M50.971 114.206c.833.541.775 1.356-.127 1.82s-2.308.403-3.141-.138-.776-1.356.126-1.82 2.309-.402 3.142.138z" class="F"/><path d="M47.663 115.669c-.222-.145-.334-.27-.382-.323-.063-.071-.114-.149-.115-.15a1.12 1.12 0 0 1-.11-.205 1.05 1.05 0 0 1-.061-.203c-.017-.084-.017-.141-.019-.201a1.26 1.26 0 0 1 .016-.153.87.87 0 0 1 .057-.199c.018-.05.077-.183.208-.336s.278-.255.321-.283c.118-.078.434-.287 1.006-.397.218-.042.45-.064.689-.064l.342.015.334.043c.002.001.147.025.321.074.135.037.191.06.305.102a2.43 2.43 0 0 1 .285.132 1.82 1.82 0 0 1 .175.102.16.16 0 0 0-.046-.019c-.064-.016-.151 0-.251.051-.704-.456-1.89-.509-2.653-.117s-.81 1.081-.107 1.537 1.891.51 2.653.118.81-1.081.107-1.538c.1-.051.188-.067.251-.051a.16.16 0 0 1 .046.019l.169.121c.049.042.117.098.183.171a1.58 1.58 0 0 1 .126.152c.041.063.073.11.119.209a1.04 1.04 0 0 1 .089.364.93.93 0 0 1-.007.173c-.014.099-.032.163-.048.199-.026.069-.041.109-.092.198-.039.07-.093.137-.111.159-.079.098-.204.214-.315.29a2.2 2.2 0 0 1-.492.259c-.11.046-.295.109-.543.156-.86.166-1.822.007-2.45-.405z" class="O"/><path d="M47.684 115.028a1.77 1.77 0 0 1-.381-.323c-.064-.07-.115-.148-.116-.149-.055-.088-.077-.127-.111-.206a1.06 1.06 0 0 1-.061-.203c-.016-.084-.016-.141-.017-.202 0-.026.007-.11.014-.152a1.16 1.16 0 0 1 .057-.199c.015-.039.045-.104.104-.197.021-.034.059-.089.123-.16a1.79 1.79 0 0 1 .35-.293c.108-.071.282-.16.416-.21l.206-.072.338-.084c.217-.041.45-.063.688-.064l.342.015.334.044c.001 0 .147.025.32.073l.306.102a2.65 2.65 0 0 1 .285.132l.175.102c-.014-.009-.03-.014-.046-.019-.064-.015-.153 0-.251.052-.703-.458-1.891-.511-2.654-.118s-.809 1.08-.107 1.537 1.891.509 2.654.118.809-1.081.107-1.537c.099-.052.188-.067.251-.052.017.005.033.011.046.019l.167.122c.05.041.119.098.185.171a1.23 1.23 0 0 1 .243.362c.025.052.081.194.088.364.004.085-.002.148-.006.172a.92.92 0 0 1-.047.199c-.026.069-.04.108-.091.198-.04.07-.094.138-.111.159-.079.099-.206.215-.315.291-.095.064-.224.152-.489.259a2.98 2.98 0 0 1-.544.155c-.86.164-1.822.006-2.449-.406z" class="O"/><path d="M47.704 114.387a1.77 1.77 0 0 1-.381-.323c-.064-.071-.114-.147-.115-.148-.056-.088-.077-.126-.11-.206-.026-.059-.048-.133-.062-.204-.017-.084-.017-.141-.017-.202 0-.025.006-.11.014-.151.021-.1.03-.127.057-.198.015-.04.045-.107.103-.198a1.1 1.1 0 0 1 .123-.161 1.74 1.74 0 0 1 .349-.292 2.4 2.4 0 0 1 .417-.211c.193-.074.35-.119.544-.157a3.92 3.92 0 0 1 .69-.064l.341.015.334.045a3.18 3.18 0 0 1 .321.073l.305.102c.106.04.184.08.285.131.055.028.124.071.175.103-.013-.009-.029-.014-.046-.02-.062-.014-.152 0-.251.052-.703-.457-1.891-.51-2.653-.118s-.81 1.082-.108 1.538 1.891.51 2.654.117.809-1.081.107-1.537c.099-.052.188-.067.251-.052a.23.23 0 0 1 .046.02l.168.121a1.68 1.68 0 0 1 .186.172c.157.172.213.295.243.362.024.052.08.193.088.364a.93.93 0 0 1-.007.171c-.014.099-.033.164-.047.2-.031.082-.073.195-.203.356-.079.099-.206.216-.315.29-.095.066-.225.153-.49.26-.111.045-.296.108-.544.155-.859.166-1.821.006-2.449-.405z" class="O"/><path d="M47.723 113.747c-.222-.145-.333-.27-.381-.323-.064-.071-.114-.149-.115-.149a1.2 1.2 0 0 1-.111-.206c-.026-.06-.048-.134-.062-.203a.97.97 0 0 1-.017-.202 1 1 0 0 1 .014-.151c.021-.1.03-.127.057-.2.014-.038.044-.104.102-.197a1.41 1.41 0 0 1 .124-.161 1.74 1.74 0 0 1 .348-.292 2.41 2.41 0 0 1 .418-.211c.191-.073.349-.119.544-.156.218-.04.449-.062.688-.064l.342.015.334.044c.002.001.147.024.322.074l.304.102c.106.039.186.08.285.13a2.2 2.2 0 0 1 .175.105c-.013-.01-.028-.015-.045-.021-.064-.014-.153 0-.251.052-.704-.457-1.892-.51-2.654-.118s-.809 1.081-.107 1.538 1.891.509 2.653.117.81-1.081.108-1.537c.098-.052.187-.067.251-.052a.19.19 0 0 1 .045.021 1.91 1.91 0 0 1 .294.231 1.46 1.46 0 0 1 .225.276 1.06 1.06 0 0 1 .161.449.97.97 0 0 1-.071.491c-.087.212-.235.367-.315.441a1.81 1.81 0 0 1-.182.147c-.051.037-.126.082-.181.115-.081.047-.235.121-.378.172-.307.111-.64.174-.991.19-.263.01-.444-.007-.514-.012a3.59 3.59 0 0 1-.504-.079l-.297-.084a1.9 1.9 0 0 1-.158-.057c-.095-.039-.273-.112-.461-.235z" class="O"/><path d="M50.872 115.208c-.902.465-2.308.401-3.141-.138-.359-.233-.552-.518-.584-.804-.063.355.126.726.575 1.02.833.541 2.239.603 3.142.138.512-.264.752-.641.71-1.018-.053.301-.289.588-.703.802z" class="F"/><path d="M50.894 114.554c-.903.464-2.308.402-3.141-.139-.36-.233-.553-.518-.585-.803-.062.354.126.727.577 1.02.833.54 2.239.602 3.142.138.513-.264.752-.642.71-1.017-.055.3-.29.586-.704.801z" class="F"/><path d="M50.916 113.926c-.902.464-2.309.402-3.142-.139-.359-.234-.552-.517-.584-.803-.063.355.127.726.577 1.019.832.542 2.238.603 3.141.139.513-.263.752-.641.71-1.017-.053.3-.289.587-.703.801z" class="F"/><path d="M50.937 113.302c-.442.228-1.003.277-1.56.257-.581-.02-1.155-.12-1.581-.395-.36-.234-.552-.518-.585-.802-.063.353.127.727.576 1.019.833.54 2.239.603 3.141.138.514-.264.753-.641.711-1.017-.054.3-.289.587-.703.8z" class="F"/><path d="M51.122 111.369c.864.562.806 1.409-.131 1.893s-2.395.418-3.259-.145-.804-1.41.132-1.893 2.395-.418 3.258.145z" fill="#ffbf00"/><path d="M54.654 104.997c-.13-2.705-2.091-4.663-4.801-4.754l-.036-.002c-2.711-.091-4.798 1.729-5.113 4.419-.153 1.319-.241 3.219 1.844 5.843.435.549.55 1.106.579 1.737.016.343 1.663.623 2.279.688.617-.024 2.28-.191 2.32-.533.071-.627.224-1.175.696-1.694 2.256-2.476 2.297-4.378 2.232-5.704z" fill="#ffbf00"/><path opacity=".4" d="M46.156 108.034c.697.263 1.548-.286 1.9-1.224s.072-1.912-.626-2.174-1.548.286-1.9 1.225-.072 1.911.626 2.173z" class="E"/><path d="M52.36 103.814l-.018.012v-.028c-.202.107-.311.273-.401.409-.083.124-.141.213-.267.281a.22.22 0 0 1-.257-.001c-.083-.043-.187-.095-.389.013s-.311.274-.401.409c-.081.122-.141.213-.267.28s-.181.039-.257-.001c-.083-.042-.186-.095-.387.012s-.312.275-.401.409c-.081.123-.142.215-.266.282s-.181.038-.257-.002c-.083-.042-.186-.094-.388.013s-.313.275-.401.408c-.082.125-.14.215-.265.282s-.181.038-.259-.002-.185-.095-.389.014l-.001.024c-.052.047-.069.155-.038.251l1.703 5.175-.05 1.621.208.007.057-1.672v-.001-.016a.31.31 0 0 0-.016-.095l-1.677-5.097c.021.006.043.014.063.029.083.042.187.095.39-.014s.312-.274.401-.407c.081-.124.139-.214.265-.283s.18-.036.257.003c.083.042.187.095.389-.013s.311-.275.401-.41c.081-.122.14-.213.265-.28a.22.22 0 0 1 .257.002c.084.042.187.094.389-.014s.313-.274.4-.408c.082-.124.141-.214.266-.282s.181-.038.259.002c.083.042.187.095.389-.013s.313-.276.401-.41l.098-.138-2.064 7.12c-.018.06-.024.112-.021.15l-.077 2.282.21.007.084-2.486 2.089-7.206c.039-.138.026-.234-.028-.218z" class="F"/><path d="M160.161 120.553a12.9 12.9 0 1 0 0-25.811 12.9 12.9 0 1 0 0 25.811z" fill="#f0588d"/><path d="M157.276 105.844l.426.736 4.146-2.408-.426-.736-4.146 2.408z" fill="#72c9ee"/><path d="M157.347 100.709l4.683 8.088 1.291-.749-4.683-8.089-1.291.75z" class="V"/><path d="M157.587 101.535l4.002 6.913 1.668-.967-4.002-6.914-1.668.968z" class="E"/><path d="M158.578 104.147l1.235 2.133 2.437-1.414-1.235-2.133-2.437 1.414zm4.008 1.305l-.181-.314-2.44 1.408.181.313 2.44-1.407zm.231.376l-.088-.152-2.437 1.414.088.151 2.437-1.413zm.167.29l-.088-.152-2.436 1.413.087.152 2.437-1.413zm.161.298l-.088-.151-2.433 1.421.088.152 2.433-1.422z" class="V"/><path d="M156.254 101.085l1.134 1.012 2.437-1.415-.314-1.489-3.257 1.891zm-.832 15.015c.325-.895 2.207-1.583 4.485-1.583s4.162.688 4.486 1.583h-8.971z" fill="#ffa929"/><path d="M157.397 105.726v1.731a3.75 3.75 0 0 0-1.284 2.825c0 2.073 1.684 3.761 3.755 3.761a3.76 3.76 0 0 0 3.393-2.159h1.532a5.19 5.19 0 0 1-4.925 3.584 5.19 5.19 0 0 1-5.179-5.186c0-1.965 1.096-3.677 2.708-4.556z" class="E"/><path d="M159.868 114.992c1.816 0 3.439-1.035 4.222-2.634h-.542a4.25 4.25 0 0 1-3.68 2.159c-2.333 0-4.23-1.899-4.23-4.235a4.24 4.24 0 0 1 1.285-3.033v-.638c-1.102.887-1.76 2.231-1.76 3.671 0 2.597 2.111 4.71 4.705 4.71z" fill="#51dee6"/><path d="M157.021 108.02c.958 0 1.734-.778 1.734-1.737s-.776-1.736-1.734-1.736-1.734.777-1.734 1.736.777 1.737 1.734 1.737z" fill="#51dee6"/><path d="M157.021 107.397c.614 0 1.112-.499 1.112-1.114s-.498-1.114-1.112-1.114-1.112.499-1.112 1.114.498 1.114 1.112 1.114z" fill="#ffa929"/><path d="M162.129 112.673l3.129-.667c.255-.055.42-.308.365-.564l-.013-.058c-.054-.256-.306-.42-.563-.365l-3.128.666c-.256.055-.419.308-.365.564l.013.058c.055.257.306.42.562.366z" class="V"/><path d="M59.96 72.825l-.004.177-.016.389a9.32 9.32 0 0 1-.227 1.579l-.121.465c-.305 1.073-.795 2.067-1.436 2.946-.429.594-.924 1.136-1.478 1.615a9.54 9.54 0 0 1-1.256.92l-.158.092-.674.359-.158.072c-.008.006-.016.008-.024.012l-.739.299-.347.117h-.003a9.31 9.31 0 0 1-2.525.422l-.292.006h-.094c-.057 0-.116-.002-.173-.004l-.705-.045c-.484-.049-.958-.136-1.418-.257a9.33 9.33 0 0 1-1.812-.681l-.291-.154c-.98-.526-1.855-1.225-2.585-2.053-1.481-1.671-2.378-3.868-2.378-6.275 0-5.231 4.235-9.47 9.455-9.47 5.111 0 9.277 4.06 9.452 9.139.005.109.007.219.007.33z" class="D"/><path d="M50.491 81.031c.407-1.365 3.12-5.794 3.036-5.975-.086-.188.265-.014-.784-.587s-.91-1.596-.919-1.887h-1.333-.037-1.333c-.01.291.126 1.205-.806 1.949s-.624.891-.711 1.077 2.442 4.058 2.85 5.422v.145l.018-.076.019.076v-.144h.001z" class="B"/><path d="M48.67 74.415c-.001-.454-1.157.207-1.854.49s-1.821.467-1.734.597.842.995.906 2.282.109 3.774.458 5.04.017 3.098.434 3.425 2.616.568 3.597.568V77.48c0-.001-1.804-2.529-1.807-3.065z" fill="#77181c"/><path d="M52.284 74.415c.001-.454 1.157.207 1.854.49s1.82.467 1.734.597-.842.995-.906 2.282-.11 3.774-.458 5.04-.017 3.098-.434 3.425-2.616.568-3.597.568V77.48c0-.001 1.804-2.529 1.807-3.065z" fill="#6d161c"/><g opacity=".3"><path opacity=".3" d="M46.608 83.939l.01.181h3.859v-.181h-3.87zm-.082-.74l.029.182h3.923v-.182h-3.952zm-.285-1.481l.025.183h4.211v-.183h-4.236zm.12.74l.039.182h4.078v-.182h-4.116zm2.32-7.962c-.006-.029-.01-.056-.01-.079-.001-.278-.436-.137-.932.079h.942zm-2.519 6.482l.017.181h4.298v-.181h-4.315zm.471 3.702l.003.181h3.841v-.181h-3.844zm.17 1.481a.35.35 0 0 0 .077.094.71.71 0 0 0 .164.088h3.433v-.181h-3.674v-.001zm-.147-.741l.013.182h3.809v-.182h-3.822zm-1.365-9.625l.117.183h4.055l-.113-.183h-4.059zm.816 4.442l.012.182h4.359v-.182h-4.371zm-.411-3.701l.072.183h4.18l-.122-.183h-4.13zm.703-1.481l-.64.181h3.258l-.099-.181h-2.52zm-.475 2.221l.03.182h4.505l-.127-.182h-4.408zm.14 2.222l.01.182h4.404v-.182h-4.414zm-.065-1.482l.008.182h4.47v-.182h-4.479zm.032.741l.008.183h4.439v-.183h-4.447z" fill="#f5f5f5"/></g><g class="P"><path d="M49.944 76.721l-.218-.326v10.406l.218.014V76.721zm-.775-1.211l-.217-.379v11.601l.217.023V75.51zm-.774-1.227a1.42 1.42 0 0 0-.217.054v12.289l.217.034V74.283zm-.775.277l-.217.098v11.813l.217.052V74.56zm-1.55.602l-.216.06v1.776a3.54 3.54 0 0 1 .135.802l.082 1.836v-4.474zm.558 9.295c.021.806.003 1.526.218 1.769v-11.32l-.029.013-.189.071v9.467zm-1.332-9.076c-.153.05-.24.097-.214.137l.214.296v-.432z" fill="#000" class="P"/></g><g opacity=".3"><path opacity=".3" d="M54.347 83.939l-.01.181h-3.859v-.181h3.87zm.081-.74l-.028.182h-3.922v-.182h3.951zm.285-1.481l-.025.183h-4.211v-.183h4.236zm-.12.74l-.039.182h-4.077v-.182h4.116zm-2.32-7.962a.44.44 0 0 0 .012-.079c.001-.278.435-.137.932.079h-.943zm2.519 6.482l-.017.181h-4.298v-.181h4.315zm-.471 3.702l-.003.181h-3.84v-.181h3.843zm-.17 1.481a.34.34 0 0 1-.077.094.73.73 0 0 1-.164.088h-3.433v-.181h3.674v-.001zm.148-.741l-.014.182h-3.808v-.182h3.822zm1.365-9.625l-.119.183H51.49l.115-.183h4.059zm-.816 4.442l-.013.182h-4.358v-.182h4.37zm.41-3.701l-.071.183h-4.18l.121-.183h4.13zm-.703-1.481l.641.181h-3.258l.099-.181h2.519zm.476 2.221l-.032.182h-4.504l.127-.182h4.408zm-.141 2.222l-.01.182h-4.403v-.182h4.413zm.065-1.482l-.008.182h-4.47v-.182h4.477zm-.032.741l-.007.183h-4.439v-.183h4.446z" fill="#f5f5f5"/></g><g class="P"><path d="M51.01 76.721l.218-.326v10.406l-.218.014V76.721zm.775-1.211l.217-.379v11.601l-.217.023V75.51zm.775-1.227a1.36 1.36 0 0 1 .216.054v12.289l-.216.034V74.283zm.774.277l.218.098v11.813l-.218.052V74.56zm1.55.602l.216.06v1.776c-.069.244-.12.511-.134.802l-.082 1.836v-4.474zm-.558 9.295c-.021.806-.002 1.526-.216 1.769v-11.32l.029.013.188.071v9.467zm1.332-9.076c.153.05.24.097.215.137l-.215.296v-.432z" fill="#000" class="P"/></g><path d="M48.255 74.492c.117-.413.474-.683.691-.76l-.099.204s-.24.554.101.986c.296.376.755 1.063.976 1.423.011.016.021.034.031.05l.014.023.02.035.055.102.435.925s-.161-.127-.52-.535c-.271-.308-.427-.398-.427-.398s-.189-.026.019-.124l.134-.06c-.891-.46-1.213.194-1.516.234-.27.036-.03-1.693.088-2.106z" class="W"/><path d="M52.706 74.492a1.15 1.15 0 0 0-.679-.737l.116.212s.212.524-.129.955c-.296.376-.754 1.063-.975 1.423-.012.016-.021.034-.032.05l-.014.023-.021.035-.055.102-.441.925s.167-.126.525-.535c.271-.308.457-.41.457-.41s.158-.014-.049-.112l-.132-.06c.889-.46 1.212.194 1.515.234.272.037.031-1.693-.087-2.106z" class="W"/><path d="M46.598 75.071l.608 5.847c.068-.025 1.039 0 1.039-.101s-.655-6.379-.823-6.251-.846.252-.824.505zm7.78 0l-.609 5.847c-.068-.025-1.038 0-1.038-.101s.654-6.379.823-6.251.846.252.824.505z" fill="#2e5566"/><path d="M54.318 86.288a2.8 2.8 0 0 1-.038-.386c.009-.208-.069-.452-.086-.544-.28-1.474.049-5.59-.155-6.054-.027-.062-.044-.194-.242-.194h-3.24-.072-3.27c-.198 0-.216.132-.244.194-.204.464.074 4.489-.111 6.133-.01.094-.11.256-.102.465-.005.141-.016.277-.037.386-.072.387-.958 3.724-.987 8.294-.014 1.868.579 8.842.873 9.499h2.957c.044-1.178.578-9.673.954-12.31.377 2.637.873 11.154.955 12.31h2.957c.294-.657.885-7.631.873-9.499-.028-4.571-.914-7.908-.986-8.294z" fill="#3e5e6d"/><path d="M52.016 73.057l-.12.11a2.68 2.68 0 0 1-.407.298c-.123.072-.255.133-.39.176-.124.04-.253.066-.382.08-.161.016-.327.011-.487-.014-.131-.021-.26-.055-.385-.105-.139-.055-.271-.126-.394-.209-.148-.098-.284-.213-.413-.336-.543-.525-.538-1.851-.669-1.758-.299.202-.491-.399-.528-.754s.124-.506.274-.356.151-.017.194-.212l.048-.187.095-.281a3.42 3.42 0 0 1 .153-.336 2.95 2.95 0 0 1 .216-.357 2.5 2.5 0 0 1 .293-.341c.114-.11.239-.208.374-.29a1.93 1.93 0 0 1 .468-.203c.193-.056.388-.078.587-.078.193-.001.384.027.568.081.163.048.319.117.464.205.135.083.26.181.373.291a2.43 2.43 0 0 1 .289.341c.08.113.151.232.216.356a3.39 3.39 0 0 1 .15.334l.095.278.046.185c.042.195.044.362.194.212s.311 0 .274.356-.229.956-.528.754c-.13-.092-.125 1.234-.668 1.759z" class="B"/><path d="M48.273 67.918c-.12.157-.228.39-.277.582-.09.354-.062.745-.015 1.107.051.391.104.76.233 1.132.037.107.112.241.226.242.144.001.164-.179.188-.35.066-.502.265-.87.079-1.341a1.9 1.9 0 0 0 .925-.7c.227.35.856.666 1.068.72.506.126 1.157.226 1.558-.109-.1.623.098.911.246 1.541.004.02.082.166.211.156.1-.008.124-.053.15-.151.113-.435.225-.831.245-1.28.014-.325.009-.715-.091-1.025-.196-.614-.7-1.041-1.281-1.322-.682-.33-1.691-.353-2.112.371-.021.037-.043.078-.082.097-.027.014-.422-.094-.612-.064-.249.038-.519.208-.66.394z" fill="#564e48"/><path d="M49.173 111.063l.645-7.001a.15.15 0 0 0-.151-.164h-3.173c-.088 0-.158.075-.151.163l.542 6.963c-.471.61-.569.799-1.076.977-.7.246-1.066.333-1.01.918.053.547 1.059.644 1.956.501.659-.107 1.24-.42 1.399-.37.128.094.145.161.452.144s.646-.065.695-.179.114-1.132 0-1.471a3.81 3.81 0 0 1-.128-.481zm2.709 0l-.646-7.001c-.008-.089.063-.164.151-.164h3.337l-.554 7.126c.471.61.569.799 1.076.977.7.246 1.066.333 1.01.918-.053.547-1.059.644-1.956.501-.659-.107-1.241-.42-1.399-.37-.129.094-.146.161-.451.144s-.648-.065-.695-.179-.114-1.132 0-1.471a4.04 4.04 0 0 0 .128-.481z" fill="#3d302c"/><path d="M47.679 80.108c.202 0 .365-.164.365-.366s-.164-.366-.365-.366-.365.164-.365.366.164.366.365.366zm5.626 0c.202 0 .365-.164.365-.366s-.164-.366-.365-.366-.365.164-.365.366.164.366.365.366z" class="E"/><path d="M50.527 69.944c2.128 0 3.853-.392 3.853-.875s-1.725-.875-3.853-.875-3.853.392-3.853.875 1.725.875 3.853.875z" fill="#e4c3a2"/><path d="M52.153 66.278c-.615-.164-1.134.109-1.625.109s-1.011-.274-1.626-.109-.874 1.819-.874 2.476h2.501 2.5c-.001-.657-.26-2.312-.876-2.476z" fill="#e4c3a2"/><path d="M50.528 68.615c-1.616 0-2.5-.504-2.5-.504v.687c.915.565 2.5.503 2.5.503s1.584.061 2.498-.503v-.687s-.883.504-2.498.504z" fill="#ae8a68"/><path d="M44.513 88.091c-.039.694-.05 1.986.129 2.252s.818.665.986.671.784-.09.91-.174c.079-.054.076-.309-.458-.225-.499.079-.535-.403-.627-.814s.06-.742.265-.567.273.979.404.996.341.016.191-.897-.365-.916-.6-1.473l-1.2.23zm11.861 0c.039.694.051 1.986-.128 2.252s-.818.665-.986.671-.784-.09-.91-.174c-.079-.054-.075-.309.458-.225.499.079.535-.403.628-.814s-.06-.742-.265-.567-.273.979-.405.996-.341.016-.191-.897.365-.916.599-1.473l1.2.23z" fill="#c69a81"/><path d="M46.297 87.448c-.008-.592-.479-2.434-.697-4.898l.831-2.606c.043-.098-.081-2.661-.229-3.223-.164-.619-.327-1.358-.909-1.325-.418.024-.561.711-1.041 1.741-.393.844-1.423 4.584-1.517 4.996-.059.259.221 1.924.38 2.604.214.921.642 3.382 1.108 3.755l1.913-.545c.304-.233.162-.376.162-.501zm8.413 0c.008-.592.479-2.434.697-4.898l-.831-2.606c-.043-.098.081-2.661.229-3.223.162-.619.325-1.358.909-1.325.418.024.562.711 1.041 1.741.393.844 1.423 4.584 1.518 4.996.059.259-.222 1.924-.38 2.604-.215.921-.642 3.382-1.108 3.755l-1.913-.545c-.304-.233-.163-.376-.162-.501z" class="W"/><path d="M105.658 160.118l-17.037 9.406v7.836" stroke="#6b33fb" class="Q Z a"/><path d="M88.621 178.461c.759 0 1.374-.616 1.374-1.376s-.615-1.376-1.374-1.376-1.375.616-1.375 1.376.615 1.376 1.375 1.376z" class="X"/><path d="M87.448 177.794l-.419 6.073h1.593v-6.508c0 .001-1.344.435-1.174.435z" class="X"/><path d="M89.795 177.794l.419 6.073h-1.594v-6.508c0 .001 1.344.435 1.174.435z" class="X"/><g opacity=".5"><path opacity=".5" d="M137.882 207.584l-35.079 20.533-50.505-29.923 35.079-20.533 50.505 29.923z" fill="#c2d4ee"/></g><path d="M110.472 217.402l-44.335-25.8 28.378-16.406 44.334 25.799-28.377 16.407z" fill="#ff9a6d"/><path d="M106.901 223.598l.015-.396.012-.128.032-.257.049-.287.039-.196.045-.184.067-.255.045-.148.097-.287.041-.118.158-.395.02-.041.165-.351.054-.107.174-.322.036-.064.225-.367.069-.104.178-.255.099-.136.162-.206.14-.171.136-.154.238-.255.152-.152.122-.113.203-.178.121-.1.226-.171.108-.079.342-.217-44.335-25.799-.342.217-.108.079-.226.171-.122.101-.202.177-.121.113-.076.07-.077.082-.239.255-.076.081c-.021.023-.04.05-.06.074l-.14.17-.091.11-.07.096-.1.135-.068.093-.109.163-.069.104-.028.043-.186.304-.012.021-.035.063-.121.218-.053.104-.054.108-.047.093-.117.256-.021.043-.137.334-.021.061-.043.118-.057.16-.039.128-.045.147-.028.091-.041.166-.045.183-.015.064-.023.133-.049.285-.014.08-.017.179-.013.126-.016.398a3.71 3.71 0 0 0 .163 1.126c.104.325.257.599.449.816a1.8 1.8 0 0 0 .204.199 1.61 1.61 0 0 0 .229.16l44.336 25.799c-.641-.376-1.04-1.173-1.043-2.304z" fill="#ff8146"/><path d="M138.872 209.244l-28.378 16.406c-1.978 1.142-3.587.227-3.594-2.053s1.594-5.049 3.573-6.197l28.378-16.405.004 1.224-.984.57.011 4.795.987.435.003 1.225z" fill="#f2e7c4"/><path d="M138.706 208.116l-28.744 16.613c-.393.231-.766.349-1.073.349-.059 0-.113-.003-.163-.013l-.122-.032c-.023-.009-.045-.018-.064-.032-.032-.009-.059-.027-.086-.045a.45.45 0 0 1-.091-.068c-.041-.032-.077-.072-.109-.118-.032-.036-.054-.077-.077-.118a1.57 1.57 0 0 1-.112-.268v-.004c-.024-.064-.037-.132-.051-.196l-.031-.208c-.009-.055-.014-.109-.014-.159-.005-.041-.005-.077-.005-.114s-.004-.072-.004-.108c-.005-1.9 1.39-4.318 3.044-5.275l26.867-15.533-.153 4.894.988.435z" fill="#4f1ad9"/><path d="M138.868 208.019l-28.906 16.71c-.393.231-.766.349-1.073.349-.059 0-.113-.003-.163-.013l-.122-.032c-.023-.009-.045-.018-.064-.032-.032-.009-.059-.027-.086-.045a.45.45 0 0 1-.091-.068c-.041-.032-.077-.072-.109-.118-.032-.036-.054-.077-.077-.118a1.57 1.57 0 0 1-.112-.268v-.004c-.024-.064-.037-.132-.051-.196l-.031-.208c-.009-.055-.014-.109-.014-.159-.005-.041-.005-.077-.005-.114s-.004-.072-.004-.108c-.005-1.9 1.39-4.318 3.044-5.275l26.867-15.533.011 4.797.986.435z" fill="#ff9a6d"/><path d="M137.881 207.584l-28.472 16.487c-.399.233-.774.354-1.082.354-.099 0-.187-.014-.265-.04-.081-.264-.103-.558-.103-.789-.003-1.903 1.389-4.32 3.043-5.276l26.868-15.531.011 4.795z" fill="#f6f6fc"/><path d="M110.472 205.194l-44.335-25.798 28.378-16.406 44.334 25.799-28.377 16.405z" class="D"/><path d="M106.901 211.392l.015-.397.012-.128.032-.257.049-.287.039-.195.045-.184.067-.256.045-.148.097-.287.041-.119.158-.394.02-.041.165-.352.054-.107.174-.321.036-.065.225-.367.069-.103.178-.256.099-.136.162-.205.14-.172.136-.153.238-.256.152-.152.122-.112.203-.178.121-.101.226-.17.108-.079.342-.218-44.335-25.798-.342.217-.108.079-.226.17-.122.101-.202.177-.121.113-.076.071c-.026.025-.05.055-.077.082l-.239.254-.076.082-.06.073-.14.171-.091.11-.07.095-.1.136-.068.092-.109.164-.069.103-.028.043-.186.304-.012.021-.035.063-.121.219-.053.103-.054.109-.047.092-.117.256-.021.044-.137.334-.021.06-.043.119-.057.16-.039.127-.045.148-.028.09-.041.166-.045.184-.015.063-.023.133-.049.286-.014.08-.017.178-.013.127-.016.397c.001.424.058.801.163 1.126s.257.6.449.817c.064.072.132.139.204.199s.149.113.229.16l44.336 25.799c-.641-.377-1.04-1.172-1.043-2.303z" class="Y"/><path d="M138.872 197.038l-28.378 16.405c-1.978 1.143-3.587.227-3.594-2.053s1.594-5.05 3.573-6.196l28.378-16.406.004 1.224-.984.57.011 4.795.987.436.003 1.225z" class="D"/><path d="M138.868 195.813l-28.904 16.71c-.395.229-.767.349-1.075.349-.805 0-.926-.929-.929-1.482-.003-1.904 1.389-4.32 3.043-5.276l26.868-15.531.011 4.794.986.436z" fill="#4f1ad9"/><path d="M138.703 195.908l-28.74 16.615c-.395.229-.767.349-1.074.349-.47 0-.707-.318-.827-.693a2.79 2.79 0 0 1-.103-.789c-.003-1.904 1.389-4.32 3.043-5.276l26.868-15.531-.153 4.89.986.435z" class="Y"/><path d="M137.881 195.377l-28.472 16.488c-.399.233-.774.353-1.082.353-.099 0-.187-.013-.265-.039-.081-.265-.103-.559-.103-.789-.003-1.905 1.389-4.321 3.043-5.277l26.868-15.531.011 4.795z" fill="#f6f6fc"/><path d="M114.512 177.566c-7.311-3.159-19.151-3.159-26.414.001-7.278 3.166-7.224 8.296.086 11.456s19.136 3.167 26.414 0c7.264-3.16 7.225-8.296-.086-11.457z" class="Y"/><path d="M120.836 180.611c0 12.336-34.718 12.336-34.718 0v-18.565h34.718v18.565z" class="U"/><path d="M130.467 164.233l-.005 1.784-26.99 15.706.004-1.784 26.991-15.706z" fill="#5056bb"/><path d="M103.476 179.939l-.004 1.784-27.165-15.704.006-1.784 27.163 15.704z" fill="#272a50"/><path d="M130.467 164.233l-26.991 15.706-27.163-15.704 26.991-15.706 27.163 15.704z" class="U"/><path d="M103.963 164.233l13.538 7.545v10.558" stroke="#bdedf6" stroke-width="2" class="Q Z a"/><path d="M106.094 163.308c-1.183-.511-3.099-.511-4.274 0s-1.169 1.343.014 1.854 3.097.511 4.274 0 1.169-1.343-.014-1.854zm11.407 13.356l-2.051 5.683c0 1.155 4.099 1.155 4.099 0l-2.048-5.683-2.051 5.683h4.099l-2.048-5.683z" class="D"/></g></svg>